<?xml version="1.0" encoding="UTF-8"?>
<svg id="_Слой_1" xmlns="http://www.w3.org/2000/svg" xmlns:xodm="http://www.corel.com/coreldraw/odm/2003" version="1.1" viewBox="0 0 100 83.19">
  <!-- Generator: Adobe Illustrator 29.5.1, SVG Export Plug-In . SVG Version: 2.1.0 Build 141)  -->
  <defs>
    <style>
      .st0, .st1, .st2, .st3 {
        fill: none;
      }

      .st4 {
        fill: #214270;
      }

      .st1 {
        stroke-linejoin: round;
      }

      .st1, .st2 {
        stroke-linecap: round;
        stroke-width: .02px;
      }

      .st1, .st2, .st3 {
        stroke: #214270;
      }

      .st5 {
        fill: #fff;
      }

      .st2, .st3 {
        stroke-miterlimit: 1.02;
      }

      .st6 {
        fill: #e3e4e5;
      }

      .st3 {
        stroke-width: .02px;
      }
    </style>
  </defs>
  <g id="main">
    <line class="st3" x1="36.8" y1="43.12" x2="38.85" y2="47.46"/>
    <line class="st3" x1="53.54" y1="37.44" x2="51.43" y2="32.97"/>
    <line class="st3" x1="36.82" y1="43.1" x2="36.82" y2="47.46"/>
    <line class="st3" x1="53.52" y1="37.47" x2="53.52" y2="32.97"/>
    <line class="st3" x1="56.71" y1="42.88" x2="56.71" y2="38.38"/>
    <line class="st3" x1="32.4" y1="42.18" x2="32.4" y2="37.68"/>
    <line class="st3" x1="37.87" y1="45.39" x2="37.87" y2="47.46"/>
    <line class="st3" x1="52.47" y1="35.18" x2="52.47" y2="32.97"/>
    <line class="st3" x1="35.76" y1="43.1" x2="35.76" y2="47.46"/>
    <line class="st3" x1="54.57" y1="37.47" x2="54.57" y2="32.97"/>
    <line class="st3" x1="55.66" y1="42.88" x2="55.66" y2="38.38"/>
    <line class="st3" x1="33.45" y1="42.18" x2="33.45" y2="37.68"/>
    <line class="st3" x1="52.51" y1="42.88" x2="52.51" y2="38.38"/>
    <line class="st3" x1="36.61" y1="42.18" x2="36.61" y2="37.68"/>
    <line class="st3" x1="34.71" y1="43.1" x2="34.71" y2="47.46"/>
    <line class="st3" x1="55.63" y1="37.47" x2="55.63" y2="32.97"/>
    <line class="st3" x1="54.61" y1="42.88" x2="54.61" y2="38.38"/>
    <line class="st3" x1="34.5" y1="42.18" x2="34.5" y2="37.68"/>
    <line class="st3" x1="51.46" y1="42.88" x2="51.46" y2="38.38"/>
    <line class="st3" x1="37.66" y1="42.18" x2="37.66" y2="37.68"/>
    <line class="st3" x1="33.66" y1="43.1" x2="33.66" y2="47.46"/>
    <line class="st3" x1="56.68" y1="37.47" x2="56.68" y2="32.97"/>
    <line class="st3" x1="53.56" y1="42.88" x2="53.56" y2="38.38"/>
    <line class="st3" x1="35.56" y1="42.18" x2="35.56" y2="37.68"/>
    <line class="st3" x1="50.41" y1="42.88" x2="50.41" y2="38.38"/>
    <line class="st3" x1="38.71" y1="42.18" x2="38.71" y2="37.68"/>
    <line class="st3" x1="32.61" y1="43.1" x2="32.61" y2="47.46"/>
    <line class="st3" x1="57.73" y1="37.47" x2="57.73" y2="32.97"/>
    <line class="st3" x1="49.36" y1="42.88" x2="49.36" y2="38.38"/>
    <line class="st3" x1="39.76" y1="42.18" x2="39.76" y2="37.68"/>
    <line class="st3" x1="31.56" y1="43.1" x2="31.56" y2="47.46"/>
    <line class="st3" x1="30.51" y1="43.1" x2="30.51" y2="47.46"/>
    <line class="st3" x1="30.51" y1="45.31" x2="36.82" y2="45.31"/>
    <line class="st3" x1="57.73" y1="35.25" x2="53.52" y2="35.25"/>
    <line class="st3" x1="49.36" y1="40.66" x2="56.71" y2="40.66"/>
    <line class="st3" x1="39.76" y1="39.96" x2="32.4" y2="39.96"/>
    <polyline class="st3" points="36.08 46.08 36.82 45.31 36.08 44.55"/>
    <polyline class="st3" points="54.26 34.48 53.52 35.25 54.26 36.01"/>
    <polyline class="st3" points="55.98 39.89 56.71 40.66 55.98 41.42"/>
    <polyline class="st3" points="33.14 39.19 32.4 39.96 33.14 40.72"/>
    <g id="_1933193988256">
      <rect class="st4" x="75.27" y="33.38" width="5.61" height="5.17"/>
      <g id="_ифт2">
        <g id="lift_2">
          <g>
            <path class="st5" d="M78.06,34.11h-1.46c-.25,0-.45.2-.45.45v2.81c0,.25.2.45.45.45h1.46c.25,0,.45-.2.45-.45v-2.81c0-.25-.2-.45-.45-.45ZM78.32,37.37c0,.14-.11.25-.25.25h-1.46c-.14,0-.25-.11-.25-.25v-2.81c0-.14.11-.25.25-.25h1.46c.14,0,.25.11.25.25v2.81Z"/>
            <path class="st5" d="M79.78,36.83l-.24.24v-.79c0-.07-.06-.13-.13-.13s-.13.06-.13.13v.79l-.24-.24c-.05-.05-.13-.05-.18,0-.05.05-.05.13,0,.18l.41.41s.08.05.12.06c0,0,.02,0,.02,0,0,0,.02,0,.02,0,.04,0,.09-.02.12-.06l.41-.41c.05-.05.05-.13,0-.18s-.13-.05-.18,0h0Z"/>
            <path class="st5" d="M79.03,35.1l.25-.24v.84c0,.07.06.13.13.13s.13-.06.13-.13v-.84l.24.24s.06.04.09.04.07-.01.09-.04c.05-.05.05-.13,0-.18l-.41-.41s-.07-.05-.11-.06c-.01,0-.02,0-.03,0s-.02,0-.03,0c-.04,0-.08.02-.11.06l-.41.41c-.05.05-.05.13,0,.18.05.05.13.05.18,0h0Z"/>
            <g>
              <path class="st5" d="M77.33,35.01c.15,0,.28-.12.28-.28s-.12-.28-.28-.28-.28.12-.28.28.12.28.28.28Z"/>
              <path class="st5" d="M77.34,36.27c-.1,0-.26-.02-.34-.03l-.08,1.07c0,.08.05.15.14.16h0c.08,0,.15-.05.16-.13l.07-.8s.02-.06.06-.06c.05,0,.06.04.06.06l.07.79c0,.08.08.14.16.14h0c.08,0,.14-.08.14-.16l-.08-1.07c-.08.01-.24.03-.34.03h0Z"/>
              <path class="st5" d="M77.94,35.81l-.04-.4c0-.08-.04-.17-.16-.23-.09-.04-.39-.04-.39-.04,0,0-.33,0-.42.04-.11.05-.15.15-.15.23l-.04.4h0l-.04.51c0,.08.05.15.13.16h0s.05,0,.08-.01l.06-.79s.02-.04.04-.03c.02,0,.04.02.03.04l-.03.48c.07.01.23.03.33.03.09,0,.27-.02.34-.03l-.03-.48s.01-.04.03-.04.04.01.04.03l.05.79s.05.02.07.01h0c.08,0,.14-.08.13-.16l-.04-.51h0s0,0,0,0Z"/>
            </g>
          </g>
        </g>
      </g>
    </g>
    <g id="_1933193993200">
      <rect class="st4" x="75.27" y="40.44" width="5.61" height="5.65"/>
      <g id="_ифт2-2">
        <g id="lift_2-2">
          <g>
            <path class="st5" d="M78.06,41.41h-1.46c-.25,0-.45.2-.45.45v2.81c0,.25.2.45.45.45h1.46c.25,0,.45-.2.45-.45v-2.81c0-.25-.2-.45-.45-.45ZM78.32,44.67c0,.14-.11.25-.25.25h-1.46c-.14,0-.25-.11-.25-.25v-2.81c0-.14.11-.25.25-.25h1.46c.14,0,.25.11.25.25v2.81h0Z"/>
            <path class="st5" d="M79.78,44.13l-.24.24v-.79c0-.07-.06-.13-.13-.13s-.13.06-.13.13v.79l-.24-.24c-.05-.05-.13-.05-.18,0-.05.05-.05.13,0,.18l.41.41s.08.05.12.06c0,0,.02,0,.02,0,0,0,.02,0,.02,0,.04,0,.09-.02.12-.06l.41-.41c.05-.05.05-.13,0-.18s-.13-.05-.18,0h0Z"/>
            <path class="st5" d="M79.03,42.4l.25-.24v.84c0,.07.06.13.13.13s.13-.06.13-.13v-.84l.24.24s.06.04.09.04.07-.01.09-.04c.05-.05.05-.13,0-.18l-.41-.41s-.07-.05-.11-.06c-.01,0-.02,0-.03,0s-.02,0-.03,0c-.04,0-.08.03-.11.06l-.41.41c-.05.05-.05.13,0,.18.05.05.13.05.18,0h0Z"/>
            <g>
              <path class="st5" d="M77.33,42.31c.15,0,.28-.12.28-.28s-.12-.28-.28-.28-.28.12-.28.28.12.28.28.28Z"/>
              <path class="st5" d="M77.34,43.57c-.1,0-.26-.02-.34-.03l-.08,1.07c0,.08.05.15.14.16h0c.08,0,.15-.05.16-.13l.07-.79s.02-.06.06-.07c.05,0,.06.04.06.06l.07.8c0,.08.08.14.16.13h0c.08,0,.14-.08.14-.16l-.08-1.07c-.08.01-.24.03-.34.03h0Z"/>
              <path class="st5" d="M77.94,43.11l-.04-.4c0-.08-.04-.17-.16-.23-.09-.04-.39-.04-.39-.04,0,0-.33,0-.42.04-.11.05-.15.15-.15.23l-.04.4h0l-.04.51c0,.08.05.15.13.16h0s.05,0,.08-.01l.06-.79s.02-.04.04-.03c.02,0,.04.02.03.04l-.03.48c.07.01.23.03.33.03.09,0,.27-.02.34-.03l-.03-.48s.01-.04.03-.04.04.01.04.03l.05.79s.05.02.07.01h0c.08,0,.14-.08.13-.16l-.04-.51h0s0,0,0,0Z"/>
            </g>
          </g>
        </g>
      </g>
    </g>
    <g id="_1933193999632">
      <rect class="st4" x="55.53" y="44.64" width="8.04" height="5.07"/>
      <g id="_ифт">
        <g id="lift_3">
          <g>
            <path class="st5" d="M60.12,45.32h-2.62c-.25,0-.45.2-.45.45v2.81c0,.25.2.45.45.45h2.62c.25,0,.45-.2.45-.45v-2.81c0-.25-.2-.45-.45-.45h0ZM60.37,48.58c0,.14-.11.25-.25.25h-2.62c-.14,0-.25-.11-.25-.25v-2.81c0-.14.11-.25.25-.25h2.62c.14,0,.25.11.25.25v2.81Z"/>
            <path class="st5" d="M61.83,48.03l-.24.24v-.79c0-.07-.06-.13-.13-.13s-.13.06-.13.13v.79l-.24-.24c-.05-.05-.13-.05-.18,0s-.05.13,0,.18l.41.41s.08.05.12.06c0,0,.02,0,.02,0s.02,0,.02,0c.04,0,.09-.02.12-.06l.41-.41c.05-.05.05-.13,0-.18-.05-.05-.13-.05-.18,0h0Z"/>
            <path class="st5" d="M61.08,46.31l.24-.24v.84c0,.07.06.13.13.13s.13-.06.13-.13v-.84l.24.24s.06.04.09.04.07-.01.09-.04c.05-.05.05-.13,0-.18l-.41-.41s-.07-.05-.11-.06c-.01,0-.02,0-.03,0s-.02,0-.03,0c-.04,0-.08.02-.11.06l-.41.41c-.05.05-.05.13,0,.18.05.05.13.05.18,0h0s0,0,0,0Z"/>
            <g>
              <path class="st5" d="M59.39,46.22c.15,0,.28-.12.28-.28s-.12-.28-.28-.28-.28.12-.28.28.12.28.28.28Z"/>
              <path class="st5" d="M59.39,47.48c-.1,0-.26-.02-.34-.03l-.08,1.07c0,.08.05.15.14.16h0c.08,0,.15-.05.16-.13l.07-.79s.02-.06.06-.06c.05,0,.06.04.06.06l.07.79c0,.08.08.14.16.14h0c.08,0,.14-.08.14-.16l-.08-1.07c-.08.01-.24.03-.34.03h0Z"/>
              <path class="st5" d="M59.99,47.02l-.04-.4c0-.08-.04-.17-.16-.23-.09-.04-.39-.04-.39-.04,0,0-.33,0-.42.04-.11.05-.15.15-.15.23l-.04.4h0l-.04.51c0,.08.05.15.13.16h0s.05,0,.08-.01l.06-.79s.02-.04.04-.03c.02,0,.03.02.03.04l-.03.48c.07.01.23.03.33.03.09,0,.27-.02.34-.03l-.03-.48s.01-.04.03-.04c.02,0,.04.01.04.03l.05.79s.05.02.07.01h0c.08,0,.14-.08.13-.16l-.04-.51h0,0Z"/>
            </g>
          </g>
          <rect class="st5" x="57.53" y="47.91" width=".9" height=".71"/>
          <rect class="st5" x="57.53" y="47.09" width=".9" height=".71"/>
          <rect class="st5" x="57.53" y="46.61" width=".9" height=".35"/>
        </g>
      </g>
    </g>
    <path class="st4" d="M.86.03h99.14v83.2H0V.03h.86ZM98.28,1.75H1.72v79.76h96.56V1.75h0Z"/>
    <polygon class="st4" points="73.75 51.22 73.75 45.25 74.8 45.25 74.8 46.46 81.45 46.46 81.45 39.87 74.8 39.87 74.8 41.27 73.75 41.27 73.75 37.9 74.8 37.9 74.8 38.83 81.45 38.83 81.45 32.97 74.8 32.97 74.8 33.91 73.75 33.91 73.75 31.92 82.5 31.92 82.5 51.22 81.45 51.22 81.45 47.5 74.8 47.5 74.8 51.22 73.75 51.22"/>
    <polygon class="st4" points="49.37 42.88 54.52 42.88 54.52 43.92 49.37 43.92 49.37 42.88"/>
    <polygon class="st4" points="38.82 31.92 39.76 31.92 65.06 31.92 65.06 32.97 39.76 32.97 39.76 37.68 39.37 37.68 38.72 37.68 25.15 37.68 25.15 36.63 38.72 36.63 38.72 31.92 38.82 31.92"/>
    <polygon class="st4" points="65.06 49.23 65.06 51.22 53.94 51.22 53.94 42.88 64.01 42.88 64.01 42.47 65.06 42.47 65.06 42.88 65.06 42.93 65.06 45.07 64.01 45.07 64.01 43.92 54.99 43.92 54.99 50.17 64.01 50.17 64.01 49.23 65.06 49.23"/>
    <polygon class="st4" points="44.09 37.47 45.14 37.47 59.68 37.47 59.68 38.51 45.14 38.51 45.14 43.1 44.56 43.1 44.09 43.1 25.13 43.1 25.13 42.05 44.09 42.05 44.09 38.51 44.09 37.47"/>
    <polygon class="st4" points="25.13 47.46 49.84 47.46 49.84 48.51 25.13 48.51 25.13 47.46"/>
    <polygon class="st4" points="49.37 48.51 49.37 42.88 50.42 42.88 50.42 48.51 49.37 48.51"/>
    <polygon class="st4" points="25.13 51.22 25.13 42.63 26.18 42.63 26.18 51.22 25.13 51.22"/>
    <polygon class="st4" points="25.15 36.67 25.15 31.92 26.19 31.92 26.19 36.67 25.15 36.67"/>
    <polygon class="st4" points="25.15 61.9 25.15 56.46 26.19 56.46 26.19 61.9 25.15 61.9"/>
    <polygon class="st4" points="25.15 83.17 25.15 72.81 26.19 72.81 26.19 83.17 25.15 83.17"/>
    <polygon class="st4" points="49.37 61.9 49.37 56.46 50.42 56.46 50.42 61.9 49.37 61.9"/>
    <polygon class="st4" points="49.37 83.17 49.37 72.81 50.42 72.81 50.42 83.17 49.37 83.17"/>
    <polygon class="st4" points="25.15 21.43 25.15 26.6 26.19 26.6 26.19 21.43 25.15 21.43"/>
    <polygon class="st4" points="25.15 0 25.15 10.52 26.19 10.52 26.19 0 25.15 0"/>
    <polygon class="st4" points="49.37 21.43 49.37 26.72 50.42 26.72 50.42 21.43 49.37 21.43"/>
    <polygon class="st4" points="64.01 31.92 64.01 37.73 65.06 37.73 65.06 31.92 64.01 31.92"/>
    <polygon class="st4" points="49.37 0 49.37 10.52 50.42 10.52 50.42 0 49.37 0"/>
    <polygon class="st4" points="74.12 21.43 74.12 26.72 75.16 26.72 75.16 21.43 74.12 21.43"/>
    <polygon class="st4" points="74.12 .24 74.12 10.52 75.16 10.52 75.16 .24 74.12 .24"/>
    <polygon class="st4" points="74.12 61.95 74.12 56.51 75.16 56.51 75.16 61.95 74.12 61.95"/>
    <polygon class="st4" points="74.12 83.17 74.12 72.81 75.16 72.81 75.16 83.17 74.12 83.17"/>
    <polygon class="st4" points="71.72 50.43 74.72 50.43 74.72 51.22 71.72 51.22 71.72 50.43"/>
    <polygon class="st4" points="65.93 22.21 74.12 22.21 74.12 23 65.93 23 65.93 22.21"/>
    <polygon class="st4" points="74.39 30.49 74.39 32.96 75.18 32.96 75.18 30.49 74.39 30.49"/>
    <polygon class="st4" points="66.03 60.11 74.38 60.11 74.38 60.9 66.03 60.9 66.03 60.11"/>
    <polygon class="st4" points="43.48 57.31 49.74 57.31 49.74 58.09 43.48 58.09 43.48 57.31"/>
    <polygon class="st4" points="66.81 60.3 66.81 56.66 66.03 56.66 66.03 60.3 66.81 60.3"/>
    <polygon class="st4" points="44.26 57.5 44.26 56.46 43.48 56.46 43.48 57.5 44.26 57.5"/>
    <polygon class="st4" points="64.75 50.43 66.98 50.43 66.98 51.22 64.75 51.22 64.75 50.43"/>
    <polygon class="st4" points="11.87 37.08 20.83 37.08 20.83 38.61 11.87 38.61 11.87 37.08"/>
    <polygon class="st4" points="0 35.33 12.9 35.33 12.9 36.86 0 36.86 0 35.33"/>
    <polygon class="st4" points="11.87 46.01 20.83 46.01 20.83 44.48 11.87 44.48 11.87 46.01"/>
    <polygon class="st4" points="20.83 46.01 20.83 42.79 19.3 42.79 19.3 46.01 20.83 46.01"/>
    <polygon class="st4" points="12.9 47.75 12.9 44.48 11.37 44.48 11.37 47.75 12.9 47.75"/>
    <polygon class="st4" points="0 47.75 12.9 47.75 12.9 46.23 0 46.23 0 47.75"/>
    <polygon class="st4" points="20.83 39 20.83 38.22 19.3 38.22 19.3 39 20.83 39"/>
    <polygon class="st4" points="12.9 38.61 12.9 35.33 11.37 35.33 11.37 38.61 12.9 38.61"/>
    <polygon class="st4" points="56.53 25.93 57.24 25.93 57.24 26.72 56.53 26.72 56.53 25.93"/>
    <polygon class="st4" points="40.02 25.93 40.73 25.93 40.73 26.72 40.02 26.72 40.02 25.93"/>
    <polygon class="st4" points="65.93 26.72 65.93 22.21 66.71 22.21 66.71 26.72 65.93 26.72"/>
    <polygon class="st4" points="50.17 24.95 57.24 24.95 57.24 25.73 50.17 25.73 50.17 24.95"/>
    <polygon class="st4" points="40.02 26.72 40.02 24.95 40.81 24.95 40.81 26.72 40.02 26.72"/>
    <polygon class="st4" points="20.05 37.14 20.05 32.72 20.83 32.72 20.83 37.14 20.05 37.14"/>
    <polygon class="st4" points="56.46 26.72 56.46 24.95 57.24 24.95 57.24 26.72 56.46 26.72"/>
    <polygon class="st4" points="40.02 24.5 49.61 24.5 49.61 25.28 40.02 25.28 40.02 24.5"/>
    <polygon class="st4" points="74.8 50.85 81.95 50.85 81.95 51.22 74.8 51.22 74.8 50.85"/>
    <polygon class="st4" points="77.37 58.59 77.37 56.46 77.73 56.46 77.73 58.59 77.37 58.59"/>
    <polygon class="st4" points="74.99 58.22 77.73 58.22 77.73 58.59 74.99 58.59 74.99 58.22"/>
    <polygon class="st4" points="22.75 58.56 22.75 56.65 22.38 56.65 22.38 58.56 22.75 58.56"/>
    <polygon class="st4" points="26.82 65.5 26.82 63.87 27.18 63.87 27.18 65.5 26.82 65.5"/>
    <polygon class="st4" points="51.35 23.6 51.35 25.73 51.71 25.73 51.71 23.6 51.35 23.6"/>
    <polygon class="st4" points="40.02 20.04 40.02 24.68 40.39 24.68 40.39 20.04 40.02 20.04"/>
    <polygon class="st4" points="23.99 26.72 23.99 24.71 23.63 24.71 23.63 26.72 23.99 26.72"/>
    <polygon class="st4" points="27.36 26.72 27.36 24.71 26.99 24.71 26.99 26.72 27.36 26.72"/>
    <polygon class="st4" points="25.32 63.87 27.18 63.87 27.18 64.24 25.32 64.24 25.32 63.87"/>
    <polygon class="st4" points="10.64 35.7 20.83 35.7 20.83 35.33 10.64 35.33 10.64 35.7"/>
    <polygon class="st4" points="27.36 24.71 23.63 24.71 23.63 25.08 27.36 25.08 27.36 24.71"/>
    <polygon class="st4" points="43.85 58.05 43.85 61.01 43.48 61.01 43.48 58.05 43.85 58.05"/>
    <polygon class="st4" points="25.21 58.2 22.59 58.2 22.59 58.56 25.21 58.56 25.21 58.2"/>
    <polygon class="st4" points="25.3 65.13 27.18 65.13 27.18 65.5 25.3 65.5 25.3 65.13"/>
    <polygon class="st4" points="50.3 23.97 51.71 23.97 51.71 23.6 50.3 23.6 50.3 23.97"/>
    <polygon class="st4" points="40.36 26.72 56.53 26.72 56.53 26.35 40.36 26.35 40.36 26.72"/>
    <polygon class="st4" points="26.16 32.29 38.87 32.29 38.87 31.92 26.16 31.92 26.16 32.29"/>
    <polygon class="st4" points="50.26 20.04 40.02 20.04 40.02 20.41 50.26 20.41 50.26 20.04"/>
    <polygon class="st4" points="51.83 58.6 51.83 56.63 52.2 56.63 52.2 58.6 51.83 58.6"/>
    <polygon class="st4" points="49.78 17.63 49.78 25.76 50.15 25.76 50.15 17.63 49.78 17.63"/>
    <polygon class="st4" points="44.17 56.46 54.58 56.46 54.58 56.83 44.17 56.83 44.17 56.46"/>
    <polygon class="st4" points="50.42 58.24 52.04 58.24 52.04 58.6 50.42 58.6 50.42 58.24"/>
    <polygon class="st4" points="53.98 17.81 54.54 17.81 54.54 17.44 53.98 17.44 53.98 17.81"/>
    <polygon class="st4" points="23.63 26.72 27.36 26.72 27.36 26.35 23.63 26.35 23.63 26.72"/>
    <polygon class="st4" points="83.63 33.57 83.63 31.9 84 31.9 84 33.57 83.63 33.57"/>
    <polygon class="st4" points="86.43 32.16 86.43 30.49 86.8 30.49 86.8 32.16 86.43 32.16"/>
    <polygon class="st4" points="88.95 45.71 88.95 45.01 89.32 45.01 89.32 45.71 88.95 45.71"/>
    <polygon class="st4" points="82.22 45.34 89.31 45.34 89.31 45.71 82.22 45.71 82.22 45.34"/>
    <polygon class="st4" points="82.11 36.34 84.91 36.34 84.91 36.7 82.11 36.7 82.11 36.34"/>
    <polygon class="st4" points="82.37 33.2 84 33.2 84 33.57 82.37 33.57 82.37 33.2"/>
    <polygon class="st4" points="75.03 30.49 86.8 30.49 86.8 30.86 75.03 30.86 75.03 30.49"/>
    <polygon class="st4" points="43.52 60.64 49.71 60.64 49.71 61.01 43.52 61.01 43.52 60.64"/>
    <polygon class="st4" points="66.03 56.46 77.67 56.46 77.67 56.83 66.03 56.83 66.03 56.46"/>
    <polygon class="st4" points="16.1 56.46 26.19 56.46 26.19 56.83 16.1 56.83 16.1 56.46"/>
    <polygon class="st4" points="20.75 63.14 25.52 63.14 25.52 63.51 20.75 63.51 20.75 63.14"/>
    <polygon class="st4" points="16.1 66.27 25.52 66.27 25.52 66.63 16.1 66.63 16.1 66.27"/>
    <polygon class="st4" points="16.47 60.52 16.47 66.63 16.1 66.63 16.1 60.52 16.47 60.52"/>
    <polygon class="st4" points="54.58 56.46 54.58 65.39 54.21 65.39 54.21 56.46 54.58 56.46"/>
    <polygon class="st4" points="54.54 25.6 54.54 17.52 54.17 17.52 54.17 25.6 54.54 25.6"/>
    <polygon class="st4" points="25.52 61.75 25.52 66.63 25.15 66.63 25.15 61.75 25.52 61.75"/>
    <polygon class="st4" points="50.11 61.56 50.11 65.39 49.74 65.39 49.74 61.56 50.11 61.56"/>
    <polygon class="st4" points="50.52 65.02 49.74 65.02 49.74 65.39 50.52 65.39 50.52 65.02"/>
    <polygon class="st4" points="88.95 41.32 88.95 31.92 89.32 31.92 89.32 41.32 88.95 41.32"/>
    <polygon class="st4" points="65.93 26.72 75.16 26.72 75.16 26.35 65.93 26.35 65.93 26.72"/>
    <polygon class="st4" points="50.42 25.21 50.42 20.04 50.05 20.04 50.05 25.21 50.42 25.21"/>
    <g id="_1894793097968">
      <path class="st4" d="M23.79,61.13s.03,0,.03,0h1.08v1.2h-1.08s-.02,0-.03,0c-.32,0-.58-.27-.58-.6s.26-.6.58-.6h0ZM23.79,61.06c-.36,0-.66.3-.66.68s.29.68.66.68c.01,0,.03,0,.03,0h1.15v-1.35h-1.15s-.02,0-.03,0h0Z"/>
      <path class="st4" d="M25.08,61.28v.91h-.08v-.91h.08ZM25.15,61.21h-.22v1.05h.22v-1.05h0Z"/>
    </g>
    <g id="_1894793101856">
      <path class="st4" d="M83.85,34.34s-.03,0-.03,0h-1.08v1.2h1.08s.02,0,.03,0c.32,0,.58-.27.58-.6s-.26-.6-.58-.6h0ZM83.85,34.27c.36,0,.66.3.66.68s-.29.68-.66.68c-.01,0-.03,0-.03,0h-1.15v-1.35h1.15s.02,0,.03,0h0Z"/>
      <path class="st4" d="M82.57,34.49v.91h.08v-.91h-.08ZM82.5,34.42h.22v1.05h-.22v-1.05h0Z"/>
    </g>
    <g id="_1894793110592">
      <path class="st4" d="M84.16,42.82v1.8h-1.61v-1.8h1.61ZM84.22,42.77h-1.72v1.92h1.72v-1.92h0Z"/>
      <g>
        <path class="st4" d="M83.98,43.07s.08.03.08.08v1.15s-.03.08-.08.08h-.61s-.08-.03-.08-.08v-1.15s.03-.08.08-.08h.61ZM83.98,43.01h-.61c-.07,0-.13.06-.13.13v1.15c0,.07.06.13.13.13h.61c.07,0,.13-.06.13-.13v-1.15c0-.07-.06-.13-.13-.13h0Z"/>
        <g>
          <g>
            <path class="st4" d="M83.14,43.59s.05-.02.05-.05-.02-.05-.05-.05-.05.02-.05.05.02.05.05.05Z"/>
            <path class="st4" d="M83.14,43.94s.05-.02.05-.05-.02-.05-.05-.05-.05.02-.05.05.02.05.05.05Z"/>
          </g>
          <line class="st2" x1="83.11" y1="43.72" x2="83.42" y2="43.72"/>
        </g>
      </g>
      <g>
        <path class="st4" d="M82.69,42.92v.11h-.14v-.11h.14ZM82.75,42.86h-.25v.23h.25v-.23h0Z"/>
        <path class="st4" d="M82.69,44.41v.11h-.14v-.11h.14ZM82.75,44.36h-.25v.23h.25v-.23h0Z"/>
        <line class="st1" x1="82.62" y1="43.08" x2="82.62" y2="44.36"/>
      </g>
    </g>
    <g id="_1931714528272">
      <path class="st4" d="M84.16,40.22v1.8h-1.61v-1.8h1.61ZM84.22,40.17h-1.72v1.92h1.72v-1.92h0Z"/>
      <g>
        <path class="st4" d="M83.98,40.47s.08.03.08.08v1.15s-.03.08-.08.08h-.61s-.08-.03-.08-.08v-1.15s.03-.08.08-.08h.61ZM83.98,40.42h-.61c-.07,0-.13.06-.13.13v1.15c0,.07.06.13.13.13h.61c.07,0,.13-.06.13-.13v-1.15c0-.07-.06-.13-.13-.13h0Z"/>
        <g>
          <g>
            <path class="st4" d="M83.14,40.99s.05-.02.05-.05-.02-.05-.05-.05-.05.02-.05.05.02.05.05.05Z"/>
            <path class="st4" d="M83.14,41.34s.05-.02.05-.05-.02-.05-.05-.05-.05.02-.05.05.02.05.05.05Z"/>
          </g>
          <line class="st2" x1="83.11" y1="41.12" x2="83.42" y2="41.12"/>
        </g>
      </g>
      <g>
        <path class="st4" d="M82.69,40.32v.11h-.14v-.11h.14ZM82.75,40.26h-.25v.23h.25v-.23h0Z"/>
        <path class="st4" d="M82.69,41.81v.11h-.14v-.11h.14ZM82.75,41.76h-.25v.23h.25v-.23h0Z"/>
        <line class="st1" x1="82.62" y1="40.48" x2="82.62" y2="41.76"/>
      </g>
    </g>
    <g id="_1931714495056">
      <path class="st4" d="M84.16,37.6v1.8h-1.61v-1.8h1.61ZM84.22,37.54h-1.72v1.92h1.72v-1.92h0Z"/>
      <g>
        <path class="st4" d="M83.98,37.85s.08.03.08.08v1.15s-.03.08-.08.08h-.61s-.08-.03-.08-.08v-1.15s.03-.08.08-.08h.61ZM83.98,37.79h-.61c-.07,0-.13.06-.13.13v1.15c0,.07.06.13.13.13h.61c.07,0,.13-.06.13-.13v-1.15c0-.07-.06-.13-.13-.13h0Z"/>
        <g>
          <g>
            <path class="st4" d="M83.14,38.37s.05-.02.05-.05-.02-.05-.05-.05-.05.02-.05.05.02.05.05.05Z"/>
            <path class="st4" d="M83.14,38.72s.05-.02.05-.05-.02-.05-.05-.05-.05.02-.05.05.02.05.05.05Z"/>
          </g>
          <line class="st2" x1="83.11" y1="38.5" x2="83.42" y2="38.5"/>
        </g>
      </g>
      <g>
        <path class="st4" d="M82.69,37.7v.11h-.14v-.11h.14ZM82.75,37.64h-.25v.23h.25v-.23h0Z"/>
        <path class="st4" d="M82.69,39.19v.11h-.14v-.11h.14ZM82.75,39.13h-.25v.23h.25v-.23h0Z"/>
        <line class="st1" x1="82.62" y1="37.86" x2="82.62" y2="39.13"/>
      </g>
    </g>
    <g id="_1930536982560">
      <path class="st4" d="M21.9,58.49h-1.8v-1.61h1.8v1.61h0ZM21.95,58.55v-1.72h-1.92v1.72s1.92,0,1.92,0Z"/>
      <g>
        <path class="st4" d="M21.65,58.3s-.03.08-.08.08h-1.15s-.08-.03-.08-.08v-.61s.03-.08.08-.08h1.15s.08.03.08.08v.61h0ZM21.7,58.3v-.61c0-.07-.06-.13-.13-.13h-1.15c-.07,0-.13.06-.13.13v.61c0,.07.06.13.13.13h1.15c.07,0,.13-.06.13-.13h0Z"/>
        <g>
          <g>
            <path class="st4" d="M21.13,57.47s.02.05.05.05.05-.02.05-.05-.02-.05-.05-.05-.05.02-.05.05Z"/>
            <path class="st4" d="M20.78,57.47s.02.05.05.05.05-.02.05-.05-.02-.05-.05-.05-.05.02-.05.05Z"/>
          </g>
          <line class="st2" x1="21" y1="57.43" x2="21" y2="57.75"/>
        </g>
      </g>
      <g>
        <path class="st4" d="M21.8,57.02h-.11v-.14h.11v.14h0ZM21.86,57.08v-.25h-.23v.25h.23Z"/>
        <path class="st4" d="M20.31,57.02h-.11v-.14h.11v.14h0ZM20.36,57.08v-.25h-.23v.25h.23Z"/>
        <line class="st1" x1="21.64" y1="56.95" x2="20.36" y2="56.95"/>
      </g>
    </g>
    <g id="_1930536996048">
      <path d="M51.03,23.42h1.89c.12,0,.23-.05.31-.13s.13-.19.13-.31v-1.92c0-.12-.05-.23-.13-.31-.08-.08-.19-.13-.31-.13h-1.89c-.12,0-.23.05-.31.13-.08.08-.13.19-.13.31v1.92c0,.12.05.23.13.31.08.08.19.13.31.13ZM52.92,23.45h-1.89c-.13,0-.24-.05-.33-.14-.08-.08-.14-.2-.14-.33v-1.92c0-.13.05-.24.14-.33.08-.08.2-.14.33-.14h1.89c.13,0,.24.05.33.14.08.08.14.2.14.33v1.92c0,.13-.05.24-.14.33-.08.08-.2.14-.33.14Z"/>
      <path d="M51.09,23.33h1.76c.11,0,.21-.05.29-.12.07-.07.12-.17.12-.29v-1.79c0-.11-.05-.21-.12-.29s-.17-.12-.29-.12h-1.76c-.11,0-.21.05-.29.12s-.12.17-.12.29v1.79c0,.11.05.21.12.29s.17.12.29.12ZM52.85,23.35h-1.76c-.12,0-.23-.05-.3-.13s-.13-.19-.13-.3v-1.79c0-.12.05-.23.13-.3s.19-.13.3-.13h1.76c.12,0,.23.05.3.13.08.08.13.19.13.3v1.79c0,.12-.05.23-.13.3-.08.08-.19.13-.3.13Z"/>
      <path d="M50.47,23.55h3.01v-3.04h-3.01s0,3.04,0,3.04ZM53.5,23.6h-3.09v-3.15h3.11v3.15h-.03Z"/>
      <path d="M51.01,23.1s.05-.01.07-.03c.02-.02.03-.04.03-.07s-.01-.05-.03-.07c-.02-.02-.04-.03-.07-.03s-.05.01-.07.03c-.02.02-.03.04-.03.07s.01.05.03.07c.02.02.04.03.07.03ZM51.1,23.09s-.05.04-.09.04-.07-.01-.09-.04-.04-.05-.04-.09.01-.07.04-.09c.02-.02.05-.04.09-.04s.07.01.09.04c.02.02.04.05.04.09s-.01.07-.04.09Z"/>
    </g>
    <g id="_1930536931728">
      <path d="M51.04,58.78h1.89c.12,0,.23.05.31.13s.13.19.13.31v1.93c0,.12-.05.23-.13.31-.08.08-.19.13-.31.13h-1.89c-.12,0-.23-.05-.31-.13-.08-.08-.13-.19-.13-.31v-1.93c0-.12.05-.23.13-.31.08-.08.19-.13.31-.13ZM52.93,58.75h-1.89c-.13,0-.24.05-.33.14-.08.08-.14.2-.14.33v1.93c0,.13.05.24.14.33.08.08.2.14.33.14h1.89c.13,0,.24-.05.33-.14s.14-.2.14-.33v-1.93c0-.13-.05-.24-.14-.33s-.2-.14-.33-.14Z"/>
      <path d="M51.1,58.88h1.76c.11,0,.21.05.29.12s.12.17.12.29v1.79c0,.11-.05.21-.12.29s-.17.12-.29.12h-1.76c-.11,0-.21-.05-.29-.12s-.12-.17-.12-.29v-1.79c0-.11.05-.21.12-.29s.17-.12.29-.12ZM52.86,58.85h-1.76c-.12,0-.23.05-.3.13s-.13.19-.13.3v1.79c0,.12.05.23.13.3.08.08.19.13.3.13h1.76c.12,0,.23-.05.3-.13.08-.08.13-.19.13-.3v-1.79c0-.12-.05-.23-.13-.3s-.19-.13-.3-.13Z"/>
      <path d="M50.48,58.66h3.01v3.04h-3.01s0-3.04,0-3.04ZM53.51,58.6h-3.09v3.15h3.11v-3.15h-.03Z"/>
      <path d="M51.02,59.11s.05.01.07.03c.02.02.03.04.03.07s-.01.05-.03.07c-.02.02-.04.03-.07.03s-.05-.01-.07-.03c-.02-.02-.03-.04-.03-.07s.01-.05.03-.07c.02-.02.04-.03.07-.03ZM51.11,59.12s-.05-.04-.09-.04-.07.01-.09.04-.04.05-.04.09.01.07.04.09c.02.02.05.04.09.04s.07-.01.09-.04.04-.05.04-.09-.01-.07-.04-.09Z"/>
    </g>
    <g id="_1930536935184">
      <polygon class="st4" points="61.12 42.26 64.38 42.26 64.38 42.13 61.12 42.13 61.12 42.26"/>
      <g>
        <path class="st4" d="M61.16,42.23v-.23c0-.91.28-1.65.8-2.17.51-.51,1.25-.8,2.16-.8h.26v-.04h-.26c-.92,0-1.67.29-2.19.81-.52.52-.81,1.27-.81,2.2v.23h.04Z"/>
        <polygon class="st4" points="64.38 37.94 63.13 37.94 63.13 38.07 64.38 38.07 64.38 37.94"/>
        <path class="st4" d="M64.01,42.29v.19h.37v-.21h-.37s0,.03,0,.03ZM64.06,42.42v-.11h.26v.11h-.26Z"/>
        <path class="st4" d="M64.01,37.75v.19h.37v-.21h-.37s0,.03,0,.03ZM64.06,37.89v-.11h.26v.11h-.26Z"/>
        <path class="st4" d="M64.1,39.03c-.27,0-.51-.11-.68-.28-.17-.17-.28-.42-.28-.68h.04c0,.26.1.49.27.66.17.17.4.27.66.27,0,0,0,.04,0,.04Z"/>
      </g>
    </g>
    <g id="_1930536946896">
      <polygon class="st4" points="28.85 37.88 25.85 37.88 25.85 38 28.85 38 28.85 37.88"/>
      <g>
        <path class="st4" d="M28.81,37.9v.21c0,.84-.26,1.52-.73,2s-1.15.73-1.99.73h-.24v.04h.24c.85,0,1.54-.27,2.02-.75.48-.48.74-1.17.74-2.02v-.21h-.04Z"/>
        <polygon class="st4" points="25.85 41.85 27 41.85 27 41.73 25.85 41.73 25.85 41.85"/>
        <path class="st4" d="M26.19,37.85v-.17h-.34v.2h.34v-.02h0ZM26.14,37.73v.1h-.24v-.1h.24Z"/>
        <path class="st4" d="M26.19,42.03v-.17h-.34v.2h.34v-.02h0ZM26.14,41.9v.1h-.24v-.1h.24Z"/>
        <path class="st4" d="M26.11,40.85c.25,0,.47.1.63.26.16.16.26.38.26.63h-.03c0-.24-.1-.45-.25-.6-.15-.15-.37-.25-.6-.25v-.03h0Z"/>
      </g>
    </g>
    <g id="_1930536949728">
      <polygon class="st4" points="71.51 35.18 71.51 31.92 71.38 31.92 71.38 35.18 71.51 35.18"/>
      <g>
        <path class="st4" d="M71.48,35.14h-.23c-.91,0-1.65-.28-2.17-.8s-.8-1.25-.8-2.16v-.26h-.04v.26c0,.92.29,1.67.81,2.19.52.52,1.27.81,2.2.81h.23v-.04h0Z"/>
        <polygon class="st4" points="67.19 31.92 67.19 33.17 67.32 33.17 67.32 31.92 67.19 31.92"/>
        <path class="st4" d="M71.54,32.29h.19v-.37h-.21v.37h.03ZM71.67,32.24h-.11v-.26h.11v.26Z"/>
        <path class="st4" d="M67.01,32.29h.19v-.37h-.21v.37h.03ZM67.14,32.24h-.11v-.26h.11v.26Z"/>
        <path class="st4" d="M68.29,32.21c0,.27-.11.51-.28.68-.17.17-.42.28-.68.28v-.04c.26,0,.49-.1.66-.27.17-.17.27-.4.27-.66,0,0,.04,0,.04,0Z"/>
      </g>
    </g>
    <path d="M85.86,68.93v-.32h-.37v-.15l.39-.86h.09v.86h.12v.15h-.12v.32h-.1ZM85.86,68.47v-.6l-.27.6h.27Z"/>
    <path id="_1" d="M86.73,67.94h-.1c-.01-.05-.02-.1-.04-.13-.03-.04-.06-.06-.1-.06-.06,0-.11.05-.15.14-.03.08-.05.21-.05.37.02-.06.05-.1.09-.13.04-.03.08-.05.12-.05.07,0,.13.04.18.12.05.08.08.18.08.31,0,.09-.01.17-.04.24-.03.07-.06.12-.1.16-.04.03-.08.05-.13.05-.09,0-.16-.05-.21-.15-.06-.1-.08-.26-.08-.49,0-.25.03-.44.09-.55.06-.11.13-.16.22-.16.06,0,.12.03.16.08.04.06.07.14.08.24h0ZM86.3,68.51c0,.1.02.17.05.23.04.06.08.09.12.09.04,0,.08-.03.11-.08.03-.05.05-.13.05-.22s-.02-.17-.05-.22-.07-.08-.12-.08-.08.03-.12.08c-.03.05-.05.12-.05.21h0Z"/>
    <path id="_2" d="M86.87,68.63h.1c.02.13.06.2.14.2.03,0,.07-.02.1-.05.03-.03.05-.08.07-.16.02-.08.03-.17.03-.27v-.03c-.02.05-.05.1-.09.13s-.07.05-.11.05c-.07,0-.13-.04-.18-.12-.05-.08-.08-.18-.08-.32s.03-.25.08-.33c.05-.08.12-.12.19-.12.05,0,.1.02.15.07.05.04.08.11.11.2.02.09.04.21.04.37,0,.18-.01.32-.04.42-.03.1-.06.17-.11.22-.05.05-.1.07-.16.07-.06,0-.12-.03-.16-.08-.04-.06-.07-.14-.08-.24h0ZM87.3,68.04c0-.09-.02-.17-.05-.22s-.07-.08-.11-.08-.09.03-.12.09c-.04.06-.05.13-.05.23,0,.09.02.16.05.21s.07.08.12.08.09-.03.12-.08c.03-.05.05-.13.05-.22h0Z"/>
    <path id="_3" d="M87.57,68.93v-.18h.12v.18c0,.07,0,.13-.02.17-.02.04-.04.07-.07.09l-.03-.07s.04-.04.05-.06c.01-.03.02-.07.02-.13h-.06Z"/>
    <path id="_4" d="M88.18,68.93v-.32h-.37v-.15l.39-.86h.09v.86h.12v.15h-.12v.32h-.11ZM88.18,68.47v-.6l-.27.6h.27Z"/>
    <path id="_5" d="M88.51,68.28c0-.22.02-.39.07-.5.05-.11.12-.17.21-.17.08,0,.15.05.19.14.06.11.08.29.08.54,0,.22-.02.39-.07.5-.05.11-.12.17-.21.17-.08,0-.15-.05-.2-.15-.05-.1-.08-.28-.08-.52h0ZM88.62,68.28c0,.21.02.36.05.43.03.07.07.11.12.11.05,0,.09-.04.12-.11.03-.07.05-.22.05-.43s-.02-.36-.05-.43c-.03-.07-.07-.11-.13-.11-.05,0-.09.04-.12.11-.03.07-.05.22-.05.43Z"/>
    <path d="M16.63,58.35h-.1c-.01-.05-.02-.1-.04-.13-.03-.04-.06-.06-.1-.06-.06,0-.11.05-.15.14-.03.08-.05.21-.05.37.02-.06.05-.1.09-.13.04-.03.08-.04.12-.04.07,0,.13.04.18.12s.08.18.08.31c0,.09-.01.17-.04.24-.03.07-.06.12-.1.16-.04.03-.08.05-.13.05-.09,0-.16-.05-.21-.15-.06-.1-.08-.26-.08-.49,0-.25.03-.44.09-.54.06-.11.13-.16.22-.16.06,0,.12.03.16.08.04.06.07.14.08.24h0ZM16.2,58.92c0,.1.02.17.05.23.04.06.08.09.12.09.04,0,.08-.03.11-.08s.05-.13.05-.23-.02-.17-.05-.22c-.03-.05-.07-.08-.12-.08s-.08.03-.12.08c-.03.05-.05.12-.05.21h0Z"/>
    <path id="_1_0" d="M16.81,59.34v-.18h.12v.18c0,.07,0,.13-.02.17-.02.04-.04.07-.07.09l-.03-.07s.04-.04.05-.06c.01-.03.02-.07.02-.13h-.06Z"/>
    <path id="_2_1" d="M17.09,58.2v-.15h.55v.13c-.08.14-.15.31-.22.53-.06.22-.1.43-.11.65h-.11c0-.11.02-.24.04-.39s.06-.29.11-.42c.05-.13.1-.25.15-.34h-.42Z"/>
    <path id="_3_2" d="M17.75,58.69c0-.22.02-.39.07-.5.05-.11.12-.17.21-.17.08,0,.15.05.19.14.06.11.08.29.08.54,0,.22-.02.39-.07.5-.05.11-.12.17-.21.17-.08,0-.15-.05-.2-.15-.05-.1-.08-.28-.08-.52ZM17.85,58.69c0,.21.02.36.05.43.03.07.07.11.12.11.05,0,.09-.04.12-.11.03-.07.05-.22.05-.43s-.02-.36-.05-.43c-.03-.07-.07-.11-.13-.11-.05,0-.09.04-.12.11-.03.07-.05.22-.05.43Z"/>
    <path d="M51.75,65.25v.15h-.57c0-.06.01-.13.05-.21.03-.08.09-.17.17-.28.1-.12.16-.22.19-.29.03-.07.05-.13.05-.19,0-.07-.02-.12-.05-.16-.03-.04-.07-.06-.12-.06-.05,0-.09.02-.12.07-.03.05-.05.11-.05.2l-.11-.02c0-.13.04-.22.08-.29.05-.06.11-.1.19-.1.09,0,.15.04.2.11.05.07.07.16.07.25,0,.08-.02.16-.05.24-.03.08-.1.18-.2.31-.06.08-.1.14-.12.17-.02.03-.03.06-.04.09h.42Z"/>
    <path id="_1_3" d="M51.92,65.4v-.18h.12v.18c0,.07,0,.13-.03.17-.02.04-.04.07-.07.09l-.03-.07s.04-.04.05-.06c.01-.03.02-.07.02-.13h-.06Z"/>
    <path id="_2_4" d="M52.86,64.75c0-.22.02-.39.07-.5.05-.11.12-.17.21-.17.08,0,.15.05.19.14.06.11.08.29.08.54,0,.22-.02.39-.07.5-.05.11-.12.17-.21.17-.08,0-.15-.05-.2-.15-.05-.1-.08-.28-.08-.52ZM52.97,64.75c0,.21.02.36.05.43.03.07.07.11.12.11.05,0,.09-.04.12-.11.03-.07.05-.22.05-.43s-.02-.36-.05-.43c-.03-.07-.07-.11-.13-.11-.05,0-.09.04-.12.11-.03.07-.05.22-.05.43Z"/>
    <path id="_3_5" d="M52.2,65.05h.11c0,.07.03.13.06.17.03.04.07.06.1.06.05,0,.09-.03.13-.09.04-.06.05-.14.05-.24,0-.09-.02-.17-.05-.22-.03-.05-.08-.08-.13-.08-.03,0-.06.01-.09.03-.03.02-.05.05-.07.09l-.1-.02.08-.68h.42v.15h-.34l-.05.36c.05-.06.1-.08.16-.08.07,0,.13.04.19.12s.08.18.08.31-.03.24-.08.33c-.05.09-.12.14-.21.14-.07,0-.14-.03-.19-.1s-.08-.16-.09-.27h0Z"/>
    <g id="_1931714526208">
      <polygon class="st4" points="71.51 47.96 71.51 51.22 71.38 51.22 71.38 47.96 71.51 47.96"/>
      <g>
        <path class="st4" d="M71.48,48h-.23c-.91,0-1.65.28-2.17.8s-.8,1.25-.8,2.16v.26h-.04v-.26c0-.92.29-1.67.81-2.19.52-.52,1.27-.81,2.2-.81h.23v.04h0Z"/>
        <polygon class="st4" points="67.19 51.22 67.19 49.97 67.32 49.97 67.32 51.22 67.19 51.22"/>
        <path class="st4" d="M71.54,50.85h.19v.37h-.21v-.37h.03ZM71.67,50.9h-.11v.26h.11v-.26Z"/>
        <path class="st4" d="M67.01,50.85h.19v.37h-.21v-.37h.03ZM67.14,50.9h-.11v.26h.11v-.26Z"/>
        <path class="st4" d="M68.29,50.94c0-.27-.11-.51-.28-.68-.17-.17-.42-.28-.68-.28v.04c.26,0,.49.1.66.27.17.17.27.4.27.66,0,0,.04,0,.04,0Z"/>
      </g>
    </g>
    <path d="M3.96,5.52v-.37h-.56v-.31l.59-1.17h.22v1.17h.17v.31h-.17v.37h-.25ZM3.96,4.83v-.63l-.32.63h.32Z"/>
    <path id="_1_6" d="M4.74,4.52c-.06-.04-.11-.09-.14-.15-.03-.06-.05-.14-.05-.23,0-.14.04-.26.11-.35.07-.09.17-.13.3-.13.13,0,.24.05.31.14.07.09.1.2.1.33,0,.09-.02.17-.05.23-.03.07-.08.12-.14.15.08.04.14.1.18.18.04.08.06.17.06.28s-.02.21-.06.3c-.04.09-.09.15-.16.2-.07.05-.14.07-.23.07-.13,0-.24-.05-.33-.15s-.13-.24-.13-.41c0-.11.02-.21.06-.29.04-.08.1-.14.17-.18h0ZM4.8,4.16c0,.07.02.13.05.16.03.04.07.06.12.06s.09-.02.12-.06c.03-.04.05-.09.05-.16s-.02-.12-.05-.16c-.03-.04-.07-.06-.12-.06s-.09.02-.12.06c-.03.04-.05.09-.05.16ZM4.77,4.95c0,.1.02.18.06.23s.08.08.14.08.1-.03.13-.08c.04-.05.05-.13.05-.23,0-.09-.02-.16-.05-.21-.04-.05-.08-.08-.14-.08s-.1.03-.14.08c-.04.05-.06.12-.06.21Z"/>
    <path id="_2_7" d="M5.58,4.02v-.33h.9v.26c-.07.1-.15.24-.22.42-.07.18-.13.38-.18.58-.04.21-.06.39-.06.56h-.25c0-.26.05-.52.12-.79.07-.26.17-.5.29-.71h-.6Z"/>
    <path id="_3_8" d="M7.17,5.03l.25-.04c0,.09.03.15.06.2.04.05.08.07.13.07.05,0,.1-.03.14-.08.04-.05.06-.13.06-.23,0-.09-.02-.16-.05-.21-.04-.05-.08-.08-.13-.08-.03,0-.07,0-.12.03l.03-.29c.07,0,.12-.02.16-.06.04-.04.06-.1.06-.18,0-.06-.01-.11-.04-.15-.03-.04-.06-.05-.11-.05s-.08.02-.12.06-.05.1-.06.19l-.24-.05c.03-.17.07-.29.15-.37.07-.08.17-.12.28-.12.12,0,.22.05.3.15.07.1.11.21.11.33,0,.08-.02.15-.05.22-.03.06-.08.12-.15.17.08.02.14.07.19.15.05.08.07.17.07.29,0,.17-.05.31-.14.42-.09.11-.2.17-.33.17s-.22-.05-.31-.14c-.08-.09-.13-.22-.15-.38h0Z"/>
    <path id="_4_9" d="M6.7,5.16h.26v.25c0,.14-.02.25-.05.32-.04.09-.1.15-.19.19l-.05-.15c.05-.02.09-.06.11-.1.02-.04.03-.1.04-.17h-.13v-.35h0Z"/>
    <path id="_5_10" d="M8.7,3.66c.13,0,.24.07.32.21.08.14.12.38.12.73s-.04.59-.12.73-.19.21-.32.21-.24-.07-.32-.21-.12-.38-.12-.74.04-.59.12-.73c.08-.14.19-.21.32-.21ZM8.7,3.96c-.05,0-.09.04-.12.11-.03.07-.05.25-.05.54s.02.46.05.54c.03.07.07.11.12.11s.09-.04.12-.11c.03-.08.05-.25.05-.53s-.02-.46-.05-.54c-.03-.08-.07-.11-.12-.11Z"/>
    <g id="_1930542111424">
      <path class="st4" d="M53.74,20.66h-.23c-.91,0-1.65-.28-2.17-.8s-.8-1.25-.8-2.16v-.26h-.04v.26c0,.92.29,1.67.81,2.19s1.27.81,2.2.81h.23v-.04h0Z"/>
      <polygon class="st4" points="53.64 17.44 53.64 20.7 53.77 20.7 53.77 17.44 53.64 17.44"/>
      <path class="st4" d="M53.79,17.81h.19v-.37h-.21v.37h.03ZM53.93,17.76h-.11v-.26h.11v.26Z"/>
      <path class="st4" d="M50.31,17.81h.19v-.37h-.21v.37h.03ZM50.45,17.76h-.11v-.26h.11v.26Z"/>
    </g>
    <g id="_1933164907808">
      <path class="st4" d="M88.36,39.55h-.23c-.91,0-1.65-.28-2.17-.8s-.8-1.25-.8-2.16v-.26h-.04v.26c0,.92.29,1.67.81,2.19.52.52,1.27.81,2.2.81h.23v-.04h0Z"/>
      <polygon class="st4" points="88.26 36.34 88.26 39.6 88.39 39.6 88.39 36.34 88.26 36.34"/>
      <path class="st4" d="M88.42,36.7h.19v-.37h-.21v.37h.03ZM88.55,36.65h-.11v-.26h.11v.26Z"/>
      <path class="st4" d="M84.94,36.7h.19v-.37h-.21v.37h.03ZM85.07,36.65h-.11v-.26h.11v.26Z"/>
    </g>
    <g id="_1930516431072">
      <path class="st4" d="M86.1,44.77v-.23c0-.91.28-1.65.8-2.17.51-.51,1.25-.8,2.16-.8h.26v-.04h-.26c-.92,0-1.67.29-2.19.81-.52.52-.81,1.27-.81,2.2v.23h.04Z"/>
      <polygon class="st4" points="89.32 44.67 86.06 44.67 86.06 44.8 89.32 44.8 89.32 44.67"/>
      <path class="st4" d="M88.95,44.82v.19h.37v-.21h-.37s0,.03,0,.03ZM89,44.96v-.11h.26v.11h-.26Z"/>
      <path class="st4" d="M88.95,41.35v.19h.37v-.21h-.37v.03ZM89,41.48v-.11h.26v.11h-.26Z"/>
    </g>
    <g id="_1930516429008">
      <path class="st4" d="M53.97,62.18h-.23c-.91,0-1.65.28-2.17.8-.51.51-.8,1.25-.8,2.16v.26h-.04v-.26c0-.92.29-1.67.81-2.19.52-.52,1.27-.81,2.2-.81h.23v.04h0Z"/>
      <polygon class="st4" points="53.87 65.39 53.87 62.13 54 62.13 54 65.39 53.87 65.39"/>
      <path class="st4" d="M54.02,65.02h.19v.37h-.21v-.37h.03ZM54.16,65.08h-.11v.26h.11v-.26Z"/>
      <path class="st4" d="M50.54,65.02h.19v.37h-.21v-.37h.03ZM50.68,65.08h-.11v.26h.11v-.26Z"/>
    </g>
    <g id="_1930516430592">
      <path class="st4" d="M17.46,39.21v.24c0,.96.3,1.73.83,2.27.54.54,1.31.84,2.26.84h.27v.05h-.27c-.97,0-1.75-.3-2.3-.85s-.85-1.33-.85-2.3v-.24h.05Z"/>
      <polygon class="st4" points="20.83 39.3 17.44 39.3 17.44 39.18 20.83 39.18 20.83 39.3"/>
      <path class="st4" d="M20.51,39.16v-.16h.32v.19h-.32s0-.02,0-.02ZM20.56,39.05v.1h.23v-.1h-.23Z"/>
      <path class="st4" d="M20.51,42.77v-.16h.32v.19h-.32s0-.02,0-.02ZM20.56,42.65v.1h.23v-.1h-.23Z"/>
    </g>
    <g id="_1930516474368">
      <path class="st4" d="M19.32,57.07v.23c0,.91-.28,1.65-.8,2.17s-1.25.8-2.16.8h-.26v.04h.26c.92,0,1.67-.29,2.19-.81.52-.52.81-1.27.81-2.2v-.23h-.04Z"/>
      <polygon class="st4" points="16.1 57.16 19.36 57.16 19.36 57.03 16.1 57.03 16.1 57.16"/>
      <path class="st4" d="M16.47,57.01v-.19h-.37v.21h.37v-.03ZM16.42,56.88v.11h-.26v-.11h.26Z"/>
      <path class="st4" d="M16.47,60.49v-.19h-.37v.21h.37v-.03h0ZM16.42,60.36v.11h-.26v-.11h.26Z"/>
    </g>
    <g id="_1930516474608">
      <path class="st4" d="M18.61,62.97v-.17c0-.69.21-1.24.6-1.63s.94-.6,1.62-.6h.2v-.03h-.2c-.69,0-1.26.22-1.65.61-.39.39-.61.96-.61,1.65v.17h.03Z"/>
      <polygon class="st4" points="21.03 62.89 18.58 62.89 18.58 62.99 21.03 62.99 21.03 62.89"/>
      <path class="st4" d="M20.75,63.01v.14h.28v-.16h-.28v.02ZM20.79,63.11v-.08h.2v.08h-.2Z"/>
      <path class="st4" d="M20.75,60.39v.14h.28v-.16h-.28v.02ZM20.79,60.49v-.08h.2v.08h-.2Z"/>
    </g>
    <path d="M51.61,18.64v.15h-.57c0-.06.01-.13.05-.21.03-.08.09-.17.17-.28.1-.12.16-.22.19-.29.03-.07.05-.13.05-.19,0-.07-.02-.12-.05-.17-.03-.04-.07-.06-.12-.06-.05,0-.09.02-.12.07-.03.05-.05.11-.05.2l-.11-.02c0-.13.04-.22.08-.29.05-.06.11-.1.19-.1.09,0,.15.04.2.11s.07.16.07.25c0,.08-.02.16-.05.24-.03.08-.1.18-.2.31-.06.08-.1.14-.12.17-.02.03-.03.06-.04.09h.42Z"/>
    <path id="_1_11" d="M51.78,18.79v-.18h.12v.18c0,.07,0,.13-.02.17-.02.04-.04.07-.07.09l-.03-.07s.04-.04.05-.06c.01-.03.02-.07.02-.13h-.06Z"/>
    <path id="_2_12" d="M52.72,18.14c0-.22.02-.39.07-.5.05-.11.12-.17.21-.17.08,0,.15.05.19.14.06.11.08.29.08.54,0,.22-.02.39-.07.5-.05.11-.12.17-.21.17-.08,0-.15-.05-.2-.15-.05-.1-.08-.28-.08-.52h0ZM52.83,18.14c0,.21.02.36.05.43.03.07.07.11.12.11.05,0,.09-.04.12-.11.03-.07.05-.22.05-.43s-.02-.36-.05-.43-.07-.11-.13-.11c-.05,0-.09.04-.12.11-.03.07-.05.22-.05.43h0Z"/>
    <path id="_3_13" d="M52.61,18.64v.15h-.57c0-.06.01-.13.04-.21.03-.08.09-.17.17-.28.1-.12.16-.22.19-.29.03-.07.05-.13.05-.19,0-.07-.02-.12-.05-.17-.03-.04-.07-.06-.12-.06-.05,0-.09.02-.12.07-.03.05-.05.11-.05.2l-.11-.02c0-.13.04-.22.08-.29s.11-.1.19-.1c.09,0,.15.04.2.11.04.07.07.16.07.25,0,.08-.02.16-.05.24-.03.08-.1.18-.2.31-.06.08-.1.14-.12.17-.02.03-.03.06-.04.09h.42Z"/>
    <path d="M85.64,40.77h-.11c0-.06-.02-.1-.04-.13-.03-.04-.06-.06-.1-.06-.06,0-.11.05-.15.14-.03.08-.05.21-.05.37.02-.06.05-.1.09-.13.04-.03.08-.04.12-.04.07,0,.13.04.18.12s.08.18.08.31c0,.09-.01.17-.04.24-.03.07-.06.12-.1.16-.04.03-.08.05-.13.05-.09,0-.16-.05-.21-.15-.06-.1-.08-.26-.08-.49,0-.25.03-.44.09-.55.06-.11.13-.16.22-.16.06,0,.12.03.16.08.04.06.07.14.08.24h0ZM85.21,41.34c0,.1.02.17.05.23.04.06.08.09.12.09.04,0,.08-.03.11-.08.03-.05.05-.13.05-.22s-.02-.17-.05-.22-.07-.08-.12-.08-.08.03-.12.08c-.03.05-.05.12-.05.21h0Z"/>
    <path id="_1_14" d="M86.09,41.42h.11c0,.07.03.13.06.17.03.04.07.06.11.06.05,0,.09-.03.13-.09.04-.06.05-.14.05-.24s-.02-.17-.05-.22c-.03-.05-.08-.08-.13-.08-.03,0-.06.01-.09.03s-.05.05-.07.09l-.1-.02.08-.68h.42v.15h-.34l-.05.36c.05-.06.1-.08.16-.08.07,0,.13.04.19.12s.08.18.08.31-.03.24-.08.33c-.05.09-.12.14-.21.14-.07,0-.14-.03-.19-.1-.05-.07-.08-.16-.09-.27h0Z"/>
    <path id="_2_15" d="M85.82,41.77v-.18h.12v.18c0,.07,0,.13-.02.17-.02.04-.04.07-.07.09l-.03-.07s.04-.04.05-.06c.01-.03.02-.07.02-.13h-.06Z"/>
    <path id="_3_16" d="M86.75,41.12c0-.22.02-.39.07-.5.05-.11.12-.17.21-.17.08,0,.15.05.19.14.06.11.08.29.08.54,0,.22-.02.39-.07.5-.05.11-.12.17-.21.17-.08,0-.15-.05-.2-.15s-.08-.28-.08-.52h0ZM86.86,41.12c0,.21.02.36.05.43.03.07.07.11.12.11.05,0,.09-.04.12-.11.03-.07.05-.22.05-.43s-.02-.36-.05-.43c-.03-.07-.07-.11-.13-.11-.05,0-.09.04-.12.11-.03.07-.05.22-.05.43h0Z"/>
    <g id="_1930516477776">
      <path class="st4" d="M21.07,43.79h.27c1.08,0,1.96.34,2.57.94s.95,1.49.95,2.57v.31h.05v-.31c0-1.09-.34-1.99-.96-2.6-.62-.62-1.51-.96-2.61-.96h-.27v.05h0Z"/>
      <polygon class="st4" points="21.17 47.61 21.17 43.76 21.04 43.76 21.04 47.61 21.17 47.61"/>
      <path class="st4" d="M21.02,47.24h-.19v.37h.21v-.37h-.03ZM20.88,47.3h.11v.26h-.11v-.26Z"/>
      <path class="st4" d="M25.1,47.24h-.19v.37h.21v-.37h-.03ZM24.97,47.3h.11v.26h-.11v-.26Z"/>
    </g>
    <polygon class="st4" points="20.83 47.91 20.83 42.79 19.3 42.79 19.3 47.91 20.83 47.91"/>
    <g id="_1930516423200">
      <g>
        <rect class="st6" x="2.33" y="81.53" width="9.88" height="1.66"/>
        <path class="st4" d="M12.2,81.57H2.33v1.59h9.88v-1.59h0ZM12.27,81.5v1.72H2.26v-1.72h10,0Z"/>
        <rect class="st6" x="2.29" y="82.39" width="9.91" height=".23"/>
        <path class="st4" d="M2.33,82.43h9.88v.17H2.33v-.17h0ZM2.26,82.36v.29h10v-.29H2.26Z"/>
        <g>
          <rect class="st6" x="2.29" y="82.39" width=".23" height=".23"/>
          <path class="st4" d="M2.33,82.43h.17v.17h-.17v-.17h0ZM2.26,82.36v.29h.29v-.29h-.29Z"/>
        </g>
        <g>
          <rect class="st6" x="12" y="82.39" width=".23" height=".23"/>
          <path class="st4" d="M12.04,82.43h.17v.17h-.17v-.17h0ZM11.97,82.36v.29h.29v-.29h-.29Z"/>
        </g>
        <g>
          <rect class="st6" x="3.76" y="82.39" width=".23" height=".23"/>
          <path class="st4" d="M3.79,82.43h.17v.17h-.17v-.17h0ZM3.73,82.36v.29h.29v-.29h-.29Z"/>
        </g>
      </g>
      <g>
        <rect class="st6" x="26.7" y="81.53" width="9.88" height="1.66"/>
        <path class="st4" d="M36.58,81.57h-9.88v1.59h9.88v-1.59h0ZM36.64,81.5v1.72h-10v-1.72h10Z"/>
        <rect class="st6" x="26.67" y="82.39" width="9.91" height=".23"/>
        <path class="st4" d="M26.7,82.43h9.88v.17h-9.88v-.17h0ZM26.64,82.36v.29h10v-.29h-10Z"/>
        <g>
          <rect class="st6" x="26.67" y="82.39" width=".23" height=".23"/>
          <path class="st4" d="M26.7,82.43h.17v.17h-.17v-.17h0ZM26.64,82.36v.29h.29v-.29h-.29Z"/>
        </g>
        <g>
          <rect class="st6" x="36.38" y="82.39" width=".23" height=".23"/>
          <path class="st4" d="M36.41,82.43h.17v.17h-.17v-.17h0ZM36.35,82.36v.29h.29v-.29h-.29Z"/>
        </g>
        <g>
          <rect class="st6" x="28.13" y="82.39" width=".23" height=".23"/>
          <path class="st4" d="M28.17,82.43h.17v.17h-.17v-.17h0ZM28.1,82.36v.29h.29v-.29h-.29Z"/>
        </g>
      </g>
      <g>
        <rect class="st6" x="51.13" y="81.53" width="9.88" height="1.66"/>
        <path class="st4" d="M61.01,81.57h-9.88v1.59h9.88v-1.59h0ZM61.07,81.5v1.72h-10v-1.72h10Z"/>
        <rect class="st6" x="51.1" y="82.39" width="9.91" height=".23"/>
        <path class="st4" d="M51.13,82.43h9.88v.17h-9.88v-.17h0ZM51.07,82.36v.29h10v-.29h-10Z"/>
        <g>
          <rect class="st6" x="51.1" y="82.39" width=".23" height=".23"/>
          <path class="st4" d="M51.13,82.43h.17v.17h-.17v-.17h0ZM51.07,82.36v.29h.29v-.29h-.29Z"/>
        </g>
        <g>
          <rect class="st6" x="60.81" y="82.39" width=".23" height=".23"/>
          <path class="st4" d="M60.84,82.43h.17v.17h-.17v-.17h0ZM60.78,82.36v.29h.29v-.29h-.29Z"/>
        </g>
        <g>
          <rect class="st6" x="52.56" y="82.39" width=".23" height=".23"/>
          <path class="st4" d="M52.59,82.43h.17v.17h-.17v-.17h0ZM52.53,82.36v.29h.29v-.29h-.29Z"/>
        </g>
      </g>
      <g>
        <rect class="st6" x="75.51" y="81.53" width="9.88" height="1.66"/>
        <path class="st4" d="M85.39,81.57h-9.88v1.59h9.88v-1.59h0ZM85.45,81.5v1.72h-10v-1.72h10Z"/>
        <rect class="st6" x="75.48" y="82.39" width="9.91" height=".23"/>
        <path class="st4" d="M75.51,82.43h9.88v.17h-9.88v-.17h0ZM75.44,82.36v.29h10v-.29h-10Z"/>
        <g>
          <rect class="st6" x="75.48" y="82.39" width=".23" height=".23"/>
          <path class="st4" d="M75.51,82.43h.17v.17h-.17v-.17h0ZM75.44,82.36v.29h.29v-.29h-.29Z"/>
        </g>
        <g>
          <rect class="st6" x="85.19" y="82.39" width=".23" height=".23"/>
          <path class="st4" d="M85.22,82.43h.17v.17h-.17v-.17h0ZM85.15,82.36v.29h.29v-.29h-.29Z"/>
        </g>
        <g>
          <rect class="st6" x="76.94" y="82.39" width=".23" height=".23"/>
          <path class="st4" d="M76.97,82.43h.17v.17h-.17v-.17h0ZM76.91,82.36v.29h.29v-.29h-.29Z"/>
        </g>
      </g>
      <g>
        <rect class="st6" x="14.56" y="81.53" width="9.88" height="1.66"/>
        <path class="st4" d="M24.44,81.57h-9.88v1.59h9.88v-1.59h0ZM24.5,81.5v1.72h-10v-1.72h10Z"/>
        <rect class="st6" x="14.53" y="82.39" width="9.91" height=".23"/>
        <path class="st4" d="M14.56,82.43h9.88v.17h-9.88v-.17h0ZM14.5,82.36v.29h10v-.29h-10Z"/>
        <g>
          <rect class="st6" x="14.53" y="82.39" width=".23" height=".23"/>
          <path class="st4" d="M14.56,82.43h.17v.17h-.17v-.17h0ZM14.5,82.36v.29h.29v-.29h-.29Z"/>
        </g>
        <g>
          <rect class="st6" x="24.24" y="82.39" width=".23" height=".23"/>
          <path class="st4" d="M24.27,82.43h.17v.17h-.17v-.17h0ZM24.21,82.36v.29h.29v-.29h-.29Z"/>
        </g>
        <g>
          <rect class="st6" x="15.99" y="82.39" width=".23" height=".23"/>
          <path class="st4" d="M16.02,82.43h.17v.17h-.17v-.17h0ZM15.96,82.36v.29h.29v-.29h-.29Z"/>
        </g>
      </g>
      <g>
        <rect class="st6" x="38.94" y="81.53" width="9.88" height="1.66"/>
        <path class="st4" d="M48.81,81.57h-9.88v1.59h9.88v-1.59h0ZM48.88,81.5v1.72h-10v-1.72h10Z"/>
        <rect class="st6" x="38.9" y="82.39" width="9.91" height=".23"/>
        <path class="st4" d="M38.93,82.43h9.88v.17h-9.88v-.17h0ZM38.87,82.36v.29h10v-.29h-10Z"/>
        <g>
          <rect class="st6" x="38.9" y="82.39" width=".23" height=".23"/>
          <path class="st4" d="M38.93,82.43h.17v.17h-.17v-.17h0ZM38.87,82.36v.29h.29v-.29h-.29Z"/>
        </g>
        <g>
          <rect class="st6" x="48.61" y="82.39" width=".23" height=".23"/>
          <path class="st4" d="M48.64,82.43h.17v.17h-.17v-.17h0ZM48.58,82.36v.29h.29v-.29h-.29Z"/>
        </g>
        <g>
          <rect class="st6" x="40.37" y="82.39" width=".23" height=".23"/>
          <path class="st4" d="M40.4,82.43h.17v.17h-.17v-.17h0ZM40.34,82.36v.29h.29v-.29h-.29Z"/>
        </g>
      </g>
      <g>
        <rect class="st6" x="63.36" y="81.53" width="9.88" height="1.66"/>
        <path class="st4" d="M73.24,81.57h-9.88v1.59h9.88v-1.59h0ZM73.3,81.5v1.72h-10v-1.72h10Z"/>
        <rect class="st6" x="63.33" y="82.39" width="9.91" height=".23"/>
        <path class="st4" d="M63.36,82.43h9.88v.17h-9.88v-.17h0ZM63.3,82.36v.29h10v-.29h-10Z"/>
        <g>
          <rect class="st6" x="63.33" y="82.39" width=".23" height=".23"/>
          <path class="st4" d="M63.36,82.43h.17v.17h-.17v-.17h0ZM63.3,82.36v.29h.29v-.29h-.29Z"/>
        </g>
        <g>
          <rect class="st6" x="73.04" y="82.39" width=".23" height=".23"/>
          <path class="st4" d="M73.07,82.43h.17v.17h-.17v-.17h0ZM73.01,82.36v.29h.29v-.29h-.29Z"/>
        </g>
        <g>
          <rect class="st6" x="64.8" y="82.39" width=".23" height=".23"/>
          <path class="st4" d="M64.83,82.43h.17v.17h-.17v-.17h0ZM64.76,82.36v.29h.29v-.29h-.29Z"/>
        </g>
      </g>
      <g>
        <rect class="st6" x="87.74" y="81.53" width="9.88" height="1.66"/>
        <path class="st4" d="M97.62,81.57h-9.88v1.59h9.88v-1.59h0ZM97.68,81.5v1.72h-10v-1.72h10Z"/>
        <rect class="st6" x="87.71" y="82.39" width="9.91" height=".23"/>
        <path class="st4" d="M87.74,82.43h9.88v.17h-9.88v-.17h0ZM87.68,82.36v.29h10v-.29h-10Z"/>
        <g>
          <rect class="st6" x="87.71" y="82.39" width=".23" height=".23"/>
          <path class="st4" d="M87.74,82.43h.17v.17h-.17v-.17h0ZM87.68,82.36v.29h.29v-.29h-.29Z"/>
        </g>
        <g>
          <rect class="st6" x="97.42" y="82.39" width=".23" height=".23"/>
          <path class="st4" d="M97.45,82.43h.17v.17h-.17v-.17h0ZM97.39,82.36v.29h.29v-.29h-.29Z"/>
        </g>
        <g>
          <rect class="st6" x="89.17" y="82.39" width=".23" height=".23"/>
          <path class="st4" d="M89.2,82.43h.17v.17h-.17v-.17h0ZM89.14,82.36v.29h.29v-.29h-.29Z"/>
        </g>
      </g>
    </g>
    <g id="_1895071530864">
      <g>
        <rect class="st6" x="87.74" y=".06" width="9.88" height="1.66"/>
        <path class="st4" d="M87.74,1.68h9.88V.09h-9.88v1.59h0ZM87.68,1.75V.03h10v1.72h-10Z"/>
        <rect class="st6" x="87.74" y=".62" width="9.91" height=".23"/>
        <path class="st4" d="M97.62.82h-9.88v-.17h9.88v.17h0ZM97.68.89v-.29h-10v.29h10Z"/>
        <g>
          <rect class="st6" x="97.42" y=".62" width=".23" height=".23"/>
          <path class="st4" d="M97.62.82h-.17v-.17h.17v.17h0ZM97.68.89v-.29h-.29v.29h.29Z"/>
        </g>
        <g>
          <rect class="st6" x="87.71" y=".62" width=".23" height=".23"/>
          <path class="st4" d="M87.91.82h-.17v-.17h.17v.17h0ZM87.97.89v-.29h-.29v.29h.29Z"/>
        </g>
        <g>
          <rect class="st6" x="95.95" y=".62" width=".23" height=".23"/>
          <path class="st4" d="M96.15.82h-.17v-.17h.17v.17h0ZM96.22.89v-.29h-.29v.29h.29Z"/>
        </g>
      </g>
      <g>
        <rect class="st6" x="63.36" y=".06" width="9.88" height="1.66"/>
        <path class="st4" d="M63.36,1.68h9.88V.09h-9.88v1.59h0ZM63.3,1.75V.03h10v1.72h-10Z"/>
        <rect class="st6" x="63.37" y=".62" width="9.91" height=".23"/>
        <path class="st4" d="M73.24.82h-9.88v-.17h9.88v.17h0ZM73.3.89v-.29h-10v.29h10Z"/>
        <g>
          <rect class="st6" x="73.04" y=".62" width=".23" height=".23"/>
          <path class="st4" d="M73.24.82h-.17v-.17h.17v.17h0ZM73.3.89v-.29h-.29v.29h.29Z"/>
        </g>
        <g>
          <rect class="st6" x="63.33" y=".62" width=".23" height=".23"/>
          <path class="st4" d="M63.53.82h-.17v-.17h.17v.17h0ZM63.59.89v-.29h-.29v.29h.29Z"/>
        </g>
        <g>
          <rect class="st6" x="71.58" y=".62" width=".23" height=".23"/>
          <path class="st4" d="M71.78.82h-.17v-.17h.17v.17h0ZM71.84.89v-.29h-.29v.29h.29Z"/>
        </g>
      </g>
      <g>
        <rect class="st6" x="38.93" y=".06" width="9.88" height="1.66"/>
        <path class="st4" d="M38.93,1.68h9.88V.09h-9.88v1.59h0ZM38.87,1.75V.03h10v1.72h-10Z"/>
        <rect class="st6" x="38.94" y=".62" width="9.91" height=".23"/>
        <path class="st4" d="M48.81.82h-9.88v-.17h9.88v.17h0ZM48.88.89v-.29h-10v.29h10Z"/>
        <g>
          <rect class="st6" x="48.61" y=".62" width=".23" height=".23"/>
          <path class="st4" d="M48.81.82h-.17v-.17h.17v.17h0ZM48.88.89v-.29h-.29v.29h.29Z"/>
        </g>
        <g>
          <rect class="st6" x="38.9" y=".62" width=".23" height=".23"/>
          <path class="st4" d="M39.1.82h-.17v-.17h.17v.17h0ZM39.17.89v-.29h-.29v.29h.29Z"/>
        </g>
        <g>
          <rect class="st6" x="47.15" y=".62" width=".23" height=".23"/>
          <path class="st4" d="M47.35.82h-.17v-.17h.17v.17h0ZM47.41.89v-.29h-.29v.29h.29Z"/>
        </g>
      </g>
      <g>
        <rect class="st6" x="14.56" y=".06" width="9.88" height="1.66"/>
        <path class="st4" d="M14.56,1.68h9.88V.09h-9.88v1.59h0ZM14.5,1.75V.03h10v1.72h-10Z"/>
        <rect class="st6" x="14.56" y=".62" width="9.91" height=".23"/>
        <path class="st4" d="M24.44.82h-9.88v-.17h9.88v.17h0ZM24.5.89v-.29h-10v.29h10Z"/>
        <g>
          <rect class="st6" x="24.24" y=".62" width=".23" height=".23"/>
          <path class="st4" d="M24.44.82h-.17v-.17h.17v.17h0ZM24.5.89v-.29h-.29v.29h.29Z"/>
        </g>
        <g>
          <rect class="st6" x="14.53" y=".62" width=".23" height=".23"/>
          <path class="st4" d="M14.73.82h-.17v-.17h.17v.17h0ZM14.79.89v-.29h-.29v.29h.29Z"/>
        </g>
        <g>
          <rect class="st6" x="22.77" y=".62" width=".23" height=".23"/>
          <path class="st4" d="M22.97.82h-.17v-.17h.17v.17h0ZM23.04.89v-.29h-.29v.29h.29Z"/>
        </g>
      </g>
      <g>
        <rect class="st6" x="75.5" y=".06" width="9.88" height="1.66"/>
        <path class="st4" d="M75.51,1.68h9.88V.09h-9.88v1.59h0ZM75.44,1.75V.03h10v1.72h-10Z"/>
        <rect class="st6" x="75.51" y=".62" width="9.91" height=".23"/>
        <path class="st4" d="M85.39.82h-9.88v-.17h9.88v.17h0ZM85.45.89v-.29h-10v.29h10Z"/>
        <g>
          <rect class="st6" x="85.19" y=".62" width=".23" height=".23"/>
          <path class="st4" d="M85.39.82h-.17v-.17h.17v.17h0ZM85.45.89v-.29h-.29v.29h.29Z"/>
        </g>
        <g>
          <rect class="st6" x="75.48" y=".62" width=".23" height=".23"/>
          <path class="st4" d="M75.68.82h-.17v-.17h.17v.17h0ZM75.74.89v-.29h-.29v.29h.29Z"/>
        </g>
        <g>
          <rect class="st6" x="83.72" y=".62" width=".23" height=".23"/>
          <path class="st4" d="M83.92.82h-.17v-.17h.17v.17h0ZM83.98.89v-.29h-.29v.29h.29Z"/>
        </g>
      </g>
      <g>
        <rect class="st6" x="51.13" y=".06" width="9.88" height="1.66"/>
        <path class="st4" d="M51.13,1.68h9.88V.09h-9.88v1.59h0ZM51.07,1.75V.03h10v1.72h-10Z"/>
        <rect class="st6" x="51.13" y=".62" width="9.91" height=".23"/>
        <path class="st4" d="M61.01.82h-9.88v-.17h9.88v.17h0ZM61.07.89v-.29h-10v.29h10Z"/>
        <g>
          <rect class="st6" x="60.81" y=".62" width=".23" height=".23"/>
          <path class="st4" d="M61.01.82h-.17v-.17h.17v.17h0ZM61.07.89v-.29h-.29v.29h.29Z"/>
        </g>
        <g>
          <rect class="st6" x="51.1" y=".62" width=".23" height=".23"/>
          <path class="st4" d="M51.3.82h-.17v-.17h.17v.17h0ZM51.36.89v-.29h-.29v.29h.29Z"/>
        </g>
        <g>
          <rect class="st6" x="59.35" y=".62" width=".23" height=".23"/>
          <path class="st4" d="M59.55.82h-.17v-.17h.17v.17h0ZM59.61.89v-.29h-.29v.29h.29Z"/>
        </g>
      </g>
      <g>
        <rect class="st6" x="26.7" y=".06" width="9.88" height="1.66"/>
        <path class="st4" d="M26.7,1.68h9.88V.09h-9.88v1.59h0ZM26.64,1.75V.03h10v1.72h-10Z"/>
        <rect class="st6" x="26.7" y=".62" width="9.91" height=".23"/>
        <path class="st4" d="M36.58.82h-9.88v-.17h9.88v.17h0ZM36.64.89v-.29h-10v.29h10Z"/>
        <g>
          <rect class="st6" x="36.38" y=".62" width=".23" height=".23"/>
          <path class="st4" d="M36.58.82h-.17v-.17h.17v.17h0ZM36.64.89v-.29h-.29v.29h.29Z"/>
        </g>
        <g>
          <rect class="st6" x="26.67" y=".62" width=".23" height=".23"/>
          <path class="st4" d="M26.87.82h-.17v-.17h.17v.17h0ZM26.93.89v-.29h-.29v.29h.29Z"/>
        </g>
        <g>
          <rect class="st6" x="34.92" y=".62" width=".23" height=".23"/>
          <path class="st4" d="M35.12.82h-.17v-.17h.17v.17h0ZM35.18.89v-.29h-.29v.29h.29Z"/>
        </g>
      </g>
      <g>
        <rect class="st6" x="2.32" y=".06" width="9.88" height="1.66"/>
        <path class="st4" d="M2.33,1.68h9.88V.09H2.33v1.59h0ZM2.26,1.75V.03h10v1.72H2.26Z"/>
        <rect class="st6" x="2.33" y=".62" width="9.91" height=".23"/>
        <path class="st4" d="M12.2.82H2.33v-.17h9.88v.17h0ZM12.27.89v-.29H2.26v.29h10,0Z"/>
        <g>
          <rect class="st6" x="12" y=".62" width=".23" height=".23"/>
          <path class="st4" d="M12.2.82h-.17v-.17h.17v.17h0ZM12.27.89v-.29h-.29v.29h.29Z"/>
        </g>
        <g>
          <rect class="st6" x="2.3" y=".62" width=".23" height=".23"/>
          <path class="st4" d="M2.49.82h-.17v-.17h.17v.17h0ZM2.56.89v-.29h-.29v.29h.29Z"/>
        </g>
        <g>
          <rect class="st6" x="10.54" y=".62" width=".23" height=".23"/>
          <path class="st4" d="M10.74.82h-.17v-.17h.17v.17h0ZM10.8.89v-.29h-.29v.29h.29Z"/>
        </g>
      </g>
    </g>
    <g id="_1933128199568">
      <g>
        <rect class="st6" x=".03" y="2.37" width="1.66" height="9.25"/>
        <path class="st4" d="M1.66,11.62V2.37H.07v9.25h1.59ZM1.72,11.68H0V2.31h1.72v9.38h0Z"/>
        <rect class="st6" x=".6" y="2.34" width=".23" height="9.35"/>
        <path class="st4" d="M.8,2.37v9.25h-.17V2.37h.17ZM.86,2.31h-.29v9.38h.29V2.31h0Z"/>
        <g>
          <rect class="st6" x=".6" y="2.34" width=".23" height=".23"/>
          <path class="st4" d="M.8,2.37v.17h-.17v-.17h.17ZM.86,2.31h-.29v.29h.29v-.29h0Z"/>
        </g>
        <g>
          <rect class="st6" x=".6" y="11.42" width=".23" height=".23"/>
          <path class="st4" d="M.8,11.45v.17h-.17v-.17h.17ZM.86,11.39h-.29v.29h.29v-.29h0Z"/>
        </g>
        <g>
          <rect class="st6" x=".6" y="3.8" width=".23" height=".23"/>
          <path class="st4" d="M.8,3.83v.17h-.17v-.17h.17ZM.86,3.77h-.29v.29h.29v-.29h0Z"/>
        </g>
      </g>
      <g>
        <rect class="st6" x=".03" y="13.87" width="1.66" height="9.25"/>
        <path class="st4" d="M1.66,23.12v-9.25H.07v9.25h1.59ZM1.72,23.19H0v-9.38h1.72v9.38h0Z"/>
        <rect class="st6" x=".6" y="13.84" width=".23" height="9.35"/>
        <path class="st4" d="M.8,13.87v9.25h-.17v-9.25h.17ZM.86,13.81h-.29v9.38h.29v-9.38h0Z"/>
        <g>
          <rect class="st6" x=".6" y="13.84" width=".23" height=".23"/>
          <path class="st4" d="M.8,13.87v.17h-.17v-.17h.17ZM.86,13.81h-.29v.29h.29v-.29h0Z"/>
        </g>
        <g>
          <rect class="st6" x=".6" y="22.92" width=".23" height=".23"/>
          <path class="st4" d="M.8,22.95v.17h-.17v-.17h.17ZM.86,22.89h-.29v.29h.29v-.29h0Z"/>
        </g>
        <g>
          <rect class="st6" x=".6" y="15.3" width=".23" height=".23"/>
          <path class="st4" d="M.8,15.34v.17h-.17v-.17h.17ZM.86,15.27h-.29v.29h.29v-.29h0Z"/>
        </g>
      </g>
      <g>
        <rect class="st6" x=".03" y="48.5" width="1.66" height="9.25"/>
        <path class="st4" d="M1.66,57.75v-9.25H.07v9.25h1.59ZM1.72,57.81H0v-9.38h1.72v9.38h0Z"/>
        <rect class="st6" x=".6" y="48.47" width=".23" height="9.35"/>
        <path class="st4" d="M.8,48.5v9.25h-.17v-9.25h.17ZM.86,48.43h-.29v9.38h.29v-9.38h0Z"/>
        <g>
          <rect class="st6" x=".6" y="48.47" width=".23" height=".23"/>
          <path class="st4" d="M.8,48.5v.17h-.17v-.17h.17ZM.86,48.43h-.29v.29h.29v-.29h0Z"/>
        </g>
        <g>
          <rect class="st6" x=".6" y="57.55" width=".23" height=".23"/>
          <path class="st4" d="M.8,57.58v.17h-.17v-.17h.17ZM.86,57.52h-.29v.29h.29v-.29h0Z"/>
        </g>
        <g>
          <rect class="st6" x=".6" y="49.93" width=".23" height=".23"/>
          <path class="st4" d="M.8,49.96v.17h-.17v-.17h.17ZM.86,49.9h-.29v.29h.29v-.29h0Z"/>
        </g>
      </g>
      <g>
        <rect class="st6" x=".03" y="25.53" width="1.66" height="9.25"/>
        <path class="st4" d="M1.66,34.78v-9.25H.07v9.25s1.59,0,1.59,0ZM1.72,34.84H0v-9.38h1.72v9.38h0Z"/>
        <rect class="st6" x=".6" y="25.5" width=".23" height="9.35"/>
        <path class="st4" d="M.8,25.53v9.25h-.17v-9.25h.17ZM.86,25.47h-.29v9.38h.29v-9.38h0Z"/>
        <g>
          <rect class="st6" x=".6" y="25.5" width=".23" height=".23"/>
          <path class="st4" d="M.8,25.53v.17h-.17v-.17h.17ZM.86,25.47h-.29v.29h.29v-.29h0Z"/>
        </g>
        <g>
          <rect class="st6" x=".6" y="34.58" width=".23" height=".23"/>
          <path class="st4" d="M.8,34.61v.17h-.17v-.17h.17ZM.86,34.55h-.29v.29h.29v-.29h0Z"/>
        </g>
        <g>
          <rect class="st6" x=".6" y="26.96" width=".23" height=".23"/>
          <path class="st4" d="M.8,26.99v.17h-.17v-.17h.17ZM.86,26.93h-.29v.29h.29v-.29h0Z"/>
        </g>
      </g>
      <g>
        <rect class="st6" x=".03" y="60.16" width="1.66" height="9.25"/>
        <path class="st4" d="M1.66,69.41v-9.25H.07v9.25h1.59ZM1.72,69.47H0v-9.38h1.72v9.38h0Z"/>
        <rect class="st6" x=".6" y="60.12" width=".23" height="9.35"/>
        <path class="st4" d="M.8,60.16v9.25h-.17v-9.25h.17ZM.86,60.09h-.29v9.38h.29v-9.38h0Z"/>
        <g>
          <rect class="st6" x=".6" y="60.12" width=".23" height=".23"/>
          <path class="st4" d="M.8,60.16v.17h-.17v-.17h.17ZM.86,60.09h-.29v.29h.29v-.29h0Z"/>
        </g>
        <g>
          <rect class="st6" x=".6" y="69.21" width=".23" height=".23"/>
          <path class="st4" d="M.8,69.24v.17h-.17v-.17h.17ZM.86,69.18h-.29v.29h.29v-.29h0Z"/>
        </g>
        <g>
          <rect class="st6" x=".6" y="61.59" width=".23" height=".23"/>
          <path class="st4" d="M.8,61.62v.17h-.17v-.17h.17ZM.86,61.56h-.29v.29h.29v-.29h0Z"/>
        </g>
      </g>
      <g>
        <rect class="st6" x=".03" y="37.03" width="1.66" height="9.25"/>
        <path class="st4" d="M1.66,46.28v-9.25H.07v9.25h1.59ZM1.72,46.34H0v-9.38h1.72v9.38h0Z"/>
        <rect class="st6" x=".6" y="37" width=".23" height="9.35"/>
        <path class="st4" d="M.8,37.03v9.25h-.17v-9.25h.17ZM.86,36.97h-.29v9.38h.29v-9.38h0Z"/>
        <g>
          <rect class="st6" x=".6" y="37" width=".23" height=".23"/>
          <path class="st4" d="M.8,37.03v.17h-.17v-.17h.17ZM.86,36.97h-.29v.29h.29v-.29h0Z"/>
        </g>
        <g>
          <rect class="st6" x=".6" y="46.08" width=".23" height=".23"/>
          <path class="st4" d="M.8,46.11v.17h-.17v-.17h.17ZM.86,46.05h-.29v.29h.29v-.29h0Z"/>
        </g>
        <g>
          <rect class="st6" x=".6" y="38.46" width=".23" height=".23"/>
          <path class="st4" d="M.8,38.49v.17h-.17v-.17h.17ZM.86,38.43h-.29v.29h.29v-.29h0Z"/>
        </g>
      </g>
      <g>
        <rect class="st6" x=".03" y="71.66" width="1.66" height="9.25"/>
        <path class="st4" d="M1.66,80.91v-9.25H.07v9.25h1.59ZM1.72,80.97H0v-9.38h1.72v9.38h0Z"/>
        <rect class="st6" x=".6" y="71.63" width=".23" height="9.35"/>
        <path class="st4" d="M.8,71.66v9.25h-.17v-9.25h.17ZM.86,71.59h-.29v9.38h.29v-9.38h0Z"/>
        <g>
          <rect class="st6" x=".6" y="71.63" width=".23" height=".23"/>
          <path class="st4" d="M.8,71.66v.17h-.17v-.17h.17ZM.86,71.59h-.29v.29h.29v-.29h0Z"/>
        </g>
        <g>
          <rect class="st6" x=".6" y="80.71" width=".23" height=".23"/>
          <path class="st4" d="M.8,80.74v.17h-.17v-.17h.17ZM.86,80.68h-.29v.29h.29v-.29h0Z"/>
        </g>
        <g>
          <rect class="st6" x=".6" y="73.09" width=".23" height=".23"/>
          <path class="st4" d="M.8,73.12v.17h-.17v-.17h.17ZM.86,73.06h-.29v.29h.29v-.29h0Z"/>
        </g>
      </g>
    </g>
    <g id="_1933137241312">
      <g>
        <rect class="st6" x="98.31" y="2.38" width="1.66" height="11.06"/>
        <path class="st4" d="M98.34,2.42v11.03h1.59V2.42h-1.59ZM98.28,2.35h1.72v11.15h-1.72V2.35h0Z"/>
        <rect class="st6" x="99.17" y="2.42" width=".23" height="11.06"/>
        <path class="st4" d="M99.2,13.45V2.42h.17v11.03s-.17,0-.17,0ZM99.14,13.51h.29V2.35h-.29v11.15h0Z"/>
        <g>
          <rect class="st6" x="99.17" y="13.25" width=".23" height=".23"/>
          <path class="st4" d="M99.2,13.45v-.17h.17v.17h-.17ZM99.14,13.51h.29v-.29h-.29v.29h0Z"/>
        </g>
        <g>
          <rect class="st6" x="99.17" y="2.39" width=".23" height=".23"/>
          <path class="st4" d="M99.2,2.59v-.17h.17v.17h-.17ZM99.14,2.65h.29v-.29h-.29v.29h0Z"/>
        </g>
        <g>
          <rect class="st6" x="99.17" y="11.78" width=".23" height=".23"/>
          <path class="st4" d="M99.2,11.98v-.17h.17v.17h-.17ZM99.14,12.04h.29v-.29h-.29v.29h0Z"/>
        </g>
      </g>
      <g>
        <rect class="st6" x="98.31" y="29.32" width="1.66" height="11.06"/>
        <path class="st4" d="M98.34,29.36v11.03h1.59v-11.03h-1.59ZM98.28,29.29h1.72v11.15h-1.72v-11.15h0Z"/>
        <rect class="st6" x="99.17" y="29.36" width=".23" height="11.06"/>
        <path class="st4" d="M99.2,40.39v-11.03h.17v11.03s-.17,0-.17,0ZM99.14,40.45h.29v-11.15h-.29v11.15h0Z"/>
        <g>
          <rect class="st6" x="99.17" y="40.19" width=".23" height=".23"/>
          <path class="st4" d="M99.2,40.39v-.17h.17v.17h-.17ZM99.14,40.45h.29v-.29h-.29v.29h0Z"/>
        </g>
        <g>
          <rect class="st6" x="99.17" y="29.33" width=".23" height=".23"/>
          <path class="st4" d="M99.2,29.53v-.17h.17v.17h-.17ZM99.14,29.59h.29v-.29h-.29v.29h0Z"/>
        </g>
        <g>
          <rect class="st6" x="99.17" y="38.72" width=".23" height=".23"/>
          <path class="st4" d="M99.2,38.92v-.17h.17v.17h-.17ZM99.14,38.98h.29v-.29h-.29v.29h0Z"/>
        </g>
      </g>
      <g>
        <rect class="st6" x="98.31" y="56.26" width="1.66" height="11.06"/>
        <path class="st4" d="M98.34,56.3v11.03h1.59v-11.03h-1.59ZM98.28,56.24h1.72v11.15h-1.72v-11.15h0Z"/>
        <rect class="st6" x="99.17" y="56.3" width=".23" height="11.06"/>
        <path class="st4" d="M99.2,67.33v-11.03h.17v11.03h-.17ZM99.14,67.39h.29v-11.15h-.29v11.15h0Z"/>
        <g>
          <rect class="st6" x="99.17" y="67.13" width=".23" height=".23"/>
          <path class="st4" d="M99.2,67.33v-.17h.17v.17h-.17ZM99.14,67.39h.29v-.29h-.29v.29h0Z"/>
        </g>
        <g>
          <rect class="st6" x="99.17" y="56.27" width=".23" height=".23"/>
          <path class="st4" d="M99.2,56.47v-.17h.17v.17h-.17ZM99.14,56.53h.29v-.29h-.29v.29h0Z"/>
        </g>
        <g>
          <rect class="st6" x="99.17" y="65.66" width=".23" height=".23"/>
          <path class="st4" d="M99.2,65.86v-.17h.17v.17h-.17ZM99.14,65.93h.29v-.29h-.29v.29h0Z"/>
        </g>
      </g>
      <g>
        <rect class="st6" x="98.31" y="15.87" width="1.66" height="11.06"/>
        <path class="st4" d="M98.34,15.9v11.03h1.59v-11.03h-1.59ZM98.28,15.84h1.72v11.15h-1.72v-11.15h0Z"/>
        <rect class="st6" x="99.17" y="15.9" width=".23" height="11.06"/>
        <path class="st4" d="M99.2,26.93v-11.03h.17v11.03h-.17ZM99.14,27h.29v-11.15h-.29v11.15h0Z"/>
        <g>
          <rect class="st6" x="99.17" y="26.73" width=".23" height=".23"/>
          <path class="st4" d="M99.2,26.93v-.17h.17v.17h-.17ZM99.14,27h.29v-.29h-.29v.29h0Z"/>
        </g>
        <g>
          <rect class="st6" x="99.17" y="15.87" width=".23" height=".23"/>
          <path class="st4" d="M99.2,16.07v-.17h.17v.17h-.17ZM99.14,16.14h.29v-.29h-.29v.29h0Z"/>
        </g>
        <g>
          <rect class="st6" x="99.17" y="25.27" width=".23" height=".23"/>
          <path class="st4" d="M99.2,25.47v-.17h.17v.17h-.17ZM99.14,25.53h.29v-.29h-.29v.29h0Z"/>
        </g>
      </g>
      <g>
        <rect class="st6" x="98.31" y="42.81" width="1.66" height="11.06"/>
        <path class="st4" d="M98.34,42.84v11.03h1.59v-11.03h-1.59ZM98.28,42.78h1.72v11.15h-1.72v-11.15h0Z"/>
        <rect class="st6" x="99.17" y="42.84" width=".23" height="11.06"/>
        <path class="st4" d="M99.2,53.87v-11.03h.17v11.03h-.17ZM99.14,53.94h.29v-11.15h-.29v11.15h0Z"/>
        <g>
          <rect class="st6" x="99.17" y="53.67" width=".23" height=".23"/>
          <path class="st4" d="M99.2,53.87v-.17h.17v.17h-.17ZM99.14,53.94h.29v-.29h-.29v.29h0Z"/>
        </g>
        <g>
          <rect class="st6" x="99.17" y="42.81" width=".23" height=".23"/>
          <path class="st4" d="M99.2,43.01v-.17h.17v.17h-.17ZM99.14,43.08h.29v-.29h-.29v.29h0Z"/>
        </g>
        <g>
          <rect class="st6" x="99.17" y="52.21" width=".23" height=".23"/>
          <path class="st4" d="M99.2,52.41v-.17h.17v.17h-.17ZM99.14,52.47h.29v-.29h-.29v.29h0Z"/>
        </g>
      </g>
      <g>
        <rect class="st6" x="98.31" y="69.75" width="1.66" height="11.06"/>
        <path class="st4" d="M98.34,69.79v11.03h1.59v-11.03h-1.59ZM98.28,69.72h1.72v11.15h-1.72v-11.15h0Z"/>
        <rect class="st6" x="99.17" y="69.79" width=".23" height="11.06"/>
        <path class="st4" d="M99.2,80.81v-11.03h.17v11.03h-.17ZM99.14,80.88h.29v-11.15h-.29v11.15h0Z"/>
        <g>
          <rect class="st6" x="99.17" y="80.61" width=".23" height=".23"/>
          <path class="st4" d="M99.2,80.81v-.17h.17v.17h-.17ZM99.14,80.88h.29v-.29h-.29v.29h0Z"/>
        </g>
        <g>
          <rect class="st6" x="99.17" y="69.75" width=".23" height=".23"/>
          <path class="st4" d="M99.2,69.95v-.17h.17v.17h-.17ZM99.14,70.02h.29v-.29h-.29v.29h0Z"/>
        </g>
        <g>
          <rect class="st6" x="99.17" y="79.15" width=".23" height=".23"/>
          <path class="st4" d="M99.2,79.35v-.17h.17v.17h-.17ZM99.14,79.41h.29v-.29h-.29v.29h0Z"/>
        </g>
      </g>
    </g>
    <polygon class="st4" points="20.75 60.01 25.52 60.01 25.52 60.37 20.75 60.37 20.75 60.01"/>
    <g id="_1933117898048">
      <path class="st4" d="M23.79,64.27s.03,0,.03,0h1.08v1.2h-1.08s-.02,0-.03,0c-.32,0-.58-.27-.58-.6s.26-.6.58-.6h0ZM23.79,64.19c-.36,0-.66.3-.66.68s.29.68.66.68c.01,0,.03,0,.03,0h1.15v-1.35h-1.15s-.02,0-.03,0h0Z"/>
      <path class="st4" d="M25.08,64.42v.91h-.08v-.91h.08ZM25.15,64.34h-.22v1.05h.22v-1.05h0Z"/>
    </g>
    <g id="_1933040235264">
      <path class="st4" d="M18.63,66.09v-.17c0-.68.21-1.23.59-1.62.38-.38.93-.6,1.61-.6h.19v-.03h-.19c-.69,0-1.25.22-1.64.61-.39.39-.6.95-.6,1.64v.17h.03Z"/>
      <polygon class="st4" points="21.03 66.01 18.6 66.01 18.6 66.11 21.03 66.11 21.03 66.01"/>
      <path class="st4" d="M20.75,66.13v.14h.27v-.16h-.27s0,.02,0,.02ZM20.79,66.23v-.08h.2v.08h-.2Z"/>
      <path class="st4" d="M20.75,63.53v.14h.27v-.16h-.27v.02h0ZM20.79,63.63v-.08h.2v.08h-.2Z"/>
    </g>
    <g id="_1933040257872">
      <path class="st4" d="M21.07,36.84h.27c1.09,0,1.97-.34,2.58-.95.61-.61.95-1.49.95-2.58v-.31h.05v.31c0,1.1-.35,1.99-.97,2.61s-1.52.96-2.62.96h-.27v-.05h0Z"/>
      <polygon class="st4" points="21.17 33.01 21.17 36.87 21.04 36.87 21.04 33.01 21.17 33.01"/>
      <path class="st4" d="M21.02,33.38h-.19v-.37h.21v.37h-.03ZM20.89,33.32h.11v-.26h-.11v.26Z"/>
      <path class="st4" d="M25.12,33.38h-.19v-.37h.21v.37h-.03ZM24.99,33.32h.11v-.26h-.11v.26Z"/>
    </g>
    <polygon class="st4" points="50.29 17.81 49.78 17.81 49.78 17.44 50.29 17.44 50.29 17.81"/>
    <polygon class="st4" points="82.14 31.92 89.28 31.92 89.28 32.29 82.14 32.29 82.14 31.92"/>
    <polygon class="st4" points="89.32 36.34 88.6 36.34 88.6 36.7 89.32 36.7 89.32 36.34"/>
    <polygon class="st4" points="71.72 31.92 74.72 31.92 74.72 32.71 71.72 32.71 71.72 31.92"/>
    <polygon class="st4" points="64.75 31.92 66.98 31.92 66.98 32.71 64.75 32.71 64.75 31.92"/>
  </g>
  <g id="mask">
    <rect id="_x36_7_x2F_17" class="st0" x=".86" y=".89" width="98.28" height="81.48"/>
  </g>
</svg>