<?xml version="1.0" encoding="UTF-8"?>
<svg id="_Слой_1" xmlns="http://www.w3.org/2000/svg" xmlns:xodm="http://www.corel.com/coreldraw/odm/2003" version="1.1" viewBox="0 0 100 79.61">
  <!-- Generator: Adobe Illustrator 29.5.1, SVG Export Plug-In . SVG Version: 2.1.0 Build 141)  -->
  <defs>
    <style>
      .st0, .st1, .st2, .st3 {
        fill: none;
      }

      .st4 {
        fill: #214270;
      }

      .st1 {
        stroke-linejoin: round;
      }

      .st1, .st2 {
        stroke-linecap: round;
        stroke-width: .02px;
      }

      .st1, .st2, .st3 {
        stroke: #214270;
      }

      .st5 {
        fill: #fff;
      }

      .st2, .st3 {
        stroke-miterlimit: 1.02;
      }

      .st6 {
        fill: #e3e4e5;
      }

      .st3 {
        stroke-width: .02px;
      }
    </style>
  </defs>
  <g id="main">
    <line class="st3" x1="36.8" y1="41.36" x2="38.85" y2="45.71"/>
    <line class="st3" x1="53.54" y1="35.69" x2="51.43" y2="31.22"/>
    <line class="st3" x1="36.82" y1="41.34" x2="36.82" y2="45.71"/>
    <line class="st3" x1="53.52" y1="35.71" x2="53.52" y2="31.22"/>
    <line class="st3" x1="56.71" y1="41.12" x2="56.71" y2="36.63"/>
    <line class="st3" x1="32.4" y1="40.42" x2="32.4" y2="35.93"/>
    <line class="st3" x1="37.87" y1="43.64" x2="37.87" y2="45.71"/>
    <line class="st3" x1="52.47" y1="33.42" x2="52.47" y2="31.22"/>
    <line class="st3" x1="35.76" y1="41.34" x2="35.76" y2="45.71"/>
    <line class="st3" x1="54.57" y1="35.71" x2="54.57" y2="31.22"/>
    <line class="st3" x1="55.66" y1="41.12" x2="55.66" y2="36.63"/>
    <line class="st3" x1="33.45" y1="40.42" x2="33.45" y2="35.93"/>
    <line class="st3" x1="52.51" y1="41.12" x2="52.51" y2="36.63"/>
    <line class="st3" x1="36.61" y1="40.42" x2="36.61" y2="35.93"/>
    <line class="st3" x1="34.71" y1="41.34" x2="34.71" y2="45.71"/>
    <line class="st3" x1="55.62" y1="35.71" x2="55.62" y2="31.22"/>
    <line class="st3" x1="54.61" y1="41.12" x2="54.61" y2="36.63"/>
    <line class="st3" x1="34.5" y1="40.42" x2="34.5" y2="35.93"/>
    <line class="st3" x1="51.46" y1="41.12" x2="51.46" y2="36.63"/>
    <line class="st3" x1="37.66" y1="40.42" x2="37.66" y2="35.93"/>
    <line class="st3" x1="33.66" y1="41.34" x2="33.66" y2="45.71"/>
    <line class="st3" x1="56.68" y1="35.71" x2="56.68" y2="31.22"/>
    <line class="st3" x1="53.56" y1="41.12" x2="53.56" y2="36.63"/>
    <line class="st3" x1="35.56" y1="40.42" x2="35.56" y2="35.93"/>
    <line class="st3" x1="50.41" y1="41.12" x2="50.41" y2="36.63"/>
    <line class="st3" x1="38.71" y1="40.42" x2="38.71" y2="35.93"/>
    <line class="st3" x1="32.61" y1="41.34" x2="32.61" y2="45.71"/>
    <line class="st3" x1="57.73" y1="35.71" x2="57.73" y2="31.22"/>
    <line class="st3" x1="49.35" y1="41.12" x2="49.35" y2="36.63"/>
    <line class="st3" x1="39.76" y1="40.42" x2="39.76" y2="35.93"/>
    <line class="st3" x1="31.56" y1="41.34" x2="31.56" y2="45.71"/>
    <line class="st3" x1="30.51" y1="41.34" x2="30.51" y2="45.71"/>
    <line class="st3" x1="30.51" y1="43.56" x2="36.82" y2="43.56"/>
    <line class="st3" x1="57.73" y1="33.49" x2="53.52" y2="33.49"/>
    <line class="st3" x1="49.35" y1="38.9" x2="56.71" y2="38.9"/>
    <line class="st3" x1="39.76" y1="38.2" x2="32.4" y2="38.2"/>
    <polyline class="st3" points="36.08 44.33 36.82 43.56 36.08 42.79"/>
    <polyline class="st3" points="54.26 32.73 53.52 33.49 54.26 34.26"/>
    <polyline class="st3" points="55.98 38.14 56.71 38.9 55.98 39.67"/>
    <polyline class="st3" points="33.14 37.44 32.4 38.2 33.14 38.97"/>
    <g id="_1895110108048">
      <rect class="st4" x="75.27" y="31.63" width="5.61" height="5.17"/>
      <g id="_ифт2">
        <g id="lift_2">
          <g>
            <path class="st5" d="M78.06,32.36h-1.46c-.25,0-.45.2-.45.45v2.81c0,.25.2.45.45.45h1.46c.25,0,.45-.2.45-.45v-2.81c0-.25-.2-.45-.45-.45ZM78.32,35.62c0,.14-.11.25-.25.25h-1.46c-.14,0-.25-.11-.25-.25v-2.81c0-.14.11-.25.25-.25h1.46c.14,0,.25.11.25.25v2.81Z"/>
            <path class="st5" d="M79.78,35.08l-.24.24v-.79c0-.07-.06-.13-.13-.13s-.13.06-.13.13v.79l-.24-.24c-.05-.05-.13-.05-.18,0-.05.05-.05.13,0,.18l.41.41s.08.05.12.06c0,0,.02,0,.02,0,0,0,.02,0,.02,0,.04,0,.09-.02.12-.06l.41-.41c.05-.05.05-.13,0-.18-.05-.05-.13-.05-.18,0h0Z"/>
            <path class="st5" d="M79.03,33.35l.24-.24v.84c0,.07.06.13.13.13s.13-.06.13-.13v-.84l.24.24s.06.04.09.04.07-.01.09-.04c.05-.05.05-.13,0-.18l-.41-.41s-.07-.05-.11-.06c-.01,0-.02,0-.03,0s-.02,0-.03,0c-.04,0-.08.03-.11.06l-.41.41c-.05.05-.05.13,0,.18.05.05.13.05.18,0h0,0Z"/>
            <g>
              <path class="st5" d="M77.33,33.26c.15,0,.28-.12.28-.28s-.12-.28-.28-.28-.28.12-.28.28.12.28.28.28Z"/>
              <path class="st5" d="M77.33,34.52c-.1,0-.26-.02-.34-.03l-.08,1.07c0,.08.05.15.14.16h0c.08,0,.15-.05.16-.13l.07-.79s.01-.06.06-.06c.05,0,.06.04.06.06l.07.79c0,.08.08.14.16.14h0c.08,0,.14-.08.14-.16l-.08-1.07c-.08.01-.24.03-.34.03h0Z"/>
              <path class="st5" d="M77.93,34.06l-.04-.4c0-.08-.04-.17-.16-.23-.09-.04-.39-.04-.39-.04,0,0-.33,0-.42.04-.11.05-.15.15-.15.23l-.04.4h0l-.04.51c0,.08.05.15.13.16h0s.05,0,.08-.02l.06-.79s.02-.04.04-.03c.02,0,.04.02.03.04l-.03.48c.07.01.23.03.33.03.09,0,.27-.02.34-.03l-.03-.48s.01-.04.03-.04c.02,0,.04.01.04.03l.05.79s.05.02.07.01h0c.08,0,.14-.08.13-.16l-.04-.51h0s0,0,0,0Z"/>
            </g>
          </g>
        </g>
      </g>
    </g>
    <g id="_1895110080640">
      <rect class="st4" x="75.27" y="38.68" width="5.61" height="5.65"/>
      <g id="_ифт2-2">
        <g id="lift_2-2">
          <g>
            <path class="st5" d="M78.06,39.65h-1.46c-.25,0-.45.2-.45.45v2.81c0,.25.2.45.45.45h1.46c.25,0,.45-.2.45-.45v-2.81c0-.25-.2-.45-.45-.45ZM78.32,42.91c0,.14-.11.25-.25.25h-1.46c-.14,0-.25-.11-.25-.25v-2.81c0-.14.11-.25.25-.25h1.46c.14,0,.25.11.25.25v2.81h0Z"/>
            <path class="st5" d="M79.78,42.37l-.24.24v-.79c0-.07-.06-.13-.13-.13s-.13.06-.13.13v.79l-.24-.24c-.05-.05-.13-.05-.18,0-.05.05-.05.13,0,.18l.41.41s.08.05.12.06c0,0,.02,0,.02,0,0,0,.02,0,.02,0,.04,0,.09-.02.12-.06l.41-.41c.05-.05.05-.13,0-.18-.05-.05-.13-.05-.18,0h0Z"/>
            <path class="st5" d="M79.03,40.65l.24-.25v.84c0,.07.06.13.13.13s.13-.06.13-.13v-.84l.24.24s.06.04.09.04.07-.01.09-.04c.05-.05.05-.13,0-.18l-.41-.41s-.07-.05-.11-.06c-.01,0-.02,0-.03,0s-.02,0-.03,0c-.04,0-.08.02-.11.06l-.41.41c-.05.05-.05.13,0,.18.05.05.13.05.18,0h0,0Z"/>
            <g>
              <path class="st5" d="M77.33,40.56c.15,0,.28-.12.28-.28s-.12-.28-.28-.28-.28.12-.28.28.12.28.28.28Z"/>
              <path class="st5" d="M77.33,41.81c-.1,0-.26-.02-.34-.03l-.08,1.07c0,.08.05.15.14.16h0c.08,0,.15-.05.16-.13l.07-.79s.01-.06.06-.07c.05,0,.06.04.06.06l.07.79c0,.08.08.14.16.13h0c.08,0,.14-.08.14-.16l-.08-1.07c-.08.01-.24.03-.34.03h0Z"/>
              <path class="st5" d="M77.93,41.36l-.04-.4c0-.08-.04-.17-.16-.23-.09-.04-.39-.04-.39-.04,0,0-.33,0-.42.04-.11.05-.15.15-.15.23l-.04.4h0l-.04.51c0,.08.05.15.13.16h0s.05,0,.08-.01l.06-.79s.02-.03.04-.03c.02,0,.04.02.03.04l-.03.48c.07.01.23.03.33.03.09,0,.27-.02.34-.03l-.03-.48s.01-.04.03-.04c.02,0,.04.01.04.03l.05.79s.05.02.07.01h0c.08,0,.14-.08.13-.16l-.04-.51h0,0Z"/>
            </g>
          </g>
        </g>
      </g>
    </g>
    <g id="_1895110100704">
      <rect class="st4" x="55.53" y="42.88" width="8.04" height="5.06"/>
      <g id="_ифт">
        <g id="lift_3">
          <g>
            <path class="st5" d="M60.12,43.56h-2.62c-.25,0-.45.2-.45.45v2.81c0,.25.2.45.45.45h2.62c.25,0,.45-.2.45-.45v-2.81c0-.25-.2-.45-.45-.45ZM60.37,46.82c0,.14-.11.25-.25.25h-2.62c-.14,0-.25-.11-.25-.25v-2.81c0-.14.11-.25.25-.25h2.62c.14,0,.25.11.25.25v2.81Z"/>
            <path class="st5" d="M61.83,46.28l-.24.24v-.79c0-.07-.06-.13-.13-.13s-.13.06-.13.13v.79l-.24-.24c-.05-.05-.13-.05-.18,0-.05.05-.05.13,0,.18l.41.41s.08.05.12.06c0,0,.02,0,.02,0,0,0,.02,0,.02,0,.04,0,.09-.02.12-.06l.41-.41c.05-.05.05-.13,0-.18s-.13-.05-.18,0h0Z"/>
            <path class="st5" d="M61.08,44.56l.24-.24v.84c0,.07.06.13.13.13s.13-.06.13-.13v-.84l.24.24s.06.04.09.04.07-.01.09-.04c.05-.05.05-.13,0-.18l-.41-.41s-.07-.05-.11-.06c-.01,0-.02,0-.03,0s-.02,0-.03,0c-.04,0-.08.03-.11.06l-.41.41c-.05.05-.05.13,0,.18.05.05.13.05.18,0h0,0Z"/>
            <g>
              <path class="st5" d="M59.39,44.46c.15,0,.28-.12.28-.28s-.12-.28-.28-.28-.28.12-.28.28.12.28.28.28Z"/>
              <path class="st5" d="M59.39,45.72c-.1,0-.26-.02-.34-.03l-.08,1.07c0,.08.05.15.14.16h0c.08,0,.15-.05.16-.13l.07-.79s.02-.06.06-.06c.05,0,.06.04.06.06l.07.79c0,.08.08.14.16.14h0c.08,0,.14-.08.13-.16l-.08-1.07c-.08.01-.24.03-.34.03h0,0Z"/>
              <path class="st5" d="M59.99,45.27l-.04-.4c0-.08-.04-.17-.16-.23-.09-.04-.39-.04-.39-.04,0,0-.33,0-.42.04-.11.05-.15.15-.15.23l-.04.4h0l-.04.51c0,.08.05.15.13.16h0s.05,0,.08-.02l.06-.79s.02-.04.04-.03c.02,0,.03.02.03.04l-.03.48c.07.01.23.03.33.03.09,0,.27-.02.34-.03l-.03-.48s.01-.04.03-.04c.02,0,.04.01.04.03l.05.79s.05.02.07.01h0c.08,0,.14-.08.13-.16l-.04-.51h0,0Z"/>
            </g>
          </g>
          <rect class="st5" x="57.53" y="46.16" width=".9" height=".71"/>
          <rect class="st5" x="57.53" y="45.34" width=".9" height=".71"/>
          <rect class="st5" x="57.53" y="44.85" width=".9" height=".35"/>
        </g>
      </g>
    </g>
    <path class="st4" d="M.86,0h99.13v79.64H0V0h.86ZM98.27,1.72H1.72v76.2h96.55V1.72h0Z"/>
    <polygon class="st4" points="73.75 49.46 73.75 43.49 74.8 43.49 74.8 44.7 81.45 44.7 81.45 38.12 74.8 38.12 74.8 39.51 73.75 39.51 73.75 36.15 74.8 36.15 74.8 37.07 81.45 37.07 81.45 31.22 74.8 31.22 74.8 32.16 73.75 32.16 73.75 30.17 82.49 30.17 82.49 49.46 81.45 49.46 81.45 45.75 74.8 45.75 74.8 49.46 73.75 49.46"/>
    <polygon class="st4" points="49.37 41.12 54.52 41.12 54.52 42.17 49.37 42.17 49.37 41.12"/>
    <polygon class="st4" points="38.82 30.17 39.76 30.17 65.06 30.17 65.06 31.22 39.76 31.22 39.76 35.93 39.37 35.93 38.72 35.93 25.15 35.93 25.15 34.88 38.72 34.88 38.72 30.17 38.82 30.17"/>
    <polygon class="st4" points="65.06 47.48 65.06 49.46 53.94 49.46 53.94 41.12 64.01 41.12 64.01 40.72 65.06 40.72 65.06 41.12 65.06 41.18 65.06 43.31 64.01 43.31 64.01 42.17 54.99 42.17 54.99 48.42 64.01 48.42 64.01 47.48 65.06 47.48"/>
    <polygon class="st4" points="44.09 35.71 45.14 35.71 59.68 35.71 59.68 36.76 45.14 36.76 45.14 41.34 44.56 41.34 44.09 41.34 25.13 41.34 25.13 40.3 44.09 40.3 44.09 36.76 44.09 35.71"/>
    <polygon class="st4" points="25.13 45.71 49.84 45.71 49.84 46.75 25.13 46.75 25.13 45.71"/>
    <polygon class="st4" points="49.37 46.75 49.37 41.12 50.42 41.12 50.42 46.75 49.37 46.75"/>
    <polygon class="st4" points="25.13 49.46 25.13 40.88 26.18 40.88 26.18 49.46 25.13 49.46"/>
    <polygon class="st4" points="25.15 34.92 25.15 30.17 26.2 30.17 26.2 34.92 25.15 34.92"/>
    <polygon class="st4" points="25.15 60.15 25.15 54.7 26.2 54.7 26.2 60.15 25.15 60.15"/>
    <polygon class="st4" points="25.15 79.64 25.15 71.05 26.2 71.05 26.2 79.64 25.15 79.64"/>
    <polygon class="st4" points="49.37 60.15 49.37 54.7 50.42 54.7 50.42 60.15 49.37 60.15"/>
    <polygon class="st4" points="49.37 79.64 49.37 71.05 50.42 71.05 50.42 79.64 49.37 79.64"/>
    <polygon class="st4" points="25.15 19.68 25.15 24.85 26.2 24.85 26.2 19.68 25.15 19.68"/>
    <polygon class="st4" points="25.15 0 25.15 8.77 26.2 8.77 26.2 0 25.15 0"/>
    <polygon class="st4" points="49.37 19.68 49.37 24.97 50.42 24.97 50.42 19.68 49.37 19.68"/>
    <polygon class="st4" points="64.01 30.17 64.01 35.97 65.06 35.97 65.06 30.17 64.01 30.17"/>
    <polygon class="st4" points="49.37 0 49.37 8.77 50.42 8.77 50.42 0 49.37 0"/>
    <polygon class="st4" points="74.12 19.68 74.12 24.97 75.16 24.97 75.16 19.68 74.12 19.68"/>
    <polygon class="st4" points="74.12 0 74.12 8.77 75.16 8.77 75.16 0 74.12 0"/>
    <polygon class="st4" points="74.12 60.2 74.12 54.75 75.16 54.75 75.16 60.2 74.12 60.2"/>
    <polygon class="st4" points="74.12 79.64 74.12 71.05 75.16 71.05 75.16 79.64 74.12 79.64"/>
    <polygon class="st4" points="71.72 48.68 74.71 48.68 74.71 49.46 71.72 49.46 71.72 48.68"/>
    <polygon class="st4" points="65.93 20.46 74.12 20.46 74.12 21.24 65.93 21.24 65.93 20.46"/>
    <polygon class="st4" points="74.39 28.74 74.39 31.2 75.17 31.2 75.17 28.74 74.39 28.74"/>
    <polygon class="st4" points="66.03 58.36 74.38 58.36 74.38 59.14 66.03 59.14 66.03 58.36"/>
    <polygon class="st4" points="43.48 55.55 49.74 55.55 49.74 56.34 43.48 56.34 43.48 55.55"/>
    <polygon class="st4" points="66.81 58.55 66.81 54.91 66.03 54.91 66.03 58.55 66.81 58.55"/>
    <polygon class="st4" points="44.26 55.74 44.26 54.7 43.48 54.7 43.48 55.74 44.26 55.74"/>
    <polygon class="st4" points="64.75 48.68 66.98 48.68 66.98 49.46 64.75 49.46 64.75 48.68"/>
    <polygon class="st4" points="11.87 35.32 20.83 35.32 20.83 36.85 11.87 36.85 11.87 35.32"/>
    <polygon class="st4" points="0 33.58 12.91 33.58 12.91 35.11 0 35.11 0 33.58"/>
    <polygon class="st4" points="11.87 44.25 20.83 44.25 20.83 42.73 11.87 42.73 11.87 44.25"/>
    <polygon class="st4" points="20.83 44.25 20.83 41.04 19.31 41.04 19.31 44.25 20.83 44.25"/>
    <polygon class="st4" points="12.91 46 12.91 42.73 11.38 42.73 11.38 46 12.91 46"/>
    <polygon class="st4" points="0 46 12.91 46 12.91 44.47 0 44.47 0 46"/>
    <polygon class="st4" points="20.83 37.25 20.83 36.46 19.31 36.46 19.31 37.25 20.83 37.25"/>
    <polygon class="st4" points="12.91 36.85 12.91 33.58 11.38 33.58 11.38 36.85 12.91 36.85"/>
    <polygon class="st4" points="56.53 24.18 57.24 24.18 57.24 24.97 56.53 24.97 56.53 24.18"/>
    <polygon class="st4" points="40.02 24.18 40.73 24.18 40.73 24.97 40.02 24.97 40.02 24.18"/>
    <polygon class="st4" points="65.93 24.97 65.93 20.46 66.71 20.46 66.71 24.97 65.93 24.97"/>
    <polygon class="st4" points="50.17 23.19 57.24 23.19 57.24 23.98 50.17 23.98 50.17 23.19"/>
    <polygon class="st4" points="40.02 24.97 40.02 23.19 40.81 23.19 40.81 24.97 40.02 24.97"/>
    <polygon class="st4" points="20.05 35.39 20.05 30.96 20.83 30.96 20.83 35.39 20.05 35.39"/>
    <polygon class="st4" points="56.46 24.97 56.46 23.19 57.24 23.19 57.24 24.97 56.46 24.97"/>
    <polygon class="st4" points="40.02 22.75 49.61 22.75 49.61 23.53 40.02 23.53 40.02 22.75"/>
    <polygon class="st4" points="74.8 49.1 81.95 49.1 81.95 49.46 74.8 49.46 74.8 49.1"/>
    <polygon class="st4" points="77.36 56.84 77.36 54.7 77.73 54.7 77.73 56.84 77.36 56.84"/>
    <polygon class="st4" points="74.98 56.47 77.73 56.47 77.73 56.84 74.98 56.84 74.98 56.47"/>
    <polygon class="st4" points="22.75 56.81 22.75 54.9 22.38 54.9 22.38 56.81 22.75 56.81"/>
    <polygon class="st4" points="26.82 63.74 26.82 62.12 27.18 62.12 27.18 63.74 26.82 63.74"/>
    <polygon class="st4" points="51.34 21.85 51.34 23.98 51.71 23.98 51.71 21.85 51.34 21.85"/>
    <polygon class="st4" points="40.02 18.29 40.02 22.93 40.39 22.93 40.39 18.29 40.02 18.29"/>
    <polygon class="st4" points="23.99 24.97 23.99 22.96 23.63 22.96 23.63 24.97 23.99 24.97"/>
    <polygon class="st4" points="27.36 24.97 27.36 22.96 26.99 22.96 26.99 24.97 27.36 24.97"/>
    <polygon class="st4" points="25.32 62.12 27.18 62.12 27.18 62.48 25.32 62.48 25.32 62.12"/>
    <polygon class="st4" points="10.64 33.95 20.83 33.95 20.83 33.58 10.64 33.58 10.64 33.95"/>
    <polygon class="st4" points="27.36 22.96 23.63 22.96 23.63 23.32 27.36 23.32 27.36 22.96"/>
    <polygon class="st4" points="43.85 56.3 43.85 59.25 43.48 59.25 43.48 56.3 43.85 56.3"/>
    <polygon class="st4" points="25.21 56.44 22.59 56.44 22.59 56.81 25.21 56.81 25.21 56.44"/>
    <polygon class="st4" points="25.3 63.37 27.18 63.37 27.18 63.74 25.3 63.74 25.3 63.37"/>
    <polygon class="st4" points="50.3 22.22 51.71 22.22 51.71 21.85 50.3 21.85 50.3 22.22"/>
    <polygon class="st4" points="40.36 24.97 56.53 24.97 56.53 24.6 40.36 24.6 40.36 24.97"/>
    <polygon class="st4" points="26.16 30.54 38.87 30.54 38.87 30.17 26.16 30.17 26.16 30.54"/>
    <polygon class="st4" points="50.26 18.29 40.02 18.29 40.02 18.66 50.26 18.66 50.26 18.29"/>
    <polygon class="st4" points="51.83 56.85 51.83 54.87 52.2 54.87 52.2 56.85 51.83 56.85"/>
    <polygon class="st4" points="44.17 54.7 52.2 54.7 52.2 55.07 44.17 55.07 44.17 54.7"/>
    <polygon class="st4" points="50.42 56.48 52.04 56.48 52.04 56.85 50.42 56.85 50.42 56.48"/>
    <polygon class="st4" points="23.63 24.97 27.36 24.97 27.36 24.6 23.63 24.6 23.63 24.97"/>
    <polygon class="st4" points="83.63 31.82 83.63 30.15 83.99 30.15 83.99 31.82 83.63 31.82"/>
    <polygon class="st4" points="86.43 30.41 86.43 28.74 86.8 28.74 86.8 30.41 86.43 30.41"/>
    <polygon class="st4" points="82.37 31.45 83.99 31.45 83.99 31.82 82.37 31.82 82.37 31.45"/>
    <polygon class="st4" points="75.02 28.74 86.8 28.74 86.8 29.11 75.02 29.11 75.02 28.74"/>
    <polygon class="st4" points="43.52 58.89 49.71 58.89 49.71 59.25 43.52 59.25 43.52 58.89"/>
    <polygon class="st4" points="66.03 54.7 77.67 54.7 77.67 55.07 66.03 55.07 66.03 54.7"/>
    <polygon class="st4" points="18.46 54.7 26.2 54.7 26.2 55.07 18.46 55.07 18.46 54.7"/>
    <polygon class="st4" points="18.46 64.41 25.52 64.41 25.52 64.77 18.46 64.77 18.46 64.41"/>
    <polygon class="st4" points="25.52 60 25.52 64.77 25.15 64.77 25.15 60 25.52 60"/>
    <polygon class="st4" points="65.93 24.97 75.16 24.97 75.16 24.6 65.93 24.6 65.93 24.97"/>
    <polygon class="st4" points="50.42 23.46 50.42 18.29 50.05 18.29 50.05 23.46 50.42 23.46"/>
    <g id="_1894793112368">
      <polygon class="st4" points="61.12 40.51 64.38 40.51 64.38 40.37 61.12 40.37 61.12 40.51"/>
      <g>
        <path class="st4" d="M61.16,40.48v-.23c0-.91.28-1.65.8-2.17s1.25-.8,2.16-.8h.26v-.04h-.26c-.92,0-1.67.29-2.19.81-.52.52-.81,1.27-.81,2.2v.23h.04Z"/>
        <polygon class="st4" points="64.38 36.19 63.13 36.19 63.13 36.32 64.38 36.32 64.38 36.19"/>
        <path class="st4" d="M64.01,40.53v.19h.37v-.21h-.37v.03ZM64.06,40.66v-.11h.26v.11h-.26Z"/>
        <path class="st4" d="M64.01,36v.19h.37v-.21h-.37v.03ZM64.06,36.13v-.11h.26v.11h-.26Z"/>
        <path class="st4" d="M64.1,37.28c-.27,0-.51-.11-.68-.28-.17-.17-.28-.42-.28-.68h.04c0,.26.1.49.27.66.17.17.4.27.66.27,0,0,0,.04,0,.04Z"/>
      </g>
    </g>
    <g id="_1894793078336">
      <polygon class="st4" points="28.86 36.12 25.85 36.12 25.85 36.24 28.86 36.24 28.86 36.12"/>
      <g>
        <path class="st4" d="M28.81,36.15v.21c0,.84-.26,1.52-.73,1.99s-1.15.73-1.99.73h-.24v.04h.24c.85,0,1.54-.27,2.02-.75.48-.48.74-1.17.74-2.02v-.21s-.04,0-.04,0Z"/>
        <polygon class="st4" points="25.85 40.1 27 40.1 27 39.98 25.85 39.98 25.85 40.1"/>
        <path class="st4" d="M26.19,36.1v-.17h-.34v.19h.34v-.02h0ZM26.14,35.97v.1h-.24v-.1h.24Z"/>
        <path class="st4" d="M26.19,40.27v-.17h-.34v.19h.34v-.02h0ZM26.14,40.15v.1h-.24v-.1h.24Z"/>
        <path class="st4" d="M26.11,39.09c.25,0,.47.1.63.26.16.16.26.38.26.63h-.03c0-.24-.1-.45-.25-.6-.15-.15-.37-.25-.6-.25v-.03h0Z"/>
      </g>
    </g>
    <g id="_1933193803840">
      <polygon class="st4" points="71.51 33.43 71.51 30.17 71.38 30.17 71.38 33.43 71.51 33.43"/>
      <g>
        <path class="st4" d="M71.48,33.39h-.23c-.91,0-1.65-.28-2.17-.8-.51-.51-.8-1.25-.8-2.16v-.26h-.04v.26c0,.92.29,1.67.81,2.19.52.52,1.27.81,2.2.81h.23v-.04h0Z"/>
        <polygon class="st4" points="67.19 30.17 67.19 31.42 67.32 31.42 67.32 30.17 67.19 30.17"/>
        <path class="st4" d="M71.54,30.54h.19v-.37h-.21v.37h.03ZM71.67,30.49h-.11v-.26h.11v.26Z"/>
        <path class="st4" d="M67,30.54h.19v-.37h-.21v.37h.03ZM67.14,30.49h-.11v-.26h.11v.26Z"/>
        <path class="st4" d="M68.29,30.45c0,.27-.11.51-.28.68-.17.17-.42.28-.68.28v-.04c.26,0,.49-.1.66-.27.17-.17.27-.4.27-.66,0,0,.04,0,.04,0Z"/>
      </g>
    </g>
    <path d="M35.91,64.09v.15h-.57c0-.06.01-.13.05-.21.03-.08.09-.17.17-.28.1-.12.16-.22.19-.29.03-.07.05-.13.05-.19,0-.07-.02-.12-.05-.17-.03-.04-.07-.06-.12-.06-.05,0-.09.02-.12.07-.03.05-.05.11-.05.2l-.11-.02c0-.13.04-.22.08-.29s.11-.1.19-.1c.09,0,.15.04.2.11.04.07.07.16.07.25,0,.08-.02.16-.05.24-.03.08-.1.18-.2.31-.06.08-.1.14-.12.17-.02.03-.03.06-.04.09h.42Z"/>
    <path id="_1" d="M36.42,64.24h-.11v-1.03s-.06.07-.1.11c-.04.04-.08.07-.11.08v-.15c.06-.04.11-.09.15-.16.04-.06.08-.12.09-.18h.07v1.33h0Z"/>
    <path id="_2" d="M36.85,63.53s-.07-.06-.1-.1c-.02-.04-.03-.1-.03-.17,0-.1.02-.18.07-.24s.11-.09.18-.09.13.03.18.1c.05.06.07.15.07.25,0,.06-.01.12-.03.16-.02.04-.05.08-.1.1.05.03.09.07.12.13.03.06.04.13.04.21,0,.12-.03.21-.08.29-.05.07-.12.11-.2.11s-.15-.04-.2-.11-.08-.17-.08-.29c0-.09.01-.16.04-.22.03-.06.07-.1.12-.12h0ZM36.83,63.25c0,.07.01.12.04.16.03.04.06.06.1.06s.07-.02.1-.06c.03-.04.04-.09.04-.15s-.01-.11-.04-.15-.06-.06-.1-.06-.07.02-.1.06c-.03.04-.04.09-.04.14h0ZM36.79,63.86c0,.08.02.15.05.2.03.05.08.07.12.07s.09-.02.12-.07c.03-.05.05-.11.05-.19s-.02-.15-.05-.2c-.03-.05-.08-.07-.12-.07s-.09.02-.12.07c-.03.05-.05.11-.05.19h0Z"/>
    <path id="_3" d="M37.41,64.24v-.18h.12v.18c0,.07,0,.13-.03.17-.02.04-.04.07-.07.09l-.03-.07s.04-.04.05-.06c.01-.03.02-.07.02-.13h-.06Z"/>
    <path id="_4" d="M37.68,63.9h.11c0,.07.03.13.06.17.03.04.07.06.11.06.05,0,.09-.03.13-.09.04-.06.05-.14.05-.24s-.02-.17-.05-.22c-.03-.05-.08-.08-.13-.08-.03,0-.06.01-.09.03-.03.02-.05.05-.07.09l-.1-.02.08-.68h.42v.15h-.34l-.05.36c.05-.06.1-.08.16-.08.07,0,.13.04.19.12s.08.18.08.31-.03.24-.08.33-.12.14-.21.14c-.07,0-.14-.03-.19-.1-.05-.07-.08-.16-.09-.27h0Z"/>
    <path id="_5" d="M38.35,63.59c0-.22.02-.39.07-.5s.12-.17.21-.17c.08,0,.15.05.19.14.06.11.08.29.08.54,0,.22-.02.39-.07.5-.05.11-.12.17-.21.17-.08,0-.15-.05-.2-.15s-.08-.28-.08-.52h0ZM38.45,63.59c0,.21.02.36.05.43.03.07.07.11.12.11.05,0,.09-.04.12-.11.03-.07.05-.22.05-.43s-.02-.36-.05-.43-.07-.11-.13-.11c-.05,0-.09.04-.12.11-.03.07-.05.22-.05.43h0Z"/>
    <path d="M60.53,12.55v.15h-.57c0-.06.01-.13.04-.21.03-.08.09-.17.17-.28.1-.12.16-.22.19-.29.03-.07.05-.13.05-.19,0-.07-.02-.12-.05-.17-.03-.04-.07-.06-.12-.06-.05,0-.09.02-.12.07-.03.05-.05.11-.05.2l-.11-.02c0-.13.04-.22.08-.29.05-.06.11-.1.19-.1.09,0,.15.04.2.11s.07.16.07.25c0,.08-.02.16-.05.24-.04.08-.1.18-.2.31-.06.08-.1.14-.12.17-.02.03-.03.06-.04.09h.42Z"/>
    <path id="_1_0" d="M61.04,12.71h-.11v-1.03s-.06.07-.1.11c-.04.04-.08.07-.11.08v-.15c.06-.04.11-.09.15-.16.04-.06.08-.12.09-.18h.07v1.33h0Z"/>
    <path id="_2_1" d="M61.31,12.36h.11c0,.07.03.13.06.17.03.04.07.06.11.06.05,0,.09-.03.13-.09.04-.06.05-.14.05-.24s-.02-.17-.05-.22c-.03-.05-.08-.08-.13-.08-.03,0-.06.01-.09.03-.03.02-.05.05-.07.09l-.1-.02.08-.68h.42v.15h-.34l-.05.36c.05-.06.1-.08.16-.08.07,0,.13.04.19.12s.08.18.08.31-.03.24-.08.33c-.05.09-.12.14-.21.14-.07,0-.14-.03-.19-.1s-.08-.16-.09-.27h0Z"/>
    <path id="_3_2" d="M62.03,12.71v-.18h.12v.18c0,.07,0,.13-.02.17-.02.04-.04.07-.07.09l-.03-.07s.04-.04.05-.06c.01-.03.02-.07.02-.13h-.06Z"/>
    <path id="_4_3" d="M62.31,11.56v-.15h.55v.13c-.08.14-.15.31-.22.53-.06.22-.1.43-.11.65h-.11c0-.11.02-.24.04-.39.03-.15.06-.29.11-.42.05-.13.1-.25.15-.34h-.42,0Z"/>
    <path id="_5_4" d="M62.97,12.06c0-.22.02-.39.07-.5.05-.11.12-.17.21-.17.08,0,.15.05.19.14.06.11.08.29.08.54,0,.22-.02.39-.07.5-.05.11-.12.17-.21.17-.08,0-.15-.05-.2-.15-.05-.1-.08-.28-.08-.52h0ZM63.08,12.06c0,.21.02.36.05.43.03.07.07.11.12.11.05,0,.09-.04.12-.11.03-.07.05-.22.05-.43s-.02-.36-.05-.43c-.03-.07-.07-.11-.13-.11-.05,0-.09.04-.12.11-.03.07-.05.22-.05.43h0Z"/>
    <path d="M18.42,62.86h.11c0,.07.03.13.06.17.03.04.07.06.11.06.05,0,.09-.03.13-.09.04-.06.05-.14.05-.24,0-.09-.02-.17-.05-.22-.03-.05-.08-.08-.13-.08-.03,0-.06.01-.09.03-.03.02-.05.05-.07.09l-.1-.02.08-.68h.42v.15h-.34l-.05.36c.05-.06.1-.08.16-.08.07,0,.13.04.19.12s.08.18.08.31-.03.24-.08.33c-.05.09-.12.14-.21.14-.07,0-.14-.03-.19-.1-.05-.07-.08-.16-.09-.27h0Z"/>
    <path id="_1_5" d="M19.14,63.21v-.18h.12v.19c0,.07,0,.13-.02.17-.02.04-.04.07-.07.09l-.03-.07s.04-.04.05-.06c.01-.03.02-.07.02-.13h-.06Z"/>
    <path id="_2_6" d="M19.75,63.21v-.32h-.37v-.15l.39-.86h.09v.86h.12v.15h-.12v.32h-.11,0ZM19.75,62.74v-.6l-.27.6h.27Z"/>
    <path id="_3_7" d="M20.08,62.56c0-.22.02-.39.07-.5.05-.11.12-.17.21-.17.08,0,.15.05.19.14.06.11.08.29.08.54,0,.22-.02.39-.07.5-.05.11-.12.17-.21.17-.08,0-.15-.05-.2-.15-.05-.1-.08-.28-.08-.52ZM20.19,62.56c0,.21.02.36.05.43.03.07.07.11.12.11.05,0,.09-.04.12-.11.03-.07.05-.22.05-.43s-.02-.36-.05-.43-.07-.11-.13-.11c-.05,0-.09.04-.12.11-.03.07-.05.22-.05.43Z"/>
    <g id="_1933193808352">
      <polygon class="st4" points="71.51 46.2 71.51 49.46 71.38 49.46 71.38 46.2 71.51 46.2"/>
      <g>
        <path class="st4" d="M71.48,46.25h-.23c-.91,0-1.65.28-2.17.8-.51.51-.8,1.25-.8,2.16v.26h-.04v-.26c0-.92.29-1.67.81-2.19.52-.52,1.27-.81,2.2-.81h.23v.04h0Z"/>
        <polygon class="st4" points="67.19 49.46 67.19 48.22 67.32 48.22 67.32 49.46 67.19 49.46"/>
        <path class="st4" d="M71.54,49.1h.19v.37h-.21v-.37h.03ZM71.67,49.15h-.11v.26h.11v-.26Z"/>
        <path class="st4" d="M67,49.1h.19v.37h-.21v-.37h.03ZM67.14,49.15h-.11v.26h.11v-.26Z"/>
        <path class="st4" d="M68.29,49.18c0-.27-.11-.51-.28-.68-.17-.17-.42-.28-.68-.28v.04c.26,0,.49.1.66.27.17.17.27.4.27.66,0,0,.04,0,.04,0Z"/>
      </g>
    </g>
    <path d="M4.34,5.06v.33h-.92c0-.12.04-.24.09-.35.05-.11.15-.26.3-.44.12-.15.19-.24.21-.29.04-.07.06-.15.06-.23,0-.08-.02-.14-.05-.18-.03-.04-.08-.06-.13-.06-.12,0-.18.1-.19.29l-.26-.04c.02-.19.06-.33.14-.41s.18-.13.32-.13c.14,0,.25.05.33.15.07.1.11.22.11.36,0,.08,0,.15-.03.22-.02.07-.05.14-.09.21-.04.07-.1.16-.19.27-.08.11-.14.17-.16.21-.02.03-.04.07-.05.1h.52,0Z"/>
    <path id="_1_8" d="M5.41,5.06v.33h-.92c0-.12.04-.24.09-.35.05-.11.15-.26.3-.44.12-.15.19-.24.21-.29.04-.07.06-.15.06-.23,0-.08-.02-.14-.05-.18-.03-.04-.08-.06-.13-.06-.12,0-.18.1-.19.29l-.26-.04c.02-.19.06-.33.14-.41s.18-.13.32-.13c.14,0,.25.05.33.15.07.1.11.22.11.36,0,.08,0,.15-.03.22-.02.07-.05.14-.09.21-.04.07-.1.16-.19.27-.08.11-.14.17-.16.21-.02.03-.04.07-.05.1h.52,0Z"/>
    <path id="_2_9" d="M5.59,4.91l.26-.04c0,.08.03.14.07.19s.08.07.13.07c.05,0,.1-.03.14-.09.04-.06.06-.15.06-.27,0-.12-.02-.2-.06-.26-.04-.06-.09-.08-.15-.08-.08,0-.14.04-.2.13l-.21-.04.14-.96h.7v.33h-.49l-.04.32c.06-.04.12-.06.18-.06.11,0,.2.05.28.14.1.12.14.28.14.47,0,.16-.04.31-.12.45-.08.14-.2.2-.35.2-.12,0-.22-.04-.31-.13-.08-.09-.13-.21-.15-.37h0Z"/>
    <path id="_3_10" d="M7.19,4.91l.26-.04c0,.08.03.14.07.19s.08.07.13.07c.05,0,.1-.03.14-.09.04-.06.06-.15.06-.27,0-.12-.02-.2-.06-.26-.04-.06-.09-.08-.15-.08-.08,0-.14.04-.2.13l-.21-.04.14-.96h.7v.33h-.49l-.04.32c.06-.04.12-.06.18-.06.11,0,.2.05.28.14.1.12.14.28.14.47,0,.16-.04.31-.12.45-.08.14-.2.2-.35.2-.12,0-.22-.04-.31-.13-.08-.09-.13-.21-.15-.37h0Z"/>
    <path id="_4_11" d="M6.7,5.03h.26v.25c0,.14-.02.25-.05.32-.04.09-.1.15-.19.19l-.05-.15c.05-.02.09-.06.11-.1.02-.04.03-.1.04-.17h-.13v-.35h0Z"/>
    <path id="_5_12" d="M8.7,3.53c.13,0,.24.07.32.21.08.14.12.38.12.73s-.04.59-.12.73c-.08.14-.19.21-.32.21s-.24-.07-.32-.21c-.08-.14-.12-.38-.12-.74s.04-.59.12-.73c.08-.14.19-.21.32-.21ZM8.7,3.83c-.05,0-.09.04-.12.11-.03.07-.05.25-.05.54s.02.46.05.54c.03.07.07.11.12.11s.09-.04.12-.11c.03-.08.05-.25.05-.53s-.02-.46-.05-.54c-.03-.08-.07-.11-.12-.11Z"/>
    <path d="M90.66,75.34v.33h-.92c0-.12.04-.24.09-.35.05-.11.15-.26.3-.44.12-.15.19-.24.21-.29.04-.07.06-.15.06-.23,0-.08-.02-.14-.05-.18-.03-.04-.08-.06-.13-.06-.12,0-.18.1-.19.29l-.26-.04c.02-.19.06-.33.14-.41.08-.09.18-.13.31-.13.14,0,.25.05.33.15.07.1.11.22.11.36,0,.08,0,.15-.03.22-.02.07-.05.14-.09.21-.04.07-.1.16-.19.28-.08.1-.14.17-.16.21-.02.03-.04.07-.05.1h.52,0Z"/>
    <path id="_1_13" d="M91.73,75.34v.33h-.92c0-.12.04-.24.09-.35.05-.11.15-.26.3-.44.12-.15.19-.24.21-.29.04-.07.06-.15.06-.23,0-.08-.02-.14-.05-.18-.03-.04-.08-.06-.13-.06-.12,0-.18.1-.19.29l-.26-.04c.02-.19.06-.33.14-.41.08-.09.18-.13.32-.13.14,0,.25.05.33.15.07.1.11.22.11.36,0,.08,0,.15-.03.22-.02.07-.05.14-.09.21-.04.07-.1.16-.19.28-.08.1-.14.17-.16.21-.02.03-.04.07-.05.1h.52,0Z"/>
    <path id="_2_14" d="M91.91,75.24l.25-.04c.01.14.06.21.15.21.06,0,.11-.03.14-.1.04-.07.06-.21.07-.42-.03.05-.07.09-.11.12-.04.03-.09.04-.14.04-.1,0-.2-.05-.28-.16s-.12-.26-.12-.44c0-.19.04-.35.13-.46.08-.11.19-.17.31-.17.14,0,.25.07.34.22.09.14.14.38.14.72s-.05.58-.14.73c-.09.15-.22.22-.36.22-.1,0-.19-.04-.26-.11-.07-.07-.11-.19-.13-.35h0ZM92.51,74.47c0-.12-.02-.2-.06-.27-.04-.06-.08-.09-.14-.09s-.09.03-.12.08c-.03.05-.05.14-.05.25s.02.21.05.26c.04.06.08.08.13.08s.09-.03.13-.08c.04-.05.05-.13.05-.24h0Z"/>
    <path id="_3_15" d="M93.5,75.18l.25-.04c0,.09.03.15.06.2.04.05.08.07.13.07.05,0,.1-.03.14-.08.04-.05.06-.13.06-.23,0-.09-.02-.16-.05-.21-.04-.05-.08-.08-.13-.08-.03,0-.07,0-.12.03l.03-.29c.07,0,.12-.02.16-.06.04-.04.06-.1.06-.18,0-.06-.01-.11-.04-.15-.03-.04-.06-.05-.11-.05s-.08.02-.12.06c-.03.04-.05.1-.06.19l-.24-.05c.03-.17.07-.29.15-.37.07-.08.17-.12.28-.12.12,0,.22.05.3.15.07.1.11.21.11.33,0,.08-.02.15-.05.22-.03.06-.08.12-.15.17.08.02.14.07.19.15.05.08.07.17.07.29,0,.17-.05.31-.14.42s-.2.17-.33.17-.22-.05-.31-.14c-.08-.09-.13-.22-.15-.38h0Z"/>
    <path id="_4_16" d="M93.02,75.32h.26v.25c0,.14-.02.25-.05.32-.04.09-.1.15-.19.19l-.05-.15c.05-.02.09-.06.11-.1s.03-.1.04-.17h-.13v-.35h0Z"/>
    <path id="_5_17" d="M95.02,73.82c.13,0,.24.07.32.21s.12.38.12.73-.04.59-.12.73c-.08.14-.19.21-.32.21s-.24-.07-.32-.21c-.08-.14-.12-.38-.12-.74s.04-.59.12-.73c.08-.14.19-.21.32-.21ZM95.02,74.11c-.05,0-.09.04-.12.11-.03.08-.05.25-.05.54s.02.46.05.54c.03.07.07.11.12.11s.09-.04.12-.11c.03-.08.05-.25.05-.53s-.02-.46-.05-.54c-.03-.08-.07-.11-.12-.11h0Z"/>
    <g id="_1933193761072">
      <path class="st4" d="M17.46,37.46v.24c0,.96.3,1.73.83,2.27.54.54,1.31.84,2.26.84h.27v.05h-.27c-.97,0-1.75-.3-2.3-.85s-.85-1.33-.85-2.3v-.24h.05Z"/>
      <polygon class="st4" points="20.83 37.55 17.44 37.55 17.44 37.43 20.83 37.43 20.83 37.55"/>
      <path class="st4" d="M20.51,37.41v-.16h.32v.19h-.32s0-.02,0-.02ZM20.56,37.29v.1h.23v-.1h-.23Z"/>
      <path class="st4" d="M20.51,41.02v-.16h.32v.19h-.32s0-.02,0-.02ZM20.56,40.9v.09h.23v-.09h-.23Z"/>
    </g>
    <path d="M86.51,35.39v-.32h-.37v-.15l.39-.86h.09v.86h.12v.15h-.12v.32h-.1,0ZM86.51,34.92v-.59l-.27.59h.27Z"/>
    <path id="_1_18" d="M86.89,35.39v-.18h.12v.18c0,.07,0,.13-.02.17-.02.04-.04.07-.07.09l-.03-.07s.04-.04.05-.06c.01-.03.02-.07.02-.13h-.06Z"/>
    <path id="_2_19" d="M87.5,35.39v-.32h-.37v-.15l.39-.86h.09v.86h.12v.15h-.12v.32h-.11,0ZM87.5,34.92v-.59l-.27.59h.27Z"/>
    <path id="_3_20" d="M87.83,34.74c0-.22.02-.39.07-.5.05-.11.12-.17.21-.17.08,0,.15.05.19.14.06.11.08.29.08.54,0,.22-.02.39-.07.5-.05.11-.12.17-.21.17-.08,0-.15-.05-.2-.15-.05-.1-.08-.28-.08-.52h0ZM87.94,34.74c0,.21.02.36.05.43.03.07.07.11.12.11s.09-.04.12-.11c.03-.07.05-.22.05-.43s-.02-.36-.05-.43-.07-.11-.13-.11c-.05,0-.09.04-.12.11-.03.07-.05.22-.05.43h0Z"/>
    <g id="_1933193796592">
      <path class="st4" d="M21.07,42.04h.27c1.08,0,1.96.34,2.57.94s.95,1.48.95,2.57v.31h.05v-.31c0-1.09-.34-1.99-.96-2.6-.62-.62-1.51-.96-2.61-.96h-.27v.05h0Z"/>
      <polygon class="st4" points="21.17 45.86 21.17 42.01 21.04 42.01 21.04 45.86 21.17 45.86"/>
      <path class="st4" d="M21.02,45.49h-.19v.37h.21v-.37h-.03ZM20.89,45.54h.11v.26h-.11v-.26Z"/>
      <path class="st4" d="M25.1,45.49h-.19v.37h.21v-.37h-.03ZM24.97,45.54h.11v.26h-.11v-.26Z"/>
    </g>
    <polygon class="st4" points="20.83 46.15 20.83 41.04 19.31 41.04 19.31 46.15 20.83 46.15"/>
    <g id="_1933193798896">
      <rect class="st6" x="2.69" y="77.95" width="8.95" height="1.66"/>
      <path class="st4" d="M11.63,77.98H2.69v1.59h8.94v-1.59h0ZM11.69,77.92v1.72H2.63v-1.72h9.06Z"/>
      <rect class="st6" x="2.66" y="78.81" width="8.98" height=".23"/>
      <path class="st4" d="M2.69,78.84h8.94v.17H2.69v-.17h0ZM2.63,78.78v.29h9.06v-.29H2.63Z"/>
      <g>
        <rect class="st6" x="2.66" y="78.81" width=".23" height=".23"/>
        <path class="st4" d="M2.69,78.84h.17v.17h-.17v-.17h0ZM2.63,78.78v.29h.29v-.29h-.29Z"/>
      </g>
      <g>
        <rect class="st6" x="11.43" y="78.81" width=".23" height=".23"/>
        <path class="st4" d="M11.46,78.84h.17v.17h-.17v-.17h0ZM11.4,78.78v.29h.29v-.29h-.29Z"/>
      </g>
      <g>
        <rect class="st6" x="4.13" y="78.81" width=".23" height=".23"/>
        <path class="st4" d="M4.16,78.84h.17v.17h-.17v-.17h0ZM4.1,78.78v.29h.29v-.29h-.29Z"/>
      </g>
    </g>
    <g id="_1930516471728">
      <rect class="st6" x="15.05" y="77.95" width="8.95" height="1.66"/>
      <path class="st4" d="M23.99,77.98h-8.94v1.59h8.94v-1.59h0ZM24.05,77.92v1.72h-9.06v-1.72h9.06Z"/>
      <rect class="st6" x="15.02" y="78.81" width="8.98" height=".23"/>
      <path class="st4" d="M15.05,78.84h8.94v.17h-8.94v-.17h0ZM14.99,78.78v.29h9.06v-.29h-9.06Z"/>
      <g>
        <rect class="st6" x="15.02" y="78.81" width=".23" height=".23"/>
        <path class="st4" d="M15.05,78.84h.17v.17h-.17v-.17h0ZM14.99,78.78v.29h.29v-.29h-.29Z"/>
      </g>
      <g>
        <rect class="st6" x="23.79" y="78.81" width=".23" height=".23"/>
        <path class="st4" d="M23.82,78.84h.17v.17h-.17v-.17h0ZM23.75,78.78v.29h.29v-.29h-.29Z"/>
      </g>
      <g>
        <rect class="st6" x="16.48" y="78.81" width=".23" height=".23"/>
        <path class="st4" d="M16.51,78.84h.17v.17h-.17v-.17h0ZM16.45,78.78v.29h.29v-.29h-.29Z"/>
      </g>
    </g>
    <g id="_1933117901072">
      <rect class="st6" x="27.25" y="77.95" width="8.95" height="1.66"/>
      <path class="st4" d="M36.18,77.98h-8.94v1.59h8.94v-1.59h0ZM36.25,77.92v1.72h-9.06v-1.72h9.06Z"/>
      <rect class="st6" x="27.22" y="78.81" width="8.98" height=".23"/>
      <path class="st4" d="M27.25,78.84h8.94v.17h-8.94v-.17h0ZM27.18,78.78v.29h9.06v-.29h-9.06Z"/>
      <g>
        <rect class="st6" x="27.22" y="78.81" width=".23" height=".23"/>
        <path class="st4" d="M27.25,78.84h.17v.17h-.17v-.17h0ZM27.18,78.78v.29h.29v-.29h-.29Z"/>
      </g>
      <g>
        <rect class="st6" x="35.98" y="78.81" width=".23" height=".23"/>
        <path class="st4" d="M36.01,78.84h.17v.17h-.17v-.17h0ZM35.95,78.78v.29h.29v-.29h-.29Z"/>
      </g>
      <g>
        <rect class="st6" x="28.68" y="78.81" width=".23" height=".23"/>
        <path class="st4" d="M28.71,78.84h.17v.17h-.17v-.17h0ZM28.65,78.78v.29h.29v-.29h-.29Z"/>
      </g>
    </g>
    <g id="_1933075682384">
      <rect class="st6" x="39.39" y="77.95" width="8.95" height="1.66"/>
      <path class="st4" d="M48.33,77.98h-8.94v1.59h8.94v-1.59h0ZM48.39,77.92v1.72h-9.06v-1.72h9.06Z"/>
      <rect class="st6" x="39.36" y="78.81" width="8.98" height=".23"/>
      <path class="st4" d="M39.39,78.84h8.94v.17h-8.94v-.17h0ZM39.33,78.78v.29h9.06v-.29h-9.06Z"/>
      <g>
        <rect class="st6" x="39.36" y="78.81" width=".23" height=".23"/>
        <path class="st4" d="M39.39,78.84h.17v.17h-.17v-.17h0ZM39.33,78.78v.29h.29v-.29h-.29Z"/>
      </g>
      <g>
        <rect class="st6" x="48.13" y="78.81" width=".23" height=".23"/>
        <path class="st4" d="M48.16,78.84h.17v.17h-.17v-.17h0ZM48.1,78.78v.29h.29v-.29h-.29Z"/>
      </g>
      <g>
        <rect class="st6" x="40.82" y="78.81" width=".23" height=".23"/>
        <path class="st4" d="M40.86,78.84h.17v.17h-.17v-.17h0ZM40.79,78.78v.29h.29v-.29h-.29Z"/>
      </g>
    </g>
    <g id="_1933075696112">
      <rect class="st6" x="51.64" y="77.95" width="8.95" height="1.66"/>
      <path class="st4" d="M60.58,77.98h-8.94v1.59h8.94v-1.59h0ZM60.64,77.92v1.72h-9.06v-1.72h9.06Z"/>
      <rect class="st6" x="51.61" y="78.81" width="8.98" height=".23"/>
      <path class="st4" d="M51.64,78.84h8.94v.17h-8.94v-.17h0ZM51.58,78.78v.29h9.06v-.29h-9.06Z"/>
      <g>
        <rect class="st6" x="51.61" y="78.81" width=".23" height=".23"/>
        <path class="st4" d="M51.64,78.84h.17v.17h-.17v-.17h0ZM51.58,78.78v.29h.29v-.29h-.29Z"/>
      </g>
      <g>
        <rect class="st6" x="60.38" y="78.81" width=".23" height=".23"/>
        <path class="st4" d="M60.41,78.84h.17v.17h-.17v-.17h0ZM60.35,78.78v.29h.29v-.29h-.29Z"/>
      </g>
      <g>
        <rect class="st6" x="53.07" y="78.81" width=".23" height=".23"/>
        <path class="st4" d="M53.11,78.84h.17v.17h-.17v-.17h0ZM53.04,78.78v.29h.29v-.29h-.29Z"/>
      </g>
    </g>
    <g id="_1933075712096">
      <rect class="st6" x="63.84" y="77.95" width="8.95" height="1.66"/>
      <path class="st4" d="M72.78,77.98h-8.94v1.59h8.94v-1.59h0ZM72.84,77.92v1.72h-9.06v-1.72h9.06Z"/>
      <rect class="st6" x="63.81" y="78.81" width="8.98" height=".23"/>
      <path class="st4" d="M63.84,78.84h8.94v.17h-8.94v-.17h0ZM63.78,78.78v.29h9.06v-.29h-9.06Z"/>
      <g>
        <rect class="st6" x="63.81" y="78.81" width=".23" height=".23"/>
        <path class="st4" d="M63.84,78.84h.17v.17h-.17v-.17h0ZM63.78,78.78v.29h.29v-.29h-.29Z"/>
      </g>
      <g>
        <rect class="st6" x="72.58" y="78.81" width=".23" height=".23"/>
        <path class="st4" d="M72.61,78.84h.17v.17h-.17v-.17h0ZM72.55,78.78v.29h.29v-.29h-.29Z"/>
      </g>
      <g>
        <rect class="st6" x="65.27" y="78.81" width=".23" height=".23"/>
        <path class="st4" d="M65.3,78.84h.17v.17h-.17v-.17h0ZM65.24,78.78v.29h.29v-.29h-.29Z"/>
      </g>
    </g>
    <g id="_1933075673984">
      <rect class="st6" x="76.04" y="77.95" width="8.95" height="1.66"/>
      <path class="st4" d="M84.98,77.98h-8.94v1.59h8.94v-1.59h0ZM85.04,77.92v1.72h-9.06v-1.72h9.06Z"/>
      <rect class="st6" x="76.01" y="78.81" width="8.98" height=".23"/>
      <path class="st4" d="M76.04,78.84h8.94v.17h-8.94v-.17h0ZM75.98,78.78v.29h9.06v-.29h-9.06Z"/>
      <g>
        <rect class="st6" x="76.01" y="78.81" width=".23" height=".23"/>
        <path class="st4" d="M76.04,78.84h.17v.17h-.17v-.17h0ZM75.98,78.78v.29h.29v-.29h-.29Z"/>
      </g>
      <g>
        <rect class="st6" x="84.78" y="78.81" width=".23" height=".23"/>
        <path class="st4" d="M84.81,78.84h.17v.17h-.17v-.17h0ZM84.74,78.78v.29h.29v-.29h-.29Z"/>
      </g>
      <g>
        <rect class="st6" x="77.47" y="78.81" width=".23" height=".23"/>
        <path class="st4" d="M77.5,78.84h.17v.17h-.17v-.17h0ZM77.44,78.78v.29h.29v-.29h-.29Z"/>
      </g>
    </g>
    <g id="_1931714512048">
      <rect class="st6" x="88.18" y="77.95" width="8.95" height="1.66"/>
      <path class="st4" d="M97.12,77.98h-8.94v1.59h8.94v-1.59h0ZM97.18,77.92v1.72h-9.06v-1.72h9.06Z"/>
      <rect class="st6" x="88.15" y="78.81" width="8.98" height=".23"/>
      <path class="st4" d="M88.18,78.84h8.94v.17h-8.94v-.17h0ZM88.12,78.78v.29h9.06v-.29h-9.06Z"/>
      <g>
        <rect class="st6" x="88.15" y="78.81" width=".23" height=".23"/>
        <path class="st4" d="M88.18,78.84h.17v.17h-.17v-.17h0ZM88.12,78.78v.29h.29v-.29h-.29Z"/>
      </g>
      <g>
        <rect class="st6" x="96.92" y="78.81" width=".23" height=".23"/>
        <path class="st4" d="M96.95,78.84h.17v.17h-.17v-.17h0ZM96.89,78.78v.29h.29v-.29h-.29Z"/>
      </g>
      <g>
        <rect class="st6" x="89.62" y="78.81" width=".23" height=".23"/>
        <path class="st4" d="M89.65,78.84h.17v.17h-.17v-.17h0ZM89.59,78.78v.29h.29v-.29h-.29Z"/>
      </g>
    </g>
    <g id="_1933116838704">
      <rect class="st6" x=".04" y="57.67" width="1.66" height="7.68"/>
      <path class="st4" d="M1.66,65.3v-7.63H.07v7.63h1.59ZM1.72,65.36H0v-7.75h1.72v7.75h0Z"/>
      <rect class="st6" x=".6" y="57.64" width=".23" height="7.66"/>
      <path class="st4" d="M.8,57.67v7.63h-.17v-7.63h.17ZM.86,57.61h-.29v7.76h.29v-7.76h0Z"/>
      <g>
        <rect class="st6" x=".6" y="57.64" width=".23" height=".23"/>
        <path class="st4" d="M.8,57.67v.17h-.17v-.17h.17ZM.86,57.61h-.29v.29h.29v-.29h0Z"/>
      </g>
      <g>
        <rect class="st6" x=".6" y="65.1" width=".23" height=".23"/>
        <path class="st4" d="M.8,65.13v.17h-.17v-.17h.17ZM.86,65.07h-.29v.29h.29v-.29h0Z"/>
      </g>
      <g>
        <rect class="st6" x=".6" y="59.1" width=".23" height=".23"/>
        <path class="st4" d="M.8,59.13v.17h-.17v-.17h.17ZM.86,59.07h-.29v.29h.29v-.29h0Z"/>
      </g>
    </g>
    <g id="_1931367797712">
      <rect class="st6" x=".04" y="35.99" width="1.66" height="7.68"/>
      <path class="st4" d="M1.66,43.62v-7.63H.07v7.63h1.59ZM1.72,43.68H0v-7.76h1.72v7.76h0Z"/>
      <rect class="st6" x=".6" y="35.96" width=".23" height="7.66"/>
      <path class="st4" d="M.8,35.99v7.63h-.17v-7.63h.17ZM.86,35.93h-.29v7.76h.29v-7.76h0Z"/>
      <g>
        <rect class="st6" x=".6" y="35.96" width=".23" height=".23"/>
        <path class="st4" d="M.8,35.99v.17h-.17v-.17h.17ZM.86,35.93h-.29v.29h.29v-.29h0Z"/>
      </g>
      <g>
        <rect class="st6" x=".6" y="43.42" width=".23" height=".23"/>
        <path class="st4" d="M.8,43.45v.17h-.17v-.17h.17ZM.86,43.39h-.29v.29h.29v-.29h0Z"/>
      </g>
      <g>
        <rect class="st6" x=".6" y="37.42" width=".23" height=".23"/>
        <path class="st4" d="M.8,37.45v.17h-.17v-.17h.17ZM.86,37.39h-.29v.29h.29v-.29h0Z"/>
      </g>
    </g>
    <g id="_1931367755328">
      <rect class="st6" x=".04" y="68.77" width="1.66" height="7.68"/>
      <path class="st4" d="M1.66,76.4v-7.63H.07v7.63h1.59ZM1.72,76.46H0v-7.75h1.72v7.75h0Z"/>
      <rect class="st6" x=".6" y="68.74" width=".23" height="7.66"/>
      <path class="st4" d="M.8,68.77v7.63h-.17v-7.63h.17ZM.86,68.71h-.29v7.76h.29v-7.76h0Z"/>
      <g>
        <rect class="st6" x=".6" y="68.74" width=".23" height=".23"/>
        <path class="st4" d="M.8,68.77v.17h-.17v-.17h.17ZM.86,68.71h-.29v.29h.29v-.29h0Z"/>
      </g>
      <g>
        <rect class="st6" x=".6" y="76.2" width=".23" height=".23"/>
        <path class="st4" d="M.8,76.23v.17h-.17v-.17h.17ZM.86,76.17h-.29v.29h.29v-.29h0Z"/>
      </g>
      <g>
        <rect class="st6" x=".6" y="70.2" width=".23" height=".23"/>
        <path class="st4" d="M.8,70.23v.17h-.17v-.17h.17ZM.86,70.17h-.29v.29h.29v-.29h0Z"/>
      </g>
    </g>
    <g id="_1931367774480">
      <rect class="st6" x=".04" y="46.99" width="1.66" height="7.68"/>
      <path class="st4" d="M1.66,54.62v-7.63H.07v7.63h1.59ZM1.72,54.68H0v-7.75h1.72v7.75h0Z"/>
      <rect class="st6" x=".6" y="46.96" width=".23" height="7.66"/>
      <path class="st4" d="M.8,46.99v7.63h-.17v-7.63h.17ZM.86,46.92h-.29v7.76h.29v-7.76h0Z"/>
      <g>
        <rect class="st6" x=".6" y="46.96" width=".23" height=".23"/>
        <path class="st4" d="M.8,46.99v.17h-.17v-.17h.17ZM.86,46.92h-.29v.29h.29v-.29h0Z"/>
      </g>
      <g>
        <rect class="st6" x=".6" y="54.42" width=".23" height=".23"/>
        <path class="st4" d="M.8,54.45v.17h-.17v-.17h.17ZM.86,54.39h-.29v.29h.29v-.29h0Z"/>
      </g>
      <g>
        <rect class="st6" x=".6" y="48.42" width=".23" height=".23"/>
        <path class="st4" d="M.8,48.45v.17h-.17v-.17h.17ZM.86,48.39h-.29v.29h.29v-.29h0Z"/>
      </g>
    </g>
    <g id="_1933164907808">
      <g>
        <rect class="st6" x=".04" y="13.95" width="1.66" height="7.68"/>
        <path class="st4" d="M1.66,21.58v-7.63H.07v7.63h1.59ZM1.72,21.64H0v-7.75h1.72v7.75h0Z"/>
        <rect class="st6" x=".6" y="13.92" width=".23" height="7.66"/>
        <path class="st4" d="M.8,13.95v7.63h-.17v-7.63h.17ZM.86,13.88h-.29v7.76h.29v-7.76h0Z"/>
        <g>
          <rect class="st6" x=".6" y="13.92" width=".23" height=".23"/>
          <path class="st4" d="M.8,13.95v.17h-.17v-.17h.17ZM.86,13.88h-.29v.29h.29v-.29h0Z"/>
        </g>
        <g>
          <rect class="st6" x=".6" y="21.38" width=".23" height=".23"/>
          <path class="st4" d="M.8,21.41v.17h-.17v-.17h.17ZM.86,21.35h-.29v.29h.29v-.29h0Z"/>
        </g>
        <g>
          <rect class="st6" x=".6" y="15.38" width=".23" height=".23"/>
          <path class="st4" d="M.8,15.41v.17h-.17v-.17h.17ZM.86,15.35h-.29v.29h.29v-.29h0Z"/>
        </g>
      </g>
      <g>
        <rect class="st6" x=".04" y="25.1" width="1.66" height="7.68"/>
        <path class="st4" d="M1.66,32.73v-7.63H.07v7.63h1.59ZM1.72,32.79H0v-7.75h1.72v7.75h0Z"/>
        <rect class="st6" x=".6" y="25.07" width=".23" height="7.66"/>
        <path class="st4" d="M.8,25.1v7.63h-.17v-7.63h.17ZM.86,25.04h-.29v7.76h.29v-7.76h0Z"/>
        <g>
          <rect class="st6" x=".6" y="25.07" width=".23" height=".23"/>
          <path class="st4" d="M.8,25.1v.17h-.17v-.17h.17ZM.86,25.04h-.29v.29h.29v-.29h0Z"/>
        </g>
        <g>
          <rect class="st6" x=".6" y="32.53" width=".23" height=".23"/>
          <path class="st4" d="M.8,32.56v.17h-.17v-.17h.17ZM.86,32.5h-.29v.29h.29v-.29h0Z"/>
        </g>
        <g>
          <rect class="st6" x=".6" y="26.53" width=".23" height=".23"/>
          <path class="st4" d="M.8,26.56v.17h-.17v-.17h.17ZM.86,26.5h-.29v.29h.29v-.29h0Z"/>
        </g>
      </g>
      <g>
        <rect class="st6" x=".04" y="3.27" width="1.66" height="7.68"/>
        <path class="st4" d="M1.66,10.9V3.27H.07v7.63h1.59ZM1.72,10.96H0V3.2h1.72v7.75h0Z"/>
        <rect class="st6" x=".6" y="3.23" width=".23" height="7.66"/>
        <path class="st4" d="M.8,3.26v7.63h-.17V3.26h.17ZM.86,3.2h-.29v7.76h.29V3.2h0Z"/>
        <g>
          <rect class="st6" x=".6" y="3.23" width=".23" height=".23"/>
          <path class="st4" d="M.8,3.26v.17h-.17v-.17h.17ZM.86,3.2h-.29v.29h.29v-.29h0Z"/>
        </g>
        <g>
          <rect class="st6" x=".6" y="10.69" width=".23" height=".23"/>
          <path class="st4" d="M.8,10.73v.17h-.17v-.17h.17ZM.86,10.66h-.29v.29h.29v-.29h0Z"/>
        </g>
        <g>
          <rect class="st6" x=".6" y="4.7" width=".23" height=".23"/>
          <path class="st4" d="M.8,4.73v.17h-.17v-.17h.17ZM.86,4.67h-.29v.29h.29v-.29h0Z"/>
        </g>
      </g>
    </g>
    <g id="_1933164869888">
      <g>
        <rect class="st6" x="98.31" y="3.2" width="1.66" height="9.54"/>
        <path class="st4" d="M98.34,3.23v9.51h1.59V3.23h-1.59ZM98.27,3.16h1.72v9.64h-1.72V3.16h0Z"/>
        <rect class="st6" x="99.17" y="3.16" width=".23" height="9.61"/>
        <path class="st4" d="M99.2,12.74V3.23h.17v9.51h-.17ZM99.13,12.8h.29V3.16h-.29v9.64h0Z"/>
        <g>
          <rect class="st6" x="99.17" y="12.54" width=".23" height=".23"/>
          <path class="st4" d="M99.2,12.74v-.17h.17v.17h-.17ZM99.13,12.8h.29v-.29h-.29v.29h0Z"/>
        </g>
        <g>
          <rect class="st6" x="99.17" y="3.2" width=".23" height=".23"/>
          <path class="st4" d="M99.2,3.39v-.17h.17v.17h-.17ZM99.13,3.46h.29v-.29h-.29v.29h0Z"/>
        </g>
        <g>
          <rect class="st6" x="99.17" y="11.07" width=".23" height=".23"/>
          <path class="st4" d="M99.2,11.27v-.17h.17v.17h-.17ZM99.13,11.34h.29v-.29h-.29v.29h0Z"/>
        </g>
      </g>
      <g>
        <rect class="st6" x="98.31" y="15.92" width="1.66" height="9.54"/>
        <path class="st4" d="M98.34,15.95v9.51h1.59v-9.51s-1.59,0-1.59,0ZM98.27,15.89h1.72v9.64h-1.72v-9.64h0Z"/>
        <rect class="st6" x="99.17" y="15.89" width=".23" height="9.61"/>
        <path class="st4" d="M99.2,25.46v-9.51h.17v9.51h-.17ZM99.13,25.52h.29v-9.64h-.29v9.64h0Z"/>
        <g>
          <rect class="st6" x="99.17" y="25.26" width=".23" height=".23"/>
          <path class="st4" d="M99.2,25.46v-.17h.17v.17h-.17ZM99.13,25.52h.29v-.29h-.29v.29h0Z"/>
        </g>
        <g>
          <rect class="st6" x="99.17" y="15.92" width=".23" height=".23"/>
          <path class="st4" d="M99.2,16.12v-.17h.17v.17h-.17ZM99.13,16.18h.29v-.29h-.29v.29h0Z"/>
        </g>
        <g>
          <rect class="st6" x="99.17" y="23.8" width=".23" height=".23"/>
          <path class="st4" d="M99.2,24v-.17h.17v.17h-.17ZM99.13,24.06h.29v-.29h-.29v.29h0Z"/>
        </g>
      </g>
      <g>
        <rect class="st6" x="98.31" y="28.64" width="1.66" height="9.54"/>
        <path class="st4" d="M98.34,28.67v9.51h1.59v-9.51h-1.59ZM98.27,28.61h1.72v9.64h-1.72v-9.64h0Z"/>
        <rect class="st6" x="99.17" y="28.61" width=".23" height="9.61"/>
        <path class="st4" d="M99.2,38.18v-9.51h.17v9.51h-.17ZM99.13,38.25h.29v-9.64h-.29v9.64h0Z"/>
        <g>
          <rect class="st6" x="99.17" y="37.98" width=".23" height=".23"/>
          <path class="st4" d="M99.2,38.18v-.17h.17v.17h-.17ZM99.13,38.25h.29v-.29h-.29v.29h0Z"/>
        </g>
        <g>
          <rect class="st6" x="99.17" y="28.64" width=".23" height=".23"/>
          <path class="st4" d="M99.2,28.84v-.17h.17v.17h-.17ZM99.13,28.9h.29v-.29h-.29v.29h0Z"/>
        </g>
        <g>
          <rect class="st6" x="99.17" y="36.52" width=".23" height=".23"/>
          <path class="st4" d="M99.2,36.72v-.17h.17v.17h-.17ZM99.13,36.78h.29v-.29h-.29v.29h0Z"/>
        </g>
      </g>
      <g>
        <rect class="st6" x="98.31" y="41.42" width="1.66" height="9.54"/>
        <path class="st4" d="M98.34,41.45v9.51h1.59v-9.51h-1.59ZM98.27,41.38h1.72v9.64h-1.72v-9.64h0Z"/>
        <rect class="st6" x="99.17" y="41.38" width=".23" height="9.61"/>
        <path class="st4" d="M99.2,50.96v-9.51h.17v9.51h-.17ZM99.14,51.02h.29v-9.64h-.29v9.64h0Z"/>
        <g>
          <rect class="st6" x="99.17" y="50.76" width=".23" height=".23"/>
          <path class="st4" d="M99.2,50.96v-.17h.17v.17h-.17ZM99.14,51.02h.29v-.29h-.29v.29h0Z"/>
        </g>
        <g>
          <rect class="st6" x="99.17" y="41.42" width=".23" height=".23"/>
          <path class="st4" d="M99.2,41.62v-.17h.17v.17h-.17ZM99.14,41.68h.29v-.29h-.29v.29h0Z"/>
        </g>
        <g>
          <rect class="st6" x="99.17" y="49.29" width=".23" height=".23"/>
          <path class="st4" d="M99.2,49.49v-.17h.17v.17h-.17ZM99.14,49.56h.29v-.29h-.29v.29h0Z"/>
        </g>
      </g>
      <g>
        <rect class="st6" x="98.31" y="54.14" width="1.66" height="9.54"/>
        <path class="st4" d="M98.34,54.17v9.51h1.59v-9.51h-1.59ZM98.28,54.11h1.72v9.64h-1.72v-9.64h0Z"/>
        <rect class="st6" x="99.17" y="54.11" width=".23" height="9.61"/>
        <path class="st4" d="M99.2,63.68v-9.51h.17v9.51h-.17ZM99.14,63.74h.29v-9.64h-.29v9.64h0Z"/>
        <g>
          <rect class="st6" x="99.17" y="63.48" width=".23" height=".23"/>
          <path class="st4" d="M99.2,63.68v-.17h.17v.17h-.17ZM99.14,63.74h.29v-.29h-.29v.29h0Z"/>
        </g>
        <g>
          <rect class="st6" x="99.17" y="54.14" width=".23" height=".23"/>
          <path class="st4" d="M99.2,54.34v-.17h.17v.17h-.17ZM99.14,54.4h.29v-.29h-.29v.29h0Z"/>
        </g>
        <g>
          <rect class="st6" x="99.17" y="62.02" width=".23" height=".23"/>
          <path class="st4" d="M99.2,62.22v-.17h.17v.17h-.17ZM99.14,62.28h.29v-.29h-.29v.29h0Z"/>
        </g>
      </g>
      <g>
        <rect class="st6" x="98.31" y="66.86" width="1.66" height="9.54"/>
        <path class="st4" d="M98.34,66.89v9.51h1.59v-9.51h-1.59ZM98.28,66.83h1.72v9.64h-1.72v-9.64h0Z"/>
        <rect class="st6" x="99.17" y="66.83" width=".23" height="9.61"/>
        <path class="st4" d="M99.2,76.4v-9.51h.17v9.51h-.17ZM99.14,76.47h.29v-9.64h-.29v9.64h0Z"/>
        <g>
          <rect class="st6" x="99.17" y="76.2" width=".23" height=".23"/>
          <path class="st4" d="M99.2,76.4v-.17h.17v.17h-.17ZM99.14,76.47h.29v-.29h-.29v.29h0Z"/>
        </g>
        <g>
          <rect class="st6" x="99.17" y="66.86" width=".23" height=".23"/>
          <path class="st4" d="M99.2,67.06v-.17h.17v.17h-.17ZM99.14,67.12h.29v-.29h-.29v.29h0Z"/>
        </g>
        <g>
          <rect class="st6" x="99.17" y="74.74" width=".23" height=".23"/>
          <path class="st4" d="M99.2,74.94v-.17h.17v.17h-.17ZM99.14,75h.29v-.29h-.29v.29h0Z"/>
        </g>
      </g>
    </g>
    <g id="_1932117509984">
      <path class="st4" d="M21.08,35.09h.27c1.09,0,1.97-.34,2.58-.95.61-.61.95-1.49.95-2.58v-.31h.05v.31c0,1.1-.35,1.99-.97,2.61-.62.62-1.52.96-2.62.96h-.27v-.05h0Z"/>
      <polygon class="st4" points="21.18 31.25 21.18 35.12 21.04 35.12 21.04 31.25 21.18 31.25"/>
      <path class="st4" d="M21.02,31.62h-.19v-.37h.21v.37h-.03ZM20.89,31.57h.11v-.26h-.11v.26Z"/>
      <path class="st4" d="M25.12,31.62h-.19v-.37h.21v.37h-.03,0ZM24.99,31.57h.11v-.26h-.11v.26Z"/>
    </g>
    <polygon class="st4" points="71.72 30.17 74.71 30.17 74.71 30.96 71.72 30.96 71.72 30.17"/>
    <polygon class="st4" points="64.75 30.17 66.98 30.17 66.98 30.96 64.75 30.96 64.75 30.17"/>
    <g id="_1932117528464">
      <rect class="st6" x="2.69" y=".03" width="8.95" height="1.66"/>
      <path class="st4" d="M11.63,1.66H2.69V.06h8.94v1.59h0ZM11.69,1.72V0H2.63v1.72h9.06Z"/>
      <rect class="st6" x="2.66" y=".6" width="8.98" height=".23"/>
      <path class="st4" d="M2.69.8h8.94v-.17H2.69v.17h0ZM2.63.86v-.29h9.06v.29H2.63Z"/>
      <g>
        <rect class="st6" x="2.66" y=".6" width=".23" height=".23"/>
        <path class="st4" d="M2.69.8h.17v-.17h-.17v.17h0ZM2.63.86v-.29h.29v.29h-.29Z"/>
      </g>
      <g>
        <rect class="st6" x="11.43" y=".6" width=".23" height=".23"/>
        <path class="st4" d="M11.46.8h.17v-.17h-.17v.17h0ZM11.4.86v-.29h.29v.29h-.29Z"/>
      </g>
      <g>
        <rect class="st6" x="4.13" y=".6" width=".23" height=".23"/>
        <path class="st4" d="M4.16.8h.17v-.17h-.17v.17h0ZM4.1.86v-.29h.29v.29h-.29Z"/>
      </g>
    </g>
    <g id="_1932117469856">
      <rect class="st6" x="15.05" y=".03" width="8.95" height="1.66"/>
      <path class="st4" d="M23.99,1.66h-8.94V.06h8.94v1.59h0ZM24.05,1.72V0h-9.06v1.72h9.06Z"/>
      <rect class="st6" x="15.02" y=".6" width="8.98" height=".23"/>
      <path class="st4" d="M15.05.8h8.94v-.17h-8.94v.17h0ZM14.99.86v-.29h9.06v.29h-9.06Z"/>
      <g>
        <rect class="st6" x="15.02" y=".6" width=".23" height=".23"/>
        <path class="st4" d="M15.05.8h.17v-.17h-.17v.17h0ZM14.99.86v-.29h.29v.29h-.29Z"/>
      </g>
      <g>
        <rect class="st6" x="23.79" y=".6" width=".23" height=".23"/>
        <path class="st4" d="M23.82.8h.17v-.17h-.17v.17h0ZM23.75.86v-.29h.29v.29h-.29Z"/>
      </g>
      <g>
        <rect class="st6" x="16.48" y=".6" width=".23" height=".23"/>
        <path class="st4" d="M16.51.8h.17v-.17h-.17v.17h0ZM16.45.86v-.29h.29v.29h-.29Z"/>
      </g>
    </g>
    <g id="_1932117478160">
      <rect class="st6" x="27.25" y=".03" width="8.95" height="1.66"/>
      <path class="st4" d="M36.18,1.66h-8.94V.06h8.94v1.59h0ZM36.25,1.72V0h-9.06v1.72h9.06Z"/>
      <rect class="st6" x="27.22" y=".6" width="8.98" height=".23"/>
      <path class="st4" d="M27.25.8h8.94v-.17h-8.94v.17h0ZM27.18.86v-.29h9.06v.29h-9.06Z"/>
      <g>
        <rect class="st6" x="27.22" y=".6" width=".23" height=".23"/>
        <path class="st4" d="M27.25.8h.17v-.17h-.17v.17h0ZM27.18.86v-.29h.29v.29h-.29Z"/>
      </g>
      <g>
        <rect class="st6" x="35.98" y=".6" width=".23" height=".23"/>
        <path class="st4" d="M36.01.8h.17v-.17h-.17v.17h0ZM35.95.86v-.29h.29v.29h-.29Z"/>
      </g>
      <g>
        <rect class="st6" x="28.68" y=".6" width=".23" height=".23"/>
        <path class="st4" d="M28.71.8h.17v-.17h-.17v.17h0ZM28.65.86v-.29h.29v.29h-.29Z"/>
      </g>
    </g>
    <g id="_1932117488336">
      <rect class="st6" x="39.39" y=".03" width="8.95" height="1.66"/>
      <path class="st4" d="M48.33,1.66h-8.94V.06h8.94v1.59h0ZM48.39,1.72V0h-9.06v1.72h9.06Z"/>
      <rect class="st6" x="39.36" y=".6" width="8.98" height=".23"/>
      <path class="st4" d="M39.39.8h8.94v-.17h-8.94v.17h0ZM39.33.86v-.29h9.06v.29h-9.06Z"/>
      <g>
        <rect class="st6" x="39.36" y=".6" width=".23" height=".23"/>
        <path class="st4" d="M39.39.8h.17v-.17h-.17v.17h0ZM39.33.86v-.29h.29v.29h-.29Z"/>
      </g>
      <g>
        <rect class="st6" x="48.13" y=".6" width=".23" height=".23"/>
        <path class="st4" d="M48.16.8h.17v-.17h-.17v.17h0ZM48.1.86v-.29h.29v.29h-.29Z"/>
      </g>
      <g>
        <rect class="st6" x="40.82" y=".6" width=".23" height=".23"/>
        <path class="st4" d="M40.86.8h.17v-.17h-.17v.17h0ZM40.79.86v-.29h.29v.29h-.29Z"/>
      </g>
    </g>
    <g id="_1932117492224">
      <rect class="st6" x="51.64" y=".03" width="8.95" height="1.66"/>
      <path class="st4" d="M60.58,1.66h-8.94V.06h8.94v1.59h0ZM60.64,1.72V0h-9.06v1.72h9.06Z"/>
      <rect class="st6" x="51.61" y=".6" width="8.98" height=".23"/>
      <path class="st4" d="M51.64.8h8.94v-.17h-8.94v.17h0ZM51.58.86v-.29h9.06v.29h-9.06Z"/>
      <g>
        <rect class="st6" x="51.61" y=".6" width=".23" height=".23"/>
        <path class="st4" d="M51.64.8h.17v-.17h-.17v.17h0ZM51.58.86v-.29h.29v.29h-.29Z"/>
      </g>
      <g>
        <rect class="st6" x="60.38" y=".6" width=".23" height=".23"/>
        <path class="st4" d="M60.41.8h.17v-.17h-.17v.17h0ZM60.35.86v-.29h.29v.29h-.29Z"/>
      </g>
      <g>
        <rect class="st6" x="53.07" y=".6" width=".23" height=".23"/>
        <path class="st4" d="M53.11.8h.17v-.17h-.17v.17h0ZM53.04.86v-.29h.29v.29h-.29Z"/>
      </g>
    </g>
    <g id="_1895046384400">
      <rect class="st6" x="63.84" y=".03" width="8.95" height="1.66"/>
      <path class="st4" d="M72.78,1.66h-8.94V.06h8.94v1.59h0ZM72.84,1.72V0h-9.06v1.72h9.06Z"/>
      <rect class="st6" x="63.81" y=".6" width="8.98" height=".23"/>
      <path class="st4" d="M63.84.8h8.94v-.17h-8.94v.17h0ZM63.78.86v-.29h9.06v.29h-9.06Z"/>
      <g>
        <rect class="st6" x="63.81" y=".6" width=".23" height=".23"/>
        <path class="st4" d="M63.84.8h.17v-.17h-.17v.17h0ZM63.78.86v-.29h.29v.29h-.29Z"/>
      </g>
      <g>
        <rect class="st6" x="72.58" y=".6" width=".23" height=".23"/>
        <path class="st4" d="M72.61.8h.17v-.17h-.17v.17h0ZM72.55.86v-.29h.29v.29h-.29Z"/>
      </g>
      <g>
        <rect class="st6" x="65.27" y=".6" width=".23" height=".23"/>
        <path class="st4" d="M65.3.8h.17v-.17h-.17v.17h0ZM65.24.86v-.29h.29v.29h-.29Z"/>
      </g>
    </g>
    <g id="_1895046399424">
      <rect class="st6" x="76.04" y=".03" width="8.95" height="1.66"/>
      <path class="st4" d="M84.98,1.66h-8.94V.06h8.94v1.59h0ZM85.04,1.72V0h-9.06v1.72h9.06Z"/>
      <rect class="st6" x="76.01" y=".6" width="8.98" height=".23"/>
      <path class="st4" d="M76.04.8h8.94v-.17h-8.94v.17h0ZM75.98.86v-.29h9.06v.29h-9.06Z"/>
      <g>
        <rect class="st6" x="76.01" y=".6" width=".23" height=".23"/>
        <path class="st4" d="M76.04.8h.17v-.17h-.17v.17h0ZM75.98.86v-.29h.29v.29h-.29Z"/>
      </g>
      <g>
        <rect class="st6" x="84.78" y=".6" width=".23" height=".23"/>
        <path class="st4" d="M84.81.8h.17v-.17h-.17v.17h0ZM84.74.86v-.29h.29v.29h-.29Z"/>
      </g>
      <g>
        <rect class="st6" x="77.47" y=".6" width=".23" height=".23"/>
        <path class="st4" d="M77.5.8h.17v-.17h-.17v.17h0ZM77.44.86v-.29h.29v.29h-.29Z"/>
      </g>
    </g>
    <g id="_1895046415792">
      <rect class="st6" x="88.18" y=".03" width="8.95" height="1.66"/>
      <path class="st4" d="M97.12,1.66h-8.94V.06h8.94v1.59h0ZM97.18,1.72V0h-9.06v1.72h9.06Z"/>
      <rect class="st6" x="88.15" y=".6" width="8.98" height=".23"/>
      <path class="st4" d="M88.18.8h8.94v-.17h-8.94v.17h0ZM88.12.86v-.29h9.06v.29h-9.06Z"/>
      <g>
        <rect class="st6" x="88.15" y=".6" width=".23" height=".23"/>
        <path class="st4" d="M88.18.8h.17v-.17h-.17v.17h0ZM88.12.86v-.29h.29v.29h-.29Z"/>
      </g>
      <g>
        <rect class="st6" x="96.92" y=".6" width=".23" height=".23"/>
        <path class="st4" d="M96.95.8h.17v-.17h-.17v.17h0ZM96.89.86v-.29h.29v.29h-.29Z"/>
      </g>
      <g>
        <rect class="st6" x="89.62" y=".6" width=".23" height=".23"/>
        <path class="st4" d="M89.65.8h.17v-.17h-.17v.17h0ZM89.59.86v-.29h.29v.29h-.29Z"/>
      </g>
    </g>
    <polygon class="st4" points="23.99 24.97 23.99 22.96 23.63 22.96 23.63 24.97 23.99 24.97"/>
    <polygon class="st4" points="27.36 24.97 27.36 22.96 26.99 22.96 26.99 24.97 27.36 24.97"/>
    <polygon class="st4" points="27.36 22.96 23.63 22.96 23.63 23.32 27.36 23.32 27.36 22.96"/>
    <polygon class="st4" points="25.15 22.96 25.15 15.6 25.52 15.6 25.52 22.96 25.15 22.96"/>
    <polygon class="st4" points="20.36 24.97 30.48 24.97 30.48 24.6 20.36 24.6 20.36 24.97"/>
    <polygon class="st4" points="20.36 19.58 20.36 24.97 20.73 24.97 20.73 19.58 20.36 19.58"/>
    <polygon class="st4" points="30.48 15.52 30.48 24.97 30.84 24.97 30.84 15.52 30.48 15.52"/>
    <polygon class="st4" points="78.85 63.27 82.5 63.27 82.5 63.64 78.85 63.64 78.85 63.27"/>
    <polygon class="st4" points="79.22 55.46 79.22 63.57 78.85 63.57 78.85 55.46 79.22 55.46"/>
    <polygon class="st4" points="20.36 15.52 25.64 15.52 25.64 15.89 20.36 15.89 20.36 15.52"/>
    <polygon class="st4" points="82.5 55.49 82.5 59.27 82.14 59.27 82.14 55.49 82.5 55.49"/>
    <polygon class="st4" points="82.5 62.96 82.5 63.54 82.14 63.54 82.14 62.96 82.5 62.96"/>
    <polygon class="st4" points="89.06 35.76 89.06 30.17 89.43 30.17 89.43 35.76 89.06 35.76"/>
    <polygon class="st4" points="81.31 30.17 89.43 30.17 89.43 30.54 81.31 30.54 81.31 30.17"/>
    <polygon class="st4" points="29.33 15.52 30.84 15.52 30.84 15.89 29.33 15.89 29.33 15.52"/>
    <polygon class="st4" points="81.79 34.57 85.37 34.57 85.37 34.94 81.79 34.94 81.79 34.57"/>
    <g id="_1933197024128">
      <path class="st4" d="M84.66,32.46s-.03,0-.03,0h-1.08v1.2h1.08s.02,0,.03,0c.32,0,.58-.27.58-.6s-.26-.6-.58-.6h0ZM84.66,32.39c.36,0,.66.3.66.68s-.29.68-.66.68c-.01,0-.03,0-.03,0h-1.15v-1.35h1.15s.02,0,.03,0h0Z"/>
      <path class="st4" d="M83.37,32.61v.91h.08v-.91h-.08ZM83.3,32.54h.22v1.05h-.22v-1.05h0Z"/>
    </g>
    <g id="_1933077311616">
      <path class="st4" d="M79.97,56.84s0-.03,0-.03v-1.08h1.2v1.08s0,.02,0,.03c0,.32-.27.58-.6.58s-.6-.26-.6-.58h0ZM79.9,56.84c0,.36.3.66.68.66s.68-.29.68-.66c0-.01,0-.03,0-.03v-1.15h-1.35v1.15s0,.02,0,.03h0Z"/>
      <path class="st4" d="M80.12,55.56h.91v.08h-.91v-.08h0ZM80.05,55.49v.22h1.05v-.22h-1.05Z"/>
    </g>
    <g id="_1933077310512">
      <path class="st4" d="M23.8,21.1s.03,0,.03,0h1.08v1.2h-1.08s-.02,0-.03,0c-.32,0-.58-.27-.58-.6s.26-.6.58-.6h0ZM23.8,21.03c-.36,0-.66.3-.66.68s.29.68.66.68c.01,0,.03,0,.03,0h1.15v-1.35h-1.15s-.02,0-.03,0h0Z"/>
      <path class="st4" d="M25.08,21.25v.91h-.08v-.91h.08ZM25.15,21.18h-.22v1.05h.22v-1.05h0Z"/>
    </g>
    <g id="_1933077309744">
      <path class="st4" d="M84.16,35.83v1.8h-1.61v-1.8h1.61ZM84.22,35.77h-1.72v1.92h1.72v-1.92h0Z"/>
      <g>
        <path class="st4" d="M83.97,36.08s.08.03.08.08v1.15s-.03.08-.08.08h-.61s-.08-.03-.08-.08v-1.15s.03-.08.08-.08h.61ZM83.97,36.02h-.61c-.07,0-.13.06-.13.13v1.15c0,.07.06.13.13.13h.61c.07,0,.13-.06.13-.13v-1.15c0-.07-.06-.13-.13-.13h0Z"/>
        <g>
          <g>
            <path class="st4" d="M83.14,36.6s.05-.02.05-.05-.02-.05-.05-.05-.05.02-.05.05.02.05.05.05Z"/>
            <path class="st4" d="M83.14,36.95s.05-.02.05-.05-.02-.05-.05-.05-.05.02-.05.05.02.05.05.05Z"/>
          </g>
          <line class="st2" x1="83.1" y1="36.73" x2="83.42" y2="36.73"/>
        </g>
      </g>
      <g>
        <path class="st4" d="M82.69,35.92v.11h-.14v-.11h.14ZM82.75,35.87h-.25v.23h.25v-.23h0Z"/>
        <path class="st4" d="M82.69,37.42v.11h-.14v-.11h.14ZM82.75,37.36h-.25v.23h.25v-.23h0Z"/>
        <line class="st1" x1="82.62" y1="36.09" x2="82.62" y2="37.36"/>
      </g>
    </g>
    <g id="_1933077317760">
      <path class="st4" d="M80.88,59.66v1.8h-1.61v-1.8h1.61ZM80.94,59.6h-1.72v1.92h1.72v-1.92h0Z"/>
      <g>
        <path class="st4" d="M80.7,59.91s.08.03.08.08v1.15s-.03.08-.08.08h-.61s-.08-.03-.08-.08v-1.15s.03-.08.08-.08h.61ZM80.7,59.85h-.61c-.07,0-.13.06-.13.13v1.15c0,.07.06.13.13.13h.61c.07,0,.13-.06.13-.13v-1.15c0-.07-.06-.13-.13-.13h0Z"/>
        <g>
          <g>
            <path class="st4" d="M79.86,60.43s.05-.02.05-.05-.02-.05-.05-.05-.05.02-.05.05.02.05.05.05Z"/>
            <path class="st4" d="M79.86,60.78s.05-.02.05-.05-.02-.05-.05-.05-.05.02-.05.05.02.05.05.05Z"/>
          </g>
          <line class="st2" x1="79.83" y1="60.56" x2="80.14" y2="60.56"/>
        </g>
      </g>
      <g>
        <path class="st4" d="M79.41,59.76v.11h-.14v-.11h.14ZM79.47,59.7h-.25v.23h.25v-.23h0Z"/>
        <path class="st4" d="M79.41,61.25v.11h-.14v-.11h.14ZM79.47,61.19h-.25v.23h.25v-.23h0Z"/>
        <line class="st1" x1="79.35" y1="59.92" x2="79.35" y2="61.19"/>
      </g>
    </g>
    <g id="_1933077318336">
      <path class="st4" d="M25.09,18.26v1.8h-1.61v-1.8h1.61ZM25.15,18.2h-1.72v1.92h1.72v-1.92h0Z"/>
      <g>
        <path class="st4" d="M24.91,18.51s.08.03.08.08v1.15s-.03.08-.08.08h-.61s-.08-.03-.08-.08v-1.15s.03-.08.08-.08h.61ZM24.91,18.45h-.61c-.07,0-.13.06-.13.13v1.15c0,.07.06.13.13.13h.61c.07,0,.13-.06.13-.13v-1.15c0-.07-.06-.13-.13-.13h0Z"/>
        <g>
          <g>
            <path class="st4" d="M24.07,19.03s.05-.02.05-.05-.02-.05-.05-.05-.05.02-.05.05.02.05.05.05Z"/>
            <path class="st4" d="M24.07,19.38s.05-.02.05-.05-.02-.05-.05-.05-.05.02-.05.05.02.05.05.05Z"/>
          </g>
          <line class="st2" x1="24.04" y1="19.16" x2="24.35" y2="19.16"/>
        </g>
      </g>
      <g>
        <path class="st4" d="M23.62,18.35v.11h-.14v-.11h.14ZM23.68,18.3h-.25v.23h.25v-.23h0Z"/>
        <path class="st4" d="M23.62,19.85v.11h-.14v-.11h.14ZM23.68,19.79h-.25v.23h.25v-.23h0Z"/>
        <line class="st1" x1="23.56" y1="18.52" x2="23.56" y2="19.79"/>
      </g>
    </g>
    <g id="_1933077253488">
      <path d="M75.77,57.01h1.89c.12,0,.23.05.31.13s.13.19.13.31v1.93c0,.12-.05.23-.13.31s-.19.13-.31.13h-1.89c-.12,0-.23-.05-.31-.13s-.13-.19-.13-.31v-1.93c0-.12.05-.23.13-.31s.19-.13.31-.13ZM77.66,56.99h-1.89c-.13,0-.24.05-.33.14-.08.08-.14.2-.14.33v1.93c0,.13.05.24.14.33.08.08.2.14.33.14h1.89c.13,0,.24-.05.33-.14.08-.08.14-.2.14-.33v-1.93c0-.13-.05-.24-.14-.33-.08-.08-.2-.14-.33-.14Z"/>
      <path d="M75.84,57.11h1.76c.11,0,.21.05.29.12.07.07.12.17.12.29v1.79c0,.11-.05.21-.12.29s-.17.12-.29.12h-1.76c-.11,0-.21-.05-.29-.12s-.12-.17-.12-.29v-1.79c0-.11.05-.21.12-.29.07-.07.17-.12.29-.12ZM77.6,57.09h-1.76c-.12,0-.23.05-.3.13s-.13.19-.13.3v1.79c0,.12.05.23.13.3.08.08.19.13.3.13h1.76c.12,0,.23-.05.3-.13.08-.08.13-.19.13-.3v-1.79c0-.12-.05-.23-.13-.3s-.19-.13-.3-.13Z"/>
      <path d="M75.21,56.89h3.01v3.04h-3.01s0-3.04,0-3.04ZM78.25,56.84h-3.09v3.15h3.11v-3.15h-.03Z"/>
      <path d="M75.76,57.34s.05.01.07.03c.02.02.03.04.03.07s-.01.05-.03.07c-.02.02-.04.03-.07.03s-.05-.01-.07-.03c-.02-.02-.03-.04-.03-.07s.01-.05.03-.07c.02-.02.04-.03.07-.03ZM75.85,57.35s-.05-.04-.09-.04-.07.01-.09.04c-.02.02-.04.05-.04.09s.01.07.04.09c.02.02.05.04.09.04s.07-.01.09-.04.04-.05.04-.09-.01-.07-.04-.09Z"/>
    </g>
    <g id="_1933077274080">
      <path d="M27.97,24.42h1.89c.12,0,.23-.05.31-.13.08-.08.13-.19.13-.31v-1.92c0-.12-.05-.23-.13-.31-.08-.08-.19-.13-.31-.13h-1.89c-.12,0-.23.05-.31.13-.08.08-.13.19-.13.31v1.92c0,.12.05.23.13.31s.19.13.31.13ZM29.86,24.45h-1.89c-.13,0-.24-.05-.33-.14-.08-.08-.14-.2-.14-.33v-1.92c0-.13.05-.24.14-.33.08-.08.2-.14.33-.14h1.89c.13,0,.24.05.33.14.08.08.14.2.14.33v1.92c0,.13-.05.24-.14.33s-.2.14-.33.14Z"/>
      <path d="M28.03,24.32h1.76c.11,0,.21-.05.29-.12s.12-.17.12-.29v-1.79c0-.11-.05-.21-.12-.29-.07-.07-.17-.12-.29-.12h-1.76c-.11,0-.21.05-.29.12-.07.07-.12.17-.12.29v1.79c0,.11.05.21.12.29s.17.12.29.12ZM29.79,24.35h-1.76c-.12,0-.23-.05-.3-.13-.08-.08-.13-.19-.13-.3v-1.79c0-.12.05-.23.13-.3.08-.08.19-.13.3-.13h1.76c.12,0,.23.05.3.13s.13.19.13.3v1.79c0,.12-.05.23-.13.3s-.19.13-.3.13Z"/>
      <path d="M27.41,24.55h3.01v-3.04h-3.01v3.04ZM30.44,24.6h-3.09v-3.15h3.11v3.15h-.03Z"/>
      <path d="M27.95,24.1s.05-.01.07-.03c.02-.02.03-.04.03-.07s-.01-.05-.03-.07c-.02-.02-.04-.03-.07-.03s-.05.01-.07.03c-.02.02-.03.04-.03.07s.01.05.03.07.04.03.07.03ZM28.04,24.08s-.05.04-.09.04-.07-.01-.09-.04-.04-.05-.04-.09.01-.07.04-.09.05-.04.09-.04.07.01.09.04c.02.02.04.05.04.09s-.01.07-.04.09Z"/>
    </g>
    <path d="M81.97,61.88v.15h-.57c0-.06.01-.13.05-.21.03-.08.09-.17.17-.28.1-.12.16-.22.19-.29.03-.07.05-.13.05-.19,0-.07-.02-.12-.05-.17-.03-.04-.07-.06-.12-.06-.05,0-.09.02-.12.07-.03.05-.05.11-.05.2l-.11-.02c0-.13.04-.22.08-.29s.11-.1.19-.1c.09,0,.15.04.2.11s.07.16.07.25c0,.08-.02.16-.05.24-.03.08-.1.18-.2.31-.06.08-.1.14-.12.17-.02.03-.03.06-.04.09h.42Z"/>
    <path id="_1_21" d="M82.14,62.03v-.18h.12v.18c0,.07,0,.13-.02.17-.02.04-.04.07-.07.09l-.03-.07s.04-.04.05-.06c.01-.03.02-.07.02-.13h-.06Z"/>
    <path id="_2_22" d="M83.07,61.38c0-.22.02-.39.07-.5.05-.11.12-.17.21-.17.08,0,.15.05.19.14.06.11.08.29.08.54,0,.22-.02.39-.07.5-.05.11-.12.17-.21.17-.08,0-.15-.05-.2-.15-.05-.1-.08-.28-.08-.52h0ZM83.18,61.38c0,.21.02.36.05.43.03.07.07.11.12.11.05,0,.09-.04.12-.11.03-.07.05-.22.05-.43s-.02-.36-.05-.43-.07-.11-.13-.11c-.05,0-.09.04-.12.11-.03.07-.05.22-.05.43Z"/>
    <path id="_3_23" d="M82.42,61.73h.1c.02.13.06.2.14.2.03,0,.07-.02.1-.05.03-.03.05-.08.07-.16.02-.08.03-.17.03-.27v-.03c-.02.05-.05.1-.09.13s-.07.05-.11.05c-.07,0-.13-.04-.18-.12-.05-.08-.08-.18-.08-.32s.03-.25.08-.33c.05-.08.12-.12.19-.12.05,0,.1.02.15.07.05.04.08.11.11.2.02.09.04.21.04.37,0,.18-.01.32-.04.42s-.06.17-.11.22-.1.07-.16.07c-.06,0-.12-.03-.16-.08-.04-.06-.07-.14-.08-.24h0ZM82.85,61.14c0-.09-.02-.17-.05-.22-.03-.05-.07-.08-.12-.08s-.08.03-.12.09c-.03.06-.05.13-.05.23,0,.09.02.16.05.21s.07.08.12.08.09-.03.12-.08c.03-.05.05-.13.05-.22h0Z"/>
    <path d="M76.43,63.44v.15h-.57c0-.06.01-.13.05-.21.03-.08.09-.17.17-.28.1-.12.16-.22.19-.29.03-.07.05-.13.05-.19,0-.07-.02-.12-.05-.16-.03-.04-.07-.06-.12-.06-.05,0-.09.02-.12.07-.03.05-.05.11-.05.2l-.11-.02c0-.13.04-.22.08-.29.05-.06.11-.1.19-.1.09,0,.15.04.2.11.04.07.07.16.07.25,0,.08-.02.16-.05.24-.03.08-.1.18-.2.31-.06.08-.1.14-.12.17-.02.03-.03.06-.04.09h.42Z"/>
    <path id="_1_24" d="M76.6,63.59v-.18h.12v.18c0,.07,0,.13-.03.17-.02.04-.04.07-.07.09l-.03-.07s.04-.04.05-.06c.01-.03.02-.07.02-.13h-.06Z"/>
    <path id="_2_25" d="M77.54,62.94c0-.22.02-.39.07-.5.05-.11.12-.17.21-.17.08,0,.15.05.19.14.06.11.08.29.08.54,0,.22-.02.39-.07.5-.05.11-.12.17-.21.17-.08,0-.15-.05-.2-.15s-.08-.28-.08-.52ZM77.65,62.94c0,.21.02.36.05.43.03.07.07.11.12.11.05,0,.09-.04.12-.11s.05-.22.05-.43-.02-.36-.05-.43c-.03-.07-.07-.11-.13-.11-.05,0-.09.04-.12.11-.03.07-.05.22-.05.43Z"/>
    <path id="_3_26" d="M76.87,63.25h.11c0,.07.03.13.06.17.03.04.07.06.11.06.05,0,.09-.03.13-.09.04-.06.05-.14.05-.24,0-.09-.02-.17-.05-.22-.03-.05-.08-.08-.13-.08-.03,0-.06.01-.09.03-.03.02-.05.05-.07.09l-.1-.02.08-.68h.42v.15h-.34l-.05.36c.05-.06.1-.08.16-.08.07,0,.13.04.19.12s.08.18.08.31-.03.24-.08.33c-.05.09-.12.14-.21.14-.07,0-.14-.03-.19-.1s-.08-.16-.09-.27h0Z"/>
    <g id="_1933077287616">
      <path class="st4" d="M23.58,16.13v.23c0,.91-.28,1.65-.8,2.17-.51.51-1.25.8-2.16.8h-.26v.04h.26c.92,0,1.67-.29,2.19-.81.52-.52.81-1.27.81-2.2v-.23h-.04Z"/>
      <polygon class="st4" points="20.36 16.23 23.62 16.23 23.62 16.1 20.36 16.1 20.36 16.23"/>
      <path class="st4" d="M20.73,16.08v-.19h-.37v.21h.37v-.03ZM20.68,15.94v.11h-.26v-.11h.26Z"/>
      <path class="st4" d="M20.73,19.55v-.19h-.37v.21h.37v-.03ZM20.68,19.42v.11h-.26v-.11h.26Z"/>
    </g>
    <g id="_1933077288432">
      <path class="st4" d="M25.88,18.74h.23c.91,0,1.65-.28,2.17-.8.51-.51.8-1.25.8-2.16v-.26h.04v.26c0,.92-.29,1.67-.81,2.19s-1.27.81-2.2.81h-.23v-.04h0Z"/>
      <polygon class="st4" points="25.98 15.52 25.98 18.78 25.85 18.78 25.85 15.52 25.98 15.52"/>
      <path class="st4" d="M25.82,15.89h-.19v-.37h.21v.37h-.03ZM25.69,15.84h.11v-.26h-.11v.26Z"/>
      <path class="st4" d="M29.3,15.89h-.19v-.37h.21v.37h-.03ZM29.17,15.84h.11v-.26h-.11v.26Z"/>
    </g>
    <g id="_1933077292848">
      <path class="st4" d="M86.21,39.21v-.23c0-.91.28-1.65.8-2.17s1.25-.8,2.16-.8h.26v-.04h-.26c-.92,0-1.67.29-2.19.81-.52.52-.81,1.27-.81,2.2v.23h.04Z"/>
      <polygon class="st4" points="89.43 39.11 86.17 39.11 86.17 39.24 89.43 39.24 89.43 39.11"/>
      <path class="st4" d="M89.06,39.26v.19h.37v-.21h-.37v.03ZM89.11,39.4v-.11h.26v.11h-.26Z"/>
      <path class="st4" d="M89.06,35.79v.19h.37v-.21h-.37s0,.03,0,.03ZM89.11,35.92v-.11h.26v.11h-.26Z"/>
    </g>
    <g id="_1933077294288">
      <path class="st4" d="M88.82,31.73h-.23c-.91,0-1.65.28-2.17.8s-.8,1.25-.8,2.16v.26h-.04v-.26c0-.92.29-1.67.81-2.19.52-.52,1.27-.81,2.2-.81h.23v.04h0Z"/>
      <polygon class="st4" points="88.72 34.94 88.72 31.68 88.85 31.68 88.85 34.94 88.72 34.94"/>
      <path class="st4" d="M88.87,34.57h.19v.37h-.21v-.37h.03ZM89.01,34.63h-.11v.26h.11v-.26Z"/>
      <path class="st4" d="M85.4,34.57h.19v.37h-.21v-.37h.03ZM85.53,34.63h-.11v.26h.11v-.26Z"/>
    </g>
    <g id="_1933077295440">
      <path class="st4" d="M85.35,62.72v-.23c0-.91-.28-1.65-.8-2.17-.51-.51-1.25-.8-2.16-.8h-.26v-.04h.26c.92,0,1.67.29,2.19.81.52.52.81,1.27.81,2.2v.23h-.04Z"/>
      <polygon class="st4" points="82.14 62.62 85.4 62.62 85.4 62.76 82.14 62.76 82.14 62.62"/>
      <path class="st4" d="M82.5,62.78v.19h-.37v-.21h.37v.03h0ZM82.45,62.91v-.11h-.26v.11h.26Z"/>
      <path class="st4" d="M82.5,59.3v.19h-.37v-.21h.37v.03ZM82.45,59.43v-.11h-.26v.11h.26Z"/>
    </g>
    <g id="_1933077298368">
      <path class="st4" d="M75.4,60.42h.23c.91,0,1.65.28,2.17.8.51.51.8,1.25.8,2.16v.26h.04v-.26c0-.92-.29-1.67-.81-2.19-.52-.52-1.27-.81-2.2-.81h-.23v.04h0Z"/>
      <polygon class="st4" points="75.5 63.64 75.5 60.38 75.37 60.38 75.37 63.64 75.5 63.64"/>
      <path class="st4" d="M75.35,63.27h-.19v.37h.21v-.37h-.03ZM75.21,63.32h.11v.26h-.11v-.26Z"/>
      <path class="st4" d="M78.83,63.27h-.19v.37h.21v-.37h-.03ZM78.69,63.32h.11v.26h-.11v-.26Z"/>
    </g>
    <path d="M20.98,17.93v.15h-.57c0-.06.01-.13.05-.21.03-.08.09-.17.17-.28.1-.12.16-.22.19-.29.03-.07.05-.13.05-.19,0-.07-.02-.12-.05-.16-.03-.04-.07-.06-.12-.06-.05,0-.09.02-.12.07-.03.05-.05.11-.05.2l-.11-.02c0-.13.04-.22.08-.29.05-.06.11-.1.19-.1.09,0,.15.04.2.11.04.07.07.16.07.25,0,.08-.02.16-.05.24-.03.08-.1.18-.2.31-.06.08-.1.14-.12.17-.02.03-.03.06-.04.09h.42Z"/>
    <path id="_1_27" d="M21.15,18.09v-.18h.12v.18c0,.07,0,.13-.02.17-.02.04-.04.07-.07.09l-.03-.07s.04-.04.05-.06c.01-.03.02-.07.02-.13h-.06Z"/>
    <path id="_2_28" d="M22.08,17.44c0-.22.02-.39.07-.5s.12-.17.21-.17c.08,0,.15.05.19.14.06.11.08.29.08.54,0,.22-.02.39-.07.5-.05.11-.12.17-.21.17-.08,0-.15-.05-.2-.15-.05-.1-.08-.28-.08-.52h0ZM22.19,17.44c0,.21.02.36.05.43.03.07.07.11.12.11.05,0,.09-.04.12-.11.03-.07.05-.22.05-.43s-.02-.36-.05-.43c-.03-.07-.07-.11-.13-.11-.05,0-.09.04-.12.11-.03.07-.05.22-.05.43Z"/>
    <path id="_3_29" d="M21.44,17.78h.1c.02.13.06.2.14.2.03,0,.07-.02.1-.05.03-.03.05-.08.07-.16.02-.08.03-.17.03-.27v-.03c-.02.05-.05.1-.09.13-.04.03-.07.05-.11.05-.07,0-.13-.04-.18-.12-.05-.08-.08-.18-.08-.32s.03-.25.08-.33c.05-.08.12-.12.19-.12.05,0,.1.02.15.07.05.04.08.11.11.2.02.09.04.21.04.37,0,.18-.01.32-.04.42-.03.1-.06.17-.11.22s-.1.07-.16.07c-.06,0-.12-.03-.16-.08-.04-.06-.07-.14-.08-.24h0ZM21.86,17.2c0-.09-.02-.17-.05-.22-.03-.05-.07-.08-.11-.08s-.08.03-.12.09c-.04.06-.05.13-.05.23,0,.09.02.16.05.21.03.05.07.08.12.08s.09-.03.12-.08.05-.13.05-.22h0Z"/>
    <path d="M26.9,16.75v.15h-.57c0-.06.01-.13.05-.21.03-.08.09-.17.17-.28.1-.12.16-.22.19-.29.03-.07.05-.13.05-.19,0-.07-.02-.12-.05-.17-.03-.04-.07-.06-.12-.06-.05,0-.09.02-.12.07-.03.05-.05.11-.05.2l-.11-.02c0-.13.04-.22.08-.29s.11-.1.19-.1c.09,0,.15.04.2.11.05.07.07.16.07.25,0,.08-.02.16-.05.24-.03.08-.1.18-.2.31-.06.08-.1.14-.12.17-.02.03-.03.06-.04.09h.42Z"/>
    <path id="_1_30" d="M27.07,16.91v-.18h.12v.18c0,.07,0,.13-.03.17-.02.04-.04.07-.07.09l-.03-.07s.04-.04.05-.06c.01-.03.02-.07.02-.13h-.06Z"/>
    <path id="_2_31" d="M27.34,16.56h.11c0,.07.03.13.06.17.03.04.06.06.1.06.05,0,.09-.03.13-.09.04-.06.05-.14.05-.24,0-.09-.02-.17-.05-.22-.03-.05-.08-.08-.13-.08-.03,0-.06.01-.09.03-.03.02-.05.05-.07.09l-.1-.02.08-.68h.42v.15h-.34l-.05.36c.05-.06.1-.08.16-.08.07,0,.13.04.19.12s.08.18.08.31-.03.24-.08.33c-.05.09-.12.14-.21.14-.07,0-.14-.03-.19-.1-.05-.07-.08-.16-.09-.27h0Z"/>
    <path id="_3_32" d="M28.01,16.26c0-.22.02-.39.07-.5.05-.11.12-.17.21-.17.08,0,.15.05.19.14.06.11.08.29.08.54,0,.22-.02.39-.07.5-.05.11-.12.17-.21.17-.08,0-.15-.05-.2-.15-.05-.1-.08-.28-.08-.52h0ZM28.11,16.26c0,.21.02.36.05.43.03.07.07.11.12.11.05,0,.09-.04.12-.11.03-.07.05-.22.05-.43s-.02-.36-.05-.43c-.03-.07-.07-.11-.13-.11-.05,0-.09.04-.12.11s-.05.22-.05.43h0Z"/>
    <polygon class="st4" points="81.71 40.23 99.99 40.23 99.99 39.45 81.71 39.45 81.71 40.23"/>
    <polygon class="st4" points="74.38 54.7 82.49 54.7 82.49 55.49 74.38 55.49 74.38 54.7"/>
    <polygon class="st4" points="18.82 60.6 18.82 54.7 18.46 54.7 18.46 60.6 18.82 60.6"/>
    <polygon class="st4" points="25.2 59.99 22.51 59.99 22.51 60.36 25.2 60.36 25.2 59.99"/>
    <g id="_1933077307872">
      <path class="st4" d="M23.8,57.72s.03,0,.03,0h1.08v1.2h-1.08s-.02,0-.03,0c-.32,0-.58-.27-.58-.6s.26-.6.58-.6h0ZM23.8,57.65c-.36,0-.66.3-.66.68s.29.68.66.68c.01,0,.03,0,.03,0h1.15v-1.35h-1.15s-.02,0-.03,0h0Z"/>
      <path class="st4" d="M25.08,57.87v.91h-.08v-.91h.08ZM25.15,57.8h-.22v1.05h.22v-1.05h0Z"/>
    </g>
    <g id="_1933077306576">
      <path class="st4" d="M23.49,61.45v1.8h1.61v-1.8h-1.61ZM23.43,61.4h1.72v1.92h-1.72v-1.92h0Z"/>
      <g>
        <path class="st4" d="M23.67,61.7s-.08.03-.08.08v1.15s.03.08.08.08h.61s.08-.03.08-.08v-1.15s-.03-.08-.08-.08h-.61ZM23.67,61.65h.61c.07,0,.13.06.13.13v1.15c0,.07-.06.13-.13.13h-.61c-.07,0-.13-.06-.13-.13v-1.15c0-.07.06-.13.13-.13h0Z"/>
        <g>
          <g>
            <path class="st4" d="M24.51,62.22s-.05-.02-.05-.05.02-.05.05-.05.05.02.05.05-.02.05-.05.05Z"/>
            <path class="st4" d="M24.51,62.57s-.05-.02-.05-.05.02-.05.05-.05.05.02.05.05-.02.05-.05.05Z"/>
          </g>
          <line class="st2" x1="24.54" y1="62.35" x2="24.23" y2="62.35"/>
        </g>
      </g>
      <g>
        <path class="st4" d="M24.96,61.55v.11h.14v-.11h-.14ZM24.9,61.49h.25v.23h-.25v-.23h0Z"/>
        <path class="st4" d="M24.96,63.04v.11h.14v-.11h-.14ZM24.9,62.99h.25v.23h-.25v-.23h0Z"/>
        <line class="st1" x1="25.02" y1="61.71" x2="25.02" y2="62.99"/>
      </g>
    </g>
    <g id="_1931414215856">
      <path class="st4" d="M21.67,64.05v-.23c0-.91-.28-1.65-.8-2.17-.51-.51-1.25-.8-2.16-.8h-.26v-.04h.26c.92,0,1.67.29,2.19.81.52.52.81,1.27.81,2.2v.23h-.04Z"/>
      <polygon class="st4" points="18.46 63.95 21.72 63.95 21.72 64.08 18.46 64.08 18.46 63.95"/>
      <path class="st4" d="M18.82,64.11v.19h-.37v-.21h.37v.03h0ZM18.77,64.24v-.11h-.26v.11h.26Z"/>
      <path class="st4" d="M18.82,60.63v.19h-.37v-.21h.37v.03ZM18.77,60.76v-.11h-.26v.11h.26Z"/>
    </g>
    <g id="_1931414223872">
      <path class="st4" d="M19.06,57.14h.23c.91,0,1.65.28,2.17.8s.8,1.25.8,2.16v.26h.04v-.26c0-.92-.29-1.67-.81-2.19s-1.27-.81-2.2-.81h-.23v.04h0Z"/>
      <polygon class="st4" points="19.16 60.36 19.16 57.1 19.03 57.1 19.03 60.36 19.16 60.36"/>
      <path class="st4" d="M19.01,59.99h-.19v.37h.21v-.37h-.03ZM18.88,60.04h.11v.26h-.11v-.26Z"/>
      <path class="st4" d="M22.49,59.99h-.19v.37h.21v-.37h-.03ZM22.35,60.04h.11v.26h-.11v-.26Z"/>
    </g>
    <polygon class="st4" points="18.82 64.29 18.82 64.77 18.46 64.77 18.46 64.29 18.82 64.29"/>
    <polygon class="st4" points="75.16 55.52 75.16 63.64 74.79 63.64 74.79 55.52 75.16 55.52"/>
  </g>
  <g id="mask">
    <polygon id="_x36_2_x2F_14" class="st0" points=".86 .86 .86 34.34 12.14 34.34 12.14 36.09 20.42 36.09 20.42 35.22 20.42 31.25 25.67 31.25 25.67 30.36 81.95 30.56 81.95 39.84 99.13 39.82 99.13 .8 .86 .86"/>
  </g>
</svg>