<svg version="1.1" xmlns="http://www.w3.org/2000/svg" xmlns:xlink="http://www.w3.org/1999/xlink" viewBox="1139.564 1190.725 603.321 519.576"><path fill="none" stroke-width="0" d="M1160.191 1710.301v-126.753h-20.627v-202.993h26.538l1.663-184.12 386.492-5.71v88.318h188.628V1710.3H1160.19z"></path><path fill="none" stroke-width="0" d="M1168.486 1686.011v-112.27h-20.06v-181.445l23.576-2.88V1199.81l376.555 4.929-3.156 83.159h183.34l-3.568 389.72-556.687 8.392z"></path><clipPath id="a"><path fill="none" stroke-width="0" d="M1160.191 1710.301v-126.753h-20.627v-202.993h26.538l1.663-184.12 386.492-5.71v88.318h188.628V1710.3H1160.19z"></path></clipPath><g data-name="Layer 1" clip-path="url(#a)"><g data-name="Слой 1"><path d="M24.168 18.436h2321.065v1686.99H4.743V18.436h19.425Zm2282.215 38.84H43.593v1609.31h2262.79V57.277Z" fill="#58595b" stroke-width="0"></path><g data-name="1931717945008" fill="#58595b" stroke-width="0"><path d="M1160.191 1319.425v-122.99h23.623v122.99h-23.623zm0 348.394v-101.993h23.623v101.993h-23.623zm559.081-213.763v-122.99h23.613v122.99h-23.613zm0 213.763v-101.993h23.613v101.993h-23.613zm5.901-471.384h183.368v17.712h-183.368v-17.712z"></path><path d="M1725.173 1565.826v-368.209h17.712v368.21h-17.712zm-559.071-168.632v-80.133h17.712v80.133h-17.712zm388.155-200.759h-47.235v17.712h47.235v-17.712zm-373.108 0h240.21v17.712h-240.21v-17.712zm355.396 82.608h188.628v17.712h-188.628v-17.712zm-509.432-63.393h141.373v17.711h-141.373v-17.712z"></path><path d="M1554.257 1283.33v-70.365h-17.712v70.365h17.712zm-414.693 296.12v-198.895h17.722v198.896h-17.722z"></path><path d="M1139.564 1380.555h44.25v17.721h-44.25v-17.721zm0 185.271h44.25v17.722h-44.25v-17.722z"></path></g><g data-name="1933146796912" fill="#58595b" stroke-width="0"><path d="M1734.7 1236.366h36.706v8.305H1734.7v-8.305zm-518.95 8.576v-34.833h8.306v34.833h-8.305zm-173.059-48.507h122.42v8.305h-122.42v-8.305z"></path><path d="M1183.814 1236.637h36.705v8.305h-36.705v-8.305zm89.78 153.324h111.13v8.315h-111.13v-8.315zm-245.639-99.027h139.81v8.305h-139.81v-8.305zm520.602-94.499H1734.7v8.305h-186.143v-8.305z"></path><path d="M1291.426 1214.147v182.506h-8.305v-182.506h8.305zm93.297 0v85.563h-8.305v-85.563h8.305zm0 168.922v13.003h-8.305v-13.003h8.305zm-202.903 6.822h8.425v8.305h-8.425v-8.305z"></path></g><g data-name="1932148079360" fill="#010101" stroke-width="0"><path d="M1239.604 1244.751c0-.22.03-.64.04-.771v-24.324h27.168v24.444c0 .01.04.43.04.651 0 7.273-6.11 13.194-13.624 13.194s-13.624-5.92-13.624-13.194Zm-1.653 0c0 8.205 6.842 14.857 15.277 14.857s15.277-6.652 15.277-14.857c0-.27-.04-.771-.04-.771v-25.977h-30.475v25.977s-.04.5-.04.771Z"></path><path d="M1243 1215.8h20.456v1.713H1243v-1.713Zm-1.653-1.653v5.019h23.762v-5.02h-23.762Z"></path></g><g data-name="1931718130816"><path d="M1245.534 1293.108v40.763h36.295v-40.763h-36.295Zm-1.282-1.292h38.87v43.337h-38.87v-43.337Z" fill="#231f20" stroke-width="0"></path><path d="M1249.722 1298.718a1.74 1.74 0 0 0-1.733 1.733v25.957c0 .951.781 1.723 1.733 1.723h13.825c.951 0 1.723-.772 1.723-1.723v-25.957c0-.952-.772-1.733-1.723-1.733h-13.825Zm0-1.282h13.825a3.018 3.018 0 0 1 3.015 3.015v25.957a3.018 3.018 0 0 1-3.015 3.015l-13.825-.01a3.012 3.012 0 0 1-3.016-3.015v-25.947a3.012 3.012 0 0 1 3.016-3.015Zm18.863 13.074a1.04 1.04 0 0 1-1.042-1.033c0-.58.471-1.042 1.042-1.042.581 0 1.042.461 1.042 1.042 0 .571-.46 1.032-1.042 1.032Zm0 7.913c-.57 0-1.042-.47-1.042-1.042a1.041 1.041 0 1 1 1.042 1.042Z" fill="#231f20" stroke-width="0"></path><path fill="none" stroke="#231f20" stroke-linecap="round" stroke-miterlimit="22.967" stroke-width=".471" d="M1269.347 1313.424h-7.053"></path><path d="M1278.744 1295.252v2.574h3.085v-2.574h-3.085Zm-1.283-1.283h5.65v5.14h-5.65v-5.14Zm1.283 35.063v2.575h3.085v-2.575h-3.085Zm-1.283-1.292h5.65v5.15h-5.65v-5.15Z" fill="#010101" stroke-width="0"></path><path fill="none" stroke="#010101" stroke-linecap="round" stroke-linejoin="round" stroke-width=".471" d="M1280.286 1298.948v28.792"></path></g><path d="M1744.067 1245.853h67.951v68.753h-67.952v-68.753Zm68.542-1.182h-69.725v71.117h70.316v-71.117h-.59Z" stroke-width="0" data-name="1931718152224"></path><g data-name="1931718151984" stroke-width="0"><path d="M1305.2 1218.134h42.758c2.704 0 5.159 1.102 6.942 2.885s2.885 4.237 2.885 6.942v43.488a9.774 9.774 0 0 1-2.885 6.943c-1.783 1.783-4.238 2.895-6.942 2.895H1305.2a9.818 9.818 0 0 1-6.943-2.895 9.774 9.774 0 0 1-2.885-6.943v-43.488c0-2.704 1.102-5.159 2.885-6.942s4.248-2.885 6.943-2.885Zm42.758-.591H1305.2c-2.865 0-5.47 1.172-7.363 3.055a10.424 10.424 0 0 0-3.056 7.363v43.488c0 2.865 1.172 5.48 3.056 7.364a10.424 10.424 0 0 0 7.363 3.055h42.757c2.865 0 5.47-1.172 7.363-3.055a10.406 10.406 0 0 0 3.055-7.364v-43.488c0-2.865-1.172-5.47-3.055-7.363a10.424 10.424 0 0 0-7.363-3.055Z"></path><path d="M1306.684 1220.338h39.79c2.515 0 4.8 1.032 6.452 2.684s2.685 3.938 2.685 6.442v40.483c0 2.504-1.032 4.788-2.685 6.441s-3.937 2.685-6.451 2.685h-39.791c-2.505 0-4.789-1.032-6.442-2.685s-2.685-3.937-2.685-6.441v-40.483c0-2.504 1.032-4.788 2.685-6.442s3.937-2.684 6.442-2.684Zm39.79-.591h-39.79a9.66 9.66 0 0 0-6.863 2.855 9.678 9.678 0 0 0-2.855 6.862v40.483a9.679 9.679 0 0 0 2.855 6.862 9.66 9.66 0 0 0 6.863 2.855h39.79a9.701 9.701 0 0 0 6.873-2.855c1.753-1.763 2.855-4.188 2.855-6.862v-40.483c0-2.675-1.102-5.099-2.855-6.862a9.701 9.701 0 0 0-6.872-2.855Z"></path><path d="M1292.609 1215.329h67.941v68.753h-67.941v-68.753Zm68.532-1.182h-69.714v71.117h70.305v-71.117h-.59Z"></path><path d="M1304.89 1225.507a2.2 2.2 0 0 1 1.583.661c.4.401.661.962.661 1.583s-.26 1.182-.66 1.583a2.24 2.24 0 0 1-3.827-1.583 2.24 2.24 0 0 1 2.244-2.244Zm2.004.24a2.832 2.832 0 1 0-4.007 4.008 2.832 2.832 0 1 0 4.007-4.008Z"></path></g><path d="m1412.463 1488.598 2.374-.5c.491 3.936 1.743 5.91 3.737 5.91 1.082 0 2.013-.581 2.815-1.743.791-1.153 1.182-2.665 1.182-4.509 0-1.743-.36-3.145-1.092-4.197-.721-1.062-1.613-1.593-2.675-1.593-.45 0-1.002.14-1.663.411l.26-3.196.371.04c1.173 0 2.124-.46 2.856-1.372.72-.902 1.091-2.124 1.091-3.646 0-1.403-.31-2.525-.921-3.366-.611-.862-1.353-1.283-2.234-1.283-.912 0-1.673.44-2.304 1.343-.621.891-1.022 2.254-1.192 4.077l-2.375-.671c.31-2.555.982-4.488 2.034-5.79 1.042-1.303 2.314-1.954 3.797-1.954 1.573 0 2.895.721 3.987 2.194 1.092 1.462 1.643 3.306 1.643 5.53 0 1.352-.23 2.554-.701 3.596-.461 1.042-1.112 1.863-1.944 2.454.772.28 1.413.732 1.904 1.343.51.63.911 1.462 1.232 2.504.31 1.052.46 2.214.46 3.496 0 2.735-.63 4.98-1.913 6.722-1.272 1.744-2.795 2.615-4.578 2.615-1.643 0-3.045-.761-4.187-2.284-1.152-1.523-1.804-3.566-1.964-6.131Z" stroke-width="0"></path><path data-name="1 4" d="M1436.396 1496.512h-2.375v-23.332c-.54.812-1.272 1.643-2.193 2.495-.922.841-1.764 1.482-2.545 1.923v-3.506c1.312-.952 2.464-2.124 3.466-3.506 1.002-1.373 1.703-2.715 2.114-4.027h1.533v29.953Z" fill="#000" stroke-width="0"></path><path data-name="2 5" d="m1449.99 1488.598 2.375-.5c.49 3.936 1.733 5.91 3.736 5.91 1.082 0 2.014-.581 2.815-1.743.782-1.153 1.182-2.665 1.182-4.509 0-1.743-.36-3.145-1.092-4.197-.73-1.062-1.612-1.593-2.674-1.593-.451 0-1.002.14-1.663.411l.26-3.196.37.04c1.173 0 2.125-.46 2.846-1.372.731-.902 1.092-2.124 1.092-3.646 0-1.403-.3-2.525-.912-3.366-.61-.862-1.352-1.283-2.234-1.283-.911 0-1.683.44-2.304 1.343-.621.891-1.022 2.254-1.192 4.077l-2.374-.671c.3-2.555.981-4.488 2.023-5.79 1.052-1.303 2.324-1.954 3.807-1.954 1.563 0 2.895.721 3.987 2.194 1.092 1.462 1.633 3.306 1.633 5.53 0 1.352-.22 2.554-.691 3.596s-1.112 1.863-1.943 2.454a4.38 4.38 0 0 1 1.903 1.343c.51.63.912 1.462 1.222 2.504.31 1.052.471 2.214.471 3.496 0 2.735-.641 4.98-1.913 6.722s-2.805 2.615-4.579 2.615c-1.642 0-3.045-.761-4.187-2.284-1.152-1.523-1.803-3.566-1.964-6.131Z" fill="#000" stroke-width="0"></path><path data-name="3 6" d="M1443.84 1496.512v-4.167h2.694v4.177c0 1.613-.19 2.875-.561 3.797-.38.912-.922 1.623-1.643 2.104l-.661-1.563c.48-.33.841-.812 1.082-1.463.25-.64.38-1.613.4-2.885h-1.312Z" fill="#000" stroke-width="0"></path><path data-name="4 7" d="M1464.997 1481.786c0-5 .541-8.786 1.603-11.36 1.062-2.575 2.635-3.868 4.708-3.868 1.833 0 3.286 1.042 4.338 3.126 1.282 2.525 1.923 6.562 1.923 12.102 0 4.978-.52 8.765-1.582 11.35-1.062 2.584-2.635 3.877-4.719 3.877-1.833 0-3.336-1.142-4.508-3.416-1.172-2.285-1.763-6.221-1.763-11.812Zm2.434 0c0 4.838.371 8.104 1.102 9.747.732 1.653 1.663 2.474 2.805 2.474 1.082 0 1.984-.831 2.715-2.504.722-1.673 1.082-4.909 1.082-9.717 0-4.87-.36-8.125-1.092-9.768s-1.683-2.464-2.845-2.464c-1.072 0-1.963.831-2.685 2.504-.71 1.673-1.082 4.91-1.082 9.728Z" fill="#000" stroke-width="0"></path><path d="M1346.124 1359.687v3.496h-12.813c-.03-1.422.31-3.015 1.022-4.778s2.024-3.847 3.927-6.251c2.224-2.795 3.677-4.96 4.358-6.492.691-1.533 1.032-2.955 1.032-4.278 0-1.512-.35-2.755-1.052-3.716-.701-.962-1.573-1.443-2.605-1.443-1.102 0-2.013.521-2.715 1.553-.71 1.032-1.071 2.525-1.071 4.448l-2.435-.37c.17-2.866.812-5.02 1.924-6.462s2.574-2.164 4.387-2.164c1.974 0 3.467.841 4.478 2.524 1.022 1.684 1.523 3.597 1.523 5.74 0 1.894-.39 3.717-1.192 5.46-.792 1.744-2.304 4.078-4.528 6.983-1.423 1.833-2.334 3.085-2.745 3.746-.42.672-.751 1.333-1.012 2.004h9.517Z" stroke-width="0"></path><path data-name="1 19" d="M1349.971 1363.183v-4.167h2.695v4.177c0 1.613-.18 2.886-.561 3.797-.37.922-.922 1.623-1.643 2.114l-.661-1.573c.48-.33.841-.811 1.082-1.452.25-.651.38-1.613.4-2.895h-1.312Z" fill="#000" stroke-width="0"></path><path data-name="2 20" d="M1371.129 1348.467c0-4.999.54-8.796 1.603-11.37 1.062-2.575 2.634-3.867 4.708-3.867 1.833 0 3.286 1.042 4.338 3.135 1.292 2.525 1.933 6.562 1.933 12.102 0 4.979-.53 8.756-1.592 11.34-1.052 2.585-2.625 3.877-4.719 3.877-1.833 0-3.336-1.142-4.508-3.416s-1.763-6.211-1.763-11.801Zm2.444-.01c0 4.849.36 8.105 1.092 9.747.731 1.653 1.673 2.485 2.815 2.485 1.072 0 1.974-.832 2.705-2.515.721-1.673 1.092-4.908 1.092-9.717 0-4.869-.37-8.115-1.102-9.768-.731-1.642-1.673-2.464-2.845-2.464-1.062 0-1.964.842-2.675 2.515-.721 1.673-1.082 4.908-1.082 9.717Z" fill="#000" stroke-width="0"></path><path data-name="3 21" d="m1368.404 1340.643-2.374.29c-.22-1.532-.551-2.624-.992-3.285-.631-.942-1.382-1.423-2.274-1.423-1.383 0-2.484 1.082-3.316 3.266-.721 1.873-1.082 4.638-1.092 8.305.541-1.312 1.232-2.294 2.064-2.965.821-.682 1.693-1.022 2.614-1.022 1.543 0 2.875.881 4.018 2.645 1.142 1.753 1.713 4.107 1.713 7.052 0 1.994-.291 3.807-.862 5.42-.571 1.633-1.312 2.825-2.214 3.596-.902.772-1.893 1.163-2.965 1.163-1.954 0-3.567-1.112-4.829-3.336-1.272-2.224-1.903-5.931-1.903-11.13 0-5.76.651-9.868 1.943-12.312 1.293-2.455 2.955-3.677 4.98-3.677 1.462 0 2.694.631 3.686 1.903.981 1.263 1.582 3.106 1.803 5.51Zm-9.677 12.873c0 2.164.4 3.887 1.202 5.2.801 1.322 1.733 1.973 2.805 1.973.932 0 1.753-.621 2.494-1.854.732-1.242 1.102-2.935 1.102-5.089 0-2.123-.36-3.766-1.092-4.938-.73-1.163-1.623-1.744-2.674-1.744-1.022 0-1.924.581-2.685 1.744-.772 1.152-1.152 2.724-1.152 4.708Z" fill="#000" stroke-width="0"></path><path d="M1221.1 1394.97v3.506h-12.813c-.03-1.422.311-3.025 1.022-4.788.722-1.753 2.024-3.837 3.927-6.241 2.224-2.795 3.677-4.97 4.358-6.492.691-1.532 1.032-2.955 1.032-4.277 0-1.523-.35-2.765-1.052-3.727-.701-.952-1.573-1.433-2.604-1.433-1.102 0-2.014.511-2.715 1.543-.711 1.042-1.062 2.525-1.062 4.458l-2.445-.38c.17-2.856.812-5.01 1.934-6.452 1.102-1.453 2.565-2.174 4.378-2.174 1.973 0 3.466.841 4.488 2.524 1.012 1.683 1.512 3.597 1.512 5.74 0 1.894-.39 3.717-1.182 5.46-.801 1.753-2.314 4.077-4.538 6.983-1.423 1.833-2.334 3.085-2.745 3.756a11.68 11.68 0 0 0-1.012 1.994h9.517Z" stroke-width="0"></path><path data-name="1 31" d="M1224.947 1398.477v-4.168h2.695v4.168c0 1.622-.18 2.885-.561 3.796-.37.922-.922 1.633-1.643 2.114l-.651-1.563c.47-.33.831-.821 1.072-1.462.25-.651.38-1.613.41-2.885h-1.322Z" fill="#000" stroke-width="0"></path><path data-name="2 32" d="M1246.115 1383.75c0-4.999.531-8.786 1.593-11.37 1.062-2.575 2.635-3.867 4.708-3.867 1.834 0 3.286 1.042 4.348 3.136 1.283 2.524 1.924 6.561 1.924 12.101 0 4.979-.531 8.766-1.583 11.35-1.062 2.585-2.635 3.867-4.719 3.867-1.843 0-3.345-1.132-4.518-3.406-1.172-2.284-1.753-6.22-1.753-11.811Zm2.435-.01c0 4.849.36 8.105 1.091 9.758s1.674 2.474 2.816 2.474c1.081 0 1.973-.831 2.704-2.504.722-1.674 1.092-4.91 1.092-9.728 0-4.859-.37-8.114-1.102-9.757s-1.673-2.465-2.845-2.465c-1.062 0-1.963.832-2.675 2.505-.72 1.673-1.081 4.909-1.081 9.717Z" fill="#000" stroke-width="0"></path><path data-name="3 33" d="m1231.098 1390.552 2.375-.5c.49 3.947 1.743 5.92 3.736 5.92 1.082 0 2.014-.58 2.815-1.743.792-1.162 1.183-2.665 1.183-4.508 0-1.743-.361-3.146-1.092-4.198-.722-1.062-1.613-1.592-2.675-1.592-.44 0-1.002.14-1.663.41l.26-3.205.381.05c1.162 0 2.114-.46 2.845-1.372.721-.912 1.092-2.124 1.092-3.647 0-1.403-.31-2.525-.922-3.376s-1.352-1.272-2.234-1.272c-.911 0-1.673.44-2.304 1.342-.62.892-1.022 2.254-1.192 4.067l-2.374-.66c.31-2.555.982-4.489 2.024-5.791 1.051-1.303 2.324-1.964 3.816-1.964 1.563 0 2.886.732 3.977 2.194 1.092 1.473 1.643 3.306 1.643 5.54 0 1.352-.23 2.555-.7 3.596-.462 1.042-1.113 1.864-1.944 2.455.771.27 1.412.721 1.903 1.342.511.621.912 1.463 1.233 2.505.31 1.042.46 2.214.46 3.496 0 2.735-.63 4.979-1.903 6.722-1.282 1.743-2.805 2.605-4.588 2.605-1.643 0-3.046-.762-4.188-2.285-1.152-1.512-1.803-3.556-1.963-6.13Z" fill="#000" stroke-width="0"></path><g data-name="1930534553264" fill="#231f20" stroke-width="0"><path d="M1394.33 1667.999h-160.567v36.024h160.567V1668Zm1.413-1.412v38.85h-163.392v-38.85h163.392Z"></path><path d="M1394.33 1687.424h-160.577v3.787h160.577v-3.787Zm1.413-1.413v6.612h-163.402v-6.612h163.402Z"></path><path d="M1394.33 1687.424h-3.796v3.787h3.796v-3.787Zm1.413-1.413v6.612h-6.622v-6.612h6.622Zm-158.173 1.413h-3.797v3.787h3.797v-3.787Zm1.412-1.413v6.612h-6.631v-6.612h6.631Zm122.279 1.413h-3.797v3.787h3.797v-3.787Zm1.413-1.413v6.612h-6.622v-6.612h6.622Zm308.602-18.012H1510.71v36.024h160.567V1668Zm1.403-1.412v38.85h-163.383v-38.85h163.383Z"></path><path d="M1671.276 1687.424H1510.69v3.787h160.587v-3.787Zm1.413-1.413v6.612h-163.413v-6.612h163.413Z"></path><path d="M1671.276 1687.424h-3.807v3.787h3.807v-3.787Zm1.413-1.413v6.612h-6.632v-6.612h6.632Zm-158.173 1.413h-3.807v3.787h3.807v-3.787Zm1.412-1.413v6.612h-6.632v-6.612h6.632Zm122.279 1.413h-3.797v3.787h3.797v-3.787Zm1.413-1.413v6.612h-6.632v-6.612h6.632Z"></path></g><path d="m1225.558 1604.536 5.77-.932c.161 1.963.642 3.466 1.463 4.508.832 1.042 1.803 1.553 2.926 1.553 1.212 0 2.234-.611 3.085-1.844.841-1.242 1.262-2.935 1.262-5.119 0-2.033-.41-3.626-1.222-4.778-.811-1.162-1.783-1.733-2.945-1.733-.761 0-1.663.2-2.715.6l.641-6.551c1.553.04 2.785-.42 3.687-1.362.891-.932 1.332-2.264 1.332-3.977 0-1.423-.31-2.555-.961-3.356-.641-.812-1.463-1.223-2.465-1.223-1.012 0-1.883.471-2.614 1.413-.742.942-1.172 2.344-1.313 4.188l-5.51-1.223c.581-3.836 1.683-6.621 3.346-8.355 1.653-1.743 3.737-2.604 6.262-2.604 2.824 0 5.079 1.102 6.742 3.316 1.673 2.224 2.494 4.668 2.494 7.353 0 1.813-.37 3.456-1.122 4.919-.741 1.462-1.863 2.735-3.356 3.827 1.733.52 3.136 1.642 4.228 3.396 1.082 1.743 1.633 3.927 1.633 6.551 0 3.807-1.032 6.973-3.086 9.467-2.063 2.505-4.518 3.747-7.353 3.747-2.725 0-5.029-1.052-6.922-3.166-1.874-2.103-2.976-4.968-3.286-8.615Z" stroke-width="0"></path><path data-name="1 57" d="M1275.107 1607.621h5.92v5.73c0 3.246-.34 5.66-1.031 7.243-.832 1.954-2.234 3.396-4.208 4.348l-1.162-3.296c1.162-.541 2.004-1.262 2.515-2.164s.781-2.194.821-3.867h-2.855v-7.994Z" fill="#000" stroke-width="0"></path><path data-name="2 58" d="M1320.328 1573.74c3.005 0 5.44 1.573 7.303 4.729s2.785 8.685 2.785 16.57c0 7.873-.921 13.383-2.785 16.54-1.863 3.165-4.288 4.738-7.283 4.738-3.015 0-5.45-1.563-7.313-4.699-1.853-3.125-2.785-8.675-2.785-16.66 0-7.834.932-13.334 2.785-16.49 1.863-3.155 4.288-4.727 7.293-4.727Zm.01 6.642c-1.172 0-2.104.862-2.805 2.555-.691 1.703-1.032 5.74-1.032 12.101s.34 10.389 1.032 12.092c.701 1.693 1.633 2.534 2.805 2.534 1.182 0 2.114-.851 2.805-2.554.681-1.703 1.032-5.73 1.032-12.072 0-6.361-.35-10.398-1.032-12.101-.691-1.693-1.623-2.555-2.805-2.555Z" fill="#000" stroke-width="0"></path><path data-name="3 59" d="m1270.078 1584.119-5.77.871c-.28-3.105-1.413-4.668-3.397-4.668-1.302 0-2.374.782-3.235 2.334-.852 1.563-1.393 4.699-1.613 9.427.741-1.182 1.573-2.064 2.484-2.645a5.379 5.379 0 0 1 3.026-.891c2.434 0 4.558 1.252 6.371 3.736 1.803 2.495 2.715 5.8 2.715 9.938 0 4.388-.952 7.844-2.865 10.339-1.914 2.504-4.278 3.757-7.113 3.757-3.095 0-5.67-1.623-7.714-4.88-2.033-3.245-3.055-8.645-3.055-16.168 0-7.644 1.052-13.144 3.176-16.5s4.848-5.029 8.174-5.029c2.294 0 4.228.852 5.8 2.575 1.573 1.703 2.585 4.318 3.016 7.804Zm-13.504 17.441c0 2.625.45 4.639 1.342 6.02.892 1.393 1.904 2.085 3.046 2.085 1.112 0 2.033-.571 2.775-1.733.731-1.142 1.102-3.036 1.102-5.66 0-2.725-.401-4.709-1.192-5.961-.802-1.242-1.784-1.873-2.966-1.873-1.142 0-2.113.6-2.915 1.793-.791 1.182-1.192 2.965-1.192 5.33Z" fill="#000" stroke-width="0"></path><path data-name="4 60" d="M1306.223 1608.212v7.403h-20.848c.22-2.815.902-5.47 2.044-8.004s3.366-5.85 6.672-9.968c2.605-3.276 4.218-5.5 4.819-6.652.891-1.693 1.332-3.386 1.332-5.099 0-1.813-.37-3.186-1.102-4.117-.741-.922-1.703-1.393-2.905-1.393-2.625 0-4.047 2.184-4.248 6.532l-5.93-.871c.36-4.238 1.432-7.354 3.215-9.337 1.784-1.984 4.158-2.965 7.123-2.965 3.256 0 5.7 1.162 7.353 3.496s2.475 5.009 2.475 8.024c0 1.713-.21 3.366-.631 4.97-.411 1.602-1.062 3.215-1.944 4.848-.881 1.623-2.334 3.687-4.378 6.21-1.913 2.365-3.115 3.938-3.626 4.7-.5.76-.922 1.502-1.232 2.223h11.81Z" fill="#000" stroke-width="0"></path><g data-name="1933040213520" fill="#58595b" stroke-width="0"><path d="M1312.073 1377.65v-5.21c0-20.607 6.422-37.347 17.972-48.928 11.551-11.58 28.25-18.022 48.798-18.022h5.88v-.992h-5.88c-20.828 0-37.758 6.542-49.499 18.313-11.74 11.771-18.263 28.752-18.263 49.63v5.208h.992Z"></path><path d="M1384.723 1375.405h-73.641v2.956h73.641v-2.956z"></path><path d="M1376.418 1378.871v4.198h8.305v-4.789h-8.305v.592Zm1.183 3.016v-2.425h5.94v2.425h-5.94Zm-1.183-81.587v4.198h8.305v-4.788h-8.305v.59Zm1.183 3.016v-2.424h5.94v2.424h-5.94Z"></path></g><path d="M1747.082 1389.961h-4.198v8.315h4.789v-8.315h-.591Zm-3.015 1.182h2.424v5.951h-2.424v-5.95Z" fill="#58595b" stroke-width="0" data-name="1933040214000"></path><g data-name="1933040211696" fill="#58595b" stroke-width="0"><path d="M1195.655 1325.626h5.21c20.616 0 37.356 6.422 48.937 17.962 11.58 11.55 18.012 28.25 18.012 48.798v5.89h1.002v-5.89c0-20.818-6.542-37.758-18.313-49.499-11.771-11.731-28.752-18.263-49.639-18.263h-5.21v1.002Z"></path><path d="M1197.909 1398.276v-73.652h-2.956v73.652h2.956z"></path><path d="M1194.443 1389.961h-4.198v8.315h4.789v-8.315h-.592Zm-3.016 1.182h2.425v5.951h-2.425v-5.95Zm81.586-1.182h-4.197v8.315h4.778v-8.315h-.58Zm-3.015 1.182h2.424v5.951h-2.424v-5.95Z"></path></g><g data-name="1933040216688" fill="#58595b" stroke-width="0"><path d="M1502.244 1282.96h-5.46c-21.599 0-39.14-6.732-51.282-18.834-12.132-12.112-18.884-29.603-18.884-51.141v-6.171h-1.041v6.17c0 21.82 6.852 39.571 19.194 51.873 12.332 12.302 30.134 19.145 52.013 19.145h5.46v-1.042Z"></path><path d="M1500.26 1206.813v76.668h2.605v-76.668h-2.605z"></path><path d="M1503.326 1214.147h3.696v-7.334h-4.217v7.333h.52Zm2.654-1.042h-2.133v-5.25h2.133v5.25Zm-84.1 1.042h3.696v-7.334h-4.217v7.333h.52Zm2.655-1.042h-2.134v-5.25h2.134v5.25Z"></path></g></g></g></svg>