<?xml version="1.0" encoding="UTF-8"?>
<svg id="_Слой_1" data-name="Слой_1" xmlns="http://www.w3.org/2000/svg" xmlns:xlink="http://www.w3.org/1999/xlink" version="1.1" viewBox="0 0 2269.02 914.94">
  <!-- Generator: Adobe Illustrator 29.5.1, SVG Export Plug-In . SVG Version: 2.1.0 Build 141)  -->
  <defs>
    <style>
      .st0, .st1 {
        fill: none;
      }

      .st1 {
        display: none;
      }

      .st2, .st3, .st4, .st5 {
        fill: #214270;
      }

      .st2, .st4 {
        stroke-linecap: round;
        stroke-width: .47px;
      }

      .st2, .st4, .st5 {
        stroke: #fff;
      }

      .st2, .st5 {
        stroke-miterlimit: 22.98;
      }

      .st4 {
        stroke-linejoin: round;
      }

      .st6 {
        clip-path: url(#clippath);
      }

      .st5 {
        stroke-width: .51px;
      }
    </style>
    <clipPath id="clippath">
      <polygon class="st0" points="2.23 112.99 262.83 113.43 262.83 73.99 481.54 73.98 481.22 49.36 525.37 48.92 570.18 101 573.32 135.63 600.08 136.42 600.08 140.26 1121.25 141.37 1120.88 37.81 1247.62 37.81 1248.16 202.64 1248.16 207.71 1515.3 208.51 1520.21 176.72 1629.11 140.95 1629.11 208.51 1699 208.51 1845.98 208.95 1845.98 0 2267.78 0 2269.02 914.94 0 911.88 2.23 112.99"/>
    </clipPath>
  </defs>
  <path class="st1" d="M2.23,112.99l260.61.44v-39.44h218.7s-.32-24.63-.32-24.63l44.15-.45,44.81,52.09,3.13,34.63,26.77.79v3.84l521.17,1.11-.37-103.56h126.74l.54,164.83v5.07l267.15.8,4.91-31.79,108.9-35.77v67.56h69.89l146.98.44V0h421.8l1.24,914.94L0,911.88,2.23,112.99Z"/>
  <path class="st1" d="M43.65,141.54h249.47v-49.93h173.26v46.88l127.25-1.22v17.24l538.7.93V47.94h105.18v172.82l445.86,2.36,176.89,2.29-2.66-219.97,366.52,5v861.47H43.65V141.54h0Z"/>
  <g class="st6">
    <g>
      <path class="st5" d="M839.05,43.46l46.22,98.11M839.42,42.94v98.63M1288.91,38.01V-63.54M739.72,22.18v-101.55M863.17,94.81v46.76M815.67,42.94v98.63M1265.17,38.01V-63.54M763.47,22.18v-101.55M1193.92,38.01V-63.54M834.71,22.18v-101.55M791.92,42.94v98.63M1241.42,38.01V-63.54M787.21,22.18v-101.55M1170.17,38.01V-63.54M858.46,22.18v-101.55M768.17,42.94v98.63M1217.67,38.01V-63.54M810.96,22.18v-101.55M1146.42,38.01V-63.54M882.21,22.18v-101.55M744.42,42.94v98.63M1122.68,38.01V-63.54M905.96,22.18v-101.55M720.67,42.94v98.63M696.92,42.94v98.63M696.92,93.06h142.49M822.81,110.37l16.61-17.31-16.61-17.3M1272.31-29.42l16.6,17.31-16.6,17.31"/>
      <g>
        <path class="st3" d="M1708.13-17.15h126.74v127.69h-126.74V-17.15Z"/>
        <g>
          <path class="st3" d="M1771.16,4.79h-32.9c-5.58,0-10.12,4.54-10.12,10.12v63.57c0,5.58,4.54,10.13,10.12,10.13h32.9c5.58,0,10.12-4.54,10.12-10.13V14.91c0-5.58-4.54-10.12-10.12-10.12ZM1776.91,78.48c0,3.17-2.59,5.74-5.75,5.74h-32.9c-3.17,0-5.74-2.57-5.74-5.74V14.91c0-3.17,2.57-5.74,5.74-5.74h32.9c3.17,0,5.74,2.57,5.74,5.74v63.57h.01ZM1809.89,66.21l-5.52,5.52v-17.89c0-1.61-1.3-2.93-2.92-2.93s-2.92,1.31-2.92,2.93v17.89l-5.52-5.52c-1.14-1.14-3-1.14-4.14,0-1.13,1.14-1.13,2.99,0,4.13l9.35,9.34c.72.72,1.67,1.17,2.69,1.28.17.03.35.06.54.06.18,0,.36-.03.53-.06,1.02-.11,1.98-.56,2.71-1.28l9.34-9.34c1.13-1.14,1.13-2.99,0-4.13-1.14-1.14-3-1.14-4.14,0ZM1793,27.24l5.53-5.54v19.03c0,1.61,1.3,2.93,2.92,2.93s2.93-1.31,2.93-2.93v-19l5.5,5.51c.55.54,1.29.85,2.06.85.74,0,1.49-.29,2.06-.85,1.14-1.14,1.14-3,0-4.14l-9.34-9.34c-.67-.65-1.52-1.09-2.44-1.25-.26-.08-.52-.12-.79-.12-.27,0-.52.05-.77.12-.94.15-1.8.59-2.47,1.26l-9.34,9.34c-1.14,1.14-1.14,2.98,0,4.12,0,0,0,0,0,0,1.14,1.14,2.98,1.14,4.12,0,0,0,0,0,0,0h.01Z"/>
          <path class="st3" d="M1754.69,25.19c3.43,0,6.21-2.79,6.21-6.23s-2.79-6.22-6.21-6.22-6.22,2.79-6.22,6.22,2.79,6.23,6.22,6.23h0ZM1754.7,53.59c-2.34,0-5.94-.48-7.62-.73l-1.81,24.25c-.14,1.82,1.23,3.4,3.04,3.54,0,0,0,0,0,0h.05c1.82.14,3.4-1.21,3.54-3.03l1.49-17.94c.04-.61.33-1.45,1.34-1.47,1.05-.02,1.34.87,1.38,1.45l1.48,17.95c.14,1.81,1.72,3.17,3.53,3.04,0,0,0,0,0,0h.03c1.82-.14,3.19-1.73,3.05-3.56l-1.84-24.25c-1.74.25-5.49.75-7.68.75h0Z"/>
          <path class="st3" d="M1768.28,43.28l-.9-9.05c-.15-1.81-.99-3.82-3.55-5.11-1.96-.98-8.73-.83-8.73-.83,0,0-7.47-.17-9.58.83-2.55,1.21-3.33,3.3-3.47,5.11l-.9,9.05-.89,11.59c-.14,1.81,1.2,3.39,3.01,3.54,0,0,.01,0,.02,0h.04c.62.05,1.21-.07,1.72-.33l1.27-17.91c.04-.45.43-.79.88-.76.46.03.8.42.77.88l-.77,10.92c1.56.23,5.23.73,7.5.73,2.14,0,5.99-.52,7.62-.76l-.7-10.9c-.03-.46.32-.85.77-.88.46-.03.86.31.89.77l1.16,17.92c.5.24,1.06.35,1.66.31h.04c1.82-.14,3.18-1.73,3.04-3.55l-.9-11.58h.01Z"/>
        </g>
      </g>
      <g>
        <path class="st3" d="M1262.11,77.8h181.64v114.42h-181.64v-114.42Z"/>
        <g>
          <path class="st3" d="M1365.78,93.1h-59.28c-5.58,0-10.12,4.54-10.12,10.12v63.56c0,5.59,4.54,10.14,10.12,10.14h59.28c5.59,0,10.14-4.54,10.14-10.14v-63.56c0-5.58-4.54-10.12-10.14-10.12h0ZM1371.54,166.78c0,3.18-2.58,5.75-5.75,5.76h-59.28c-3.17,0-5.74-2.57-5.74-5.74v-63.57c0-3.17,2.57-5.74,5.74-5.74h59.28c3.17,0,5.75,2.57,5.75,5.74v63.56ZM1404.52,154.52l-5.52,5.52v-17.9c0-1.61-1.31-2.92-2.93-2.92s-2.92,1.3-2.92,2.92v17.9l-5.52-5.52c-1.14-1.14-2.98-1.14-4.12,0h0c-1.14,1.14-1.14,2.99,0,4.13h0s9.34,9.35,9.34,9.35c.75.75,1.7,1.16,2.69,1.28.18.03.36.05.54.05.18,0,.36-.02.53-.05,1.02-.11,1.98-.56,2.71-1.28l9.34-9.34c1.14-1.14,1.14-2.99,0-4.13s-2.99-1.14-4.13,0ZM1387.63,115.54l5.53-5.53v19.03c0,1.61,1.31,2.92,2.93,2.92s2.92-1.3,2.92-2.92v-19.01l5.51,5.51c.55.55,1.29.86,2.06.86.74,0,1.49-.29,2.06-.86,1.13-1.14,1.13-2.99,0-4.13l-9.35-9.34c-.66-.66-1.51-1.1-2.43-1.25-.26-.08-.52-.12-.79-.13-.27,0-.53.05-.77.12-.94.16-1.8.6-2.48,1.26l-9.34,9.34c-1.13,1.15-1.13,2.99,0,4.14,1.14,1.13,2.99,1.13,4.13,0h.01s0,0,0,0Z"/>
          <path class="st3" d="M1349.31,113.5c3.44,0,6.23-2.79,6.23-6.23s-2.79-6.23-6.23-6.23-6.22,2.79-6.22,6.23,2.79,6.22,6.22,6.22h0ZM1349.33,141.9c-2.35,0-5.95-.49-7.62-.73l-1.82,24.25c-.14,1.81,1.23,3.4,3.06,3.54h.04c1.81.14,3.39-1.21,3.54-3.02,0,0,0-.01,0-.02l1.49-17.94c.05-.6.34-1.44,1.34-1.46,1.05-.02,1.35.87,1.38,1.45l1.48,17.94c.14,1.82,1.72,3.18,3.54,3.05h.04c1.81-.14,3.18-1.74,3.04-3.56l-1.83-24.25c-1.75.25-5.5.75-7.69.75h.01Z"/>
          <path class="st3" d="M1362.9,131.58l-.9-9.04c-.14-1.83-.98-3.83-3.55-5.11-1.95-.99-8.73-.84-8.73-.84,0,0-7.47-.17-9.58.84-2.55,1.21-3.33,3.29-3.47,5.11l-.9,9.04-.89,11.59c-.14,1.82,1.22,3.41,3.03,3.55,0,0,0,0,0,0h.03c.62.05,1.21-.08,1.72-.34l1.27-17.91c.03-.46.43-.8.89-.77,0,0,0,0,0,0,.45.03.79.43.77.89l-.78,10.91c1.57.23,5.24.74,7.51.74,2.12,0,5.99-.53,7.62-.77l-.71-10.9c-.03-.46.32-.85.78-.88.45-.03.86.32.88.78l1.16,17.93c.5.23,1.07.35,1.66.3h.03c1.82-.14,3.17-1.72,3.04-3.54l-.9-11.59h.01s0,.01,0,.01ZM1307.32,151.76h20.36v15.98h-20.36v-15.98ZM1307.32,133.16h20.36v15.98h-20.36v-15.98ZM1307.32,122.29h20.36v7.99h-20.36v-7.99Z"/>
        </g>
      </g>
      <path class="st3" d="M27.29-890.96h2239.34V908.04H7.87V-890.96h19.42,0ZM2227.78-852.12H46.71V869.19h2181.07V-852.12Z"/>
      <path class="st3" d="M1673.77,226.42V91.53h23.62v27.37h150.31V-29.9h-150.31V1.66h-23.62v-75.97h23.62v20.79h150.31v-132.25h-150.31v21.23h-23.62v-44.85h197.54V226.42h-23.61v-83.91h-150.31v83.91h-23.62ZM1123.05,38.01h116.4v23.62h-116.4v-23.62h0Z"/>
      <path class="st3" d="M1477.38,181.58v44.86h-251.06V38.01h227.44v-9.18h23.62v58.65h-23.62v-25.84h-203.82v141.19h203.82v-21.24h23.62ZM1003.8-84.22h352.08v23.62h-328.46V42.94h-451.96v-23.61h428.34v-103.56ZM575.46,141.57h558.18v23.62h-558.18v-23.62Z"/>
      <path class="st3" d="M1123.05,165.19V38.01h23.62v127.18h-23.62ZM575.46,226.42V32.41h23.62v194.01h-23.62ZM575.89,467.75v-122.98h23.62v122.98h-23.62ZM575.89,908.04v-193.91h23.62v193.91h-23.62ZM1123.05,467.75v-122.98h23.62v122.98h-23.62ZM1123.05,908.04v-193.91h23.62v193.91h-23.62ZM1682.06,468.93v-122.98h23.62v122.98h-23.62ZM1682.06,908.04v-193.91h23.62v193.91h-23.62ZM1627.94,208.71h67.6v17.71h-67.6v-17.71Z"/>
      <path class="st3" d="M1499.35,427.37h188.61v17.71h-188.61v-17.71ZM989.98,363.98h141.35v17.71h-141.35v-17.71h0Z"/>
      <path class="st3" d="M1517.06,431.65v-82.19h-17.7v82.19h17.7ZM1007.69,368.27v-23.49h-17.71v23.49h17.71ZM1470.39,208.71h50.4v17.71h-50.4v-17.71ZM275.9,108.76h202.52v-34.56h-202.52v34.56Z"/>
      <path class="st3" d="M478.42,108.76V36.09h-34.57v72.67h34.57,0ZM299.3,148.2v-73.99h-34.57v73.99h34.57Z"/>
      <path class="st3" d="M7.87,148.2h291.43v-34.57H7.87v34.57ZM1697.39,218.11h161.62v8.31h-161.62v-8.31ZM1755.4,393.01v-48.23h8.31v48.23h-8.31Z"/>
      <path class="st3" d="M1701.63,384.7h62.08v8.31h-62.08v-8.31ZM521.64,392.32v-43.12h-8.31v43.12h8.31ZM613.54,548.93v-36.7h8.31v36.7h-8.31Z"/>
      <path class="st3" d="M579.64,512.23h42.21v8.31h-42.21v-8.31ZM998.29,380.76v66.82h-8.31v-66.82h8.31ZM577.24,384.01h-59.15v8.31h59.15v-8.31h0ZM579.36,540.62h42.49v8.31h-42.49v-8.31h0ZM1178.59,393.28v-44.72h8.3v44.72h-8.3Z"/>
      <path class="st3" d="M1005.54,344.78h181.35v8.31h-181.35v-8.31ZM1146.67,384.97h36.69v8.31h-36.69v-8.31ZM990.83,439.26h139.79v8.31h-139.79v-8.31ZM1499.35,344.78h263.01v8.31h-263.01v-8.31ZM424.7,344.78h174.82v8.31h-174.82v-8.31h0ZM424.7,573.41h159.51v8.31h-159.51v-8.31h0Z"/>
      <path class="st3" d="M584.2,464.43v110.18h-8.31v-110.18h8.31Z"/>
      <g>
        <path class="st3" d="M1388.44,24.05h73.63v-2.95h-73.63v2.95Z"/>
        <path class="st3" d="M1389.43,23.42v-5.2c0-20.61,6.42-37.35,17.96-48.93s28.25-18.01,48.79-18.01h5.88v-.99h-5.88c-20.82,0-37.75,6.54-49.49,18.31-11.73,11.77-18.26,28.75-18.26,49.63v5.2h.99ZM1453.76,24.64v4.19h8.31v-4.78h-8.31v.59ZM1454.94,27.66v-2.43h5.94v2.43h-5.94Z"/>
      </g>
      <path class="st3" d="M591.74,14.92h25.97v-2.73h-25.97v2.73ZM599.41,18.78v-3.86h-7.66v4.4h7.66v-.54h0ZM598.32,16.01v2.23h-5.47v-2.23h5.47ZM597.63-7.88c5.33,0,10.43,2.11,14.2,5.89,3.78,3.76,5.89,8.87,5.89,14.2h-.76c0-5.33-2.17-10.16-5.66-13.65-3.62-3.63-8.53-5.66-13.65-5.65v-.77h0Z"/>
      <path class="st3" d="M818.96,556.77v3.5h-12.8c-.03-1.42.31-3.03,1.02-4.78.71-1.76,2.03-3.85,3.92-6.24,2.22-2.8,3.68-4.96,4.36-6.5.69-1.53,1.03-2.96,1.03-4.27,0-1.52-.35-2.77-1.05-3.73-.7-.95-1.57-1.43-2.6-1.43-1.11,0-2.02.51-2.73,1.55-.7,1.03-1.06,2.52-1.06,4.44l-2.44-.37c.17-2.86.81-5.01,1.92-6.46s2.57-2.17,4.38-2.17c1.98,0,3.47.84,4.49,2.52,1.01,1.69,1.51,3.6,1.51,5.74,0,1.9-.39,3.72-1.19,5.45-.79,1.75-2.31,4.08-4.53,6.99-1.41,1.83-2.34,3.09-2.75,3.75-.4.64-.74,1.31-1.01,2h9.51,0Z"/>
      <path class="st3" d="M821.47,552.35l2.37-.5c.49,3.95,1.74,5.92,3.74,5.92,1.08,0,2.01-.58,2.82-1.73.78-1.16,1.18-2.67,1.18-4.52,0-1.73-.36-3.14-1.09-4.19-.72-1.06-1.61-1.59-2.68-1.59-.45,0-1,.14-1.66.41l.26-3.2.37.04c1.17,0,2.13-.45,2.85-1.36.73-.91,1.09-2.12,1.09-3.66,0-1.39-.3-2.52-.91-3.36-.61-.86-1.35-1.28-2.24-1.28s-1.67.44-2.3,1.34c-.62.89-1.02,2.26-1.19,4.07l-2.37-.66c.3-2.56.97-4.49,2.03-5.8,1.04-1.3,2.32-1.95,3.8-1.95,1.56,0,2.9.73,3.99,2.19,1.09,1.46,1.63,3.3,1.63,5.53,0,1.35-.23,2.56-.69,3.6-.47,1.03-1.11,1.85-1.95,2.46.76.27,1.4.72,1.9,1.33.5.63.91,1.46,1.22,2.51s.47,2.22.47,3.5c0,2.74-.64,4.97-1.91,6.72-1.27,1.74-2.81,2.62-4.58,2.62-1.64,0-3.04-.77-4.19-2.29-1.14-1.52-1.79-3.57-1.96-6.14h0Z"/>
      <path class="st3" d="M845.4,560.27h-2.38v-23.33c-.54.81-1.27,1.64-2.2,2.49-.92.85-1.76,1.48-2.55,1.93v-3.5c1.33-.98,2.5-2.16,3.47-3.51.99-1.37,1.7-2.72,2.1-4.03h1.54v29.95h0Z"/>
      <path class="st3" d="M852.83,560.27v-4.17h2.7v4.17c0,1.62-.19,2.89-.57,3.8-.37.92-.92,1.62-1.63,2.11l-.66-1.57c.48-.32.84-.81,1.08-1.45.25-.65.38-1.61.4-2.89h-1.31,0Z"/>
      <path class="st3" d="M859.35,553.36l2.27-.29c.36,3.14,1.43,4.7,3.22,4.7.79,0,1.51-.34,2.16-1.02.65-.69,1.2-1.92,1.65-3.67.45-1.74.68-3.8.68-6.14v-.73c-.49,1.21-1.16,2.17-1.99,2.88s-1.68,1.06-2.56,1.06c-1.57,0-2.93-.87-4.07-2.61-1.14-1.74-1.71-4.14-1.71-7.16s.6-5.57,1.78-7.37c1.17-1.8,2.62-2.7,4.31-2.7,1.19,0,2.32.5,3.36,1.5,1.03,1,1.83,2.48,2.41,4.44.56,1.94.85,4.76.85,8.43,0,4.1-.31,7.28-.92,9.54-.6,2.27-1.43,3.92-2.48,4.96-1.04,1.05-2.22,1.57-3.51,1.57-1.46,0-2.69-.63-3.67-1.9-.99-1.27-1.57-3.11-1.76-5.51h0ZM869.05,540.17c0-2.12-.37-3.8-1.12-5.02s-1.61-1.83-2.59-1.83c-1.02,0-1.92.65-2.73,1.95s-1.2,3.04-1.2,5.21c0,1.95.38,3.51,1.14,4.67s1.67,1.74,2.74,1.74,1.93-.58,2.67-1.76c.73-1.16,1.09-2.83,1.09-4.97h0Z"/>
      <path class="st3" d="M874,545.55c0-4.99.53-8.78,1.59-11.36s2.63-3.87,4.7-3.87c1.84,0,3.29,1.04,4.35,3.13,1.28,2.53,1.92,6.57,1.92,12.1,0,4.98-.53,8.76-1.59,11.35-1.05,2.59-2.63,3.88-4.71,3.88-1.83,0-3.34-1.14-4.51-3.42s-1.76-6.21-1.76-11.81h0ZM876.43,545.55c0,4.84.36,8.1,1.09,9.74.73,1.65,1.66,2.48,2.81,2.48,1.08,0,1.98-.83,2.71-2.51.73-1.68,1.09-4.9,1.09-9.71s-.37-8.12-1.1-9.77-1.67-2.47-2.84-2.47c-1.07,0-1.97.83-2.69,2.51-.71,1.68-1.07,4.91-1.07,9.72h0Z"/>
      <path class="st3" d="M436.05,514.35l-2.37.29c-.23-1.53-.56-2.63-.99-3.29-.63-.94-1.39-1.42-2.28-1.42-1.38,0-2.49,1.08-3.33,3.26-.71,1.88-1.07,4.65-1.08,8.31.54-1.31,1.23-2.3,2.05-2.97.83-.67,1.7-1.01,2.63-1.01,1.53,0,2.87.88,4.01,2.64s1.71,4.11,1.71,7.06c0,1.98-.28,3.8-.86,5.42-.57,1.62-1.3,2.82-2.2,3.59-.9.77-1.89,1.16-2.98,1.16-1.95,0-3.56-1.11-4.82-3.34-1.27-2.22-1.9-5.94-1.9-11.13,0-5.76.65-9.87,1.95-12.31,1.29-2.46,2.96-3.68,4.97-3.68,1.46,0,2.7.63,3.69,1.91.99,1.26,1.59,3.11,1.8,5.51ZM426.38,527.22c0,2.16.4,3.89,1.2,5.2s1.73,1.96,2.8,1.96c.93,0,1.77-.62,2.5-1.85.74-1.23,1.1-2.93,1.1-5.09s-.36-3.76-1.09-4.93c-.72-1.16-1.61-1.74-2.67-1.74s-1.92.58-2.69,1.74c-.77,1.15-1.15,2.73-1.15,4.71Z"/>
      <path class="st3" d="M440.14,536.89v-4.17h2.7v4.18c0,1.61-.18,2.88-.56,3.8-.37.91-.92,1.62-1.64,2.1l-.65-1.56c.47-.33.83-.81,1.08-1.46.24-.64.37-1.6.4-2.89h-1.32,0Z"/>
      <path class="st3" d="M446.46,510.93v-3.5h12.47v2.85c-1.86,3.07-3.5,7.06-4.9,11.98-1.41,4.92-2.23,9.79-2.44,14.63h-2.44c.03-2.5.34-5.41.93-8.74s1.4-6.5,2.44-9.51c1.03-3.01,2.15-5.58,3.34-7.7h-9.4Z"/>
      <path class="st3" d="M461.3,522.17c0-5,.53-8.79,1.59-11.37,1.07-2.58,2.64-3.87,4.71-3.87,1.83,0,3.29,1.04,4.34,3.14,1.28,2.53,1.92,6.56,1.92,12.1,0,4.97-.52,8.76-1.58,11.34-1.06,2.59-2.64,3.88-4.71,3.88-1.85,0-3.35-1.14-4.52-3.42-1.16-2.28-1.76-6.21-1.76-11.8h0ZM463.73,522.16c0,4.84.37,8.1,1.1,9.74.72,1.66,1.66,2.49,2.81,2.49,1.07,0,1.98-.83,2.71-2.51.72-1.67,1.08-4.91,1.08-9.72s-.36-8.12-1.09-9.76-1.67-2.47-2.85-2.47c-1.06,0-1.96.84-2.68,2.52-.72,1.66-1.08,4.9-1.08,9.71h0Z"/>
      <g>
        <path class="st3" d="M1623.15,152.78v73.64h-2.95v-73.64h2.95Z"/>
        <path class="st3" d="M1622.53,153.77h-5.21c-20.61,0-37.34,6.43-48.92,17.97-11.59,11.55-18.03,28.24-18.03,48.79v5.89h-.99v-5.89c0-20.82,6.55-37.76,18.31-49.49,11.76-11.74,28.74-18.27,49.62-18.27h5.21v.99h0ZM1525.58,226.43v-28.19h2.95v28.19h-2.95ZM1623.74,218.11h4.2v8.31h-4.79v-8.31h.59ZM1626.76,219.28h-2.43v5.95h2.43v-5.95ZM1521.38,218.11h4.2v8.31h-4.79v-8.31h.59ZM1524.4,219.28h-2.43v5.95h2.43v-5.95Z"/>
        <path class="st3" d="M1550.33,220.05c0-5.78-2.29-11.33-6.39-15.42-3.95-3.94-9.39-6.39-15.42-6.39v.83c5.56-.01,10.9,2.2,14.83,6.15,3.94,3.93,6.16,9.26,6.15,14.83h.83,0Z"/>
      </g>
      <path class="st3" d="M2055.77,811.05v7.41h-20.84c.22-2.81.9-5.47,2.05-8,1.14-2.54,3.37-5.85,6.67-9.97,2.61-3.28,4.21-5.49,4.81-6.65.89-1.69,1.33-3.38,1.33-5.09,0-1.81-.36-3.19-1.09-4.12-.74-.92-1.71-1.39-2.92-1.39-2.62,0-4.03,2.18-4.24,6.54l-5.93-.87c.37-4.24,1.43-7.36,3.22-9.33,1.77-1.98,4.15-2.98,7.11-2.98,3.26,0,5.7,1.16,7.36,3.5,1.64,2.33,2.48,5,2.48,8.03,0,1.71-.21,3.36-.64,4.96-.41,1.6-1.06,3.22-1.94,4.84-.88,1.62-2.34,3.7-4.38,6.21-1.91,2.37-3.12,3.94-3.62,4.7-.48.7-.89,1.44-1.23,2.22h11.81Z"/>
      <path class="st3" d="M2071.43,818.46v-8.4h-12.7v-7.03l13.44-26.45h5.02v26.42h3.86v7.06h-3.86v8.4h-5.76ZM2071.43,803v-14.23l-7.13,14.23h7.13Z"/>
      <path class="st3" d="M2104.01,811.05v7.41h-20.84c.22-2.81.9-5.47,2.04-8,1.14-2.54,3.37-5.85,6.67-9.97,2.61-3.28,4.21-5.49,4.81-6.65.89-1.69,1.34-3.38,1.34-5.09,0-1.81-.37-3.19-1.1-4.12-.74-.92-1.71-1.39-2.92-1.39-2.62,0-4.03,2.18-4.24,6.54l-5.93-.87c.37-4.24,1.43-7.36,3.21-9.33,1.78-1.98,4.16-2.98,7.12-2.98,3.26,0,5.7,1.16,7.36,3.5,1.64,2.33,2.48,5,2.48,8.03,0,1.71-.21,3.36-.63,4.96s-1.07,3.22-1.95,4.84c-.88,1.62-2.34,3.7-4.38,6.21-1.91,2.37-3.12,3.94-3.63,4.7-.47.7-.88,1.44-1.22,2.22h11.81,0,0Z"/>
      <path class="st3" d="M2120.09,784.69v-7.41h20.31v5.81c-1.66,2.22-3.35,5.37-5.06,9.46-1.7,4.08-3.02,8.47-3.96,13.15-.93,4.67-1.4,8.92-1.4,12.74h-5.7c.15-6,1.05-11.96,2.68-17.74,1.64-5.92,3.86-11.25,6.66-16.02h-13.51Z"/>
      <path class="st3" d="M2109.08,810.47h5.92v5.72c0,3.25-.34,5.65-1.03,7.25-.83,1.94-2.24,3.4-4.2,4.35l-1.16-3.31c1.16-.53,2-1.25,2.51-2.16s.79-2.2.82-3.87h-2.86v-7.99h0Z"/>
      <path class="st3" d="M2154.27,776.58c3.01,0,5.44,1.57,7.3,4.73,1.86,3.16,2.79,8.68,2.79,16.56s-.92,13.39-2.79,16.55c-1.85,3.16-4.28,4.73-7.27,4.73s-5.45-1.56-7.31-4.69c-1.86-3.14-2.79-8.68-2.79-16.66s.92-13.33,2.79-16.49c1.85-3.16,4.28-4.73,7.28-4.73h0ZM2154.28,783.23c-1.16,0-2.09.85-2.8,2.56-.69,1.7-1.04,5.73-1.04,12.09s.35,10.4,1.04,12.1c.7,1.68,1.63,2.54,2.8,2.54s2.12-.86,2.81-2.56c.68-1.7,1.03-5.72,1.03-12.08s-.35-10.39-1.03-12.09c-.69-1.7-1.62-2.56-2.81-2.56Z"/>
      <path class="st3" d="M402.29-44.79v5.45c0,21.6,6.73,39.15,18.83,51.28,12.11,12.14,29.6,18.89,51.14,18.89h6.17v1.04h-6.17c-21.82,0-39.57-6.86-51.87-19.19s-19.14-30.14-19.14-52.02v-5.45h1.04ZM471.09,35.57v-3.7h7.33v4.22h-7.33v-.52h0ZM472.13,32.91v2.14h5.24v-2.14h-5.24Z"/>
      <g>
        <path class="st3" d="M483.79,58.65h6.19c24.48,0,44.36,7.63,58.11,21.34s21.4,33.54,21.4,57.95v6.99h1.18v-6.99c0-24.73-7.77-44.85-21.76-58.8-13.97-13.93-34.15-21.68-58.95-21.68h-6.19v1.18h0Z"/>
        <path class="st3" d="M486.04,144.94V58.06h-2.95v86.88h2.95Z"/>
        <path class="st3" d="M482.57,136.63h-4.19v8.31h4.78v-8.31h-.59ZM479.56,137.81h2.42v5.94h-2.42v-5.94ZM574.87,136.63h-4.19v8.31h4.78v-8.31h-.59ZM571.85,137.81h2.43v5.94h-2.43v-5.94Z"/>
      </g>
      <path class="st3" d="M478.42,151.6V36.09h-34.57v115.52h34.57,0Z"/>
      <g>
        <path class="st3" d="M270.5,870.61H68.63v36.02h201.87v-36.02ZM271.92,869.19v38.85H67.22v-38.85h204.7Z"/>
        <path class="st3" d="M68.61,890.02h201.9v3.79H68.61v-3.79ZM67.2,888.61v6.62h204.72v-6.62H67.2Z"/>
        <path class="st3" d="M68.61,890.02h3.8v3.79h-3.8v-3.79ZM67.2,888.61v6.62h6.63v-6.62h-6.63ZM266.68,890.02h3.8v3.79h-3.8v-3.79h0ZM265.27,888.61v6.62h6.63v-6.62h-6.63ZM101.67,890.02h3.8v3.79h-3.8v-3.79ZM100.27,888.61v6.62h6.62v-6.62h-6.62Z"/>
      </g>
      <g>
        <path class="st3" d="M549.6,870.61h-201.87v36.02h201.87v-36.02ZM551.01,869.19v38.85h-204.7v-38.85h204.7Z"/>
        <path class="st3" d="M347.7,890.02h201.89v3.79h-201.89v-3.79ZM346.29,888.61v6.62h204.72v-6.62h-204.72,0Z"/>
        <path class="st3" d="M347.7,890.02h3.8v3.79h-3.8v-3.79ZM346.29,888.61v6.62h6.63v-6.62h-6.63ZM545.78,890.02h3.8v3.79h-3.8v-3.79h0ZM544.36,888.61v6.62h6.63v-6.62h-6.63ZM380.77,890.02h3.8v3.79h-3.8v-3.79ZM379.35,888.61v6.62h6.63v-6.62h-6.63Z"/>
      </g>
      <g>
        <path class="st3" d="M825.15,870.61h-201.88v36.02h201.88v-36.02ZM826.56,869.19v38.85h-204.7v-38.85h204.7Z"/>
        <path class="st3" d="M623.25,890.02h201.9v3.79h-201.9v-3.79ZM621.85,888.61v6.62h204.72v-6.62h-204.72Z"/>
        <path class="st3" d="M623.25,890.02h3.81v3.79h-3.81v-3.79ZM621.85,888.61v6.62h6.63v-6.62h-6.63ZM821.32,890.02h3.81v3.79h-3.81v-3.79ZM819.92,888.61v6.62h6.63v-6.62h-6.63ZM656.32,890.02h3.8v3.79h-3.8v-3.79ZM654.91,888.61v6.62h6.63v-6.62h-6.63Z"/>
      </g>
      <g>
        <path class="st3" d="M1099.52,870.61h-201.87v36.02h201.87v-36.02h0ZM1100.93,869.19v38.85h-204.7v-38.85h204.7Z"/>
        <path class="st3" d="M897.62,890.02h201.9v3.79h-201.9v-3.79ZM896.21,888.61v6.62h204.72v-6.62h-204.72Z"/>
        <path class="st3" d="M897.62,890.02h3.8v3.79h-3.8v-3.79ZM896.21,888.61v6.62h6.63v-6.62h-6.63ZM1095.7,890.02h3.8v3.79h-3.8v-3.79ZM1094.29,888.61v6.62h6.62v-6.62h-6.62ZM930.69,890.02h3.8v3.79h-3.8v-3.79ZM929.28,888.61v6.62h6.62v-6.62h-6.62Z"/>
      </g>
      <g>
        <path class="st3" d="M1376.26,870.61h-201.88v36.02h201.88v-36.02h0ZM1377.66,869.19v38.85h-204.7v-38.85h204.7Z"/>
        <path class="st3" d="M1174.35,890.02h201.9v3.79h-201.9v-3.79ZM1172.95,888.61v6.62h204.71v-6.62h-204.71Z"/>
        <path class="st3" d="M1174.35,890.02h3.81v3.79h-3.81v-3.79ZM1172.95,888.61v6.62h6.63v-6.62h-6.63ZM1372.43,890.02h3.81v3.79h-3.81v-3.79ZM1371.02,888.61v6.62h6.63v-6.62h-6.63ZM1207.43,890.02h3.8v3.79h-3.8v-3.79ZM1206.01,888.61v6.62h6.63v-6.62h-6.63Z"/>
      </g>
      <g>
        <path class="st3" d="M1651.8,870.61h-201.87v36.02h201.87v-36.02h0ZM1653.22,869.19v38.85h-204.7v-38.85h204.7Z"/>
        <path class="st3" d="M1449.91,890.02h201.89v3.79h-201.89v-3.79ZM1448.5,888.61v6.62h204.72v-6.62h-204.72Z"/>
        <path class="st3" d="M1449.91,890.02h3.8v3.79h-3.8v-3.79ZM1448.5,888.61v6.62h6.63v-6.62h-6.63ZM1647.98,890.02h3.8v3.79h-3.8v-3.79ZM1646.57,888.61v6.62h6.63v-6.62h-6.63ZM1482.97,890.02h3.8v3.79h-3.8v-3.79ZM1481.56,888.61v6.62h6.63v-6.62h-6.63Z"/>
      </g>
      <g>
        <path class="st3" d="M1927.36,870.61h-201.88v36.02h201.88v-36.02h0ZM1928.76,869.19v38.85h-204.7v-38.85h204.7Z"/>
        <path class="st3" d="M1725.46,890.02h201.9v3.79h-201.9v-3.79ZM1724.05,888.61v6.62h204.71v-6.62h-204.71Z"/>
        <path class="st3" d="M1725.46,890.02h3.8v3.79h-3.8v-3.79ZM1724.05,888.61v6.62h6.62v-6.62h-6.62ZM1923.53,890.02h3.81v3.79h-3.81v-3.79ZM1922.13,888.61v6.62h6.63v-6.62h-6.63ZM1758.52,890.02h3.81v3.79h-3.81v-3.79ZM1757.11,888.61v6.62h6.63v-6.62h-6.63Z"/>
      </g>
      <g>
        <path class="st3" d="M2201.72,870.61h-201.87v36.02h201.87v-36.02h0ZM2203.14,869.19v38.85h-204.7v-38.85h204.7Z"/>
        <path class="st3" d="M1999.83,890.02h201.89v3.79h-201.89v-3.79ZM1998.42,888.61v6.62h204.72v-6.62h-204.72Z"/>
        <path class="st3" d="M1999.83,890.02h3.8v3.79h-3.8v-3.79h0ZM1998.42,888.61v6.62h6.63v-6.62h-6.63ZM2197.9,890.02h3.8v3.79h-3.8v-3.79ZM2196.49,888.61v6.62h6.63v-6.62h-6.63ZM2032.89,890.02h3.8v3.79h-3.8v-3.79ZM2031.49,888.61v6.62h6.62v-6.62h-6.62Z"/>
      </g>
      <g>
        <path class="st3" d="M8.57,411.79h37.43v173.41H8.57v-173.41Z"/>
        <path class="st3" d="M45.3,584.14v-172.35H9.28v172.35s36.02,0,36.02,0ZM46.72,585.56H7.87v-175.18h38.85v175.18Z"/>
        <path class="st3" d="M21.38,411.06h5.2v173.06h-5.2v-173.06Z"/>
        <path class="st3" d="M25.87,411.77v172.37h-3.78v-172.37h3.78ZM27.29,410.36h-6.61v175.2h6.61s0-175.2,0-175.2Z"/>
        <path class="st3" d="M21.38,411.07h5.2v5.21h-5.2v-5.21Z"/>
        <path class="st3" d="M25.87,411.77v3.8h-3.78v-3.8h3.78ZM27.29,410.36h-6.61v6.63h6.61s0-6.63,0-6.63Z"/>
        <path class="st3" d="M21.38,579.62h5.2v5.21h-5.2v-5.21Z"/>
        <path class="st3" d="M25.87,580.32v3.8h-3.78v-3.8h3.78ZM27.29,578.91h-6.61v6.63h6.61s0-6.63,0-6.63Z"/>
        <path class="st3" d="M21.38,444.13h5.2v5.21h-5.2v-5.21Z"/>
        <path class="st3" d="M25.87,444.84v3.8h-3.78v-3.8h3.78ZM27.29,443.42h-6.61v6.63h6.61s0-6.63,0-6.63Z"/>
      </g>
      <g>
        <path class="st3" d="M8.57-77.92h37.43V95.5H8.57V-77.92Z"/>
        <path class="st3" d="M45.3,94.44V-77.92H9.28V94.44s36.02,0,36.02,0ZM46.72,95.86H7.87V-79.33h38.85V95.86Z"/>
        <path class="st3" d="M21.38-78.64h5.2V94.42h-5.2V-78.64Z"/>
        <path class="st3" d="M25.87-77.94V94.44h-3.78V-77.94h3.78ZM27.29-79.34h-6.61V95.86h6.61s0-175.2,0-175.2Z"/>
        <path class="st3" d="M21.38,89.91h5.2v5.21h-5.2v-5.21Z"/>
        <path class="st3" d="M25.87,90.62v3.8h-3.78v-3.8h3.78ZM27.29,89.21h-6.61v6.63h6.61s0-6.63,0-6.63Z"/>
      </g>
      <g>
        <path class="st3" d="M8.57,662.55h37.43v173.41H8.57v-173.41Z"/>
        <path class="st3" d="M45.3,834.9v-172.35H9.28v172.35s36.02,0,36.02,0ZM46.72,836.31H7.87v-175.18h38.85v175.18h0Z"/>
        <path class="st3" d="M21.38,661.82h5.2v173.06h-5.2v-173.06Z"/>
        <path class="st3" d="M25.87,662.53v172.38h-3.78v-172.38h3.78ZM27.29,661.11h-6.61v175.2h6.61s0-175.2,0-175.2Z"/>
        <path class="st3" d="M21.38,661.83h5.2v5.21h-5.2v-5.21Z"/>
        <path class="st3" d="M25.87,662.53v3.8h-3.78v-3.8h3.78ZM27.29,661.11h-6.61v6.63h6.61s0-6.63,0-6.63Z"/>
        <path class="st3" d="M21.38,830.38h5.2v5.21h-5.2v-5.21Z"/>
        <path class="st3" d="M25.87,831.08v3.8h-3.78v-3.8h3.78ZM27.29,829.66h-6.61v6.63h6.61s0-6.63,0-6.63Z"/>
        <path class="st3" d="M21.38,694.89h5.2v5.21h-5.2v-5.21Z"/>
        <path class="st3" d="M25.87,695.59v3.8h-3.78v-3.8h3.78ZM27.29,694.18h-6.61v6.63h6.61s0-6.63,0-6.63Z"/>
      </g>
      <g>
        <path class="st3" d="M8.57,170.48h37.43v173.41H8.57v-173.41Z"/>
        <path class="st3" d="M45.3,342.84v-172.36H9.28v172.36s36.02,0,36.02,0ZM46.72,344.24H7.87v-175.18h38.85v175.18Z"/>
        <path class="st3" d="M21.38,169.76h5.2v173.06h-5.2v-173.06Z"/>
        <path class="st3" d="M25.87,170.46v172.38h-3.78v-172.38h3.78ZM27.29,169.05h-6.61v175.2h6.61v-175.21h0Z"/>
        <path class="st3" d="M21.38,169.76h5.2v5.21h-5.2v-5.21Z"/>
        <path class="st3" d="M25.87,170.46v3.8h-3.78v-3.8h3.78ZM27.29,169.05h-6.61v6.63h6.61s0-6.63,0-6.63Z"/>
        <path class="st3" d="M21.38,338.31h5.2v5.21h-5.2v-5.21Z"/>
        <path class="st3" d="M25.87,339.01v3.8h-3.78v-3.8h3.78ZM27.29,337.61h-6.61v6.63h6.61s0-6.63,0-6.63Z"/>
        <path class="st3" d="M21.38,202.82h5.2v5.21h-5.2v-5.21Z"/>
        <path class="st3" d="M25.87,203.52v3.8h-3.78v-3.8h3.78ZM27.29,202.12h-6.61v6.62h6.61s0-6.62,0-6.62Z"/>
      </g>
      <g>
        <path class="st3" d="M2228.49,44.67h37.43v215.5h-37.43V44.67Z"/>
        <path class="st3" d="M2229.2,45.3v214.87h36.02V45.3h-36.02ZM2227.79,43.89h38.85v217.69h-38.85V43.89Z"/>
        <path class="st3" d="M2247.92,43.91h5.2v216.98h-5.2V43.91Z"/>
        <path class="st3" d="M2248.63,260.19V45.3h3.79v214.88h-3.79ZM2247.22,261.6h6.62V43.89h-6.62v217.71Z"/>
        <path class="st3" d="M2247.92,255.68h5.2v5.21h-5.2v-5.21Z"/>
        <path class="st3" d="M2248.63,260.19v-3.8h3.79v3.8h-3.79ZM2247.22,261.6h6.62v-6.63h-6.62v6.63Z"/>
        <path class="st3" d="M2247.92,44.62h5.2v5.21h-5.2v-5.21Z"/>
        <path class="st3" d="M2248.63,49.13v-3.81h3.79v3.81h-3.79ZM2247.22,50.53h6.62v-6.63h-6.62v6.63Z"/>
        <path class="st3" d="M2247.92,222.61h5.2v5.21h-5.2v-5.21Z"/>
        <path class="st3" d="M2248.63,227.12v-3.8h3.79v3.8h-3.79ZM2247.22,228.54h6.62v-6.63h-6.62v6.63Z"/>
        <path class="st3" d="M2228.5,332.07h37.43v215.5h-37.43v-215.5Z"/>
        <path class="st3" d="M2229.21,332.71v214.86h36.02v-214.86h-36.02ZM2227.8,331.29h38.85v217.69h-38.85v-217.69Z"/>
        <path class="st3" d="M2247.92,331.31h5.2v216.98h-5.2v-216.98Z"/>
        <path class="st3" d="M2248.63,547.59v-214.89h3.79v214.89h-3.79ZM2247.22,549h6.62v-217.71h-6.62v217.71h0Z"/>
        <path class="st3" d="M2247.92,543.08h5.2v5.21h-5.2v-5.21Z"/>
        <path class="st3" d="M2248.63,547.59v-3.8h3.79v3.8h-3.79ZM2247.22,549h6.62v-6.63h-6.62v6.63Z"/>
        <path class="st3" d="M2247.92,332.01h5.2v5.21h-5.2v-5.21Z"/>
        <path class="st3" d="M2248.63,336.53v-3.8h3.79v3.8h-3.79ZM2247.22,337.94h6.62v-6.63h-6.62v6.63Z"/>
        <path class="st3" d="M2247.92,510.02h5.2v5.21h-5.2v-5.21Z"/>
        <path class="st3" d="M2248.63,514.53v-3.8h3.79v3.8h-3.79ZM2247.22,515.94h6.62v-6.63h-6.62v6.63Z"/>
        <path class="st3" d="M2228.5,619.48h37.43v215.5h-37.43v-215.5Z"/>
        <path class="st3" d="M2229.21,620.11v214.86h36.02v-214.86h-36.02ZM2227.8,618.7h38.85v217.69h-38.85v-217.69Z"/>
        <path class="st3" d="M2247.93,618.72h5.2v216.98h-5.2v-216.98Z"/>
        <path class="st3" d="M2248.64,835v-214.89h3.78v214.89h-3.78,0ZM2247.23,836.41h6.61v-217.71h-6.61v217.71Z"/>
        <path class="st3" d="M2247.93,830.49h5.2v5.21h-5.2v-5.21Z"/>
        <path class="st3" d="M2248.64,835v-3.8h3.78v3.8h-3.78,0ZM2247.23,836.41h6.61v-6.63h-6.61v6.63Z"/>
        <path class="st3" d="M2247.93,619.42h5.2v5.21h-5.2v-5.21Z"/>
        <path class="st3" d="M2248.64,623.93v-3.8h3.78v3.8h-3.78,0ZM2247.23,625.34h6.61v-6.63h-6.61v6.63Z"/>
        <path class="st3" d="M2247.93,797.42h5.2v5.21h-5.2v-5.21Z"/>
        <path class="st3" d="M2248.64,801.93v-3.81h3.78v3.81h-3.78,0ZM2247.23,803.34h6.61v-6.63h-6.61v6.63Z"/>
      </g>
      <path class="st3" d="M1789.03,538.28h82.52v8.31h-82.52v-8.31h0Z"/>
      <path class="st3" d="M1797.33,361.81v183.34h-8.31v-183.34h8.31ZM1871.54,362.49v85.55h-8.31v-85.55h8.31ZM1871.54,531.39v13h-8.31v-13h8.31Z"/>
      <g>
        <path class="st3" d="M1814.35,393.09c0-.22.04-.64.04-.77v-24.32h27.17v24.44s.03.43.03.65c0,7.28-6.1,13.19-13.61,13.19s-13.62-5.92-13.62-13.19ZM1812.69,393.09c0,8.2,6.84,14.85,15.28,14.85s15.28-6.65,15.28-14.85c0-.27-.04-.77-.04-.77v-25.97h-30.48v25.97s-.04.5-.04.77h0Z"/>
        <path class="st3" d="M1817.74,364.14h20.46v1.7h-20.46v-1.7h0ZM1816.09,362.49v5.01h23.76v-5.01h-23.76,0Z"/>
      </g>
      <g>
        <path class="st3" d="M1834.91,456.78v40.76h-36.29v-40.76h36.29ZM1836.19,455.49h-38.86v43.33h38.86v-43.33Z"/>
        <path class="st3" d="M1830.72,462.39c.95,0,1.73.78,1.73,1.73v25.95c0,.95-.78,1.72-1.73,1.72h-13.81c-.95,0-1.73-.77-1.73-1.72v-25.95c0-.95.78-1.73,1.73-1.73h13.81ZM1830.72,461.11h-13.81c-1.67,0-3.02,1.35-3.02,3.02v25.95c0,1.66,1.35,3.01,3.02,3.01h13.82c1.67,0,3.02-1.35,3.02-3.02v-25.94c0-1.67-1.35-3.02-3.02-3.02h0ZM1811.86,474.18c.57,0,1.04-.46,1.04-1.03,0-.58-.47-1.04-1.04-1.04s-1.04.47-1.04,1.04.46,1.03,1.04,1.03ZM1811.86,482.09c.57,0,1.04-.46,1.04-1.04h0c0-.58-.47-1.04-1.04-1.04-.58,0-1.04.46-1.04,1.03s.46,1.04,1.04,1.04Z"/>
        <path class="st2" d="M1811.1,477.1h7.05"/>
        <path class="st3" d="M1801.71,458.93v2.57h-3.09v-2.58h3.09ZM1802.99,457.64h-5.65v5.15h5.65v-5.15ZM1801.71,492.69v2.58h-3.09v-2.58h3.09ZM1802.99,491.41h-5.65v5.14h5.65v-5.14Z"/>
        <path class="st4" d="M1800.16,462.62v28.79"/>
      </g>
      <g>
        <path class="st3" d="M1719.45,396.99h42.75c2.61,0,5.11,1.05,6.95,2.9,1.85,1.84,2.88,4.33,2.89,6.94v43.49c0,2.6-1.04,5.1-2.89,6.94-1.84,1.85-4.34,2.89-6.95,2.89h-42.75c-2.61,0-5.11-1.04-6.95-2.89-1.84-1.84-2.88-4.33-2.89-6.94v-43.49c0-2.6,1.04-5.1,2.89-6.94,1.78-1.79,4.24-2.9,6.95-2.9ZM1762.2,396.39h-42.75c-2.87,0-5.47,1.18-7.36,3.07-1.96,1.95-3.07,4.59-3.07,7.36v43.49c0,2.87,1.17,5.47,3.07,7.36,1.95,1.96,4.6,3.06,7.36,3.06h42.75c2.76,0,5.41-1.1,7.36-3.06,1.96-1.95,3.07-4.59,3.07-7.36v-43.49c0-2.87-1.17-5.47-3.07-7.36-1.89-1.89-4.49-3.07-7.36-3.07Z"/>
        <path class="st3" d="M1720.93,399.2h39.79c2.42,0,4.75.96,6.46,2.68,1.71,1.71,2.67,4.03,2.68,6.45v40.47c0,2.42-.96,4.74-2.68,6.45-1.71,1.72-4.03,2.68-6.46,2.69h-39.79c-2.42,0-4.74-.97-6.45-2.69-1.71-1.71-2.68-4.03-2.68-6.45v-40.47c0-2.42.97-4.74,2.68-6.45,1.71-1.71,4.03-2.68,6.45-2.68ZM1760.71,398.61h-39.79c-2.57,0-5.04,1.03-6.86,2.85-1.83,1.82-2.85,4.29-2.86,6.87v40.47c0,2.58,1.03,5.05,2.86,6.87,1.81,1.83,4.28,2.86,6.86,2.86h39.79c2.58,0,5.05-1.03,6.87-2.86,1.83-1.82,2.86-4.29,2.86-6.87v-40.47c0-2.58-1.03-5.05-2.86-6.87-1.82-1.82-4.29-2.85-6.87-2.85Z"/>
        <path class="st3" d="M1706.85,394.19h67.94v68.75h-67.94v-68.75h0ZM1775.38,393.01h-69.7v71.11h70.3v-71.11h-.59Z"/>
        <path class="st3" d="M1719.13,404.36c.62,0,1.18.26,1.58.66.41.4.66.96.66,1.58s-.25,1.18-.66,1.58c-.42.43-.99.66-1.58.66-.61,0-1.18-.25-1.58-.66-.4-.4-.65-.96-.65-1.58s.25-1.18.65-1.58c.42-.42.99-.66,1.58-.66h0ZM1721.14,404.6c-.51-.51-1.22-.83-2.01-.83s-1.48.32-1.99.83c-.54.53-.84,1.25-.83,2.01,0,1.56,1.25,2.83,2.81,2.84.76,0,1.48-.3,2.02-.83,1.11-1.11,1.11-2.9,0-4.01h0Z"/>
      </g>
      <path class="st3" d="M1859.36,506.86v3.5h-12.8c-.03-1.42.31-3.03,1.02-4.79.71-1.76,2.03-3.84,3.92-6.24,2.23-2.8,3.68-4.96,4.36-6.5.68-1.53,1.03-2.96,1.03-4.27,0-1.52-.35-2.77-1.05-3.73-.7-.95-1.57-1.43-2.61-1.43-1.1,0-2.01.51-2.72,1.54-.71,1.04-1.06,2.53-1.06,4.45l-2.44-.37c.17-2.86.81-5.01,1.93-6.46s2.57-2.17,4.38-2.17c1.98,0,3.47.84,4.48,2.52,1.01,1.69,1.52,3.6,1.52,5.74,0,1.9-.4,3.72-1.19,5.45-.79,1.76-2.31,4.08-4.53,6.99-1.42,1.83-2.33,3.09-2.75,3.75-.4.63-.74,1.31-1.01,2.01h9.51,0Z"/>
      <path class="st3" d="M1863.21,510.36v-4.17h2.7v4.17c0,1.62-.18,2.89-.56,3.8-.37.92-.92,1.62-1.63,2.11l-.66-1.57c.48-.32.84-.81,1.08-1.45.24-.65.37-1.61.4-2.89h-1.32,0Z"/>
      <path class="st3" d="M1884.37,495.63c0-4.99.53-8.79,1.59-11.36,1.07-2.58,2.64-3.87,4.71-3.87,1.83,0,3.29,1.04,4.34,3.13,1.28,2.53,1.93,6.57,1.93,12.1,0,4.98-.52,8.76-1.58,11.35-1.05,2.59-2.63,3.87-4.71,3.87-1.84,0-3.35-1.13-4.52-3.41-1.16-2.28-1.75-6.22-1.75-11.81ZM1886.81,495.63c0,4.84.37,8.1,1.1,9.74.72,1.66,1.66,2.48,2.81,2.48,1.07,0,1.97-.83,2.71-2.51.72-1.67,1.08-4.9,1.08-9.71s-.36-8.12-1.09-9.76-1.67-2.47-2.85-2.47c-1.06,0-1.95.83-2.68,2.51s-1.08,4.91-1.08,9.72h0Z"/>
      <path class="st3" d="M1869.72,503.44l2.28-.29c.36,3.14,1.43,4.7,3.21,4.7.79,0,1.51-.34,2.17-1.02.65-.69,1.19-1.92,1.64-3.67.45-1.74.67-3.8.67-6.13v-.74c-.49,1.22-1.15,2.18-1.98,2.89s-1.69,1.06-2.56,1.06c-1.57,0-2.93-.87-4.07-2.62-1.14-1.73-1.71-4.13-1.71-7.15s.59-5.57,1.77-7.38c1.18-1.8,2.62-2.69,4.32-2.69,1.19,0,2.31.5,3.35,1.5,1.04,1,1.84,2.48,2.42,4.44.56,1.94.84,4.76.84,8.43,0,4.1-.3,7.28-.91,9.54s-1.43,3.92-2.48,4.96-2.22,1.56-3.51,1.56c-1.46,0-2.7-.63-3.68-1.9-.98-1.27-1.57-3.12-1.76-5.51h0ZM1879.44,490.26c0-2.12-.38-3.8-1.12-5.02-.75-1.22-1.61-1.83-2.6-1.83s-1.92.65-2.73,1.95c-.79,1.3-1.19,3.04-1.19,5.21,0,1.95.38,3.51,1.14,4.67s1.67,1.74,2.73,1.74,1.94-.58,2.68-1.76c.73-1.16,1.09-2.83,1.09-4.97h0Z"/>
      <path class="st3" d="M1734.35,542.14v3.5h-12.8c-.03-1.42.31-3.02,1.02-4.78.71-1.76,2.03-3.84,3.92-6.25,2.22-2.8,3.68-4.96,4.36-6.49.69-1.53,1.03-2.96,1.03-4.28,0-1.52-.35-2.76-1.05-3.72-.7-.96-1.57-1.43-2.6-1.43-1.11,0-2.02.51-2.73,1.54-.7,1.03-1.06,2.52-1.06,4.45l-2.44-.37c.17-2.87.81-5.01,1.93-6.47,1.11-1.44,2.57-2.17,4.38-2.17,1.97,0,3.47.84,4.49,2.53,1.01,1.69,1.51,3.59,1.51,5.74,0,1.89-.39,3.71-1.19,5.45-.79,1.74-2.31,4.07-4.53,6.99-1.41,1.83-2.34,3.08-2.75,3.75-.4.63-.74,1.3-1.01,1.99h9.51Z"/>
      <path class="st3" d="M1738.21,545.64v-4.16h2.7v4.17c0,1.61-.19,2.88-.57,3.8-.37.91-.92,1.62-1.63,2.1l-.66-1.56c.48-.33.84-.81,1.08-1.46.24-.64.38-1.6.4-2.89h-1.31Z"/>
      <path class="st3" d="M1759.36,530.92c0-5,.53-8.79,1.6-11.37,1.06-2.58,2.63-3.87,4.7-3.87,1.83,0,3.29,1.04,4.35,3.14,1.27,2.53,1.93,6.56,1.93,12.1,0,4.97-.53,8.76-1.59,11.34-1.05,2.59-2.63,3.88-4.71,3.88-1.83,0-3.34-1.14-4.51-3.42s-1.77-6.21-1.77-11.8h0ZM1761.8,530.91c0,4.85.37,8.1,1.1,9.75.73,1.64,1.66,2.48,2.81,2.48,1.08,0,1.98-.83,2.71-2.51s1.09-4.91,1.09-9.72-.37-8.11-1.1-9.76c-.73-1.64-1.67-2.46-2.84-2.46-1.07,0-1.96.83-2.69,2.51-.71,1.67-1.08,4.9-1.08,9.71h0Z"/>
      <path class="st3" d="M1744.35,537.81l2.51-.29c.19,1.89.63,3.31,1.3,4.23.68.92,1.47,1.39,2.38,1.39,1.12,0,2.08-.65,2.91-1.96.8-1.3,1.21-3.1,1.21-5.36,0-2.14-.39-3.78-1.18-4.95-.78-1.17-1.76-1.76-2.96-1.76-.71,0-1.38.26-2.02.77-.62.5-1.12,1.2-1.48,2.12l-2.24-.45,1.88-15.35h9.58v3.5h-7.71l-1.02,8.07c1.14-1.27,2.36-1.91,3.64-1.91,1.62,0,3.03.88,4.22,2.62,1.19,1.74,1.78,4.09,1.78,7.05s-.59,5.42-1.78,7.5c-1.19,2.08-2.81,3.13-4.81,3.13-1.67,0-3.08-.73-4.23-2.2-1.15-1.48-1.81-3.52-1.98-6.13h0Z"/>
      <path class="st3" d="M2019.6-3.98V.21h8.31v-4.78h-8.31v.59ZM2020.78-.96v-2.43h5.95V-.96h-5.95Z"/>
      <g>
        <path class="st3" d="M1935.87,525.98v-5.21c0-20.61-6.43-37.34-17.96-48.92-11.55-11.59-28.25-18.03-48.79-18.03h-5.89v-.99h5.89c20.81,0,37.75,6.55,49.49,18.31,11.73,11.76,18.26,28.74,18.26,49.62v5.21h-.99Z"/>
        <path class="st3" d="M1863.23,523.72h73.63v2.96h-73.63v-2.96h0Z"/>
        <path class="st3" d="M1871.54,527.19v4.2h-8.31v-4.79h8.31v.59ZM1870.36,530.21v-2.43h-5.94v2.43h5.94ZM1871.54,448.64v4.19h-8.31v-4.78h8.31v.59h0ZM1870.36,451.64v-2.42h-5.94v2.42h5.94Z"/>
      </g>
      <g>
        <path class="st3" d="M1711.09,473.95h5.2c20.61,0,37.35,6.43,48.93,17.96,11.58,11.55,18.02,28.25,18.02,48.79v5.88h.99v-5.88c0-20.81-6.54-37.76-18.31-49.49-11.77-11.73-28.75-18.26-49.63-18.26h-5.2v.99h0Z"/>
        <path class="st3" d="M1713.34,546.59v-73.63h-2.95v73.63h2.95Z"/>
        <path class="st3" d="M1709.87,538.28h-4.19v8.31h4.78v-8.31h-.59ZM1706.85,539.46h2.43v5.94h-2.43v-5.94ZM1788.43,538.28h-4.2v8.31h4.79v-8.31h-.59ZM1785.42,539.46h2.43v5.94h-2.43v-5.94Z"/>
      </g>
      <path class="st3" d="M1853.59,17.92h413.03V.21h-413.03v17.72ZM1687.96,344.78h183.35v17.71h-183.35v-17.71ZM433.01,478.08v-133.3h-8.31v133.3h8.31ZM577.01,464.25h-60.65v8.31h60.65v-8.31Z"/>
      <g>
        <path class="st3" d="M545.3,412.93c.22,0,.64.03.77.03h24.32v27.17h-24.44s-.43.04-.65.04c-7.28,0-13.19-6.11-13.19-13.62s5.91-13.61,13.19-13.61ZM545.3,411.27c-8.2,0-14.86,6.84-14.86,15.27s6.66,15.28,14.86,15.28c.26,0,.77-.04.77-.04h25.97v-30.48h-25.97s-.51-.03-.77-.03h0Z"/>
        <path class="st3" d="M574.24,416.31v20.46h-1.71v-20.46h1.71ZM575.89,414.66h-5.02v23.77h5.02v-23.77h0Z"/>
      </g>
      <g>
        <path class="st3" d="M538.32,497.29v40.76h36.29v-40.76h-36.29ZM537.04,496h38.86v43.33h-38.86v-43.33Z"/>
        <path class="st3" d="M542.51,502.91c-.95,0-1.73.77-1.73,1.72v25.95c0,.95.78,1.72,1.73,1.72h13.82c.95,0,1.73-.77,1.73-1.72v-25.95c0-.95-.78-1.72-1.73-1.72h-13.82ZM542.51,501.63h13.82c1.66,0,3.01,1.34,3.02,3.01h0v25.96c0,1.66-1.35,3.01-3.02,3.01h-13.82c-1.66,0-3.02-1.35-3.02-3.01h0v-25.95c0-1.66,1.35-3.02,3.01-3.02h0s0,0,0,0ZM561.37,514.7c-.57,0-1.04-.47-1.04-1.04,0-.57.47-1.04,1.04-1.04s1.04.47,1.04,1.04-.47,1.04-1.04,1.04ZM561.37,522.6c-.57,0-1.04-.46-1.04-1.03,0-.58.47-1.04,1.04-1.04s1.04.47,1.04,1.04c0,.57-.47,1.03-1.04,1.03Z"/>
        <path class="st2" d="M562.13,517.61h-7.06"/>
        <path class="st3" d="M571.52,499.44v2.58h3.09v-2.59h-3.09ZM570.24,498.16h5.66v5.14h-5.66v-5.15h0ZM571.52,533.21v2.58h3.09v-2.58h-3.09ZM570.24,531.92h5.66v5.14h-5.66v-5.14Z"/>
        <path class="st4" d="M573.07,503.13v28.79"/>
      </g>
      <g>
        <path class="st3" d="M497.34,556.01v-5.21c0-20.6-6.43-37.34-17.96-48.92-11.55-11.58-28.25-18.02-48.79-18.02h-5.89v-1h5.89c20.82,0,37.75,6.55,49.49,18.32,11.73,11.77,18.26,28.74,18.26,49.62v5.21h-.99Z"/>
        <path class="st3" d="M424.7,553.77h73.63v2.95h-73.63v-2.95Z"/>
        <path class="st3" d="M433.01,557.23v4.2h-8.31v-4.78h8.31v.58h0ZM431.82,560.24v-2.43h-5.95v2.43h5.95ZM433.01,478.67v4.19h-8.31v-4.78h8.31v.59h0ZM431.82,481.69v-2.43h-5.95v2.43h5.95Z"/>
      </g>
      <g>
        <path class="st3" d="M438.42,399.92h5.21c20.6,0,37.34,6.42,48.92,17.96s18.01,28.24,18.01,48.79v5.89h.99v-5.89c0-20.82-6.54-37.75-18.3-49.49-11.77-11.74-28.75-18.27-49.62-18.27h-5.21v1h0Z"/>
        <path class="st3" d="M440.67,472.56v-73.64h-2.95v73.64h2.95Z"/>
        <path class="st3" d="M437.2,464.25h-4.19v8.31h4.78v-8.31h-.59ZM434.19,465.44h2.42v5.94h-2.42v-5.94ZM515.76,464.25h-4.2v8.31h4.79v-8.31h-.59ZM512.75,465.44h2.43v5.94h-2.43v-5.94Z"/>
      </g>
      <path class="st3" d="M433.01,561.43v12.81h-8.31v-12.81h8.31ZM1705.68,363.25v183.34h-8.31v-183.34h8.31Z"/>
    </g>
  </g>
</svg>