<svg version="1.1" xmlns="http://www.w3.org/2000/svg" xmlns:xlink="http://www.w3.org/1999/xlink" viewBox="1.836 0 2270.21 916.262"><path d="m567.718 772.834-87.548 46.115-1.218-97.213-1.218 6.3v46.136H297.405v19.705l-295.569.566.124-791.95L2269.661 0l2.385 916.262H1849.58l-.678-204.674-186.45.623h-31.469l-1.259 64.929-123.276-17.285.435-52.582-626.502-.646v-9.405l-282.097.752-.628 24.91-26.19-.416-3.747 50.366Z" fill="none" stroke-width="0"></path><path fill="none" stroke-width="0" d="M580.255 718.283H463.243v49.68L34.721 772.24V50.776l2184.38-7.584v861.734l-370.433 3.838V691.077l-970.887 2.543-.817-4.839h-296.28l-.429 29.502z"></path><clipPath id="a"><path d="m567.718 772.834-87.548 46.115-1.218-97.213-1.218 6.3v46.136H297.405v19.705l-295.569.566.124-791.95L2269.661 0l2.385 916.262H1849.58l-.678-204.674-186.45.623h-31.469l-1.259 64.929-123.276-17.285.435-52.582-626.502-.646v-9.405l-282.097.752-.628 24.91-26.19-.416-3.747 50.366Z" fill="none" stroke-width="0"></path></clipPath><g data-name="Layer 1" clip-path="url(#a)"><g data-name="Слой_1"><path fill="none" stroke="#231f20" stroke-miterlimit="22.983" stroke-width=".511" d="m1213.18 812.778-47.568-101.052m47.208 101.554V711.725m72.09 223.789V833.96m-549.188 85.724V818.131m453.348-56.581v-49.824m47.499 101.554V711.725m24.601 223.789V833.96m-501.7 85.724V818.131m430.453 117.383V833.96m-359.215 85.724V818.131m429.6-4.851V711.725m-22.888 223.789V833.96m-454.21 85.724V818.131m382.963 117.383V833.96m-311.716 85.724V818.131m429.6-4.851V711.725m-70.385 223.789V833.96m-406.713 85.724V818.131m335.465 117.383V833.96m-264.218 85.724V818.131m429.6-4.851V711.725m-189.131 223.789V833.96m-216.72 85.724V818.131m405.851-54.967h-94.986m-94.145 122.235h166.234M901.955 869.57H735.722m493.698-123.719-16.6 17.313 16.601 17.314m38.887 87.608 16.601 17.313-16.601 17.313m-515.985-50.456-16.601 17.313 16.6 17.303"></path><g data-name="1895110108048"><path fill="#dcdddf" stroke-width="0" d="M1704.133 721h126.736v116.76h-126.736z"></path><g data-name="ифт2"><g fill="#1d1d1b" stroke-width="0" data-name="lift 2"><path d="M1767.16 737.47h-32.902c-5.584 0-10.125 4.542-10.125 10.126v63.568c0 5.584 4.541 10.125 10.125 10.125h32.902c5.584 0 10.135-4.541 10.135-10.125v-63.568c0-5.584-4.551-10.126-10.135-10.126Zm5.754 73.694c0 3.168-2.586 5.744-5.754 5.744h-32.902a5.75 5.75 0 0 1-5.744-5.744v-63.568a5.75 5.75 0 0 1 5.744-5.745h32.902c3.168 0 5.754 2.577 5.754 5.745v63.568Zm32.973-12.271-5.524 5.524v-17.884c0-1.614-1.304-2.928-2.918-2.928s-2.917 1.314-2.917 2.928v17.884l-5.524-5.524a2.928 2.928 0 0 0-4.14 0 2.935 2.935 0 0 0 0 4.13l9.353 9.344a4.482 4.482 0 0 0 2.687 1.283c.17.03.35.06.541.06.181 0 .361-.03.532-.06a4.504 4.504 0 0 0 2.706-1.283l9.344-9.343a2.935 2.935 0 0 0 0-4.13 2.928 2.928 0 0 0-4.14 0Zm-16.883-38.987 5.534-5.534V773.4c0 1.614 1.303 2.917 2.917 2.917s2.928-1.303 2.928-2.917v-19.008l5.504 5.514a2.925 2.925 0 0 0 2.065.862c.742 0 1.493-.29 2.065-.862a2.916 2.916 0 0 0 0-4.13l-9.343-9.343a4.538 4.538 0 0 0-2.436-1.253 2.92 2.92 0 0 0-.792-.12c-.271 0-.522.04-.772.11a4.604 4.604 0 0 0-2.466 1.263l-9.344 9.343a2.916 2.916 0 0 0 0 4.13 2.916 2.916 0 0 0 4.13 0h.01Z"></path><path d="M1750.689 757.871c3.429 0 6.215-2.787 6.215-6.225s-2.787-6.226-6.215-6.226a6.225 6.225 0 1 0 0 12.451Zm.01 28.401c-2.336 0-5.945-.491-7.619-.732l-1.814 24.25c-.14 1.815 1.233 3.399 3.047 3.54h.05a3.293 3.293 0 0 0 3.54-3.038l1.493-17.945c.04-.601.33-1.444 1.343-1.464 1.053-.02 1.343.873 1.384 1.454l1.483 17.945a3.308 3.308 0 0 0 3.54 3.047l.03-.01a3.304 3.304 0 0 0 3.047-3.549l-1.845-24.25c-1.744.25-5.493.752-7.679.752Z"></path><path d="m1764.283 775.946-.902-9.042c-.15-1.825-.993-3.83-3.55-5.113-1.964-.993-8.73-.842-8.73-.842s-7.47-.17-9.585.842c-2.546 1.213-3.328 3.288-3.468 5.113l-.903 9.042-.892 11.59a3.294 3.294 0 0 0 3.028 3.548h.04c.621.05 1.213-.08 1.724-.341l1.273-17.905a.83.83 0 0 1 1.654.11l-.772 10.918c1.564.23 5.233.742 7.499.742 2.135 0 5.995-.532 7.619-.772l-.702-10.897a.836.836 0 0 1 .772-.883.84.84 0 0 1 .892.782l1.163 17.915a3.19 3.19 0 0 0 1.655.31h.04a3.3 3.3 0 0 0 3.037-3.538l-.902-11.589.01.01Z"></path></g></g></g><g data-name="1895110080640"><path fill="#dcdddf" stroke-width="0" d="M1704.133 880.356h126.736v127.688h-126.736z"></path><g data-name="ифт2-2"><g data-name="lift 2-2" fill="#1d1d1b" stroke-width="0"><path d="M1767.16 902.29h-32.902c-5.584 0-10.125 4.542-10.125 10.126v63.568c0 5.584 4.541 10.126 10.125 10.126h32.902c5.584 0 10.125-4.542 10.125-10.126v-63.568c0-5.584-4.541-10.125-10.125-10.125Zm5.754 73.694c0 3.168-2.586 5.745-5.754 5.745h-32.902a5.75 5.75 0 0 1-5.744-5.745v-63.568a5.75 5.75 0 0 1 5.744-5.744h32.902a5.75 5.75 0 0 1 5.744 5.744v63.568h.01Zm16.09-51.247 5.534-5.544v19.027c0 1.614 1.303 2.928 2.917 2.928s2.928-1.314 2.928-2.928v-18.997l5.504 5.514a2.957 2.957 0 0 0 2.065.852c.742 0 1.493-.29 2.065-.852a2.928 2.928 0 0 0 0-4.14l-9.343-9.344a4.608 4.608 0 0 0-2.436-1.253 2.92 2.92 0 0 0-.792-.12c-.271 0-.522.05-.772.12a4.47 4.47 0 0 0-2.466 1.263l-9.344 9.343a2.916 2.916 0 0 0 0 4.13 2.916 2.916 0 0 0 4.13 0h.01Z"></path><path d="M1750.689 922.692c3.429 0 6.215-2.787 6.215-6.226s-2.787-6.225-6.215-6.225a6.225 6.225 0 1 0 0 12.45Z"></path></g></g></g><path d="M23.287 6.54h2239.337v1799H3.869V6.54h19.419Zm2200.49 38.837H42.706v1721.316h2181.071V45.377Z" fill="#58595b" stroke-width="0"></path><path fill="#58595b" stroke-width="0" d="M1669.768 1123.923V989.027h23.618v27.368h150.315v-148.79h-150.315v31.558h-23.618v-75.97h23.618v20.793h150.315v-132.25h-150.315v21.233h-23.618v-44.851h197.542v435.805h-23.61v-83.91h-150.314v83.91h-23.618zM880.703 688.107h592.675v23.62H901.955V818.13H571.894v-23.619h306.443V688.107h2.366zM999.8 813.28h352.076v23.618h-328.458v103.548H571.462v-23.609H999.8V813.28z"></path><path fill="#58595b" stroke-width="0" d="M571.894 795.284V688.107h23.618v107.177h-23.618zm0-344.197v116.861h23.618v-116.86h-23.618zm0-444.547v198.174h23.618V6.54h-23.618zm547.152 444.547v119.438h23.619V451.087h-23.619zm330.714 237.02v131.077h23.618V688.107h-23.618zM1119.046 6.54v198.174h23.619V6.54h-23.619zm559.012 444.547v119.438h23.619V451.087h-23.619zm0-444.547v198.174h23.619V6.54h-23.619zm-184.991 462.191h184.991v17.704h-184.99v-17.704zm191.177 187.056v55.618h17.714v-55.618h-17.714zm-1412.348 148.7h202.525v34.556H271.896v-34.556zM3.869 765.05h291.426v34.565H3.869V765.05z"></path><path fill="#58595b" stroke-width="0" d="M474.42 847.925v-17.714h-34.565v17.714h34.566zm-179.125-8.882V765.05h-34.566v73.994h34.566zm985.514-286.233h16v17.715h-16V552.81zm-372.919 0h16.03v17.715h-16.03V552.81zm585.177 17.715V468.73h17.715v101.794h-17.715zm-356.006-40.03h159.748v17.714H1137.06v-17.714z"></path><path fill="#58595b" stroke-width="0" d="M907.89 570.525v-40.03h17.714v40.03H907.89zM456.707 805.991v-100.03h17.714v100.03h-17.714zm822.398-235.466v-40.03h17.704v40.03h-17.704z"></path><path fill="#58595b" stroke-width="0" d="M907.89 520.35h216.47v17.714H907.89V520.35zm255.747-20.26v48.12h8.3v-48.12h-8.3z"></path><path fill="#58595b" stroke-width="0" d="M907.89 419.73v104.84h8.311V419.73h-8.31zM545.768 570.525v-45.383h-8.3v45.383h8.3zm76.03 0v-45.383h-8.3v45.383h8.3zM244.067 773.36h230.354v-8.31H244.067v8.31z"></path><path fill="#58595b" stroke-width="0" d="M621.798 525.142h-84.33v8.31h84.33v-8.31zm518.311-16.742h31.829v-8.31h-31.83v8.31zm-224.69 62.125h365.39v-8.311h-365.39v8.31zM594.8 696.418h286.945v-8.31H594.801v8.31zm544.236-276.688H907.89v8.31h231.146v-8.31zM537.468 570.525h84.33v-8.311h-84.33v8.31zM1892.853 725.32v-37.704h8.31v37.704h-8.31zm63.337-31.87v-37.703h8.312v37.704h-8.311z"></path><path fill="#58595b" stroke-width="0" d="M1864.462 717.01h36.702v8.31h-36.702v-8.31zm-165.922-61.263h265.962v8.31h-265.963v-8.31zm-205.473-85.222h208.61v-8.311h-208.61v8.31zm-350.412-34.095v-116.7h-8.31v116.7h8.31z"></path><g fill="#58595b" stroke-width="0" data-name="1894793112368"><path d="M1385.43 920.917v-5.203c0-20.611 6.415-37.353 17.964-48.932s28.25-18.014 48.792-18.014h5.884v-.993h-5.884c-20.822 0-37.754 6.536-49.493 18.306-11.73 11.769-18.256 28.751-18.256 49.633v5.203h.993Zm72.65-96.951h-28.18v2.957h28.18v-2.957zm-8.32-4.191v4.19h8.31v-4.781h-8.31v.591Zm1.183 3.018v-2.426h5.945v2.426h-5.945Z"></path><path d="M1451.694 848.717a21.73 21.73 0 0 1-15.408-6.375 21.738 21.738 0 0 1-6.386-15.419h.832c0 5.795 2.346 11.028 6.135 14.827a20.938 20.938 0 0 0 14.827 6.135v.832Z"></path></g><g data-name="1894793078336" fill="#58595b" stroke-width="0"><path d="M655.592 822.532h-67.839v2.727h67.839v-2.727z"></path><path d="M654.67 823.114v4.802c0 18.977-5.915 34.395-16.552 45.062s-26.014 16.601-44.942 16.601h-5.423v.912h5.423c19.178 0 34.777-6.025 45.594-16.862 10.807-10.837 16.822-26.486 16.822-45.713v-4.802h-.922Zm-66.927 89.312h25.965V909.7h-25.965v2.727zm7.669-90.436v-3.859h-7.659v4.401h7.66v-.541Zm-1.093-2.776v2.235h-5.473v-2.235h5.473Z"></path><path d="M595.412 916.286v-3.86h-7.659v4.401h7.66v-.541Zm-1.093-2.777v2.235h-5.473v-2.235h5.473Zm-.691-23.889a20.025 20.025 0 0 1 14.195 5.884 19.984 19.984 0 0 1 5.885 14.195h-.762c0-5.333-2.166-10.155-5.664-13.654a19.218 19.218 0 0 0-13.654-5.654v-.772Z"></path></g><g data-name="1933193803840" fill="#58595b" stroke-width="0"><path d="M1619.151 761.75v-73.632h-2.947v73.633h2.947z"></path><path d="M1618.53 760.758h-5.213c-20.611 0-37.343-6.426-48.922-17.974-11.589-11.55-18.025-28.24-18.025-48.782v-5.884h-.992v5.884c0 20.812 6.546 37.754 18.315 49.493 11.76 11.73 28.742 18.256 49.624 18.256h5.213v-.993Zm-96.951-72.651v28.18h2.947v-28.18h-2.947zm98.164 8.321h4.2v-8.31h-4.792v8.31h.592Zm3.017-1.183h-2.426v-5.955h2.426v5.955Zm-105.382 1.183h4.2v-8.31h-4.792v8.31h.592Zm3.018-1.183h-2.427v-5.955h2.427v5.955Z"></path><path d="M1546.33 694.493a21.738 21.738 0 0 1-6.386 15.409c-3.95 3.94-9.393 6.386-15.418 6.386v-.832a20.87 20.87 0 0 0 14.827-6.146 20.863 20.863 0 0 0 6.145-14.817h.832Z"></path></g><path d="M1371.234 290.116v3.5h-12.802c-.04-1.424.301-3.028 1.013-4.793.721-1.754 2.025-3.84 3.93-6.235 2.215-2.797 3.669-4.963 4.36-6.497.682-1.533 1.033-2.957 1.033-4.27 0-1.524-.35-2.767-1.063-3.73-.701-.952-1.564-1.433-2.596-1.433-1.113 0-2.015.511-2.717 1.544-.712 1.042-1.063 2.526-1.063 4.45l-2.436-.37c.17-2.857.812-5.013 1.925-6.456 1.103-1.444 2.567-2.166 4.381-2.166 1.975 0 3.469.843 4.481 2.517 1.013 1.684 1.524 3.599 1.524 5.744 0 1.895-.401 3.72-1.193 5.454-.802 1.754-2.316 4.08-4.531 6.987-1.424 1.835-2.336 3.088-2.747 3.75a11.764 11.764 0 0 0-1.013 2.004h9.514Z" stroke-width="0"></path><path data-name="1 0" d="M1382.653 293.615h-2.376v-23.338c-.542.812-1.274 1.654-2.196 2.496-.922.852-1.764 1.484-2.536 1.925v-3.499a15.963 15.963 0 0 0 3.458-3.508c1.003-1.374 1.705-2.717 2.116-4.03h1.533v29.954Z" fill="#000" stroke-width="0"></path><path data-name="2 1" d="m1388.738 285.776 2.506-.291c.19 1.895.632 3.308 1.303 4.24.682.923 1.474 1.384 2.376 1.384 1.123 0 2.085-.652 2.897-1.965.812-1.303 1.223-3.098 1.223-5.353 0-2.136-.39-3.79-1.183-4.963-.782-1.173-1.774-1.754-2.957-1.754-.712 0-1.383.25-2.005.762-.631.511-1.133 1.203-1.494 2.115l-2.235-.451 1.875-15.338h9.583v3.498h-7.709l-1.022 8.06c1.143-1.263 2.356-1.894 3.639-1.894 1.624 0 3.027.872 4.22 2.616s1.785 4.09 1.785 7.048c0 2.917-.592 5.413-1.785 7.499-1.193 2.075-2.807 3.117-4.812 3.117-1.674 0-3.077-.732-4.23-2.205s-1.815-3.509-1.975-6.125Z" fill="#000" stroke-width="0"></path><path data-name="3 2" d="M1405.098 293.615v-4.17h2.697v4.17c0 1.624-.18 2.887-.561 3.8-.371.912-.923 1.624-1.644 2.115l-.652-1.574c.471-.32.832-.812 1.072-1.454.251-.651.381-1.614.402-2.887h-1.314Z" fill="#000" stroke-width="0"></path><path data-name="4 3" d="M1411.414 267.66v-3.498h12.481v2.847c-1.864 3.067-3.498 7.057-4.912 11.98-1.404 4.912-2.216 9.794-2.436 14.626h-2.436c.04-2.506.35-5.423.942-8.742a63.495 63.495 0 0 1 2.436-9.513c1.033-3.018 2.145-5.584 3.338-7.7h-9.413Z" fill="#000" stroke-width="0"></path><path data-name="5 4" d="M1426.261 278.888c0-4.992.531-8.791 1.594-11.358 1.063-2.576 2.637-3.87 4.712-3.87 1.834 0 3.278 1.043 4.34 3.128 1.284 2.527 1.925 6.567 1.925 12.1 0 4.983-.521 8.762-1.584 11.349-1.062 2.586-2.636 3.87-4.721 3.87-1.835 0-3.339-1.133-4.512-3.41-1.162-2.285-1.754-6.215-1.754-11.809Zm2.436 0c0 4.842.371 8.1 1.093 9.745.732 1.654 1.674 2.476 2.817 2.476 1.073 0 1.975-.832 2.707-2.506.721-1.675 1.082-4.903 1.082-9.715 0-4.872-.37-8.12-1.092-9.764-.732-1.644-1.685-2.466-2.847-2.466-1.063 0-1.965.832-2.677 2.506-.722 1.674-1.083 4.912-1.083 9.724Z" fill="#000" stroke-width="0"></path><path d="M101.753 120.805v7.398H80.91a23.84 23.84 0 0 1 2.045-8c1.143-2.536 3.368-5.844 6.667-9.965 2.606-3.278 4.21-5.493 4.812-6.656.892-1.684 1.333-3.379 1.333-5.093 0-1.814-.371-3.188-1.093-4.12-.742-.922-1.714-1.384-2.917-1.384-2.617 0-4.04 2.176-4.24 6.527l-5.925-.872c.36-4.241 1.433-7.349 3.208-9.334 1.784-1.985 4.16-2.977 7.117-2.977 3.258 0 5.704 1.173 7.349 3.499 1.654 2.335 2.486 5.012 2.486 8.03 0 1.714-.21 3.368-.642 4.972-.41 1.604-1.062 3.218-1.935 4.842-.882 1.624-2.335 3.69-4.38 6.205-1.905 2.376-3.118 3.94-3.63 4.712a14.035 14.035 0 0 0-1.223 2.216h11.81Z" stroke-width="0"></path><path data-name="1 8" d="M125.873 120.805v7.398H105.03a23.84 23.84 0 0 1 2.045-8c1.143-2.536 3.368-5.844 6.667-9.965 2.606-3.278 4.21-5.493 4.812-6.656.892-1.684 1.333-3.379 1.333-5.093 0-1.814-.361-3.188-1.103-4.12-.732-.922-1.704-1.384-2.907-1.384-2.617 0-4.03 2.176-4.24 6.527l-5.925-.872c.36-4.241 1.433-7.349 3.208-9.334 1.784-1.985 4.16-2.977 7.117-2.977 3.258 0 5.705 1.173 7.359 3.499 1.644 2.335 2.476 5.012 2.476 8.03 0 1.714-.21 3.368-.642 4.972-.41 1.604-1.062 3.218-1.935 4.842-.882 1.624-2.335 3.69-4.38 6.205-1.905 2.376-3.118 3.94-3.63 4.712a14.035 14.035 0 0 0-1.223 2.216h11.81Z" fill="#000" stroke-width="0"></path><path data-name="2 9" d="m129.993 117.476 5.925-.872c.16 1.825.661 3.258 1.524 4.311s1.804 1.574 2.837 1.574c1.233 0 2.275-.672 3.158-1.995.872-1.333 1.313-3.388 1.313-6.145 0-2.607-.431-4.542-1.303-5.785-.873-1.253-1.985-1.874-3.319-1.874-1.714 0-3.248 1.012-4.601 3.027l-4.842-.932 3.067-21.754h15.71v7.468h-11.148l-1.003 7.118c1.344-.902 2.707-1.343 4.08-1.343 2.447 0 4.512 1.052 6.216 3.188 2.155 2.706 3.228 6.285 3.228 10.726 0 3.67-.912 7.028-2.747 10.115-1.824 3.068-4.44 4.602-7.85 4.602-2.756 0-5.052-.993-6.907-2.967-1.844-1.985-2.957-4.812-3.338-8.462Z" fill="#000" stroke-width="0"></path><path data-name="3 10" d="m166.173 117.476 5.925-.872c.16 1.825.662 3.258 1.524 4.311s1.814 1.574 2.847 1.574c1.223 0 2.265-.672 3.148-1.995.872-1.333 1.313-3.388 1.313-6.145 0-2.607-.431-4.542-1.303-5.785-.872-1.253-1.985-1.874-3.319-1.874-1.714 0-3.248 1.012-4.601 3.027l-4.842-.932 3.068-21.754h15.709v7.468h-11.148l-1.003 7.118c1.344-.902 2.707-1.343 4.08-1.343 2.447 0 4.522 1.052 6.216 3.188 2.155 2.706 3.228 6.285 3.228 10.726 0 3.67-.912 7.028-2.747 10.115-1.824 3.068-4.44 4.602-7.85 4.602-2.756 0-5.052-.993-6.896-2.967-1.855-1.985-2.968-4.812-3.349-8.462Z" fill="#000" stroke-width="0"></path><path data-name="4 11" d="M155.066 120.213h5.924v5.735c0 3.238-.34 5.654-1.032 7.238-.832 1.954-2.236 3.398-4.2 4.35l-1.164-3.298c1.163-.541 1.995-1.253 2.507-2.165.51-.902.782-2.196.822-3.87h-2.857v-7.99Z" fill="#000" stroke-width="0"></path><path data-name="5 12" d="M200.258 86.329c3.008 0 5.444 1.574 7.298 4.732 1.865 3.168 2.787 8.681 2.787 16.57 0 7.87-.922 13.384-2.787 16.542-1.854 3.158-4.28 4.732-7.268 4.732-3.017 0-5.453-1.564-7.308-4.692-1.865-3.128-2.787-8.681-2.787-16.661 0-7.84.922-13.323 2.787-16.491 1.855-3.158 4.28-4.732 7.278-4.732Zm.01 6.656c-1.163 0-2.095.853-2.797 2.557-.692 1.694-1.042 5.734-1.042 12.09 0 6.366.35 10.386 1.042 12.09.702 1.694 1.634 2.536 2.797 2.536 1.183 0 2.115-.852 2.807-2.556.682-1.704 1.023-5.724 1.023-12.07 0-6.356-.341-10.396-1.023-12.09-.692-1.704-1.624-2.557-2.807-2.557Z" fill="#000" stroke-width="0"></path><g data-name="1933193761072" fill="#58595b" stroke-width="0"><path d="M398.291 852.707v5.454c0 21.604 6.727 39.147 18.827 51.278 12.11 12.14 29.604 18.887 51.137 18.887h6.166v1.042h-6.166c-21.824 0-39.568-6.857-51.869-19.187s-19.137-30.136-19.137-52.02v-5.454h1.042Z"></path><path d="M474.42 854.692h-76.65v-2.606h76.65v2.606z"></path><path d="M467.093 851.635v-3.71h7.328v4.221h-7.328v-.511Zm1.042-2.667v2.145h5.243v-2.145h-5.243Z"></path></g><path d="M1957.935 805.961v-7.118h-8.36v-3.378l8.751-19.328h1.975v19.328h2.637v3.378h-2.637v7.118h-2.366Zm0-10.496V782.02l-6.015 13.444h6.015Z" stroke-width="0"></path><path data-name="1 18" d="M1966.687 805.961v-4.16h2.697v4.17c0 1.624-.18 2.887-.562 3.8-.37.912-.922 1.623-1.644 2.115l-.652-1.574c.472-.331.832-.812 1.073-1.454.25-.652.381-1.614.401-2.897h-1.313Z" fill="#000" stroke-width="0"></path><path data-name="2 19" d="M1980.441 805.961v-7.118h-8.36v-3.378l8.751-19.328h1.985v19.328h2.627v3.378h-2.627v7.118h-2.376Zm0-10.496V782.02l-6.005 13.444h6.005Z" fill="#000" stroke-width="0"></path><path data-name="3 20" d="M1987.85 791.244c0-4.992.531-8.792 1.594-11.368 1.062-2.566 2.636-3.86 4.711-3.86 1.835 0 3.278 1.043 4.341 3.128 1.283 2.526 1.925 6.567 1.925 12.1 0 4.983-.521 8.762-1.584 11.349-1.063 2.586-2.637 3.87-4.722 3.87-1.834 0-3.338-1.134-4.51-3.41-1.174-2.285-1.755-6.215-1.755-11.809Zm2.436 0c0 4.842.37 8.1 1.092 9.745.732 1.654 1.675 2.476 2.808 2.476 1.082 0 1.984-.832 2.716-2.507.722-1.674 1.083-4.902 1.083-9.714 0-4.872-.361-8.12-1.093-9.764s-1.684-2.466-2.847-2.466c-1.063 0-1.965.832-2.677 2.506-.721 1.674-1.082 4.912-1.082 9.724Z" fill="#000" stroke-width="0"></path><g data-name="1933193798896" fill="#e3e4e5" stroke-width="0"><path d="M3.869 6.54h13.664v69.463H3.869z"></path><path d="M3.869 6.54h1.895v69.473H3.869z"></path><path d="M3.869 6.54h1.895v1.905H3.869z"></path></g><g data-name="1930516471728" fill="#e3e4e5" stroke-width="0"><path d="M3.869 6.54h13.664v69.463H3.869z"></path><path d="M3.869 6.54h1.895v69.473H3.869z"></path><path d="M3.869 6.54h1.895v1.905H3.869z"></path></g><g data-name="1933117901072" fill="#e3e4e5" stroke-width="0"><path d="M3.869 6.54h13.664v69.463H3.869z"></path><path d="M3.869 6.54h1.895v69.473H3.869z"></path><path d="M3.869 6.54h1.895v1.905H3.869z"></path></g><g data-name="1933075682384" fill="#e3e4e5" stroke-width="0"><path d="M3.869 6.54h13.664v69.463H3.869z"></path><path d="M3.869 6.54h1.895v69.473H3.869z"></path><path d="M3.869 6.54h1.895v1.905H3.869z"></path></g><g data-name="1933075696112" fill="#e3e4e5" stroke-width="0"><path d="M3.869 6.54h13.664v69.463H3.869z"></path><path d="M3.869 6.54h1.895v69.473H3.869z"></path><path d="M3.869 6.54h1.895v1.905H3.869z"></path></g><g data-name="1933075712096" fill="#e3e4e5" stroke-width="0"><path d="M3.869 6.54h13.664v69.463H3.869z"></path><path d="M3.869 6.54h1.895v69.473H3.869z"></path><path d="M3.869 6.54h1.895v1.905H3.869z"></path></g><g data-name="1933075673984" fill="#e3e4e5" stroke-width="0"><path d="M3.869 6.54h13.664v69.463H3.869z"></path><path d="M3.869 6.54h1.895v69.473H3.869z"></path><path d="M3.869 6.54h1.895v1.905H3.869z"></path></g><g data-name="1931714512048" fill="#e3e4e5" stroke-width="0"><path d="M3.869 6.54h13.664v69.463H3.869z"></path><path d="M3.869 6.54h1.895v69.473H3.869z"></path><path d="M3.869 6.54h1.895v1.905H3.869z"></path></g><g data-name="1931367797712" stroke-width="0"><path fill="#e3e4e5" d="M4.57 819.585h37.434v173.412H4.571z"></path><path d="M41.302 991.944v-172.36H5.282v172.36h36.02Zm1.414 1.414H3.869V818.17h38.847v175.187Z" fill="#231f20"></path><path fill="#e3e4e5" d="M17.383 818.863h5.203v173.061h-5.203z"></path><path d="M21.874 819.565v172.38h-3.78v-172.38h3.78Zm1.413-1.404h-6.606v175.197h6.606V818.16Z" fill="#231f20"></path><path fill="#e3e4e5" d="M17.383 818.863h5.203v5.213h-5.203z"></path><path d="M21.874 819.565v3.81h-3.78v-3.81h3.78Zm1.413-1.404h-6.606v6.627h6.606v-6.627Z" fill="#231f20"></path><path fill="#e3e4e5" d="M17.383 851.935h5.203v5.213h-5.203z"></path><path d="M21.874 852.637v3.8h-3.78v-3.8h3.78Zm1.413-1.413h-6.606v6.626h6.606v-6.626Z" fill="#231f20"></path></g><g data-name="1933164907808" stroke-width="0"><path fill="#e3e4e5" d="M4.57 321.625h37.434v173.412H4.571z"></path><path d="M41.302 493.974v-172.35H5.282v172.35h36.02Zm1.414 1.414H3.869V320.21h38.847v175.177Z" fill="#231f20"></path><path fill="#e3e4e5" d="M17.383 320.893h5.203v173.061h-5.203z"></path><path d="M21.874 321.605v172.379h-3.78v-172.38h3.78Zm1.413-1.414h-6.606v175.197h6.606V320.19Z" fill="#231f20"></path><path fill="#e3e4e5" d="M17.383 320.903h5.203v5.213h-5.203z"></path><path d="M21.874 321.605v3.8h-3.78v-3.8h3.78Zm1.413-1.414h-6.606v6.627h6.606v-6.627Z" fill="#231f20"></path><path fill="#e3e4e5" d="M17.383 489.453h5.203v5.213h-5.203z"></path><path d="M21.874 490.155v3.799h-3.78v-3.8h3.78Zm1.413-1.414h-6.606v6.627h6.606v-6.627Z" fill="#231f20"></path><path fill="#e3e4e5" d="M17.383 353.965h5.203v5.213h-5.203z"></path><path d="M21.874 354.667v3.8h-3.78v-3.8h3.78Zm1.413-1.413h-6.606v6.626h6.606v-6.626Z" fill="#231f20"></path><path fill="#e3e4e5" d="M4.57 573.562h37.434v173.412H4.571z"></path><path d="M41.302 745.911V573.562H5.282v172.35h36.02Zm1.414 1.414H3.869V572.149h38.847v175.176Z" fill="#231f20"></path><path fill="#e3e4e5" d="M17.383 572.83h5.203v173.061h-5.203z"></path><path d="M21.874 573.542v172.37h-3.78v-172.37h3.78Zm1.413-1.413h-6.606v175.196h6.606V572.129Z" fill="#231f20"></path><path fill="#e3e4e5" d="M17.383 572.83h5.203v5.213h-5.203z"></path><path d="M21.874 573.542v3.8h-3.78v-3.8h3.78Zm1.413-1.413h-6.606v6.626h6.606v-6.626Z" fill="#231f20"></path><path fill="#e3e4e5" d="M17.383 741.39h5.203v5.213h-5.203z"></path><path d="M21.874 742.092v3.8h-3.78v-3.8h3.78Zm1.413-1.414h-6.606v6.627h6.606v-6.627Z" fill="#231f20"></path><path fill="#e3e4e5" d="M17.383 605.903h5.203v5.213h-5.203z"></path><path d="M21.874 606.605v3.799h-3.78v-3.8h3.78Zm1.413-1.414h-6.606v6.627h6.606v-6.627Z" fill="#231f20"></path><path fill="#e3e4e5" d="M4.57 80.314h37.434v173.412H4.571z"></path><path d="M41.302 252.673V80.313H5.282v172.36h36.02Zm1.414 1.404H3.869V78.9h38.847v175.177Z" fill="#231f20"></path><path fill="#e3e4e5" d="M17.383 79.592h5.203v173.061h-5.203z"></path><path d="M21.874 80.294v172.38h-3.78V80.293h3.78Zm1.413-1.414h-6.606v175.207h6.606V78.88Z" fill="#231f20"></path><path fill="#e3e4e5" d="M17.383 79.592h5.203v5.213h-5.203z"></path><path d="M21.874 80.294v3.8h-3.78v-3.8h3.78Zm1.413-1.414h-6.606v6.627h6.606V78.88Z" fill="#231f20"></path><path fill="#e3e4e5" d="M17.383 248.142h5.203v5.213h-5.203z"></path><path d="M21.874 248.844v3.799h-3.78v-3.8h3.78Zm1.413-1.404h-6.606v6.627h6.606v-6.627Z" fill="#231f20"></path><path fill="#e3e4e5" d="M17.383 112.654h5.203v5.213h-5.203z"></path><path d="M21.874 113.356v3.8h-3.78v-3.8h3.78Zm1.413-1.403h-6.606v6.616h6.606v-6.616Z" fill="#231f20"></path></g><g data-name="1933164869888" stroke-width="0"><path fill="#e3e4e5" d="M2224.479 78.78h37.433v215.497h-37.433z"></path><path d="M2225.19 79.412v214.865h36.02V79.412h-36.02Zm-1.413-1.414h38.847V295.69h-38.847V77.998Z" fill="#231f20"></path><path fill="#e3e4e5" d="M2243.907 78.018h5.203v216.98h-5.203z"></path><path d="M2244.609 294.297V79.412h3.79v214.885h-3.79Zm-1.413 1.413h6.616V77.998h-6.616V295.71Z" fill="#231f20"></path><path fill="#e3e4e5" d="M2243.907 289.796h5.203v5.213h-5.203z"></path><path d="M2244.609 294.297v-3.8h3.79v3.8h-3.79Zm-1.413 1.413h6.616v-6.626h-6.616v6.626Z" fill="#231f20"></path><path fill="#e3e4e5" d="M2243.907 78.73h5.203v5.213h-5.203z"></path><path d="M2244.609 83.231v-3.8h3.79v3.8h-3.79Zm-1.413 1.414h6.616v-6.627h-6.616v6.627Z" fill="#231f20"></path><path fill="#e3e4e5" d="M2243.907 256.723h5.203v5.213h-5.203z"></path><path d="M2244.609 261.234v-3.799h3.79v3.8h-3.79Zm-1.413 1.414h6.616v-6.627h-6.616v6.627Z" fill="#231f20"></path><path fill="#e3e4e5" d="M2224.489 366.186h37.433v215.496h-37.433z"></path><path d="M2225.19 366.817v214.865h36.03V366.817h-36.03Zm-1.413-1.413h38.847v217.692h-38.847V365.404Z" fill="#231f20"></path><path fill="#e3e4e5" d="M2243.907 365.424h5.203v216.98h-5.203z"></path><path d="M2244.619 581.702V366.817h3.79v214.885h-3.79Zm-1.413 1.414h6.616V365.404h-6.616v217.712Z" fill="#231f20"></path><path fill="#e3e4e5" d="M2243.907 577.191h5.203v5.213h-5.203z"></path><path d="M2244.619 581.702v-3.799h3.79v3.8h-3.79Zm-1.413 1.414h6.616v-6.627h-6.616v6.627Z" fill="#231f20"></path><path fill="#e3e4e5" d="M2243.907 366.126h5.203v5.213h-5.203z"></path><path d="M2244.619 370.637v-3.8h3.79v3.8h-3.79Zm-1.413 1.413h6.616v-6.626h-6.616v6.626Z" fill="#231f20"></path><path fill="#e3e4e5" d="M2243.907 544.129h5.203v5.213h-5.203z"></path><path d="M2244.619 548.64v-3.8h3.79v3.8h-3.79Zm-1.413 1.404h6.616v-6.617h-6.616v6.617Z" fill="#231f20"></path><path fill="#e3e4e5" d="M2224.489 653.592h37.433v215.496h-37.433z"></path><path d="M2225.2 654.223v214.865h36.02V654.223h-36.02Zm-1.413-1.413h38.847v217.692h-38.847V652.81Z" fill="#231f20"></path><path fill="#e3e4e5" d="M2243.917 652.83h5.203v216.98h-5.203z"></path><path d="M2244.619 869.108V654.223h3.79v214.885h-3.79Zm-1.413 1.404h6.616V652.81h-6.616v217.702Z" fill="#231f20"></path><path fill="#e3e4e5" d="M2243.917 864.597h5.203v5.213h-5.203z"></path><path d="M2244.619 869.108v-3.8h3.79v3.8h-3.79Zm-1.413 1.404h6.616v-6.617h-6.616v6.617Z" fill="#231f20"></path><path fill="#e3e4e5" d="M2243.917 653.531h5.203v5.213h-5.203z"></path><path d="M2244.619 658.043v-3.8h3.79v3.8h-3.79Zm-1.413 1.413h6.616v-6.626h-6.616v6.626Z" fill="#231f20"></path><path fill="#e3e4e5" d="M2243.917 831.535h5.203v5.213h-5.203z"></path><path d="M2244.619 836.046v-3.81h3.79v3.81h-3.79Zm-1.413 1.403h6.616v-6.626h-6.616v6.626Z" fill="#231f20"></path></g><g data-name="1932117509984" fill="#58595b" stroke-width="0"><path d="M479.864 799.204h6.206c24.581 0 44.54-7.649 58.345-21.423 13.815-13.774 21.494-33.684 21.494-58.185v-7.018h1.183v7.018c0 24.822-7.8 45.022-21.835 59.027-14.035 13.985-34.285 21.774-59.187 21.774h-6.206v-1.193Z"></path><path d="M482.12 712.578v87.228h-2.967v-87.228h2.967z"></path><path d="M478.631 720.92h-4.21v-8.342h4.802v8.341h-.592Zm-3.027-1.184h2.436v-5.975h-2.436v5.975Zm95.698 1.184h-4.21v-8.342h4.802v8.341h-.592Zm-3.027-1.184h2.436v-5.975h-2.436v5.975Z"></path></g><path fill="#58595b" stroke-width="0" d="M1623.943 688.107h67.599v17.715h-67.599v-17.715zm-157.552 0h50.396v17.715h-50.396v-17.715z"></path><g data-name="1932117528464" stroke-width="0"><path fill="#e3e4e5" d="M3.869 6.54h13.664v69.463H3.869z"></path><path d="M266.503 43.973H64.63V7.953h201.873v36.02Zm1.414 1.414V6.54h-204.7v38.847h204.7Z" fill="#231f20"></path><path fill="#e3e4e5" d="M3.869 6.54h1.895v69.473H3.869z"></path><path d="M64.61 24.545h201.903v-3.78H64.61v3.78Zm-1.413 1.414v-6.607h204.72v6.607H63.197Z" fill="#231f20"></path><path fill="#e3e4e5" d="M3.869 6.54h1.895v1.905H3.869z"></path><path d="M64.61 24.545h3.8v-3.78h-3.8v3.78Zm-1.413 1.414v-6.607h6.626v6.607h-6.626Z" fill="#231f20"></path><path fill="#e3e4e5" d="M3.869 6.54h1.895v1.905H3.869z"></path><path d="M262.684 24.545h3.799v-3.78h-3.8v3.78Zm-1.414 1.414v-6.607h6.627v6.607h-6.627Z" fill="#231f20"></path><path fill="#e3e4e5" d="M3.869 6.54h1.895v1.905H3.869z"></path><path d="M97.673 24.545h3.8v-3.78h-3.8v3.78Zm-1.404 1.414v-6.607h6.617v6.607h-6.617Z" fill="#231f20"></path></g><g data-name="1932117469856" stroke-width="0"><path fill="#e3e4e5" d="M3.869 6.54h13.664v69.463H3.869z"></path><path d="M545.598 43.973H343.725V7.953h201.873v36.02Zm1.414 1.414V6.54h-204.7v38.847h204.7Z" fill="#231f20"></path><path fill="#e3e4e5" d="M3.869 6.54h1.895v69.473H3.869z"></path><path d="M343.705 24.545h201.893v-3.78H343.705v3.78Zm-1.413 1.414v-6.607h204.72v6.607h-204.72Z" fill="#231f20"></path><path fill="#e3e4e5" d="M3.869 6.54h1.895v1.905H3.869z"></path><path d="M343.705 24.545h3.8v-3.78h-3.8v3.78Zm-1.413 1.414v-6.607h6.626v6.607h-6.626Z" fill="#231f20"></path><path fill="#e3e4e5" d="M3.869 6.54h1.895v1.905H3.869z"></path><path d="M541.779 24.545h3.799v-3.78h-3.8v3.78Zm-1.414 1.414v-6.607h6.627v6.607h-6.627Z" fill="#231f20"></path><path fill="#e3e4e5" d="M3.869 6.54h1.895v1.905H3.869z"></path><path d="M376.768 24.545h3.8v-3.78h-3.8v3.78Zm-1.414 1.414v-6.607h6.627v6.607h-6.627Z" fill="#231f20"></path></g><g data-name="1932117478160" stroke-width="0"><path fill="#e3e4e5" d="M3.869 6.54h13.664v69.463H3.869z"></path><path d="M821.154 43.973H619.272V7.953h201.882v36.02Zm1.404 1.414V6.54h-204.7v38.847h204.7Z" fill="#231f20"></path><path fill="#e3e4e5" d="M3.869 6.54h1.895v69.473H3.869z"></path><path d="M619.251 24.545h201.903v-3.78H619.251v3.78Zm-1.403 1.414v-6.607h204.72v6.607h-204.72Z" fill="#231f20"></path><path fill="#e3e4e5" d="M3.869 6.54h1.895v1.905H3.869z"></path><path d="M619.251 24.545h3.81v-3.78h-3.81v3.78Zm-1.403 1.414v-6.607h6.626v6.607h-6.626Z" fill="#231f20"></path><path fill="#e3e4e5" d="M3.869 6.54h1.895v1.905H3.869z"></path><path d="M817.325 24.545h3.81v-3.78h-3.81v3.78Zm-1.404 1.414v-6.607h6.627v6.607h-6.627Z" fill="#231f20"></path><path fill="#e3e4e5" d="M3.869 6.54h1.895v1.905H3.869z"></path><path d="M652.324 24.545h3.8v-3.78h-3.8v3.78Zm-1.414 1.414v-6.607h6.627v6.607h-6.627Z" fill="#231f20"></path></g><g data-name="1932117488336" stroke-width="0"><path fill="#e3e4e5" d="M3.869 6.54h13.664v69.463H3.869z"></path><path d="M1095.518 43.973H893.645V7.953h201.873v36.02Zm1.413 1.414V6.54h-204.7v38.847h204.7Z" fill="#231f20"></path><path fill="#e3e4e5" d="M3.869 6.54h1.895v69.473H3.869z"></path><path d="M893.625 24.545h201.902v-3.78H893.625v3.78Zm-1.414 1.414v-6.607h204.72v6.607h-204.72Z" fill="#231f20"></path><path fill="#e3e4e5" d="M3.869 6.54h1.895v1.905H3.869z"></path><path d="M893.625 24.545h3.8v-3.78h-3.8v3.78Zm-1.414 1.414v-6.607h6.627v6.607h-6.627Z" fill="#231f20"></path><path fill="#e3e4e5" d="M3.869 6.54h1.895v1.905H3.869z"></path><path d="M1091.698 24.545h3.8v-3.78h-3.8v3.78Zm-1.404 1.414v-6.607h6.617v6.607h-6.617Z" fill="#231f20"></path><path fill="#e3e4e5" d="M3.869 6.54h1.895v1.905H3.869z"></path><path d="M926.687 24.545h3.8v-3.78h-3.8v3.78Zm-1.403 1.414v-6.607h6.616v6.607h-6.616Z" fill="#231f20"></path></g><g data-name="1932117492224" stroke-width="0"><path fill="#e3e4e5" d="M3.869 6.54h13.664v69.463H3.869z"></path><path d="M1372.257 43.973h-201.883V7.953h201.883v36.02Zm1.403 1.414V6.54h-204.7v38.847h204.7Z" fill="#231f20"></path><path fill="#e3e4e5" d="M3.869 6.54h1.895v69.473H3.869z"></path><path d="M1170.354 24.545h201.903v-3.78h-201.903v3.78Zm-1.404 1.414v-6.607h204.71v6.607h-204.71Z" fill="#231f20"></path><path fill="#e3e4e5" d="M3.869 6.54h1.895v1.905H3.869z"></path><path d="M1170.354 24.545h3.81v-3.78h-3.81v3.78Zm-1.404 1.414v-6.607h6.627v6.607h-6.627Z" fill="#231f20"></path><path fill="#e3e4e5" d="M3.869 6.54h1.895v1.905H3.869z"></path><path d="M1368.427 24.545h3.81v-3.78h-3.81v3.78Zm-1.403 1.414v-6.607h6.626v6.607h-6.626Z" fill="#231f20"></path><path fill="#e3e4e5" d="M3.869 6.54h1.895v1.905H3.869z"></path><path d="M1203.426 24.545h3.8v-3.78h-3.8v3.78Zm-1.413 1.414v-6.607h6.626v6.607h-6.626Z" fill="#231f20"></path></g><g data-name="1895046384400" stroke-width="0"><path fill="#e3e4e5" d="M3.869 6.54h13.664v69.463H3.869z"></path><path d="M1647.803 43.973H1445.93V7.953h201.873v36.02Zm1.413 1.414V6.54h-204.7v38.847h204.7Z" fill="#231f20"></path><path fill="#e3e4e5" d="M3.869 6.54h1.895v69.473H3.869z"></path><path d="M1445.91 24.545h201.893v-3.78H1445.91v3.78Zm-1.414 1.414v-6.607h204.72v6.607h-204.72Z" fill="#231f20"></path><path fill="#e3e4e5" d="M3.869 6.54h1.895v1.905H3.869z"></path><path d="M1445.91 24.545h3.8v-3.78h-3.8v3.78Zm-1.414 1.414v-6.607h6.627v6.607h-6.627Z" fill="#231f20"></path><path fill="#e3e4e5" d="M3.869 6.54h1.895v1.905H3.869z"></path><path d="M1643.983 24.545h3.8v-3.78h-3.8v3.78Zm-1.413 1.414v-6.607h6.626v6.607h-6.626Z" fill="#231f20"></path><path fill="#e3e4e5" d="M3.869 6.54h1.895v1.905H3.869z"></path><path d="M1478.972 24.545h3.8v-3.78h-3.8v3.78Zm-1.413 1.414v-6.607h6.626v6.607h-6.626Z" fill="#231f20"></path></g><g data-name="1895046399424" stroke-width="0"><path fill="#e3e4e5" d="M3.869 6.54h13.664v69.463H3.869z"></path><path d="M1923.359 43.973h-201.883V7.953h201.883v36.02Zm1.404 1.414V6.54h-204.7v38.847h204.7Z" fill="#231f20"></path><path fill="#e3e4e5" d="M3.869 6.54h1.895v69.473H3.869z"></path><path d="M1721.456 24.545h201.903v-3.78h-201.903v3.78Zm-1.403 1.414v-6.607h204.71v6.607h-204.71Z" fill="#231f20"></path><path fill="#e3e4e5" d="M3.869 6.54h1.895v1.905H3.869z"></path><path d="M1721.456 24.545h3.8v-3.78h-3.8v3.78Zm-1.403 1.414v-6.607h6.616v6.607h-6.616Z" fill="#231f20"></path><path fill="#e3e4e5" d="M3.869 6.54h1.895v1.905H3.869z"></path><path d="M1919.53 24.545h3.81v-3.78h-3.81v3.78Zm-1.404 1.414v-6.607h6.626v6.607h-6.626Z" fill="#231f20"></path><path fill="#e3e4e5" d="M3.869 6.54h1.895v1.905H3.869z"></path><path d="M1754.519 24.545h3.81v-3.78h-3.81v3.78Zm-1.404 1.414v-6.607h6.627v6.607h-6.627Z" fill="#231f20"></path></g><g data-name="1895046415792" stroke-width="0"><path fill="#e3e4e5" d="M3.869 6.54h13.664v69.463H3.869z"></path><path d="M2197.722 43.973H1995.85V7.953h201.873v36.02Zm1.414 1.414V6.54h-204.7v38.847h204.7Z" fill="#231f20"></path><path fill="#e3e4e5" d="M3.869 6.54h1.895v69.473H3.869z"></path><path d="M1995.83 24.545h201.892v-3.78H1995.83v3.78Zm-1.414 1.414v-6.607h204.72v6.607h-204.72Z" fill="#231f20"></path><path fill="#e3e4e5" d="M3.869 6.54h1.895v1.905H3.869z"></path><path d="M1995.83 24.545h3.799v-3.78h-3.8v3.78Zm-1.414 1.414v-6.607h6.626v6.607h-6.626Z" fill="#231f20"></path><path fill="#e3e4e5" d="M3.869 6.54h1.895v1.905H3.869z"></path><path d="M2193.903 24.545h3.8v-3.78h-3.8v3.78Zm-1.414 1.414v-6.607h6.627v6.607h-6.627Z" fill="#231f20"></path><path fill="#e3e4e5" d="M3.869 6.54h1.895v1.905H3.869z"></path><path d="M2028.892 24.545h3.8v-3.78h-3.8v3.78Zm-1.404 1.414v-6.607h6.617v6.607h-6.617Z" fill="#231f20"></path></g><path fill="#58595b" stroke-width="0" d="M545.768 570.525v-45.383h-8.3v45.383h8.3zm76.03 0v-45.383h-8.3v45.383h8.3z"></path><path fill="#58595b" stroke-width="0" d="M621.798 525.142h-84.33v8.31h84.33v-8.31zm-49.904 0V358.858h8.31v166.284h-8.31zm-108.13 45.383h228.43v-8.311h-228.43v8.31z"></path><path fill="#58595b" stroke-width="0" d="M463.764 448.862v121.663h8.3V448.862h-8.3zm228.429-91.659v213.322h8.31V357.203h-8.31zm-228.429 0h119.147v8.311H463.764v-8.31zm1551.835 457.159V688.118h8.31v126.244h-8.31z"></path><path fill="#58595b" stroke-width="0" d="M1840.543 688.118h183.366v8.31h-183.366v-8.31zM666.259 357.203h34.245v8.311h-34.245v-8.31zM1851.35 787.545h80.901v8.31h-80.901v-8.31z"></path><g data-name="1933197024128" fill="#010101" stroke-width="0"><path d="M1916.141 739.856c-.22 0-.642.03-.772.04h-24.32v27.158l24.44.01c.01 0 .432.03.652.03 7.278 0 13.193-6.105 13.193-13.624 0-7.508-5.915-13.614-13.193-13.614Zm0-1.654c8.2 0 14.857 6.837 14.857 15.268 0 8.441-6.657 15.278-14.857 15.278-.26 0-.772-.04-.772-.04h-25.975v-30.466h25.975s.511-.04.772-.04Z"></path><path d="M1887.199 743.245v20.46h1.704v-20.46h-1.704Zm-1.654-1.654h5.022v23.769h-5.022v-23.77Z"></path></g><g data-name="1933077310512" fill="#010101" stroke-width="0"><path d="M541.297 483.197c.22 0 .642.04.772.04h24.32v27.168h-24.44c-.01 0-.431.04-.652.04-7.278 0-13.192-6.115-13.192-13.624s5.914-13.624 13.192-13.624Zm0-1.654c-8.2 0-14.857 6.837-14.857 15.278s6.657 15.278 14.857 15.278c.261 0 .772-.04.772-.04h25.975v-30.476h-25.975s-.511-.04-.772-.04Z"></path><path d="M570.24 486.596v20.45h-1.705v-20.45h1.704Zm1.654-1.654h-5.023v23.769h5.023v-23.77Z"></path></g><g data-name="1933077309744"><path d="M1904.893 815.926v40.761h-36.29v-40.761h36.29Zm1.283-1.283h-38.866v43.327h38.866v-43.327Z" fill="#231f20" stroke-width="0"></path><path d="M1900.703 821.54c.952 0 1.734.782 1.734 1.734v25.945c0 .962-.782 1.734-1.734 1.734h-13.815a1.729 1.729 0 0 1-1.734-1.734v-25.945c0-.952.772-1.734 1.734-1.734h13.815Zm0-1.283h-13.815a3.02 3.02 0 0 0-3.017 3.017v25.945a3.014 3.014 0 0 0 3.017 3.017h13.815a3.02 3.02 0 0 0 3.017-3.017v-25.945a3.02 3.02 0 0 0-3.017-3.017Zm-18.857 13.073c.571 0 1.042-.462 1.042-1.034s-.47-1.042-1.042-1.042c-.582 0-1.043.471-1.043 1.043s.461 1.032 1.043 1.032Zm0 7.909c.571 0 1.042-.461 1.042-1.043a1.04 1.04 0 0 0-1.042-1.032c-.582 0-1.043.46-1.043 1.032 0 .582.461 1.043 1.043 1.043Z" fill="#231f20" stroke-width="0"></path><path fill="none" stroke="#231f20" stroke-linecap="round" stroke-miterlimit="22.983" stroke-width=".471" d="M1881.074 836.246h7.057"></path><path d="M1871.69 818.071v2.577h-3.087v-2.577h3.087Zm1.284-1.283h-5.654v5.153l5.654-.01v-5.143Zm-1.284 35.057v2.577h-3.087v-2.577h3.087Zm1.284-1.283h-5.654v5.143h5.654v-5.143Z" fill="#010101" stroke-width="0"></path><path fill="none" stroke="#010101" stroke-linecap="round" stroke-linejoin="round" stroke-width=".471" d="M1870.147 821.77v28.792"></path></g><g data-name="1933077318336"><path d="M570.61 419.027v40.752h-36.29v-40.752h36.29Zm1.284-1.283h-38.857v43.328l38.857-.01v-43.328.01Z" fill="#231f20" stroke-width="0"></path><path d="M566.42 424.641c.952 0 1.734.772 1.734 1.735v25.944c0 .953-.782 1.735-1.734 1.735h-13.814a1.741 1.741 0 0 1-1.735-1.735v-25.944c0-.963.782-1.735 1.735-1.735h13.814Zm0-1.283h-13.814a3.014 3.014 0 0 0-3.018 3.018v25.944a3.02 3.02 0 0 0 3.018 3.018l13.814-.01a3.012 3.012 0 0 0 3.017-3.008v-25.954a3.02 3.02 0 0 0-3.017-3.018v.01Zm-18.857 13.072c.571 0 1.043-.47 1.043-1.042s-.472-1.032-1.043-1.032c-.582 0-1.043.46-1.043 1.032s.462 1.043 1.043 1.043Zm0 7.91c.571 0 1.043-.47 1.043-1.042s-.472-1.043-1.043-1.043a1.042 1.042 0 1 0 0 2.085Z" fill="#231f20" stroke-width="0"></path><path fill="none" stroke="#231f20" stroke-linecap="round" stroke-miterlimit="22.983" stroke-width=".471" d="M546.801 439.338h7.058"></path><path d="M537.408 421.173v2.576l-3.088-.01v-2.566h3.088Zm1.283-1.283h-5.654v5.142h5.654v-5.152.01Zm-1.283 35.057v2.566h-3.088v-2.566h3.088Zm1.283-1.293h-5.654v5.152h5.654v-5.152Z" fill="#010101" stroke-width="0"></path><path fill="none" stroke="#010101" stroke-linecap="round" stroke-linejoin="round" stroke-width=".471" d="M535.864 424.862v28.792"></path></g><g data-name="1933077274080" stroke-width="0"><path d="M635.532 558.234h42.747c2.706 0 5.162-1.113 6.947-2.887 1.774-1.785 2.887-4.24 2.887-6.947v-43.48c0-2.706-1.113-5.163-2.887-6.947a9.798 9.798 0 0 0-6.948-2.887h-42.746a9.774 9.774 0 0 0-6.937 2.887 9.798 9.798 0 0 0-2.887 6.947v43.48a9.798 9.798 0 0 0 2.887 6.947 9.816 9.816 0 0 0 6.937 2.887Zm42.746.592h-42.746a10.357 10.357 0 0 1-7.358-3.068 10.39 10.39 0 0 1-3.058-7.358v-43.48a10.43 10.43 0 0 1 3.058-7.368 10.39 10.39 0 0 1 7.358-3.058h42.747a10.43 10.43 0 0 1 7.368 3.058 10.431 10.431 0 0 1 3.057 7.368v43.48a10.39 10.39 0 0 1-3.057 7.358 10.398 10.398 0 0 1-7.369 3.068Z"></path><path d="M637.016 556.029h39.789c2.506 0 4.792-1.033 6.446-2.687s2.677-3.94 2.677-6.446v-40.471a9.102 9.102 0 0 0-2.677-6.446 9.111 9.111 0 0 0-6.446-2.687h-39.79a9.093 9.093 0 0 0-6.445 2.687 9.11 9.11 0 0 0-2.687 6.446v40.47c0 2.507 1.033 4.793 2.687 6.447s3.93 2.687 6.446 2.687Zm39.789.581h-39.79a9.718 9.718 0 0 1-6.866-2.847 9.684 9.684 0 0 1-2.857-6.867v-40.47a9.685 9.685 0 0 1 2.857-6.868c1.764-1.754 4.19-2.857 6.867-2.857h39.789a9.703 9.703 0 0 1 6.857 2.857 9.684 9.684 0 0 1 2.857 6.867v40.47a9.685 9.685 0 0 1-2.857 6.868 9.694 9.694 0 0 1-6.857 2.847Z"></path><path d="M622.94 561.031h67.94V492.29h-67.94v68.741Zm68.531 1.183h-69.713v-71.107h70.305v71.107h-.592Z"></path><path d="M635.221 550.856c.612 0 1.173-.25 1.584-.662.401-.4.652-.962.652-1.584s-.25-1.183-.652-1.584a2.27 2.27 0 0 0-1.584-.651c-.621 0-1.183.25-1.594.651-.4.401-.651.963-.651 1.584s.25 1.183.651 1.584c.411.411.973.662 1.594.662Zm1.995-.24a2.828 2.828 0 0 1-1.995.831c-.782 0-1.493-.32-2.005-.832a2.833 2.833 0 0 1 0-4.01 2.808 2.808 0 0 1 2.005-.822c.782 0 1.484.31 1.995.822a2.83 2.83 0 0 1 0 4.01Z"></path></g><g data-name="1933077287616" fill="#58595b" stroke-width="0"><path d="M536.405 370.928v5.213c0 20.6-6.426 37.343-17.975 48.921-11.548 11.58-28.24 18.015-48.791 18.015h-5.875v.993h5.875c20.822 0 37.764-6.537 49.503-18.306 11.73-11.77 18.256-28.751 18.256-49.623v-5.213h-.993Z"></path><path d="M463.764 373.173h73.634v-2.947h-73.634v2.947z"></path><path d="M472.065 369.705v-4.19h-8.3v4.781h8.3v-.591Zm-1.173-3.008v2.426h-5.955v-2.426h5.955Zm1.173 81.573v-4.2h-8.3v4.792h8.3v-.592Zm-1.173-3.017v2.426h-5.955v-2.426h5.955Z"></path></g><g data-name="1933077288432" fill="#58595b" stroke-width="0"><path d="M588.324 429.844h5.213c20.602 0 37.343-6.416 48.922-17.964 11.58-11.55 18.015-28.25 18.015-48.792v-5.885h1.003v5.885c0 20.822-6.547 37.754-18.316 49.493s-28.742 18.256-49.624 18.256h-5.213v-.993Z"></path><path d="M590.57 357.203v73.634h-2.947v-73.634h2.947z"></path><path d="M587.111 365.514h-4.2v-8.31h4.782v8.31h-.582Zm-3.017-1.183h2.426v-5.945h-2.426v5.945Zm81.573 1.183h-4.19v-8.31h4.782v8.31h-.592Zm-3.017-1.183h2.426v-5.945h-2.426v5.945Z"></path></g><g data-name="1933077292848" fill="#58595b" stroke-width="0"><path d="M1951.269 892.296v-5.203c0-20.611 6.426-37.353 17.974-48.932s28.24-18.015 48.782-18.015h5.885v-.992h-5.885c-20.812 0-37.754 6.536-49.493 18.305-11.73 11.77-18.256 28.752-18.256 49.634v5.203h.993Z"></path><path d="M2023.91 890.05h-73.634v2.948h73.633v-2.948z"></path><path d="M2015.599 893.519v4.19h8.31v-4.781h-8.31v.591Zm1.183 3.018v-2.426h5.954v2.426h-5.954Zm-1.183-81.584v4.2h8.31v-4.791h-8.31v.591Zm1.183 3.018v-2.426h5.954v2.426h-5.954Z"></path></g><g data-name="1933077294288" fill="#58595b" stroke-width="0"><path d="M2010.185 723.215h-5.203c-20.611 0-37.353 6.426-48.932 17.975s-18.014 28.24-18.014 48.781v5.885h-.993v-5.885c0-20.812 6.536-37.754 18.306-49.493 11.769-11.73 28.751-18.256 49.633-18.256h5.203v.993Z"></path><path d="M2007.94 795.856v-73.634h2.957v73.634h-2.957z"></path><path d="M2011.408 787.545h4.19v8.31h-4.781v-8.31h.591Zm3.018 1.183H2012v5.955h2.426v-5.955Zm-81.583-1.183h4.2v8.31h-4.792v-8.31h.592Zm3.017 1.183h-2.426v5.955h2.426v-5.955Z"></path></g><path d="M477.609 411.629v3.499h-12.812c-.03-1.424.31-3.018 1.022-4.782.712-1.755 2.025-3.84 3.92-6.236 2.226-2.807 3.68-4.972 4.361-6.496.692-1.534 1.033-2.957 1.033-4.28 0-1.514-.351-2.757-1.053-3.72-.702-.952-1.564-1.433-2.596-1.433-1.113 0-2.016.51-2.717 1.543-.712 1.033-1.073 2.527-1.073 4.452l-2.436-.371c.17-2.868.812-5.013 1.925-6.456 1.113-1.444 2.566-2.166 4.39-2.166 1.976 0 3.46.832 4.482 2.516 1.012 1.685 1.514 3.6 1.514 5.745 0 1.894-.391 3.709-1.193 5.453-.792 1.755-2.306 4.08-4.522 6.988-1.423 1.834-2.345 3.077-2.756 3.749a11.614 11.614 0 0 0-1.003 1.995h9.514Z" stroke-width="0"></path><path data-name="1 27" d="M481.458 415.128v-4.16h2.697v4.17c0 1.614-.19 2.877-.561 3.8-.381.911-.923 1.623-1.644 2.104l-.662-1.563c.481-.331.842-.812 1.083-1.464.25-.642.38-1.604.4-2.887h-1.313Z" fill="#000" stroke-width="0"></path><path data-name="2 28" d="M502.621 400.411c0-5.002.531-8.792 1.594-11.368s2.627-3.86 4.702-3.86c1.844 0 3.288 1.033 4.35 3.128 1.284 2.526 1.925 6.556 1.925 12.1 0 4.982-.531 8.762-1.584 11.348-1.062 2.577-2.636 3.87-4.721 3.87-1.835 0-3.339-1.133-4.512-3.409-1.172-2.285-1.754-6.215-1.754-11.809Zm2.436-.01c0 4.852.361 8.11 1.093 9.754.732 1.654 1.664 2.476 2.807 2.476 1.082 0 1.985-.832 2.707-2.506.731-1.674 1.092-4.912 1.092-9.724 0-4.862-.37-8.11-1.102-9.754-.722-1.644-1.675-2.466-2.838-2.466-1.072 0-1.964.832-2.686 2.506-.712 1.674-1.073 4.902-1.073 9.714Z" fill="#000" stroke-width="0"></path><path data-name="3 29" d="m487.975 408.22 2.265-.3c.361 3.148 1.444 4.711 3.218 4.711.792 0 1.514-.34 2.156-1.022.651-.692 1.203-1.915 1.644-3.67.45-1.754.681-3.799.681-6.134v-.742c-.49 1.213-1.163 2.175-1.995 2.887-.832.702-1.684 1.063-2.556 1.063-1.574 0-2.927-.873-4.07-2.617-1.143-1.744-1.714-4.13-1.714-7.148 0-3.118.601-5.574 1.784-7.378 1.173-1.795 2.617-2.687 4.31-2.687 1.194 0 2.317.491 3.36 1.504 1.032 1.002 1.834 2.476 2.405 4.431.562 1.955.852 4.772.852 8.441 0 4.1-.31 7.278-.922 9.544-.601 2.265-1.434 3.92-2.476 4.962s-2.206 1.564-3.509 1.564c-1.464 0-2.687-.632-3.669-1.905-.993-1.263-1.574-3.107-1.764-5.503Zm9.704-13.182c0-2.136-.371-3.81-1.123-5.023-.752-1.223-1.614-1.834-2.587-1.834-1.022 0-1.924.651-2.726 1.954-.802 1.304-1.203 3.038-1.203 5.213 0 1.955.38 3.51 1.143 4.672.761 1.153 1.674 1.734 2.736 1.734 1.053 0 1.935-.581 2.667-1.744s1.093-2.827 1.093-4.972Z" fill="#000" stroke-width="0"></path><path d="M611.392 385.013v3.498H598.59c-.03-1.423.31-3.027 1.023-4.782.711-1.764 2.025-3.85 3.92-6.245 2.225-2.797 3.678-4.962 4.36-6.496.692-1.534 1.033-2.958 1.033-4.27 0-1.525-.351-2.768-1.053-3.73-.702-.953-1.574-1.434-2.606-1.434-1.103 0-2.005.512-2.717 1.554-.702 1.033-1.063 2.516-1.063 4.451l-2.436-.38c.17-2.858.812-5.013 1.925-6.457s2.566-2.165 4.38-2.165c1.976 0 3.47.842 4.482 2.516 1.023 1.694 1.524 3.599 1.524 5.744 0 1.895-.401 3.72-1.193 5.454-.792 1.754-2.306 4.08-4.531 6.987-1.424 1.835-2.336 3.088-2.747 3.75a11.768 11.768 0 0 0-1.013 2.005h9.514Z" stroke-width="0"></path><path data-name="1 30" d="M615.241 388.511v-4.17h2.707v4.17c0 1.624-.19 2.888-.571 3.8-.371.922-.922 1.624-1.634 2.115l-.662-1.574c.481-.32.842-.812 1.083-1.453.24-.652.37-1.614.4-2.888h-1.322Z" fill="#000" stroke-width="0"></path><path data-name="2 31" d="m621.397 380.682 2.506-.3c.19 1.894.632 3.307 1.303 4.24.682.922 1.464 1.383 2.366 1.383 1.123 0 2.095-.651 2.907-1.965.812-1.303 1.223-3.087 1.223-5.353 0-2.135-.4-3.79-1.183-4.962-.781-1.173-1.774-1.755-2.957-1.755-.712 0-1.383.26-2.015.762-.632.511-1.123 1.213-1.484 2.115l-2.235-.45 1.875-15.339h9.573v3.499h-7.699l-1.022 8.07c1.142-1.273 2.355-1.905 3.639-1.905 1.624 0 3.027.872 4.22 2.617s1.785 4.09 1.785 7.047c0 2.917-.592 5.414-1.795 7.499-1.183 2.085-2.797 3.128-4.812 3.128-1.664 0-3.077-.742-4.22-2.216-1.153-1.474-1.815-3.509-1.975-6.115Z" fill="#000" stroke-width="0"></path><path data-name="3 32" d="M636.404 373.785c0-4.993.532-8.782 1.594-11.359 1.073-2.576 2.637-3.87 4.712-3.87 1.835 0 3.288 1.043 4.34 3.129 1.284 2.526 1.926 6.566 1.926 12.1 0 4.982-.522 8.762-1.584 11.348-1.053 2.586-2.627 3.88-4.712 3.88-1.845 0-3.349-1.143-4.521-3.419-1.163-2.276-1.755-6.215-1.755-11.81Zm2.436 0c0 4.842.371 8.1 1.103 9.744.722 1.654 1.664 2.476 2.807 2.476 1.083 0 1.975-.832 2.707-2.506.721-1.674 1.082-4.902 1.082-9.714 0-4.872-.36-8.12-1.092-9.765-.732-1.644-1.674-2.466-2.847-2.466-1.063 0-1.955.832-2.677 2.507s-1.083 4.912-1.083 9.724Z" fill="#000" stroke-width="0"></path><path fill="#58595b" stroke-width="0" d="M1849.595 915.424h413.029v-17.715h-413.029v17.715z"></path></g></g></svg>