<?xml version="1.0" encoding="UTF-8"?>
<svg id="_Слой_1" data-name="Слой_1" xmlns="http://www.w3.org/2000/svg" xmlns:xlink="http://www.w3.org/1999/xlink" version="1.1" viewBox="0 0 2371.19 759.44">
  <!-- Generator: Adobe Illustrator 29.5.1, SVG Export Plug-In . SVG Version: 2.1.0 Build 141)  -->
  <defs>
    <style>
      .st0, .st1 {
        fill: none;
      }

      .st1 {
        display: none;
      }

      .st2, .st3, .st4, .st5 {
        fill: #214270;
      }

      .st2, .st4 {
        stroke-linecap: round;
        stroke-width: .47px;
      }

      .st2, .st4, .st5 {
        stroke: #fff;
      }

      .st2, .st5 {
        stroke-miterlimit: 22.97;
      }

      .st4 {
        stroke-linejoin: round;
      }

      .st6 {
        clip-path: url(#clippath);
      }

      .st5 {
        stroke-width: .52px;
      }
    </style>
    <clipPath id="clippath">
      <polygon class="st0" points="648.77 639.1 649.49 759.44 510.66 759.44 510.66 716.05 0 716.05 0 7.02 2371.19 0 2363.88 608.95 1903.7 608.95 1903.7 606.74 1756.04 606.74 1756.04 639.11 1678.02 640.68 1680.89 716.09 1624.56 725.03 1570.86 674.38 1565.62 639.11 648.76 639.1 648.77 639.1"/>
    </clipPath>
  </defs>
  <path class="st1" d="M648.77,639.1l.72,120.34h-138.83v-43.39H0V7.02L2371.19,0l-7.31,608.95h-460.18v-2.2h-147.67v32.37l-78.02,1.57,2.87,75.41-56.33,8.94-53.71-50.65-5.24-35.27h-916.85s0-.01,0-.01Z"/>
  <path class="st1" d="M519.52,747.18l1.53-35.29-472.84,4.15V41.76l2283.84-15.31v568.4l-584.57,9.41.1,34.86H632.92s4.76,111.47,4.76,111.47l-118.16-3.4h0Z"/>
  <g class="st6">
    <g>
      <path class="st5" d="M1267.22,755.47l-47.57-101.06M1266.85,755.98v-101.57M1243.1,704.24v-49.83M1290.6,755.98v-101.57M1314.35,755.98v-101.57M1338.1,755.98v-101.57M1361.85,755.98v-101.57M1361.85,705.85h-95M1283.46,688.54l-16.61,17.31,16.61,17.31"/>
      <g>
        <path class="st3" d="M1758.22,663.68h126.76v116.78h-126.76v-116.78Z"/>
        <g>
          <path class="st3" d="M1821.25,680.15h-32.9c-5.59,0-10.14,4.55-10.14,10.13v63.57c0,5.59,4.55,10.13,10.14,10.13h32.9c5.59,0,10.13-4.54,10.13-10.13v-63.57c0-5.58-4.54-10.13-10.13-10.13h0ZM1827,753.86c0,3.18-2.57,5.75-5.75,5.75h-32.9c-3.18,0-5.75-2.57-5.75-5.75v-63.57c0-3.17,2.58-5.74,5.75-5.74h32.9c3.17,0,5.75,2.57,5.75,5.74v63.57h0ZM1859.99,741.58l-5.53,5.53v-17.89c0-1.61-1.31-2.92-2.93-2.92s-2.92,1.31-2.92,2.92v17.89l-5.53-5.53c-1.14-1.13-2.98-1.13-4.13,0-1.14,1.14-1.14,2.99,0,4.14l9.35,9.35c.75.75,1.7,1.16,2.69,1.28.18.03.36.05.54.05.18,0,.36-.02.53-.05.99-.12,1.95-.53,2.7-1.28l9.35-9.35c1.14-1.14,1.14-2.99,0-4.14-1.14-1.13-2.98-1.13-4.13,0h0ZM1843.09,702.59l5.54-5.53v19.02c0,1.61,1.31,2.93,2.93,2.93s2.92-1.31,2.92-2.93v-19l5.51,5.51c1.13,1.14,2.96,1.15,4.1.02,0,0,.02-.02.02-.02,1.14-1.14,1.14-2.98,0-4.12,0,0,0,0,0,0l-9.35-9.35c-.66-.66-1.51-1.1-2.42-1.25-.26-.07-.52-.12-.79-.12s-.53.04-.78.11c-.93.16-1.79.6-2.46,1.26l-9.35,9.35c-1.12,1.17-1.08,3.02.09,4.14,1.13,1.08,2.91,1.08,4.05,0h0s0,0,0,0Z"/>
          <path class="st3" d="M1804.78,700.56c3.44,0,6.23-2.79,6.23-6.23,0-3.44-2.79-6.22-6.23-6.22s-6.22,2.78-6.22,6.22c0,3.44,2.78,6.23,6.21,6.23h0ZM1804.8,728.96c-2.34,0-5.95-.48-7.62-.73l-1.82,24.25c-.13,1.82,1.24,3.4,3.06,3.54h.05c1.81.14,3.41-1.21,3.54-3.03l1.49-17.95c.05-.61.34-1.45,1.34-1.47,1.06-.01,1.35.88,1.38,1.46l1.49,17.94c.13,1.81,1.7,3.18,3.51,3.05,0,0,.02,0,.03,0h.03c1.82-.14,3.19-1.73,3.05-3.55,0,0,0,0,0,0l-1.84-24.25c-1.74.25-5.49.75-7.67.75h0Z"/>
          <path class="st3" d="M1818.37,718.64l-.9-9.06c-.14-1.81-.98-3.82-3.55-5.11-1.96-.98-8.73-.84-8.73-.84,0,0-7.47-.17-9.6.84-2.53,1.21-3.32,3.29-3.47,5.11l-.89,9.06-.9,11.58c-.15,1.82,1.21,3.41,3.03,3.56,0,0,0,0,0,0h.04c.61.05,1.21-.08,1.72-.34l1.27-17.91c.03-.46.43-.8.88-.77.46.04.8.43.77.89l-.77,10.92c1.57.23,5.24.73,7.5.73,2.12,0,5.99-.53,7.62-.76l-.71-10.9c-.03-.45.31-.85.77-.88,0,0,0,0,.01,0,.45-.03.86.31.88.77l1.16,17.92c.5.24,1.07.36,1.66.31h.03c1.81-.13,3.17-1.71,3.04-3.52,0,0,0-.02,0-.03l-.89-11.58h0s0,0,0,0Z"/>
        </g>
      </g>
      <path class="st3" d="M37.04,7.02h2321.06v1686.99H17.61V7.02h19.43ZM2319.26,45.86H56.47v1609.31h2262.79V45.86h0Z"/>
      <path class="st3" d="M1723.85,1066.65v-134.9h23.62v27.37h150.33v-148.81h-150.33v31.57h-23.62v-75.99h23.62v20.8h150.33v-132.27h-150.33v21.24h-23.62v-44.86h197.56v435.85h-23.61v-83.91h-150.33v83.91h-23.62ZM934.7,630.79h592.74v23.62h-571.48v106.42h-330.09v-23.62h306.47v-106.42h2.36,0ZM1053.81,755.98h352.11v23.61h-328.49v103.57h-452.01v-23.61h428.39v-103.57h0Z"/>
      <path class="st3" d="M625.86,737.98v-107.19h23.62v107.19h-23.62ZM625.86,393.75v116.86h23.62v-116.86h-23.62ZM625.86,45.36v101.98h23.62V45.36h-23.62ZM1173.06,393.75v119.44h23.62v-119.44h-23.62ZM1503.82,630.79v131.09h23.62v-131.09h-23.62ZM1173.06,45.36v101.98h23.62V45.36h-23.62ZM1732.15,393.75v119.44h23.61v-119.44h-23.61ZM1732.15,45.36v101.98h23.61V45.36h-23.61ZM1547.13,411.38h185.01v17.72h-185.01v-17.72ZM1903.7,608.95h418.77v-17.72h-418.77v17.72h0Z"/>
      <path class="st3" d="M1903.7,591.22v60.99h17.71v-60.99h-17.71ZM1738.33,598.47v55.62h17.71v-55.62h-17.71ZM325.84,747.18h202.54v34.56h-202.54v-34.56ZM53.72,707.74h295.51v34.56H53.72v-34.56h0Z"/>
      <path class="st3" d="M349.23,781.75v-74h-34.56v74h34.56ZM75.49,795.91v-74.01h-34.57v74.01h34.57ZM1334.84,495.48h16.01v17.71h-16.01v-17.71ZM961.9,495.48h16.02v17.71h-16.02v-17.71ZM1547.13,513.19v-101.81h17.71v101.81h-17.71ZM1191.09,473.16h159.77v17.71h-159.77v-17.71Z"/>
      <path class="st3" d="M961.9,513.2v-40.03h17.71v40.03h-17.71ZM510.66,748.69v-40.94h17.72v40.94h-17.72Z"/>
      <path class="st3" d="M524.67,741.72h101.19v17.71h-101.19v-17.71ZM1333.14,513.2v-40.03h17.71v40.03h-17.71ZM961.9,463.02h216.49v17.71h-216.49v-17.71h0ZM1217.66,442.75v48.12h8.3v-48.12h-8.3Z"/>
      <path class="st3" d="M961.9,362.39v104.85h8.32v-104.85h-8.32ZM599.74,513.2v-45.38h-8.32v45.38h8.32ZM675.77,513.2v-45.38h-8.31v45.38h8.31ZM298,716.05h230.38v-8.3h-230.38v8.3Z"/>
      <path class="st3" d="M675.77,467.81h-84.35v8.3h84.35v-8.3ZM1194.14,451.05h31.83v-8.3h-31.83v8.3ZM969.43,513.2h365.41v-8.32h-365.41v8.32ZM648.77,639.1h286.97v-8.31h-286.97v8.32h0ZM1193.07,362.38h-231.18v8.3h231.17v-8.3h0ZM1903.7,411.26v183.58h8.31v-183.58h-8.31ZM1998.52,415.41h98.98v-8.3h-98.98v8.3h0ZM399.93,513.2h275.84v-8.32h-275.84v8.32ZM1946.96,668v-63.75h8.31v63.75h-8.31,0Z"/>
      <path class="st3" d="M1918.57,659.69h36.71v8.32h-36.71v-8.32ZM1752.63,598.43h151.07v8.32h-151.07v-8.32h0ZM2011.28,591.23v-182.5h-8.31v182.5h8.31ZM2097.5,591.23v-85.56h-8.3v85.56h8.3ZM2097.5,422.31v-13.01h-8.3v13.01h8.3ZM1903.7,415.41h11.46v-8.3h-11.46v8.3ZM2024.85,693.18v-91.64h8.3v91.64h-8.3ZM1547.13,513.2h208.62v-8.32h-208.62v8.32ZM1196.69,479.09v-116.71h-8.31v116.71h8.31Z"/>
      <path class="st3" d="M1524.45,630.8h46.4v8.32h-46.4v-8.32ZM1678.02,630.8h45.83v8.32h-45.83v-8.32Z"/>
      <g>
        <path class="st3" d="M1971.37,560.63c0,.22-.04.63-.04.76v24.32h-27.17v-24.44s-.04-.43-.04-.64c0-7.28,6.11-13.2,13.62-13.2s13.62,5.92,13.62,13.2h0ZM1973.03,560.63c0-8.21-6.84-14.86-15.28-14.86s-15.28,6.65-15.28,14.86c0,.26.04.76.04.76v25.99h30.47v-25.99s.04-.5.04-.76h0Z"/>
        <path class="st3" d="M1967.98,589.57h-20.46v-1.71h20.46v1.71ZM1969.63,591.23v-5.02h-23.76v5.02h23.76Z"/>
      </g>
      <g>
        <path class="st3" d="M1977.59,639.54c0-.22.04-.64.04-.76v-24.32h27.17v24.44s.04.43.04.64c0,7.28-6.11,13.2-13.62,13.2s-13.62-5.92-13.62-13.2ZM1975.94,639.54c0,8.21,6.84,14.86,15.28,14.86s15.28-6.65,15.28-14.86c0-.26-.04-.76-.04-.76v-25.99h-30.47v25.99s-.04.5-.04.76h0Z"/>
        <path class="st3" d="M1980.99,610.6h20.46v1.71h-20.46v-1.71ZM1979.34,608.95v5.02h23.76v-5.02h-23.76Z"/>
      </g>
      <g>
        <path class="st3" d="M1965.39,524.88v-40.76h36.31v40.76h-36.31ZM1964.11,526.17h38.87v-43.34h-38.87v43.34Z"/>
        <path class="st3" d="M1969.59,519.27c-.96,0-1.73-.78-1.73-1.73v-25.96c0-.95.77-1.72,1.73-1.72h13.81c.95,0,1.73.77,1.73,1.72v25.96c0,.96-.78,1.73-1.73,1.73h-13.81ZM1969.59,520.55h13.81c1.66,0,3.01-1.35,3.02-3.02v-25.96c0-1.66-1.35-3.01-3.02-3.01h-13.81c-1.66,0-3.01,1.34-3.02,3v25.97c0,1.66,1.34,3.01,3,3.02h.02ZM1988.45,507.47c-.58,0-1.05.46-1.05,1.04s.47,1.03,1.05,1.03c.57,0,1.04-.46,1.04-1.03,0-.57-.46-1.04-1.04-1.04h0ZM1988.45,499.57c-.58,0-1.05.46-1.05,1.03s.47,1.04,1.05,1.04,1.04-.47,1.04-1.04-.47-1.03-1.04-1.03h0Z"/>
        <path class="st2" d="M1989.21,504.56h-7.06"/>
        <path class="st3" d="M1998.6,522.73v-2.57h3.09v2.57h-3.09ZM1997.32,524.01h5.66v-5.14h-5.66v5.15h0ZM1998.6,488.96v-2.58h3.09v2.58h-3.09ZM1997.32,490.24h5.66v-5.15h-5.66v5.15Z"/>
        <path class="st4" d="M2000.14,519.04v-28.79"/>
      </g>
      <g>
        <path class="st3" d="M1959,700.75v40.76h-36.29v-40.76h36.29ZM1960.28,699.47h-38.87v43.34h38.87v-43.34h0Z"/>
        <path class="st3" d="M1954.81,706.37c.95,0,1.72.78,1.72,1.73v25.95c0,.96-.77,1.73-1.72,1.73h-13.82c-.95,0-1.72-.77-1.72-1.73h0v-25.95c0-.95.77-1.73,1.72-1.73h13.82ZM1954.81,705.09h-13.82c-1.66,0-3.01,1.35-3.02,3.02v25.95c0,1.66,1.34,3.01,3.01,3.02h13.83c1.66,0,3.01-1.35,3.02-3.02v-25.95c0-1.66-1.35-3.01-3.01-3.02h0ZM1935.95,718.16c.57,0,1.04-.46,1.04-1.04s-.47-1.03-1.04-1.03-1.04.46-1.04,1.03.46,1.04,1.04,1.04h0ZM1935.95,726.07c.57,0,1.04-.46,1.04-1.03s-.47-1.04-1.04-1.04-1.04.46-1.04,1.04.46,1.03,1.04,1.03h0Z"/>
        <path class="st2" d="M1935.19,721.08h7.05"/>
        <path class="st3" d="M1925.79,702.91v2.57h-3.08v-2.57h3.08ZM1927.07,701.62h-5.65v5.14h5.65v-5.15h0ZM1925.79,736.67v2.58h-3.08v-2.58h3.08ZM1927.07,735.39h-5.65v5.15h5.65v-5.15Z"/>
        <path class="st4" d="M1924.25,706.59v28.8"/>
      </g>
      <g>
        <path class="st3" d="M2032.66,587.25h42.76c5.42-.01,9.81-4.41,9.83-9.83v-43.5c0-2.6-1.04-5.1-2.89-6.94-1.84-1.85-4.34-2.88-6.94-2.89h-42.76c-2.61,0-5.11,1.04-6.94,2.89-1.85,1.84-2.89,4.34-2.9,6.94v43.5c0,2.61,1.05,5.1,2.9,6.94,1.84,1.84,4.34,2.88,6.94,2.89ZM2075.42,587.84h-42.76c-2.76,0-5.42-1.1-7.36-3.07-1.96-1.95-3.06-4.59-3.06-7.35v-43.5c0-2.86,1.18-5.47,3.06-7.36,1.95-1.96,4.6-3.05,7.36-3.05h42.76c2.86,0,5.47,1.17,7.35,3.05,1.96,1.95,3.06,4.6,3.07,7.36v43.5c0,2.76-1.1,5.41-3.07,7.35-1.94,1.96-4.59,3.07-7.35,3.07h0Z"/>
        <path class="st3" d="M2034.15,585.03h39.79c2.42,0,4.73-.96,6.44-2.67,1.72-1.71,2.68-4.03,2.69-6.45v-40.47c0-2.52-1.03-4.8-2.69-6.45s-3.94-2.68-6.44-2.68h-39.79c-2.51,0-4.8,1.03-6.45,2.68s-2.69,3.94-2.69,6.45v40.47c0,2.52,1.03,4.8,2.69,6.45s3.94,2.67,6.45,2.67ZM2073.94,585.62h-39.79c-2.58,0-5.05-1.03-6.87-2.85-1.82-1.82-2.85-4.29-2.85-6.86v-40.47c0-2.58,1.03-5.05,2.85-6.87,1.82-1.82,4.29-2.85,6.87-2.85h39.79c2.67,0,5.1,1.1,6.86,2.85,1.83,1.82,2.85,4.29,2.85,6.87v40.47c0,2.58-1.03,5.05-2.85,6.86-1.82,1.83-4.29,2.85-6.86,2.85h0Z"/>
        <path class="st3" d="M2020.06,590.04h67.95v-68.75h-67.95v68.75h0ZM2088.6,591.23h-69.71v-71.11h70.31v71.11h-.59Z"/>
        <path class="st3" d="M2032.34,579.86c.6,0,1.17-.23,1.59-.65.4-.41.65-.97.65-1.59s-.23-1.16-.65-1.58c-.41-.4-.97-.65-1.59-.65s-1.18.25-1.58.65c-.88.87-.88,2.28-.01,3.16,0,0,0,0,.01.01.4.4.96.65,1.58.65ZM2034.35,579.64c-.51.5-1.22.82-2,.82s-1.49-.32-2-.82c-.51-.52-.83-1.23-.83-2.01s.32-1.49.83-2,1.22-.82,2-.82,1.49.31,2,.82c.51.52.83,1.22.83,2s-.32,1.49-.83,2.01h0Z"/>
      </g>
      <g>
        <path class="st3" d="M1673.23,704.44v-73.64h-2.95v73.64h2.95Z"/>
        <path class="st3" d="M1672.61,703.45h-5.22c-20.61,0-37.35-6.42-48.93-17.97-11.58-11.55-18.02-28.24-18.02-48.79v-5.89h-.99v5.89c0,20.82,6.54,37.76,18.31,49.5,11.77,11.73,28.75,18.25,49.63,18.25h5.22v-.99h0ZM1575.64,630.79v28.19h2.95v-28.19h-2.95ZM1673.82,639.11h4.2v-8.31h-4.79v8.32h.59ZM1676.84,637.93h-2.43v-5.95h2.43v5.95ZM1571.45,639.11h4.2v-8.31h-4.79v8.32h.59ZM1574.46,637.93h-2.42v-5.95h2.42v5.95Z"/>
        <path class="st3" d="M1600.4,637.17c0,5.79-2.29,11.34-6.39,15.42-4.08,4.1-9.63,6.4-15.41,6.39v-.83c5.79,0,11.03-2.35,14.83-6.14,3.94-3.93,6.14-9.27,6.14-14.84h.83,0Z"/>
      </g>
      <g>
        <path class="st3" d="M17.61,7.02h13.67v69.47h-13.67V7.02Z"/>
        <path class="st3" d="M292.35,44.46h-160.57V8.43h160.57v36.02ZM293.75,45.87V7.02h-163.38v38.85h163.38Z"/>
        <path class="st3" d="M17.61,7.02h1.9v69.47h-1.9V7.02Z"/>
        <path class="st3" d="M292.35,25.03h-160.59v-3.79h160.59v3.79ZM293.76,26.44v-6.61h-163.4v6.61h163.4,0Z"/>
        <path class="st3" d="M17.61,7.02h1.9v1.9h-1.9v-1.9Z"/>
        <path class="st3" d="M292.35,25.03h-3.8v-3.79h3.8v3.79ZM293.76,26.44v-6.61h-6.63v6.61h6.63Z"/>
        <path class="st3" d="M17.61,7.02h1.9v1.9h-1.9v-1.9Z"/>
        <path class="st3" d="M135.59,25.03h-3.8v-3.79h3.8v3.79ZM137,26.44v-6.61h-6.63v6.61h6.63Z"/>
        <path class="st3" d="M17.61,7.02h1.9v1.9h-1.9v-1.9Z"/>
        <path class="st3" d="M259.28,25.03h-3.8v-3.79h3.8v3.79ZM260.69,26.44v-6.61h-6.62v6.61h6.62Z"/>
        <path class="st3" d="M17.61,7.02h13.67v69.47h-13.67V7.02Z"/>
        <path class="st3" d="M569.28,44.46h-160.56V8.43h160.56v36.02ZM570.7,45.87V7.02h-163.38v38.85h163.38Z"/>
        <path class="st3" d="M17.61,7.02h1.9v69.47h-1.9V7.02Z"/>
        <path class="st3" d="M569.29,25.03h-160.59v-3.79h160.59v3.79h0ZM570.71,26.44v-6.61h-163.41v6.61h163.41Z"/>
        <path class="st3" d="M17.61,7.02h1.9v1.9h-1.9v-1.9Z"/>
        <path class="st3" d="M569.29,25.03h-3.81v-3.79h3.81v3.79ZM570.71,26.44v-6.61h-6.63v6.61h6.63Z"/>
        <path class="st3" d="M17.61,7.02h1.9v1.9h-1.9v-1.9Z"/>
        <path class="st3" d="M412.53,25.03h-3.81v-3.79h3.81v3.79ZM413.95,26.44v-6.61h-6.63v6.61h6.63Z"/>
        <path class="st3" d="M17.61,7.02h1.9v1.9h-1.9v-1.9Z"/>
        <path class="st3" d="M536.22,25.03h-3.81v-3.79h3.81v3.79ZM537.64,26.44v-6.61h-6.63v6.61h6.63Z"/>
        <path class="st3" d="M17.61,7.02h13.67v69.47h-13.67V7.02Z"/>
        <path class="st3" d="M850.96,44.46h-160.57V8.43h160.57v36.02h0ZM852.37,45.87V7.02h-163.39v38.85h163.39Z"/>
        <path class="st3" d="M17.61,7.02h1.9v69.47h-1.9V7.02Z"/>
        <path class="st3" d="M850.96,25.03h-160.58v-3.79h160.58v3.79h0ZM852.37,26.44v-6.61h-163.4v6.61h163.4Z"/>
        <path class="st3" d="M17.61,7.02h1.9v1.9h-1.9v-1.9Z"/>
        <path class="st3" d="M850.96,25.03h-3.8v-3.79h3.8v3.79ZM852.37,26.44v-6.61h-6.62v6.61h6.62Z"/>
        <path class="st3" d="M17.61,7.02h1.9v1.9h-1.9v-1.9Z"/>
        <path class="st3" d="M694.2,25.03h-3.8v-3.79h3.8v3.79h0ZM695.61,26.44v-6.61h-6.63v6.61h6.63Z"/>
        <path class="st3" d="M17.61,7.02h1.9v1.9h-1.9v-1.9Z"/>
        <path class="st3" d="M817.89,25.03h-3.8v-3.79h3.8v3.79ZM819.3,26.44v-6.61h-6.62v6.61h6.62Z"/>
        <path class="st3" d="M17.61,7.02h13.67v69.47h-13.67V7.02Z"/>
        <path class="st3" d="M1127.9,44.46h-160.57V8.43h160.57v36.02h0ZM1129.3,45.87V7.02h-163.38v38.85h163.38Z"/>
        <path class="st3" d="M17.61,7.02h1.9v69.47h-1.9V7.02Z"/>
        <path class="st3" d="M1127.9,25.03h-160.59v-3.79h160.59v3.79ZM1129.31,26.44v-6.61h-163.41v6.61h163.41,0Z"/>
        <path class="st3" d="M17.61,7.02h1.9v1.9h-1.9v-1.9Z"/>
        <path class="st3" d="M1127.9,25.03h-3.81v-3.79h3.81v3.79ZM1129.31,26.44v-6.61h-6.63v6.61h6.63Z"/>
        <path class="st3" d="M17.61,7.02h1.9v1.9h-1.9v-1.9Z"/>
        <path class="st3" d="M971.14,25.03h-3.81v-3.79h3.81v3.79ZM972.56,26.44v-6.61h-6.63v6.61h6.63Z"/>
        <path class="st3" d="M17.61,7.02h1.9v1.9h-1.9v-1.9Z"/>
        <path class="st3" d="M1094.83,25.03h-3.8v-3.79h3.8v3.79ZM1096.25,26.44v-6.61h-6.63v6.61h6.63Z"/>
        <path class="st3" d="M17.61,7.02h13.67v69.47h-13.67V7.02Z"/>
        <path class="st3" d="M1407.2,44.46h-160.56V8.43h160.56v36.02ZM1408.61,45.87V7.02h-163.38v38.85h163.38Z"/>
        <path class="st3" d="M17.61,7.02h1.9v69.47h-1.9V7.02Z"/>
        <path class="st3" d="M1407.2,25.03h-160.58v-3.79h160.58v3.79ZM1408.61,26.44v-6.61h-163.4v6.61h163.4Z"/>
        <path class="st3" d="M17.61,7.02h1.9v1.9h-1.9v-1.9Z"/>
        <path class="st3" d="M1407.2,25.03h-3.8v-3.79h3.8v3.79ZM1408.61,26.44v-6.61h-6.62v6.61h6.62Z"/>
        <path class="st3" d="M17.61,7.02h1.9v1.9h-1.9v-1.9Z"/>
        <path class="st3" d="M1250.44,25.03h-3.8v-3.79h3.8v3.79ZM1251.85,26.44v-6.61h-6.62v6.61h6.62Z"/>
        <path class="st3" d="M17.61,7.02h1.9v1.9h-1.9v-1.9Z"/>
        <path class="st3" d="M1374.14,25.03h-3.81v-3.79h3.81v3.79ZM1375.55,26.44v-6.61h-6.62v6.61h6.62Z"/>
        <path class="st3" d="M17.61,7.02h13.67v69.47h-13.67V7.02Z"/>
        <path class="st3" d="M1684.15,44.46h-160.57V8.43h160.57v36.02h0ZM1685.56,45.87V7.02h-163.39v38.85h163.39,0Z"/>
        <path class="st3" d="M17.61,7.02h1.9v69.47h-1.9V7.02Z"/>
        <path class="st3" d="M1684.15,25.03h-160.58v-3.79h160.58v3.79h0ZM1685.56,26.44v-6.61h-163.4v6.61h163.4,0Z"/>
        <path class="st3" d="M17.61,7.02h1.9v1.9h-1.9v-1.9Z"/>
        <path class="st3" d="M1684.15,25.03h-3.8v-3.79h3.8v3.79ZM1685.56,26.44v-6.61h-6.62v6.61h6.62Z"/>
        <path class="st3" d="M17.61,7.02h1.9v1.9h-1.9v-1.9Z"/>
        <path class="st3" d="M1527.39,25.03h-3.8v-3.79h3.8v3.79ZM1528.8,26.44v-6.61h-6.63v6.61h6.63Z"/>
        <path class="st3" d="M17.61,7.02h1.9v1.9h-1.9v-1.9Z"/>
        <path class="st3" d="M1651.08,25.03h-3.8v-3.79h3.8v3.79h0ZM1652.49,26.44v-6.61h-6.62v6.61h6.62Z"/>
        <path class="st3" d="M17.61,7.02h13.67v69.47h-13.67V7.02Z"/>
        <path class="st3" d="M1965.81,44.46h-160.56V8.43h160.56v36.02ZM1967.22,45.87V7.02h-163.38v38.85h163.38Z"/>
        <path class="st3" d="M17.61,7.02h1.9v69.47h-1.9V7.02Z"/>
        <path class="st3" d="M1965.81,25.03h-160.58v-3.79h160.58v3.79ZM1967.22,26.44v-6.61h-163.4v6.61h163.4Z"/>
        <path class="st3" d="M17.61,7.02h1.9v1.9h-1.9v-1.9Z"/>
        <path class="st3" d="M1965.81,25.03h-3.8v-3.79h3.8v3.79ZM1967.22,26.44v-6.61h-6.62v6.61h6.62Z"/>
        <path class="st3" d="M17.61,7.02h1.9v1.9h-1.9v-1.9Z"/>
        <path class="st3" d="M1809.05,25.03h-3.8v-3.79h3.8v3.79ZM1810.46,26.44v-6.61h-6.62v6.61h6.62Z"/>
        <path class="st3" d="M17.61,7.02h1.9v1.9h-1.9v-1.9Z"/>
        <path class="st3" d="M1932.75,25.03h-3.81v-3.79h3.81v3.79ZM1934.16,26.44v-6.61h-6.62v6.61h6.62Z"/>
        <path class="st3" d="M17.61,7.02h13.67v69.47h-13.67V7.02Z"/>
        <path class="st3" d="M2242.76,44.46h-160.57V8.43h160.57v36.02h0ZM2244.17,45.87V7.02h-163.39v38.85h163.39Z"/>
        <path class="st3" d="M17.61,7.02h1.9v69.47h-1.9V7.02Z"/>
        <path class="st3" d="M2242.76,25.03h-160.58v-3.79h160.58v3.79h0ZM2244.17,26.44v-6.61h-163.4v6.61h163.4Z"/>
        <path class="st3" d="M17.61,7.02h1.9v1.9h-1.9v-1.9Z"/>
        <path class="st3" d="M2242.76,25.03h-3.8v-3.79h3.8v3.79ZM2244.17,26.44v-6.61h-6.62v6.61h6.62Z"/>
        <path class="st3" d="M17.61,7.02h1.9v1.9h-1.9v-1.9Z"/>
        <path class="st3" d="M2086,25.03h-3.8v-3.79h3.8v3.79ZM2087.41,26.44v-6.61h-6.62v6.61h6.62Z"/>
        <path class="st3" d="M17.61,7.02h1.9v1.9h-1.9v-1.9Z"/>
        <path class="st3" d="M2209.69,25.03h-3.8v-3.79h3.8v3.79h0ZM2211.1,26.44v-6.61h-6.62v6.61h6.62Z"/>
      </g>
      <g>
        <path class="st3" d="M17.61,7.02h13.67v69.47h-13.67V7.02Z"/>
        <path class="st3" d="M17.61,7.02h1.9v69.47h-1.9V7.02Z"/>
        <path class="st3" d="M17.61,7.02h1.9v1.9h-1.9v-1.9Z"/>
        <path class="st3" d="M17.61,7.02h13.67v69.47h-13.67V7.02Z"/>
        <path class="st3" d="M17.61,7.02h1.9v69.47h-1.9V7.02Z"/>
        <path class="st3" d="M17.61,7.02h1.9v1.9h-1.9v-1.9Z"/>
        <path class="st3" d="M17.61,7.02h13.67v69.47h-13.67V7.02Z"/>
        <path class="st3" d="M17.61,7.02h1.9v69.47h-1.9V7.02Z"/>
        <path class="st3" d="M17.61,7.02h1.9v1.9h-1.9v-1.9Z"/>
        <path class="st3" d="M17.61,7.02h13.67v69.47h-13.67V7.02Z"/>
        <path class="st3" d="M17.61,7.02h1.9v69.47h-1.9V7.02Z"/>
        <path class="st3" d="M17.61,7.02h1.9v1.9h-1.9v-1.9Z"/>
        <path class="st3" d="M17.61,7.02h13.67v69.47h-13.67V7.02Z"/>
        <path class="st3" d="M17.61,7.02h1.9v69.47h-1.9V7.02Z"/>
        <path class="st3" d="M17.61,7.02h1.9v1.9h-1.9v-1.9Z"/>
        <path class="st3" d="M17.61,7.02h13.67v69.47h-13.67V7.02Z"/>
        <path class="st3" d="M17.61,7.02h1.9v69.47h-1.9V7.02Z"/>
        <path class="st3" d="M17.61,7.02h1.9v1.9h-1.9v-1.9Z"/>
        <path class="st3" d="M17.61,7.02h13.67v69.47h-13.67V7.02Z"/>
        <path class="st3" d="M17.61,7.02h1.9v69.47h-1.9V7.02Z"/>
        <path class="st3" d="M17.61,7.02h1.9v1.9h-1.9v-1.9Z"/>
        <path class="st3" d="M17.61,7.02h13.67v69.47h-13.67V7.02Z"/>
        <path class="st3" d="M17.61,7.02h1.9v69.47h-1.9V7.02Z"/>
        <path class="st3" d="M17.61,7.02h1.9v1.9h-1.9v-1.9Z"/>
      </g>
      <g>
        <path class="st3" d="M18.32,569.87h37.44v104.58H18.32v-104.58Z"/>
        <path class="st3" d="M55.05,570.57v103.88H19.03v-103.88h36.02ZM56.46,569.15H17.61v106.7h38.85v-106.7h0Z"/>
        <path class="st3" d="M31.13,569.87h5.2v105.29h-5.2v-105.29Z"/>
        <path class="st3" d="M35.63,570.57v103.9h-3.79v-103.9h3.79ZM37.04,569.15h-6.61v106.72h6.61v-106.72h0Z"/>
        <path class="st3" d="M31.13,569.87h5.2v5.21h-5.2v-5.21Z"/>
        <path class="st3" d="M35.63,570.57v3.8h-3.79v-3.8h3.79ZM37.04,569.15h-6.61v6.62h6.61v-6.62Z"/>
        <path class="st3" d="M31.13,669.94h5.2v5.22h-5.2v-5.22Z"/>
        <path class="st3" d="M35.63,670.64v3.81h-3.79v-3.81h3.79ZM37.04,669.22h-6.61v6.63h6.61v-6.63Z"/>
        <path class="st3" d="M31.13,599.39h5.2v5.21h-5.2v-5.21Z"/>
        <path class="st3" d="M35.63,600.09v3.81h-3.79v-3.81h3.79ZM37.04,598.68h-6.61v6.63h6.61v-6.63Z"/>
        <path class="st3" d="M18.32,346.66h37.44v104.58H18.32v-104.58Z"/>
        <path class="st3" d="M55.05,347.36v103.88H19.03v-103.88h36.02ZM56.46,345.95H17.61v106.7h38.85v-106.7h0Z"/>
        <path class="st3" d="M31.13,346.66h5.2v105.29h-5.2v-105.29Z"/>
        <path class="st3" d="M35.63,347.36v103.9h-3.79v-103.9h3.79ZM37.04,345.95h-6.61v106.72h6.61v-106.72Z"/>
        <path class="st3" d="M31.13,346.66h5.2v5.21h-5.2v-5.21Z"/>
        <path class="st3" d="M35.63,347.36v3.8h-3.79v-3.8h3.79ZM37.04,345.95h-6.61v6.63h6.61v-6.63Z"/>
        <path class="st3" d="M31.13,446.73h5.2v5.22h-5.2v-5.22Z"/>
        <path class="st3" d="M35.63,447.43v3.81h-3.79v-3.81h3.79ZM37.04,446.02h-6.61v6.62h6.61v-6.62Z"/>
        <path class="st3" d="M31.13,376.18h5.2v5.21h-5.2v-5.21Z"/>
        <path class="st3" d="M35.63,376.88v3.81h-3.79v-3.81h3.79ZM37.04,375.47h-6.61v6.63h6.61v-6.63Z"/>
        <path class="st3" d="M18.32,123.45h37.44v104.58H18.32v-104.58Z"/>
        <path class="st3" d="M55.05,124.15v103.88H19.03v-103.88h36.02ZM56.46,122.74H17.61v106.7h38.85v-106.7h0Z"/>
        <path class="st3" d="M31.13,123.45h5.2v105.29h-5.2v-105.29Z"/>
        <path class="st3" d="M35.63,124.15v103.9h-3.79v-103.9h3.79ZM37.04,122.74h-6.61v106.72h6.61v-106.72h0Z"/>
        <path class="st3" d="M31.13,123.45h5.2v5.21h-5.2v-5.21Z"/>
        <path class="st3" d="M35.63,124.15v3.81h-3.79v-3.81h3.79ZM37.04,122.74h-6.61v6.63h6.61s0-6.63,0-6.63Z"/>
        <path class="st3" d="M31.13,223.52h5.2v5.22h-5.2v-5.22Z"/>
        <path class="st3" d="M35.63,224.23v3.8h-3.79v-3.8h3.79ZM37.04,222.82h-6.61v6.62h6.61v-6.62Z"/>
        <path class="st3" d="M31.13,152.97h5.2v5.21h-5.2v-5.21Z"/>
        <path class="st3" d="M35.63,153.67v3.81h-3.79v-3.81h3.79ZM37.04,152.27h-6.61v6.62h6.61v-6.62Z"/>
      </g>
      <g>
        <path class="st3" d="M2319.96,647.47h37.44v141.93h-37.44v-141.93Z"/>
        <path class="st3" d="M2320.67,788.7v-140.48h36.02v140.48h-36.02ZM2319.26,790.11h38.85v-143.31h-38.85v143.31Z"/>
        <path class="st3" d="M2339.38,647.51h5.2v141.89h-5.2v-141.89Z"/>
        <path class="st3" d="M2340.09,788.7v-140.5h3.79v140.5h-3.79ZM2338.68,790.11h6.61v-143.33h-6.61v143.33h0Z"/>
        <path class="st3" d="M2339.38,647.51h5.2v5.22h-5.2v-5.22Z"/>
        <path class="st3" d="M2340.09,652.01v-3.8h3.79v3.8h-3.79ZM2338.68,653.43h6.61v-6.62h-6.61v6.62Z"/>
        <path class="st3" d="M2339.38,754.67h5.2v5.21h-5.2v-5.21Z"/>
        <path class="st3" d="M2340.09,759.18v-3.81h3.79v3.81h-3.79ZM2338.68,760.59h6.61v-6.63h-6.61v6.63Z"/>
      </g>
      <g>
        <path class="st3" d="M2319.96,385.29h37.44v141.93h-37.44v-141.93Z"/>
        <path class="st3" d="M2320.67,526.52v-140.48h36.02v140.48h-36.02ZM2319.26,527.93h38.85v-143.32h-38.85v143.32h0Z"/>
        <path class="st3" d="M2339.38,385.33h5.2v141.89h-5.2v-141.89Z"/>
        <path class="st3" d="M2340.09,526.52v-140.5h3.79v140.5h-3.79ZM2338.68,527.93h6.61v-143.33h-6.61v143.32h0Z"/>
        <path class="st3" d="M2339.38,522.01h5.2v5.21h-5.2v-5.21Z"/>
        <path class="st3" d="M2340.09,526.52v-3.81h3.79v3.81h-3.79ZM2338.68,527.93h6.61v-6.63h-6.61v6.63Z"/>
        <path class="st3" d="M2339.38,385.33h5.2v5.22h-5.2v-5.22Z"/>
        <path class="st3" d="M2340.09,389.83v-3.8h3.79v3.8h-3.79ZM2338.68,391.25h6.61v-6.63h-6.61v6.63Z"/>
        <path class="st3" d="M2339.38,492.49h5.2v5.21h-5.2v-5.21Z"/>
        <path class="st3" d="M2340.09,497v-3.81h3.79v3.81h-3.79ZM2338.68,498.41h6.61v-6.63h-6.61v6.63Z"/>
      </g>
      <g>
        <path class="st3" d="M2319.96,124.29h37.44v141.93h-37.44V124.29Z"/>
        <path class="st3" d="M2320.67,265.52V125.03h36.02v140.49h-36.02ZM2319.26,266.92h38.85V123.62h-38.85v143.31Z"/>
        <path class="st3" d="M2339.38,124.33h5.2v141.89h-5.2V124.33Z"/>
        <path class="st3" d="M2340.09,265.52V125.01h3.79v140.51h-3.79ZM2338.68,266.92h6.61V123.61h-6.61v143.32Z"/>
        <path class="st3" d="M2339.38,261.01h5.2v5.21h-5.2v-5.21Z"/>
        <path class="st3" d="M2340.09,265.52v-3.81h3.79v3.81h-3.79ZM2338.68,266.92h6.61v-6.62h-6.61v6.62Z"/>
        <path class="st3" d="M2339.38,124.33h5.2v5.22h-5.2v-5.22Z"/>
        <path class="st3" d="M2340.09,128.84v-3.81h3.79v3.81h-3.79ZM2338.68,130.25h6.61v-6.63h-6.61v6.63Z"/>
        <path class="st3" d="M2339.38,231.48h5.2v5.21h-5.2v-5.21Z"/>
        <path class="st3" d="M2340.09,235.99v-3.8h3.79v3.8h-3.79ZM2338.68,237.4h6.61v-6.62h-6.61v6.62Z"/>
      </g>
      <path class="st3" d="M125.42,132.51v7.4h-20.85c.21-2.76.91-5.47,2.04-7.99,1.15-2.54,3.38-5.85,6.67-9.98,2.6-3.28,4.22-5.49,4.81-6.65.89-1.68,1.34-3.38,1.34-5.09,0-1.82-.37-3.18-1.1-4.13-.74-.92-1.71-1.38-2.91-1.38-2.62,0-4.04,2.17-4.25,6.53l-5.92-.88c.36-4.24,1.42-7.34,3.21-9.33,1.78-1.98,4.16-2.97,7.12-2.97,3.25,0,5.7,1.16,7.34,3.5,1.65,2.33,2.48,5.01,2.48,8.03,0,1.71-.21,3.37-.63,4.97s-1.07,3.22-1.94,4.84c-.88,1.62-2.33,3.7-4.39,6.21-1.9,2.38-3.11,3.94-3.62,4.71-.48.7-.89,1.44-1.23,2.21,0,0,11.81,0,11.81,0Z"/>
      <path class="st3" d="M139.5,98.04c3.01,0,5.44,1.57,7.3,4.73,1.86,3.17,2.78,8.69,2.78,16.57s-.92,13.38-2.78,16.55c-1.86,3.15-4.29,4.73-7.27,4.73s-5.45-1.56-7.31-4.69c-1.85-3.14-2.79-8.69-2.79-16.67s.93-13.32,2.79-16.49c1.86-3.15,4.29-4.73,7.28-4.73ZM139.51,104.69c-1.16,0-2.09.85-2.79,2.55-.69,1.7-1.04,5.74-1.04,12.09s.35,10.39,1.04,12.09c.7,1.69,1.63,2.53,2.79,2.53s2.11-.85,2.8-2.55c.69-1.69,1.03-5.72,1.03-12.07s-.34-10.39-1.03-12.09-1.62-2.55-2.8-2.55Z"/>
      <path class="st3" d="M158.71,117.37c-1.43-.83-2.54-1.96-3.27-3.41-.73-1.43-1.09-3.17-1.09-5.2,0-3.27.84-5.87,2.52-7.81,1.67-1.93,3.94-2.9,6.79-2.9,3.01,0,5.31,1.04,6.89,3.12,1.57,2.06,2.36,4.58,2.36,7.55,0,2.02-.39,3.78-1.15,5.26-.77,1.49-1.82,2.61-3.15,3.4,1.78.95,3.12,2.28,3.99,4,.88,1.72,1.32,3.83,1.32,6.34s-.43,4.85-1.29,6.82c-.87,1.97-2.07,3.49-3.6,4.53-1.53,1.04-3.24,1.56-5.15,1.56-2.99,0-5.46-1.14-7.41-3.43-1.94-2.28-2.91-5.37-2.91-9.24,0-2.51.44-4.66,1.33-6.46s2.16-3.18,3.82-4.13h0ZM159.96,109.35c0,1.61.34,2.86,1.04,3.72.69.87,1.57,1.3,2.63,1.3s1.97-.43,2.67-1.3c.7-.86,1.05-2.1,1.05-3.72s-.34-2.79-1.03-3.65c-.7-.87-1.57-1.3-2.61-1.3-1.1,0-2,.43-2.7,1.31-.71.87-1.06,2.08-1.06,3.64ZM159.38,127.19c0,2.24.43,3.97,1.28,5.18.86,1.22,1.89,1.83,3.09,1.83s2.21-.58,3.02-1.74c.82-1.15,1.23-2.9,1.23-5.21,0-1.99-.42-3.57-1.25-4.73-.83-1.15-1.85-1.73-3.07-1.73s-2.21.58-3.05,1.74c-.84,1.17-1.25,2.72-1.25,4.66h0Z"/>
      <path class="st3" d="M189.85,130.24l5.76-.87c.28,3.11,1.39,4.66,3.37,4.66,1.32,0,2.4-.77,3.25-2.32.85-1.54,1.39-4.67,1.63-9.4-.74,1.16-1.57,2.03-2.51,2.61-.93.59-1.96.88-3.1.88-2.35,0-4.44-1.24-6.25-3.72-1.82-2.48-2.72-5.78-2.72-9.89,0-4.4.95-7.85,2.87-10.38,1.91-2.51,4.26-3.78,7.07-3.78,3.14,0,5.72,1.62,7.74,4.87,2.03,3.25,3.06,8.65,3.06,16.17s-1.06,13.15-3.18,16.51c-2.12,3.35-4.87,5.03-8.24,5.03-2.34,0-4.28-.84-5.8-2.54-1.53-1.69-2.51-4.31-2.93-7.83h0ZM203.34,112.78c0-2.59-.45-4.6-1.34-6-.89-1.38-1.91-2.08-3.05-2.08s-2.02.57-2.74,1.72c-.74,1.15-1.1,3.07-1.1,5.74s.39,4.65,1.19,5.89,1.79,1.86,2.96,1.86,2.08-.59,2.9-1.77c.8-1.2,1.19-2.97,1.19-5.36Z"/>
      <path class="st3" d="M178.74,131.93h5.92v5.72c0,3.25-.34,5.66-1.03,7.24-.83,1.95-2.23,3.41-4.21,4.36l-1.16-3.31c1.16-.53,2-1.25,2.51-2.15.51-.91.78-2.2.82-3.88h-2.85v-7.98h0Z"/>
      <path class="st3" d="M223.93,98.04c3.01,0,5.44,1.57,7.3,4.73,1.86,3.17,2.79,8.69,2.79,16.57s-.92,13.38-2.79,16.55c-1.86,3.15-4.29,4.73-7.27,4.73s-5.45-1.56-7.31-4.69c-1.86-3.14-2.79-8.69-2.79-16.67s.92-13.32,2.79-16.49c1.86-3.15,4.29-4.73,7.28-4.73ZM223.94,104.69c-1.16,0-2.09.85-2.79,2.55-.69,1.7-1.04,5.74-1.04,12.09s.35,10.39,1.04,12.09c.7,1.69,1.63,2.53,2.79,2.53s2.11-.85,2.8-2.55c.69-1.69,1.03-5.72,1.03-12.07s-.34-10.39-1.03-12.09-1.62-2.55-2.8-2.55Z"/>
      <g>
        <path class="st3" d="M1993.1,479.76h-5.21c-20.61,0-37.35-6.42-48.93-17.97-11.58-11.55-18.02-28.25-18.02-48.8v-5.88h-.99v5.88c0,20.83,6.54,37.76,18.31,49.5s28.75,18.26,49.63,18.26h5.21v-.99h0Z"/>
        <path class="st3" d="M1990.86,407.11v73.64h2.95v-73.64h-2.95Z"/>
        <path class="st3" d="M1994.32,415.41h4.2v-8.3h-4.79v8.3h.59ZM1997.34,414.24h-2.42v-5.95h2.42v5.95ZM1915.75,415.41h4.2v-8.3h-4.79v8.3h.59ZM1918.77,414.24h-2.43v-5.95h2.43v5.95Z"/>
      </g>
      <g>
        <path class="st3" d="M2024.85,427.72v5.21c0,20.61,6.42,37.35,17.97,48.93,11.55,11.59,28.25,18.02,48.8,18.02h5.88v.99h-5.88c-20.82,0-37.76-6.54-49.5-18.31-11.74-11.76-18.26-28.74-18.26-49.63v-5.21h.99,0Z"/>
        <path class="st3" d="M2097.5,429.97h-73.64v-2.95h73.64v2.95Z"/>
        <path class="st3" d="M2089.19,426.5v-4.19h8.3v4.78h-8.3v-.59ZM2090.38,423.48v2.42h5.94v-2.42h-5.94ZM2089.19,505.07v-4.2h8.3v4.79h-8.3v-.59h0ZM2090.38,502.05v2.42h5.94v-2.42h-5.94Z"/>
      </g>
      <g>
        <path class="st3" d="M1960.5,771.13v-5.22c0-20.61,6.42-37.35,17.97-48.93,11.55-11.58,28.25-18.01,48.8-18.01h5.88v-1h-5.88c-20.83,0-37.76,6.54-49.5,18.31-11.74,11.77-18.26,28.75-18.26,49.63v5.22h.99,0Z"/>
        <path class="st3" d="M2024.85,693.77v4.2h8.3v-4.79h-8.3v.59ZM2026.03,696.78v-2.42h5.94v2.42h-5.94Z"/>
      </g>
      <path class="st3" d="M1344.87,306.75h-2.36v-23.33c-.55.81-1.28,1.64-2.2,2.49-.92.84-1.76,1.48-2.53,1.92v-3.51c1.3-.95,2.45-2.12,3.46-3.51,1-1.37,1.71-2.71,2.11-4.03h1.53v29.95Z"/>
      <path class="st3" d="M1351.32,299.82l2.27-.29c.36,3.14,1.44,4.71,3.22,4.71.79,0,1.51-.34,2.16-1.02.64-.69,1.19-1.91,1.64-3.67s.68-3.8.68-6.14v-.73c-.5,1.21-1.16,2.16-1.99,2.88-.84.71-1.69,1.06-2.56,1.06-1.57,0-2.93-.86-4.07-2.6s-1.71-4.14-1.71-7.15.59-5.58,1.78-7.38c1.17-1.79,2.61-2.68,4.31-2.68,1.19,0,2.31.49,3.36,1.5,1.04,1,1.84,2.47,2.41,4.44.56,1.95.84,4.76.84,8.43,0,4.1-.3,7.28-.91,9.55s-1.43,3.92-2.47,4.96c-1.04,1.05-2.21,1.57-3.51,1.57-1.47,0-2.69-.63-3.68-1.9-.99-1.27-1.57-3.12-1.77-5.52h0ZM1361.04,286.65c0-2.13-.38-3.81-1.13-5.03s-1.61-1.83-2.58-1.83c-1.02,0-1.92.65-2.72,1.95-.8,1.3-1.2,3.04-1.2,5.21,0,1.96.38,3.52,1.14,4.68s1.67,1.74,2.73,1.74,1.94-.58,2.68-1.75c.72-1.16,1.09-2.83,1.09-4.97h0Z"/>
      <path class="st3" d="M1369.65,290.57c-.94-.53-1.7-1.34-2.15-2.33-.49-1.01-.73-2.27-.73-3.78,0-2.26.53-4.12,1.58-5.54,1.05-1.42,2.37-2.13,3.96-2.13s2.94.72,4,2.17c1.06,1.45,1.59,3.33,1.59,5.62,0,1.43-.24,2.65-.71,3.66-.45.98-1.2,1.79-2.14,2.33,1.17.59,2.07,1.52,2.7,2.83.63,1.29.94,2.92.94,4.84,0,2.64-.61,4.82-1.82,6.49s-2.72,2.51-4.52,2.51-3.34-.84-4.55-2.51c-1.21-1.67-1.81-3.87-1.81-6.6,0-1.99.32-3.64.97-4.93s1.55-2.17,2.69-2.63h0ZM1369.2,284.34c0,1.47.3,2.64.9,3.51.61.87,1.35,1.31,2.23,1.31s1.6-.43,2.2-1.28c.61-.86.91-1.97.91-3.33s-.31-2.55-.93-3.44c-.63-.89-1.36-1.33-2.21-1.33s-1.58.44-2.19,1.3c-.61.87-.91,1.96-.91,3.26h0ZM1368.41,298.14c0,1.83.38,3.31,1.15,4.42.77,1.12,1.7,1.68,2.78,1.68s2.01-.54,2.77-1.62c.76-1.09,1.14-2.54,1.14-4.36s-.39-3.3-1.17-4.42-1.71-1.68-2.8-1.68-1.99.56-2.74,1.67c-.75,1.11-1.12,2.55-1.12,4.31h0Z"/>
      <path class="st3" d="M1388.65,280.79v-3.51h12.48v2.86c-1.86,3.07-3.5,7.06-4.91,11.98s-2.22,9.79-2.43,14.63h-2.44c.03-2.51.34-5.42.93-8.75.59-3.33,1.4-6.5,2.44-9.52,1.03-3.01,2.14-5.58,3.34-7.69h-9.42,0Z"/>
      <path class="st3" d="M1382.34,306.75v-4.17h2.69v4.18c0,1.61-.19,2.88-.56,3.8-.38.91-.92,1.62-1.64,2.1l-.66-1.56c.48-.33.84-.81,1.08-1.46.25-.64.38-1.61.4-2.89h-1.31,0Z"/>
      <path class="st3" d="M1403.5,292.02c0-5,.53-8.79,1.59-11.36,1.07-2.58,2.64-3.87,4.71-3.87,1.84,0,3.29,1.04,4.35,3.13,1.28,2.53,1.92,6.56,1.92,12.1,0,4.98-.52,8.77-1.58,11.35-1.06,2.58-2.64,3.88-4.72,3.88-1.83,0-3.33-1.14-4.51-3.42-1.17-2.28-1.76-6.22-1.76-11.81h0ZM1405.93,292.02c0,4.84.37,8.1,1.1,9.75.73,1.65,1.66,2.47,2.81,2.47,1.08,0,1.98-.83,2.71-2.5.72-1.67,1.08-4.91,1.08-9.72s-.36-8.12-1.09-9.77-1.68-2.46-2.84-2.46c-1.07,0-1.96.83-2.68,2.51-.71,1.67-1.08,4.91-1.08,9.73h0Z"/>
      <path class="st3" d="M1943.06,435.49v3.51h-12.8c-.03-1.42.31-3.02,1.02-4.79.71-1.75,2.02-3.84,3.92-6.24,2.22-2.8,3.68-4.97,4.37-6.49.68-1.53,1.03-2.95,1.03-4.28,0-1.52-.35-2.77-1.06-3.73-.7-.95-1.56-1.43-2.59-1.43-1.11,0-2.01.51-2.72,1.54-.7,1.04-1.06,2.52-1.06,4.46l-2.43-.38c.17-2.86.81-5.01,1.92-6.45s2.56-2.17,4.39-2.17c1.97,0,3.47.84,4.48,2.52s1.52,3.6,1.52,5.74c0,1.88-.41,3.75-1.19,5.46-.79,1.75-2.31,4.08-4.53,6.98-1.42,1.83-2.34,3.08-2.76,3.76-.4.63-.74,1.3-1.01,1.99h9.52Z"/>
      <path class="st3" d="M1953.23,413.04v-3.51h12.48v2.86c-1.86,3.07-3.5,7.06-4.91,11.98s-2.22,9.79-2.43,14.63h-2.43c.03-2.5.34-5.42.93-8.74.57-3.23,1.38-6.41,2.43-9.52,1.03-3.01,2.15-5.58,3.35-7.69h-9.42Z"/>
      <path class="st3" d="M1946.92,438.99v-4.17h2.69v4.17c0,1.62-.19,2.89-.56,3.81-.38.91-.93,1.62-1.64,2.1l-.66-1.56c.48-.33.84-.81,1.08-1.46.25-.64.38-1.61.4-2.89h-1.31,0Z"/>
      <path class="st3" d="M1968.08,424.27c0-5,.53-8.79,1.59-11.36,1.07-2.58,2.63-3.88,4.71-3.88,1.84,0,3.29,1.04,4.35,3.14,1.28,2.52,1.92,6.56,1.92,12.1,0,4.98-.52,8.77-1.58,11.35-1.06,2.58-2.64,3.88-4.72,3.88-1.83,0-3.34-1.14-4.52-3.42-1.16-2.28-1.75-6.22-1.75-11.81h0ZM1970.51,424.27c0,4.84.37,8.09,1.1,9.75.73,1.65,1.66,2.48,2.81,2.48,1.08,0,1.98-.83,2.71-2.51.72-1.67,1.08-4.91,1.08-9.72s-.37-8.12-1.09-9.77c-.73-1.64-1.68-2.46-2.84-2.46-1.07,0-1.96.83-2.69,2.51s-1.08,4.91-1.08,9.73Z"/>
      <path class="st3" d="M2063.04,469.26v3.5h-12.8c-.04-1.42.3-3.03,1.01-4.79.72-1.75,2.02-3.84,3.93-6.24,2.22-2.8,3.68-4.96,4.36-6.49.69-1.53,1.03-2.95,1.03-4.28,0-1.52-.35-2.77-1.05-3.72-.7-.96-1.57-1.44-2.6-1.44-1.1,0-2.01.51-2.72,1.55-.71,1.03-1.06,2.52-1.06,4.45l-2.45-.37c.17-2.87.81-5.02,1.93-6.46,1.1-1.44,2.56-2.16,4.38-2.16,1.97,0,3.47.84,4.49,2.52,1.01,1.69,1.51,3.6,1.51,5.74,0,1.9-.39,3.72-1.18,5.46-.8,1.75-2.31,4.08-4.54,6.99-1.42,1.83-2.33,3.08-2.74,3.75-.4.63-.74,1.3-1.01,2h9.52Z"/>
      <path class="st3" d="M2066.88,472.75v-4.17h2.7v4.18c0,1.61-.18,2.88-.56,3.8-.37.91-.92,1.62-1.64,2.1l-.65-1.56c.47-.33.83-.81,1.07-1.46.25-.64.38-1.61.41-2.89h-1.32Z"/>
      <path class="st3" d="M2088.05,458.03c0-5,.53-8.79,1.59-11.36s2.63-3.87,4.71-3.87c1.83,0,3.29,1.04,4.35,3.13,1.28,2.53,1.92,6.56,1.92,12.1,0,4.98-.53,8.77-1.58,11.35-1.06,2.58-2.64,3.88-4.72,3.88-1.84,0-3.35-1.14-4.52-3.42-1.17-2.29-1.75-6.22-1.75-11.81h0ZM2090.49,458.03c0,4.84.37,8.11,1.09,9.75.73,1.65,1.67,2.47,2.81,2.47,1.08,0,1.98-.83,2.71-2.5.73-1.67,1.09-4.91,1.09-9.72s-.37-8.12-1.1-9.77-1.67-2.46-2.84-2.46c-1.06,0-1.96.83-2.68,2.5-.72,1.67-1.08,4.91-1.08,9.73Z"/>
      <path class="st3" d="M2073.21,446.8v-3.5h12.47v2.85c-1.86,3.07-3.5,7.06-4.9,11.98-1.41,4.92-2.22,9.79-2.45,14.63h-2.43c.04-2.51.35-5.42.93-8.75.57-3.23,1.39-6.41,2.44-9.51,1.03-3.02,2.14-5.59,3.35-7.7h-9.42,0Z"/>
      <path class="st3" d="M437.5,392.87v-7.12h-8.36v-3.38l8.75-19.33h1.98v19.33h2.64v3.38h-2.64v7.12h-2.37ZM437.5,382.37v-13.45l-6.01,13.45h6.01Z"/>
      <path class="st3" d="M446.25,392.87v-4.17h2.7v4.18c0,1.61-.19,2.88-.57,3.8-.37.91-.92,1.62-1.63,2.11l-.66-1.57c.47-.33.84-.81,1.08-1.46.24-.64.37-1.6.4-2.89h-1.32,0Z"/>
      <path class="st3" d="M467.42,378.15c0-5,.53-8.8,1.59-11.37,1.07-2.58,2.64-3.87,4.71-3.87,1.84,0,3.29,1.04,4.35,3.13,1.28,2.53,1.92,6.56,1.92,12.11,0,4.98-.53,8.76-1.58,11.34-1.06,2.58-2.64,3.88-4.72,3.88-1.84,0-3.35-1.14-4.52-3.42s-1.75-6.21-1.75-11.8h0ZM469.86,378.14c0,4.85.37,8.11,1.1,9.75.72,1.65,1.66,2.47,2.8,2.47,1.08,0,1.98-.83,2.7-2.5.73-1.67,1.09-4.91,1.09-9.72s-.37-8.11-1.1-9.77c-.73-1.64-1.67-2.46-2.83-2.46-1.07,0-1.96.83-2.68,2.52-.72,1.67-1.08,4.91-1.08,9.72h0Z"/>
      <path class="st3" d="M456.08,376.7c-.94-.53-1.7-1.35-2.15-2.33-.48-1.01-.73-2.27-.73-3.78,0-2.26.53-4.12,1.58-5.54s2.37-2.13,3.96-2.13,2.93.73,4,2.17c1.06,1.45,1.59,3.34,1.59,5.62,0,1.44-.24,2.65-.71,3.66s-1.18,1.77-2.14,2.33c1.17.58,2.07,1.52,2.7,2.83.63,1.29.94,2.92.94,4.84,0,2.65-.61,4.82-1.82,6.49-1.21,1.67-2.73,2.52-4.52,2.52s-3.34-.84-4.55-2.52-1.81-3.87-1.81-6.59c0-1.99.32-3.65.97-4.94.65-1.29,1.54-2.17,2.7-2.62h0ZM455.64,370.48c0,1.47.3,2.63.9,3.51.61.86,1.35,1.3,2.23,1.3s1.6-.43,2.2-1.28c.61-.85.91-1.96.91-3.33s-.31-2.55-.93-3.44c-.63-.88-1.36-1.33-2.21-1.33s-1.58.44-2.19,1.31c-.61.86-.91,1.95-.91,3.26h0ZM454.85,384.26c0,1.83.38,3.31,1.15,4.43.77,1.11,1.7,1.67,2.77,1.67s2.01-.54,2.77-1.62c.76-1.09,1.14-2.53,1.14-4.35s-.39-3.31-1.17-4.43c-.78-1.11-1.71-1.68-2.8-1.68s-1.99.56-2.74,1.67c-.75,1.11-1.12,2.54-1.12,4.31Z"/>
      <path class="st3" d="M1996.49,746.45v3.51h-12.8c-.03-1.42.31-3.03,1.02-4.79.71-1.75,2.02-3.84,3.92-6.24,2.22-2.8,3.68-4.97,4.37-6.49.68-1.53,1.03-2.96,1.03-4.28,0-1.52-.35-2.77-1.06-3.73-.7-.95-1.56-1.43-2.59-1.43-1.11,0-2.01.51-2.72,1.55-.7,1.03-1.06,2.51-1.06,4.45l-2.44-.38c.17-2.85.81-5.01,1.92-6.45s2.56-2.16,4.39-2.16c1.97,0,3.47.83,4.48,2.51,1.01,1.69,1.52,3.6,1.52,5.74,0,1.9-.4,3.72-1.19,5.46-.79,1.75-2.31,4.08-4.53,6.98-1.42,1.84-2.34,3.09-2.76,3.76-.41.66-.75,1.33-1.01,1.99h9.52Z"/>
      <path class="st3" d="M2000.34,749.96v-4.17h2.69v4.17c0,1.62-.19,2.89-.56,3.81-.38.91-.92,1.62-1.64,2.1l-.66-1.56c.48-.33.84-.81,1.08-1.46.25-.64.38-1.61.4-2.89h-1.31Z"/>
      <path class="st3" d="M2021.5,735.23c0-5,.53-8.79,1.59-11.36,1.07-2.58,2.64-3.87,4.71-3.87,1.84,0,3.29,1.04,4.35,3.13,1.28,2.52,1.92,6.56,1.92,12.1,0,4.98-.52,8.77-1.58,11.35-1.06,2.59-2.64,3.88-4.72,3.88-1.83,0-3.34-1.14-4.52-3.42-1.16-2.28-1.75-6.22-1.75-11.81ZM2023.94,735.23c0,4.84.37,8.1,1.1,9.75.73,1.65,1.66,2.47,2.81,2.47,1.08,0,1.98-.83,2.71-2.5.72-1.67,1.08-4.91,1.08-9.72s-.36-8.12-1.09-9.77-1.68-2.46-2.84-2.46c-1.07,0-1.96.83-2.69,2.5-.71,1.67-1.08,4.91-1.08,9.73h0Z"/>
      <path class="st3" d="M2006.5,742.12l2.5-.29c.19,1.89.63,3.3,1.3,4.24.68.92,1.47,1.38,2.38,1.38,1.12,0,2.08-.65,2.91-1.96.81-1.3,1.21-3.1,1.21-5.36,0-2.13-.39-3.79-1.17-4.96-.79-1.17-1.77-1.75-2.96-1.75-.71,0-1.38.25-2.01.76s-1.12,1.21-1.48,2.11l-2.23-.45,1.87-15.35h9.58v3.51h-7.7l-1.02,8.06c1.14-1.27,2.35-1.9,3.64-1.9,1.62,0,3.03.88,4.23,2.62,1.18,1.74,1.78,4.09,1.78,7.04s-.6,5.42-1.79,7.5-2.8,3.13-4.81,3.13c-1.67,0-3.09-.74-4.23-2.21-1.16-1.47-1.81-3.52-1.97-6.12h0Z"/>
      <path class="st3" d="M496.1,369.18h138.07v-8.3h-138.07v8.3Z"/>
      <path class="st3" d="M634.17,512.32v-151.45h-8.3v151.45h8.3ZM534.73,513.19v-60.66h-8.32v60.66h8.32ZM408.25,513.19v-152.32h-8.32v152.32h8.32Z"/>
      <g>
        <path class="st3" d="M582.43,468.65c0,.22-.03.64-.04.77v24.32h-27.17v-24.44s-.03-.43-.03-.65c0-7.27,6.1-13.2,13.61-13.2s13.62,5.93,13.62,13.2ZM584.08,468.65c0-8.2-6.84-14.86-15.28-14.86s-15.28,6.65-15.28,14.86c0,.26.04.77.04.77v25.98h30.47v-25.98s.04-.51.04-.77Z"/>
        <path class="st3" d="M579.03,497.6h-20.46v-1.7h20.46v1.7ZM580.68,499.26v-5.03h-23.76v5.03h23.76Z"/>
      </g>
      <g>
        <path class="st3" d="M488.7,467.3h-40.76v36.3h40.76v-36.29h0ZM489.98,466.01v38.87h-43.34v-38.87h43.34Z"/>
        <path class="st3" d="M483.08,471.49c0-.96-.78-1.73-1.73-1.73h-25.95c-.96,0-1.73.78-1.73,1.73v13.81c0,.96.77,1.73,1.73,1.73h25.95c.95,0,1.73-.77,1.73-1.73v-13.82h0ZM484.36,471.49v13.82c0,1.66-1.34,3.01-3,3.02,0,0-.01,0-.02,0h-25.95c-1.66,0-3.01-1.34-3.02-3,0,0,0-.01,0-.02v-13.82c0-1.66,1.35-3.01,3.02-3.02h25.96c1.66,0,3.01,1.35,3.01,3.01h0s0,0,0,0ZM471.29,490.35c0-.58.47-1.04,1.04-1.04s1.03.46,1.03,1.04-.46,1.04-1.03,1.04-1.04-.47-1.04-1.04ZM463.38,490.35c0-.58.46-1.04,1.03-1.04s1.04.46,1.04,1.04c0,.57-.46,1.04-1.04,1.04h0c-.57,0-1.03-.47-1.03-1.04Z"/>
        <path class="st2" d="M468.37,491.12v-7.05"/>
        <path class="st3" d="M486.55,500.51h-2.58v3.09h2.58v-3.09ZM487.83,499.22v5.66h-5.14v-5.66h5.15-.01,0ZM452.77,500.51h-2.57v3.09h2.57v-3.09ZM454.06,499.22v5.66h-5.15v-5.66h5.15Z"/>
        <path class="st4" d="M482.86,502.05h-28.8"/>
      </g>
      <g>
        <path class="st3" d="M418.15,433.52h5.22c20.61,0,37.35-6.42,48.93-17.97s18.02-28.25,18.02-48.8v-5.88h.99v5.88c0,20.83-6.54,37.77-18.31,49.5-11.77,11.74-28.75,18.26-49.63,18.26h-5.22v-.99h0Z"/>
        <path class="st3" d="M420.41,360.87v73.64h-2.95v-73.64h2.95Z"/>
        <path class="st3" d="M416.94,369.18h-4.2v-8.3h4.79v8.3h-.59ZM413.92,368.01h2.42v-5.95h-2.42v5.95ZM495.51,369.18h-4.2v-8.3h4.79v8.3h-.59ZM492.49,368.01h2.42v-5.95h-2.42v5.95Z"/>
      </g>
      <g>
        <path class="st3" d="M599.07,374.6v5.21c0,20.61-6.42,37.35-17.97,48.93-11.55,11.59-28.24,18.02-48.8,18.02h-5.88v.99h5.88c20.83,0,37.77-6.54,49.5-18.31,11.74-11.76,18.26-28.75,18.26-49.63v-5.21h-.99Z"/>
        <path class="st3" d="M526.42,376.84h73.64v-2.95h-73.64v2.95Z"/>
        <path class="st3" d="M534.73,373.38v-4.2h-8.32v4.79h8.32v-.59ZM533.55,370.36v2.42h-5.95v-2.42h5.95ZM534.73,451.95v-4.2h-8.32v4.79h8.32v-.59ZM533.55,448.93v2.42h-5.95v-2.42h5.95Z"/>
      </g>
      <path class="st3" d="M412.74,369.18h-12.81v-8.3h12.81v8.3h0Z"/>
    </g>
  </g>
</svg>