<?xml version="1.0" encoding="UTF-8"?>
<svg id="_Слой_1" data-name="Слой_1" xmlns="http://www.w3.org/2000/svg" xmlns:xlink="http://www.w3.org/1999/xlink" version="1.1" viewBox="0 0 2270.21 916.26">
  <!-- Generator: Adobe Illustrator 29.5.1, SVG Export Plug-In . SVG Version: 2.1.0 Build 141)  -->
  <defs>
    <style>
      .st0, .st1 {
        fill: none;
      }

      .st1 {
        display: none;
      }

      .st2, .st3, .st4, .st5 {
        fill: #214270;
      }

      .st2, .st4 {
        stroke-linecap: round;
        stroke-width: .47px;
      }

      .st2, .st4, .st5 {
        stroke: #fff;
      }

      .st2, .st5 {
        stroke-miterlimit: 22.98;
      }

      .st4 {
        stroke-linejoin: round;
      }

      .st6 {
        clip-path: url(#clippath);
      }

      .st5 {
        stroke-width: .51px;
      }
    </style>
    <clipPath id="clippath">
      <polygon class="st0" points="565.88 772.83 478.33 818.95 477.12 721.74 475.9 728.04 475.9 774.17 295.57 774.17 295.57 793.88 0 794.44 .12 2.49 2267.82 0 2270.21 916.26 1847.74 916.26 1847.07 711.59 1660.62 712.21 1629.15 712.21 1627.89 777.14 1504.61 759.86 1505.05 707.27 878.55 706.63 878.55 697.22 596.45 697.97 595.82 722.88 569.63 722.47 565.88 772.83 565.88 772.83"/>
    </clipPath>
  </defs>
  <path class="st1" d="M565.88,772.83l-87.55,46.11-1.22-97.21-1.22,6.3v46.14h-180.33v19.71L0,794.44.12,2.49,2267.82,0l2.39,916.26h-422.47l-.68-204.67-186.45.62h-31.47l-1.26,64.93-123.28-17.28.44-52.58-626.5-.65v-9.41l-282.1.75-.63,24.91-26.19-.42-3.75,50.37h0Z"/>
  <path class="st1" d="M578.42,718.28h-117.01v49.68l-428.52,4.28V50.78l2184.38-7.58v861.73l-370.43,3.84v-217.69l-970.89,2.54-.82-4.84h-296.28l-.43,29.5h0Z"/>
  <g class="st6">
    <g>
      <path class="st5" d="M1211.34,812.78l-47.57-101.05M1210.98,813.28v-101.56M1283.07,935.51v-101.55M733.89,919.68v-101.55M1187.23,761.55v-49.82M1234.73,813.28v-101.56M1259.33,935.51v-101.55M757.63,919.68v-101.55M1188.09,935.51v-101.55M828.87,919.68v-101.55M1258.47,813.28v-101.55M1235.58,935.51v-101.55M781.37,919.68v-101.55M1164.34,935.51v-101.55M852.62,919.68v-101.55M1282.22,813.28v-101.55M1211.84,935.51v-101.55M805.12,919.68v-101.55M1140.59,935.51v-101.55M876.37,919.68v-101.55M1305.97,813.28v-101.55M1116.84,935.51v-101.55M900.12,919.68v-101.55M1305.97,763.16h-94.99M1116.84,885.4h166.23M900.12,869.57h-166.23M1227.58,745.85l-16.6,17.31,16.6,17.31M1266.47,868.09l16.6,17.31-16.6,17.31M750.49,852.26l-16.6,17.31,16.6,17.3"/>
      <g>
        <path class="st3" d="M1702.3,721h126.74v116.76h-126.74v-116.76Z"/>
        <g>
          <path class="st3" d="M1765.32,737.47h-32.9c-5.58,0-10.12,4.54-10.12,10.13v63.57c0,5.58,4.54,10.12,10.12,10.12h32.9c5.58,0,10.14-4.54,10.14-10.12v-63.57c0-5.58-4.55-10.13-10.14-10.13ZM1771.08,811.16c0,3.17-2.59,5.74-5.75,5.74h-32.9c-3.17,0-5.74-2.57-5.74-5.74v-63.57c0-3.17,2.57-5.74,5.74-5.74h32.9c3.17,0,5.75,2.58,5.75,5.74v63.57ZM1804.05,798.89l-5.52,5.52v-17.88c0-1.61-1.3-2.93-2.92-2.93s-2.92,1.31-2.92,2.93v17.88l-5.52-5.52c-1.14-1.14-3-1.14-4.14,0-1.13,1.14-1.13,2.99,0,4.13l9.35,9.34c.72.72,1.67,1.17,2.69,1.28.17.03.35.06.54.06.18,0,.36-.03.53-.06,1.02-.11,1.98-.56,2.71-1.28l9.34-9.34c1.13-1.14,1.13-2.99,0-4.13-1.14-1.14-3-1.14-4.14,0h0ZM1787.17,759.91l5.53-5.53v19.03c0,1.61,1.3,2.92,2.92,2.92s2.93-1.3,2.93-2.92v-19.01l5.5,5.51c.55.55,1.29.86,2.06.86.74,0,1.49-.29,2.06-.86,1.14-1.14,1.14-2.98,0-4.12,0,0,0,0,0,0l-9.34-9.34c-.66-.66-1.51-1.1-2.44-1.25-.26-.08-.52-.12-.79-.12-.27,0-.52.04-.77.11-.93.16-1.79.6-2.47,1.26l-9.34,9.34c-1.14,1.14-1.14,2.98,0,4.12,0,0,0,0,0,0,1.14,1.14,2.98,1.14,4.12,0,0,0,0,0,0,0h.01Z"/>
          <path class="st3" d="M1748.85,757.87c3.43,0,6.21-2.79,6.21-6.22s-2.79-6.23-6.21-6.23-6.23,2.79-6.23,6.23,2.79,6.23,6.23,6.23ZM1748.86,786.27c-2.34,0-5.94-.49-7.62-.73l-1.81,24.25c-.14,1.82,1.23,3.4,3.05,3.54h.05c1.81.14,3.4-1.21,3.54-3.03,0,0,0,0,0-.01l1.49-17.95c.04-.6.33-1.44,1.34-1.46,1.05-.02,1.34.87,1.38,1.45l1.48,17.95c.14,1.82,1.72,3.18,3.54,3.05h.03c1.82-.15,3.18-1.73,3.05-3.55,0,0,0,0,0,0l-1.84-24.25c-1.74.25-5.49.75-7.68.75h0Z"/>
          <path class="st3" d="M1762.45,775.95l-.9-9.04c-.15-1.83-.99-3.83-3.55-5.11-1.96-.99-8.73-.84-8.73-.84,0,0-7.47-.17-9.58.84-2.55,1.21-3.33,3.29-3.47,5.11l-.9,9.04-.89,11.59c-.15,1.81,1.21,3.4,3.02,3.55,0,0,0,0,0,0h.04c.62.05,1.21-.08,1.72-.34l1.27-17.91c.05-.46.47-.78.92-.73.42.05.74.41.73.84l-.77,10.92c1.56.23,5.23.74,7.5.74,2.14,0,5.99-.53,7.62-.77l-.7-10.9c-.03-.46.32-.85.77-.88.46-.03.86.32.89.78l1.16,17.91c.51.25,1.09.36,1.66.31h.04c1.81-.14,3.17-1.72,3.04-3.54l-.9-11.59h.01s0,.01,0,.01Z"/>
        </g>
      </g>
      <g>
        <path class="st3" d="M1702.3,880.36h126.74v127.69h-126.74v-127.69Z"/>
        <g>
          <path class="st3" d="M1765.32,902.29h-32.9c-5.58,0-10.12,4.54-10.12,10.13v63.57c0,5.58,4.54,10.13,10.12,10.13h32.9c5.58,0,10.12-4.54,10.12-10.13v-63.57c0-5.58-4.54-10.12-10.12-10.12h0ZM1771.08,975.98c0,3.17-2.59,5.74-5.75,5.74h-32.9c-3.17,0-5.74-2.57-5.74-5.74v-63.57c0-3.17,2.57-5.74,5.74-5.74h32.9c3.17,0,5.74,2.57,5.74,5.74v63.57h.01ZM1787.17,924.74l5.53-5.54v19.03c0,1.61,1.3,2.93,2.92,2.93s2.93-1.31,2.93-2.93v-19l5.5,5.51c.55.54,1.29.85,2.06.85.74,0,1.49-.29,2.06-.85,1.14-1.14,1.14-3,0-4.14l-9.34-9.34c-.67-.65-1.52-1.09-2.44-1.25-.26-.08-.52-.12-.79-.12-.27,0-.52.05-.77.12-.94.15-1.8.59-2.47,1.26l-9.34,9.34c-1.14,1.14-1.14,2.98,0,4.12,0,0,0,0,0,0,1.14,1.14,2.98,1.14,4.12,0,0,0,0,0,0,0h.01Z"/>
          <path class="st3" d="M1748.85,922.69c3.43,0,6.21-2.79,6.21-6.23s-2.79-6.22-6.21-6.22-6.22,2.79-6.22,6.23,2.79,6.22,6.22,6.22h0Z"/>
        </g>
      </g>
      <path class="st3" d="M21.45,6.54h2239.34v1799H2.03V6.54h19.42,0ZM2221.94,45.38H40.87v1721.32h2181.07s0-1721.32,0-1721.32Z"/>
      <path class="st3" d="M1667.93,1123.92v-134.9h23.62v27.37h150.31v-148.79h-150.31v31.56h-23.62v-75.97h23.62v20.79h150.31v-132.25h-150.31v21.23h-23.62v-44.85h197.54v435.8h-23.61v-83.91h-150.31v83.91h-23.62ZM878.87,688.11h592.67v23.62h-571.42v106.4h-330.06v-23.62h306.44v-106.4h2.37ZM997.96,813.28h352.08v23.62h-328.46v103.55h-451.96v-23.61h428.34v-103.56Z"/>
      <path class="st3" d="M570.06,795.28v-107.18h23.62v107.18h-23.62ZM570.06,451.09v116.86h23.62v-116.86h-23.62ZM570.06,6.54v198.17h23.62V6.54s-23.62,0-23.62,0ZM1117.21,451.09v119.44h23.62v-119.44h-23.62ZM1447.92,688.11v131.08h23.62v-131.08h-23.62ZM1117.21,6.54v198.17h23.62V6.54h-23.62ZM1676.22,451.09v119.44h23.62v-119.44h-23.62ZM1676.22,6.54v198.17h23.62V6.54s-23.62,0-23.62,0ZM1491.23,468.73h184.99v17.7h-184.99v-17.7h0ZM1682.41,655.79v55.62h17.71v-55.62h-17.71ZM270.06,804.49h202.52v34.56h-202.53v-34.56h0ZM2.03,765.05h291.43v34.57H2.03v-34.57Z"/>
      <path class="st3" d="M472.58,847.92v-17.71h-34.57v17.71h34.57,0ZM293.46,839.04v-73.99h-34.57v73.99h34.57ZM1278.97,552.81h16v17.72h-16v-17.71h0ZM906.05,552.81h16.03v17.72h-16.03v-17.71h0ZM1491.23,570.52v-101.79h17.71v101.79h-17.71ZM1135.22,530.49h159.75v17.71h-159.75v-17.71h0Z"/>
      <path class="st3" d="M906.05,570.53v-40.03h17.71v40.03h-17.71ZM454.87,805.99v-100.03h17.71v100.03h-17.71ZM1277.27,570.53v-40.03h17.7v40.03h-17.7Z"/>
      <path class="st3" d="M906.05,520.35h216.47v17.71h-216.47v-17.71ZM1161.8,500.09v48.12h8.3v-48.12h-8.3Z"/>
      <path class="st3" d="M906.05,419.73v104.84h8.31v-104.84h-8.31ZM543.93,570.53v-45.38h-8.3v45.38h8.3ZM619.96,570.53v-45.38h-8.3v45.38h8.3ZM242.23,773.36h230.35v-8.31h-230.35v8.31Z"/>
      <path class="st3" d="M619.96,525.14h-84.33v8.31h84.33v-8.31ZM1138.27,508.4h31.83v-8.31h-31.83v8.31h0ZM913.58,570.53h365.39v-8.31h-365.39v8.31h0ZM592.96,696.42h286.95v-8.31h-286.94v8.31h0ZM1137.2,419.73h-231.15v8.31h231.15v-8.31ZM535.63,570.53h84.33v-8.31h-84.33v8.31h0ZM1891.02,725.32v-37.7h8.31v37.7h-8.31ZM1954.35,693.45v-37.7h8.31v37.7h-8.31Z"/>
      <path class="st3" d="M1862.63,717.01h36.7v8.31h-36.7v-8.31ZM1696.7,655.75h265.96v8.31h-265.96v-8.31h0ZM1491.23,570.53h208.61v-8.31h-208.61v8.31h0ZM1140.82,536.43v-116.7h-8.31v116.7h8.31Z"/>
      <g>
        <path class="st3" d="M1383.59,920.92v-5.2c0-20.61,6.42-37.35,17.96-48.93s28.25-18.01,48.79-18.01h5.88v-.99h-5.88c-20.82,0-37.75,6.54-49.49,18.31-11.73,11.77-18.26,28.75-18.26,49.63v5.2h.99ZM1456.24,823.97h-28.18v2.96h28.18v-2.96ZM1447.92,819.78v4.19h8.31v-4.78h-8.31v.59ZM1449.11,822.79v-2.43h5.94v2.43h-5.94Z"/>
        <path class="st3" d="M1449.86,848.72c-5.78,0-11.32-2.29-15.41-6.38-4.1-4.09-6.39-9.63-6.39-15.42h.83c0,5.79,2.35,11.03,6.14,14.83,3.93,3.93,9.27,6.14,14.83,6.14v.83h0Z"/>
      </g>
      <g>
        <path class="st3" d="M653.76,822.53h-67.84v2.73h67.84v-2.73Z"/>
        <path class="st3" d="M652.83,823.11v4.8c0,18.98-5.91,34.4-16.55,45.06s-26.01,16.6-44.94,16.6h-5.42v.91h5.42c19.18,0,34.78-6.03,45.59-16.86,10.81-10.84,16.82-26.49,16.82-45.71v-4.8h-.92ZM585.91,912.43h25.97v-2.73h-25.97v2.73h0ZM593.58,821.99v-3.86h-7.66v4.4h7.66v-.54h0ZM592.48,819.21v2.23h-5.47v-2.23h5.47Z"/>
        <path class="st3" d="M593.58,916.29v-3.86h-7.66v4.4h7.66v-.54h0ZM592.48,913.51v2.23h-5.47v-2.23h5.47ZM591.79,889.62c5.33,0,10.43,2.11,14.2,5.88,3.78,3.76,5.89,8.87,5.89,14.2h-.76c0-5.33-2.17-10.16-5.66-13.65-3.62-3.63-8.53-5.66-13.65-5.65v-.77h0Z"/>
      </g>
      <g>
        <path class="st3" d="M1617.32,761.75v-73.63h-2.95v73.63h2.95Z"/>
        <path class="st3" d="M1616.69,760.76h-5.21c-20.61,0-37.34-6.43-48.92-17.97-11.59-11.55-18.03-28.24-18.03-48.78v-5.88h-.99v5.88c0,20.81,6.55,37.75,18.31,49.49,11.76,11.73,28.74,18.26,49.62,18.26h5.21v-.99ZM1519.74,688.11v28.18h2.95v-28.18h-2.95ZM1617.91,696.43h4.2v-8.31h-4.79v8.31h.59ZM1620.92,695.24h-2.43v-5.96h2.43v5.96ZM1515.54,696.43h4.2v-8.31h-4.79v8.31h.59ZM1518.56,695.24h-2.43v-5.96h2.43v5.96Z"/>
        <path class="st3" d="M1544.49,694.49c0,5.78-2.29,11.33-6.39,15.41-3.95,3.94-9.39,6.39-15.42,6.39v-.83c5.56,0,10.9-2.2,14.83-6.15,3.94-3.92,6.15-9.26,6.15-14.82h.83,0Z"/>
      </g>
      <path class="st3" d="M1369.4,290.12v3.5h-12.8c-.04-1.42.3-3.03,1.01-4.79.72-1.75,2.03-3.84,3.93-6.23,2.21-2.8,3.67-4.96,4.36-6.5.68-1.53,1.03-2.96,1.03-4.27,0-1.52-.35-2.77-1.06-3.73-.7-.95-1.56-1.43-2.6-1.43-1.11,0-2.02.51-2.72,1.54-.71,1.04-1.06,2.53-1.06,4.45l-2.44-.37c.17-2.86.81-5.01,1.93-6.46,1.1-1.44,2.57-2.17,4.38-2.17,1.97,0,3.47.84,4.48,2.52,1.01,1.68,1.52,3.6,1.52,5.74,0,1.89-.4,3.72-1.19,5.45-.8,1.75-2.32,4.08-4.53,6.99-1.42,1.83-2.34,3.09-2.75,3.75-.4.63-.74,1.31-1.01,2h9.51,0Z"/>
      <path class="st3" d="M1380.82,293.61h-2.38v-23.34c-.54.81-1.27,1.65-2.2,2.5-.92.85-1.76,1.48-2.54,1.92v-3.5c1.33-.98,2.49-2.17,3.46-3.51,1-1.37,1.7-2.72,2.12-4.03h1.53v29.95h0Z"/>
      <path class="st3" d="M1386.9,285.78l2.51-.29c.19,1.89.63,3.31,1.3,4.24.68.92,1.47,1.38,2.38,1.38,1.12,0,2.08-.65,2.9-1.96.81-1.3,1.22-3.1,1.22-5.35,0-2.14-.39-3.79-1.18-4.96-.78-1.17-1.77-1.75-2.96-1.75-.71,0-1.38.25-2.01.76-.63.51-1.13,1.2-1.49,2.11l-2.23-.45,1.88-15.34h9.58v3.5h-7.71l-1.02,8.06c1.14-1.26,2.36-1.89,3.64-1.89,1.62,0,3.03.87,4.22,2.62s1.79,4.09,1.79,7.05-.59,5.41-1.79,7.5c-1.19,2.08-2.81,3.12-4.81,3.12-1.67,0-3.08-.73-4.23-2.2s-1.81-3.51-1.97-6.12h0Z"/>
      <path class="st3" d="M1403.26,293.61v-4.17h2.7v4.17c0,1.62-.18,2.89-.56,3.8-.37.91-.92,1.62-1.64,2.11l-.65-1.57c.47-.32.83-.81,1.07-1.45.25-.65.38-1.61.4-2.89h-1.31Z"/>
      <path class="st3" d="M1409.58,267.66v-3.5h12.48v2.85c-1.86,3.07-3.5,7.06-4.91,11.98-1.4,4.91-2.22,9.79-2.44,14.63h-2.44c.04-2.51.35-5.42.94-8.74.57-3.23,1.38-6.41,2.44-9.51,1.03-3.02,2.15-5.58,3.34-7.7h-9.41Z"/>
      <path class="st3" d="M1424.42,278.89c0-4.99.53-8.79,1.59-11.36,1.06-2.58,2.64-3.87,4.71-3.87,1.83,0,3.28,1.04,4.34,3.13,1.28,2.53,1.93,6.57,1.93,12.1,0,4.98-.52,8.76-1.58,11.35-1.06,2.59-2.64,3.87-4.72,3.87-1.83,0-3.34-1.13-4.51-3.41-1.16-2.29-1.75-6.21-1.75-11.81h0ZM1426.86,278.89c0,4.84.37,8.1,1.09,9.74.73,1.65,1.67,2.48,2.82,2.48,1.07,0,1.97-.83,2.71-2.51.72-1.67,1.08-4.9,1.08-9.71s-.37-8.12-1.09-9.76c-.73-1.64-1.69-2.47-2.85-2.47-1.06,0-1.96.83-2.68,2.51-.72,1.67-1.08,4.91-1.08,9.72Z"/>
      <path class="st3" d="M99.92,120.81v7.4h-20.84c.21-2.77.9-5.47,2.04-8,1.14-2.54,3.37-5.84,6.67-9.96,2.61-3.28,4.21-5.49,4.81-6.66.89-1.68,1.33-3.38,1.33-5.09,0-1.81-.37-3.19-1.09-4.12-.74-.92-1.71-1.38-2.92-1.38-2.62,0-4.04,2.18-4.24,6.53l-5.93-.87c.36-4.24,1.43-7.35,3.21-9.33,1.78-1.99,4.16-2.98,7.12-2.98,3.26,0,5.7,1.17,7.35,3.5,1.65,2.33,2.49,5.01,2.49,8.03,0,1.71-.21,3.37-.64,4.97-.41,1.6-1.06,3.22-1.93,4.84-.88,1.62-2.33,3.69-4.38,6.21-1.9,2.38-3.12,3.94-3.63,4.71-.47.7-.88,1.44-1.22,2.22h11.81Z"/>
      <path class="st3" d="M124.04,120.81v7.4h-20.84c.21-2.77.9-5.47,2.04-8,1.14-2.54,3.37-5.84,6.67-9.96,2.61-3.28,4.21-5.49,4.81-6.66.89-1.68,1.33-3.38,1.33-5.09,0-1.81-.36-3.19-1.1-4.12-.73-.92-1.7-1.38-2.91-1.38-2.62,0-4.03,2.18-4.24,6.53l-5.93-.87c.36-4.24,1.43-7.35,3.21-9.33,1.78-1.99,4.16-2.98,7.12-2.98,3.26,0,5.71,1.17,7.36,3.5,1.64,2.33,2.48,5.01,2.48,8.03,0,1.71-.21,3.37-.64,4.97-.41,1.6-1.06,3.22-1.93,4.84-.88,1.62-2.33,3.69-4.38,6.21-1.9,2.38-3.12,3.94-3.63,4.71-.47.7-.88,1.44-1.22,2.22h11.81Z"/>
      <path class="st3" d="M128.16,117.48l5.93-.87c.16,1.82.66,3.26,1.52,4.31s1.8,1.57,2.84,1.57c1.23,0,2.27-.67,3.16-2,.87-1.33,1.31-3.39,1.31-6.14,0-2.61-.43-4.54-1.3-5.78-.87-1.25-1.99-1.87-3.32-1.87-1.71,0-3.25,1.01-4.6,3.03l-4.84-.93,3.07-21.75h15.71v7.47h-11.15l-1,7.12c1.34-.9,2.71-1.34,4.08-1.34,2.45,0,4.51,1.05,6.22,3.19,2.15,2.71,3.23,6.29,3.23,10.73,0,3.67-.91,7.03-2.75,10.11-1.82,3.07-4.44,4.6-7.85,4.6-2.76,0-5.05-.99-6.91-2.97-1.84-1.99-2.96-4.81-3.34-8.46h0Z"/>
      <path class="st3" d="M164.34,117.48l5.93-.87c.16,1.82.66,3.26,1.52,4.31s1.81,1.57,2.85,1.57c1.22,0,2.26-.67,3.15-2,.87-1.33,1.31-3.39,1.31-6.14,0-2.61-.43-4.54-1.3-5.78-.87-1.25-1.99-1.87-3.32-1.87-1.71,0-3.25,1.01-4.6,3.03l-4.84-.93,3.07-21.75h15.71v7.47h-11.15l-1,7.12c1.34-.9,2.71-1.34,4.08-1.34,2.45,0,4.52,1.05,6.22,3.19,2.15,2.71,3.23,6.29,3.23,10.73,0,3.67-.91,7.03-2.75,10.11-1.82,3.07-4.44,4.6-7.85,4.6-2.76,0-5.05-.99-6.9-2.97-1.85-1.99-2.97-4.81-3.35-8.46h0Z"/>
      <path class="st3" d="M153.23,120.21h5.92v5.74c0,3.24-.34,5.65-1.03,7.24-.83,1.95-2.24,3.4-4.2,4.35l-1.16-3.3c1.16-.54,1.99-1.25,2.51-2.16.51-.9.78-2.2.82-3.87h-2.86v-7.99h0Z"/>
      <path class="st3" d="M198.42,86.33c3.01,0,5.44,1.57,7.3,4.73,1.87,3.17,2.79,8.68,2.79,16.57s-.92,13.38-2.79,16.54c-1.85,3.16-4.28,4.73-7.27,4.73s-5.45-1.56-7.31-4.69c-1.87-3.13-2.79-8.68-2.79-16.66s.92-13.32,2.79-16.49c1.85-3.16,4.28-4.73,7.28-4.73ZM198.43,92.99c-1.16,0-2.1.85-2.8,2.56-.69,1.69-1.04,5.73-1.04,12.09s.35,10.39,1.04,12.09c.7,1.69,1.63,2.54,2.8,2.54s2.12-.85,2.81-2.56c.68-1.7,1.02-5.72,1.02-12.07s-.34-10.4-1.02-12.09c-.69-1.7-1.62-2.56-2.81-2.56Z"/>
      <g>
        <path class="st3" d="M396.45,852.71v5.45c0,21.6,6.73,39.15,18.83,51.28,12.11,12.14,29.6,18.89,51.14,18.89h6.17v1.04h-6.17c-21.82,0-39.57-6.86-51.87-19.19s-19.14-30.14-19.14-52.02v-5.45h1.04Z"/>
        <path class="st3" d="M472.58,854.69h-76.65v-2.61h76.65v2.61Z"/>
        <path class="st3" d="M465.26,851.64v-3.71h7.33v4.22h-7.33v-.51ZM466.3,848.97v2.15h5.24v-2.15h-5.24Z"/>
      </g>
      <path class="st3" d="M1956.1,805.96v-7.12h-8.36v-3.38l8.75-19.33h1.97v19.33h2.64v3.38h-2.64v7.12h-2.37ZM1956.1,795.47v-13.45l-6.02,13.44h6.02Z"/>
      <path class="st3" d="M1964.85,805.96v-4.16h2.7v4.17c0,1.62-.18,2.89-.56,3.8-.37.91-.92,1.62-1.64,2.11l-.65-1.57c.47-.33.83-.81,1.07-1.45.25-.65.38-1.61.4-2.9h-1.31Z"/>
      <path class="st3" d="M1978.61,805.96v-7.12h-8.36v-3.38l8.75-19.33h1.98v19.33h2.63v3.38h-2.63v7.12h-2.38ZM1978.61,795.47v-13.45l-6.01,13.44h6.01Z"/>
      <path class="st3" d="M1986.01,791.24c0-4.99.53-8.79,1.59-11.37,1.06-2.57,2.64-3.86,4.71-3.86,1.83,0,3.28,1.04,4.34,3.13,1.28,2.53,1.93,6.57,1.93,12.1,0,4.98-.52,8.76-1.58,11.35-1.06,2.59-2.64,3.87-4.72,3.87-1.83,0-3.34-1.13-4.51-3.41-1.17-2.28-1.76-6.22-1.76-11.81ZM1988.45,791.24c0,4.84.37,8.1,1.09,9.74.73,1.65,1.68,2.48,2.81,2.48s1.98-.83,2.72-2.51c.72-1.67,1.08-4.9,1.08-9.71s-.36-8.12-1.09-9.76-1.68-2.47-2.85-2.47c-1.06,0-1.96.83-2.68,2.51-.72,1.67-1.08,4.91-1.08,9.72h0Z"/>
      <g>
        <path class="st3" d="M2.03,6.54h13.66v69.46H2.03V6.54Z"/>
        <path class="st3" d="M2.03,6.54h1.89v69.47h-1.89V6.54Z"/>
        <path class="st3" d="M2.03,6.54h1.89v1.9h-1.89v-1.9Z"/>
      </g>
      <g>
        <path class="st3" d="M2.03,6.54h13.66v69.46H2.03V6.54Z"/>
        <path class="st3" d="M2.03,6.54h1.89v69.47h-1.89V6.54Z"/>
        <path class="st3" d="M2.03,6.54h1.89v1.9h-1.89v-1.9Z"/>
      </g>
      <g>
        <path class="st3" d="M2.03,6.54h13.66v69.46H2.03V6.54Z"/>
        <path class="st3" d="M2.03,6.54h1.89v69.47h-1.89V6.54Z"/>
        <path class="st3" d="M2.03,6.54h1.89v1.9h-1.89v-1.9Z"/>
      </g>
      <g>
        <path class="st3" d="M2.03,6.54h13.66v69.46H2.03V6.54Z"/>
        <path class="st3" d="M2.03,6.54h1.89v69.47h-1.89V6.54Z"/>
        <path class="st3" d="M2.03,6.54h1.89v1.9h-1.89v-1.9Z"/>
      </g>
      <g>
        <path class="st3" d="M2.03,6.54h13.66v69.46H2.03V6.54Z"/>
        <path class="st3" d="M2.03,6.54h1.89v69.47h-1.89V6.54Z"/>
        <path class="st3" d="M2.03,6.54h1.89v1.9h-1.89v-1.9Z"/>
      </g>
      <g>
        <path class="st3" d="M2.03,6.54h13.66v69.46H2.03V6.54Z"/>
        <path class="st3" d="M2.03,6.54h1.89v69.47h-1.89V6.54Z"/>
        <path class="st3" d="M2.03,6.54h1.89v1.9h-1.89v-1.9Z"/>
      </g>
      <g>
        <path class="st3" d="M2.03,6.54h13.66v69.46H2.03V6.54Z"/>
        <path class="st3" d="M2.03,6.54h1.89v69.47h-1.89V6.54Z"/>
        <path class="st3" d="M2.03,6.54h1.89v1.9h-1.89v-1.9Z"/>
      </g>
      <g>
        <path class="st3" d="M2.03,6.54h13.66v69.46H2.03V6.54Z"/>
        <path class="st3" d="M2.03,6.54h1.89v69.47h-1.89V6.54Z"/>
        <path class="st3" d="M2.03,6.54h1.89v1.9h-1.89v-1.9Z"/>
      </g>
      <g>
        <path class="st3" d="M2.73,819.59h37.43v173.41H2.74v-173.41Z"/>
        <path class="st3" d="M39.47,991.94v-172.36H3.45v172.36s36.02,0,36.02,0ZM40.88,993.36H2.03v-175.19h38.85v175.19h0Z"/>
        <path class="st3" d="M15.55,818.86h5.2v173.06h-5.2v-173.06Z"/>
        <path class="st3" d="M20.04,819.57v172.38h-3.78v-172.38h3.78ZM21.45,818.16h-6.61v175.2h6.61v-175.2h0Z"/>
        <path class="st3" d="M15.55,818.86h5.2v5.21h-5.2v-5.21Z"/>
        <path class="st3" d="M20.04,819.57v3.81h-3.78v-3.81h3.78ZM21.45,818.16h-6.61v6.63h6.61s0-6.63,0-6.63Z"/>
        <path class="st3" d="M15.55,851.93h5.2v5.21h-5.2v-5.21Z"/>
        <path class="st3" d="M20.04,852.64v3.8h-3.78v-3.8h3.78ZM21.45,851.22h-6.61v6.63h6.61s0-6.63,0-6.63Z"/>
      </g>
      <g>
        <path class="st3" d="M2.73,321.62h37.43v173.41H2.74v-173.41Z"/>
        <path class="st3" d="M39.47,493.97v-172.35H3.45v172.35s36.02,0,36.02,0ZM40.88,495.39H2.03v-175.18h38.85v175.18h0Z"/>
        <path class="st3" d="M15.55,320.89h5.2v173.06h-5.2v-173.06Z"/>
        <path class="st3" d="M20.04,321.61v172.38h-3.78v-172.38h3.78ZM21.45,320.19h-6.61v175.2h6.61v-175.2h0Z"/>
        <path class="st3" d="M15.55,320.9h5.2v5.21h-5.2v-5.21Z"/>
        <path class="st3" d="M20.04,321.61v3.8h-3.78v-3.8h3.78ZM21.45,320.19h-6.61v6.63h6.61s0-6.63,0-6.63Z"/>
        <path class="st3" d="M15.55,489.45h5.2v5.21h-5.2v-5.21Z"/>
        <path class="st3" d="M20.04,490.15v3.8h-3.78v-3.8h3.78ZM21.45,488.74h-6.61v6.63h6.61s0-6.63,0-6.63Z"/>
        <path class="st3" d="M15.55,353.96h5.2v5.21h-5.2v-5.21Z"/>
        <path class="st3" d="M20.04,354.67v3.8h-3.78v-3.8h3.78ZM21.45,353.25h-6.61v6.63h6.61s0-6.63,0-6.63Z"/>
        <path class="st3" d="M2.73,573.56h37.43v173.41H2.74v-173.41Z"/>
        <path class="st3" d="M39.47,745.91v-172.35H3.45v172.35h36.02,0ZM40.88,747.33H2.03v-175.18h38.85v175.18h0Z"/>
        <path class="st3" d="M15.55,572.83h5.2v173.06h-5.2v-173.06Z"/>
        <path class="st3" d="M20.04,573.54v172.37h-3.78v-172.37h3.78ZM21.45,572.13h-6.61v175.2h6.61v-175.2h0Z"/>
        <path class="st3" d="M15.55,572.83h5.2v5.21h-5.2v-5.21Z"/>
        <path class="st3" d="M20.04,573.54v3.8h-3.78v-3.8h3.78ZM21.45,572.13h-6.61v6.63h6.61s0-6.63,0-6.63Z"/>
        <path class="st3" d="M15.55,741.39h5.2v5.21h-5.2v-5.21Z"/>
        <path class="st3" d="M20.04,742.09v3.8h-3.78v-3.8h3.78ZM21.45,740.68h-6.61v6.63h6.61s0-6.63,0-6.63Z"/>
        <path class="st3" d="M15.55,605.9h5.2v5.21h-5.2v-5.21Z"/>
        <path class="st3" d="M20.04,606.6v3.8h-3.78v-3.8h3.78ZM21.45,605.19h-6.61v6.63h6.61s0-6.63,0-6.63Z"/>
        <path class="st3" d="M2.73,80.31h37.43v173.41H2.74V80.31Z"/>
        <path class="st3" d="M39.47,252.67V80.31H3.45v172.36s36.02,0,36.02,0ZM40.88,254.08H2.03V78.9h38.85v175.18h0Z"/>
        <path class="st3" d="M15.55,79.59h5.2v173.06h-5.2V79.59Z"/>
        <path class="st3" d="M20.04,80.29v172.38h-3.78V80.29h3.78ZM21.45,78.88h-6.61v175.21h6.61s0-175.21,0-175.21Z"/>
        <path class="st3" d="M15.55,79.59h5.2v5.21h-5.2v-5.21Z"/>
        <path class="st3" d="M20.04,80.29v3.8h-3.78v-3.8h3.78ZM21.45,78.88h-6.61v6.63h6.61s0-6.63,0-6.63Z"/>
        <path class="st3" d="M15.55,248.14h5.2v5.21h-5.2v-5.21Z"/>
        <path class="st3" d="M20.04,248.84v3.8h-3.78v-3.8h3.78ZM21.45,247.44h-6.61v6.63h6.61s0-6.63,0-6.63Z"/>
        <path class="st3" d="M15.55,112.65h5.2v5.21h-5.2v-5.21Z"/>
        <path class="st3" d="M20.04,113.36v3.8h-3.78v-3.8h3.78ZM21.45,111.95h-6.61v6.62h6.61s0-6.62,0-6.62Z"/>
      </g>
      <g>
        <path class="st3" d="M2222.64,78.78h37.43v215.5h-37.43V78.78Z"/>
        <path class="st3" d="M2223.35,79.41v214.87h36.02V79.41h-36.02ZM2221.94,78h38.85v217.69h-38.85V78Z"/>
        <path class="st3" d="M2242.07,78.02h5.2v216.98h-5.2V78.02Z"/>
        <path class="st3" d="M2242.77,294.3V79.41h3.79v214.88h-3.79ZM2241.36,295.71h6.62V78h-6.62v217.71Z"/>
        <path class="st3" d="M2242.07,289.8h5.2v5.21h-5.2v-5.21Z"/>
        <path class="st3" d="M2242.77,294.3v-3.8h3.79v3.8h-3.79ZM2241.36,295.71h6.62v-6.63h-6.62v6.63Z"/>
        <path class="st3" d="M2242.07,78.73h5.2v5.21h-5.2v-5.21Z"/>
        <path class="st3" d="M2242.77,83.23v-3.8h3.79v3.8h-3.79ZM2241.36,84.65h6.62v-6.63h-6.62v6.63Z"/>
        <path class="st3" d="M2242.07,256.72h5.2v5.21h-5.2v-5.21Z"/>
        <path class="st3" d="M2242.77,261.23v-3.8h3.79v3.8h-3.79ZM2241.36,262.65h6.62v-6.63h-6.62v6.63Z"/>
        <path class="st3" d="M2222.65,366.19h37.43v215.5h-37.43v-215.5Z"/>
        <path class="st3" d="M2223.35,366.82v214.87h36.03v-214.87h-36.03ZM2221.94,365.4h38.85v217.69h-38.85v-217.69Z"/>
        <path class="st3" d="M2242.07,365.42h5.2v216.98h-5.2v-216.98Z"/>
        <path class="st3" d="M2242.78,581.7v-214.89h3.79v214.88h-3.79ZM2241.37,583.12h6.62v-217.71h-6.62v217.71h0Z"/>
        <path class="st3" d="M2242.07,577.19h5.2v5.21h-5.2v-5.21Z"/>
        <path class="st3" d="M2242.78,581.7v-3.8h3.79v3.8h-3.79ZM2241.37,583.12h6.62v-6.63h-6.62v6.63Z"/>
        <path class="st3" d="M2242.07,366.13h5.2v5.21h-5.2v-5.21Z"/>
        <path class="st3" d="M2242.78,370.64v-3.8h3.79v3.8h-3.79ZM2241.37,372.05h6.62v-6.63h-6.62v6.63Z"/>
        <path class="st3" d="M2242.07,544.13h5.2v5.21h-5.2v-5.21Z"/>
        <path class="st3" d="M2242.78,548.64v-3.8h3.79v3.8h-3.79ZM2241.37,550.04h6.62v-6.62h-6.62v6.62Z"/>
        <path class="st3" d="M2222.65,653.59h37.43v215.5h-37.43v-215.5Z"/>
        <path class="st3" d="M2223.36,654.22v214.86h36.02v-214.86h-36.02ZM2221.95,652.81h38.85v217.69h-38.85v-217.69Z"/>
        <path class="st3" d="M2242.08,652.83h5.2v216.98h-5.2v-216.98Z"/>
        <path class="st3" d="M2242.78,869.11v-214.88h3.79v214.89h-3.79ZM2241.37,870.51h6.62v-217.7h-6.62v217.7Z"/>
        <path class="st3" d="M2242.08,864.6h5.2v5.21h-5.2v-5.21Z"/>
        <path class="st3" d="M2242.78,869.11v-3.8h3.79v3.8h-3.79ZM2241.37,870.51h6.62v-6.62h-6.62v6.62Z"/>
        <path class="st3" d="M2242.08,653.53h5.2v5.21h-5.2v-5.21Z"/>
        <path class="st3" d="M2242.78,658.04v-3.8h3.79v3.8h-3.79ZM2241.37,659.46h6.62v-6.63h-6.62v6.63Z"/>
        <path class="st3" d="M2242.08,831.53h5.2v5.21h-5.2v-5.21Z"/>
        <path class="st3" d="M2242.78,836.05v-3.81h3.79v3.81h-3.79ZM2241.37,837.45h6.62v-6.63h-6.62v6.63Z"/>
      </g>
      <g>
        <path class="st3" d="M478.03,799.2h6.21c24.58,0,44.54-7.65,58.35-21.42,13.82-13.77,21.49-33.68,21.49-58.18v-7.02h1.18v7.02c0,24.82-7.8,45.02-21.84,59.03-14.03,13.98-34.29,21.77-59.19,21.77h-6.21v-1.19Z"/>
        <path class="st3" d="M480.28,712.58v87.23h-2.97v-87.23h2.97Z"/>
        <path class="st3" d="M476.8,720.92h-4.21v-8.34h4.8v8.34h-.59ZM473.77,719.74h2.44v-5.97h-2.44v5.97ZM569.47,720.92h-4.21v-8.34h4.8v8.34h-.59ZM566.44,719.74h2.44v-5.97h-2.44v5.97Z"/>
      </g>
      <path class="st3" d="M1622.11,688.11h67.6v17.72h-67.6v-17.72ZM1464.55,688.11h50.4v17.72h-50.4v-17.72Z"/>
      <g>
        <path class="st3" d="M2.03,6.54h13.66v69.46H2.03V6.54Z"/>
        <path class="st3" d="M264.67,43.97H62.79V7.95h201.87v36.02ZM266.08,45.39V6.54H61.38v38.85h204.7Z"/>
        <path class="st3" d="M2.03,6.54h1.89v69.47h-1.89V6.54Z"/>
        <path class="st3" d="M62.77,24.55h201.9v-3.78H62.77v3.78ZM61.36,25.96v-6.61h204.72v6.61s-204.72,0-204.72,0Z"/>
        <path class="st3" d="M2.03,6.54h1.89v1.9h-1.89v-1.9Z"/>
        <path class="st3" d="M62.77,24.55h3.8v-3.78h-3.8v3.78ZM61.36,25.96v-6.61h6.63v6.61h-6.63Z"/>
        <path class="st3" d="M2.03,6.54h1.89v1.9h-1.89v-1.9Z"/>
        <path class="st3" d="M260.85,24.55h3.8v-3.78h-3.8v3.78h0ZM259.43,25.96v-6.61h6.63v6.61h-6.63Z"/>
        <path class="st3" d="M2.03,6.54h1.89v1.9h-1.89v-1.9Z"/>
        <path class="st3" d="M95.84,24.55h3.8v-3.78h-3.8v3.78ZM94.43,25.96v-6.61h6.62v6.61h-6.62Z"/>
      </g>
      <g>
        <path class="st3" d="M2.03,6.54h13.66v69.46H2.03V6.54Z"/>
        <path class="st3" d="M543.76,43.97h-201.87V7.95h201.87v36.02ZM545.18,45.39V6.54h-204.7v38.85h204.7Z"/>
        <path class="st3" d="M2.03,6.54h1.89v69.47h-1.89V6.54Z"/>
        <path class="st3" d="M341.87,24.55h201.89v-3.78h-201.89v3.78ZM340.46,25.96v-6.61h204.72v6.61h-204.72,0Z"/>
        <path class="st3" d="M2.03,6.54h1.89v1.9h-1.89v-1.9Z"/>
        <path class="st3" d="M341.87,24.55h3.8v-3.78h-3.8v3.78ZM340.46,25.96v-6.61h6.63v6.61h-6.63Z"/>
        <path class="st3" d="M2.03,6.54h1.89v1.9h-1.89v-1.9Z"/>
        <path class="st3" d="M539.94,24.55h3.8v-3.78h-3.8v3.78h0ZM538.53,25.96v-6.61h6.63v6.61h-6.63Z"/>
        <path class="st3" d="M2.03,6.54h1.89v1.9h-1.89v-1.9Z"/>
        <path class="st3" d="M374.93,24.55h3.8v-3.78h-3.8v3.78ZM373.52,25.96v-6.61h6.63v6.61h-6.63Z"/>
      </g>
      <g>
        <path class="st3" d="M2.03,6.54h13.66v69.46H2.03V6.54Z"/>
        <path class="st3" d="M819.32,43.97h-201.88V7.95h201.88v36.02ZM820.72,45.39V6.54h-204.7v38.85h204.7Z"/>
        <path class="st3" d="M2.03,6.54h1.89v69.47h-1.89V6.54Z"/>
        <path class="st3" d="M617.41,24.55h201.9v-3.78h-201.9v3.78ZM616.01,25.96v-6.61h204.72v6.61h-204.72Z"/>
        <path class="st3" d="M2.03,6.54h1.89v1.9h-1.89v-1.9Z"/>
        <path class="st3" d="M617.41,24.55h3.81v-3.78h-3.81v3.78ZM616.01,25.96v-6.61h6.63v6.61h-6.63Z"/>
        <path class="st3" d="M2.03,6.54h1.89v1.9h-1.89v-1.9Z"/>
        <path class="st3" d="M815.49,24.55h3.81v-3.78h-3.81v3.78ZM814.09,25.96v-6.61h6.63v6.61h-6.63Z"/>
        <path class="st3" d="M2.03,6.54h1.89v1.9h-1.89v-1.9Z"/>
        <path class="st3" d="M650.49,24.55h3.8v-3.78h-3.8v3.78ZM649.07,25.96v-6.61h6.63v6.61h-6.63Z"/>
      </g>
      <g>
        <path class="st3" d="M2.03,6.54h13.66v69.46H2.03V6.54Z"/>
        <path class="st3" d="M1093.68,43.97h-201.87V7.95h201.87v36.02h0ZM1095.09,45.39V6.54h-204.7v38.85h204.7Z"/>
        <path class="st3" d="M2.03,6.54h1.89v69.47h-1.89V6.54Z"/>
        <path class="st3" d="M891.79,24.55h201.9v-3.78h-201.9v3.78ZM890.37,25.96v-6.61h204.72v6.61h-204.72Z"/>
        <path class="st3" d="M2.03,6.54h1.89v1.9h-1.89v-1.9Z"/>
        <path class="st3" d="M891.79,24.55h3.8v-3.78h-3.8v3.78ZM890.37,25.96v-6.61h6.63v6.61h-6.63Z"/>
        <path class="st3" d="M2.03,6.54h1.89v1.9h-1.89v-1.9Z"/>
        <path class="st3" d="M1089.86,24.55h3.8v-3.78h-3.8v3.78ZM1088.46,25.96v-6.61h6.62v6.61h-6.62Z"/>
        <path class="st3" d="M2.03,6.54h1.89v1.9h-1.89v-1.9Z"/>
        <path class="st3" d="M924.85,24.55h3.8v-3.78h-3.8v3.78ZM923.45,25.96v-6.61h6.62v6.61h-6.62Z"/>
      </g>
      <g>
        <path class="st3" d="M2.03,6.54h13.66v69.46H2.03V6.54Z"/>
        <path class="st3" d="M1370.42,43.97h-201.88V7.95h201.88v36.02h0ZM1371.82,45.39V6.54h-204.7v38.85h204.7Z"/>
        <path class="st3" d="M2.03,6.54h1.89v69.47h-1.89V6.54Z"/>
        <path class="st3" d="M1168.52,24.55h201.9v-3.78h-201.9v3.78ZM1167.11,25.96v-6.61h204.71v6.61h-204.71Z"/>
        <path class="st3" d="M2.03,6.54h1.89v1.9h-1.89v-1.9Z"/>
        <path class="st3" d="M1168.52,24.55h3.81v-3.78h-3.81v3.78ZM1167.11,25.96v-6.61h6.63v6.61h-6.63Z"/>
        <path class="st3" d="M2.03,6.54h1.89v1.9h-1.89v-1.9Z"/>
        <path class="st3" d="M1366.59,24.55h3.81v-3.78h-3.81v3.78ZM1365.19,25.96v-6.61h6.63v6.61h-6.63Z"/>
        <path class="st3" d="M2.03,6.54h1.89v1.9h-1.89v-1.9Z"/>
        <path class="st3" d="M1201.59,24.55h3.8v-3.78h-3.8v3.78ZM1200.18,25.96v-6.61h6.63v6.61h-6.63Z"/>
      </g>
      <g>
        <path class="st3" d="M2.03,6.54h13.66v69.46H2.03V6.54Z"/>
        <path class="st3" d="M1645.97,43.97h-201.87V7.95h201.87v36.02h0ZM1647.38,45.39V6.54h-204.7v38.85h204.7Z"/>
        <path class="st3" d="M2.03,6.54h1.89v69.47h-1.89V6.54Z"/>
        <path class="st3" d="M1444.07,24.55h201.89v-3.78h-201.89v3.78ZM1442.66,25.96v-6.61h204.72v6.61h-204.72Z"/>
        <path class="st3" d="M2.03,6.54h1.89v1.9h-1.89v-1.9Z"/>
        <path class="st3" d="M1444.07,24.55h3.8v-3.78h-3.8v3.78ZM1442.66,25.96v-6.61h6.63v6.61h-6.63Z"/>
        <path class="st3" d="M2.03,6.54h1.89v1.9h-1.89v-1.9Z"/>
        <path class="st3" d="M1642.15,24.55h3.8v-3.78h-3.8v3.78ZM1640.73,25.96v-6.61h6.63v6.61h-6.63Z"/>
        <path class="st3" d="M2.03,6.54h1.89v1.9h-1.89v-1.9Z"/>
        <path class="st3" d="M1477.14,24.55h3.8v-3.78h-3.8v3.78ZM1475.72,25.96v-6.61h6.63v6.61h-6.63Z"/>
      </g>
      <g>
        <path class="st3" d="M2.03,6.54h13.66v69.46H2.03V6.54Z"/>
        <path class="st3" d="M1921.52,43.97h-201.88V7.95h201.88v36.02h0ZM1922.93,45.39V6.54h-204.7v38.85h204.7Z"/>
        <path class="st3" d="M2.03,6.54h1.89v69.47h-1.89V6.54Z"/>
        <path class="st3" d="M1719.62,24.55h201.9v-3.78h-201.9v3.78ZM1718.22,25.96v-6.61h204.71v6.61h-204.71Z"/>
        <path class="st3" d="M2.03,6.54h1.89v1.9h-1.89v-1.9Z"/>
        <path class="st3" d="M1719.62,24.55h3.8v-3.78h-3.8v3.78ZM1718.22,25.96v-6.61h6.62v6.61h-6.62Z"/>
        <path class="st3" d="M2.03,6.54h1.89v1.9h-1.89v-1.9Z"/>
        <path class="st3" d="M1917.69,24.55h3.81v-3.78h-3.81v3.78ZM1916.29,25.96v-6.61h6.63v6.61h-6.63Z"/>
        <path class="st3" d="M2.03,6.54h1.89v1.9h-1.89v-1.9Z"/>
        <path class="st3" d="M1752.68,24.55h3.81v-3.78h-3.81v3.78ZM1751.28,25.96v-6.61h6.63v6.61h-6.63Z"/>
      </g>
      <g>
        <path class="st3" d="M2.03,6.54h13.66v69.46H2.03V6.54Z"/>
        <path class="st3" d="M2195.89,43.97h-201.87V7.95h201.87v36.02h0ZM2197.3,45.39V6.54h-204.7v38.85h204.7Z"/>
        <path class="st3" d="M2.03,6.54h1.89v69.47h-1.89V6.54Z"/>
        <path class="st3" d="M1993.99,24.55h201.89v-3.78h-201.89v3.78ZM1992.58,25.96v-6.61h204.72v6.61h-204.72Z"/>
        <path class="st3" d="M2.03,6.54h1.89v1.9h-1.89v-1.9Z"/>
        <path class="st3" d="M1993.99,24.55h3.8v-3.78h-3.8v3.78h0ZM1992.58,25.96v-6.61h6.63v6.61h-6.63Z"/>
        <path class="st3" d="M2.03,6.54h1.89v1.9h-1.89v-1.9Z"/>
        <path class="st3" d="M2192.07,24.55h3.8v-3.78h-3.8v3.78ZM2190.65,25.96v-6.61h6.63v6.61h-6.63Z"/>
        <path class="st3" d="M2.03,6.54h1.89v1.9h-1.89v-1.9Z"/>
        <path class="st3" d="M2027.06,24.55h3.8v-3.78h-3.8v3.78ZM2025.65,25.96v-6.61h6.62v6.61h-6.62Z"/>
      </g>
      <path class="st3" d="M543.93,570.53v-45.38h-8.3v45.38h8.3ZM619.96,570.53v-45.38h-8.3v45.38h8.3Z"/>
      <path class="st3" d="M619.96,525.14h-84.33v8.31h84.33v-8.31ZM570.06,525.14v-166.28h8.31v166.28h-8.31ZM461.93,570.53h228.43v-8.31h-228.43v8.31h0Z"/>
      <path class="st3" d="M461.93,448.86v121.66h8.3v-121.66h-8.3ZM690.36,357.2v213.32h8.31v-213.32h-8.31ZM461.93,357.2h119.15v8.31h-119.15v-8.31h0ZM2013.76,814.36v-126.24h8.31v126.24h-8.31Z"/>
      <path class="st3" d="M1838.71,688.12h183.37v8.31h-183.37v-8.31ZM664.42,357.2h34.24v8.31h-34.24v-8.31h0ZM1849.51,787.54h80.9v8.31h-80.9v-8.31Z"/>
      <g>
        <path class="st3" d="M1914.3,739.86c-.22,0-.64.03-.77.04h-24.32v27.16h24.44s.43.04.65.04c7.28,0,13.19-6.1,13.19-13.62s-5.92-13.61-13.19-13.61ZM1914.3,738.2c8.2,0,14.86,6.84,14.86,15.27s-6.66,15.28-14.86,15.28c-.26,0-.77-.04-.77-.04h-25.97v-30.47h25.97s.51-.04.77-.04h0Z"/>
        <path class="st3" d="M1885.36,743.24v20.46h1.7v-20.46h-1.7ZM1883.71,741.59h5.02v23.77h-5.02v-23.77h0Z"/>
      </g>
      <g>
        <path class="st3" d="M539.46,483.2c.22,0,.64.04.77.04h24.32v27.17h-24.44s-.43.04-.65.04c-7.28,0-13.19-6.11-13.19-13.62s5.91-13.62,13.19-13.62h0ZM539.46,481.54c-8.2,0-14.86,6.84-14.86,15.28s6.66,15.28,14.86,15.28c.26,0,.77-.04.77-.04h25.97v-30.48h-25.97s-.51-.04-.77-.04Z"/>
        <path class="st3" d="M568.4,486.6v20.45h-1.71v-20.45h1.71ZM570.06,484.94h-5.02v23.77h5.02v-23.77h0Z"/>
      </g>
      <g>
        <path class="st3" d="M1903.06,815.93v40.76h-36.29v-40.76h36.29ZM1904.34,814.64h-38.87v43.33h38.87v-43.33Z"/>
        <path class="st3" d="M1898.87,821.54c.95,0,1.73.78,1.73,1.73v25.95c0,.96-.78,1.73-1.73,1.73h-13.81c-.95,0-1.73-.77-1.73-1.72h0v-25.96c0-.95.77-1.73,1.73-1.73h13.81ZM1898.87,820.26h-13.81c-1.67,0-3.02,1.35-3.02,3.02v25.95c0,1.66,1.35,3.02,3.01,3.02h13.82c1.67,0,3.02-1.35,3.02-3.02v-25.95c0-1.67-1.35-3.02-3.02-3.02ZM1880.01,833.33c.57,0,1.04-.46,1.04-1.03s-.47-1.04-1.04-1.04-1.04.47-1.04,1.04.46,1.03,1.04,1.03h0ZM1880.01,841.24c.57,0,1.04-.46,1.04-1.04,0-.57-.47-1.03-1.04-1.03-.58,0-1.04.46-1.04,1.03s.46,1.04,1.04,1.04Z"/>
        <path class="st2" d="M1879.24,836.25h7.06"/>
        <path class="st3" d="M1869.85,818.07v2.58h-3.09v-2.58h3.09ZM1871.14,816.79h-5.65v5.15h5.65v-5.15ZM1869.85,851.84v2.58h-3.09v-2.58h3.09ZM1871.14,850.56h-5.65v5.14h5.65v-5.14Z"/>
        <path class="st4" d="M1868.31,821.77v28.79"/>
      </g>
      <g>
        <path class="st3" d="M568.77,419.03v40.75h-36.29v-40.75h36.29ZM570.06,417.74h-38.86v43.33h38.86v-43.34h0Z"/>
        <path class="st3" d="M564.58,424.64c.95,0,1.73.77,1.73,1.73v25.94c0,.95-.78,1.73-1.73,1.73h-13.81c-.96,0-1.73-.78-1.73-1.73v-25.94c0-.96.78-1.73,1.73-1.73h13.81ZM564.58,423.36h-13.81c-1.66,0-3.02,1.35-3.02,3.01h0v25.95c0,1.67,1.35,3.02,3.02,3.02h13.81c1.66,0,3.01-1.35,3.02-3.02h0v-25.96c0-1.67-1.35-3.02-3.02-3.02h0ZM545.73,436.43c.57,0,1.04-.47,1.04-1.04s-.47-1.03-1.04-1.03-1.04.46-1.04,1.03.46,1.04,1.04,1.04h0ZM545.73,444.34c.57,0,1.04-.47,1.04-1.04s-.47-1.04-1.04-1.04-1.04.47-1.04,1.04.47,1.04,1.04,1.04Z"/>
        <path class="st2" d="M544.97,439.34h7.06"/>
        <path class="st3" d="M535.57,421.17v2.58h-3.09v-2.58h3.09ZM536.86,419.89h-5.65v5.14h5.65v-5.15h0ZM535.57,454.95v2.57h-3.09v-2.57h3.09ZM536.86,453.65h-5.65v5.15h5.65v-5.15Z"/>
        <path class="st4" d="M534.03,424.86v28.79"/>
      </g>
      <g>
        <path class="st3" d="M633.7,558.23h42.75c2.71,0,5.16-1.11,6.95-2.89,1.77-1.78,2.89-4.24,2.89-6.95v-43.48c0-2.71-1.11-5.16-2.89-6.95-1.84-1.85-4.34-2.89-6.95-2.89h-42.75c-2.6,0-5.1,1.04-6.94,2.89-1.85,1.84-2.89,4.34-2.89,6.95v43.48c0,2.61,1.04,5.11,2.89,6.95,1.84,1.84,4.33,2.88,6.94,2.89h0ZM676.44,558.83h-42.75c-2.76,0-5.41-1.1-7.36-3.07-1.96-1.95-3.06-4.6-3.06-7.36v-43.48c0-2.76,1.1-5.41,3.06-7.37,1.95-1.96,4.6-3.06,7.36-3.06h42.75c2.76,0,5.41,1.1,7.37,3.06,1.95,1.95,3.05,4.6,3.06,7.37v43.48c0,2.76-1.1,5.41-3.06,7.36-1.95,1.96-4.6,3.07-7.37,3.07Z"/>
        <path class="st3" d="M635.18,556.03h39.79c2.51,0,4.79-1.03,6.45-2.69s2.68-3.94,2.68-6.45v-40.47c0-2.42-.96-4.74-2.68-6.45-1.71-1.72-4.03-2.68-6.45-2.69h-39.79c-2.42,0-4.74.97-6.45,2.69-1.72,1.71-2.68,4.03-2.69,6.45v40.47c0,2.51,1.03,4.79,2.69,6.45s3.93,2.69,6.45,2.69h0ZM674.97,556.61h-39.79c-2.58,0-5.05-1.03-6.87-2.85-1.83-1.82-2.86-4.29-2.86-6.87v-40.47c0-2.58,1.03-5.05,2.86-6.87,1.76-1.75,4.19-2.86,6.87-2.86h39.79c2.57,0,5.04,1.03,6.86,2.86,1.83,1.82,2.86,4.29,2.86,6.87v40.47c0,2.58-1.03,5.05-2.86,6.87-1.82,1.82-4.28,2.85-6.86,2.85Z"/>
        <path class="st3" d="M621.1,561.03h67.94v-68.74h-67.94v68.74ZM689.64,562.21h-69.71v-71.11h70.3v71.11h-.59Z"/>
        <path class="st3" d="M633.39,550.86c.61,0,1.17-.25,1.58-.66.4-.4.65-.96.65-1.58s-.25-1.18-.65-1.58c-.42-.42-.99-.65-1.58-.65-.62,0-1.18.25-1.59.65-.4.4-.65.96-.65,1.58s.25,1.18.65,1.58.97.66,1.59.66ZM635.38,550.62c-.53.53-1.25.83-1.99.83-.78,0-1.49-.32-2.01-.83-1.11-1.11-1.11-2.9,0-4.01h0c.53-.53,1.25-.83,2.01-.83.78,0,1.48.31,1.99.82,1.11,1.1,1.11,2.89,0,4,0,0,0,0,0,0h0Z"/>
      </g>
      <g>
        <path class="st3" d="M534.57,370.93v5.21c0,20.6-6.43,37.34-17.97,48.92-11.55,11.58-28.24,18.02-48.79,18.02h-5.88v.99h5.88c20.82,0,37.76-6.54,49.5-18.31,11.73-11.77,18.26-28.75,18.26-49.62v-5.21h-.99Z"/>
        <path class="st3" d="M461.93,373.17h73.63v-2.95h-73.63v2.95Z"/>
        <path class="st3" d="M470.23,369.7v-4.19h-8.3v4.78h8.3v-.59ZM469.06,366.7v2.43h-5.95v-2.43h5.95ZM470.23,448.27v-4.2h-8.3v4.79h8.3v-.59h0ZM469.06,445.25v2.43h-5.95v-2.43h5.95Z"/>
      </g>
      <g>
        <path class="st3" d="M586.49,429.84h5.21c20.6,0,37.34-6.42,48.92-17.96,11.58-11.55,18.02-28.25,18.02-48.79v-5.89h1v5.89c0,20.82-6.55,37.75-18.32,49.49s-28.74,18.26-49.62,18.26h-5.21v-.99h0Z"/>
        <path class="st3" d="M588.73,357.2v73.63h-2.95v-73.63h2.95Z"/>
        <path class="st3" d="M585.28,365.51h-4.2v-8.31h4.78v8.31h-.58ZM582.26,364.33h2.43v-5.95h-2.43v5.95ZM663.83,365.51h-4.19v-8.31h4.78v8.31h-.59ZM660.81,364.33h2.43v-5.95h-2.43v5.95Z"/>
      </g>
      <g>
        <path class="st3" d="M1949.43,892.3v-5.2c0-20.61,6.43-37.35,17.97-48.93s28.24-18.02,48.78-18.02h5.89v-.99h-5.89c-20.81,0-37.75,6.54-49.49,18.3-11.73,11.77-18.26,28.75-18.26,49.63v5.2h.99Z"/>
        <path class="st3" d="M2022.07,890.05h-73.63v2.95h73.63v-2.95h0Z"/>
        <path class="st3" d="M2013.76,893.52v4.19h8.31v-4.78h-8.31v.59ZM2014.95,896.54v-2.43h5.95v2.43h-5.95ZM2013.76,814.95v4.2h8.31v-4.79h-8.31v.59ZM2014.95,817.97v-2.43h5.95v2.43h-5.95Z"/>
      </g>
      <g>
        <path class="st3" d="M2008.35,723.22h-5.2c-20.61,0-37.35,6.43-48.93,17.97s-18.01,28.24-18.01,48.78v5.89h-.99v-5.89c0-20.81,6.54-37.75,18.31-49.49,11.77-11.73,28.75-18.26,49.63-18.26h5.2v.99Z"/>
        <path class="st3" d="M2006.1,795.86v-73.63h2.96v73.63h-2.96Z"/>
        <path class="st3" d="M2009.57,787.54h4.19v8.31h-4.78v-8.31h.59ZM2012.59,788.73h-2.43v5.96h2.43v-5.96h0ZM1931.01,787.54h4.2v8.31h-4.79v-8.31h.59ZM1934.02,788.73h-2.43v5.96h2.43v-5.96Z"/>
      </g>
      <path class="st3" d="M475.77,411.63v3.5h-12.81c-.03-1.42.31-3.02,1.02-4.78.71-1.76,2.02-3.84,3.92-6.24,2.23-2.81,3.68-4.97,4.36-6.5.69-1.53,1.03-2.96,1.03-4.28,0-1.51-.35-2.76-1.05-3.72-.7-.95-1.56-1.43-2.6-1.43-1.11,0-2.02.51-2.72,1.54-.71,1.03-1.07,2.53-1.07,4.45l-2.44-.37c.17-2.87.81-5.01,1.92-6.46,1.11-1.44,2.57-2.17,4.39-2.17,1.98,0,3.46.83,4.48,2.52,1.01,1.68,1.51,3.6,1.51,5.74,0,1.89-.39,3.71-1.19,5.45-.79,1.76-2.31,4.08-4.52,6.99-1.42,1.83-2.35,3.08-2.76,3.75-.4.63-.73,1.3-1,1.99h9.51Z"/>
      <path class="st3" d="M479.62,415.13v-4.16h2.7v4.17c0,1.61-.19,2.88-.56,3.8-.38.91-.92,1.62-1.64,2.1l-.66-1.56c.48-.33.84-.81,1.08-1.46.25-.64.38-1.6.4-2.89h-1.31Z"/>
      <path class="st3" d="M500.79,400.41c0-5,.53-8.79,1.59-11.37s2.63-3.86,4.7-3.86c1.84,0,3.29,1.03,4.35,3.13,1.28,2.53,1.92,6.56,1.92,12.1,0,4.98-.53,8.76-1.58,11.35-1.06,2.58-2.64,3.87-4.72,3.87-1.83,0-3.34-1.13-4.51-3.41-1.17-2.29-1.75-6.21-1.75-11.81h0ZM503.22,400.4c0,4.85.36,8.11,1.09,9.75.73,1.65,1.66,2.48,2.81,2.48,1.08,0,1.98-.83,2.71-2.51.73-1.67,1.09-4.91,1.09-9.72s-.37-8.11-1.1-9.75c-.72-1.64-1.67-2.47-2.84-2.47-1.07,0-1.96.83-2.69,2.51-.71,1.67-1.07,4.9-1.07,9.71h0Z"/>
      <path class="st3" d="M486.14,408.22l2.27-.3c.36,3.15,1.44,4.71,3.22,4.71.79,0,1.51-.34,2.16-1.02.65-.69,1.2-1.92,1.64-3.67.45-1.75.68-3.8.68-6.13v-.74c-.49,1.21-1.16,2.17-1.99,2.89-.83.7-1.68,1.06-2.56,1.06-1.57,0-2.93-.87-4.07-2.62-1.14-1.74-1.71-4.13-1.71-7.15s.6-5.57,1.78-7.38c1.17-1.8,2.62-2.69,4.31-2.69,1.19,0,2.32.49,3.36,1.5,1.03,1,1.83,2.48,2.4,4.43.56,1.95.85,4.77.85,8.44,0,4.1-.31,7.28-.92,9.54-.6,2.27-1.43,3.92-2.48,4.96s-2.21,1.56-3.51,1.56c-1.46,0-2.69-.63-3.67-1.9-.99-1.26-1.57-3.11-1.76-5.5h0ZM495.84,395.04c0-2.14-.37-3.81-1.12-5.02-.75-1.22-1.61-1.83-2.59-1.83-1.02,0-1.92.65-2.73,1.95-.8,1.3-1.2,3.04-1.2,5.21,0,1.95.38,3.51,1.14,4.67.76,1.15,1.67,1.73,2.74,1.73s1.93-.58,2.67-1.74,1.09-2.83,1.09-4.97h0Z"/>
      <path class="st3" d="M609.56,385.01v3.5h-12.8c-.03-1.42.31-3.03,1.02-4.78.71-1.76,2.03-3.85,3.92-6.24,2.22-2.8,3.68-4.96,4.36-6.5.69-1.53,1.03-2.96,1.03-4.27,0-1.52-.35-2.77-1.05-3.73-.7-.95-1.57-1.43-2.61-1.43-1.1,0-2.01.51-2.72,1.55-.7,1.03-1.06,2.52-1.06,4.45l-2.44-.38c.17-2.86.81-5.01,1.92-6.46s2.57-2.17,4.38-2.17c1.98,0,3.47.84,4.48,2.52,1.02,1.69,1.52,3.6,1.52,5.74,0,1.89-.4,3.72-1.19,5.45-.79,1.75-2.31,4.08-4.53,6.99-1.42,1.83-2.34,3.09-2.75,3.75-.4.63-.74,1.31-1.01,2.01h9.51Z"/>
      <path class="st3" d="M613.41,388.51v-4.17h2.71v4.17c0,1.62-.19,2.89-.57,3.8-.37.92-.92,1.62-1.63,2.11l-.66-1.57c.48-.32.84-.81,1.08-1.45.24-.65.37-1.61.4-2.89h-1.32Z"/>
      <path class="st3" d="M619.56,380.68l2.51-.3c.19,1.89.63,3.31,1.3,4.24.68.92,1.46,1.38,2.37,1.38,1.12,0,2.09-.65,2.91-1.96.81-1.3,1.22-3.09,1.22-5.35,0-2.14-.4-3.79-1.18-4.96-.78-1.17-1.77-1.76-2.96-1.76-.71,0-1.38.26-2.02.76-.63.51-1.12,1.21-1.48,2.11l-2.23-.45,1.88-15.34h9.57v3.5h-7.7l-1.02,8.07c1.14-1.27,2.35-1.9,3.64-1.9,1.62,0,3.03.87,4.22,2.62s1.78,4.09,1.78,7.05-.59,5.41-1.79,7.5c-1.18,2.08-2.8,3.13-4.81,3.13-1.66,0-3.08-.74-4.22-2.22-1.15-1.47-1.82-3.51-1.97-6.11h0Z"/>
      <path class="st3" d="M634.57,373.79c0-4.99.53-8.78,1.59-11.36,1.07-2.58,2.64-3.87,4.71-3.87,1.84,0,3.29,1.04,4.34,3.13,1.28,2.53,1.93,6.57,1.93,12.1,0,4.98-.52,8.76-1.58,11.35-1.05,2.59-2.63,3.88-4.71,3.88-1.84,0-3.35-1.14-4.52-3.42-1.16-2.28-1.76-6.21-1.76-11.81h0ZM637,373.79c0,4.84.37,8.1,1.1,9.74.72,1.65,1.66,2.48,2.81,2.48,1.08,0,1.97-.83,2.71-2.51.72-1.67,1.08-4.9,1.08-9.71s-.36-8.12-1.09-9.77c-.73-1.64-1.67-2.47-2.85-2.47-1.06,0-1.96.83-2.68,2.51s-1.08,4.91-1.08,9.72h0Z"/>
      <path class="st3" d="M1847.76,915.42h413.03v-17.72h-413.03v17.72Z"/>
    </g>
  </g>
</svg>