<svg version="1.1" xmlns="http://www.w3.org/2000/svg" xmlns:xlink="http://www.w3.org/1999/xlink" viewBox="0 0 2271.401 1886.64"><path fill="none" stroke-width="0" d="M8.84 2.526 2267.784 0l3.617 1886.64H0L8.84 2.526z"></path><path fill="none" stroke-width="0" d="m46.276 37.26 2184.016 3.293v1813.3H46.276V37.26z"></path><clipPath id="a"><path fill="none" stroke-width="0" d="M8.84 2.526 2267.784 0l3.617 1886.64H0L8.84 2.526z"></path></clipPath><g data-name="Layer 1" clip-path="url(#a)"><g data-name="Слой_1"><path fill="none" stroke="#231f20" stroke-miterlimit="22.984" stroke-width=".511" d="m840.073 976.563 46.218 98.12m331.937-226.307-47.571-101.058M840.444 976.062v98.622m377.423-225.807v-101.56m72.094 223.803V869.56m-549.222 85.729v-101.56m123.455 174.195v46.76m329.923-277.539v-49.827M816.693 976.062v98.622m424.915-225.807v-101.56m24.612 223.803V869.56m-501.73 85.729v-101.56m430.479 117.391V869.56m-359.237 85.729v-101.56m-42.79 122.333v98.622m472.417-225.807v-101.56M1242.47 971.12V869.56m-454.24 85.729v-101.56m382.988 117.391V869.56m-311.736 85.729v-101.56m-90.29 122.333v98.622m519.918-225.807v-101.56m-70.39 223.803V869.56m-406.73 85.729v-101.56m335.477 117.391V869.56m-264.234 85.729v-101.56M745.441 976.062v98.622m567.419-225.807v-101.56M1123.717 971.12V869.56m-216.734 85.729v-101.56M721.69 976.062v98.622m-23.74-98.622v98.622m0-48.504h142.494m472.416-227.42h-94.993m-94.15 122.241h166.244M906.983 905.17H740.74m83.091 138.314 16.613-17.304-16.613-17.314m410.639-227.411-16.603 17.304 16.603 17.314m38.889 87.624 16.602 17.304-16.602 17.314m-516.018-50.458L740.74 905.17l16.602 17.314"></path><g data-name="1933193988256"><path fill="#dcdddf" stroke-width="0" d="M1709.212 756.591h126.743V873.36h-126.743z"></path><g data-name="ифт2"><g fill="#1d1d1b" stroke-width="0" data-name="lift 2"><path d="M1772.243 773.063h-32.904c-5.584 0-10.126 4.552-10.126 10.136v63.563c0 5.584 4.542 10.136 10.126 10.136h32.904c5.584 0 10.126-4.552 10.126-10.136v-63.563c0-5.584-4.542-10.135-10.126-10.135Zm5.744 73.699a5.75 5.75 0 0 1-5.744 5.744h-32.904a5.75 5.75 0 0 1-5.745-5.744v-63.563a5.753 5.753 0 0 1 5.745-5.754h32.904a5.753 5.753 0 0 1 5.744 5.754v63.563Zm32.985-12.272-5.524 5.524V822.13c0-1.614-1.304-2.918-2.918-2.918s-2.928 1.304-2.928 2.918v17.885l-5.524-5.524a2.935 2.935 0 0 0-4.13 0 2.917 2.917 0 0 0 0 4.13l9.344 9.345a4.483 4.483 0 0 0 2.687 1.283c.18.04.36.06.551.06.18 0 .35-.02.531-.05.983-.12 1.945-.531 2.697-1.293l9.344-9.344a2.917 2.917 0 0 0 0-4.13 2.935 2.935 0 0 0-4.13 0Zm-16.893-38.99 5.544-5.533v19.028c0 1.614 1.303 2.918 2.917 2.918s2.918-1.304 2.918-2.918v-19.008l5.514 5.514a2.908 2.908 0 0 0 2.065.862c.742 0 1.494-.29 2.065-.862a2.935 2.935 0 0 0 0-4.13l-9.343-9.345a4.608 4.608 0 0 0-2.437-1.253c-.25-.07-.511-.12-.792-.12-.27 0-.531.05-.772.12a4.498 4.498 0 0 0-2.476 1.263l-9.344 9.344a2.935 2.935 0 0 0 0 4.13 2.929 2.929 0 0 0 4.14 0v-.01Z"></path><path d="M1755.76 793.466a6.225 6.225 0 1 0 0-12.452 6.226 6.226 0 1 0 0 12.452Zm.02 28.402c-2.335 0-5.945-.481-7.619-.732l-1.824 24.252a3.316 3.316 0 0 0 3.057 3.54h.04a3.295 3.295 0 0 0 3.55-3.029l1.483-17.955c.05-.602.341-1.444 1.344-1.464 1.063-.02 1.353.872 1.383 1.454l1.494 17.945a3.289 3.289 0 0 0 3.54 3.048h.03c1.814-.14 3.178-1.744 3.047-3.559l-1.844-24.252c-1.755.25-5.494.752-7.68.752Z"></path><path d="m1769.355 811.552-.902-9.053c-.14-1.815-.982-3.82-3.54-5.113-1.964-.983-8.731-.843-8.731-.843s-7.48-.17-9.595.843c-2.536 1.213-3.318 3.298-3.459 5.113l-.902 9.053-.902 11.58a3.303 3.303 0 0 0 3.038 3.548h.04c.621.05 1.213-.07 1.724-.33l1.273-17.916a.83.83 0 0 1 .883-.772c.46.04.802.43.772.892l-.772 10.918c1.564.23 5.233.732 7.499.732 2.125 0 5.995-.522 7.62-.762l-.703-10.898c-.03-.461.311-.852.772-.882s.863.31.893.772l1.153 17.926c.511.24 1.072.35 1.664.31h.04c1.815-.15 3.178-1.724 3.028-3.549l-.892-11.59v.02Z"></path></g></g></g><g data-name="1933193993200"><path fill="#dcdddf" stroke-width="0" d="M1709.212 915.958h126.743v127.696h-126.743z"></path><g data-name="ифт2-2"><g fill="#1d1d1b" stroke-width="0" data-name="lift 2-2"><path d="M1772.243 937.894h-32.904c-5.584 0-10.126 4.552-10.126 10.136v63.562c0 5.585 4.542 10.136 10.126 10.136h32.904c5.584 0 10.126-4.551 10.126-10.135V948.03c0-5.584-4.542-10.136-10.126-10.136Zm5.744 73.699a5.75 5.75 0 0 1-5.744 5.744h-32.904a5.75 5.75 0 0 1-5.745-5.744V948.03a5.753 5.753 0 0 1 5.745-5.754h32.904a5.753 5.753 0 0 1 5.744 5.754v63.563Zm32.985-12.272-5.524 5.524V986.96c0-1.615-1.304-2.918-2.918-2.918s-2.928 1.304-2.928 2.918v17.885l-5.524-5.524a2.935 2.935 0 0 0-4.13 0 2.917 2.917 0 0 0 0 4.13l9.344 9.355a4.526 4.526 0 0 0 2.687 1.273c.18.04.36.06.551.06.18 0 .35-.02.531-.05.983-.12 1.945-.531 2.697-1.283l9.344-9.354a2.917 2.917 0 0 0 0-4.13 2.935 2.935 0 0 0-4.13 0Zm-16.893-38.979 5.544-5.535v19.019c0 1.614 1.303 2.927 2.917 2.927s2.918-1.313 2.918-2.927v-18.998l5.514 5.514a2.898 2.898 0 0 0 2.065.852c.742 0 1.494-.281 2.065-.852a2.935 2.935 0 0 0 0-4.13l-9.343-9.345a4.555 4.555 0 0 0-2.437-1.263c-.25-.07-.511-.12-.792-.12-.27 0-.531.05-.772.12a4.564 4.564 0 0 0-2.476 1.263l-9.344 9.344a2.935 2.935 0 0 0 0 4.13 2.929 2.929 0 0 0 4.14 0Z"></path><path d="M1755.76 958.296a6.225 6.225 0 1 0 0-12.451 6.226 6.226 0 1 0 0 12.451Zm.02 28.413c-2.335 0-5.945-.491-7.619-.732l-1.824 24.242a3.31 3.31 0 0 0 3.057 3.54l.04.01a3.303 3.303 0 0 0 3.55-3.039l1.483-17.946c.05-.611.341-1.453 1.344-1.473 1.063-.01 1.353.872 1.383 1.453l1.494 17.956a3.288 3.288 0 0 0 3.54 3.038h.03a3.324 3.324 0 0 0 3.047-3.549l-1.844-24.262c-1.755.26-5.494.752-7.68.752v.01Z"></path><path d="m1769.355 976.383-.902-9.054c-.14-1.814-.982-3.82-3.54-5.103-1.964-.992-8.731-.842-8.731-.842s-7.48-.17-9.595.842c-2.536 1.214-3.318 3.289-3.459 5.103l-.902 9.054-.902 11.59a3.294 3.294 0 0 0 3.038 3.538l.04.01c.621.05 1.213-.08 1.724-.34l1.273-17.906a.83.83 0 0 1 1.654.11l-.771 10.918c1.564.23 5.233.732 7.499.732 2.125 0 5.995-.522 7.62-.762l-.703-10.898c-.03-.461.311-.852.772-.882s.863.32.893.772l1.153 17.925a3.335 3.335 0 0 0 1.664.311h.04a3.285 3.285 0 0 0 3.028-3.539l-.892-11.59v.01Z"></path></g></g></g><g data-name="1933193999632"><path fill="#dcdddf" stroke-width="0" d="M1263.163 1010.91h181.654v114.423h-181.654z"></path><g data-name="ифт"><g data-name="lift 3" fill="#1d1d1b" stroke-width="0"><path d="M1366.838 1026.21h-59.282c-5.584 0-10.136 4.541-10.136 10.126v63.572c0 5.584 4.552 10.126 10.136 10.126h59.282c5.584 0 10.135-4.542 10.135-10.126v-63.572c0-5.584-4.551-10.126-10.135-10.126Zm5.754 73.698a5.753 5.753 0 0 1-5.754 5.745h-59.282c-3.168 0-5.754-2.577-5.754-5.745v-63.562a5.761 5.761 0 0 1 5.754-5.755h59.282a5.753 5.753 0 0 1 5.754 5.745v63.572Zm32.985-12.271-5.525 5.524v-17.886c0-1.614-1.313-2.927-2.927-2.927s-2.918 1.313-2.918 2.927v17.886l-5.524-5.524c-1.143-1.143-2.987-1.143-4.13 0s-1.143 2.987 0 4.13l9.344 9.344c.752.752 1.704 1.163 2.686 1.283.171.03.361.05.542.05s.36-.02.531-.05a4.561 4.561 0 0 0 2.707-1.283l9.344-9.344a2.935 2.935 0 0 0 0-4.13 2.917 2.917 0 0 0-4.13 0Zm-16.894-38.99 5.534-5.534v19.028c0 1.615 1.314 2.918 2.928 2.918s2.917-1.303 2.917-2.917v-19.009l5.515 5.514a2.909 2.909 0 0 0 2.065.862c.742 0 1.494-.29 2.055-.862a2.917 2.917 0 0 0 0-4.13l-9.344-9.344a4.544 4.544 0 0 0-2.426-1.253c-.26-.07-.521-.12-.792-.12s-.531.05-.772.12a4.549 4.549 0 0 0-2.476 1.253l-9.344 9.354a2.935 2.935 0 0 0 0 4.13 2.935 2.935 0 0 0 4.13 0l.01-.01Z"></path><path d="M1350.366 1046.612a6.225 6.225 0 1 0 0-12.452 6.226 6.226 0 1 0 0 12.452Zm.01 28.402c-2.336 0-5.946-.48-7.61-.731l-1.824 24.251a3.303 3.303 0 0 0 3.057 3.54h.04a3.287 3.287 0 0 0 3.54-3.038l1.493-17.946c.05-.602.341-1.444 1.344-1.464 1.053-.02 1.343.872 1.383 1.454l1.484 17.946a3.3 3.3 0 0 0 3.54 3.048l.03-.01a3.304 3.304 0 0 0 3.047-3.55l-1.845-24.251c-1.744.25-5.494.751-7.68.751Z"></path><path d="m1363.96 1064.688-.902-9.043c-.14-1.825-.983-3.82-3.55-5.113-1.964-.983-8.731-.842-8.731-.842s-7.47-.17-9.585.842c-2.546 1.213-3.328 3.288-3.469 5.113l-.902 9.043-.892 11.59a3.296 3.296 0 0 0 3.037 3.549h.03c.622.05 1.214-.07 1.725-.331l1.273-17.916a.84.84 0 0 1 .892-.772c.452.04.793.431.762.893l-.772 10.917c1.574.231 5.244.732 7.5.732 2.135 0 6.005-.531 7.619-.762l-.702-10.898a.847.847 0 0 1 .782-.892.846.846 0 0 1 .883.782l1.163 17.926c.5.23 1.072.35 1.664.3h.03a3.3 3.3 0 0 0 3.038-3.538l-.903-11.59.01.01Zm-55.582 20.182h20.362v15.98h-20.362zm0-18.598h20.362v15.98h-20.362zm0-10.858h20.362v7.99h-20.362z"></path></g></g></g><path d="M28.27 3.118h2239.458v1879.408H8.84V3.118h19.43Zm2200.619 38.849H47.689v1801.72h2181.2V41.967Z" fill="#58595b" stroke-width="0"></path><path fill="#58595b" stroke-width="0" d="M1674.844 1159.54v-134.904h23.62v27.37h150.314v-148.8h-150.314v31.56h-23.62v-75.974h23.62v20.804h150.314V747.328h-150.314v21.234h-23.62v-44.855h197.554v435.833h-23.62v-83.914h-150.314v83.914h-23.62zm-550.756-188.42h116.407v23.62h-116.407v-23.62zM885.73 723.697h592.712v23.62h-571.46V853.73H576.911v-23.62h306.452V723.697h2.366z"></path><path fill="#58595b" stroke-width="0" d="M1478.443 1114.696v44.864h-251.071V971.12h227.45v-9.174h23.62v58.64h-23.62v-25.847h-203.83v141.201h203.83v-21.244h23.62zm-473.61-265.819h352.09v23.62h-328.47v103.565H576.47v-23.62h428.363V848.876zM576.47 1074.684h558.215v23.62H576.47v-23.62z"></path><path fill="#58595b" stroke-width="0" d="M1124.088 1098.304V971.119h23.62v127.185h-23.62zM576.47 1159.54V965.515h23.62v194.025h-23.62zm.44-328.659V723.697h23.611v107.184h-23.61zm0 570.006v-122.985h23.611v122.985h-23.61zm0 480.376v-233.987h23.611v233.987h-23.61zm547.178-480.376v-122.985h23.62v122.985h-23.62zm0 480.376v-233.987h23.62v233.987h-23.62zM576.91 486.672v116.859h23.611V486.672h-23.61zm0-484.146v237.747h23.611V2.526h-23.61zm547.178 484.146v119.435h23.62V486.672h-23.62zm330.734 237.025v131.085h23.62V723.697h-23.62zM1124.088 2.526v237.747h23.62V2.526h-23.62zm559.047 484.146v119.435h23.61V486.672h-23.61zm0-478.802v232.403h23.61V7.87h-23.61zm0 1394.19v-122.974h23.61v122.973h-23.61zm0 479.203v-233.987h23.61v233.987h-23.61zm-54.118-739.438h67.593v17.715h-67.593v-17.715zm-130.884-637.518h185.002v17.716h-185.002v-17.716zm191.187 187.068v55.622h17.716v-55.622h-17.715z"></path><path fill="#58595b" stroke-width="0" d="M1500.409 1360.503h188.631v17.716h-188.63v-17.716zm-509.401-63.391h141.361v17.715H991.008v-17.715z"></path><path fill="#58595b" stroke-width="0" d="M1518.124 1364.794v-82.21h-17.715v82.21h17.715zm-509.401-63.402v-23.49h-17.715v23.49h17.715zm462.732-159.567h50.398v17.715h-50.398v-17.715zm-1194.56-301.74h202.527v34.568H276.895v-34.568zM8.84 800.644h291.444v34.568H8.84v-34.568zm268.055 241.236h202.527v-34.568H276.895v34.568z"></path><path fill="#58595b" stroke-width="0" d="M479.422 1041.88v-72.686h-34.558v72.686h34.558zm-179.138 39.43v-73.998h-34.558v73.999h34.558z"></path><path fill="#58595b" stroke-width="0" d="M8.84 1081.31h291.444v-34.558H8.84v34.559zm470.582-197.774V865.82h-34.558v17.716h34.558zm-179.138-8.883v-74.01h-34.558v74.01h34.558zm985.576-286.261h16.002v17.715h-16.001v-17.715zm-372.931 0h16.02v17.715h-16.02v-17.715zm585.204 17.715v-101.8h17.705v101.8h-17.705zm-356.029-40.032h159.758v17.715h-159.758v-17.715z"></path><path fill="#58595b" stroke-width="0" d="M912.929 606.107v-40.032h17.705v40.032h-17.705zM461.707 841.598V741.563h17.715v100.035h-17.715zm822.44-235.491v-40.032h17.715v40.032h-17.715z"></path><path fill="#58595b" stroke-width="0" d="M912.929 555.93H1129.4v17.714H912.93V555.93zm785.535 595.3h161.623v8.31h-161.623v-8.31zm58.008 174.906v-48.234h8.312v48.234h-8.312z"></path><path fill="#58595b" stroke-width="0" d="M1702.705 1317.824h62.079v8.312h-62.079v-8.312zm-1180.063 7.63v-43.12h-8.311v43.12h8.311zm91.915 156.62v-36.704h8.301v36.704h-8.301zm554.115-946.407v48.123h8.31v-48.123h-8.31zm-255.743-80.365V560.15h8.3V455.302h-8.3zM550.784 606.107v-45.376h-8.311v45.376h8.311zm76.034 0v-45.376h-8.311v45.376h8.311z"></path><path fill="#58595b" stroke-width="0" d="M580.65 1445.37h42.208v8.311H580.65v-8.31zM249.054 808.955h230.368v-8.311H249.054v8.311zm377.764-248.224h-84.345v8.312h84.345v-8.312zm372.502 753.153v66.821h-8.312v-66.82h8.311zm-421.076 3.269h-59.15v8.3h59.15v-8.3zm2.126 156.61h42.488v8.31H580.37v-8.31zm564.782-929.784h31.83v-8.312h-31.83v8.312zm-224.704 62.128h365.413v-8.311H920.448v8.311zM599.81 732.009h286.962v-8.312H599.809v8.312zm544.269-276.707h-231.15v8.311h231.15v-8.31zm35.551 871.104v-44.724h8.31v44.724h-8.31z"></path><path fill="#58595b" stroke-width="0" d="M1133.311 400.763v183.569h8.312v-183.57h-8.312zm-126.723 877.139h235.07v8.312h-235.07v-8.312zm141.12 40.193h36.694v8.311h-36.694v-8.311zm80.415-913.182h12.773v-8.31h-12.773v8.31zm-685.65 201.194h84.345v-8.311h-84.345v8.311zm1355.471 154.805v-37.706h8.31v37.706h-8.31zm63.341-31.861v-37.706h8.302v37.706h-8.302zm56.815 305.981v-15.72h8.312v15.72h-8.312z"></path><path fill="#58595b" stroke-width="0" d="M1866.022 1026.721h160.34v8.311h-160.34v-8.31zm-2.406-203.349h63.312v8.311h-63.312v-8.311zm5.935-70.771h36.704v8.311h-36.704v-8.31zm-165.934-61.256h265.97v8.311h-265.97v-8.311zM991.86 1372.394h139.797v8.311H991.86v-8.311zm508.549-94.492h263.031v8.312h-263.03v-8.312zm-1127.84 0h227.952v8.312H372.569v-8.312zm105.028 151.016h107.615v8.311H477.597v-8.311zm-105.028 70.54h212.643v8.311H372.569v-8.31z"></path><path fill="#58595b" stroke-width="0" d="M380.87 1369.567v138.202h-8.301v-138.202h8.301zm860.788-91.665v201.826h-8.311v-201.826h8.311zm-.762-697.18V398.226h-8.311v182.496h8.311zm-655.684 816.846v110.181h-8.301v-110.181h8.3zm555.518-4.411v86.5h-8.311v-86.5h8.311z"></path><path fill="#58595b" stroke-width="0" d="M1149.994 1471.346h-17.575v8.312h17.575v-8.312zM2018.1 935.96V723.706h8.312V935.96h-8.312zm-519.967-329.853h208.612v-8.311h-208.612v8.311zm-350.435-34.097V455.302h-8.311V572.01h8.311z"></path><g data-name="1894793097968" fill="#010101" stroke-width="0"><path d="M546.303 1383.472c.22 0 .641.03.772.03h24.322v27.17h-24.443c-.01 0-.43.04-.651.04-7.269 0-13.194-6.116-13.194-13.625s5.925-13.615 13.194-13.615Zm0-1.664c-8.201 0-14.848 6.847-14.848 15.279 0 8.441 6.647 15.279 14.848 15.279.27 0 .772-.04.772-.04h25.976v-30.478h-25.976s-.502-.04-.772-.04Z"></path><path d="M575.246 1386.86v20.453h-1.704v-20.452h1.704Zm1.665-1.654h-5.023v23.771h5.023v-23.77Z"></path></g><g data-name="1894793101856" fill="#010101" stroke-width="0"><path d="M1902.996 778.277c-.22 0-.641.04-.761.04h-24.323v27.17h24.443s.431.03.641.03c7.28 0 13.204-6.106 13.204-13.615s-5.925-13.625-13.204-13.625Zm0-1.654c8.201 0 14.858 6.837 14.858 15.279 0 8.431-6.657 15.279-14.858 15.279-.26 0-.761-.04-.761-.04h-25.987v-30.478h25.987s.5-.04.761-.04Z"></path><path d="M1874.053 781.665v20.463h1.714v-20.463h-1.714Zm-1.655-1.644h5.023v23.76h-5.023v-23.76Z"></path></g><g data-name="1894793110592"><path d="M1909.984 969.876v40.754h-36.302v-40.754h36.302Zm1.284-1.283h-38.87v43.33l38.87-.01v-43.33.01Z" fill="#231f20" stroke-width="0"></path><path d="M1905.794 975.49c.952 0 1.724.772 1.724 1.735v25.946c0 .952-.772 1.734-1.724 1.734h-13.826a1.733 1.733 0 0 1-1.724-1.734v-25.946c0-.963.772-1.735 1.724-1.735h13.826Zm0-1.283h-13.826a3.006 3.006 0 0 0-3.007 3.018v25.946a3.012 3.012 0 0 0 3.007 3.018l13.826-.01a3.004 3.004 0 0 0 3.007-3.008v-25.956a3.004 3.004 0 0 0-3.007-3.008Zm-18.868 13.073c.581 0 1.042-.47 1.042-1.042s-.46-1.033-1.042-1.033c-.572 0-1.043.461-1.043 1.033s.471 1.042 1.043 1.042Zm0 7.91a1.042 1.042 0 1 0 .001-2.083 1.042 1.042 0 0 0-.001 2.084Z" fill="#231f20" stroke-width="0"></path><path fill="none" stroke="#231f20" stroke-linecap="round" stroke-miterlimit="22.984" stroke-width=".471" d="M1886.164 990.198h7.058"></path><path d="M1876.77 972.021v2.577h-3.088v-2.576h3.088Zm1.293-1.283h-5.665v5.143h5.665v-5.143Zm-1.293 35.06v2.566h-3.088v-2.566h3.088Zm1.293-1.284h-5.665v5.144h5.665v-5.144Z" fill="#010101" stroke-width="0"></path><path fill="none" stroke="#010101" stroke-linecap="round" stroke-linejoin="round" stroke-width=".471" d="M1875.226 975.71v28.804"></path></g><g data-name="1931714528272"><path d="M1909.984 911.186v40.754h-36.302v-40.754h36.302Zm1.284-1.283h-38.87v43.33l38.87-.01v-43.33.01Z" fill="#231f20" stroke-width="0"></path><path d="M1905.794 916.8c.952 0 1.724.772 1.724 1.735v25.946c0 .953-.772 1.735-1.724 1.735h-13.826a1.733 1.733 0 0 1-1.724-1.735v-25.946c0-.963.772-1.735 1.724-1.735h13.826Zm0-1.283h-13.826a3.006 3.006 0 0 0-3.007 3.018v25.946a3.012 3.012 0 0 0 3.007 3.018l13.826-.01a3.004 3.004 0 0 0 3.007-3.008v-25.956a3.012 3.012 0 0 0-3.007-3.018v.01Zm-18.868 13.073c.581 0 1.042-.47 1.042-1.042s-.46-1.033-1.042-1.033c-.572 0-1.043.461-1.043 1.033s.471 1.043 1.043 1.043Zm0 7.91a1.042 1.042 0 1 0 .001-2.083 1.042 1.042 0 0 0-.001 2.084Z" fill="#231f20" stroke-width="0"></path><path fill="none" stroke="#231f20" stroke-linecap="round" stroke-miterlimit="22.984" stroke-width=".471" d="M1886.164 931.508h7.058"></path><path d="M1876.77 913.332v2.576l-3.088-.01v-2.566h3.088Zm1.293-1.284h-5.665v5.143h5.665v-5.143Zm-1.293 35.06v2.566h-3.088v-2.566h3.088Zm1.293-1.283h-5.665v5.143h5.665v-5.143Z" fill="#010101" stroke-width="0"></path><path fill="none" stroke="#010101" stroke-linecap="round" stroke-linejoin="round" stroke-width=".471" d="M1875.226 917.021v28.804"></path></g><g data-name="1931714495056"><path d="M1909.984 851.915v40.764h-36.302v-40.764h36.302Zm1.284-1.284h-38.87v43.331h38.87v-43.33Z" fill="#231f20" stroke-width="0"></path><path d="M1905.794 857.54c.952 0 1.724.771 1.724 1.724v25.956c0 .952-.772 1.724-1.724 1.724h-13.826a1.724 1.724 0 0 1-1.724-1.724v-25.956c0-.953.772-1.725 1.724-1.725h13.826Zm0-1.284h-13.826a3.004 3.004 0 0 0-3.007 3.008v25.956a3.004 3.004 0 0 0 3.007 3.008h13.826a3.012 3.012 0 0 0 3.007-3.018v-25.946a3.012 3.012 0 0 0-3.007-3.018v.01Zm-18.868 13.074a1.042 1.042 0 1 0 .001-2.084 1.042 1.042 0 0 0-.001 2.083Zm0 7.9c.581 0 1.042-.462 1.042-1.033 0-.582-.46-1.043-1.042-1.043-.572 0-1.043.461-1.043 1.043a1.04 1.04 0 0 0 1.043 1.032Z" fill="#231f20" stroke-width="0"></path><path fill="none" stroke="#231f20" stroke-linecap="round" stroke-miterlimit="22.984" stroke-width=".471" d="M1886.164 872.237h7.058"></path><path d="M1876.77 854.07v2.577l-3.088-.01v-2.577l3.088.01Zm1.293-1.283h-5.665v5.143l5.665-.01v-5.143.01Zm-1.293 35.05v2.576h-3.088v-2.576h3.088Zm1.293-1.284h-5.665v5.143h5.665v-5.143Z" fill="#010101" stroke-width="0"></path><path fill="none" stroke="#010101" stroke-linecap="round" stroke-linejoin="round" stroke-width=".471" d="M1875.226 857.76v28.793"></path></g><g data-name="1930536982560"><path d="M503.413 1323.79H462.65v-36.293h40.764v36.293Zm1.283 1.283v-38.86h-43.33v38.86h43.33Z" fill="#231f20" stroke-width="0"></path><path d="M497.799 1319.599c0 .952-.782 1.734-1.735 1.734h-25.946a1.735 1.735 0 0 1-1.734-1.734v-13.815c0-.953.772-1.735 1.734-1.735h25.946c.953 0 1.735.782 1.735 1.735v13.815Zm1.283 0v-13.815a3.02 3.02 0 0 0-3.018-3.018h-25.946a3.014 3.014 0 0 0-3.018 3.018v13.815a3.014 3.014 0 0 0 3.018 3.018h25.946a3.014 3.014 0 0 0 3.018-3.018Zm-13.073-18.859c0 .572.46 1.044 1.032 1.044s1.043-.472 1.043-1.043c0-.572-.471-1.043-1.043-1.043s-1.032.471-1.032 1.043Zm-7.911 0c0 .572.462 1.044 1.043 1.044a1.04 1.04 0 0 0 1.033-1.043 1.04 1.04 0 0 0-1.033-1.043c-.581 0-1.043.471-1.043 1.043Z" fill="#231f20" stroke-width="0"></path><path fill="none" stroke="#231f20" stroke-linecap="round" stroke-miterlimit="22.984" stroke-width=".471" d="M483.091 1299.979v7.058"></path><path d="M501.268 1290.585h-2.577v-3.088h2.577v3.088Zm1.283 1.283v-5.654h-5.143v5.654h5.143Zm-35.06-1.283h-2.576v-3.088h2.576v3.088Zm1.284 1.283v-5.654h-5.144v5.654h5.144Z" fill="#010101" stroke-width="0"></path><path fill="none" stroke="#010101" stroke-linecap="round" stroke-linejoin="round" stroke-width=".471" d="M497.568 1289.04h-28.793"></path></g><g data-name="1930536996048" stroke-width="0"><path d="M1161.483 531.687h42.75a9.817 9.817 0 0 0 6.937-2.887 9.799 9.799 0 0 0 2.888-6.948v-43.48a9.799 9.799 0 0 0-2.888-6.949 9.817 9.817 0 0 0-6.938-2.887h-42.749c-2.707 0-5.163 1.113-6.948 2.887a9.799 9.799 0 0 0-2.887 6.948v43.481a9.799 9.799 0 0 0 2.887 6.948c1.785 1.774 4.241 2.887 6.948 2.887Zm42.75.592h-42.75a10.432 10.432 0 0 1-7.369-3.058 10.432 10.432 0 0 1-3.057-7.369v-43.48c0-2.868 1.173-5.475 3.057-7.37a10.432 10.432 0 0 1 7.37-3.057h42.748a10.39 10.39 0 0 1 7.36 3.057 10.432 10.432 0 0 1 3.057 7.37v43.48c0 2.867-1.173 5.474-3.058 7.369a10.39 10.39 0 0 1-7.359 3.058Z"></path><path d="M1162.957 529.482h39.792a9.094 9.094 0 0 0 6.446-2.687 9.112 9.112 0 0 0 2.687-6.447v-40.473c0-2.506-1.033-4.792-2.687-6.447s-3.93-2.686-6.446-2.686h-39.792c-2.506 0-4.792 1.032-6.446 2.686s-2.677 3.94-2.677 6.447v40.473a9.103 9.103 0 0 0 2.677 6.447 9.112 9.112 0 0 0 6.446 2.687Zm39.792.591h-39.792a9.703 9.703 0 0 1-6.857-2.857 9.685 9.685 0 0 1-2.858-6.868v-40.473a9.685 9.685 0 0 1 2.858-6.868 9.695 9.695 0 0 1 6.857-2.847h39.792a9.718 9.718 0 0 1 6.867 2.847 9.685 9.685 0 0 1 2.857 6.868v40.473a9.685 9.685 0 0 1-2.857 6.868c-1.764 1.754-4.19 2.857-6.867 2.857Z"></path><path d="M1148.881 534.484h67.944V465.74h-67.944v68.745Zm68.535 1.183h-69.708v-71.111h70.3v71.111h-.592Z"></path><path d="M1161.162 524.308a2.243 2.243 0 0 0 1.584-3.83c-.4-.4-.962-.651-1.584-.651s-1.183.25-1.584.652a2.28 2.28 0 0 0-.661 1.584c0 .621.26 1.183.661 1.594.402.4.963.651 1.584.651Zm2.006-.24a2.834 2.834 0 0 1-4.01 0c-.512-.512-.823-1.223-.823-2.005s.311-1.494.822-2.005c.512-.512 1.223-.823 2.005-.823s1.494.311 2.006.823c.51.52.832 1.223.832 2.005s-.321 1.493-.832 2.005Z"></path></g><g data-name="1930536931728" stroke-width="0"><path d="M1161.704 1330.386h42.749a9.8 9.8 0 0 1 6.938 2.888c1.784 1.784 2.897 4.24 2.897 6.948v43.49a9.784 9.784 0 0 1-2.897 6.938 9.757 9.757 0 0 1-6.938 2.888h-42.75a9.799 9.799 0 0 1-6.947-2.888 9.775 9.775 0 0 1-2.887-6.937v-43.491a9.799 9.799 0 0 1 2.887-6.948c1.785-1.775 4.24-2.888 6.948-2.888Zm42.75-.591h-42.75c-2.867 0-5.474 1.183-7.369 3.068a10.39 10.39 0 0 0-3.058 7.359v43.49a10.39 10.39 0 0 0 3.058 7.36 10.432 10.432 0 0 0 7.369 3.057h42.75c2.866 0 5.473-1.173 7.358-3.058s3.058-4.491 3.058-7.358v-43.491c0-2.868-1.173-5.474-3.058-7.36s-4.492-3.067-7.359-3.067Z"></path><path d="M1163.178 1332.602h39.791c2.517 0 4.792 1.023 6.447 2.677s2.687 3.94 2.687 6.447v40.473c0 2.516-1.033 4.792-2.687 6.446s-3.93 2.687-6.447 2.687h-39.791c-2.507 0-4.793-1.032-6.447-2.687s-2.677-3.93-2.677-6.446v-40.473c0-2.507 1.023-4.793 2.677-6.447s3.94-2.677 6.447-2.677Zm39.791-.591h-39.791a9.694 9.694 0 0 0-6.858 2.847 9.685 9.685 0 0 0-2.857 6.867v40.474a9.667 9.667 0 0 0 2.857 6.867 9.662 9.662 0 0 0 6.858 2.858h39.791a9.667 9.667 0 0 0 6.868-2.858 9.667 9.667 0 0 0 2.857-6.867v-40.474a9.685 9.685 0 0 0-2.857-6.867 9.7 9.7 0 0 0-6.868-2.847Z"></path><path d="M1149.102 1327.59h67.943v68.745h-67.943v-68.746Zm68.535-1.184h-69.708v71.112h70.3v-71.112h-.592Z"></path><path d="M1161.383 1337.765c.622 0 1.183.261 1.584.662.411.401.662.962.662 1.584s-.25 1.183-.662 1.584c-.401.411-.962.662-1.584.662s-1.183-.25-1.584-.662c-.401-.401-.662-.962-.662-1.584s.261-1.183.662-1.584a2.243 2.243 0 0 1 1.584-.662Zm2.005.24a2.834 2.834 0 0 0-4.01 0 2.83 2.83 0 0 0-.822 2.006 2.826 2.826 0 0 0 4.832 2.005 2.834 2.834 0 0 0 0-4.01Z"></path></g><g data-name="1930536935184" fill="#58595b" stroke-width="0"><path d="M1389.495 957.154h73.638v-2.948h-73.638v2.948z"></path><path d="M1390.488 956.532v-5.213c0-20.613 6.416-37.346 17.966-48.925 11.55-11.59 28.252-18.026 48.795-18.026h5.885v-.993h-5.885c-20.824 0-37.757 6.547-49.497 18.317-11.74 11.76-18.256 28.743-18.256 49.627v5.213h.992Zm72.655-96.958h-28.181v2.948h28.181v-2.948zm-8.321 98.171v4.2h8.312v-4.791h-8.312v.591Zm1.183 3.018v-2.426h5.946v2.426h-5.946Z"></path><path d="M1454.822 855.374v4.2h8.312v-4.792h-8.312v.592Zm1.183 3.017v-2.426h5.946v2.426h-5.946Zm.752 25.937a21.74 21.74 0 0 1-15.41-6.387 21.722 21.722 0 0 1-6.385-15.42h.832a20.903 20.903 0 0 0 6.135 14.829c3.8 3.8 9.043 6.145 14.828 6.145v.833Z"></path></g><g data-name="1930536946896" fill="#58595b" stroke-width="0"><path d="M660.604 858.14h-67.833v2.718h67.833v-2.717z"></path><path d="M659.682 858.712v4.802c0 18.989-5.915 34.408-16.552 45.076s-26.017 16.592-44.945 16.592h-5.414v.922h5.414c19.179 0 34.789-6.025 45.596-16.873 10.808-10.838 16.823-26.477 16.823-45.717v-4.802h-.922Zm-66.921 89.318h25.956v-2.717h-25.956v2.717zm7.659-90.44v-3.86h-7.649v4.41h7.65v-.55Zm-1.082-2.778v2.236h-5.484v-2.236h5.484Zm1.082 97.078v-3.86h-7.649v4.412h7.65v-.552Zm-1.082-2.777v2.236h-5.484v-2.236h5.484Z"></path><path d="M598.636 925.232a20.06 20.06 0 0 1 14.206 5.875 20.024 20.024 0 0 1 5.875 14.206h-.762a19.302 19.302 0 0 0-19.319-19.32v-.761Z"></path></g><g data-name="1930536949728" fill="#58595b" stroke-width="0"><path d="M1624.225 797.345v-73.638h-2.948v73.638h2.948z"></path><path d="M1623.593 796.353h-5.203c-20.613 0-37.355-6.416-48.935-17.966-11.58-11.55-18.016-28.252-18.016-48.794v-5.886h-.993v5.886c0 20.823 6.537 37.756 18.317 49.496 11.76 11.73 28.744 18.257 49.627 18.257h5.203v-.993Zm-96.957-72.656v28.182h2.957v-28.182h-2.957zm98.18 8.322h4.2v-8.312h-4.791v8.312h.591Zm3.018-1.183h-2.426v-5.945h2.426v5.945Zm-105.389 1.183h4.19v-8.312h-4.782v8.312h.592Zm3.018-1.183h-2.427v-5.945h2.427v5.945Z"></path><path d="M1551.399 730.084a21.74 21.74 0 0 1-6.386 15.41 21.739 21.739 0 0 1-15.42 6.385v-.832c5.795 0 11.028-2.346 14.828-6.135a20.939 20.939 0 0 0 6.136-14.828h.842Z"></path></g><path d="M1948.302 1559.752v-7.128h-8.361v-3.369l8.742-19.34h1.985v19.34h2.637v3.369h-2.637v7.128h-2.366Zm0-10.497v-13.454l-6.015 13.454h6.015Z" stroke-width="0"></path><path data-name="1" d="m1967.982 1537.215-2.366.29c-.23-1.534-.561-2.636-1.002-3.288-.632-.952-1.384-1.424-2.276-1.424-1.373 0-2.476 1.083-3.318 3.259-.712 1.874-1.073 4.641-1.083 8.31.541-1.313 1.223-2.295 2.055-2.967.832-.682 1.704-1.022 2.627-1.022 1.534 0 2.867.882 4.01 2.646 1.143 1.755 1.714 4.11 1.714 7.048 0 1.996-.29 3.81-.862 5.424-.571 1.624-1.313 2.818-2.215 3.6-.893.771-1.885 1.162-2.968 1.162-1.955 0-3.56-1.112-4.832-3.348-1.263-2.216-1.895-5.925-1.895-11.118 0-5.765.652-9.876 1.945-12.322 1.293-2.446 2.957-3.67 4.972-3.67 1.464 0 2.697.632 3.69 1.906.982 1.263 1.584 3.097 1.805 5.514Zm-9.674 12.872c0 2.156.4 3.88 1.203 5.194.802 1.313 1.734 1.965 2.797 1.965.932 0 1.764-.612 2.496-1.855.732-1.233 1.103-2.928 1.103-5.083 0-2.115-.36-3.77-1.093-4.933s-1.614-1.744-2.666-1.744c-1.033 0-1.925.581-2.687 1.734-.772 1.163-1.153 2.737-1.153 4.722Z" fill="#000" stroke-width="0"></path><path data-name="2" d="m1971.07 1552.834 2.276-.29c.361 3.138 1.434 4.702 3.218 4.702.782 0 1.514-.341 2.156-1.023.652-.692 1.193-1.915 1.644-3.67.451-1.744.682-3.8.682-6.135v-.732c-.501 1.213-1.163 2.166-1.995 2.877s-1.694 1.063-2.557 1.063c-1.574 0-2.927-.872-4.07-2.606-1.143-1.745-1.715-4.141-1.715-7.159 0-3.118.592-5.574 1.785-7.369 1.173-1.804 2.617-2.696 4.311-2.696 1.193 0 2.316.5 3.359 1.503 1.032 1.003 1.834 2.477 2.406 4.442.561 1.945.852 4.762.852 8.431 0 4.1-.31 7.279-.922 9.545-.602 2.266-1.434 3.92-2.477 4.962-1.042 1.053-2.215 1.574-3.509 1.574-1.463 0-2.687-.631-3.67-1.905-.992-1.273-1.573-3.107-1.774-5.514Zm9.715-13.183c0-2.126-.37-3.8-1.123-5.023s-1.614-1.835-2.586-1.835c-1.023 0-1.935.652-2.727 1.955-.802 1.304-1.203 3.038-1.203 5.213 0 1.955.38 3.51 1.143 4.672s1.674 1.745 2.737 1.745c1.052 0 1.935-.582 2.666-1.755.732-1.163 1.093-2.827 1.093-4.972Z" fill="#000" stroke-width="0"></path><path data-name="3" d="M1987.071 1559.752v-4.17h2.697v4.17c0 1.624-.18 2.887-.561 3.8-.371.922-.923 1.624-1.645 2.115l-.651-1.574c.47-.32.832-.812 1.072-1.453.251-.652.381-1.615.401-2.888h-1.313Z" fill="#000" stroke-width="0"></path><path data-name="4" d="M2000.826 1559.752v-7.128h-8.361v-3.369l8.752-19.34h1.985v19.34h2.627v3.369h-2.627v7.128h-2.376Zm0-10.497v-13.454l-6.005 13.454h6.005Z" fill="#000" stroke-width="0"></path><path data-name="5" d="M2008.235 1545.025c0-4.993.532-8.783 1.594-11.36 1.063-2.576 2.637-3.87 4.712-3.87 1.835 0 3.279 1.043 4.341 3.129 1.284 2.526 1.925 6.567 1.925 12.1 0 4.983-.521 8.763-1.584 11.35-1.062 2.586-2.636 3.88-4.722 3.88-1.834 0-3.338-1.144-4.511-3.42-1.163-2.275-1.755-6.215-1.755-11.81Zm2.437 0c0 4.842.37 8.1 1.092 9.744.732 1.655 1.675 2.477 2.818 2.477 1.072 0 1.975-.832 2.706-2.507.722-1.674 1.083-4.902 1.083-9.714 0-4.873-.37-8.121-1.093-9.765-.731-1.645-1.684-2.467-2.847-2.467-1.063 0-1.965.832-2.677 2.507-.722 1.674-1.082 4.912-1.082 9.725Z" fill="#000" stroke-width="0"></path><path d="m384.43 1320.591-2.367.291c-.23-1.534-.561-2.627-.992-3.288-.632-.943-1.394-1.424-2.276-1.424-1.384 0-2.486 1.083-3.329 3.258-.711 1.875-1.072 4.652-1.082 8.312.541-1.314 1.233-2.296 2.055-2.968.832-.672 1.704-1.012 2.627-1.012 1.534 0 2.867.882 4.01 2.636s1.714 4.11 1.714 7.058c0 1.985-.28 3.8-.862 5.424-.571 1.624-1.303 2.817-2.206 3.59-.902.771-1.894 1.162-2.977 1.162-1.955 0-3.56-1.113-4.823-3.338-1.273-2.226-1.904-5.935-1.904-11.129 0-5.764.651-9.875 1.945-12.311 1.293-2.456 2.957-3.68 4.972-3.68 1.464 0 2.697.632 3.69 1.905.992 1.264 1.594 3.108 1.804 5.515Zm-9.675 12.873c0 2.156.4 3.89 1.203 5.203.802 1.314 1.734 1.965 2.797 1.965.932 0 1.764-.621 2.496-1.854.742-1.233 1.103-2.928 1.103-5.093 0-2.116-.36-3.76-1.093-4.933-.722-1.163-1.614-1.744-2.667-1.744-1.022 0-1.925.581-2.686 1.744-.772 1.153-1.153 2.727-1.153 4.712Z" stroke-width="0"></path><path data-name="1 0" d="M388.51 1343.13v-4.162h2.697v4.171c0 1.614-.18 2.877-.562 3.8-.37.912-.922 1.624-1.644 2.105l-.652-1.564c.471-.33.832-.812 1.083-1.464.24-.641.371-1.604.401-2.887h-1.323Z" fill="#000" stroke-width="0"></path><path data-name="2 1" d="M394.836 1317.173v-3.5h12.472v2.848c-1.865 3.068-3.5 7.068-4.903 11.98-1.413 4.923-2.226 9.796-2.436 14.628h-2.436c.03-2.496.34-5.414.932-8.742s1.404-6.497 2.436-9.515c1.033-3.007 2.146-5.584 3.339-7.7h-9.404Z" fill="#000" stroke-width="0"></path><path data-name="3 2" d="M409.674 1328.411c0-5.002.531-8.792 1.594-11.369 1.073-2.576 2.637-3.87 4.712-3.87 1.834 0 3.288 1.043 4.34 3.139 1.284 2.526 1.926 6.556 1.926 12.1 0 4.973-.521 8.763-1.584 11.34-1.063 2.586-2.637 3.88-4.712 3.88-1.845 0-3.349-1.144-4.522-3.42-1.163-2.275-1.754-6.215-1.754-11.8Zm2.436-.01c0 4.853.37 8.101 1.103 9.745.722 1.655 1.664 2.487 2.807 2.487 1.073 0 1.975-.833 2.707-2.507.722-1.674 1.083-4.912 1.083-9.725 0-4.862-.361-8.11-1.093-9.765-.732-1.644-1.674-2.466-2.847-2.466-1.063 0-1.965.842-2.677 2.517-.722 1.664-1.083 4.902-1.083 9.714Z" fill="#000" stroke-width="0"></path><path d="M1177.895 1476.43v3.498h-12.803c-.03-1.423.311-3.017 1.023-4.782.712-1.754 2.025-3.84 3.92-6.246 2.226-2.797 3.68-4.962 4.361-6.486.692-1.534 1.033-2.958 1.033-4.281 0-1.524-.351-2.757-1.053-3.72-.702-.962-1.574-1.434-2.596-1.434-1.113 0-2.016.512-2.727 1.544-.702 1.033-1.063 2.517-1.063 4.452l-2.436-.371c.17-2.867.812-5.013 1.925-6.467 1.112-1.443 2.566-2.165 4.38-2.165 1.976 0 3.47.842 4.482 2.526 1.023 1.685 1.524 3.6 1.524 5.745 0 1.895-.391 3.71-1.193 5.454-.792 1.744-2.306 4.07-4.532 6.988-1.413 1.834-2.335 3.077-2.747 3.75a12.46 12.46 0 0 0-1.012 1.994h9.514Z" stroke-width="0"></path><path data-name="1 3" d="M1181.745 1479.928v-4.16h2.707v4.17c0 1.614-.19 2.878-.572 3.8-.37.912-.922 1.624-1.634 2.105l-.661-1.564c.48-.33.842-.812 1.082-1.463.24-.642.381-1.604.401-2.888h-1.323Z" fill="#000" stroke-width="0"></path><path data-name="2 4" d="M1202.91 1465.21c0-5.002.53-8.792 1.603-11.368 1.063-2.577 2.627-3.87 4.702-3.87 1.835 0 3.289 1.043 4.341 3.138 1.283 2.526 1.925 6.557 1.925 12.1 0 4.973-.521 8.763-1.584 11.34-1.053 2.586-2.627 3.88-4.712 3.88-1.845 0-3.338-1.143-4.521-3.42-1.163-2.275-1.755-6.215-1.755-11.8Zm2.435-.01c0 4.853.371 8.101 1.103 9.756.732 1.644 1.664 2.476 2.807 2.476 1.083 0 1.975-.832 2.707-2.507.722-1.674 1.093-4.912 1.093-9.724 0-4.863-.371-8.111-1.103-9.765-.732-1.644-1.674-2.457-2.837-2.457-1.073 0-1.965.833-2.687 2.507-.722 1.674-1.083 4.902-1.083 9.715Z" fill="#000" stroke-width="0"></path><path data-name="3 5" d="m1187.9 1472.098 2.507-.29c.19 1.894.632 3.308 1.304 4.23.681.923 1.473 1.394 2.366 1.394 1.132 0 2.095-.652 2.907-1.965.812-1.304 1.223-3.098 1.223-5.364 0-2.135-.4-3.78-1.183-4.952-.782-1.173-1.764-1.765-2.957-1.765-.712 0-1.384.26-2.016.772-.621.501-1.122 1.203-1.483 2.115l-2.236-.45 1.875-15.35h9.574v3.499h-7.7l-1.022 8.07c1.143-1.273 2.356-1.904 3.64-1.904 1.623 0 3.027.882 4.22 2.616 1.193 1.745 1.785 4.09 1.785 7.048 0 2.918-.592 5.424-1.795 7.5-1.183 2.085-2.797 3.128-4.802 3.128-1.675 0-3.078-.732-4.231-2.206-1.153-1.484-1.815-3.519-1.975-6.126Z" fill="#000" stroke-width="0"></path><g data-name="1931714526208" fill="#58595b" stroke-width="0"><path d="M1624.225 1085.892v73.648h-2.948v-73.648h2.948z"></path><path d="M1623.593 1086.895h-5.203c-20.613 0-37.355 6.416-48.935 17.966s-18.016 28.242-18.016 48.794v5.885h-.993v-5.885c0-20.823 6.537-37.756 18.317-49.496 11.76-11.74 28.744-18.267 49.627-18.267h5.203v1.003Zm-96.957 72.655v-28.192h2.957v28.192h-2.957zm98.18-8.32h4.2v8.31h-4.791v-8.31h.591Zm3.018 1.182h-2.426v5.945h2.426v-5.945Zm-105.389-1.182h4.19v8.31h-4.782v-8.31h.592Zm3.018 1.182h-2.427v5.945h2.427v-5.945Z"></path><path d="M1551.399 1153.164c0-6.015-2.446-11.47-6.386-15.42-3.95-3.94-9.404-6.386-15.42-6.386v.832c5.795 0 11.028 2.356 14.828 6.146a20.904 20.904 0 0 1 6.136 14.828h.842Z"></path></g><path d="M98.269 127.154v-8.391H85.576v-7.028l13.445-26.458h5.012v26.428h3.86v7.058h-3.86v8.391H98.27Zm0-15.45V97.47l-7.129 14.236h7.129Z" stroke-width="0"></path><path data-name="1 6" d="M115.904 104.607c-1.444-.832-2.537-1.965-3.269-3.399-.732-1.444-1.092-3.178-1.092-5.203 0-3.269.842-5.875 2.526-7.82 1.674-1.935 3.94-2.908 6.787-2.908 3.018 0 5.314 1.043 6.898 3.118 1.574 2.066 2.356 4.582 2.356 7.56 0 2.025-.381 3.77-1.153 5.263-.762 1.484-1.815 2.607-3.148 3.389 1.784.952 3.108 2.286 3.99 3.99.882 1.724 1.313 3.83 1.313 6.346 0 2.577-.43 4.853-1.293 6.818-.872 1.975-2.065 3.488-3.599 4.531-1.524 1.043-3.238 1.564-5.143 1.564-2.988 0-5.464-1.143-7.41-3.429s-2.917-5.363-2.917-9.233c0-2.507.442-4.662 1.334-6.457.892-1.804 2.155-3.178 3.82-4.13Zm1.253-8.02c0 1.613.34 2.857 1.032 3.719.702.872 1.585 1.303 2.637 1.303 1.083 0 1.975-.431 2.677-1.303.702-.862 1.053-2.106 1.053-3.72 0-1.564-.341-2.777-1.043-3.649-.692-.862-1.564-1.303-2.607-1.303-1.102 0-2.005.44-2.696 1.313-.702.882-1.053 2.095-1.053 3.64Zm-.592 17.845c0 2.246.441 3.97 1.294 5.183s1.884 1.825 3.088 1.825 2.205-.582 3.017-1.735c.822-1.163 1.223-2.897 1.223-5.213 0-1.995-.41-3.57-1.243-4.722-.832-1.163-1.855-1.745-3.078-1.745-1.203 0-2.215.582-3.047 1.755-.833 1.163-1.254 2.717-1.254 4.652Z" fill="#000" stroke-width="0"></path><path data-name="2 7" d="M134.872 93.388V85.98h20.312v5.815c-1.664 2.216-3.349 5.374-5.063 9.464-1.694 4.09-3.018 8.482-3.96 13.154-.932 4.682-1.394 8.923-1.394 12.742h-5.714c.14-5.925 1.032-11.84 2.677-17.745 1.644-5.915 3.86-11.249 6.657-16.02h-13.515Z" fill="#000" stroke-width="0"></path><path data-name="3 8" d="m170.844 116.076 5.765-.932c.16 1.965.641 3.469 1.463 4.511.833 1.043 1.805 1.554 2.918 1.554 1.223 0 2.246-.611 3.088-1.845.842-1.233 1.263-2.937 1.263-5.113 0-2.035-.411-3.629-1.223-4.782-.812-1.163-1.785-1.734-2.938-1.734-.762 0-1.674.2-2.717.601l.642-6.546c1.554.04 2.777-.422 3.69-1.364.882-.932 1.323-2.266 1.323-3.98 0-1.424-.31-2.557-.963-3.359-.641-.812-1.463-1.213-2.466-1.213s-1.875.461-2.607 1.404c-.741.942-1.173 2.346-1.313 4.19l-5.504-1.223c.571-3.84 1.684-6.616 3.349-8.36 1.644-1.735 3.73-2.608 6.256-2.608 2.817 0 5.062 1.113 6.737 3.329 1.664 2.216 2.496 4.662 2.496 7.349 0 1.814-.37 3.459-1.123 4.922-.752 1.454-1.875 2.727-3.358 3.83 1.724.511 3.138 1.634 4.22 3.389 1.083 1.744 1.635 3.93 1.635 6.556 0 3.81-1.033 6.968-3.088 9.465-2.056 2.496-4.502 3.74-7.349 3.74-2.717 0-5.023-1.043-6.908-3.159-1.874-2.105-2.977-4.973-3.288-8.622Z" fill="#000" stroke-width="0"></path><path data-name="4 9" d="M160.046 119.164h5.936v5.735c0 3.238-.351 5.654-1.033 7.238-.842 1.955-2.246 3.399-4.21 4.351l-1.164-3.298c1.163-.542 2.005-1.253 2.517-2.166.51-.902.782-2.195.812-3.87h-2.858v-7.99Z" fill="#000" stroke-width="0"></path><path data-name="5 10" d="M205.242 85.277c3.007 0 5.444 1.574 7.308 4.743 1.855 3.158 2.777 8.672 2.777 16.562 0 7.87-.922 13.384-2.777 16.542-1.864 3.158-4.29 4.732-7.278 4.732-3.018 0-5.444-1.564-7.309-4.692s-2.787-8.682-2.787-16.662c0-7.84.922-13.324 2.787-16.482 1.865-3.169 4.281-4.743 7.279-4.743Zm.01 6.657c-1.163 0-2.096.853-2.787 2.557-.702 1.694-1.043 5.735-1.043 12.09 0 6.367.34 10.387 1.043 12.092.691 1.694 1.624 2.536 2.787 2.536 1.183 0 2.115-.852 2.807-2.556.692-1.705 1.033-5.725 1.033-12.071 0-6.356-.341-10.397-1.033-12.091-.692-1.704-1.624-2.557-2.807-2.557Z" fill="#000" stroke-width="0"></path><g data-name="1930542111424" fill="#58595b" stroke-width="0"><path d="M1222.71 469.248h-5.204c-20.612 0-37.355-6.417-48.935-17.966-11.58-11.55-18.016-28.252-18.016-48.795v-5.885h-.992v5.885c0 20.823 6.537 37.757 18.307 49.497s28.753 18.256 49.636 18.256h5.204v-.992Z"></path><path d="M1220.464 396.602v73.638h2.957v-73.638h-2.957z"></path><path d="M1223.933 404.913h4.19v-8.31h-4.782v8.31h.592Zm3.017-1.183h-2.426v-5.945h2.426v5.945Zm-81.588 1.183h4.2v-8.31h-4.791v8.31h.591Zm3.018-1.183h-2.426v-5.945h2.426v5.945Z"></path></g><g data-name="1933164907808" fill="#58595b" stroke-width="0"><path d="M2004.867 896.017h-5.214c-20.602 0-37.345-6.426-48.925-17.975s-18.016-28.243-18.016-48.785v-5.885h-.992v5.885c0 20.813 6.537 37.756 18.307 49.496 11.77 11.73 28.753 18.257 49.626 18.257h5.214v-.993Z"></path><path d="M2002.62 823.372v73.638h2.948v-73.638h-2.947z"></path><path d="M2006.09 831.683h4.19v-8.311h-4.782v8.311h.592Zm3.007-1.183h-2.426v-5.955h2.426v5.955Zm-81.577 1.183h4.2v-8.311h-4.792v8.311h.591Zm3.017-1.183h-2.426v-5.955h2.426v5.955Z"></path></g><g data-name="1930516431072" fill="#58595b" stroke-width="0"><path d="M1953.766 1013.898v-5.213c0-20.613 6.417-37.345 17.966-48.925 11.55-11.59 28.252-18.026 48.795-18.026h5.885v-.992h-5.885c-20.824 0-37.757 6.546-49.497 18.316-11.74 11.76-18.256 28.744-18.256 49.627v5.213h.992Z"></path><path d="M2026.412 1011.643h-73.638v2.957h73.638v-2.957z"></path><path d="M2018.1 1015.111v4.201h8.312v-4.792h-8.312v.591Zm1.184 3.018v-2.426h5.945v2.426h-5.945Zm-1.184-81.579v4.192h8.312v-4.783h-8.312v.592Zm1.184 3.009v-2.417h5.945v2.417h-5.945Z"></path></g><g data-name="1930516429008" fill="#58595b" stroke-width="0"><path d="M1227.933 1407.082h-5.213c-20.603 0-37.346 6.427-48.925 17.966-11.58 11.55-18.016 28.252-18.016 48.795v5.885h-.993v-5.885c0-20.813 6.537-37.757 18.307-49.497 11.77-11.73 28.753-18.256 49.627-18.256h5.213v.992Z"></path><path d="M1225.687 1479.728v-73.638h2.948v73.638h-2.948z"></path><path d="M1229.156 1471.417h4.19v8.31h-4.781v-8.31h.591Zm3.008 1.183h-2.417v5.945h2.417v-5.945Zm-81.579-1.183h4.201v8.31h-4.792v-8.31h.591Zm3.018 1.183h-2.426v5.945h2.426v-5.945Z"></path></g><g data-name="1930516430592" fill="#58595b" stroke-width="0"><path d="M403.287 888.308v5.464c0 21.595 6.728 39.14 18.828 51.28 12.111 12.132 29.606 18.879 51.141 18.879h6.166v1.043h-6.166c-21.816 0-39.571-6.858-51.872-19.19s-19.14-30.126-19.14-52.012v-5.464h1.043Z"></path><path d="M479.422 890.293h-76.656v-2.607h76.656v2.607z"></path><path d="M472.093 887.235v-3.7h7.329v4.221h-7.329v-.521Zm1.043-2.667v2.146h5.243v-2.146h-5.243Zm-1.043 84.105v-3.7h7.329v4.221h-7.329v-.521Zm1.043-2.657v2.146h5.243v-2.146h-5.243Z"></path></g><g data-name="1930516474368" fill="#58595b" stroke-width="0"><path d="M445.214 1291.628v5.213c0 20.602-6.426 37.345-17.975 48.925s-28.243 18.016-48.785 18.016h-5.885v.992h5.885c20.813 0 37.756-6.536 49.496-18.306 11.73-11.77 18.257-28.754 18.257-49.627v-5.213h-.993Z"></path><path d="M372.569 1293.873h73.638v-2.947h-73.638v2.947z"></path><path d="M380.87 1290.404v-4.19h-8.301v4.782h8.301v-.592Zm-1.173-3.007v2.416h-5.955v-2.416h5.955Zm1.173 81.578v-4.2h-8.301v4.792h8.301v-.592Zm-1.173-3.018v2.426h-5.955v-2.426h5.955Z"></path></g><g data-name="1930516474608" fill="#58595b" stroke-width="0"><path d="M429.264 1424.918v-3.92c0-15.48 4.832-28.052 13.504-36.754s21.214-13.535 36.654-13.535h4.421v-.742h-4.421c-15.64 0-28.363 4.913-37.185 13.756-8.813 8.832-13.715 21.595-13.715 37.275v3.92h.742Z"></path><path d="M483.843 1423.223h-55.321v2.216h55.321v-2.216z"></path><path d="M477.597 1425.83v3.148h6.246v-3.589h-6.246v.441Zm.882 2.266v-1.825h4.472v1.825h-4.472Zm-.882-61.286v3.158h6.246v-3.6h-6.246v.442Zm.882 2.265v-1.814h4.472v1.814h-4.472Z"></path></g><path d="M1174.687 423.541v3.499h-12.803c-.03-1.424.311-3.028 1.023-4.792.712-1.755 2.025-3.84 3.92-6.236 2.226-2.797 3.67-4.963 4.361-6.497.682-1.534 1.033-2.957 1.033-4.27 0-1.525-.351-2.768-1.053-3.73-.702-.953-1.574-1.434-2.607-1.434-1.102 0-2.015.511-2.717 1.544-.711 1.043-1.062 2.527-1.062 4.451l-2.437-.37c.17-2.858.813-5.013 1.925-6.457 1.103-1.444 2.567-2.165 4.382-2.165 1.975 0 3.468.842 4.481 2.516 1.013 1.684 1.524 3.6 1.524 5.745 0 1.894-.401 3.72-1.193 5.454-.792 1.754-2.306 4.08-4.532 6.987-1.423 1.835-2.336 3.088-2.747 3.75a11.764 11.764 0 0 0-1.012 2.005h9.514Z" stroke-width="0"></path><path data-name="1 11" d="M1178.537 427.04v-4.17h2.697v4.17c0 1.624-.18 2.887-.562 3.8-.37.922-.922 1.624-1.644 2.115l-.652-1.574c.471-.32.832-.812 1.073-1.454.25-.651.38-1.614.411-2.887h-1.323Z" fill="#000" stroke-width="0"></path><path data-name="2 12" d="M1199.7 412.312c0-4.992.532-8.792 1.595-11.359 1.073-2.576 2.637-3.87 4.712-3.87 1.834 0 3.278 1.043 4.34 3.129 1.284 2.526 1.926 6.566 1.926 12.1 0 4.983-.522 8.763-1.584 11.35-1.063 2.586-2.637 3.87-4.722 3.87-1.835 0-3.339-1.134-4.512-3.41-1.163-2.275-1.754-6.215-1.754-11.81Zm2.437 0c0 4.843.371 8.101 1.093 9.745.732 1.655 1.674 2.477 2.817 2.477 1.073 0 1.975-.833 2.707-2.507.722-1.674 1.083-4.902 1.083-9.715 0-4.872-.361-8.12-1.093-9.765-.732-1.644-1.684-2.466-2.847-2.466-1.063 0-1.965.832-2.677 2.507-.722 1.674-1.083 4.912-1.083 9.724Z" fill="#000" stroke-width="0"></path><path data-name="3 13" d="M1197.204 423.541v3.499h-12.802c-.04-1.424.3-3.028 1.012-4.792.712-1.755 2.026-3.84 3.92-6.236 2.226-2.797 3.68-4.963 4.372-6.497.681-1.534 1.022-2.957 1.022-4.27 0-1.525-.35-2.768-1.053-3.73-.701-.953-1.564-1.434-2.596-1.434-1.113 0-2.015.511-2.717 1.544-.712 1.043-1.073 2.527-1.073 4.451l-2.436-.37c.17-2.858.812-5.013 1.925-6.457s2.576-2.165 4.391-2.165c1.975 0 3.459.842 4.482 2.516 1.012 1.684 1.513 3.6 1.513 5.745 0 1.894-.39 3.72-1.193 5.454-.792 1.754-2.306 4.08-4.521 6.987-1.424 1.835-2.346 3.088-2.757 3.75a12.472 12.472 0 0 0-1.003 2.005h9.515Z" fill="#000" stroke-width="0"></path><path d="m1943.32 923.578-2.377.29c-.22-1.543-.551-2.636-.992-3.288-.632-.952-1.384-1.424-2.276-1.424-1.373 0-2.486 1.083-3.318 3.259-.712 1.875-1.073 4.642-1.083 8.311.541-1.313 1.223-2.296 2.055-2.978.832-.671 1.704-1.012 2.627-1.012 1.534 0 2.867.882 4.01 2.637 1.143 1.764 1.714 4.12 1.714 7.058 0 1.995-.29 3.81-.862 5.423-.571 1.625-1.313 2.818-2.215 3.6-.893.772-1.885 1.153-2.968 1.153-1.955 0-3.559-1.103-4.832-3.339-1.263-2.216-1.895-5.925-1.895-11.118 0-5.765.652-9.876 1.945-12.322 1.293-2.446 2.957-3.67 4.973-3.67 1.463 0 2.696.632 3.689 1.906.983 1.263 1.584 3.098 1.805 5.514Zm-9.685 12.873c0 2.155.4 3.88 1.213 5.193.802 1.313 1.734 1.965 2.797 1.965.932 0 1.765-.612 2.496-1.855.732-1.233 1.103-2.927 1.103-5.083 0-2.125-.36-3.77-1.093-4.932s-1.614-1.755-2.676-1.755c-1.023 0-1.925.592-2.687 1.745-.762 1.163-1.153 2.727-1.153 4.722Z" stroke-width="0"></path><path data-name="1 14" d="m1953.556 938.275 2.496-.29c.19 1.894.632 3.308 1.303 4.24.682.923 1.474 1.384 2.376 1.384 1.123 0 2.086-.652 2.908-1.965.812-1.303 1.213-3.098 1.213-5.354 0-2.135-.391-3.79-1.173-4.962-.792-1.173-1.775-1.755-2.958-1.755-.721 0-1.393.25-2.015.762-.631.511-1.123 1.213-1.484 2.115l-2.245-.45 1.875-15.34h9.584v3.499h-7.71l-1.022 8.07c1.153-1.273 2.356-1.904 3.65-1.904 1.613 0 3.017.872 4.21 2.616s1.794 4.09 1.794 7.048c0 2.918-.601 5.414-1.794 7.5-1.193 2.085-2.797 3.117-4.812 3.117-1.665 0-3.078-.731-4.231-2.205-1.153-1.474-1.805-3.51-1.965-6.126Z" fill="#000" stroke-width="0"></path><path data-name="2 15" d="M1947.4 946.115v-4.17h2.697v4.17c0 1.624-.19 2.888-.562 3.8-.38.922-.922 1.624-1.644 2.115l-.662-1.574c.482-.32.842-.812 1.083-1.453.25-.652.381-1.614.401-2.888h-1.313Z" fill="#000" stroke-width="0"></path><path data-name="3 16" d="M1968.564 931.388c0-4.993.531-8.793 1.594-11.36 1.063-2.576 2.637-3.87 4.702-3.87 1.845 0 3.288 1.043 4.351 3.129 1.283 2.526 1.925 6.567 1.925 12.1 0 4.983-.531 8.763-1.584 11.35-1.063 2.586-2.637 3.87-4.722 3.87-1.835 0-3.339-1.133-4.512-3.41s-1.754-6.215-1.754-11.81Zm2.436 0c0 4.842.361 8.1 1.093 9.745.732 1.654 1.664 2.476 2.807 2.476 1.083 0 1.985-.832 2.717-2.507.722-1.674 1.083-4.902 1.083-9.714 0-4.873-.371-8.121-1.103-9.765-.722-1.644-1.674-2.467-2.837-2.467-1.073 0-1.965.833-2.687 2.507-.712 1.674-1.073 4.912-1.073 9.725Z" fill="#000" stroke-width="0"></path><g data-name="1930516477776" fill="#58595b" stroke-width="0"><path d="M484.796 991.762h6.185c24.483 0 44.364 7.63 58.119 21.344s21.404 33.556 21.404 57.958v6.988h1.183v-6.988c0-24.733-7.77-44.854-21.755-58.79-13.976-13.945-34.147-21.695-58.95-21.695h-6.187v1.183Z"></path><path d="M487.041 1078.052V991.17h-2.947v86.882h2.947z"></path><path d="M483.582 1069.741h-4.2v8.311h4.792v-8.311h-.592Zm-3.017 1.183h2.426v5.945h-2.426v-5.945Zm95.313-1.183h-4.19v8.311h4.782v-8.311h-.592Zm-3.008 1.183h2.417v5.945h-2.417v-5.945Z"></path></g><path fill="#58595b" stroke-width="0" d="M479.422 1084.72V969.193h-34.558v115.525h34.558z"></path><g data-name="1930516423200" stroke-width="0"><path fill="#e3e4e5" d="M8.84 2.526h13.665v69.467H8.84z"></path><path d="M284.484 1845.09H61.344v36.033h223.14v-36.032Zm1.414-1.403v38.84H59.93v-38.84h225.967Z" fill="#231f20"></path><path fill="#e3e4e5" d="M8.84 2.526h1.895v69.467H8.84z"></path><path d="M61.324 1864.52h223.16v3.79H61.324v-3.79Zm-1.413-1.413v6.616h225.987v-6.616H59.91Z" fill="#231f20"></path><path fill="#e3e4e5" d="M8.84 2.526h1.895v1.905H8.84z"></path><path d="M61.324 1864.52h3.8v3.79h-3.8v-3.79Zm-1.413-1.413v6.616h6.627v-6.616H59.91Z" fill="#231f20"></path><path fill="#e3e4e5" d="M8.84 2.526h1.895v1.905H8.84z"></path><path d="M280.664 1864.52h3.8v3.79h-3.8v-3.79Zm-1.403-1.413v6.616h6.617v-6.616h-6.617Z" fill="#231f20"></path><path fill="#e3e4e5" d="M8.84 2.526h1.895v1.905H8.84z"></path><path d="M94.389 1864.52h3.8v3.79h-3.8v-3.79Zm-1.414-1.413v6.616h6.627v-6.616h-6.627Z" fill="#231f20"></path><path fill="#e3e4e5" d="M8.84 2.526h13.665v69.467H8.84z"></path><path d="M835.15 1845.09H612v36.033h223.15v-36.032Zm1.404-1.403v38.84H610.587v-38.84h225.967Z" fill="#231f20"></path><path fill="#e3e4e5" d="M8.84 2.526h1.895v69.467H8.84z"></path><path d="M611.98 1864.52h223.17v3.79H611.98v-3.79Zm-1.403-1.413v6.616h225.977v-6.616H610.577Z" fill="#231f20"></path><path fill="#e3e4e5" d="M8.84 2.526h1.895v1.905H8.84z"></path><path d="M611.98 1864.52h3.8v3.79h-3.8v-3.79Zm-1.403-1.413v6.616h6.617v-6.616h-6.617Z" fill="#231f20"></path><path fill="#e3e4e5" d="M8.84 2.526h1.895v1.905H8.84z"></path><path d="M831.32 1864.52h3.81v3.79h-3.81v-3.79Zm-1.403-1.413v6.616h6.627v-6.616h-6.627Z" fill="#231f20"></path><path fill="#e3e4e5" d="M8.84 2.526h1.895v1.905H8.84z"></path><path d="M645.045 1864.52h3.81v3.79h-3.81v-3.79Zm-1.404-1.413v6.616h6.627v-6.616h-6.627Z" fill="#231f20"></path><path fill="#e3e4e5" d="M8.84 2.526h13.665v69.467H8.84z"></path><path d="M1386.989 1845.09h-223.15v36.033h223.15v-36.032Zm1.404-1.403v38.84h-225.967v-38.84h225.967Z" fill="#231f20"></path><path fill="#e3e4e5" d="M8.84 2.526h1.895v69.467H8.84z"></path><path d="M1163.82 1864.52h223.17v3.79h-223.17v-3.79Zm-1.404-1.413v6.616h225.977v-6.616h-225.977Z" fill="#231f20"></path><path fill="#e3e4e5" d="M8.84 2.526h1.895v1.905H8.84z"></path><path d="M1163.82 1864.52h3.799v3.79h-3.8v-3.79Zm-1.404-1.413v6.616h6.617v-6.616h-6.617Z" fill="#231f20"></path><path fill="#e3e4e5" d="M8.84 2.526h1.895v1.905H8.84z"></path><path d="M1383.17 1864.52h3.799v3.79h-3.8v-3.79Zm-1.414-1.413v6.616h6.627v-6.616h-6.627Z" fill="#231f20"></path><path fill="#e3e4e5" d="M8.84 2.526h1.895v1.905H8.84z"></path><path d="M1196.884 1864.52h3.81v3.79h-3.81v-3.79Zm-1.404-1.413v6.616h6.627v-6.616h-6.627Z" fill="#231f20"></path><path fill="#e3e4e5" d="M8.84 2.526h13.665v69.467H8.84z"></path><path d="M1937.645 1845.09h-223.14v36.033h223.14v-36.032Zm1.404-1.403v38.84h-225.957v-38.84h225.957Z" fill="#231f20"></path><path fill="#e3e4e5" d="M8.84 2.526h1.895v69.467H8.84z"></path><path d="M1714.485 1864.52h223.16v3.79h-223.16v-3.79Zm-1.413-1.413v6.616h225.987v-6.616h-225.987Z" fill="#231f20"></path><path fill="#e3e4e5" d="M8.84 2.526h1.895v1.905H8.84z"></path><path d="M1714.485 1864.52h3.8v3.79h-3.8v-3.79Zm-1.413-1.413v6.616h6.627v-6.616h-6.627Z" fill="#231f20"></path><path fill="#e3e4e5" d="M8.84 2.526h1.895v1.905H8.84z"></path><path d="M1933.825 1864.52h3.8v3.79h-3.8v-3.79Zm-1.413-1.413v6.616h6.626v-6.616h-6.626Z" fill="#231f20"></path><path fill="#e3e4e5" d="M8.84 2.526h1.895v1.905H8.84z"></path><path d="M1747.55 1864.52h3.8v3.79h-3.8v-3.79Zm-1.414-1.413v6.616h6.627v-6.616h-6.627Z" fill="#231f20"></path><path fill="#e3e4e5" d="M8.84 2.526h13.665v69.467H8.84z"></path><path d="M560.83 1845.09H337.68v36.033h223.15v-36.032Zm1.403-1.403v38.84H336.266v-38.84h225.967Z" fill="#231f20"></path><path fill="#e3e4e5" d="M8.84 2.526h1.895v69.467H8.84z"></path><path d="M337.66 1864.52h223.17v3.79H337.66v-3.79Zm-1.404-1.413v6.616h225.987v-6.616H336.256Z" fill="#231f20"></path><path fill="#e3e4e5" d="M8.84 2.526h1.895v1.905H8.84z"></path><path d="M337.66 1864.52h3.81v3.79h-3.81v-3.79Zm-1.404-1.413v6.616h6.627v-6.616h-6.627Z" fill="#231f20"></path><path fill="#e3e4e5" d="M8.84 2.526h1.895v1.905H8.84z"></path><path d="M557.01 1864.52h3.8v3.79h-3.8v-3.79Zm-1.414-1.413v6.616h6.627v-6.616h-6.627Z" fill="#231f20"></path><path fill="#e3e4e5" d="M8.84 2.526h1.895v1.905H8.84z"></path><path d="M370.734 1864.52h3.8v3.79h-3.8v-3.79Zm-1.413-1.413v6.616h6.627v-6.616h-6.627Z" fill="#231f20"></path><path fill="#e3e4e5" d="M8.84 2.526h13.665v69.467H8.84z"></path><path d="M1111.486 1845.09h-223.14v36.033h223.14v-36.032Zm1.413-1.403v38.84H886.932v-38.84H1112.9Z" fill="#231f20"></path><path fill="#e3e4e5" d="M8.84 2.526h1.895v69.467H8.84z"></path><path d="M888.326 1864.52h223.16v3.79h-223.16v-3.79Zm-1.414-1.413v6.616H1112.9v-6.616H886.912Z" fill="#231f20"></path><path fill="#e3e4e5" d="M8.84 2.526h1.895v1.905H8.84z"></path><path d="M888.326 1864.52h3.8v3.79h-3.8v-3.79Zm-1.414-1.413v6.616h6.627v-6.616h-6.627Z" fill="#231f20"></path><path fill="#e3e4e5" d="M8.84 2.526h1.895v1.905H8.84z"></path><path d="M1107.666 1864.52h3.8v3.79h-3.8v-3.79Zm-1.414-1.413v6.616h6.627v-6.616h-6.627Z" fill="#231f20"></path><path fill="#e3e4e5" d="M8.84 2.526h1.895v1.905H8.84z"></path><path d="M921.39 1864.52h3.8v3.79h-3.8v-3.79Zm-1.413-1.413v6.616h6.627v-6.616h-6.627Z" fill="#231f20"></path><path fill="#e3e4e5" d="M8.84 2.526h13.665v69.467H8.84z"></path><path d="M1663.325 1845.09h-223.14v36.033h223.14v-36.032Zm1.413-1.403v38.84h-225.967v-38.84h225.967Z" fill="#231f20"></path><path fill="#e3e4e5" d="M8.84 2.526h1.895v69.467H8.84z"></path><path d="M1440.165 1864.52h223.16v3.79h-223.16v-3.79Zm-1.414-1.413v6.616h225.987v-6.616h-225.987Z" fill="#231f20"></path><path fill="#e3e4e5" d="M8.84 2.526h1.895v1.905H8.84z"></path><path d="M1440.165 1864.52h3.8v3.79h-3.8v-3.79Zm-1.414-1.413v6.616h6.627v-6.616h-6.627Z" fill="#231f20"></path><path fill="#e3e4e5" d="M8.84 2.526h1.895v1.905H8.84z"></path><path d="M1659.505 1864.52h3.8v3.79h-3.8v-3.79Zm-1.414-1.413v6.616h6.627v-6.616h-6.627Z" fill="#231f20"></path><path fill="#e3e4e5" d="M8.84 2.526h1.895v1.905H8.84z"></path><path d="M1473.23 1864.52h3.799v3.79h-3.8v-3.79Zm-1.414-1.413v6.616h6.627v-6.616h-6.627Z" fill="#231f20"></path><path fill="#e3e4e5" d="M8.84 2.526h13.665v69.467H8.84z"></path><path d="M2213.98 1845.09h-223.14v36.033h223.14v-36.032Zm1.414-1.403v38.84h-225.967v-38.84h225.967Z" fill="#231f20"></path><path fill="#e3e4e5" d="M8.84 2.526h1.895v69.467H8.84z"></path><path d="M1990.82 1864.52h223.16v3.79h-223.16v-3.79Zm-1.413-1.413v6.616h225.987v-6.616h-225.987Z" fill="#231f20"></path><path fill="#e3e4e5" d="M8.84 2.526h1.895v1.905H8.84z"></path><path d="M1990.82 1864.52h3.8v3.79h-3.8v-3.79Zm-1.413-1.413v6.616h6.627v-6.616h-6.627Z" fill="#231f20"></path><path fill="#e3e4e5" d="M8.84 2.526h1.895v1.905H8.84z"></path><path d="M2210.16 1864.52h3.8v3.79h-3.8v-3.79Zm-1.403-1.413v6.616h6.617v-6.616h-6.617Z" fill="#231f20"></path><path fill="#e3e4e5" d="M8.84 2.526h1.895v1.905H8.84z"></path><path d="M2023.885 1864.52h3.8v3.79h-3.8v-3.79Zm-1.413-1.413v6.616h6.626v-6.616h-6.626Z" fill="#231f20"></path></g><g data-name="1895071530864" stroke-width="0"><path fill="#e3e4e5" d="M8.84 2.526h13.665v69.467H8.84z"></path><path d="M1990.82 40.553h223.14V4.531h-223.14v36.022Zm-1.403 1.414V3.117h225.957v38.85h-225.957Z" fill="#231f20"></path><path fill="#e3e4e5" d="M8.84 2.526h1.895v69.467H8.84z"></path><path d="M2213.98 21.124h-223.16v-3.78h223.16v3.78Zm1.414 1.413V15.93h-225.987v6.607h225.987Z" fill="#231f20"></path><path fill="#e3e4e5" d="M8.84 2.526h1.895v1.905H8.84z"></path><path d="M2213.98 21.124h-3.8v-3.78h3.8v3.78Zm1.414 1.413V15.93h-6.627v6.607h6.627Z" fill="#231f20"></path><path fill="#e3e4e5" d="M8.84 2.526h1.895v1.905H8.84z"></path><path d="M1994.64 21.124h-3.8v-3.78h3.8v3.78Zm1.414 1.413V15.93h-6.627v6.607h6.627Z" fill="#231f20"></path><path fill="#e3e4e5" d="M8.84 2.526h1.895v1.905H8.84z"></path><path d="M2180.916 21.124h-3.8v-3.78h3.8v3.78Zm1.414 1.413V15.93h-6.627v6.607h6.627Z" fill="#231f20"></path><path fill="#e3e4e5" d="M8.84 2.526h13.665v69.467H8.84z"></path><path d="M1440.165 40.553h223.14V4.531h-223.14v36.022Zm-1.414 1.414V3.117h225.967v38.85h-225.967Z" fill="#231f20"></path><path fill="#e3e4e5" d="M8.84 2.526h1.895v69.467H8.84z"></path><path d="M1663.325 21.124h-223.16v-3.78h223.16v3.78Zm1.413 1.413V15.93h-225.987v6.607h225.987Z" fill="#231f20"></path><path fill="#e3e4e5" d="M8.84 2.526h1.895v1.905H8.84z"></path><path d="M1663.325 21.124h-3.8v-3.78h3.8v3.78Zm1.413 1.413V15.93h-6.627v6.607h6.627Z" fill="#231f20"></path><path fill="#e3e4e5" d="M8.84 2.526h1.895v1.905H8.84z"></path><path d="M1443.985 21.124h-3.8v-3.78h3.8v3.78Zm1.413 1.413V15.93h-6.627v6.607h6.627Z" fill="#231f20"></path><path fill="#e3e4e5" d="M8.84 2.526h1.895v1.905H8.84z"></path><path d="M1630.26 21.124h-3.8v-3.78h3.8v3.78Zm1.414 1.413V15.93h-6.627v6.607h6.627Z" fill="#231f20"></path><path fill="#e3e4e5" d="M8.84 2.526h13.665v69.467H8.84z"></path><path d="M888.326 40.553h223.14V4.531h-223.14v36.022Zm-1.414 1.414V3.117h225.967v38.85H886.912Z" fill="#231f20"></path><path fill="#e3e4e5" d="M8.84 2.526h1.895v69.467H8.84z"></path><path d="M1111.486 21.124h-223.16v-3.78h223.16v3.78Zm1.413 1.413V15.93H886.912v6.607H1112.9Z" fill="#231f20"></path><path fill="#e3e4e5" d="M8.84 2.526h1.895v1.905H8.84z"></path><path d="M1111.486 21.124h-3.8v-3.78h3.8v3.78Zm1.413 1.413V15.93h-6.627v6.607h6.627Z" fill="#231f20"></path><path fill="#e3e4e5" d="M8.84 2.526h1.895v1.905H8.84z"></path><path d="M892.146 21.124h-3.8v-3.78h3.8v3.78Zm1.413 1.413V15.93h-6.627v6.607h6.627Z" fill="#231f20"></path><path fill="#e3e4e5" d="M8.84 2.526h1.895v1.905H8.84z"></path><path d="M1078.421 21.124h-3.8v-3.78h3.8v3.78Zm1.414 1.413V15.93h-6.627v6.607h6.627Z" fill="#231f20"></path><path fill="#e3e4e5" d="M8.84 2.526h13.665v69.467H8.84z"></path><path d="M337.67 40.553h223.14V4.531H337.67v36.022Zm-1.414 1.414V3.117h225.967v38.85H336.256Z" fill="#231f20"></path><path fill="#e3e4e5" d="M8.84 2.526h1.895v69.467H8.84z"></path><path d="M560.83 21.124H337.66v-3.78h223.17v3.78Zm1.413 1.413V15.93H336.256v6.607h225.987Z" fill="#231f20"></path><path fill="#e3e4e5" d="M8.84 2.526h1.895v1.905H8.84z"></path><path d="M560.83 21.124h-3.8v-3.78h3.8v3.78Zm1.413 1.413V15.93h-6.627v6.607h6.627Z" fill="#231f20"></path><path fill="#e3e4e5" d="M8.84 2.526h1.895v1.905H8.84z"></path><path d="M341.49 21.124h-3.81v-3.78h3.81v3.78Zm1.403 1.413V15.93h-6.627v6.607h6.627Z" fill="#231f20"></path><path fill="#e3e4e5" d="M8.84 2.526h1.895v1.905H8.84z"></path><path d="M527.765 21.124h-3.8v-3.78h3.8v3.78Zm1.404 1.413V15.93h-6.617v6.607h6.617Z" fill="#231f20"></path><path fill="#e3e4e5" d="M8.84 2.526h13.665v69.467H8.84z"></path><path d="M1714.485 40.553h223.14V4.531h-223.14v36.022Zm-1.413 1.414V3.117h225.967v38.85h-225.967Z" fill="#231f20"></path><path fill="#e3e4e5" d="M8.84 2.526h1.895v69.467H8.84z"></path><path d="M1937.645 21.124h-223.16v-3.78h223.16v3.78Zm1.414 1.413V15.93h-225.987v6.607h225.987Z" fill="#231f20"></path><path fill="#e3e4e5" d="M8.84 2.526h1.895v1.905H8.84z"></path><path d="M1937.645 21.124h-3.8v-3.78h3.8v3.78Zm1.414 1.413V15.93h-6.627v6.607h6.627Z" fill="#231f20"></path><path fill="#e3e4e5" d="M8.84 2.526h1.895v1.905H8.84z"></path><path d="M1718.305 21.124h-3.8v-3.78h3.8v3.78Zm1.404 1.413V15.93h-6.617v6.607h6.617Z" fill="#231f20"></path><path fill="#e3e4e5" d="M8.84 2.526h1.895v1.905H8.84z"></path><path d="M1904.58 21.124h-3.8v-3.78h3.8v3.78Zm1.414 1.413V15.93h-6.627v6.607h6.627Z" fill="#231f20"></path><path fill="#e3e4e5" d="M8.84 2.526h13.665v69.467H8.84z"></path><path d="M1163.82 40.553h223.149V4.531h-223.15v36.022Zm-1.404 1.414V3.117h225.967v38.85h-225.967Z" fill="#231f20"></path><path fill="#e3e4e5" d="M8.84 2.526h1.895v69.467H8.84z"></path><path d="M1386.989 21.124h-223.17v-3.78h223.17v3.78Zm1.404 1.413V15.93h-225.977v6.607h225.977Z" fill="#231f20"></path><path fill="#e3e4e5" d="M8.84 2.526h1.895v1.905H8.84z"></path><path d="M1386.989 21.124h-3.8v-3.78h3.8v3.78Zm1.404 1.413V15.93h-6.617v6.607h6.617Z" fill="#231f20"></path><path fill="#e3e4e5" d="M8.84 2.526h1.895v1.905H8.84z"></path><path d="M1167.649 21.124h-3.81v-3.78h3.81v3.78Zm1.404 1.413V15.93h-6.627v6.607h6.627Z" fill="#231f20"></path><path fill="#e3e4e5" d="M8.84 2.526h1.895v1.905H8.84z"></path><path d="M1353.925 21.124h-3.81v-3.78h3.81v3.78Zm1.403 1.413V15.93h-6.627v6.607h6.627Z" fill="#231f20"></path><path fill="#e3e4e5" d="M8.84 2.526h13.665v69.467H8.84z"></path><path d="M611.98 40.553h223.15V4.531H611.98v36.022Zm-1.403 1.414V3.117h225.967v38.85H610.577Z" fill="#231f20"></path><path fill="#e3e4e5" d="M8.84 2.526h1.895v69.467H8.84z"></path><path d="M835.15 21.124H611.98v-3.78h223.17v3.78Zm1.404 1.413V15.93H610.577v6.607h225.977Z" fill="#231f20"></path><path fill="#e3e4e5" d="M8.84 2.526h1.895v1.905H8.84z"></path><path d="M835.15 21.124h-3.8v-3.78h3.8v3.78Zm1.404 1.413V15.93h-6.617v6.607h6.617Z" fill="#231f20"></path><path fill="#e3e4e5" d="M8.84 2.526h1.895v1.905H8.84z"></path><path d="M615.8 21.124H612v-3.78h3.8v3.78Zm1.414 1.413V15.93h-6.627v6.607h6.627Z" fill="#231f20"></path><path fill="#e3e4e5" d="M8.84 2.526h1.895v1.905H8.84z"></path><path d="M802.086 21.124h-3.81v-3.78h3.81v3.78Zm1.403 1.413V15.93h-6.627v6.607h6.627Z" fill="#231f20"></path><path fill="#e3e4e5" d="M8.84 2.526h13.665v69.467H8.84z"></path><path d="M61.324 40.553h223.14V4.531H61.324v36.022Zm-1.403 1.414V3.117h225.957v38.85H59.92Z" fill="#231f20"></path><path fill="#e3e4e5" d="M8.84 2.526h1.895v69.467H8.84z"></path><path d="M284.484 21.124H61.324v-3.78h223.16v3.78Zm1.414 1.413V15.93H59.91v6.607h225.987Z" fill="#231f20"></path><path fill="#e3e4e5" d="M8.84 2.526h1.895v1.905H8.84z"></path><path d="M284.484 21.124h-3.8v-3.78h3.8v3.78Zm1.414 1.413V15.93h-6.627v6.607h6.627Z" fill="#231f20"></path><path fill="#e3e4e5" d="M8.84 2.526h1.895v1.905H8.84z"></path><path d="M65.144 21.124h-3.8v-3.78h3.8v3.78Zm1.414 1.413V15.93H59.93v6.607h6.627Z" fill="#231f20"></path><path fill="#e3e4e5" d="M8.84 2.526h1.895v1.905H8.84z"></path><path d="M251.42 21.124h-3.8v-3.78h3.8v3.78Zm1.413 1.413V15.93h-6.627v6.607h6.627Z" fill="#231f20"></path></g><g data-name="1933128199568" stroke-width="0"><path fill="#e3e4e5" d="M9.542 56.103h37.436v208.933H9.542z"></path><path d="M46.276 265.076V56.103H10.254v208.973h36.022Zm1.413 1.414H8.84V54.69h38.85v211.8Z" fill="#231f20"></path><path fill="#e3e4e5" d="M22.355 55.381h5.203v211.11h-5.203z"></path><path d="M26.846 56.083v209.004h-3.78V56.083h3.78Zm1.414-1.404h-6.607V266.49h6.607V54.68Z" fill="#231f20"></path><path fill="#e3e4e5" d="M22.355 55.381h5.203v5.213h-5.203z"></path><path d="M26.846 56.083v3.81h-3.78v-3.81h3.78Zm1.414-1.404h-6.607v6.627h6.607V54.68Z" fill="#231f20"></path><path fill="#e3e4e5" d="M22.355 260.555h5.203v5.213h-5.203z"></path><path d="M26.846 261.257v3.8h-3.78v-3.8h3.78Zm1.414-1.404h-6.607v6.627h6.607v-6.627Z" fill="#231f20"></path><path fill="#e3e4e5" d="M22.355 88.445h5.203v5.214h-5.203z"></path><path d="M26.846 89.157v3.8h-3.78v-3.8h3.78Zm1.414-1.413h-6.607v6.627h6.607v-6.627Z" fill="#231f20"></path><path fill="#e3e4e5" d="M9.542 315.916h37.436V524.85H9.542z"></path><path d="M46.276 524.89V315.916H10.254V524.89h36.022Zm1.413 1.403H8.84v-211.79h38.85v211.79Z" fill="#231f20"></path><path fill="#e3e4e5" d="M22.355 315.184h5.203v211.11h-5.203z"></path><path d="M26.846 315.896V524.89h-3.78V315.896h3.78Zm1.414-1.413h-6.607v211.82h6.607v-211.82Z" fill="#231f20"></path><path fill="#e3e4e5" d="M22.355 315.194h5.203v5.214h-5.203z"></path><path d="M26.846 315.896v3.8h-3.78v-3.8h3.78Zm1.414-1.413h-6.607v6.627h6.607v-6.627Z" fill="#231f20"></path><path fill="#e3e4e5" d="M22.355 520.358h5.203v5.214h-5.203z"></path><path d="M26.846 521.07v3.8h-3.78v-3.8h3.78Zm1.414-1.414h-6.607v6.627h6.607v-6.627Z" fill="#231f20"></path><path fill="#e3e4e5" d="M22.355 348.259h5.203v5.213h-5.203z"></path><path d="M26.846 348.96v3.8h-3.78v-3.8h3.78Zm1.414-1.413h-6.607v6.627h6.607v-6.627Z" fill="#231f20"></path><path fill="#e3e4e5" d="M9.542 1098.103h37.436v208.934H9.542z"></path><path d="M46.276 1307.077v-208.974H10.254v208.974h36.022Zm1.413 1.414H8.84V1096.69h38.85v211.8Z" fill="#231f20"></path><path fill="#e3e4e5" d="M22.355 1097.382h5.203v211.109h-5.203z"></path><path d="M26.846 1098.083v208.994h-3.78v-208.994h3.78Zm1.414-1.413h-6.607v211.82h6.607v-211.82Z" fill="#231f20"></path><path fill="#e3e4e5" d="M22.355 1097.382h5.203v5.213h-5.203z"></path><path d="M26.846 1098.083v3.8h-3.78v-3.8h3.78Zm1.414-1.413h-6.607v6.627h6.607v-6.627Z" fill="#231f20"></path><path fill="#e3e4e5" d="M22.355 1302.555h5.203v5.214h-5.203z"></path><path d="M26.846 1303.257v3.8h-3.78v-3.8h3.78Zm1.414-1.413h-6.607v6.627h6.607v-6.627Z" fill="#231f20"></path><path fill="#e3e4e5" d="M22.355 1130.446h5.203v5.213h-5.203z"></path><path d="M26.846 1131.148v3.8h-3.78v-3.8h3.78Zm1.414-1.404h-6.607v6.617h6.607v-6.617Z" fill="#231f20"></path><path fill="#e3e4e5" d="M9.542 579.259h37.436v208.933H9.542z"></path><path d="M46.276 788.232V579.26H10.254v208.973h36.022Zm1.413 1.414H8.84V577.845h38.85v211.8Z" fill="#231f20"></path><path fill="#e3e4e5" d="M22.355 578.537h5.203v211.109h-5.203z"></path><path d="M26.846 579.239v209.003h-3.78V579.24h3.78Zm1.414-1.404h-6.607v211.81h6.607v-211.81Z" fill="#231f20"></path><path fill="#e3e4e5" d="M22.355 578.537h5.203v5.213h-5.203z"></path><path d="M26.846 579.239v3.81h-3.78v-3.81h3.78Zm1.414-1.404h-6.607v6.627h6.607v-6.627Z" fill="#231f20"></path><path fill="#e3e4e5" d="M22.355 783.71h5.203v5.214h-5.203z"></path><path d="M26.846 784.412v3.8h-3.78v-3.8h3.78Zm1.414-1.403h-6.607v6.627h6.607v-6.627Z" fill="#231f20"></path><path fill="#e3e4e5" d="M22.355 611.601h5.203v5.214h-5.203z"></path><path d="M26.846 612.313v3.8h-3.78v-3.8h3.78Zm1.414-1.414h-6.607v6.627h6.607V610.9Z" fill="#231f20"></path><path fill="#e3e4e5" d="M9.542 1361.456h37.436v208.933H9.542z"></path><path d="M46.276 1570.43v-208.974H10.254v208.973h36.022Zm1.413 1.403H8.84v-211.79h38.85v211.79Z" fill="#231f20"></path><path fill="#e3e4e5" d="M22.355 1360.724h5.203v211.109h-5.203z"></path><path d="M26.846 1361.436v208.993h-3.78v-208.993h3.78Zm1.414-1.414h-6.607v211.82h6.607v-211.82Z" fill="#231f20"></path><path fill="#e3e4e5" d="M22.355 1360.734h5.203v5.213h-5.203z"></path><path d="M26.846 1361.436v3.8h-3.78v-3.8h3.78Zm1.414-1.414h-6.607v6.627h6.607v-6.627Z" fill="#231f20"></path><path fill="#e3e4e5" d="M22.355 1565.898h5.203v5.213h-5.203z"></path><path d="M26.846 1566.61v3.8h-3.78v-3.8h3.78Zm1.414-1.414h-6.607v6.627h6.607v-6.627Z" fill="#231f20"></path><path fill="#e3e4e5" d="M22.355 1393.798h5.203v5.214h-5.203z"></path><path d="M26.846 1394.5v3.8h-3.78v-3.8h3.78Zm1.414-1.413h-6.607v6.626h6.607v-6.626Z" fill="#231f20"></path><path fill="#e3e4e5" d="M9.542 839.072h37.436v208.933H9.542z"></path><path d="M46.276 1048.046V839.072H10.254v208.974h36.022Zm1.413 1.403H8.84V837.66h38.85v211.79Z" fill="#231f20"></path><path fill="#e3e4e5" d="M22.355 838.34h5.203v211.11h-5.203z"></path><path d="M26.846 839.052v208.994h-3.78V839.052h3.78Zm1.414-1.414h-6.607v211.821h6.607V837.64Z" fill="#231f20"></path><path fill="#e3e4e5" d="M22.355 838.35h5.203v5.214h-5.203z"></path><path d="M26.846 839.052v3.8h-3.78v-3.8h3.78Zm1.414-1.414h-6.607v6.627h6.607v-6.627Z" fill="#231f20"></path><path fill="#e3e4e5" d="M22.355 1043.514h5.203v5.213h-5.203z"></path><path d="M26.846 1044.226v3.8h-3.78v-3.8h3.78Zm1.414-1.414h-6.607v6.627h6.607v-6.627Z" fill="#231f20"></path><path fill="#e3e4e5" d="M22.355 871.415h5.203v5.213h-5.203z"></path><path d="M26.846 872.116v3.8h-3.78v-3.8h3.78Zm1.414-1.413h-6.607v6.627h6.607v-6.627Z" fill="#231f20"></path><path fill="#e3e4e5" d="M9.542 1621.26h37.436v208.933H9.542z"></path><path d="M46.276 1830.233v-208.974H10.254v208.974h36.022Zm1.413 1.413H8.84v-211.8h38.85v211.8Z" fill="#231f20"></path><path fill="#e3e4e5" d="M22.355 1620.537h5.203v211.11h-5.203z"></path><path d="M26.846 1621.239v208.994h-3.78v-208.994h3.78Zm1.414-1.414h-6.607v211.821h6.607v-211.82Z" fill="#231f20"></path><path fill="#e3e4e5" d="M22.355 1620.537h5.203v5.214h-5.203z"></path><path d="M26.846 1621.239v3.8h-3.78v-3.8h3.78Zm1.414-1.414h-6.607v6.627h6.607v-6.627Z" fill="#231f20"></path><path fill="#e3e4e5" d="M22.355 1825.711h5.203v5.213h-5.203z"></path><path d="M26.846 1826.413v3.8h-3.78v-3.8h3.78Zm1.414-1.414h-6.607v6.627h6.607V1825Z" fill="#231f20"></path><path fill="#e3e4e5" d="M22.355 1653.602h5.203v5.213h-5.203z"></path><path d="M26.846 1654.304v3.8h-3.78v-3.8h3.78Zm1.414-1.404h-6.607v6.617h6.607v-6.617Z" fill="#231f20"></path></g><g data-name="1933137241312" stroke-width="0"><path fill="#e3e4e5" d="M2229.59 56.283h37.436v249.949h-37.436z"></path><path d="M2230.292 57.105v249.127h36.032V57.105h-36.032Zm-1.403-1.413h38.839v251.953h-38.84V55.692Z" fill="#231f20"></path><path fill="#e3e4e5" d="M2249.01 57.105h5.203v249.848h-5.203z"></path><path d="M2249.722 306.252V57.105h3.79v249.147h-3.79Zm-1.414 1.413h6.617V55.692h-6.617v251.973Z" fill="#231f20"></path><path fill="#e3e4e5" d="M2249.01 301.74h5.203v5.213h-5.203z"></path><path d="M2249.722 306.252v-3.8h3.79v3.8h-3.79Zm-1.414 1.413h6.617v-6.627h-6.617v6.627Z" fill="#231f20"></path><path fill="#e3e4e5" d="M2249.01 56.414h5.203v5.213h-5.203z"></path><path d="M2249.722 60.925v-3.8h3.79v3.8h-3.79Zm-1.414 1.414h6.617v-6.627h-6.617v6.627Z" fill="#231f20"></path><path fill="#e3e4e5" d="M2249.01 268.676h5.203v5.213h-5.203z"></path><path d="M2249.722 273.187v-3.8h3.79v3.8h-3.79Zm-1.414 1.404h6.617v-6.617h-6.617v6.617Z" fill="#231f20"></path><path fill="#e3e4e5" d="M2229.59 664.877h37.436v249.948h-37.436z"></path><path d="M2230.292 665.7v249.125h36.032V665.7h-36.032Zm-1.403-1.414h38.839v251.953h-38.84V664.286Z" fill="#231f20"></path><path fill="#e3e4e5" d="M2249.01 665.7h5.203v249.847h-5.203z"></path><path d="M2249.722 914.845V665.7h3.79v249.146h-3.79Zm-1.414 1.404h6.617V664.286h-6.617v251.963Z" fill="#231f20"></path><path fill="#e3e4e5" d="M2249.01 910.334h5.203v5.213h-5.203z"></path><path d="M2249.722 914.845v-3.8h3.79v3.8h-3.79Zm-1.414 1.404h6.617v-6.617h-6.617v6.617Z" fill="#231f20"></path><path fill="#e3e4e5" d="M2249.01 665.008h5.203v5.213h-5.203z"></path><path d="M2249.722 669.52v-3.8h3.79v3.8h-3.79Zm-1.414 1.413h6.617v-6.627h-6.617v6.627Z" fill="#231f20"></path><path fill="#e3e4e5" d="M2249.01 877.27h5.203v5.213h-5.203z"></path><path d="M2249.722 881.781v-3.81h3.79v3.81h-3.79Zm-1.414 1.404h6.617v-6.627h-6.617v6.627Z" fill="#231f20"></path><path fill="#e3e4e5" d="M2229.59 1273.471h37.436v249.948h-37.436z"></path><path d="M2230.292 1274.293v249.126h36.032v-249.126h-36.032Zm-1.403-1.413h38.839v251.953h-38.84v-251.954Z" fill="#231f20"></path><path fill="#e3e4e5" d="M2249.01 1274.293h5.203v249.848h-5.203z"></path><path d="M2249.722 1523.44v-249.147h3.79v249.146h-3.79Zm-1.414 1.403h6.617V1272.88h-6.617v251.963Z" fill="#231f20"></path><path fill="#e3e4e5" d="M2249.01 1518.928h5.203v5.213h-5.203z"></path><path d="M2249.722 1523.44v-3.8h3.79v3.8h-3.79Zm-1.414 1.403h6.617v-6.617h-6.617v6.617Z" fill="#231f20"></path><path fill="#e3e4e5" d="M2249.01 1273.601h5.203v5.214h-5.203z"></path><path d="M2249.722 1278.113v-3.8h3.79v3.8h-3.79Zm-1.414 1.414h6.617v-6.627h-6.617v6.627Z" fill="#231f20"></path><path fill="#e3e4e5" d="M2249.01 1485.863h5.203v5.214h-5.203z"></path><path d="M2249.722 1490.375v-3.81h3.79v3.81h-3.79Zm-1.414 1.404h6.617v-6.627h-6.617v6.627Z" fill="#231f20"></path><path fill="#e3e4e5" d="M2229.59 360.971h37.436V610.92h-37.436z"></path><path d="M2230.292 361.783V610.91h36.032V361.783h-36.032Zm-1.403-1.403h38.839v251.943h-38.84V360.38Z" fill="#231f20"></path><path fill="#e3e4e5" d="M2249.01 361.783h5.203v249.848h-5.203z"></path><path d="M2249.722 610.93V361.782h3.79V610.93h-3.79Zm-1.414 1.413h6.617V360.38h-6.617v251.963Z" fill="#231f20"></path><path fill="#e3e4e5" d="M2249.01 606.428h5.203v5.213h-5.203z"></path><path d="M2249.722 610.93v-3.8h3.79v3.8h-3.79Zm-1.414 1.413h6.617v-6.627h-6.617v6.627Z" fill="#231f20"></path><path fill="#e3e4e5" d="M2249.01 361.102h5.203v5.213h-5.203z"></path><path d="M2249.722 365.613v-3.81h3.79v3.81h-3.79Zm-1.414 1.404h6.617v-6.627h-6.617v6.627Z" fill="#231f20"></path><path fill="#e3e4e5" d="M2249.01 573.354h5.203v5.213h-5.203z"></path><path d="M2249.722 577.865v-3.8h3.79v3.8h-3.79Zm-1.414 1.414h6.617v-6.627h-6.617v6.627Z" fill="#231f20"></path><path fill="#e3e4e5" d="M2229.59 969.565h37.436v249.948h-37.436z"></path><path d="M2230.292 970.377v249.126h36.032V970.377h-36.032Zm-1.403-1.403h38.839v251.943h-38.84V968.974Z" fill="#231f20"></path><path fill="#e3e4e5" d="M2249.01 970.377h5.203v249.848h-5.203z"></path><path d="M2249.722 1219.523V970.377h3.79v249.146h-3.79Zm-1.414 1.414h6.617V968.974h-6.617v251.963Z" fill="#231f20"></path><path fill="#e3e4e5" d="M2249.01 1215.022h5.203v5.213h-5.203z"></path><path d="M2249.722 1219.523v-3.8h3.79v3.8h-3.79Zm-1.414 1.414h6.617v-6.627h-6.617v6.627Z" fill="#231f20"></path><path fill="#e3e4e5" d="M2249.01 969.696h5.203v5.213h-5.203z"></path><path d="M2249.722 974.207v-3.81h3.79v3.81h-3.79Zm-1.414 1.404h6.617v-6.627h-6.617v6.627Z" fill="#231f20"></path><path fill="#e3e4e5" d="M2249.01 1181.948h5.203v5.213h-5.203z"></path><path d="M2249.722 1186.459v-3.8h3.79v3.8h-3.79Zm-1.414 1.414h6.617v-6.627h-6.617v6.627Z" fill="#231f20"></path><path fill="#e3e4e5" d="M2229.59 1578.16h37.436v249.947h-37.436z"></path><path d="M2230.292 1578.971v249.126h36.032v-249.126h-36.032Zm-1.403-1.403h38.839v251.943h-38.84v-251.943Z" fill="#231f20"></path><path fill="#e3e4e5" d="M2249.01 1578.971h5.203v249.848h-5.203z"></path><path d="M2249.722 1828.117v-249.146h3.79v249.146h-3.79Zm-1.414 1.414h6.617v-251.963h-6.617v251.963Z" fill="#231f20"></path><path fill="#e3e4e5" d="M2249.01 1823.606h5.203v5.213h-5.203z"></path><path d="M2249.722 1828.117v-3.8h3.79v3.8h-3.79Zm-1.414 1.414h6.617v-6.627h-6.617v6.627Z" fill="#231f20"></path><path fill="#e3e4e5" d="M2249.01 1578.29h5.203v5.213h-5.203z"></path><path d="M2249.722 1582.79v-3.799h3.79v3.8h-3.79Zm-1.414 1.415h6.617v-6.627h-6.617v6.627Z" fill="#231f20"></path><path fill="#e3e4e5" d="M2249.01 1790.541h5.203v5.214h-5.203z"></path><path d="M2249.722 1795.053v-3.8h3.79v3.8h-3.79Zm-1.414 1.413h6.617v-6.626h-6.617v6.626Z" fill="#231f20"></path></g><path fill="#58595b" stroke-width="0" d="M477.597 1358.057h107.615v8.311H477.597v-8.31z"></path><g data-name="1933117898048" fill="#010101" stroke-width="0"><path d="M546.303 1454.323c.22 0 .641.03.772.04h24.322v27.16l-24.443.01c-.01 0-.43.03-.651.03-7.269 0-13.194-6.106-13.194-13.615 0-7.52 5.925-13.625 13.194-13.625Zm0-1.654c-8.201 0-14.848 6.837-14.848 15.279 0 8.431 6.647 15.269 14.848 15.269.27 0 .772-.03.772-.03h25.976v-30.478h-25.976s-.502-.04-.772-.04Z"></path><path d="M575.246 1457.712v20.462h-1.704v-20.462h1.704Zm1.665-1.655h-5.023v23.77h5.023v-23.77Z"></path></g><g data-name="1933040235264" fill="#58595b" stroke-width="0"><path d="M429.595 1495.418v-3.89c0-15.39 4.802-27.891 13.424-36.533 8.622-8.652 21.084-13.455 36.423-13.455h4.401v-.742h-4.401c-15.54 0-28.192 4.883-36.954 13.675-8.763 8.783-13.635 21.465-13.635 37.055v3.89h.742Z"></path><path d="M483.843 1493.734h-54.99v2.205h54.99v-2.205z"></path><path d="M477.637 1496.32v3.138h6.206v-3.569h-6.206v.431Zm.883 2.256v-1.805h4.44v1.805h-4.44Zm-.883-60.906v3.128h6.206v-3.569h-6.206v.441Zm.883 2.246v-1.805h4.44v1.805h-4.44Z"></path></g><g data-name="1933040257872" fill="#58595b" stroke-width="0"><path d="M484.866 834.811h6.206c24.582 0 44.543-7.66 58.359-21.435 13.805-13.775 21.484-33.686 21.484-58.188v-7.018h1.183v7.018c0 24.833-7.8 45.035-21.835 59.03s-34.288 21.776-59.191 21.776h-6.206v-1.183Z"></path><path d="M487.121 748.17v87.233h-2.967V748.17h2.967z"></path><path d="M483.643 756.511h-4.221v-8.341h4.812v8.341h-.591Zm-3.028-1.183h2.436v-5.975h-2.436v5.975Zm95.705 1.183h-4.222v-8.341h4.813v8.341h-.592Zm-3.029-1.183h2.427v-5.975h-2.427v5.975Z"></path></g><path fill="#58595b" stroke-width="0" d="M1144.77 404.913h-11.459v-8.31h11.46v8.31zm719.538 318.794h161.231v8.312h-161.231v-8.312zm162.104 99.665h-16.132v8.311h16.132v-8.311zm-397.395-99.675h67.593v17.716h-67.593v-17.716zm-157.562 0h50.398v17.716h-50.398v-17.716z"></path></g></g></svg>