<svg version="1.1" xmlns="http://www.w3.org/2000/svg" xmlns:xlink="http://www.w3.org/1999/xlink" viewBox="0 912.684 1748.896 793.232"><path fill="none" stroke-width="0" d="M10.5 952.124h297.306v-39.44l334.379 1.552-1.323 142.375h628.606l.225-9.407h250.884l1.051 29.007 44.761 9.282 33.598 46.398v38.998h-79.41l.112 12.277 39.58.122v83.229l188.627-.621v433.795L0 1705.916l10.5-753.792z"></path><path fill="none" stroke-width="0" d="M46.859 967.902h278.228v-37.161h305.287v130.023l890.153-2.98.05 143.216 31.261-1.182v74.934h186.92v398.112l-1691.899 5.2V967.902z"></path><clipPath id="a"><path fill="none" stroke-width="0" d="M10.5 952.124h297.306v-39.44l334.379 1.552-1.323 142.375h628.606l.225-9.407h250.884l1.051 29.007 44.761 9.282 33.598 46.398v38.998h-79.41l.112 12.277 39.58.122v83.229l188.627-.621v433.795L0 1705.916l10.5-753.792z"></path></clipPath><g data-name="Layer 1" clip-path="url(#a)"><g data-name="Слой_1"><path fill="none" stroke="#231f20" stroke-miterlimit="22.967" stroke-width=".521" d="m882.184 881.939 46.213 98.115m-45.852-98.626v98.626m23.763-46.754v46.754m-47.505-98.626v98.626m-23.753-98.626v98.626m-23.753-98.626v98.626m-23.752-98.626v98.626m-23.753-98.626v98.626m-23.742-98.626v98.626m0-48.507h142.495m-16.6 17.311 16.6-17.31-16.6-17.312"></path><g data-name="1933193801776"><path fill="#dcdddf" stroke-width="0" d="M1305.292 916.28h181.665v114.425h-181.665z"></path><g data-name="ифт"><g data-name="lift 3" fill="#1d1d1b" stroke-width="0"><path d="M1408.977 931.577h-59.296c-5.58 0-10.128 4.549-10.128 10.139v63.563c0 5.59 4.548 10.128 10.128 10.128h59.296c5.58 0 10.129-4.538 10.129-10.128v-63.563c0-5.59-4.549-10.139-10.129-10.139Zm5.74 73.702a5.748 5.748 0 0 1-5.74 5.75l-59.296.01c-3.165 0-5.75-2.584-5.75-5.75v-63.573a5.757 5.757 0 0 1 5.75-5.75h59.296a5.748 5.748 0 0 1 5.74 5.75v63.563Zm32.99-12.262-5.52 5.52v-17.892c0-1.613-1.313-2.915-2.925-2.915s-2.926 1.302-2.926 2.915v17.892l-5.52-5.52a2.926 2.926 0 0 0-4.137 0 2.933 2.933 0 0 0 0 4.128l9.347 9.347c.751.75 1.713 1.162 2.694 1.282.17.03.351.05.542.05.18 0 .36-.02.53-.05.982-.12 1.944-.531 2.705-1.282l9.347-9.347a2.933 2.933 0 0 0 0-4.128 2.926 2.926 0 0 0-4.137 0Zm-16.89-38.989 5.54-5.54v19.024c0 1.623 1.302 2.925 2.915 2.925s2.925-1.302 2.925-2.925v-19.004l5.51 5.52a2.912 2.912 0 0 0 2.064.851c.751 0 1.492-.28 2.063-.851a2.926 2.926 0 0 0 0-4.138l-9.346-9.337a4.524 4.524 0 0 0-2.425-1.262c-.26-.07-.52-.12-.791-.12s-.531.05-.782.12a4.467 4.467 0 0 0-2.464 1.262l-9.347 9.347c-1.142 1.132-1.142 2.986 0 4.128s2.986 1.142 4.128 0h.01Z"></path><path d="M1392.498 951.984c3.436 0 6.231-2.785 6.231-6.221s-2.795-6.231-6.231-6.231-6.221 2.795-6.221 6.23 2.785 6.222 6.221 6.222Zm.01 28.411c-2.334 0-5.94-.491-7.614-.732l-1.823 24.244a3.31 3.31 0 0 0 3.056 3.546h.04a3.3 3.3 0 0 0 3.546-3.035l1.493-17.952c.04-.601.33-1.443 1.342-1.463 1.052-.02 1.343.872 1.383 1.453l1.482 17.952a3.315 3.315 0 0 0 3.547 3.045l.03-.01c1.813-.13 3.186-1.733 3.045-3.546l-1.843-24.264c-1.753.26-5.5.752-7.684.752v.01Z"></path><path d="m1406.092 970.066-.901-9.046c-.14-1.823-.982-3.827-3.547-5.109-1.963-.992-8.735-.842-8.735-.842s-7.474-.17-9.588.842c-2.544 1.212-3.325 3.286-3.466 5.11l-.901 9.045-.902 11.591a3.307 3.307 0 0 0 3.046 3.546h.03a3.13 3.13 0 0 0 1.723-.34l1.272-17.902a.838.838 0 0 1 .892-.772.83.83 0 0 1 .771.882l-.771 10.92c1.562.23 5.229.73 7.493.73 2.134 0 6-.52 7.624-.76l-.702-10.9c-.03-.461.311-.852.772-.882s.861.32.891.772l1.163 17.932c.5.23 1.061.35 1.663.3h.03a3.297 3.297 0 0 0 3.035-3.536l-.902-11.59.01.01Zm-55.589 20.176h20.356v15.99h-20.356zm0-18.592h20.356v15.988h-20.356zm0-10.86h20.356v7.994h-20.356z"></path></g></g></g><path d="M30.18 5.29h2321.064v1686.99H10.754V5.29H30.18Zm2282.214 38.839H49.604v1609.31h2262.79V44.13Z" fill="#58595b" stroke-width="0"></path><g data-name="1933187336672" fill="#58595b" stroke-width="0"><path d="M1716.989 1064.916V930.015h23.622v27.369h150.33V808.577h-150.33v31.567h-23.622v-75.986h23.622v20.797h150.33V652.688h-150.33v21.238h-23.622v-44.86h197.564v435.85h-23.613v-83.91h-150.329v83.91h-23.622zm-196.412-44.84v44.87h-251.08V876.5h227.458v-9.187h23.622v58.645h-23.622v-25.846H1293.11v141.213h203.845v-21.248h23.622zm-902.015-40.012h558.25v23.612h-558.25v-23.612z"></path><path d="M1166.213 1003.676V876.5h23.612v127.177h-23.612zm-547.651 61.24V870.89h23.623v194.027h-23.623zm.441 241.362v-122.99h23.623v122.99h-23.623zm0 348.394v-101.993h23.623v101.993h-23.623zm547.2-348.394v-122.99h23.622v122.99h-23.622zm0 348.394v-101.993h23.622v101.993h-23.622zm559.081-213.762v-122.991h23.612v122.99h-23.612zm0 213.762v-101.993h23.612v101.993h-23.612zm-54.127-607.468h67.6v17.712h-67.6v-17.712zm60.027 136.084h183.369V1201h-183.369v-17.712z"></path><path d="M1731.184 1552.68v-368.21h17.712v368.21h-17.712zm-170.916-369.392h-47.234V1201h47.234v-17.712z"></path><path d="M1520.577 1201v-34.061h-17.712v34.06h17.712zm21.98 64.896h188.627v17.712h-188.627v-17.712zm-509.432-63.394h141.373v17.712h-141.373v-17.712z"></path><path d="M1560.268 1270.184v-70.366h-17.711v70.366h17.711zm-509.432-63.404v-20.116h-17.711v20.116h17.711zm462.759-159.576h50.4v17.712h-50.4v-17.712zM318.976 947.255h306.97v-34.571h-306.97v34.572z"></path><path d="M521.519 947.255v-72.69h-34.572v72.69h34.572zm-179.151 39.431v-74.002h-34.562v74.002h34.562zm-273.74 0v-85.804H34.056v85.804h34.572z"></path><path d="M46.859 986.686h295.509v-34.562H46.859v34.562zm1473.718 94.579v-34.06h-17.712v34.06h17.712z"></path></g><path fill="#58595b" stroke-width="0" d="M1740.611 1056.611h161.64v8.305h-161.64v-8.305z"></path><path fill="#58595b" stroke-width="0" d="M1740.711 1223.22h36.706v8.304h-36.706v-8.305z" data-name="1933187321168"></path><path fill="#58595b" stroke-width="0" d="M594.259 1230.843v-47.555h-8.315v47.555h8.315zm62.391 156.62v-36.695h8.306v36.695h-8.305zm-29.342-.951v-100.19h-8.305v100.19h8.305z"></path><path fill="#58595b" stroke-width="0" d="M642.626 1183.288H517.17v8.305h125.455v-8.305zm-19.396 167.48h41.726v8.315H623.23v-8.315zm418.21-131.496v66.82h-8.315v-66.82h8.314zm-421.104 3.266h-34.392v8.305h34.392v-8.305zm601.426 9.257v-48.507h8.305v48.507h-8.305z"></path><path fill="#58595b" stroke-width="0" d="M1033.125 1183.288h357.61v8.305h-357.61v-8.305zm156.7 40.202h36.706v8.305h-36.706v-8.305zm81.365 153.254h119.545v8.305H1271.19v-8.305zm-237.224-98.957h139.81v8.305h-139.81v-8.305zm520.602-94.499h186.143v8.305h-186.143v-8.305zM517.171 1379.159h147.785v8.304H517.17v-8.304zm8.315-195.871v107.432h-8.315v-107.432h8.315z"></path><path fill="#58595b" stroke-width="0" d="M1297.438 1183.288v200.218h-8.305v-200.218h8.305zm-122.92 56.462v145.3h-8.315v-145.3h8.315zm216.217-56.462v103.275h-8.305v-103.275h8.305zm0 186.634v13.003h-8.305v-13.003h8.305z"></path><path fill="#58595b" stroke-width="0" d="M1187.832 1376.744h-19.215v8.305h19.215v-8.305zm-662.346-2.664v13.383h-8.315v-13.383h8.315z"></path><path fill="#58595b" stroke-width="0" d="M640.862 1056.611H1270.8v8.305H640.862v-8.305z" data-name="1930516474416"></path><g data-name="1933107789184" fill="#010101" stroke-width="0"><path d="M1245.615 1231.604c0-.22.03-.64.04-.77v-24.324h27.169v24.443c0 .01.04.431.04.651 0 7.274-6.111 13.194-13.625 13.194s-13.624-5.92-13.624-13.194Zm-1.653 0c0 8.205 6.842 14.857 15.277 14.857s15.278-6.652 15.278-14.857c0-.27-.04-.77-.04-.77v-25.977h-30.475v25.976s-.04.501-.04.771Z"></path><path d="M1249.011 1202.653h20.457v1.713h-20.457v-1.713Zm-1.653-1.653v5.019h23.763v-5.02h-23.763Z"></path></g><g data-name="1933107731056" fill="#010101" stroke-width="0"><path d="M541.555 1224.251c0-.22.04-.63.04-.761v-24.324h27.168l.01 24.444c0 .01.03.431.03.641 0 7.283-6.11 13.204-13.624 13.204s-13.624-5.92-13.624-13.204Zm-1.653 0c0 8.205 6.842 14.857 15.277 14.857s15.277-6.652 15.277-14.857c0-.26-.04-.761-.04-.761v-25.986h-30.474v25.986s-.04.5-.04.761Z"></path><path d="M544.95 1195.31h20.457v1.713h-20.456v-1.713Zm-1.652-1.653v5.019h23.772v-5.02h-23.772Z"></path></g><g data-name="1931000751152"><path d="M1251.546 1279.961v40.763h36.295v-40.763h-36.295Zm-1.283-1.292h38.87v43.337h-38.87v-43.337Z" fill="#231f20" stroke-width="0"></path><path d="M1255.733 1285.571a1.74 1.74 0 0 0-1.733 1.733v25.957c0 .951.781 1.723 1.733 1.723h13.825c.952 0 1.723-.772 1.723-1.723v-25.957c0-.951-.771-1.733-1.723-1.733h-13.825Zm0-1.282h13.825a3.018 3.018 0 0 1 3.015 3.015v25.957a3.018 3.018 0 0 1-3.015 3.015l-13.825-.01a3.012 3.012 0 0 1-3.015-3.015v-25.947a3.012 3.012 0 0 1 3.015-3.015Zm18.864 13.073c-.571 0-1.042-.46-1.042-1.032 0-.58.47-1.042 1.042-1.042.58 0 1.042.461 1.042 1.042 0 .571-.461 1.032-1.042 1.032Zm0 7.914c-.571 0-1.042-.47-1.042-1.041s.47-1.042 1.042-1.042a1.041 1.041 0 1 1 0 2.083Z" fill="#231f20" stroke-width="0"></path><path fill="none" stroke="#231f20" stroke-linecap="round" stroke-miterlimit="22.967" stroke-width=".471" d="M1275.358 1300.277h-7.052"></path><path d="M1284.755 1282.105v2.574h3.086v-2.574h-3.086Zm-1.282-1.282h5.65v5.139h-5.65v-5.14Zm1.282 35.062v2.575h3.086v-2.575h-3.086Zm-1.282-1.292h5.65v5.15h-5.65v-5.15Z" fill="#010101" stroke-width="0"></path><path fill="none" stroke="#010101" stroke-linecap="round" stroke-linejoin="round" stroke-width=".471" d="M1286.298 1285.802v28.791"></path></g><g data-name="1894802706784"><path d="M581.416 1296.43v-40.762h36.305v40.763h-36.305Zm-1.282 1.293h38.87v-43.338h-38.87v43.338Z" fill="#231f20" stroke-width="0"></path><path d="M585.603 1290.82a1.732 1.732 0 0 1-1.723-1.733v-25.956c0-.952.772-1.723 1.723-1.723h13.825c.952 0 1.733.771 1.733 1.723v25.956a1.74 1.74 0 0 1-1.733 1.733h-13.825Zm0 1.283h13.825a3.018 3.018 0 0 0 3.016-3.016v-25.956a3.018 3.018 0 0 0-3.016-3.016l-13.825.01a3.004 3.004 0 0 0-3.005 3.016v25.946a3.004 3.004 0 0 0 3.005 3.016Zm18.864-13.073c-.57 0-1.042.46-1.042 1.031 0 .581.471 1.042 1.042 1.042.581 0 1.042-.46 1.042-1.042 0-.57-.46-1.032-1.042-1.032Zm0-7.915c-.57 0-1.042.471-1.042 1.042a1.041 1.041 0 1 0 1.042-1.042Z" fill="#231f20" stroke-width="0"></path><path fill="none" stroke="#231f20" stroke-linecap="round" stroke-miterlimit="22.967" stroke-width=".471" d="M605.239 1276.114h-7.063"></path><path d="M614.625 1294.287v-2.575h3.086v2.575h-3.086Zm-1.282 1.282h5.65v-5.14h-5.65v5.14Zm1.282-35.063v-2.574h3.086v2.574h-3.086Zm-1.282 1.293h5.65v-5.15h-5.65v5.15Z" fill="#010101" stroke-width="0"></path><path fill="none" stroke="#010101" stroke-linecap="round" stroke-linejoin="round" stroke-width=".471" d="M616.168 1290.59v-28.79"></path></g><g data-name="1894802700064" stroke-width="0"><path d="M1311.212 1204.987h42.757c2.705 0 5.16 1.102 6.943 2.885s2.885 4.238 2.885 6.943v43.487a9.774 9.774 0 0 1-2.885 6.943c-1.784 1.783-4.238 2.895-6.943 2.895h-42.757a9.818 9.818 0 0 1-6.942-2.895 9.774 9.774 0 0 1-2.885-6.943v-43.487c0-2.705 1.102-5.16 2.885-6.943s4.248-2.885 6.942-2.885Zm42.757-.591h-42.757c-2.865 0-5.47 1.172-7.363 3.055a10.424 10.424 0 0 0-3.055 7.364v43.487c0 2.866 1.172 5.48 3.055 7.364a10.424 10.424 0 0 0 7.363 3.055h42.757c2.865 0 5.47-1.172 7.363-3.055a10.406 10.406 0 0 0 3.056-7.364v-43.487c0-2.866-1.172-5.47-3.056-7.364a10.424 10.424 0 0 0-7.363-3.055Z"></path><path d="M1312.695 1207.19h39.791a9.11 9.11 0 0 1 6.452 2.686 9.105 9.105 0 0 1 2.685 6.441v40.483c0 2.504-1.032 4.788-2.685 6.441s-3.937 2.685-6.452 2.685h-39.79c-2.505 0-4.79-1.032-6.443-2.685s-2.684-3.937-2.684-6.441v-40.483c0-2.504 1.031-4.788 2.684-6.441s3.938-2.685 6.442-2.685Zm39.791-.59h-39.79a9.66 9.66 0 0 0-6.863 2.855 9.678 9.678 0 0 0-2.855 6.862v40.483a9.679 9.679 0 0 0 2.855 6.862 9.66 9.66 0 0 0 6.862 2.855h39.791a9.701 9.701 0 0 0 6.873-2.855c1.753-1.763 2.855-4.188 2.855-6.862v-40.483c0-2.675-1.102-5.099-2.855-6.862a9.701 9.701 0 0 0-6.873-2.855Z"></path><path d="M1298.62 1202.182h67.942v68.753h-67.942v-68.753Zm68.533-1.182h-69.715v71.117h70.306V1201h-.591Z"></path><path d="M1310.902 1212.36a2.2 2.2 0 0 1 1.583.661c.4.401.66.962.66 1.583s-.26 1.182-.66 1.583a2.24 2.24 0 0 1-3.827-1.583 2.24 2.24 0 0 1 2.244-2.244Zm2.003.24a2.832 2.832 0 0 0-4.838 2.004c0 .782.32 1.493.831 2.004a2.832 2.832 0 0 0 4.839-2.004c0-.781-.32-1.493-.832-2.003Z"></path></g><path d="M854.805 1465.062h-2.364v-23.331c-.55.811-1.282 1.653-2.204 2.494-.921.852-1.763 1.493-2.534 1.924v-3.497a15.953 15.953 0 0 0 3.456-3.506c1.002-1.372 1.713-2.725 2.114-4.037h1.532v29.953Z" stroke-width="0"></path><path data-name="1 4" d="M868.5 1465.062v-7.122h-8.355v-3.376l8.746-19.325h1.983v19.325h2.635v3.376h-2.635v7.122H868.5Zm0-10.498v-13.444l-6.01 13.444h6.01Z" fill="#000" stroke-width="0"></path><path data-name="2 5" d="m876.274 1458.15 2.264-.29c.37 3.135 1.442 4.708 3.216 4.708.791 0 1.512-.34 2.163-1.032.652-.681 1.193-1.903 1.643-3.667.451-1.743.682-3.796.682-6.13v-.742c-.501 1.212-1.162 2.174-1.994 2.885-.831.701-1.693 1.062-2.554 1.062-1.573 0-2.936-.871-4.078-2.614s-1.703-4.128-1.703-7.153c0-3.116.591-5.57 1.773-7.373 1.182-1.794 2.615-2.695 4.308-2.695 1.202 0 2.314.5 3.366 1.513 1.032.991 1.833 2.474 2.404 4.427.561 1.954.852 4.769.852 8.446 0 4.097-.31 7.273-.922 9.537-.6 2.274-1.432 3.927-2.474 4.969-1.042 1.042-2.214 1.562-3.506 1.562-1.463 0-2.695-.63-3.677-1.903-.992-1.272-1.573-3.105-1.763-5.51Zm9.707-13.184c0-2.123-.37-3.796-1.122-5.019s-1.613-1.833-2.594-1.833c-1.022 0-1.924.651-2.725 1.954-.792 1.302-1.192 3.035-1.192 5.209 0 1.953.37 3.516 1.142 4.668.76 1.162 1.673 1.743 2.724 1.743s1.944-.58 2.675-1.743c.731-1.172 1.092-2.825 1.092-4.979Z" fill="#000" stroke-width="0"></path><path data-name="3 6" d="m898.423 1457.148 2.365-.5c.5 3.946 1.743 5.92 3.746 5.92 1.082 0 2.014-.581 2.805-1.743s1.193-2.665 1.193-4.518c0-1.733-.371-3.136-1.092-4.188-.732-1.062-1.613-1.593-2.675-1.593-.451 0-1.002.14-1.673.411l.27-3.206.371.04c1.172 0 2.114-.45 2.845-1.362.731-.911 1.092-2.124 1.092-3.656 0-1.393-.3-2.515-.912-3.366s-1.362-1.273-2.234-1.273c-.911 0-1.683.441-2.304 1.333-.62.901-1.031 2.264-1.202 4.077l-2.364-.661c.3-2.555.972-4.488 2.024-5.79 1.052-1.313 2.324-1.964 3.806-1.964 1.563 0 2.896.731 3.988 2.194 1.092 1.462 1.632 3.306 1.632 5.54 0 1.352-.23 2.554-.69 3.596-.472 1.042-1.113 1.853-1.954 2.454.771.27 1.412.722 1.913 1.343s.912 1.452 1.222 2.494c.31 1.052.471 2.214.471 3.506 0 2.735-.641 4.98-1.913 6.722-1.283 1.744-2.805 2.605-4.578 2.605-1.653 0-3.046-.761-4.198-2.284-1.142-1.523-1.793-3.556-1.954-6.131Z" fill="#000" stroke-width="0"></path><path data-name="4 7" d="M892.272 1465.062v-4.167h2.695v4.178c0 1.622-.19 2.885-.56 3.796-.381.922-.932 1.623-1.644 2.114l-.66-1.573c.48-.32.84-.811 1.081-1.452.25-.651.38-1.613.4-2.895h-1.311Z" fill="#000" stroke-width="0"></path><path data-name="5" d="M913.43 1450.346c0-4.999.531-8.796 1.593-11.37 1.072-2.575 2.635-3.867 4.709-3.867 1.843 0 3.286 1.042 4.347 3.135 1.283 2.525 1.924 6.562 1.924 12.102 0 4.979-.521 8.766-1.583 11.34-1.062 2.585-2.635 3.877-4.718 3.877-1.834 0-3.336-1.132-4.508-3.416-1.173-2.274-1.764-6.211-1.764-11.801Zm2.435-.01c0 4.849.37 8.104 1.102 9.747.73 1.653 1.663 2.485 2.805 2.485 1.082 0 1.983-.832 2.715-2.505.72-1.673 1.081-4.908 1.081-9.727 0-4.869-.37-8.114-1.092-9.757-.73-1.653-1.683-2.465-2.845-2.465-1.072 0-1.963.832-2.684 2.505s-1.082 4.908-1.082 9.717Z" fill="#000" stroke-width="0"></path><path d="M526.959 1346.62v3.497h-12.803c-.03-1.423.31-3.026 1.021-4.789.712-1.753 2.024-3.837 3.917-6.241 2.224-2.795 3.677-4.959 4.368-6.492.681-1.532 1.032-2.955 1.032-4.277 0-1.523-.35-2.765-1.052-3.717-.711-.962-1.573-1.442-2.604-1.442-1.112 0-2.014.51-2.725 1.552-.702 1.032-1.062 2.515-1.062 4.448l-2.435-.37c.17-2.866.812-5.02 1.924-6.462 1.112-1.442 2.564-2.164 4.388-2.164 1.973 0 3.466.842 4.478 2.515 1.012 1.693 1.523 3.596 1.523 5.74 0 1.903-.401 3.717-1.193 5.46-.791 1.753-2.314 4.077-4.528 6.992-1.422 1.833-2.344 3.076-2.755 3.747-.41.661-.751 1.332-1.011 2.003h9.517Z" stroke-width="0"></path><path data-name="1 11" d="M530.815 1350.117v-4.168h2.695v4.178c0 1.613-.19 2.875-.56 3.797-.381.911-.922 1.622-1.644 2.103l-.66-1.563c.48-.33.84-.811 1.081-1.462.25-.641.38-1.613.4-2.885h-1.312Z" fill="#000" stroke-width="0"></path><path data-name="2 12" d="M551.973 1335.39c0-4.999.531-8.785 1.603-11.36 1.062-2.575 2.625-3.867 4.699-3.867 1.843 0 3.285 1.042 4.347 3.126 1.283 2.534 1.924 6.561 1.924 12.101 0 4.98-.521 8.766-1.583 11.35s-2.635 3.877-4.719 3.877c-1.833 0-3.336-1.142-4.518-3.416-1.162-2.284-1.753-6.22-1.753-11.81Zm2.435 0c0 4.839.37 8.105 1.102 9.748.73 1.653 1.663 2.474 2.805 2.474 1.082 0 1.983-.831 2.714-2.504.722-1.673 1.082-4.91 1.082-9.718 0-4.868-.36-8.124-1.092-9.767-.73-1.643-1.683-2.465-2.845-2.465-1.072 0-1.963.832-2.684 2.505-.712 1.673-1.082 4.909-1.082 9.727Z" fill="#000" stroke-width="0"></path><path data-name="3 13" d="M540.633 1333.938c-.942-.531-1.663-1.313-2.144-2.324-.49-1.012-.731-2.274-.731-3.777 0-2.264.52-4.118 1.573-5.54s2.374-2.134 3.967-2.134 2.925.721 3.997 2.174c1.052 1.453 1.583 3.326 1.583 5.62 0 1.443-.23 2.655-.702 3.657a5.23 5.23 0 0 1-2.143 2.324c1.172.59 2.073 1.522 2.694 2.835.632 1.292.942 2.915.942 4.838 0 2.645-.61 4.82-1.823 6.492-1.212 1.673-2.715 2.514-4.508 2.514-1.823 0-3.336-.841-4.548-2.514-1.212-1.673-1.824-3.867-1.824-6.602 0-1.993.321-3.636.972-4.929.651-1.292 1.553-2.174 2.695-2.634Zm-.44-6.221c0 1.472.3 2.644.91 3.506.602.871 1.353 1.312 2.235 1.312.861 0 1.593-.43 2.194-1.282.61-.862.911-1.974.911-3.326 0-1.402-.31-2.544-.931-3.436s-1.363-1.332-2.214-1.332c-.842 0-1.573.44-2.194 1.302-.601.871-.912 1.963-.912 3.256Zm-.792 13.794c0 1.834.38 3.306 1.162 4.428.771 1.112 1.693 1.673 2.775 1.673s2.003-.54 2.765-1.623c.751-1.091 1.132-2.544 1.132-4.347 0-1.834-.39-3.306-1.172-4.428-.772-1.122-1.703-1.683-2.795-1.683-1.072 0-1.994.56-2.745 1.673s-1.122 2.544-1.122 4.307Z" fill="#000" stroke-width="0"></path><path d="M1352.136 1346.54v3.496h-12.813c-.03-1.422.31-3.015 1.022-4.778s2.023-3.847 3.927-6.251c2.224-2.795 3.676-4.96 4.357-6.492.692-1.533 1.032-2.955 1.032-4.278 0-1.512-.35-2.754-1.052-3.716-.7-.962-1.572-1.443-2.604-1.443-1.102 0-2.014.521-2.715 1.553-.711 1.032-1.072 2.525-1.072 4.448l-2.434-.37c.17-2.866.811-5.02 1.923-6.462s2.575-2.164 4.388-2.164c1.973 0 3.466.841 4.478 2.524 1.022 1.684 1.523 3.597 1.523 5.74a12.93 12.93 0 0 1-1.192 5.46c-.792 1.744-2.305 4.078-4.529 6.983-1.422 1.833-2.334 3.085-2.744 3.747-.421.67-.752 1.332-1.012 2.003h9.517Z" stroke-width="0"></path><path data-name="1 14" d="M1355.983 1350.036v-4.167h2.694v4.178c0 1.612-.18 2.885-.56 3.796-.371.922-.922 1.623-1.644 2.114l-.66-1.573c.48-.33.84-.811 1.08-1.452.251-.651.382-1.613.402-2.895h-1.313Z" fill="#000" stroke-width="0"></path><path data-name="2 15" d="M1377.14 1335.32c0-4.999.541-8.796 1.603-11.37 1.062-2.575 2.635-3.867 4.709-3.867 1.833 0 3.286 1.042 4.337 3.136 1.293 2.524 1.934 6.561 1.934 12.101 0 4.98-.531 8.756-1.593 11.34-1.052 2.585-2.625 3.877-4.718 3.877-1.834 0-3.336-1.142-4.508-3.416s-1.764-6.21-1.764-11.8Zm2.445-.01c0 4.849.36 8.105 1.092 9.748.73 1.653 1.673 2.484 2.815 2.484 1.072 0 1.973-.831 2.705-2.514.72-1.674 1.091-4.91 1.091-9.718 0-4.869-.37-8.114-1.102-9.767-.73-1.643-1.673-2.465-2.845-2.465-1.062 0-1.963.842-2.674 2.515-.722 1.673-1.082 4.909-1.082 9.717Z" fill="#000" stroke-width="0"></path><path data-name="3 16" d="m1374.416 1327.496-2.375.29c-.22-1.532-.55-2.624-.991-3.285-.632-.942-1.383-1.423-2.275-1.423-1.382 0-2.484 1.082-3.316 3.266-.72 1.873-1.081 4.638-1.091 8.305.54-1.312 1.232-2.294 2.063-2.965.822-.682 1.693-1.022 2.615-1.022 1.543 0 2.875.881 4.017 2.645 1.142 1.753 1.713 4.107 1.713 7.052 0 1.994-.29 3.807-.861 5.42-.571 1.633-1.313 2.825-2.214 3.596-.902.772-1.894 1.162-2.966 1.162-1.953 0-3.566-1.111-4.828-3.335-1.272-2.224-1.904-5.931-1.904-11.13 0-5.76.652-9.868 1.944-12.312 1.292-2.455 2.955-3.677 4.979-3.677 1.462 0 2.695.631 3.686 1.903.982 1.263 1.583 3.106 1.804 5.51Zm-9.678 12.873c0 2.164.4 3.887 1.202 5.2.802 1.322 1.733 1.973 2.805 1.973.932 0 1.754-.621 2.495-1.853.731-1.243 1.102-2.936 1.102-5.09 0-2.123-.36-3.766-1.092-4.938-.731-1.162-1.623-1.743-2.675-1.743-1.022 0-1.923.58-2.685 1.743-.771 1.152-1.152 2.724-1.152 4.708Z" fill="#000" stroke-width="0"></path><path d="M1214.119 1381.823v3.507h-12.803c-.04-1.423.3-3.026 1.011-4.789.722-1.753 2.034-3.837 3.928-6.241 2.223-2.795 3.676-4.969 4.357-6.492.691-1.532 1.032-2.955 1.032-4.277 0-1.523-.35-2.765-1.052-3.727-.701-.952-1.563-1.433-2.594-1.433-1.112 0-2.014.511-2.725 1.543-.711 1.042-1.062 2.525-1.062 4.458l-2.435-.38c.17-2.856.812-5.01 1.924-6.452 1.112-1.453 2.565-2.174 4.378-2.174 1.983 0 3.466.841 4.488 2.525 1.012 1.683 1.522 3.596 1.522 5.74 0 1.893-.4 3.716-1.192 5.46-.801 1.753-2.314 4.077-4.538 6.982-1.422 1.833-2.334 3.085-2.745 3.757a11.65 11.65 0 0 0-1.011 1.993h9.517Z" stroke-width="0"></path><path data-name="1 20" d="M1217.966 1385.33v-4.168h2.704v4.168c0 1.623-.19 2.885-.57 3.796-.371.922-.922 1.633-1.634 2.114l-.66-1.563c.48-.33.84-.821 1.081-1.462.24-.651.38-1.613.4-2.885h-1.321Z" fill="#000" stroke-width="0"></path><path data-name="2 21" d="M1239.133 1370.603c0-4.999.531-8.785 1.593-11.37 1.072-2.575 2.635-3.867 4.709-3.867 1.843 0 3.286 1.042 4.347 3.136 1.283 2.524 1.924 6.562 1.924 12.101 0 4.98-.531 8.766-1.583 11.35-1.062 2.585-2.635 3.868-4.718 3.868-1.844 0-3.346-1.133-4.518-3.407-1.173-2.284-1.754-6.22-1.754-11.81Zm2.435-.01c0 4.849.37 8.105 1.102 9.758.721 1.653 1.663 2.474 2.805 2.474 1.082 0 1.983-.831 2.705-2.504.731-1.673 1.092-4.91 1.092-9.728 0-4.858-.371-8.114-1.102-9.757-.722-1.643-1.673-2.465-2.835-2.465-1.072 0-1.964.832-2.685 2.505-.722 1.673-1.082 4.909-1.082 9.717Z" fill="#000" stroke-width="0"></path><path data-name="3 22" d="M1227.793 1369.15a5.13 5.13 0 0 1-2.154-2.333c-.48-1.002-.731-2.264-.731-3.777 0-2.264.53-4.107 1.583-5.53 1.052-1.423 2.374-2.144 3.957-2.144 1.603 0 2.935.731 3.997 2.184 1.062 1.453 1.593 3.326 1.593 5.62 0 1.433-.23 2.655-.712 3.647a5.148 5.148 0 0 1-2.143 2.334c1.172.58 2.073 1.523 2.704 2.825.632 1.302.942 2.915.942 4.838 0 2.655-.611 4.829-1.823 6.502s-2.725 2.505-4.518 2.505c-1.814 0-3.336-.832-4.548-2.505-1.213-1.673-1.814-3.877-1.814-6.602 0-1.993.32-3.636.972-4.929s1.553-2.174 2.695-2.634Zm-.44-6.22c0 1.472.3 2.644.901 3.506.611.872 1.352 1.312 2.234 1.312.861 0 1.603-.43 2.204-1.292.61-.851.912-1.963.912-3.316 0-1.403-.311-2.545-.932-3.436-.631-.892-1.363-1.333-2.214-1.333s-1.583.441-2.194 1.303c-.611.871-.912 1.963-.912 3.256Zm-.792 13.794c0 1.834.38 3.306 1.152 4.418.771 1.122 1.703 1.683 2.775 1.683 1.092 0 2.014-.54 2.765-1.622.761-1.092 1.142-2.545 1.142-4.358 0-1.834-.39-3.306-1.172-4.418-.782-1.122-1.713-1.683-2.795-1.683-1.072 0-1.994.55-2.745 1.663s-1.122 2.554-1.122 4.318Z" fill="#000" stroke-width="0"></path><g data-name="1932117513392" fill="#231f20" stroke-width="0"><path d="M285.476 1654.852H124.92v36.025h160.557v-36.025Zm1.413-1.412v38.85H123.506v-38.85H286.89Z"></path><path d="M285.486 1674.277H124.9v3.787h160.587v-3.787Zm1.413-1.413v6.612H123.486v-6.612H286.9Z"></path><path d="M285.486 1674.277h-3.807v3.787h3.807v-3.787Zm1.413-1.413v6.612h-6.632v-6.612h6.632Zm-158.173 1.413h-3.807v3.787h3.807v-3.787Zm1.412-1.413v6.612h-6.632v-6.612h6.632Zm122.279 1.413h-3.807v3.787h3.807v-3.787Zm1.413-1.413v6.612h-6.632v-6.612h6.632Zm308.592-18.012H401.865v36.025h160.557v-36.025Zm1.412-1.412v38.85H400.452v-38.85h163.382Z"></path><path d="M562.432 1674.277H401.845v3.787h160.587v-3.787Zm1.403-1.413v6.612H400.432v-6.612h163.403Z"></path><path d="M562.432 1674.277h-3.807v3.787h3.807v-3.787Zm1.403-1.413v6.612h-6.622v-6.612h6.622Zm-158.164 1.413h-3.806v3.787h3.806v-3.787Zm1.403-1.413v6.612h-6.622v-6.612h6.622Zm122.289 1.413h-3.807v3.787h3.807v-3.787Zm1.402-1.413v6.612h-6.622v-6.612h6.622Zm313.331-18.012H683.53v36.025h160.567v-36.025Zm1.403-1.412v38.85H682.116v-38.85H845.5Z"></path><path d="M844.096 1674.277H683.51v3.787h160.587v-3.787Zm1.413-1.413v6.612H682.096v-6.612H845.51Z"></path><path d="M844.096 1674.277h-3.807v3.787h3.807v-3.787Zm1.413-1.413v6.612h-6.632v-6.612h6.632Zm-158.173 1.413h-3.807v3.787h3.807v-3.787Zm1.412-1.413v6.612h-6.632v-6.612h6.632Zm122.279 1.413h-3.797v3.787h3.797v-3.787Zm1.413-1.413v6.612h-6.632v-6.612h6.632Zm308.592-18.012H960.475v36.025h160.557v-36.025Zm1.413-1.412v38.85H959.062v-38.85h163.383Z"></path><path d="M1121.042 1674.277H960.455v3.787h160.587v-3.787Zm1.403-1.413v6.612H959.042v-6.612h163.403Z"></path><path d="M1121.042 1674.277h-3.807v3.787h3.807v-3.787Zm1.403-1.413v6.612h-6.622v-6.612h6.622Zm-158.164 1.413h-3.806v3.787h3.806v-3.787Zm1.403-1.413v6.612h-6.622v-6.612h6.622Zm122.289 1.413h-3.807v3.787h3.807v-3.787Zm1.412-1.413v6.612h-6.631v-6.612h6.631Zm310.957-18.012h-160.568v36.025h160.568v-36.025Zm1.413-1.412v38.85h-163.393v-38.85h163.393Z"></path><path d="M1400.342 1674.277h-160.578v3.787h160.578v-3.787Zm1.413-1.413v6.612h-163.403v-6.612h163.403Z"></path><path d="M1400.342 1674.277h-3.797v3.787h3.797v-3.787Zm1.413-1.413v6.612h-6.622v-6.612h6.622Zm-158.174 1.413h-3.796v3.787h3.796v-3.787Zm1.413-1.413v6.612h-6.632v-6.612h6.632Zm122.279 1.413h-3.797v3.787h3.797v-3.787Zm1.412-1.413v6.612h-6.622v-6.612h6.622Zm308.603-18.012H1516.72v36.025h160.568v-36.025Zm1.402-1.412v38.85h-163.382v-38.85h163.382Z"></path><path d="M1677.288 1674.277H1516.7v3.787h160.588v-3.787Zm1.412-1.413v6.612h-163.412v-6.612H1678.7Z"></path><path d="M1677.288 1674.277h-3.807v3.787h3.807v-3.787Zm1.412-1.413v6.612h-6.631v-6.612h6.631Zm-158.173 1.413h-3.807v3.787h3.807v-3.787Zm1.413-1.413v6.612h-6.632v-6.612h6.632Zm122.279 1.413h-3.797v3.787h3.797v-3.787Zm1.412-1.413v6.612H1639v-6.612h6.632Z"></path></g><g data-name="1933077312432" stroke-width="0"><path fill="#e3e4e5" d="M11.456 1470.412h37.437v104.577H11.456z"></path><path d="M48.191 1471.113v103.876H12.167v-103.876H48.19Zm1.413-1.402h-38.85v106.7h38.85v-106.7Z" fill="#231f20"></path><path fill="#e3e4e5" d="M24.269 1470.412h5.199V1575.7h-5.2z"></path><path d="M28.767 1471.113v103.896H24.98v-103.896h3.787Zm1.412-1.402h-6.612v106.71h6.612v-106.71Z" fill="#231f20"></path><path fill="#e3e4e5" d="M24.269 1470.412h5.199v5.21h-5.2z"></path><path d="M28.767 1471.113v3.807H24.98v-3.807h3.787Zm1.412-1.402h-6.612v6.622h6.612v-6.622Z" fill="#231f20"></path><path fill="#e3e4e5" d="M24.269 1570.481h5.199v5.22h-5.2z"></path><path d="M28.767 1571.192v3.797H24.98v-3.797h3.787Zm1.412-1.412h-6.612v6.622h6.612v-6.622Z" fill="#231f20"></path><path fill="#e3e4e5" d="M24.269 1499.935h5.199v5.21h-5.2z"></path><path d="M28.767 1500.646v3.797H24.98v-3.797h3.787Zm1.412-1.412h-6.612v6.621h6.612v-6.621Z" fill="#231f20"></path><path fill="#e3e4e5" d="M11.456 1243.666h37.437v104.577H11.456z"></path><path d="M48.191 1244.367v103.876H12.167v-103.876H48.19Zm1.413-1.412h-38.85v106.7h38.85v-106.7Z" fill="#231f20"></path><path fill="#e3e4e5" d="M24.269 1243.666h5.199v105.289h-5.2z"></path><path d="M28.767 1244.367v103.896H24.98v-103.896h3.787Zm1.412-1.412h-6.612v106.72h6.612v-106.72Z" fill="#231f20"></path><path fill="#e3e4e5" d="M24.269 1243.666h5.199v5.21h-5.2z"></path><path d="M28.767 1244.367v3.797H24.98v-3.797h3.787Zm1.412-1.412h-6.612v6.622h6.612v-6.622Z" fill="#231f20"></path><path fill="#e3e4e5" d="M24.269 1343.735h5.199v5.22h-5.2z"></path><path d="M28.767 1344.436v3.807H24.98v-3.807h3.787Zm1.412-1.412h-6.612v6.632h6.612v-6.632Z" fill="#231f20"></path><path fill="#e3e4e5" d="M24.269 1273.189h5.199v5.21h-5.2z"></path><path d="M28.767 1273.89v3.797H24.98v-3.797h3.787Zm1.412-1.412h-6.612v6.631h6.612v-6.631Z" fill="#231f20"></path><path fill="#e3e4e5" d="M11.456 1020.456h37.437v104.578H11.456z"></path><path d="M48.191 1021.158v103.876H12.167v-103.876H48.19Zm1.413-1.413h-38.85v106.701h38.85v-106.7Z" fill="#231f20"></path><path fill="#e3e4e5" d="M24.269 1020.456h5.199v105.289h-5.2z"></path><path d="M28.767 1021.158v103.896H24.98v-103.896h3.787Zm1.412-1.413h-6.612v106.721h6.612v-106.72Z" fill="#231f20"></path><path fill="#e3e4e5" d="M24.269 1020.456h5.199v5.21h-5.2z"></path><path d="M28.767 1021.158v3.797H24.98v-3.797h3.787Zm1.412-1.413h-6.612v6.632h6.612v-6.632Z" fill="#231f20"></path><path fill="#e3e4e5" d="M24.269 1120.526h5.199v5.219h-5.2z"></path><path d="M28.767 1121.227v3.807H24.98v-3.807h3.787Zm1.412-1.403h-6.612v6.622h6.612v-6.622Z" fill="#231f20"></path><path fill="#e3e4e5" d="M24.269 1049.98h5.199v5.209h-5.2z"></path><path d="M28.767 1050.68v3.807H24.98v-3.806h3.787Zm1.412-1.412h-6.612v6.632h6.612v-6.632Z" fill="#231f20"></path></g><g data-name="1933095746704" fill="#58595b" stroke-width="0"><path d="M1666.368 991.274v73.642h-2.945v-73.642h2.945z"></path><path d="M1665.747 992.266h-5.22c-20.606 0-37.346 6.422-48.927 17.972-11.58 11.551-18.022 28.25-18.022 48.798v5.88h-.992v-5.88c0-20.828 6.542-37.758 18.313-49.499s28.751-18.263 49.629-18.263h5.22v.992Zm-96.963 72.66v-28.18h2.945v28.18h-2.945zm98.176-8.315h4.197v8.305h-4.789v-8.305h.591Zm3.015 1.172h-2.425v5.95h2.425v-5.95Zm-105.389-1.172h4.198v8.305h-4.79v-8.305h.592Zm3.015 1.172h-2.424v5.95h2.424v-5.95Z"></path><path d="M1593.538 1058.545c0-6.021-2.445-11.47-6.392-15.418a21.705 21.705 0 0 0-15.407-6.381v.831c5.79 0 11.03 2.344 14.826 6.141 3.787 3.797 6.141 9.036 6.141 14.827h.832Z"></path></g><path d="M127.443 1079.292h-5.98v-30.164c-2.214 2.755-4.769 4.778-7.674 6.07v-7.292c1.653-.742 3.366-2.054 5.139-3.947a15.675 15.675 0 0 0 3.707-6.552h4.808v41.885Z" stroke-width="0"></path><path data-name="1 50" d="m196.787 1068.553 5.931-.872c.15 1.823.661 3.266 1.523 4.318.851 1.042 1.803 1.573 2.835 1.573 1.232 0 2.284-.672 3.166-2.004.871-1.332 1.312-3.386 1.312-6.141 0-2.605-.43-4.538-1.302-5.79-.882-1.253-1.994-1.874-3.326-1.874-1.713 0-3.256 1.012-4.609 3.036l-4.848-.932 3.075-21.759h15.718v7.463h-11.15l-1.001 7.123c1.342-.902 2.704-1.342 4.077-1.342 2.444 0 4.518 1.052 6.221 3.186 2.154 2.714 3.236 6.29 3.236 10.729 0 3.666-.922 7.032-2.755 10.108-1.823 3.075-4.448 4.608-7.854 4.608-2.765 0-5.06-.992-6.913-2.975-1.843-1.974-2.955-4.799-3.336-8.455Z" fill="#000" stroke-width="0"></path><path data-name="2 51" d="m136.44 1068.553 5.93-.872c.16 1.823.661 3.266 1.523 4.318.861 1.042 1.813 1.573 2.845 1.573 1.222 0 2.274-.672 3.155-2.004.872-1.332 1.313-3.386 1.313-6.141 0-2.605-.43-4.538-1.303-5.79-.871-1.253-1.983-1.874-3.325-1.874-1.714 0-3.246 1.012-4.609 3.036l-4.838-.932 3.065-21.759h15.728v7.463h-11.15l-1.012 7.123c1.343-.902 2.715-1.342 4.088-1.342 2.444 0 4.518 1.052 6.22 3.186 2.155 2.714 3.227 6.29 3.227 10.729 0 3.666-.912 7.032-2.755 10.108-1.824 3.075-4.448 4.608-7.844 4.608-2.765 0-5.06-.992-6.913-2.975-1.853-1.974-2.965-4.799-3.346-8.455Z" fill="#000" stroke-width="0"></path><path data-name="3 52" d="M160.472 1045.511v-7.403H180.8v5.81c-1.663 2.224-3.356 5.38-5.07 9.467-1.702 4.088-3.025 8.486-3.956 13.154-.932 4.678-1.403 8.926-1.403 12.753h-5.72c.14-5.93 1.032-11.851 2.685-17.752 1.643-5.91 3.867-11.25 6.662-16.029h-13.525Z" fill="#000" stroke-width="0"></path><path data-name="4 53" d="M185.668 1071.297h5.93v5.72c0 3.246-.34 5.66-1.032 7.244-.841 1.953-2.244 3.406-4.207 4.357l-1.162-3.306c1.162-.53 1.993-1.252 2.514-2.153.511-.902.782-2.204.812-3.867h-2.855v-7.995Z" fill="#000" stroke-width="0"></path><path data-name="5 54" d="M230.888 1037.407c3.006 0 5.45 1.573 7.304 4.738 1.863 3.156 2.795 8.676 2.795 16.56 0 7.874-.932 13.384-2.795 16.55-1.854 3.155-4.288 4.728-7.273 4.728-3.016 0-5.45-1.563-7.314-4.688-1.863-3.136-2.785-8.686-2.785-16.67 0-7.834.922-13.324 2.785-16.48 1.864-3.165 4.288-4.738 7.283-4.738Zm.01 6.652c-1.162 0-2.103.851-2.795 2.554-.7 1.703-1.041 5.74-1.041 12.092 0 6.371.34 10.399 1.041 12.092.692 1.693 1.633 2.544 2.795 2.544 1.183 0 2.114-.861 2.806-2.564.69-1.693 1.031-5.72 1.031-12.072s-.34-10.389-1.032-12.092-1.622-2.554-2.805-2.554Z" fill="#000" stroke-width="0"></path><g data-name="1933095697744" fill="#58595b" stroke-width="0"><path d="M1318.085 1364.502v-5.209c0-20.607 6.421-37.347 17.972-48.927 11.55-11.581 28.25-18.023 48.797-18.023h5.88v-.991h-5.88c-20.827 0-37.757 6.541-49.499 18.312-11.74 11.771-18.262 28.752-18.262 49.63v5.209h.992Z"></path><path d="M1390.735 1362.258h-73.642v2.956h73.642v-2.956z"></path><path d="M1382.43 1365.725v4.197h8.305v-4.789h-8.305v.592Zm1.182 3.015v-2.424h5.94v2.424h-5.94Zm-1.182-81.586v4.197h8.305v-4.788h-8.305v.59Zm1.182 3.015v-2.424h5.94v2.424h-5.94Z"></path></g><g data-name="1933095701488" fill="#58595b" stroke-width="0"><path d="M1193.241 1312.4h5.22c20.606 0 37.346 6.42 48.927 17.971 11.58 11.551 18.022 28.25 18.022 48.798v5.88h.992v-5.88c0-20.818-6.542-37.758-18.313-49.5-11.77-11.74-28.751-18.262-49.629-18.262h-5.219v.992Z"></path><path d="M1195.495 1385.05v-73.643h-2.955v73.642h2.955z"></path><path d="M1192.03 1376.744h-4.198v8.305h4.788v-8.305h-.59Zm-3.016 1.183h2.424v5.94h-2.424v-5.94Zm81.586-1.183h-4.198v8.305h4.789v-8.305h-.591Zm-3.016 1.183h2.425v5.94h-2.425v-5.94Z"></path></g><g data-name="1933095712336" fill="#58595b" stroke-width="0"><path d="M1589.39 1162.16v-5.46c0-21.598-6.732-39.14-18.833-51.281-12.112-12.142-29.603-18.884-51.142-18.884h-6.171v-1.042h6.171c21.82 0 39.571 6.852 51.873 19.194 12.302 12.333 19.144 30.134 19.144 52.014v5.46h-1.042Z"></path><path d="M1513.244 1160.177h76.667v2.604h-76.667v-2.604z"></path><path d="M1520.577 1163.242v3.697h-7.333v-4.218h7.333v.521Zm-1.042 2.655v-2.134h-5.25v2.134h5.25Zm1.042-84.111v3.707h-7.333v-4.228h7.333v.521Zm-1.042 2.665v-2.144h-5.25v2.144h5.25Z"></path></g><g data-name="1933095731632" fill="#58595b" stroke-width="0"><path d="M589.821 1368.66v-5.21c0-20.606-6.421-37.346-17.972-48.927-11.55-11.59-28.24-18.022-48.797-18.022h-5.881v-.992h5.88c20.828 0 37.768 6.542 49.5 18.313 11.74 11.76 18.262 28.751 18.262 49.629v5.209h-.992Z"></path><path d="M517.171 1366.416h73.642v2.945H517.17v-2.945z"></path><path d="M525.486 1369.882v4.198h-8.315v-4.79h8.315v.592Zm-1.182 3.015v-2.424h-5.95v2.424h5.95Zm1.182-81.586v4.198h-8.315v-4.789h8.315v.591Zm-1.182 3.016v-2.425h-5.95v2.425h5.95Z"></path></g></g></g></svg>