<svg version="1.1" xmlns="http://www.w3.org/2000/svg" xmlns:xlink="http://www.w3.org/1999/xlink" viewBox="0 0 2371.194 759.436"><path fill="none" stroke-width="0" d="m648.765 639.1.721 120.336H510.658v-43.388H0V7.02L2371.194 0l-7.31 608.947h-460.182v-2.204h-147.665v32.368l-78.02 1.566 2.874 75.411-56.327 8.941-53.708-50.652-5.239-35.266-916.852-.01z"></path><path fill="none" stroke-width="0" d="m519.519 747.184 1.528-35.288-472.844 4.152V41.756L2332.04 26.444V594.84l-584.568 9.407.1 34.863-1114.655-.01 4.758 111.48-118.156-3.397z"></path><clipPath id="a"><path fill="none" stroke-width="0" d="m648.765 639.1.721 120.336H510.658v-43.388H0V7.02L2371.194 0l-7.31 608.947h-460.182v-2.204h-147.665v32.368l-78.02 1.566 2.874 75.411-56.327 8.941-53.708-50.652-5.239-35.266-916.852-.01z"></path></clipPath><g data-name="Layer 1" clip-path="url(#a)"><g data-name="Слой 1"><path fill="none" stroke="#231f20" stroke-miterlimit="22.967" stroke-width=".521" d="m1267.222 755.469-47.575-101.061m47.205 101.572V654.408m-23.752 49.829v-49.83m47.504 101.573V654.408m23.743 101.572V654.408M1338.1 755.98V654.408m23.752 101.572V654.408m0 51.442h-95m16.609-17.311-16.61 17.311 16.61 17.311"></path><g data-name="1895056203264"><path fill="#dcdddf" stroke-width="0" d="M1758.221 663.685h126.757v116.779h-126.757z"></path><g data-name="ифт2"><g fill="#1d1d1b" stroke-width="0" data-name="lift 2"><path d="M1821.254 680.154h-32.899c-5.59 0-10.138 4.548-10.138 10.128v63.574c0 5.59 4.548 10.128 10.138 10.128h32.9c5.59 0 10.127-4.538 10.127-10.128v-63.574c0-5.58-4.538-10.128-10.128-10.128Zm5.75 73.702a5.75 5.75 0 0 1-5.75 5.75h-32.899a5.75 5.75 0 0 1-5.75-5.75v-63.574a5.748 5.748 0 0 1 5.75-5.74h32.9a5.748 5.748 0 0 1 5.75 5.74v63.574Zm32.989-12.272-5.53 5.53v-17.892c0-1.613-1.312-2.925-2.925-2.925s-2.915 1.312-2.915 2.925v17.892l-5.53-5.53a2.933 2.933 0 0 0-4.127 0 2.926 2.926 0 0 0 0 4.137l9.346 9.347c.752.751 1.703 1.162 2.685 1.282.18.03.36.05.541.05a3 3 0 0 0 .531-.05c.992-.12 1.954-.53 2.705-1.282l9.347-9.347a2.926 2.926 0 0 0 0-4.137 2.933 2.933 0 0 0-4.128 0Zm-16.9-38.99 5.54-5.53v19.024c0 1.613 1.312 2.926 2.925 2.926s2.916-1.313 2.916-2.926v-19.004l5.51 5.51a2.902 2.902 0 0 0 4.127 0 2.914 2.914 0 0 0 0-4.127l-9.347-9.347a4.508 4.508 0 0 0-2.424-1.252c-.26-.07-.521-.12-.792-.12s-.53.04-.781.11a4.6 4.6 0 0 0-2.464 1.262l-9.347 9.347a2.926 2.926 0 0 0 4.137 4.137v-.01Z"></path><path d="M1804.775 700.56a6.231 6.231 0 0 0 6.23-6.23c0-3.437-2.794-6.222-6.23-6.222s-6.222 2.785-6.222 6.221a6.223 6.223 0 0 0 6.222 6.232Zm.02 28.401c-2.345 0-5.951-.48-7.624-.73l-1.823 24.253a3.314 3.314 0 0 0 3.055 3.536l.05.01c1.814.13 3.407-1.222 3.537-3.036l1.492-17.952c.05-.61.341-1.452 1.343-1.472 1.062-.01 1.352.881 1.382 1.462l1.493 17.942a3.286 3.286 0 0 0 3.536 3.046h.03a3.31 3.31 0 0 0 3.046-3.556l-1.843-24.254c-1.744.25-5.49.751-7.674.751Z"></path><path d="m1818.369 718.643-.902-9.056c-.14-1.814-.981-3.817-3.546-5.11-1.964-.981-8.726-.841-8.726-.841s-7.473-.17-9.597.842c-2.534 1.212-3.316 3.295-3.466 5.109l-.892 9.056-.901 11.58a3.303 3.303 0 0 0 3.035 3.557h.04c.611.05 1.212-.08 1.723-.34l1.273-17.913c.03-.46.43-.801.881-.771.461.04.802.43.772.891l-.772 10.92c1.573.23 5.24.731 7.504.731 2.123 0 5.99-.53 7.623-.761l-.71-10.9a.825.825 0 0 1 .78-.881c.451-.03.862.31.882.771l1.162 17.922c.501.24 1.072.361 1.663.31h.03a3.287 3.287 0 0 0 3.036-3.545l-.892-11.581v.01Z"></path></g></g></g><path d="M37.04 7.019h2321.065v1686.99H17.615V7.019H37.04Zm2282.215 38.84H56.465v1609.31h2262.79V45.86Z" fill="#58595b" stroke-width="0"></path><path fill="#58595b" stroke-width="0" d="M1723.85 1066.646V931.744h23.622v27.37h150.329V810.306h-150.329v31.567h-23.622v-75.986h23.622v20.797h150.329V654.418h-150.329v21.238h-23.622v-44.86h197.563v435.85h-23.612v-83.91h-150.329v83.91h-23.622zm-789.153-435.86h592.741v23.622H955.955v106.42H625.864v-23.622h306.469v-106.42h2.364zM1053.81 755.98h352.111v23.612h-328.489v103.565H625.423v-23.612h428.387V755.98z"></path><path fill="#58595b" stroke-width="0" d="M625.864 737.978V630.786h23.622v107.192h-23.622zm0-344.227v116.86h23.622V393.75h-23.622zm0-348.393V147.34h23.622V45.358h-23.622zm547.2 348.393v119.444h23.622V393.751h-23.622zm330.752 237.035V761.88h23.622V630.786h-23.622zM1173.064 45.358V147.34h23.622V45.358h-23.622zm559.081 348.393v119.444h23.612V393.751h-23.612zm0-348.393V147.34h23.612V45.358h-23.612zm-185.012 366.025h185.012v17.722h-185.012v-17.722zm356.569 197.564h418.77v-17.722h-418.77v17.722z"></path><path fill="#58595b" stroke-width="0" d="M1903.702 591.225v60.989h17.711v-60.99h-17.711zm-165.376 7.243v55.62h17.711v-55.62h-17.711zM325.837 747.184H528.38v34.562H325.837v-34.562zM53.72 707.743h295.509v34.562H53.719v-34.562z"></path><path fill="#58595b" stroke-width="0" d="M349.229 781.746v-74.003h-34.562v74.003h34.562zm-273.74 14.165V721.9H40.917v74.012h34.572zm1259.354-300.428h16.009v17.712h-16.009v-17.712zm-372.947 0h16.018v17.712h-16.018v-17.712zm585.237 17.712V411.383h17.712v101.812h-17.712zm-356.047-40.032h159.766v17.712h-159.766v-17.712z"></path><path fill="#58595b" stroke-width="0" d="M961.896 513.195v-40.032h17.711v40.032h-17.711zM510.658 748.687v-40.944h17.722v40.944h-17.722z"></path><path fill="#58595b" stroke-width="0" d="M524.673 741.724h101.191v17.712H524.673v-17.712zm808.467-228.529v-40.032h17.712v40.032h-17.712zm-371.244-50.18h216.487v17.712H961.896v-17.712zm255.768-20.265v48.125h8.304V442.75h-8.304z"></path><path fill="#58595b" stroke-width="0" d="M961.896 362.385v104.848h8.315V362.385h-8.315zm-362.159 150.81v-45.381h-8.315v45.381h8.315zm76.036 0v-45.381h-8.314v45.381h8.314zM297.997 716.048H528.38v-8.305H297.997v8.305z"></path><path fill="#58595b" stroke-width="0" d="M675.773 467.814h-84.35v8.305h84.35v-8.305zm518.368-16.76h31.827v-8.305h-31.827v8.305zM969.43 513.195h365.413v-8.315H969.43v8.315zM648.765 639.1H935.74v-8.314H648.765v8.315zm544.305-276.715H961.895v8.305h231.173v-8.305zm710.632 48.878V594.84h8.315V411.263h-8.315zm94.819 4.147h98.978v-8.305h-98.978v8.305zM399.93 513.195h275.843v-8.315H399.93v8.315zm1547.03 154.807v-63.754h8.314v63.754h-8.315z"></path><path fill="#58595b" stroke-width="0" d="M1918.568 659.687h36.706v8.315h-36.706v-8.315zm-165.937-61.259h151.07v8.315h-151.07v-8.315zm258.653-7.203V408.728h-8.305v182.497h8.305zm86.215 0v-85.563h-8.305v85.563h8.305zm0-168.913V409.3h-8.305v13.013h8.305zm-193.797-6.902h11.46v-8.305h-11.46v8.305zm121.147 277.767v-91.644h8.304v91.644h-8.304zm-477.716-179.982h208.624v-8.315h-208.624v8.315zm-350.447-34.101V362.385h-8.315v116.71h8.315z"></path><path d="M1524.453 630.796h46.403v8.315h-46.403v-8.315zm153.565 0h45.832v8.315h-45.832v-8.315z" data-name="1895053749040" fill="#58595b" stroke-width="0"></path><g data-name="1895053750816" fill="#010101" stroke-width="0"><path d="M1971.373 560.63c0 .22-.04.631-.04.761v24.324h-27.169V561.27c0-.01-.04-.43-.04-.641 0-7.283 6.11-13.204 13.624-13.204s13.625 5.92 13.625 13.204Zm1.653 0c0-8.205-6.842-14.857-15.278-14.857s-15.277 6.652-15.277 14.857c0 .26.04.761.04.761v25.987h30.475V561.39s.04-.5.04-.761Z"></path><path d="M1967.977 589.572h-20.457v-1.713h20.457v1.713Zm1.653 1.653v-5.02h-23.763v5.02h23.763Z"></path></g><g data-name="1895053722496" fill="#010101" stroke-width="0"><path d="M1977.594 639.541c0-.22.04-.64.04-.761v-24.324h27.169V638.9s.04.431.04.641c0 7.283-6.111 13.204-13.625 13.204s-13.624-5.92-13.624-13.204Zm-1.653 0c0 8.205 6.842 14.857 15.277 14.857s15.278-6.652 15.278-14.857c0-.26-.04-.761-.04-.761v-25.987h-30.475v25.987s-.04.5-.04.761Z"></path><path d="M1980.99 610.6h20.457v1.713h-20.457V610.6Zm-1.653-1.653v5.019h23.762v-5.02h-23.762Z"></path></g><g data-name="1933134062736"><path d="M1965.392 524.876v-40.763h36.305v40.763h-36.305Zm-1.282 1.292h38.87v-43.337l-38.87.01v43.327Z" fill="#231f20" stroke-width="0"></path><path d="M1969.59 519.266a1.734 1.734 0 0 1-1.733-1.733v-25.957c0-.951.77-1.723 1.733-1.723h13.814c.952 0 1.733.772 1.733 1.723v25.957a1.74 1.74 0 0 1-1.733 1.733h-13.814Zm0 1.282h13.814a3.018 3.018 0 0 0 3.016-3.015v-25.957a3.01 3.01 0 0 0-3.016-3.005h-13.814a3.006 3.006 0 0 0-3.016 3.015v25.947a3.006 3.006 0 0 0 3.016 3.015Zm18.863-13.073c-.58 0-1.051.46-1.051 1.042 0 .57.47 1.032 1.051 1.032a1.04 1.04 0 0 0 1.042-1.032 1.04 1.04 0 0 0-1.042-1.042Zm0-7.905c-.58 0-1.051.462-1.051 1.033s.47 1.041 1.051 1.041c.571 0 1.042-.47 1.042-1.041s-.47-1.032-1.042-1.032Z" fill="#231f20" stroke-width="0"></path><path fill="none" stroke="#231f20" stroke-linecap="round" stroke-miterlimit="22.967" stroke-width=".471" d="M1989.215 504.56h-7.063"></path><path d="M1998.601 522.732v-2.574h3.086v2.574h-3.086Zm-1.282 1.282h5.66v-5.139h-5.66v5.15-.01Zm1.282-35.052v-2.575h3.086v2.575h-3.086Zm-1.282 1.282h5.66v-5.15h-5.66v5.15Z" fill="#010101" stroke-width="0"></path><path fill="none" stroke="#010101" stroke-linecap="round" stroke-linejoin="round" stroke-width=".471" d="M2000.144 519.036v-28.792"></path></g><g data-name="1933134017760"><path d="M1959 700.75v40.764h-36.294V700.75H1959Zm1.283-1.281h-38.87v43.337l38.87-.01V699.47Z" fill="#231f20" stroke-width="0"></path><path d="M1954.813 706.37c.952 0 1.723.782 1.723 1.734v25.946c0 .962-.771 1.734-1.723 1.734h-13.825a1.725 1.725 0 0 1-1.723-1.734v-25.946c0-.952.772-1.733 1.723-1.733h13.825Zm0-1.281h-13.825a3.018 3.018 0 0 0-3.015 3.015v25.946a3.012 3.012 0 0 0 3.015 3.016h13.825a3.018 3.018 0 0 0 3.015-3.016v-25.946a3.012 3.012 0 0 0-3.015-3.015Zm-18.863 13.073c.57 0 1.041-.46 1.041-1.042 0-.57-.47-1.032-1.042-1.032-.58 0-1.041.461-1.041 1.032 0 .581.46 1.042 1.041 1.042Zm0 7.904c.57 0 1.041-.46 1.041-1.032 0-.58-.47-1.041-1.042-1.041-.58 0-1.041.46-1.041 1.041 0 .571.46 1.032 1.041 1.032Z" fill="#231f20" stroke-width="0"></path><path fill="none" stroke="#231f20" stroke-linecap="round" stroke-miterlimit="22.967" stroke-width=".471" d="M1935.188 721.077h7.053"></path><path d="M1925.791 702.905v2.574h-3.085v-2.574h3.085Zm1.283-1.283h-5.65v5.14h5.65v-5.15.01Zm-1.283 35.053v2.575h-3.085v-2.575h3.085Zm1.283-1.282h-5.65v5.15h5.65v-5.15Z" fill="#010101" stroke-width="0"></path><path fill="none" stroke="#010101" stroke-linecap="round" stroke-linejoin="round" stroke-width=".471" d="M1924.248 706.591v28.802"></path></g><g data-name="1933128217280" stroke-width="0"><path d="M2032.662 587.248h42.757a9.85 9.85 0 0 0 9.827-9.828v-43.498a9.852 9.852 0 0 0-2.885-6.942 9.809 9.809 0 0 0-6.942-2.885h-42.757a9.774 9.774 0 0 0-6.942 2.885 9.818 9.818 0 0 0-2.895 6.942v43.498a9.818 9.818 0 0 0 2.895 6.943 9.815 9.815 0 0 0 6.942 2.885Zm42.757.59h-42.757a10.37 10.37 0 0 1-7.363-3.065 10.392 10.392 0 0 1-3.065-7.353v-43.498c0-2.865 1.182-5.47 3.065-7.363a10.406 10.406 0 0 1 7.363-3.055h42.757c2.865 0 5.47 1.172 7.353 3.055a10.391 10.391 0 0 1 3.066 7.363v43.498a10.35 10.35 0 0 1-3.066 7.353 10.35 10.35 0 0 1-7.353 3.066Z"></path><path d="M2034.145 585.034h39.792a9.096 9.096 0 0 0 6.44-2.675 9.11 9.11 0 0 0 2.686-6.452v-40.472c0-2.515-1.032-4.799-2.685-6.452s-3.937-2.684-6.441-2.684h-39.792c-2.514 0-4.798 1.031-6.451 2.684s-2.685 3.937-2.685 6.452v40.472c0 2.515 1.032 4.799 2.685 6.452s3.937 2.675 6.451 2.675Zm39.792.59h-39.792a9.701 9.701 0 0 1-6.872-2.854 9.702 9.702 0 0 1-2.855-6.863v-40.472a9.743 9.743 0 0 1 2.855-6.872 9.743 9.743 0 0 1 6.872-2.855h39.792c2.674 0 5.099 1.101 6.862 2.855a9.701 9.701 0 0 1 2.855 6.872v40.472a9.66 9.66 0 0 1-2.855 6.863 9.678 9.678 0 0 1-6.862 2.855Z"></path><path d="M2020.06 590.043h67.951V521.29h-67.951v68.753Zm68.543 1.182h-69.715v-71.107h70.306v71.107h-.591Z"></path><path d="M2032.342 579.865a2.27 2.27 0 0 0 1.593-.652c.4-.41.65-.971.65-1.593a2.25 2.25 0 0 0-.65-1.582c-.411-.401-.972-.652-1.593-.652s-1.182.25-1.583.652a2.235 2.235 0 0 0 0 3.175c.4.401.962.652 1.583.652Zm2.004-.23c-.511.5-1.223.82-2.004.82s-1.493-.32-2.004-.82c-.51-.522-.83-1.233-.83-2.014s.32-1.493.83-2.004 1.223-.822 2.004-.822 1.493.311 2.004.822c.51.52.831 1.222.831 2.004s-.32 1.492-.831 2.013Z"></path></g><g data-name="1933128224144" fill="#58595b" stroke-width="0"><path d="M1673.23 704.437v-73.641h-2.946v73.641h2.945z"></path><path d="M1672.608 703.446h-5.22c-20.606 0-37.346-6.422-48.927-17.972-11.58-11.551-18.022-28.241-18.022-48.788v-5.89h-.992v5.89c0 20.817 6.542 37.758 18.313 49.499 11.771 11.73 28.751 18.252 49.629 18.252h5.22v-.991h-.001Zm-96.964-72.66v28.19h2.946v-28.19h-2.946zm98.176 8.324h4.198v-8.314h-4.789v8.315h.591Zm3.016-1.182h-2.425v-5.95h2.425v5.95Zm-105.389 1.182h4.197v-8.314h-4.788v8.315h.591Zm3.015-1.182h-2.424v-5.95h2.424v5.95Z"></path><path d="M1600.399 637.167a21.72 21.72 0 0 1-6.392 15.418 21.714 21.714 0 0 1-15.407 6.391v-.831c5.79 0 11.03-2.355 14.826-6.141a20.96 20.96 0 0 0 6.141-14.837h.832Z"></path></g><g data-name="1933128233552" stroke-width="0"><path fill="#e3e4e5" d="M17.615 7.019H31.28v69.474H17.615z"></path><path d="M292.347 44.456H131.78V8.432h160.567v36.024Zm1.403 1.413V7.019H130.367v38.85H293.75Z" fill="#231f20"></path><path fill="#e3e4e5" d="M17.615 7.019h1.904v69.474h-1.904z"></path><path d="M292.347 25.031H131.76v-3.787h160.587v3.787Zm1.413 1.413v-6.612H130.357v6.612H293.76Z" fill="#231f20"></path><path fill="#e3e4e5" d="M17.615 7.019h1.904v1.903h-1.904z"></path><path d="M292.347 25.031h-3.797v-3.787h3.797v3.787Zm1.413 1.413v-6.612h-6.632v6.612h6.632Z" fill="#231f20"></path><path fill="#e3e4e5" d="M17.615 7.019h1.904v1.903h-1.904z"></path><path d="M135.586 25.031h-3.796v-3.787h3.796v3.787ZM137 26.444v-6.612h-6.632v6.612H137Z" fill="#231f20"></path><path fill="#e3e4e5" d="M17.615 7.019h1.904v1.903h-1.904z"></path><path d="M259.278 25.031h-3.797v-3.787h3.797v3.787Zm1.412 1.413v-6.612h-6.621v6.612h6.621Z" fill="#231f20"></path><path fill="#e3e4e5" d="M17.615 7.019H31.28v69.474H17.615z"></path><path d="M569.283 44.456H408.725V8.432h160.558v36.024Zm1.412 1.413V7.019H407.313v38.85h163.382Z" fill="#231f20"></path><path fill="#e3e4e5" d="M17.615 7.019h1.904v69.474h-1.904z"></path><path d="M569.293 25.031H408.705v-3.787h160.588v3.787Zm1.412 1.413v-6.612H407.293v6.612h163.412Z" fill="#231f20"></path><path fill="#e3e4e5" d="M17.615 7.019h1.904v1.903h-1.904z"></path><path d="M569.293 25.031h-3.807v-3.787h3.807v3.787Zm1.412 1.413v-6.612h-6.632v6.612h6.632Z" fill="#231f20"></path><path fill="#e3e4e5" d="M17.615 7.019h1.904v1.903h-1.904z"></path><path d="M412.532 25.031h-3.807v-3.787h3.807v3.787Zm1.413 1.413v-6.612h-6.632v6.612h6.632Z" fill="#231f20"></path><path fill="#e3e4e5" d="M17.615 7.019h1.904v1.903h-1.904z"></path><path d="M536.224 25.031h-3.807v-3.787h3.807v3.787Zm1.412 1.413v-6.612h-6.632v6.612h6.632Z" fill="#231f20"></path><path fill="#e3e4e5" d="M17.615 7.019H31.28v69.474H17.615z"></path><path d="M850.957 44.456H690.39V8.432h160.567v36.024Zm1.413 1.413V7.019H688.977v38.85H852.37Z" fill="#231f20"></path><path fill="#e3e4e5" d="M17.615 7.019h1.904v69.474h-1.904z"></path><path d="M850.957 25.031H690.38v-3.787h160.577v3.787Zm1.413 1.413v-6.612H688.967v6.612H852.37Z" fill="#231f20"></path><path fill="#e3e4e5" d="M17.615 7.019h1.904v1.903h-1.904z"></path><path d="M850.957 25.031h-3.797v-3.787h3.797v3.787Zm1.413 1.413v-6.612h-6.622v6.612h6.622Z" fill="#231f20"></path><path fill="#e3e4e5" d="M17.615 7.019h1.904v1.903h-1.904z"></path><path d="M694.196 25.031H690.4v-3.787h3.796v3.787Zm1.413 1.413v-6.612h-6.632v6.612h6.632Z" fill="#231f20"></path><path fill="#e3e4e5" d="M17.615 7.019h1.904v1.903h-1.904z"></path><path d="M817.888 25.031h-3.797v-3.787h3.797v3.787Zm1.412 1.413v-6.612h-6.621v6.612h6.621Z" fill="#231f20"></path><path fill="#e3e4e5" d="M17.615 7.019H31.28v69.474H17.615z"></path><path d="M1127.903 44.456H967.335V8.432h160.568v36.024Zm1.402 1.413V7.019H965.923v38.85h163.382Z" fill="#231f20"></path><path fill="#e3e4e5" d="M17.615 7.019h1.904v69.474h-1.904z"></path><path d="M1127.903 25.031H967.315v-3.787h160.588v3.787Zm1.412 1.413v-6.612H965.903v6.612h163.412Z" fill="#231f20"></path><path fill="#e3e4e5" d="M17.615 7.019h1.904v1.903h-1.904z"></path><path d="M1127.903 25.031h-3.807v-3.787h3.807v3.787Zm1.412 1.413v-6.612h-6.631v6.612h6.631Z" fill="#231f20"></path><path fill="#e3e4e5" d="M17.615 7.019h1.904v1.903h-1.904z"></path><path d="M971.142 25.031h-3.807v-3.787h3.807v3.787Zm1.413 1.413v-6.612h-6.632v6.612h6.632Z" fill="#231f20"></path><path fill="#e3e4e5" d="M17.615 7.019h1.904v1.903h-1.904z"></path><path d="M1094.834 25.031h-3.797v-3.787h3.797v3.787Zm1.412 1.413v-6.612h-6.632v6.612h6.632Z" fill="#231f20"></path><path fill="#e3e4e5" d="M17.615 7.019H31.28v69.474H17.615z"></path><path d="M1407.203 44.456h-160.558V8.432h160.558v36.024Zm1.412 1.413V7.019h-163.382v38.85h163.382Z" fill="#231f20"></path><path fill="#e3e4e5" d="M17.615 7.019h1.904v69.474h-1.904z"></path><path d="M1407.203 25.031h-160.578v-3.787h160.578v3.787Zm1.412 1.413v-6.612h-163.402v6.612h163.402Z" fill="#231f20"></path><path fill="#e3e4e5" d="M17.615 7.019h1.904v1.903h-1.904z"></path><path d="M1407.203 25.031h-3.797v-3.787h3.797v3.787Zm1.412 1.413v-6.612h-6.621v6.612h6.621Z" fill="#231f20"></path><path fill="#e3e4e5" d="M17.615 7.019h1.904v1.903h-1.904z"></path><path d="M1250.442 25.031h-3.797v-3.787h3.797v3.787Zm1.413 1.413v-6.612h-6.622v6.612h6.622Z" fill="#231f20"></path><path fill="#e3e4e5" d="M17.615 7.019h1.904v1.903h-1.904z"></path><path d="M1374.144 25.031h-3.807v-3.787h3.807v3.787Zm1.402 1.413v-6.612h-6.622v6.612h6.622Z" fill="#231f20"></path><path fill="#e3e4e5" d="M17.615 7.019H31.28v69.474H17.615z"></path><path d="M1684.149 44.456H1523.58V8.432h160.568v36.024Zm1.412 1.413V7.019H1522.17v38.85h163.392Z" fill="#231f20"></path><path fill="#e3e4e5" d="M17.615 7.019h1.904v69.474h-1.904z"></path><path d="M1684.149 25.031H1523.57v-3.787h160.578v3.787Zm1.412 1.413v-6.612H1522.16v6.612h163.402Z" fill="#231f20"></path><path fill="#e3e4e5" d="M17.615 7.019h1.904v1.903h-1.904z"></path><path d="M1684.149 25.031h-3.797v-3.787h3.797v3.787Zm1.412 1.413v-6.612h-6.622v6.612h6.622Z" fill="#231f20"></path><path fill="#e3e4e5" d="M17.615 7.019h1.904v1.903h-1.904z"></path><path d="M1527.388 25.031h-3.797v-3.787h3.797v3.787Zm1.413 1.413v-6.612h-6.632v6.612h6.632Z" fill="#231f20"></path><path fill="#e3e4e5" d="M17.615 7.019h1.904v1.903h-1.904z"></path><path d="M1651.08 25.031h-3.797v-3.787h3.796v3.787Zm1.412 1.413v-6.612h-6.622v6.612h6.622Z" fill="#231f20"></path><path fill="#e3e4e5" d="M17.615 7.019H31.28v69.474H17.615z"></path><path d="M1965.813 44.456h-160.558V8.432h160.558v36.024Zm1.412 1.413V7.019h-163.382v38.85h163.382Z" fill="#231f20"></path><path fill="#e3e4e5" d="M17.615 7.019h1.904v69.474h-1.904z"></path><path d="M1965.813 25.031h-160.578v-3.787h160.578v3.787Zm1.412 1.413v-6.612h-163.402v6.612h163.402Z" fill="#231f20"></path><path fill="#e3e4e5" d="M17.615 7.019h1.904v1.903h-1.904z"></path><path d="M1965.813 25.031h-3.797v-3.787h3.797v3.787Zm1.412 1.413v-6.612h-6.621v6.612h6.621Z" fill="#231f20"></path><path fill="#e3e4e5" d="M17.615 7.019h1.904v1.903h-1.904z"></path><path d="M1809.052 25.031h-3.797v-3.787h3.797v3.787Zm1.413 1.413v-6.612h-6.622v6.612h6.622Z" fill="#231f20"></path><path fill="#e3e4e5" d="M17.615 7.019h1.904v1.903h-1.904z"></path><path d="M1932.754 25.031h-3.807v-3.787h3.807v3.787Zm1.402 1.413v-6.612h-6.622v6.612h6.622Z" fill="#231f20"></path><path fill="#e3e4e5" d="M17.615 7.019H31.28v69.474H17.615z"></path><path d="M2242.759 44.456H2082.19V8.432h160.568v36.024Zm1.412 1.413V7.019h-163.393v38.85h163.393Z" fill="#231f20"></path><path fill="#e3e4e5" d="M17.615 7.019h1.904v69.474h-1.904z"></path><path d="M2242.759 25.031H2082.18v-3.787h160.578v3.787Zm1.412 1.413v-6.612h-163.403v6.612h163.403Z" fill="#231f20"></path><path fill="#e3e4e5" d="M17.615 7.019h1.904v1.903h-1.904z"></path><path d="M2242.759 25.031h-3.797v-3.787h3.797v3.787Zm1.412 1.413v-6.612h-6.622v6.612h6.622Z" fill="#231f20"></path><path fill="#e3e4e5" d="M17.615 7.019h1.904v1.903h-1.904z"></path><path d="M2085.998 25.031h-3.797v-3.787h3.797v3.787Zm1.412 1.413v-6.612h-6.622v6.612h6.622Z" fill="#231f20"></path><path fill="#e3e4e5" d="M17.615 7.019h1.904v1.903h-1.904z"></path><path d="M2209.69 25.031h-3.797v-3.787h3.796v3.787Zm1.412 1.413v-6.612h-6.622v6.612h6.622Z" fill="#231f20"></path></g><g data-name="1933163425504" fill="#e3e4e5" stroke-width="0"><path d="M17.615 7.019H31.28v69.474H17.615z"></path><path d="M17.615 7.019h1.904v69.474h-1.904z"></path><path d="M17.615 7.019h1.904v1.903h-1.904z"></path><path d="M17.615 7.019H31.28v69.474H17.615z"></path><path d="M17.615 7.019h1.904v69.474h-1.904z"></path><path d="M17.615 7.019h1.904v1.903h-1.904z"></path><path d="M17.615 7.019H31.28v69.474H17.615z"></path><path d="M17.615 7.019h1.904v69.474h-1.904z"></path><path d="M17.615 7.019h1.904v1.903h-1.904z"></path><path d="M17.615 7.019H31.28v69.474H17.615z"></path><path d="M17.615 7.019h1.904v69.474h-1.904z"></path><path d="M17.615 7.019h1.904v1.903h-1.904z"></path><path d="M17.615 7.019H31.28v69.474H17.615z"></path><path d="M17.615 7.019h1.904v69.474h-1.904z"></path><path d="M17.615 7.019h1.904v1.903h-1.904z"></path><path d="M17.615 7.019H31.28v69.474H17.615z"></path><path d="M17.615 7.019h1.904v69.474h-1.904z"></path><path d="M17.615 7.019h1.904v1.903h-1.904z"></path><path d="M17.615 7.019H31.28v69.474H17.615z"></path><path d="M17.615 7.019h1.904v69.474h-1.904z"></path><path d="M17.615 7.019h1.904v1.903h-1.904z"></path><path d="M17.615 7.019H31.28v69.474H17.615z"></path><path d="M17.615 7.019h1.904v69.474h-1.904z"></path><path d="M17.615 7.019h1.904v1.903h-1.904z"></path></g><g data-name="1930516424400" stroke-width="0"><path fill="#e3e4e5" d="M18.317 569.867h37.437v104.577H18.317z"></path><path d="M55.052 570.568v103.876H19.028V570.568h36.024Zm1.413-1.413h-38.85v106.701h38.85v-106.7Z" fill="#231f20"></path><path fill="#e3e4e5" d="M31.13 569.867h5.199v105.288h-5.2z"></path><path d="M35.627 570.568v103.896h-3.786V570.568h3.786Zm1.413-1.413h-6.612v106.721h6.612v-106.72Z" fill="#231f20"></path><path fill="#e3e4e5" d="M31.13 569.867h5.199v5.209h-5.2z"></path><path d="M35.627 570.568v3.797h-3.786v-3.797h3.786Zm1.413-1.413h-6.612v6.622h6.612v-6.622Z" fill="#231f20"></path><path fill="#e3e4e5" d="M31.13 669.936h5.199v5.22h-5.2z"></path><path d="M35.627 670.637v3.807h-3.786v-3.807h3.786Zm1.413-1.413h-6.612v6.632h6.612v-6.632Z" fill="#231f20"></path><path fill="#e3e4e5" d="M31.13 599.39h5.199v5.209h-5.2z"></path><path d="M35.627 600.09v3.808h-3.786v-3.807h3.786Zm1.413-1.412h-6.612v6.632h6.612v-6.632Z" fill="#231f20"></path><path fill="#e3e4e5" d="M18.317 346.657h37.437v104.577H18.317z"></path><path d="M55.052 347.358v103.876H19.028V347.358h36.024Zm1.413-1.412h-38.85v106.7h38.85v-106.7Z" fill="#231f20"></path><path fill="#e3e4e5" d="M31.13 346.657h5.199v105.288h-5.2z"></path><path d="M35.627 347.358v103.896h-3.786V347.358h3.786Zm1.413-1.412h-6.612v106.72h6.612v-106.72Z" fill="#231f20"></path><path fill="#e3e4e5" d="M31.13 346.657h5.199v5.21h-5.2z"></path><path d="M35.627 347.358v3.797h-3.786v-3.797h3.786Zm1.413-1.412h-6.612v6.632h6.612v-6.632Z" fill="#231f20"></path><path fill="#e3e4e5" d="M31.13 446.726h5.199v5.22h-5.2z"></path><path d="M35.627 447.427v3.807h-3.786v-3.807h3.786Zm1.413-1.402h-6.612v6.622h6.612v-6.622Z" fill="#231f20"></path><path fill="#e3e4e5" d="M31.13 376.18h5.199v5.21h-5.2z"></path><path d="M35.627 376.881v3.807h-3.786v-3.807h3.786Zm1.413-1.412h-6.612v6.631h6.612v-6.631Z" fill="#231f20"></path><path fill="#e3e4e5" d="M18.317 123.447h37.437v104.578H18.317z"></path><path d="M55.052 124.149v103.876H19.028V124.149h36.024Zm1.413-1.413h-38.85v106.701h38.85v-106.7Z" fill="#231f20"></path><path fill="#e3e4e5" d="M31.13 123.447h5.199v105.289h-5.2z"></path><path d="M35.627 124.149v103.896h-3.786V124.149h3.786Zm1.413-1.413h-6.612v106.721h6.612v-106.72Z" fill="#231f20"></path><path fill="#e3e4e5" d="M31.13 123.447h5.199v5.21h-5.2z"></path><path d="M35.627 124.149v3.806h-3.786v-3.806h3.786Zm1.413-1.413h-6.612v6.632h6.612v-6.632Z" fill="#231f20"></path><path fill="#e3e4e5" d="M31.13 223.517h5.199v5.219h-5.2z"></path><path d="M35.627 224.228v3.797h-3.786v-3.797h3.786Zm1.413-1.413h-6.612v6.622h6.612v-6.622Z" fill="#231f20"></path><path fill="#e3e4e5" d="M31.13 152.97h5.199v5.21h-5.2z"></path><path d="M35.627 153.672v3.806h-3.786v-3.806h3.786Zm1.413-1.403h-6.612v6.622h6.612v-6.622Z" fill="#231f20"></path></g><g data-name="1933040212656" stroke-width="0"><path fill="#e3e4e5" d="M2319.957 647.465h37.437V789.4h-37.437z"></path><path d="M2320.668 788.698V648.217h36.024v140.481h-36.024Zm-1.412 1.413h38.85V646.804h-38.85v143.307Z" fill="#231f20"></path><path fill="#e3e4e5" d="M2339.382 647.506h5.2V789.4h-5.2z"></path><path d="M2340.093 788.698V648.197h3.787v140.501h-3.787Zm-1.413 1.413h6.612V646.784h-6.612v143.327Z" fill="#231f20"></path><path fill="#e3e4e5" d="M2339.382 647.506h5.2v5.219h-5.2z"></path><path d="M2340.093 652.014v-3.797h3.787v3.797h-3.787Zm-1.413 1.412h6.612v-6.622h-6.612v6.622Z" fill="#231f20"></path><path fill="#e3e4e5" d="M2339.382 754.667h5.2v5.21h-5.2z"></path><path d="M2340.093 759.176v-3.807h3.787v3.807h-3.787Zm-1.413 1.412h6.612v-6.632h-6.612v6.632Z" fill="#231f20"></path></g><g data-name="1933040233584" stroke-width="0"><path fill="#e3e4e5" d="M2319.957 385.286h37.437V527.22h-37.437z"></path><path d="M2320.668 526.519V386.038h36.024v140.481h-36.024Zm-1.412 1.412h38.85V384.615h-38.85V527.93Z" fill="#231f20"></path><path fill="#e3e4e5" d="M2339.382 385.326h5.2V527.22h-5.2z"></path><path d="M2340.093 526.519V386.017h3.787V526.52h-3.787Zm-1.413 1.412h6.612V384.605h-6.612V527.93Z" fill="#231f20"></path><path fill="#e3e4e5" d="M2339.382 522.01h5.2v5.21h-5.2z"></path><path d="M2340.093 526.519v-3.807h3.787v3.807h-3.787Zm-1.413 1.412h6.612V521.3h-6.612v6.631Z" fill="#231f20"></path><path fill="#e3e4e5" d="M2339.382 385.326h5.2v5.22h-5.2z"></path><path d="M2340.093 389.834v-3.796h3.787v3.796h-3.787Zm-1.413 1.413h6.612v-6.632h-6.612v6.632Z" fill="#231f20"></path><path fill="#e3e4e5" d="M2339.382 492.488h5.2v5.21h-5.2z"></path><path d="M2340.093 496.996v-3.807h3.787v3.807h-3.787Zm-1.413 1.413h6.612v-6.632h-6.612v6.632Z" fill="#231f20"></path></g><g data-name="1933197024224" stroke-width="0"><path fill="#e3e4e5" d="M2319.957 124.289h37.437v141.934h-37.437z"></path><path d="M2320.668 265.522V125.03h36.024v140.492h-36.024Zm-1.412 1.402h38.85V123.618h-38.85v143.306Z" fill="#231f20"></path><path fill="#e3e4e5" d="M2339.382 124.329h5.2v141.894h-5.2z"></path><path d="M2340.093 265.522V125.01h3.787v140.512h-3.787Zm-1.413 1.402h6.612V123.608h-6.612v143.316Z" fill="#231f20"></path><path fill="#e3e4e5" d="M2339.382 261.014h5.2v5.209h-5.2z"></path><path d="M2340.093 265.522v-3.807h3.787v3.807h-3.787Zm-1.413 1.402h6.612v-6.622h-6.612v6.622Z" fill="#231f20"></path><path fill="#e3e4e5" d="M2339.382 124.329h5.2v5.22h-5.2z"></path><path d="M2340.093 128.837v-3.807h3.787v3.807h-3.787Zm-1.413 1.413h6.612v-6.632h-6.612v6.632Z" fill="#231f20"></path><path fill="#e3e4e5" d="M2339.382 231.48h5.2v5.21h-5.2z"></path><path d="M2340.093 235.989v-3.797h3.787v3.797h-3.787Zm-1.413 1.412h6.612v-6.621h-6.612v6.621Z" fill="#231f20"></path></g><path d="M125.418 132.514v7.403h-20.847a24 24 0 0 1 2.044-7.994c1.152-2.535 3.376-5.85 6.672-9.978 2.604-3.276 4.217-5.49 4.808-6.652.892-1.683 1.343-3.376 1.343-5.09 0-1.823-.371-3.185-1.102-4.127-.742-.921-1.714-1.382-2.906-1.382-2.624 0-4.037 2.174-4.247 6.532l-5.92-.882c.36-4.238 1.422-7.343 3.205-9.327 1.783-1.983 4.157-2.975 7.123-2.975 3.245 0 5.7 1.162 7.343 3.496 1.653 2.334 2.484 5.01 2.484 8.035 0 1.713-.21 3.366-.63 4.968s-1.073 3.216-1.944 4.84c-.882 1.622-2.335 3.696-4.388 6.21-1.904 2.375-3.106 3.937-3.617 4.709a13.35 13.35 0 0 0-1.232 2.214h11.811Z" stroke-width="0"></path><path data-name="1 36" d="M139.503 98.042c3.006 0 5.44 1.573 7.304 4.728 1.863 3.166 2.784 8.686 2.784 16.57 0 7.874-.921 13.384-2.784 16.55-1.864 3.155-4.288 4.728-7.274 4.728-3.015 0-5.45-1.563-7.313-4.688-1.853-3.136-2.785-8.686-2.785-16.67 0-7.834.932-13.324 2.785-16.49 1.864-3.155 4.288-4.728 7.283-4.728Zm.01 6.652c-1.162 0-2.093.851-2.795 2.554-.69 1.703-1.041 5.74-1.041 12.092 0 6.371.35 10.389 1.041 12.092.702 1.693 1.633 2.534 2.795 2.534 1.183 0 2.114-.851 2.805-2.554.692-1.693 1.032-5.72 1.032-12.072s-.34-10.389-1.032-12.092-1.622-2.554-2.805-2.554Z" fill="#000" stroke-width="0"></path><path data-name="2 37" d="M158.708 117.367c-1.433-.832-2.535-1.964-3.266-3.407-.731-1.432-1.092-3.165-1.092-5.199 0-3.266.842-5.87 2.525-7.814 1.673-1.933 3.937-2.905 6.792-2.905 3.015 0 5.31 1.042 6.892 3.116 1.573 2.063 2.364 4.578 2.364 7.553 0 2.024-.39 3.777-1.152 5.26-.771 1.492-1.823 2.614-3.155 3.396 1.783.951 3.115 2.284 3.987 3.997.881 1.723 1.322 3.827 1.322 6.341 0 2.575-.43 4.849-1.292 6.822-.872 1.974-2.074 3.486-3.597 4.528-1.532 1.042-3.245 1.563-5.149 1.563-2.995 0-5.46-1.142-7.413-3.426-1.944-2.284-2.915-5.37-2.915-9.237 0-2.514.44-4.658 1.332-6.461.892-1.803 2.164-3.176 3.817-4.127Zm1.252-8.015c0 1.613.34 2.855 1.042 3.717.691.871 1.573 1.302 2.635 1.302 1.082 0 1.973-.43 2.674-1.302.702-.862 1.052-2.104 1.052-3.717 0-1.573-.34-2.785-1.032-3.646-.7-.872-1.572-1.303-2.614-1.303-1.102 0-2.004.431-2.695 1.313-.711.871-1.062 2.083-1.062 3.636Zm-.581 17.842c0 2.244.43 3.967 1.282 5.18.862 1.222 1.894 1.833 3.086 1.833 1.212 0 2.214-.581 3.025-1.743.822-1.152 1.232-2.896 1.232-5.21 0-1.993-.42-3.566-1.252-4.728-.831-1.152-1.853-1.733-3.075-1.733-1.202 0-2.214.58-3.046 1.743-.841 1.172-1.252 2.725-1.252 4.658Z" fill="#000" stroke-width="0"></path><path data-name="3 38" d="m189.854 130.24 5.76-.872c.28 3.106 1.392 4.658 3.366 4.658 1.322 0 2.404-.771 3.246-2.324.851-1.543 1.392-4.668 1.633-9.397-.742 1.162-1.573 2.034-2.505 2.615-.931.591-1.963.882-3.105.882-2.355 0-4.438-1.243-6.252-3.717-1.823-2.484-2.724-5.78-2.724-9.888 0-4.398.951-7.854 2.865-10.378 1.913-2.515 4.257-3.777 7.072-3.777 3.136 0 5.72 1.623 7.744 4.869 2.034 3.255 3.056 8.645 3.056 16.169 0 7.653-1.062 13.153-3.176 16.51-2.124 3.345-4.869 5.028-8.245 5.028-2.344 0-4.277-.841-5.8-2.544-1.533-1.693-2.505-4.308-2.935-7.834Zm13.484-17.462c0-2.594-.451-4.598-1.343-6-.891-1.383-1.913-2.084-3.055-2.084-1.102 0-2.024.57-2.745 1.723-.741 1.152-1.102 3.065-1.102 5.74 0 2.685.39 4.649 1.192 5.89s1.793 1.864 2.965 1.864c1.132 0 2.084-.591 2.896-1.773.801-1.202 1.192-2.975 1.192-5.36Z" fill="#000" stroke-width="0"></path><path data-name="4 39" d="M178.744 131.933h5.92v5.72c0 3.246-.34 5.66-1.032 7.243-.831 1.953-2.234 3.406-4.207 4.358l-1.162-3.306c1.162-.531 2.003-1.253 2.514-2.154.511-.912.782-2.204.822-3.877h-2.855v-7.984Z" fill="#000" stroke-width="0"></path><path data-name="5" d="M223.935 98.042c3.005 0 5.44 1.573 7.303 4.728 1.863 3.166 2.785 8.686 2.785 16.57 0 7.874-.922 13.384-2.785 16.55-1.864 3.155-4.288 4.728-7.273 4.728-3.016 0-5.45-1.563-7.313-4.688-1.864-3.136-2.785-8.686-2.785-16.67 0-7.834.921-13.324 2.785-16.49 1.863-3.155 4.287-4.728 7.283-4.728Zm.01 6.652c-1.162 0-2.094.851-2.795 2.554-.692 1.703-1.042 5.74-1.042 12.092 0 6.371.35 10.389 1.042 12.092.7 1.693 1.633 2.534 2.795 2.534 1.182 0 2.113-.851 2.805-2.554.69-1.693 1.031-5.72 1.031-12.072s-.34-10.389-1.031-12.092-1.623-2.554-2.805-2.554Z" fill="#000" stroke-width="0"></path><g data-name="1933077251760" fill="#58595b" stroke-width="0"><path d="M1993.102 479.755h-5.21c-20.606 0-37.346-6.421-48.927-17.972-11.581-11.55-18.022-28.25-18.022-48.797v-5.88h-.992v5.88c0 20.827 6.542 37.757 18.313 49.498s28.751 18.263 49.629 18.263h5.209v-.992Z"></path><path d="M1990.858 407.105v73.642h2.955v-73.642h-2.955z"></path><path d="M1994.324 415.41h4.197v-8.305h-4.788v8.305h.591Zm3.015-1.172h-2.424v-5.95h2.424v5.95Zm-81.586 1.172h4.198v-8.305h-4.789v8.305h.591Zm3.016-1.172h-2.425v-5.95h2.425v5.95Z"></path></g><g data-name="1933077250320" fill="#58595b" stroke-width="0"><path d="M2024.849 427.722v5.21c0 20.606 6.421 37.346 17.972 48.927 11.55 11.59 28.25 18.022 48.797 18.022h5.88v.992h-5.88c-20.817 0-37.757-6.542-49.498-18.313-11.741-11.76-18.263-28.741-18.263-49.629v-5.209h.992Z"></path><path d="M2097.499 429.966h-73.642v-2.945h73.642v2.945z"></path><path d="M2089.194 426.5v-4.188h8.305v4.779h-8.305v-.591Zm1.182-3.015v2.424h5.94v-2.424h-5.94Zm-1.182 81.585v-4.197h8.305v4.789h-8.305v-.591Zm1.182-3.015v2.425h5.94v-2.425h-5.94Z"></path></g><g data-name="1933077254640" fill="#58595b" stroke-width="0"><path d="M1960.503 771.127v-5.22c0-20.606 6.422-37.346 17.973-48.927 11.55-11.58 28.25-18.012 48.797-18.012h5.88v-1.002h-5.88c-20.827 0-37.758 6.542-49.499 18.313-11.74 11.77-18.262 28.751-18.262 49.629v5.219h.992Z"></path><path d="M2024.849 693.768v4.198h8.304v-4.789h-8.304v.591Zm1.182 3.016v-2.424h5.94v2.424h-5.94Z"></path></g><path d="M1344.871 306.746h-2.364v-23.332c-.551.811-1.282 1.643-2.204 2.494-.921.842-1.763 1.483-2.534 1.924v-3.507c1.302-.951 2.454-2.123 3.456-3.506 1.002-1.372 1.713-2.715 2.114-4.027h1.532v29.954Z" stroke-width="0"></path><path data-name="1 60" d="m1351.323 299.823 2.274-.29c.36 3.145 1.442 4.708 3.216 4.708.791 0 1.512-.34 2.163-1.022.642-.691 1.193-1.913 1.643-3.666s.682-3.797.682-6.141v-.732c-.501 1.213-1.162 2.164-1.994 2.876-.841.71-1.693 1.061-2.565 1.061-1.572 0-2.925-.861-4.067-2.604-1.142-1.743-1.713-4.138-1.713-7.153 0-3.126.591-5.58 1.783-7.383 1.172-1.793 2.615-2.685 4.308-2.685 1.192 0 2.314.49 3.356 1.503 1.042 1.001 1.843 2.474 2.414 4.438.561 1.953.842 4.758.842 8.435 0 4.097-.3 7.283-.912 9.547s-1.433 3.917-2.474 4.959c-1.042 1.052-2.214 1.572-3.507 1.572-1.472 0-2.694-.63-3.676-1.903-.992-1.272-1.573-3.116-1.773-5.52Zm9.717-13.173c0-2.134-.38-3.807-1.132-5.03s-1.613-1.833-2.585-1.833c-1.021 0-1.923.651-2.724 1.954-.802 1.302-1.203 3.035-1.203 5.21 0 1.963.381 3.515 1.143 4.678s1.673 1.743 2.734 1.743c1.052 0 1.944-.581 2.675-1.753.722-1.163 1.092-2.826 1.092-4.97Z" fill="#000" stroke-width="0"></path><path data-name="2 61" d="M1369.646 290.567a5.155 5.155 0 0 1-2.154-2.325c-.491-1.011-.732-2.274-.732-3.776 0-2.264.531-4.118 1.583-5.54 1.052-1.423 2.374-2.134 3.957-2.134 1.603 0 2.935.721 3.997 2.174 1.062 1.452 1.593 3.326 1.593 5.62 0 1.432-.24 2.655-.711 3.656a5.176 5.176 0 0 1-2.144 2.325c1.172.59 2.074 1.522 2.705 2.835.631 1.292.942 2.915.942 4.838 0 2.645-.611 4.819-1.824 6.492s-2.724 2.514-4.518 2.514c-1.813 0-3.336-.841-4.548-2.514-1.212-1.673-1.813-3.867-1.813-6.602 0-1.993.32-3.636.971-4.929s1.553-2.174 2.695-2.634Zm-.441-6.222c0 1.473.3 2.645.901 3.507.612.871 1.353 1.312 2.234 1.312.862 0 1.603-.43 2.204-1.282.611-.862.912-1.974.912-3.326 0-1.403-.31-2.545-.932-3.436-.63-.892-1.362-1.333-2.214-1.333s-1.582.441-2.194 1.303c-.61.871-.911 1.963-.911 3.256Zm-.792 13.795c0 1.833.381 3.306 1.153 4.418.77 1.122 1.703 1.683 2.775 1.683 1.091 0 2.013-.54 2.765-1.623.76-1.092 1.142-2.544 1.142-4.358 0-1.823-.391-3.296-1.172-4.418s-1.713-1.683-2.795-1.683c-1.082 0-1.994.561-2.745 1.673-.752 1.112-1.122 2.545-1.122 4.308Z" fill="#000" stroke-width="0"></path><path data-name="3 62" d="M1388.65 280.79v-3.507h12.482v2.855c-1.863 3.065-3.496 7.063-4.909 11.981s-2.224 9.788-2.434 14.627h-2.435c.03-2.505.34-5.42.932-8.746.591-3.326 1.403-6.502 2.444-9.517 1.032-3.006 2.144-5.58 3.336-7.694h-9.417Z" fill="#000" stroke-width="0"></path><path data-name="4 63" d="M1382.338 306.746v-4.168h2.695v4.178c0 1.612-.19 2.875-.56 3.796-.382.912-.922 1.623-1.644 2.104l-.661-1.563c.48-.33.841-.811 1.082-1.462.25-.641.38-1.613.4-2.885h-1.312Z" fill="#000" stroke-width="0"></path><path data-name="5 64" d="M1403.496 292.02c0-5 .531-8.787 1.593-11.361 1.072-2.575 2.635-3.867 4.708-3.867 1.844 0 3.286 1.042 4.348 3.126 1.282 2.534 1.924 6.561 1.924 12.101 0 4.98-.521 8.766-1.583 11.35-1.062 2.585-2.635 3.877-4.719 3.877-1.833 0-3.335-1.142-4.508-3.416-1.172-2.284-1.763-6.22-1.763-11.81Zm2.435 0c0 4.838.37 8.104 1.102 9.747.73 1.653 1.663 2.474 2.805 2.474 1.082 0 1.983-.831 2.714-2.504.722-1.673 1.082-4.91 1.082-9.718 0-4.869-.36-8.124-1.092-9.767s-1.683-2.465-2.845-2.465c-1.072 0-1.963.832-2.684 2.505-.712 1.673-1.082 4.909-1.082 9.727Z" fill="#000" stroke-width="0"></path><path d="M1943.062 435.486v3.506h-12.803c-.03-1.422.31-3.025 1.022-4.788.711-1.753 2.024-3.837 3.917-6.241 2.224-2.795 3.677-4.97 4.368-6.492.681-1.533 1.032-2.955 1.032-4.278 0-1.522-.35-2.765-1.062-3.726-.702-.952-1.563-1.433-2.595-1.433-1.112 0-2.014.511-2.725 1.543-.701 1.042-1.062 2.524-1.062 4.458l-2.434-.38c.17-2.856.811-5.01 1.923-6.452s2.565-2.174 4.388-2.174c1.974 0 3.466.841 4.478 2.524s1.523 3.597 1.523 5.74a13.05 13.05 0 0 1-1.192 5.46c-.792 1.753-2.315 4.078-4.528 6.983-1.423 1.833-2.345 3.085-2.755 3.756a12.438 12.438 0 0 0-1.012 1.994h9.517Z" stroke-width="0"></path><path data-name="1 65" d="M1953.23 413.036v-3.506h12.483v2.855c-1.864 3.065-3.497 7.062-4.91 11.981s-2.223 9.788-2.434 14.626h-2.434c.03-2.504.34-5.42.932-8.745a63.903 63.903 0 0 1 2.434-9.517c1.032-3.006 2.154-5.58 3.346-7.694h-9.417Z" fill="#000" stroke-width="0"></path><path data-name="2 66" d="M1946.92 438.992v-4.167h2.694v4.167c0 1.623-.19 2.885-.561 3.807-.38.912-.932 1.623-1.643 2.104l-.661-1.563c.48-.33.841-.811 1.082-1.463.25-.64.38-1.612.4-2.885h-1.312Z" fill="#000" stroke-width="0"></path><path data-name="3 67" d="M1968.077 424.266c0-4.999.53-8.786 1.593-11.36 1.072-2.585 2.634-3.877 4.708-3.877 1.843 0 3.286 1.042 4.348 3.135 1.282 2.525 1.923 6.562 1.923 12.102 0 4.979-.52 8.766-1.582 11.35-1.062 2.585-2.635 3.877-4.719 3.877-1.833 0-3.336-1.142-4.518-3.416-1.162-2.284-1.753-6.221-1.753-11.811Zm2.434 0c0 4.839.371 8.094 1.102 9.747.732 1.653 1.663 2.475 2.805 2.475 1.082 0 1.984-.832 2.715-2.505.721-1.673 1.082-4.908 1.082-9.717 0-4.869-.37-8.125-1.092-9.768-.731-1.643-1.683-2.464-2.845-2.464-1.072 0-1.963.832-2.685 2.505s-1.082 4.908-1.082 9.727Z" fill="#000" stroke-width="0"></path><path d="M2063.037 469.257v3.496h-12.803c-.04-1.423.3-3.026 1.012-4.789.72-1.753 2.023-3.837 3.927-6.241 2.223-2.795 3.676-4.959 4.357-6.492.691-1.532 1.032-2.955 1.032-4.277 0-1.523-.35-2.765-1.052-3.717-.7-.962-1.572-1.443-2.604-1.443-1.103 0-2.014.511-2.715 1.553-.712 1.032-1.062 2.515-1.062 4.448l-2.445-.37c.17-2.866.812-5.02 1.934-6.462 1.102-1.443 2.565-2.164 4.378-2.164 1.973 0 3.466.842 4.488 2.515 1.012 1.693 1.513 3.596 1.513 5.74 0 1.903-.391 3.717-1.183 5.46-.801 1.753-2.314 4.077-4.538 6.992-1.422 1.833-2.334 3.076-2.744 3.747a11.35 11.35 0 0 0-1.012 2.003h9.517Z" stroke-width="0"></path><path data-name="1 68" d="M2066.884 472.753v-4.168h2.695v4.178c0 1.613-.18 2.875-.561 3.797-.371.911-.922 1.622-1.644 2.103l-.65-1.562c.47-.331.83-.812 1.071-1.463.25-.641.38-1.613.411-2.885h-1.322Z" fill="#000" stroke-width="0"></path><path data-name="2 69" d="M2088.052 458.026c0-4.999.53-8.785 1.593-11.36s2.634-3.867 4.708-3.867c1.834 0 3.286 1.042 4.348 3.126 1.282 2.534 1.924 6.561 1.924 12.101 0 4.98-.531 8.766-1.583 11.35-1.062 2.585-2.635 3.878-4.719 3.878-1.844 0-3.346-1.142-4.518-3.416-1.172-2.285-1.753-6.222-1.753-11.812Zm2.434 0c0 4.839.37 8.105 1.092 9.748.731 1.653 1.673 2.474 2.815 2.474 1.082 0 1.984-.831 2.705-2.504.731-1.673 1.092-4.909 1.092-9.718 0-4.868-.37-8.124-1.102-9.767s-1.673-2.464-2.845-2.464c-1.062 0-1.964.831-2.675 2.504-.721 1.673-1.082 4.909-1.082 9.727Z" fill="#000" stroke-width="0"></path><path data-name="3 70" d="M2073.205 446.796V443.3h12.472v2.845c-1.863 3.066-3.496 7.063-4.898 11.982-1.413 4.918-2.224 9.787-2.445 14.626h-2.434c.04-2.505.35-5.42.932-8.746a63.45 63.45 0 0 1 2.444-9.507c1.032-3.015 2.144-5.59 3.346-7.704h-9.417Z" fill="#000" stroke-width="0"></path><path d="M437.497 392.87v-7.123h-8.355v-3.376l8.746-19.335h1.983v19.335h2.635v3.376h-2.635v7.123h-2.374Zm0-10.5v-13.453l-6.01 13.454h6.01Z" stroke-width="0"></path><path data-name="1 74" d="M446.253 392.87v-4.168h2.704v4.178c0 1.613-.19 2.875-.57 3.797-.371.911-.922 1.622-1.634 2.113l-.66-1.572c.47-.331.84-.812 1.081-1.463.24-.641.37-1.603.4-2.885h-1.321Z" fill="#000" stroke-width="0"></path><path data-name="2 75" d="M467.42 378.153c0-4.999.531-8.795 1.593-11.37 1.072-2.575 2.635-3.867 4.709-3.867 1.843 0 3.286 1.042 4.348 3.126 1.282 2.534 1.923 6.561 1.923 12.111 0 4.98-.53 8.756-1.583 11.34-1.062 2.585-2.635 3.878-4.718 3.878-1.844 0-3.346-1.142-4.518-3.416s-1.753-6.212-1.753-11.802Zm2.435-.01c0 4.85.37 8.105 1.102 9.748.721 1.653 1.663 2.474 2.805 2.474 1.082 0 1.983-.831 2.705-2.504.731-1.673 1.092-4.909 1.092-9.718 0-4.868-.371-8.114-1.102-9.767-.732-1.643-1.673-2.465-2.835-2.465-1.072 0-1.964.832-2.685 2.515-.721 1.673-1.082 4.909-1.082 9.717Z" fill="#000" stroke-width="0"></path><path data-name="3 76" d="M456.08 376.7a5.178 5.178 0 0 1-2.154-2.333c-.48-1.012-.731-2.274-.731-3.777 0-2.264.531-4.118 1.583-5.54s2.374-2.134 3.957-2.134c1.603 0 2.935.731 3.997 2.174 1.062 1.453 1.593 3.336 1.593 5.62 0 1.443-.24 2.655-.711 3.657s-1.182 1.773-2.144 2.334c1.172.58 2.074 1.522 2.705 2.825.63 1.292.941 2.915.941 4.838 0 2.655-.61 4.82-1.823 6.492-1.212 1.673-2.725 2.515-4.518 2.515-1.813 0-3.336-.842-4.548-2.515-1.212-1.673-1.813-3.867-1.813-6.592 0-1.993.32-3.646.971-4.939.651-1.292 1.543-2.173 2.695-2.624Zm-.44-6.22c0 1.472.3 2.634.901 3.506.611.861 1.352 1.302 2.234 1.302.862 0 1.603-.43 2.204-1.282.611-.852.912-1.964.912-3.326 0-1.403-.311-2.545-.932-3.436-.631-.882-1.363-1.333-2.214-1.333s-1.583.441-2.194 1.313c-.611.861-.912 1.953-.912 3.256Zm-.792 13.784c0 1.834.38 3.306 1.152 4.428.771 1.112 1.703 1.673 2.775 1.673 1.092 0 2.014-.54 2.765-1.623.761-1.092 1.142-2.534 1.142-4.347 0-1.834-.39-3.306-1.172-4.428-.782-1.112-1.713-1.683-2.795-1.683s-1.994.56-2.745 1.673c-.751 1.112-1.122 2.544-1.122 4.307Z" fill="#000" stroke-width="0"></path><path d="M1996.488 746.453v3.506h-12.803c-.03-1.423.31-3.025 1.022-4.789.71-1.753 2.023-3.836 3.917-6.24 2.224-2.796 3.676-4.97 4.367-6.492.682-1.533 1.032-2.956 1.032-4.278 0-1.523-.35-2.765-1.062-3.727-.701-.951-1.563-1.432-2.594-1.432-1.112 0-2.014.51-2.725 1.553-.701 1.031-1.062 2.514-1.062 4.448l-2.435-.381c.17-2.855.812-5.009 1.924-6.452s2.564-2.163 4.388-2.163c1.973 0 3.466.831 4.478 2.514 1.011 1.693 1.522 3.597 1.522 5.74 0 1.904-.4 3.717-1.192 5.46-.791 1.753-2.314 4.077-4.528 6.983-1.423 1.843-2.344 3.085-2.755 3.756-.41.661-.751 1.333-1.012 1.994h9.517Z" stroke-width="0"></path><path data-name="1 81" d="M2000.345 749.959v-4.167h2.695v4.167c0 1.623-.19 2.885-.561 3.807-.381.911-.922 1.623-1.643 2.104l-.662-1.563c.481-.33.842-.812 1.082-1.463.25-.641.381-1.613.401-2.885h-1.312Z" fill="#000" stroke-width="0"></path><path data-name="2 82" d="M2021.503 735.233c0-5 .53-8.786 1.592-11.36 1.072-2.575 2.635-3.868 4.709-3.868 1.843 0 3.286 1.042 4.347 3.126 1.283 2.524 1.924 6.562 1.924 12.102 0 4.979-.521 8.765-1.583 11.35-1.062 2.585-2.635 3.877-4.718 3.877-1.833 0-3.336-1.142-4.518-3.416-1.162-2.284-1.753-6.221-1.753-11.811Zm2.434 0c0 4.838.37 8.104 1.102 9.747.731 1.653 1.663 2.474 2.805 2.474 1.082 0 1.984-.831 2.715-2.504.721-1.673 1.082-4.909 1.082-9.717 0-4.87-.36-8.125-1.092-9.768s-1.683-2.464-2.845-2.464c-1.072 0-1.964.831-2.685 2.504-.711 1.673-1.082 4.909-1.082 9.728Z" fill="#000" stroke-width="0"></path><path data-name="3 83" d="m2006.496 742.125 2.504-.29c.19 1.893.631 3.305 1.302 4.237.682.922 1.473 1.382 2.375 1.382 1.122 0 2.084-.65 2.905-1.963.812-1.302 1.212-3.096 1.212-5.36 0-2.133-.39-3.786-1.172-4.958-.791-1.173-1.773-1.754-2.965-1.754-.711 0-1.383.25-2.014.762s-1.122 1.212-1.482 2.114l-2.234-.451 1.873-15.348h9.577v3.507h-7.704l-1.022 8.064c1.143-1.272 2.355-1.904 3.637-1.904 1.623 0 3.025.882 4.228 2.625 1.182 1.743 1.783 4.088 1.783 7.043 0 2.915-.601 5.42-1.794 7.503s-2.795 3.126-4.808 3.126c-1.673 0-3.086-.741-4.228-2.214-1.162-1.473-1.813-3.516-1.973-6.121Z" fill="#000" stroke-width="0"></path><path fill="#58595b" stroke-width="0" d="M496.102 369.177h138.067v-8.305H496.102v8.305z"></path><path fill="#58595b" stroke-width="0" d="M634.169 512.324V360.872h-8.305v151.452h8.305zm-99.438.871v-60.658h-8.315v60.658h8.315zm-126.486 0V360.872h-8.315v152.323h8.315z"></path><g data-name="1933077310896" fill="#010101" stroke-width="0"><path d="M582.426 468.655c0 .22-.03.642-.04.772v24.323h-27.168v-24.443c0-.01-.03-.431-.03-.652 0-7.273 6.1-13.203 13.614-13.203s13.624 5.93 13.624 13.203Zm1.653 0c0-8.204-6.842-14.856-15.277-14.856s-15.277 6.652-15.277 14.856c0 .26.04.772.04.772v25.976h30.474v-25.976s.04-.511.04-.772Z"></path><path d="M579.03 497.597h-20.456v-1.703h20.456v1.703Zm1.653 1.663v-5.029h-23.762v5.03h23.762Z"></path></g><g data-name="1933077309360"><path d="M488.699 467.303h-40.763v36.295h40.763v-36.295Zm1.282-1.292v38.87h-43.338l.01-38.87h43.328Z" fill="#231f20" stroke-width="0"></path><path d="M483.079 471.49a1.74 1.74 0 0 0-1.734-1.733H455.4c-.962 0-1.733.782-1.733 1.734v13.814c0 .962.771 1.733 1.733 1.733h25.946c.952 0 1.734-.771 1.734-1.733V471.49Zm1.282 0v13.815a3.006 3.006 0 0 1-3.016 3.016H455.4a3.006 3.006 0 0 1-3.015-3.016V471.49a3.018 3.018 0 0 1 3.015-3.015h25.956a3.01 3.01 0 0 1 3.006 3.016Zm-13.074 18.864c0-.58.471-1.042 1.042-1.042s1.032.461 1.032 1.042c0 .571-.46 1.042-1.032 1.042s-1.042-.47-1.042-1.042Zm-7.904 0c0-.58.461-1.042 1.032-1.042.581 0 1.042.461 1.042 1.042a1.04 1.04 0 0 1-1.042 1.042 1.04 1.04 0 0 1-1.032-1.042Z" fill="#231f20" stroke-width="0"></path><path fill="none" stroke="#231f20" stroke-linecap="round" stroke-miterlimit="22.967" stroke-width=".471" d="M468.372 491.116v-7.053"></path><path d="M486.545 500.512h-2.575v3.086h2.575v-3.086Zm1.282-1.292v5.66h-5.14v-5.66h5.15-.01Zm-35.053 1.292H450.2v3.086h2.574v-3.086Zm1.283-1.292v5.66h-5.15v-5.66h5.15Z" fill="#010101" stroke-width="0"></path><path fill="none" stroke="#010101" stroke-linecap="round" stroke-linejoin="round" stroke-width=".471" d="M482.858 502.055h-28.801"></path></g><g data-name="1933095743344" fill="#58595b" stroke-width="0"><path d="M418.152 433.522h5.22c20.607 0 37.346-6.421 48.927-17.972s18.022-28.25 18.022-48.797v-5.88h.992v5.88c0 20.827-6.542 37.768-18.313 49.499-11.77 11.74-28.751 18.262-49.628 18.262h-5.22v-.991Z"></path><path d="M420.406 360.872v73.642h-2.955v-73.642h2.955z"></path><path d="M416.94 369.177h-4.197v-8.305h4.788v8.305h-.59Zm-3.015-1.172h2.424v-5.95h-2.424v5.95Zm81.585 1.172h-4.197v-8.305h4.789v8.305h-.591Zm-3.015-1.172h2.425v-5.95h-2.425v5.95Z"></path></g><g data-name="1933095748816" fill="#58595b" stroke-width="0"><path d="M599.066 374.597v5.21c0 20.606-6.421 37.346-17.972 48.927-11.55 11.59-28.24 18.022-48.797 18.022h-5.88v.992h5.88c20.827 0 37.767-6.542 49.498-18.313 11.741-11.76 18.263-28.751 18.263-49.629v-5.209h-.992Z"></path><path d="M526.416 376.841h73.642v-2.945h-73.642v2.945z"></path><path d="M534.731 373.375v-4.198h-8.315v4.789h8.315v-.591Zm-1.182-3.016v2.425h-5.95v-2.425h5.95Zm1.182 81.586v-4.197h-8.315v4.789h8.315v-.592Zm-1.182-3.015v2.424h-5.95v-2.424h5.95Z"></path></g><path fill="#58595b" stroke-width="0" d="M412.743 369.177H399.93v-8.305h12.813v8.305z"></path></g></g></svg>