<?xml version="1.0" encoding="UTF-8"?>
<svg id="_Слой_1" data-name="Слой_1" xmlns="http://www.w3.org/2000/svg" xmlns:xlink="http://www.w3.org/1999/xlink" version="1.1" viewBox="0 0 704.59 606.57">
  <!-- Generator: Adobe Illustrator 29.5.1, SVG Export Plug-In . SVG Version: 2.1.0 Build 141)  -->
  <defs>
    <style>
      .st0, .st1 {
        fill: none;
      }

      .st1 {
        display: none;
      }

      .st2 {
        stroke-miterlimit: 22.97;
      }

      .st2, .st3, .st4 {
        fill: #214270;
      }

      .st2, .st4 {
        stroke: #fff;
        stroke-linecap: round;
        stroke-width: .47px;
      }

      .st4 {
        stroke-linejoin: round;
      }

      .st5 {
        clip-path: url(#clippath);
      }
    </style>
    <clipPath id="clippath">
      <polygon class="st0" points="704.58 606.53 245.83 606.57 245.83 605.01 74.27 606.11 0 578.11 0 514.24 74.27 514.24 74.27 .04 700.48 0 704.59 606.53 704.58 606.53"/>
    </clipPath>
  </defs>
  <path class="st1" d="M704.58,606.53l-458.76.04v-1.56l-171.56,1.1L0,578.11v-63.88h74.27V.04l626.22-.04,4.1,606.53h0Z"/>
  <path class="st1" d="M81.45,604.78l-1.23-583.37,591.58,1.89v571.32l-582.49,10.39-7.86-.24h0Z"/>
  <g class="st5">
    <g>
      <path class="st3" d="M-1620.83,5.29H700.23v1686.99H-1640.26V5.29h19.43ZM661.38,44.13H-1601.41v1609.31H661.38V44.13h0Z"/>
      <g>
        <path class="st3" d="M74.27,392.02v119.44h23.61v-119.44h-23.61,0ZM74.27,43.63v101.98h23.61V43.63h-23.61,0Z"/>
        <path class="st3" d="M91.98,138.96v366.02h-17.71V138.96h17.71Z"/>
        <path class="st3" d="M32.17,493.75h48.05v17.71h-48.05v-17.71ZM-110.74,409.65H74.27v17.72H-110.74v-17.72ZM245.83,607.22h418.77v-17.72H245.83v17.72h0Z"/>
        <path class="st3" d="M245.83,589.49v60.99h17.71v-60.99h-17.71ZM80.45,596.74v55.62h17.71v-55.62h-17.71Z"/>
      </g>
      <path class="st3" d="M245.83,409.53v183.58h8.32v-183.58h-8.32ZM340.65,413.68h98.98v-8.3h-98.98v8.3h0ZM289.08,666.27v-63.75h8.31v63.75h-8.31ZM94.76,596.7h151.07v8.32H94.76v-8.32h0Z"/>
      <path class="st3" d="M353.41,589.49v-182.5h-8.3v182.5h8.3ZM439.62,589.49v-85.56h-8.3v85.56h8.3ZM439.62,420.58v-13.01h-8.3v13.01h8.3ZM245.83,413.68h11.46v-8.3h-11.46v8.3h0ZM366.97,691.45v-91.65h8.31v91.65h-8.31ZM-103.65,511.46H32.8v-8.32H-103.65v8.32Z"/>
      <g>
        <path class="st3" d="M384.01,576.46c-.22,0-.64-.04-.77-.04h-24.32v-27.17h24.44s.43-.04.65-.04c7.28,0,13.2,6.11,13.2,13.62s-5.92,13.62-13.2,13.62h0ZM384.01,578.11c8.2,0,14.86-6.84,14.86-15.28s-6.65-15.28-14.86-15.28c-.26,0-.77.04-.77.04h-25.98v30.47h25.98s.51.04.77.04h0Z"/>
        <path class="st3" d="M355.07,573.07v-20.46h1.7v20.46h-1.7ZM353.41,574.72h5.03v-23.76h-5.03v23.76Z"/>
      </g>
      <g>
        <path class="st3" d="M391,530.24v-40.76h-36.29v40.76h36.3,0ZM392.28,531.52h-38.87v-43.33h38.87v43.33Z"/>
        <path class="st3" d="M386.81,524.62c.95,0,1.73-.77,1.73-1.73v-25.95c0-.96-.78-1.73-1.73-1.73h-13.82c-.95,0-1.72.78-1.72,1.73v25.95c0,.96.77,1.73,1.72,1.73h13.82ZM386.81,525.9h-13.82c-1.66,0-3.01-1.35-3.02-3.01h0v-25.95c0-1.66,1.35-3.01,3.02-3.02h13.82c1.66,0,3.01,1.35,3.02,3.02v25.96c0,1.66-1.35,3.01-3.02,3.02h0ZM367.95,512.83c.57,0,1.04.47,1.04,1.04s-.47,1.04-1.04,1.04-1.04-.47-1.04-1.04.47-1.04,1.04-1.04h0ZM367.95,504.92c.57,0,1.04.47,1.04,1.04s-.47,1.03-1.04,1.03-1.04-.46-1.04-1.03.46-1.04,1.04-1.04h0Z"/>
        <path class="st2" d="M367.18,509.91h7.05"/>
        <path class="st3" d="M357.79,528.09v-2.58h-3.08v2.59h3.08ZM359.07,529.38h-5.65v-5.15h5.65v5.15h0ZM357.79,494.32v-2.58h-3.08v2.58h3.08ZM359.07,495.6h-5.65v-5.14h5.65v5.14Z"/>
        <path class="st4" d="M356.24,524.4v-28.8"/>
      </g>
      <g>
        <path class="st3" d="M323.74,585.52h-42.76c-2.7,0-5.16-1.11-6.94-2.89-1.85-1.84-2.88-4.34-2.89-6.94v-43.5c0-2.61,1.04-5.1,2.89-6.94,1.78-1.77,4.24-2.89,6.94-2.89h42.76c2.6,0,5.1,1.04,6.94,2.89,1.85,1.84,2.88,4.34,2.89,6.94v43.5c0,2.61-1.04,5.1-2.89,6.94-1.84,1.84-4.34,2.88-6.94,2.89ZM280.98,586.11h42.76c2.76,0,5.41-1.11,7.36-3.07,1.96-1.95,3.06-4.59,3.06-7.35v-43.5c0-2.76-1.1-5.41-3.06-7.35-1.95-1.96-4.6-3.06-7.36-3.07h-42.76c-2.76,0-5.41,1.1-7.36,3.07-1.96,1.95-3.06,4.59-3.06,7.35v43.5c0,2.76,1.1,5.41,3.06,7.35,1.95,1.96,4.6,3.06,7.36,3.07Z"/>
        <path class="st3" d="M322.25,583.31h-39.79c-2.42,0-4.74-.97-6.45-2.68-1.72-1.71-2.68-4.03-2.69-6.45v-40.47c0-2.51,1.03-4.8,2.69-6.45s3.94-2.67,6.45-2.67h39.79c2.42,0,4.73.96,6.44,2.67,1.72,1.71,2.68,4.03,2.69,6.45v40.47c0,2.51-1.03,4.8-2.69,6.45s-3.94,2.68-6.44,2.68ZM282.46,583.9h39.79c2.57,0,5.04-1.02,6.86-2.84,1.83-1.82,2.85-4.29,2.85-6.87v-40.47c0-2.58-1.03-5.05-2.85-6.87-1.82-1.82-4.29-2.85-6.86-2.84h-39.79c-2.58,0-5.05,1.02-6.87,2.84-1.82,1.82-2.85,4.29-2.85,6.87v40.47c0,2.58,1.03,5.05,2.85,6.87,1.82,1.82,4.3,2.84,6.87,2.84Z"/>
        <path class="st3" d="M336.33,588.32h-67.94v-68.75h67.94v68.75h0ZM267.8,589.49h69.71v-71.11h-70.31v71.11h.59Z"/>
        <path class="st3" d="M324.05,578.14c-.62,0-1.18-.25-1.58-.65-.42-.42-.66-.99-.66-1.58,0-.62.26-1.18.66-1.59.4-.4.97-.65,1.58-.65s1.18.25,1.59.65c.4.41.65.97.65,1.59s-.25,1.17-.65,1.58c-.43.42-1,.65-1.59.65h0ZM322.04,577.91c.51.51,1.22.82,2,.82,1.56,0,2.83-1.25,2.83-2.81h0c0-.77-.3-1.49-.83-2.02-.51-.52-1.22-.83-2-.83s-1.49.31-2,.83c-.53.53-.83,1.25-.83,2s.32,1.48.83,2h0Z"/>
      </g>
      <g>
        <path class="st3" d="M26.27,42.73h-160.57V6.7H26.27v36.02ZM27.69,44.14V5.29h-163.39v38.85H27.69Z"/>
        <path class="st3" d="M26.27,23.3h-160.58v-3.79H26.27v3.78h0ZM27.69,24.71v-6.61h-163.4v6.61H27.69Z"/>
        <path class="st3" d="M26.27,23.3h-3.8v-3.79h3.8v3.78h0ZM27.69,24.71v-6.61h-6.62v6.61h6.62ZM307.94,42.73h-160.56V6.7h160.56v36.02ZM309.35,44.14V5.29h-163.38v38.85h163.38,0Z"/>
        <path class="st3" d="M307.94,23.3h-160.58v-3.79h160.58v3.78h0ZM309.35,24.71v-6.61h-163.4v6.61h163.4Z"/>
        <path class="st3" d="M307.94,23.3h-3.8v-3.79h3.8v3.78h0ZM309.35,24.71v-6.61h-6.62v6.61h6.62ZM151.18,23.3h-3.8v-3.79h3.8v3.78h0ZM152.59,24.71v-6.61h-6.62v6.61h6.62ZM274.88,23.3h-3.81v-3.79h3.81v3.78h0ZM276.28,24.71v-6.61h-6.62v6.61h6.62ZM584.88,42.73h-160.57V6.7h160.57v36.02ZM586.3,44.14V5.29h-163.39v38.85s163.39,0,163.39,0Z"/>
        <path class="st3" d="M584.88,23.3h-160.58v-3.79h160.58v3.78h0ZM586.3,24.71v-6.61h-163.4v6.61h163.4Z"/>
        <path class="st3" d="M584.88,23.3h-3.8v-3.79h3.8v3.78h0ZM586.3,24.71v-6.61h-6.62v6.61h6.62ZM428.12,23.3h-3.8v-3.79h3.8v3.78h0ZM429.54,24.71v-6.61h-6.62v6.61h6.62ZM551.81,23.3h-3.8v-3.79h3.8v3.78h0ZM553.23,24.71v-6.61h-6.62v6.61h6.62Z"/>
      </g>
      <g>
        <path class="st3" d="M662.08,383.56h37.44v141.93h-37.44v-141.93Z"/>
        <path class="st3" d="M662.79,524.79v-140.48h36.02v140.48h-36.02ZM661.38,526.2h38.85v-143.32h-38.85v143.32h0Z"/>
        <path class="st3" d="M681.51,383.6h5.2v141.89h-5.2v-141.89Z"/>
        <path class="st3" d="M682.22,524.79v-140.5h3.79v140.5h-3.79ZM680.81,526.2h6.61v-143.33h-6.61v143.33h0Z"/>
        <path class="st3" d="M681.51,520.28h5.2v5.21h-5.2v-5.21Z"/>
        <path class="st3" d="M682.22,524.79v-3.81h3.79v3.81h-3.79ZM680.81,526.2h6.61v-6.63h-6.61v6.63Z"/>
        <path class="st3" d="M681.51,383.6h5.2v5.22h-5.2v-5.22Z"/>
        <path class="st3" d="M682.22,388.1v-3.8h3.79v3.8h-3.79ZM680.81,389.52h6.61v-6.63h-6.61v6.63Z"/>
        <path class="st3" d="M681.51,490.76h5.2v5.21h-5.2v-5.21Z"/>
        <path class="st3" d="M682.22,495.27v-3.81h3.79v3.81h-3.79ZM680.81,496.68h6.61v-6.63h-6.61v6.63Z"/>
      </g>
      <g>
        <path class="st3" d="M662.08,122.56h37.44v141.93h-37.44V122.56Z"/>
        <path class="st3" d="M662.79,263.79V123.3h36.02v140.49h-36.02ZM661.38,265.19h38.85V121.89h-38.85v143.31Z"/>
        <path class="st3" d="M681.51,122.6h5.2v141.89h-5.2V122.6Z"/>
        <path class="st3" d="M682.22,263.79V123.28h3.79v140.51h-3.79ZM680.81,265.19h6.61V121.88h-6.61v143.32Z"/>
        <path class="st3" d="M681.51,259.28h5.2v5.21h-5.2v-5.21Z"/>
        <path class="st3" d="M682.22,263.79v-3.81h3.79v3.81h-3.79ZM680.81,265.19h6.61v-6.62h-6.61v6.62Z"/>
        <path class="st3" d="M681.51,122.6h5.2v5.22h-5.2v-5.22Z"/>
        <path class="st3" d="M682.22,127.11v-3.81h3.79v3.81h-3.79ZM680.81,128.52h6.61v-6.63h-6.61v6.63Z"/>
        <path class="st3" d="M681.51,229.75h5.2v5.21h-5.2v-5.21Z"/>
        <path class="st3" d="M682.22,234.26v-3.8h3.79v3.8h-3.79ZM680.81,235.67h6.61v-6.62h-6.61v6.62Z"/>
      </g>
      <path class="st3" d="M148.31,128.02l5.92-.87c.16,1.82.66,3.27,1.53,4.32.85,1.05,1.8,1.57,2.83,1.57,1.22,0,2.27-.67,3.16-2,.87-1.33,1.31-3.38,1.31-6.14,0-2.61-.43-4.54-1.3-5.79s-1.98-1.87-3.33-1.87c-1.71,0-3.24,1.01-4.6,3.04l-4.84-.93,3.06-21.76h15.71v7.46h-11.14l-1,7.12c1.33-.9,2.7-1.34,4.08-1.34,2.44,0,4.52,1.06,6.21,3.19,2.15,2.71,3.24,6.29,3.24,10.73,0,3.67-.92,7.03-2.76,10.12-1.82,3.07-4.45,4.61-7.84,4.61-2.77,0-5.06-.99-6.9-2.98-1.85-1.98-2.96-4.81-3.35-8.46h0Z"/>
      <path class="st3" d="M182.39,96.87c3.02,0,5.44,1.57,7.3,4.74,1.86,3.15,2.79,8.68,2.79,16.56s-.92,13.39-2.79,16.55-4.29,4.74-7.27,4.74-5.45-1.57-7.3-4.7c-1.86-3.14-2.8-8.69-2.8-16.66s.93-13.33,2.8-16.49c1.85-3.17,4.28-4.74,7.27-4.74ZM182.4,103.53c-1.16,0-2.09.85-2.8,2.56-.69,1.7-1.03,5.74-1.03,12.09s.34,10.4,1.03,12.1c.7,1.68,1.63,2.53,2.8,2.53s2.12-.86,2.81-2.55c.69-1.7,1.03-5.73,1.03-12.08s-.34-10.39-1.03-12.09c-.68-1.7-1.62-2.56-2.81-2.56Z"/>
      <path class="st3" d="M197.51,130.76h5.92v5.73c0,3.25-.34,5.65-1.03,7.24-.83,1.95-2.23,3.4-4.2,4.35l-1.17-3.31c1.17-.53,2-1.25,2.52-2.15s.78-2.19.82-3.87h-2.85v-7.99h0Z"/>
      <path class="st3" d="M223.75,138.76h-5.97v-30.16c-2.21,2.75-4.78,4.78-7.67,6.07v-7.29c1.65-.74,3.37-2.05,5.14-3.95,1.75-1.85,3.02-4.1,3.71-6.55h4.8v41.89h0Z"/>
      <path class="st3" d="M242.7,96.87c3.02,0,5.45,1.57,7.3,4.74,1.86,3.15,2.79,8.68,2.79,16.56s-.92,13.39-2.79,16.55c-1.85,3.16-4.29,4.74-7.27,4.74s-5.45-1.57-7.3-4.7c-1.86-3.14-2.8-8.69-2.8-16.66s.93-13.33,2.8-16.49c1.85-3.17,4.28-4.74,7.27-4.74ZM242.71,103.53c-1.16,0-2.09.85-2.8,2.56-.69,1.7-1.04,5.74-1.04,12.09s.35,10.4,1.04,12.1c.7,1.68,1.63,2.53,2.8,2.53s2.12-.86,2.81-2.55c.69-1.7,1.03-5.73,1.03-12.08s-.34-10.39-1.03-12.09c-.68-1.7-1.62-2.56-2.81-2.56Z"/>
      <g>
        <path class="st3" d="M11.65,515.84v5.46c0,21.6,6.72,39.14,18.82,51.28,12.11,12.14,29.61,18.88,51.14,18.88h6.17v1.04h-6.17c-21.82,0-39.57-6.85-51.87-19.19-12.3-12.33-19.13-30.13-19.13-52.01v-5.46h1.04Z"/>
        <path class="st3" d="M87.78,517.83H11.13v-2.6h76.66v2.6Z"/>
        <path class="st3" d="M80.45,514.76v-3.7h7.33v4.22h-7.33v-.52h0ZM81.49,512.11v2.13h5.25v-2.13h-5.25,0ZM80.45,596.22v-3.71h7.33v4.23h-7.33v-.52h0ZM81.49,593.55v2.14h5.25v-2.14h-5.25,0Z"/>
      </g>
      <g>
        <path class="st3" d="M335.23,478.02h-5.21c-20.61,0-37.35-6.42-48.93-17.97-11.58-11.55-18.02-28.25-18.02-48.8v-5.88h-.99v5.88c0,20.83,6.54,37.76,18.31,49.5s28.75,18.26,49.63,18.26h5.21v-.99h0Z"/>
        <path class="st3" d="M332.98,405.38v73.64h2.95v-73.64h-2.95Z"/>
        <path class="st3" d="M336.45,413.68h4.2v-8.3h-4.79v8.3h.59ZM339.46,412.51h-2.42v-5.95h2.42v5.95ZM257.88,413.68h4.2v-8.3h-4.79v8.3h.59ZM260.89,412.51h-2.43v-5.95h2.43v5.95Z"/>
      </g>
      <g>
        <path class="st3" d="M366.97,425.99v5.21c0,20.61,6.42,37.35,17.97,48.93,11.55,11.59,28.25,18.02,48.8,18.02h5.88v.99h-5.88c-20.82,0-37.76-6.54-49.5-18.31-11.74-11.76-18.26-28.74-18.26-49.63v-5.21h.99Z"/>
        <path class="st3" d="M439.62,428.24h-73.64v-2.95h73.64v2.95Z"/>
        <path class="st3" d="M431.32,424.77v-4.19h8.3v4.78h-8.3v-.59h0ZM432.5,421.75v2.42h5.94v-2.42h-5.94ZM431.32,503.34v-4.2h8.3v4.79h-8.3v-.59h0ZM432.5,500.32v2.42h5.94v-2.42h-5.94Z"/>
      </g>
      <path class="st3" d="M285.19,433.76v3.51h-12.8c-.03-1.42.31-3.03,1.02-4.79.71-1.75,2.02-3.84,3.92-6.24,2.22-2.8,3.68-4.97,4.37-6.49.68-1.53,1.03-2.95,1.03-4.28,0-1.52-.35-2.76-1.06-3.73-.7-.95-1.56-1.43-2.59-1.43-1.11,0-2.01.51-2.72,1.54-.7,1.04-1.06,2.52-1.06,4.46l-2.44-.38c.17-2.86.81-5.01,1.92-6.45s2.56-2.17,4.39-2.17c1.97,0,3.47.84,4.48,2.52s1.52,3.6,1.52,5.74c0,1.9-.4,3.72-1.19,5.46-.79,1.75-2.31,4.08-4.53,6.98-1.42,1.83-2.34,3.08-2.76,3.76-.4.63-.74,1.3-1.01,1.99h9.52Z"/>
      <path class="st3" d="M295.36,411.31v-3.51h12.48v2.86c-1.86,3.07-3.5,7.06-4.91,11.98s-2.22,9.79-2.43,14.63h-2.44c.03-2.51.34-5.42.93-8.75.57-3.23,1.38-6.41,2.43-9.52,1.03-3.01,2.15-5.58,3.35-7.69h-9.42,0Z"/>
      <path class="st3" d="M289.04,437.26v-4.17h2.69v4.17c0,1.62-.19,2.89-.56,3.81-.38.91-.93,1.62-1.64,2.1l-.66-1.56c.48-.33.84-.81,1.08-1.46.25-.64.38-1.61.4-2.89h-1.31Z"/>
      <path class="st3" d="M310.2,422.54c0-5,.53-8.79,1.59-11.36,1.07-2.58,2.64-3.88,4.71-3.88,1.84,0,3.29,1.04,4.35,3.14,1.28,2.52,1.92,6.56,1.92,12.1,0,4.98-.52,8.77-1.58,11.35-1.06,2.58-2.64,3.88-4.72,3.88-1.83,0-3.34-1.14-4.52-3.42-1.16-2.28-1.75-6.22-1.75-11.81h0ZM312.64,422.54c0,4.84.37,8.1,1.1,9.75.73,1.65,1.66,2.47,2.81,2.47,1.08,0,1.98-.83,2.71-2.5.72-1.67,1.08-4.91,1.08-9.72s-.37-8.12-1.09-9.77c-.73-1.64-1.68-2.46-2.84-2.46-1.07,0-1.96.83-2.69,2.51-.72,1.67-1.08,4.91-1.08,9.73Z"/>
      <path class="st3" d="M405.16,467.53v3.5h-12.8c-.04-1.42.3-3.02,1.01-4.79.72-1.75,2.02-3.84,3.93-6.24,2.22-2.8,3.68-4.96,4.36-6.49.69-1.53,1.03-2.96,1.03-4.28,0-1.52-.35-2.77-1.05-3.72-.7-.96-1.57-1.44-2.6-1.44-1.1,0-2.01.51-2.71,1.55-.71,1.03-1.06,2.52-1.06,4.45l-2.44-.37c.17-2.86.81-5.02,1.93-6.46,1.1-1.44,2.57-2.16,4.38-2.16,1.97,0,3.47.84,4.49,2.52,1.01,1.69,1.51,3.6,1.51,5.74,0,1.9-.39,3.72-1.18,5.46-.8,1.75-2.31,4.08-4.54,6.99-1.42,1.83-2.33,3.08-2.74,3.75-.4.63-.74,1.3-1.01,2h9.52Z"/>
      <path class="st3" d="M409.01,471.02v-4.17h2.7v4.18c0,1.61-.18,2.88-.56,3.8-.37.91-.92,1.62-1.64,2.1l-.65-1.56c.47-.33.83-.81,1.07-1.46.25-.64.38-1.61.41-2.89h-1.32Z"/>
      <path class="st3" d="M430.18,456.3c0-5,.53-8.79,1.59-11.36s2.63-3.87,4.71-3.87c1.83,0,3.29,1.04,4.35,3.13,1.28,2.53,1.92,6.56,1.92,12.1,0,4.98-.53,8.77-1.58,11.35-1.06,2.58-2.63,3.88-4.72,3.88-1.84,0-3.35-1.14-4.52-3.42-1.17-2.28-1.75-6.22-1.75-11.81h0ZM432.61,456.3c0,4.84.37,8.1,1.09,9.75.73,1.65,1.67,2.47,2.81,2.47,1.08,0,1.98-.83,2.71-2.5.73-1.67,1.09-4.91,1.09-9.72s-.37-8.12-1.1-9.77-1.67-2.46-2.84-2.46c-1.06,0-1.96.83-2.68,2.5-.72,1.67-1.08,4.91-1.08,9.73Z"/>
      <path class="st3" d="M415.33,445.07v-3.5h12.47v2.85c-1.86,3.07-3.5,7.06-4.9,11.98-1.41,4.92-2.22,9.79-2.45,14.63h-2.43c.04-2.51.35-5.42.93-8.75.57-3.23,1.39-6.41,2.44-9.51,1.03-3.02,2.14-5.59,3.35-7.7h-9.42,0Z"/>
      <path class="st3" d="M363.84,271.29v-7.12h-8.35v-3.38l8.75-19.32h1.98v19.32h2.64v3.38h-2.64v7.12h-2.37ZM363.84,260.79v-13.45l-6.01,13.45h6.01Z"/>
      <path class="st3" d="M378.85,271.29v-7.12h-8.36v-3.38l8.76-19.32h1.97v19.32h2.64v3.38h-2.64v7.12h-2.36ZM378.85,260.79v-13.45l-6.01,13.45h6.01Z"/>
      <path class="st3" d="M393.93,245.33v-3.5h12.47v2.85c-1.86,3.07-3.5,7.06-4.91,11.98s-2.22,9.8-2.43,14.63h-2.43c.03-2.49.34-5.41.93-8.73.59-3.33,1.4-6.5,2.45-9.52,1.03-3.02,2.14-5.58,3.34-7.7h-9.41Z"/>
      <path class="st3" d="M387.61,271.29v-4.17h2.69v4.18c0,1.61-.19,2.89-.56,3.8-.38.92-.92,1.62-1.64,2.11l-.66-1.57c.48-.32.84-.81,1.08-1.45.25-.65.38-1.61.4-2.9h-1.31,0Z"/>
      <path class="st3" d="M408.77,256.57c0-5,.54-8.8,1.6-11.37,1.06-2.57,2.64-3.87,4.71-3.87,1.83,0,3.29,1.04,4.34,3.13,1.28,2.52,1.92,6.56,1.92,12.1,0,4.98-.52,8.77-1.58,11.34-1.06,2.58-2.64,3.88-4.72,3.88-1.83,0-3.34-1.13-4.51-3.42-1.17-2.27-1.76-6.21-1.76-11.8h0ZM411.2,256.56c0,4.85.37,8.11,1.1,9.75.73,1.65,1.66,2.48,2.8,2.48,1.08,0,1.98-.83,2.72-2.51.72-1.67,1.08-4.92,1.08-9.73s-.36-8.12-1.09-9.76c-.73-1.65-1.68-2.48-2.84-2.48-1.07,0-1.96.84-2.69,2.51-.71,1.67-1.08,4.91-1.08,9.72Z"/>
    </g>
  </g>
</svg>