<?xml version="1.0" encoding="UTF-8"?>
<svg id="_Слой_1" data-name="Слой_1" xmlns="http://www.w3.org/2000/svg" version="1.1" viewBox="0 0 2271.4 1886.64">
  <!-- Generator: Adobe Illustrator 29.5.1, SVG Export Plug-In . SVG Version: 2.1.0 Build 141)  -->
  <defs>
    <style>
      .st0 {
        display: none;
        fill: none;
      }

      .st1, .st2, .st3, .st4 {
        fill: #214270;
      }

      .st1, .st3 {
        stroke-linecap: round;
        stroke-width: .47px;
      }

      .st1, .st3, .st4 {
        stroke: #fff;
      }

      .st1, .st4 {
        stroke-miterlimit: 22.98;
      }

      .st3 {
        stroke-linejoin: round;
      }

      .st5 {
        fill: #fff;
      }

      .st4 {
        stroke-width: .51px;
      }
    </style>
  </defs>
  <path class="st0" d="M8.84,2.53L2267.78,0l3.62,1886.64H0L8.84,2.53Z"/>
  <path class="st0" d="M46.28,37.26l2184.02,3.29v1813.3H46.28V37.26Z"/>
  <g>
    <path class="st4" d="M840.07,976.56l46.22,98.12M1218.23,848.38l-47.57-101.06M840.44,976.06v98.62M1217.87,848.88v-101.56M1289.96,971.12v-101.56M740.74,955.29v-101.56M864.19,1027.92v46.76M1194.12,797.15v-49.83M816.69,976.06v98.62M1241.61,848.88v-101.56M1266.22,971.12v-101.56M764.49,955.29v-101.56M1194.97,971.12v-101.56M835.73,955.29v-101.56M792.94,976.06v98.62M1265.36,848.88v-101.56M1242.47,971.12v-101.56M788.23,955.29v-101.56M1171.22,971.12v-101.56M859.48,955.29v-101.56M769.19,976.06v98.62M1289.11,848.88v-101.56M1218.72,971.12v-101.56M811.99,955.29v-101.56M1147.47,971.12v-101.56M883.23,955.29v-101.56M745.44,976.06v98.62M1312.86,848.88v-101.56M1123.72,971.12v-101.56M906.98,955.29v-101.56M721.69,976.06v98.62M697.95,976.06v98.62M697.95,1026.18h142.49M1312.86,798.76h-94.99M1123.72,921h166.24M906.98,905.17h-166.24M823.83,1043.48l16.61-17.3-16.61-17.31M1234.47,781.46l-16.6,17.3,16.6,17.31M1273.36,903.7l16.6,17.3-16.6,17.31M757.34,887.86l-16.6,17.31,16.6,17.31"/>
    <g>
      <path class="st2" d="M1709.21,756.59h126.74v116.77h-126.74v-116.77Z"/>
      <g>
        <path class="st5" d="M1772.24,773.06h-32.9c-5.58,0-10.13,4.55-10.13,10.14v63.56c0,5.58,4.54,10.14,10.13,10.14h32.9c5.58,0,10.13-4.55,10.13-10.14v-63.56c0-5.58-4.54-10.14-10.13-10.14h0ZM1777.99,846.76c0,3.17-2.57,5.74-5.74,5.74h-32.9c-3.17,0-5.74-2.57-5.74-5.74v-63.56c0-3.17,2.57-5.75,5.74-5.75h32.9c3.17,0,5.74,2.58,5.74,5.75v63.56ZM1810.97,834.49l-5.52,5.52v-17.88c0-1.61-1.3-2.92-2.92-2.92s-2.93,1.3-2.93,2.92v17.89l-5.52-5.52c-1.14-1.13-2.99-1.13-4.13,0-1.14,1.14-1.14,2.98,0,4.13h0s9.34,9.35,9.34,9.35c.72.72,1.67,1.17,2.69,1.28.18.04.36.06.55.06.18,0,.35-.02.53-.05.98-.12,1.94-.53,2.7-1.29l9.34-9.34c1.14-1.14,1.14-2.98,0-4.13h0c-1.14-1.14-2.99-1.14-4.13,0h0ZM1794.08,795.5l5.54-5.53v19.03c0,1.61,1.3,2.92,2.92,2.92s2.92-1.3,2.92-2.92v-19.01l5.51,5.51c.55.55,1.29.86,2.06.86.74,0,1.49-.29,2.06-.86,1.13-1.14,1.13-2.99,0-4.13l-9.34-9.34c-.67-.66-1.52-1.09-2.44-1.25-.25-.07-.51-.12-.79-.12s-.53.05-.77.12c-.94.15-1.8.59-2.48,1.26l-9.34,9.34c-1.13,1.14-1.13,2.99,0,4.13,1.14,1.14,3,1.14,4.14,0h0s0-.01,0-.01Z"/>
        <path class="st5" d="M1755.76,793.47c3.44,0,6.23-2.79,6.23-6.23s-2.79-6.23-6.23-6.23-6.23,2.79-6.23,6.23,2.79,6.23,6.23,6.23ZM1755.78,821.87c-2.33,0-5.94-.48-7.62-.73l-1.82,24.25c-.13,1.82,1.24,3.4,3.06,3.54h.04c1.81.15,3.4-1.21,3.55-3.02,0,0,0,0,0,0l1.48-17.96c.05-.6.34-1.44,1.34-1.46,1.06-.02,1.35.87,1.38,1.45l1.49,17.95c.13,1.81,1.7,3.18,3.51,3.05,0,0,.02,0,.03,0h.03c1.81-.14,3.18-1.74,3.05-3.56l-1.84-24.25c-1.76.25-5.49.75-7.68.75h0Z"/>
        <path class="st5" d="M1769.35,811.55l-.9-9.05c-.14-1.82-.98-3.82-3.54-5.11-1.96-.98-8.73-.84-8.73-.84,0,0-7.48-.17-9.59.84-2.54,1.21-3.32,3.3-3.46,5.11l-.9,9.05-.9,11.58c-.14,1.82,1.22,3.41,3.04,3.55h.04c.62.05,1.21-.07,1.72-.33l1.27-17.92c.03-.46.43-.8.88-.77.46.04.8.43.77.89l-.77,10.92c1.56.23,5.23.73,7.5.73,2.12,0,5.99-.52,7.62-.76l-.7-10.9c-.03-.46.31-.85.77-.88s.86.31.89.77l1.15,17.93c.51.24,1.07.35,1.66.31h.04c1.81-.15,3.18-1.72,3.03-3.55l-.89-11.59v.02h0Z"/>
      </g>
    </g>
    <g>
      <path class="st2" d="M1709.21,915.96h126.74v127.7h-126.74v-127.7Z"/>
      <g>
        <path class="st5" d="M1772.24,937.89h-32.9c-5.58,0-10.13,4.55-10.13,10.14v63.56c0,5.59,4.54,10.14,10.13,10.14h32.9c5.58,0,10.13-4.55,10.13-10.14v-63.56c0-5.58-4.54-10.14-10.13-10.14h0ZM1777.99,1011.59c0,3.17-2.57,5.74-5.74,5.74h-32.9c-3.17,0-5.74-2.57-5.74-5.74v-63.56c0-3.17,2.57-5.75,5.74-5.75h32.9c3.17,0,5.74,2.58,5.74,5.75v63.56h0ZM1810.97,999.32l-5.52,5.52v-17.88c0-1.61-1.3-2.92-2.92-2.92s-2.93,1.3-2.93,2.92v17.89l-5.52-5.52c-1.14-1.13-2.99-1.13-4.13,0-1.14,1.14-1.14,2.98,0,4.13h0s9.34,9.36,9.34,9.36c.73.71,1.67,1.16,2.69,1.27.18.04.36.06.55.06.18,0,.35-.02.53-.05.98-.12,1.94-.53,2.7-1.28l9.34-9.35c1.14-1.14,1.14-2.98,0-4.13h0c-1.14-1.14-2.99-1.14-4.13,0h0ZM1794.08,960.34l5.54-5.53v19.02c0,1.61,1.3,2.93,2.92,2.93s2.92-1.31,2.92-2.93v-19l5.51,5.51c.55.55,1.29.86,2.06.85.74,0,1.49-.28,2.06-.85,1.13-1.14,1.13-2.99,0-4.13l-9.34-9.34c-.66-.66-1.51-1.1-2.44-1.26-.25-.07-.51-.12-.79-.12s-.53.05-.77.12c-.94.15-1.8.59-2.48,1.26l-9.34,9.34c-1.13,1.14-1.13,2.99,0,4.13,1.14,1.14,3,1.14,4.14,0h0Z"/>
        <path class="st5" d="M1755.76,958.3c3.44,0,6.23-2.79,6.23-6.23s-2.79-6.23-6.23-6.23c-3.44-.04-6.26,2.71-6.3,6.15s2.71,6.26,6.15,6.3c.05,0,.11,0,.16,0ZM1755.78,986.71c-2.33,0-5.94-.49-7.62-.73l-1.82,24.24c-.13,1.82,1.24,3.41,3.06,3.54h.04c1.82.15,3.41-1.21,3.55-3.03,0,0,0,0,0,0l1.48-17.95c.05-.61.34-1.45,1.34-1.47,1.06-.01,1.35.87,1.38,1.45l1.49,17.96c.13,1.81,1.71,3.17,3.52,3.04,0,0,.01,0,.02,0h.03c1.82-.15,3.18-1.73,3.05-3.55l-1.84-24.26c-1.76.26-5.49.75-7.68.75h0s0,.01,0,.01Z"/>
        <path class="st5" d="M1769.35,976.38l-.9-9.05c-.14-1.81-.98-3.82-3.54-5.1-1.96-.99-8.73-.84-8.73-.84,0,0-7.48-.17-9.59.84-2.54,1.21-3.32,3.29-3.46,5.1l-.9,9.05-.9,11.59c-.14,1.81,1.22,3.4,3.03,3.54h0s.04.01.04.01c.62.05,1.21-.08,1.72-.34l1.27-17.91c.05-.46.47-.78.92-.73.42.05.74.41.73.84l-.77,10.92c1.56.23,5.23.73,7.5.73,2.12,0,5.99-.52,7.62-.76l-.7-10.9c-.03-.46.31-.85.77-.88s.86.32.89.77l1.15,17.92c.52.25,1.09.35,1.66.31h.04c1.81-.14,3.17-1.71,3.03-3.52,0,0,0-.01,0-.02l-.89-11.59h0s0,.01,0,.01Z"/>
      </g>
    </g>
    <g>
      <path class="st2" d="M1263.16,1010.91h181.65v114.42h-181.65v-114.42Z"/>
      <g>
        <path class="st5" d="M1366.84,1026.21h-59.28c-5.58,0-10.14,4.54-10.14,10.13v63.57c0,5.58,4.55,10.13,10.14,10.13h59.28c5.58,0,10.14-4.54,10.14-10.13v-63.57c0-5.58-4.55-10.13-10.14-10.13ZM1372.59,1099.91c0,3.17-2.58,5.75-5.75,5.74h-59.28c-3.17,0-5.75-2.58-5.75-5.74v-63.56c0-3.18,2.58-5.75,5.75-5.76h59.28c3.17,0,5.75,2.57,5.75,5.74v63.57ZM1405.58,1087.64l-5.53,5.52v-17.89c0-1.61-1.31-2.93-2.93-2.93s-2.92,1.31-2.92,2.93v17.89l-5.52-5.52c-1.14-1.14-2.99-1.14-4.13,0s-1.14,2.99,0,4.13l9.34,9.34c.75.75,1.7,1.16,2.69,1.28.17.03.36.05.54.05s.36-.02.53-.05c1.02-.11,1.97-.56,2.71-1.28l9.34-9.34c1.13-1.14,1.13-2.99,0-4.13-1.14-1.14-2.98-1.14-4.13,0h0ZM1388.68,1048.65l5.53-5.53v19.03c0,1.61,1.31,2.92,2.93,2.92s2.92-1.3,2.92-2.92v-19.01l5.52,5.51c.55.55,1.29.86,2.06.86.74,0,1.49-.29,2.06-.86,1.14-1.14,1.14-2.98,0-4.13h0s-9.34-9.35-9.34-9.35c-.66-.66-1.51-1.09-2.43-1.25-.26-.07-.52-.12-.79-.12s-.53.05-.77.12c-.94.15-1.8.59-2.48,1.25l-9.34,9.35c-1.13,1.14-1.13,2.99,0,4.13,1.14,1.13,2.99,1.13,4.13,0h.01s0,0,0,0Z"/>
        <path class="st5" d="M1350.37,1046.61c3.44,0,6.23-2.79,6.23-6.23s-2.79-6.23-6.23-6.23-6.23,2.79-6.23,6.23,2.79,6.23,6.23,6.23ZM1350.38,1075.01c-2.34,0-5.95-.48-7.61-.73l-1.82,24.25c-.14,1.82,1.23,3.4,3.05,3.54,0,0,0,0,0,0h.04c1.81.14,3.39-1.21,3.54-3.01,0,0,0-.02,0-.02l1.49-17.95c.05-.6.34-1.44,1.34-1.46,1.05-.02,1.34.87,1.38,1.45l1.48,17.95c.13,1.82,1.72,3.18,3.53,3.05,0,0,0,0,0,0h.03c1.82-.15,3.18-1.73,3.05-3.55,0,0,0,0,0,0l-1.84-24.25c-1.74.25-5.49.75-7.68.75h0Z"/>
        <path class="st5" d="M1363.96,1064.69l-.9-9.04c-.14-1.82-.98-3.82-3.55-5.11-1.96-.98-8.73-.84-8.73-.84,0,0-7.47-.17-9.58.84-2.55,1.21-3.33,3.29-3.47,5.11l-.9,9.04-.89,11.59c-.14,1.81,1.21,3.4,3.02,3.55,0,0,0,0,.01,0h.03c.62.05,1.21-.07,1.72-.33l1.27-17.92c.04-.46.43-.8.89-.77.45.04.79.43.76.89l-.77,10.92c1.57.23,5.24.73,7.5.73,2.14,0,6.01-.53,7.62-.76l-.7-10.9c-.03-.46.32-.86.78-.89.46-.02.85.33.88.78l1.16,17.93c.5.23,1.07.35,1.66.3h.03c1.82-.14,3.17-1.72,3.04-3.54l-.9-11.59h.01s0,0,0,0ZM1308.38,1084.87h20.36v15.98h-20.36v-15.98ZM1308.38,1066.27h20.36v15.98h-20.36v-15.98ZM1308.38,1055.41h20.36v7.99h-20.36v-7.99Z"/>
      </g>
    </g>
    <path class="st2" d="M28.27,3.12h2239.46v1879.41H8.84V3.12h19.43ZM2228.89,41.97H47.69v1801.72h2181.2V41.97Z"/>
    <path class="st2" d="M1674.84,1159.54v-134.9h23.62v27.37h150.31v-148.8h-150.31v31.56h-23.62v-75.97h23.62v20.8h150.31v-132.27h-150.31v21.23h-23.62v-44.85h197.55v435.83h-23.62v-83.91h-150.31v83.91h-23.62ZM1124.09,971.12h116.41v23.62h-116.41v-23.62ZM885.73,723.7h592.71v23.62h-571.46v106.41h-330.07v-23.62h306.45v-106.41h2.37Z"/>
    <path class="st2" d="M1478.44,1114.7v44.86h-251.07v-188.44h227.45v-9.17h23.62v58.64h-23.62v-25.85h-203.83v141.2h203.83v-21.24h23.62ZM1004.83,848.88h352.09v23.62h-328.47v103.57h-451.98v-23.62h428.36v-103.57h0ZM576.47,1074.68h558.22v23.62h-558.22v-23.62Z"/>
    <path class="st2" d="M1124.09,1098.3v-127.18h23.62v127.18h-23.62ZM576.47,1159.54v-194.03h23.62v194.03h-23.62ZM576.91,830.88v-107.18h23.61v107.18h-23.61ZM576.91,1400.89v-122.98h23.61v122.98h-23.61ZM576.91,1881.26v-233.99h23.61v233.99h-23.61ZM1124.09,1400.89v-122.98h23.62v122.98h-23.62ZM1124.09,1881.26v-233.99h23.62v233.99h-23.62ZM576.91,486.67v116.86h23.61v-116.86h-23.61ZM576.91,2.53v237.75h23.61V2.53h-23.61ZM1124.09,486.67v119.43h23.62v-119.43h-23.62ZM1454.82,723.7v131.09h23.62v-131.09h-23.62ZM1124.09,2.53v237.75h23.62V2.53h-23.62ZM1683.14,486.67v119.43h23.61v-119.43h-23.61ZM1683.14,7.87v232.4h23.61V7.87s-23.61,0-23.61,0ZM1683.14,1402.06v-122.97h23.61v122.97h-23.61ZM1683.14,1881.26v-233.99h23.61v233.99h-23.61ZM1629.02,1141.82h67.59v17.71h-67.59v-17.71ZM1498.13,504.31h185v17.72h-185v-17.72ZM1689.32,691.37v55.62h17.72v-55.62h-17.72Z"/>
    <path class="st2" d="M1500.41,1360.5h188.63v17.72h-188.63v-17.72h0ZM991.01,1297.11h141.36v17.71h-141.36v-17.71h0Z"/>
    <path class="st2" d="M1518.12,1364.79v-82.21h-17.71v82.21h17.71ZM1008.72,1301.39v-23.49h-17.72v23.49h17.72ZM1471.46,1141.82h50.4v17.71h-50.4v-17.71ZM276.9,840.08h202.53v34.57h-202.53v-34.57h0ZM8.84,800.64h291.44v34.57H8.84v-34.57ZM276.89,1041.88h202.53v-34.57h-202.53v34.57Z"/>
    <path class="st2" d="M479.42,1041.88v-72.69h-34.56v72.69h34.56ZM300.28,1081.31v-74h-34.56v74h34.56Z"/>
    <path class="st2" d="M8.84,1081.31h291.44v-34.56H8.84v34.56h0ZM479.42,883.54v-17.72h-34.56v17.72h34.56ZM300.28,874.65v-74.01h-34.56v74.01h34.56ZM1285.86,588.39h16v17.72h-16v-17.72h0ZM912.93,588.39h16.02v17.72h-16.02v-17.72ZM1498.13,606.11v-101.8h17.7v101.8h-17.7ZM1142.1,566.08h159.76v17.72h-159.76v-17.72Z"/>
    <path class="st2" d="M912.93,606.11v-40.03h17.71v40.03h-17.71ZM461.71,841.6v-100.04h17.71v100.04h-17.71ZM1284.15,606.11v-40.03h17.71v40.03h-17.71Z"/>
    <path class="st2" d="M912.93,555.93h216.47v17.71h-216.47v-17.71h0ZM1698.46,1151.23h161.62v8.31h-161.62v-8.31ZM1756.47,1326.14v-48.23h8.31v48.23h-8.31Z"/>
    <path class="st2" d="M1702.7,1317.82h62.08v8.31h-62.08v-8.31ZM522.64,1325.45v-43.12h-8.31v43.12h8.31ZM614.56,1482.07v-36.7h8.3v36.7h-8.3ZM1168.67,535.67v48.12h8.31v-48.12h-8.31ZM912.93,455.3v104.85h8.3v-104.85h-8.3ZM550.78,606.11v-45.38h-8.31v45.38h8.31ZM626.82,606.11v-45.38h-8.31v45.38h8.31Z"/>
    <path class="st2" d="M580.65,1445.37h42.21v8.31h-42.21v-8.31h0ZM249.05,808.96h230.37v-8.31h-230.37v8.31ZM626.82,560.73h-84.34v8.31h84.34v-8.31ZM999.32,1313.88v66.82h-8.31v-66.82h8.31ZM578.24,1317.15h-59.15v8.3h59.15v-8.3ZM580.37,1473.76h42.49v8.31h-42.49v-8.31ZM1145.15,543.98h31.83v-8.31h-31.83v8.31ZM920.45,606.11h365.41v-8.31h-365.41v8.31ZM599.81,732.01h286.96v-8.31h-286.96v8.31h0ZM1144.08,455.3h-231.15v8.31h231.15v-8.31h0ZM1179.63,1326.41v-44.72h8.31v44.72h-8.31Z"/>
    <path class="st2" d="M1133.31,400.76v183.57h8.31v-183.57h-8.31ZM1006.59,1277.9h235.07v8.31h-235.07v-8.31h0ZM1147.71,1318.09h36.69v8.31h-36.69v-8.31ZM1228.12,404.91h12.77v-8.31h-12.77v8.31ZM542.47,606.11h84.34v-8.31h-84.34v8.31ZM1897.94,760.91v-37.71h8.31v37.71h-8.31ZM1961.28,729.05v-37.71h8.3v37.71h-8.3ZM2018.1,1035.03v-15.72h8.31v15.72h-8.31Z"/>
    <path class="st2" d="M1866.02,1026.72h160.34v8.31h-160.34v-8.31h0ZM1863.62,823.37h63.31v8.31h-63.31v-8.31ZM1869.55,752.6h36.7v8.31h-36.7v-8.31h0ZM1703.62,691.34h265.97v8.31h-265.97v-8.31ZM991.86,1372.39h139.8v8.31h-139.8v-8.31ZM1500.41,1277.9h263.03v8.31h-263.03v-8.31h0ZM372.57,1277.9h227.95v8.31h-227.95v-8.31h0ZM477.6,1428.92h107.61v8.31h-107.61v-8.31ZM372.57,1499.46h212.64v8.31h-212.64v-8.31h0Z"/>
    <path class="st2" d="M380.87,1369.57v138.2h-8.3v-138.2h8.3ZM1241.66,1277.9v201.83h-8.31v-201.83h8.31ZM1240.9,580.72v-182.5h-8.31v182.5h8.31ZM585.21,1397.57v110.18h-8.3v-110.18h8.3ZM1140.73,1393.16v86.5h-8.31v-86.5h8.31Z"/>
    <path class="st2" d="M1149.99,1471.35h-17.57v8.31h17.57v-8.31ZM2018.1,935.96v-212.25h8.31v212.25h-8.31ZM1498.13,606.11h208.61v-8.31h-208.61v8.31ZM1147.7,572.01v-116.71h-8.31v116.71h8.31Z"/>
    <g>
      <path class="st2" d="M546.3,1383.47c.22,0,.64.03.77.03h24.32v27.17h-24.44s-.43.04-.65.04c-7.27,0-13.19-6.12-13.19-13.62s5.92-13.61,13.19-13.61h0ZM546.3,1381.81c-8.2,0-14.85,6.85-14.85,15.28s6.65,15.28,14.85,15.28c.27,0,.77-.04.77-.04h25.98v-30.48h-25.98s-.5-.04-.77-.04Z"/>
      <path class="st2" d="M575.25,1386.86v20.45h-1.7v-20.45h1.7ZM576.91,1385.21h-5.02v23.77h5.02v-23.77h0Z"/>
    </g>
    <g>
      <path class="st2" d="M1903,778.28c-.22,0-.64.04-.76.04h-24.32v27.17h24.44s.43.03.64.03c7.28,0,13.2-6.11,13.2-13.61s-5.93-13.62-13.2-13.62ZM1903,776.62c8.2,0,14.86,6.84,14.86,15.28s-6.66,15.28-14.86,15.28c-.26,0-.76-.04-.76-.04h-25.99v-30.48h25.99s.5-.04.76-.04h0Z"/>
      <path class="st2" d="M1874.05,781.66v20.46h1.71v-20.46h-1.71ZM1872.4,780.02h5.02v23.76h-5.02v-23.76Z"/>
    </g>
    <g>
      <path class="st2" d="M1909.98,969.88v40.75h-36.3v-40.75h36.3ZM1911.27,968.59h-38.87v43.33h38.87v-43.34h0Z"/>
      <path class="st2" d="M1905.79,975.49c.95,0,1.72.77,1.72,1.73v25.95c0,.95-.77,1.73-1.72,1.73h-13.83c-.95,0-1.72-.78-1.72-1.73v-25.95c0-.96.77-1.73,1.72-1.73h13.83ZM1905.79,974.21h-13.83c-1.66,0-3.01,1.34-3.01,3.01h0v25.96c0,1.66,1.34,3.01,3.01,3.02h13.83c1.66,0,3.01-1.35,3.01-3.01h0v-25.96c0-1.66-1.34-3.01-3-3.01h0ZM1886.93,987.28c.58,0,1.04-.47,1.04-1.04s-.46-1.03-1.04-1.03-1.04.46-1.04,1.03.47,1.04,1.04,1.04ZM1886.93,995.19c.57.03,1.06-.42,1.09-.99.03-.57-.42-1.06-.99-1.09-.03,0-.06,0-.1,0-.58,0-1.04.47-1.04,1.04s.47,1.04,1.04,1.04h0Z"/>
      <path class="st1" d="M1886.16,990.2h7.06"/>
      <path class="st2" d="M1876.77,972.02v2.58h-3.09v-2.58h3.09ZM1878.06,970.74h-5.67v5.14h5.67v-5.14ZM1876.77,1005.8v2.57h-3.09v-2.57h3.09ZM1878.06,1004.51h-5.67v5.14h5.67v-5.14Z"/>
      <path class="st3" d="M1875.23,975.71v28.8"/>
    </g>
    <g>
      <path class="st2" d="M1909.98,911.19v40.75h-36.3v-40.75h36.3ZM1911.27,909.9h-38.87v43.33h38.87v-43.34h0Z"/>
      <path class="st2" d="M1905.79,916.8c.95,0,1.72.77,1.72,1.73v25.95c0,.95-.77,1.73-1.72,1.73h-13.83c-.95,0-1.73-.78-1.72-1.73v-25.95c0-.96.77-1.73,1.72-1.73h13.83ZM1905.79,915.52h-13.83c-1.66,0-3.01,1.34-3.01,3.01h0v25.96c0,1.66,1.34,3.01,3.01,3.02h13.83c1.66,0,3.01-1.35,3.01-3.01h0v-25.96c0-1.66-1.34-3.01-3.01-3.02h0ZM1886.93,928.59c.58,0,1.04-.47,1.04-1.04s-.46-1.03-1.04-1.03-1.04.46-1.04,1.03.47,1.04,1.04,1.04h0ZM1886.93,936.5c.58.02,1.06-.43,1.08-1.01.02-.58-.43-1.06-1.01-1.08-.02,0-.05,0-.07,0-.58.01-1.03.49-1.02,1.06.01.56.46,1.01,1.02,1.02h0Z"/>
      <path class="st1" d="M1886.16,931.51h7.06"/>
      <path class="st2" d="M1876.77,913.33v2.58h-3.09v-2.58h3.09ZM1878.06,912.05h-5.67v5.14h5.67v-5.14ZM1876.77,947.11v2.57h-3.09v-2.57h3.09ZM1878.06,945.82h-5.67v5.14h5.67v-5.14Z"/>
      <path class="st3" d="M1875.23,917.02v28.8"/>
    </g>
    <g>
      <path class="st2" d="M1909.98,851.91v40.76h-36.3v-40.76h36.3ZM1911.27,850.63h-38.87v43.33h38.87v-43.33h0Z"/>
      <path class="st2" d="M1905.79,857.54c.95,0,1.72.77,1.72,1.72v25.96c0,.95-.77,1.72-1.72,1.72h-13.83c-.95,0-1.72-.77-1.72-1.72v-25.96c0-.95.77-1.72,1.72-1.72h13.83ZM1905.79,856.26h-13.83c-1.66,0-3.01,1.34-3.01,3h0v25.96c0,1.66,1.34,3.01,3,3.01h13.83c1.66,0,3.01-1.35,3.01-3.02h0v-25.95c0-1.66-1.34-3.01-3.01-3.02h0ZM1886.93,869.33c.58,0,1.05-.45,1.06-1.03s-.45-1.05-1.03-1.06c0,0-.02,0-.03,0-.58.01-1.03.49-1.02,1.06.01.56.46,1.01,1.02,1.02h0ZM1886.93,877.23c.58,0,1.04-.46,1.04-1.03s-.46-1.04-1.04-1.04-1.04.46-1.04,1.04c0,.57.47,1.03,1.04,1.03h0Z"/>
      <path class="st1" d="M1886.16,872.24h7.06"/>
      <path class="st2" d="M1876.77,854.07v2.58h-3.09v-2.59h3.09ZM1878.06,852.79h-5.67v5.14h5.67v-5.15h0ZM1876.77,887.84v2.58h-3.09v-2.58h3.09ZM1878.06,886.55h-5.67v5.14h5.67v-5.14Z"/>
      <path class="st3" d="M1875.23,857.76v28.79"/>
    </g>
    <g>
      <path class="st2" d="M503.41,1323.79h-40.76v-36.29h40.76v36.29h0ZM504.7,1325.07v-38.86h-43.33v38.86h43.33Z"/>
      <path class="st2" d="M497.8,1319.6c0,.95-.78,1.73-1.73,1.73h-25.95c-.96,0-1.73-.78-1.73-1.73v-13.81c0-.95.77-1.73,1.73-1.73h25.95c.95,0,1.73.78,1.73,1.73v13.81ZM499.08,1319.6v-13.81c0-1.67-1.35-3.02-3.02-3.02h-25.95c-1.66,0-3.02,1.35-3.02,3.01h0v13.82c0,1.66,1.35,3.02,3.01,3.02h25.95c1.66,0,3.02-1.35,3.02-3.01h0s0,0,0,0ZM486.01,1300.74c0,.57.46,1.04,1.03,1.04s1.04-.47,1.04-1.04-.47-1.04-1.04-1.04-1.03.47-1.03,1.04h0ZM478.1,1300.74c0,.57.46,1.04,1.04,1.04.57,0,1.03-.47,1.03-1.04,0-.57-.46-1.04-1.03-1.04-.58,0-1.04.47-1.04,1.04h0Z"/>
      <path class="st1" d="M483.09,1299.98v7.06"/>
      <path class="st2" d="M501.27,1290.58h-2.58v-3.09h2.58v3.09ZM502.55,1291.87v-5.65h-5.14v5.65h5.14ZM467.49,1290.58h-2.58v-3.09h2.58v3.09ZM468.77,1291.87v-5.65h-5.14v5.65h5.14Z"/>
      <path class="st3" d="M497.57,1289.04h-28.79"/>
    </g>
    <g>
      <path class="st2" d="M1161.48,531.69h42.75c2.6,0,5.1-1.04,6.94-2.89,1.85-1.84,2.89-4.34,2.89-6.95v-43.48c0-2.61-1.04-5.11-2.89-6.95-1.84-1.84-4.33-2.88-6.94-2.89h-42.75c-2.71,0-5.16,1.11-6.95,2.89-1.85,1.84-2.89,4.34-2.89,6.95v43.48c0,2.61,1.04,5.11,2.89,6.95,1.79,1.77,4.24,2.89,6.95,2.89ZM1204.23,532.28h-42.75c-2.76,0-5.41-1.1-7.37-3.06-1.96-1.95-3.05-4.6-3.06-7.37v-43.48c0-2.87,1.17-5.48,3.06-7.37,1.95-1.96,4.61-3.05,7.37-3.06h42.75c2.76,0,5.41,1.1,7.36,3.06,1.96,1.95,3.05,4.61,3.06,7.37v43.48c0,2.87-1.17,5.47-3.06,7.37-1.95,1.96-4.6,3.06-7.36,3.06h0Z"/>
      <path class="st2" d="M1162.96,529.48h39.79c2.42,0,4.74-.97,6.45-2.69,1.72-1.71,2.68-4.03,2.69-6.45v-40.47c0-2.51-1.03-4.79-2.69-6.45s-3.93-2.69-6.45-2.69h-39.79c-2.51,0-4.79,1.03-6.45,2.69s-2.68,3.94-2.68,6.45v40.47c0,2.42.96,4.74,2.68,6.45,1.71,1.72,4.03,2.68,6.45,2.69ZM1202.75,530.07h-39.79c-2.57,0-5.04-1.03-6.86-2.86-1.83-1.82-2.86-4.29-2.86-6.87v-40.47c0-2.58,1.03-5.05,2.86-6.87,1.82-1.82,4.28-2.85,6.86-2.85h39.79c2.58,0,5.05,1.03,6.87,2.85,1.83,1.82,2.86,4.29,2.86,6.87v40.47c0,2.58-1.03,5.05-2.86,6.87-1.76,1.75-4.19,2.86-6.87,2.86Z"/>
      <path class="st2" d="M1148.88,534.48h67.94v-68.74h-67.94v68.74h0ZM1217.42,535.67h-69.71v-71.11h70.3v71.11h-.59Z"/>
      <path class="st2" d="M1161.16,524.31c1.24,0,2.24-1.01,2.24-2.24,0-.59-.24-1.17-.66-1.59-.4-.4-.96-.65-1.58-.65s-1.18.25-1.58.65c-.42.42-.66.99-.66,1.58,0,.62.26,1.18.66,1.59.4.4.96.65,1.58.65h0ZM1163.17,524.07c-1.11,1.11-2.9,1.11-4.01,0,0,0,0,0,0,0-.51-.51-.82-1.22-.82-2.01s.31-1.49.82-2.01c.51-.51,1.22-.82,2.01-.82s1.49.31,2.01.82c.51.52.83,1.22.83,2.01s-.32,1.49-.83,2.01Z"/>
    </g>
    <g>
      <path class="st2" d="M1161.7,1330.39h42.75c2.6,0,5.1,1.04,6.94,2.89,1.78,1.78,2.9,4.24,2.9,6.95v43.49c0,2.61-1.05,5.1-2.9,6.94-1.83,1.85-4.33,2.89-6.94,2.89h-42.75c-2.61,0-5.11-1.04-6.95-2.89-1.85-1.84-2.89-4.33-2.89-6.94v-43.49c0-2.61,1.04-5.11,2.89-6.95,1.79-1.78,4.24-2.89,6.95-2.89ZM1204.45,1329.8h-42.75c-2.87,0-5.47,1.18-7.37,3.07-1.96,1.95-3.06,4.6-3.06,7.36v43.49c0,2.76,1.1,5.41,3.06,7.36,1.95,1.96,4.6,3.05,7.37,3.06h42.75c2.87,0,5.47-1.17,7.36-3.06s3.06-4.49,3.06-7.36v-43.49c0-2.87-1.17-5.47-3.06-7.36s-4.49-3.07-7.36-3.07h0Z"/>
      <path class="st2" d="M1163.18,1332.6h39.79c2.52,0,4.79,1.02,6.45,2.68s2.69,3.94,2.69,6.45v40.47c0,2.52-1.03,4.79-2.69,6.45s-3.93,2.69-6.45,2.69h-39.79c-2.51,0-4.79-1.03-6.45-2.69s-2.68-3.93-2.68-6.45v-40.47c0-2.51,1.02-4.79,2.68-6.45s3.94-2.68,6.45-2.68ZM1202.97,1332.01h-39.79c-2.57,0-5.04,1.03-6.86,2.85-1.83,1.82-2.86,4.29-2.86,6.87v40.47c0,2.58,1.03,5.05,2.86,6.87,1.81,1.83,4.28,2.86,6.86,2.86h39.79c2.58,0,5.05-1.03,6.87-2.86,1.83-1.82,2.86-4.29,2.86-6.87v-40.47c0-2.58-1.03-5.05-2.86-6.87-1.82-1.82-4.29-2.85-6.87-2.85Z"/>
      <path class="st2" d="M1149.1,1327.59h67.94v68.74h-67.94v-68.75h0ZM1217.64,1326.41h-69.71v71.11h70.3v-71.11h-.59Z"/>
      <path class="st2" d="M1161.38,1337.77c.62,0,1.18.26,1.58.66.41.4.66.96.66,1.58s-.25,1.18-.66,1.58c-.4.41-.96.66-1.58.66s-1.18-.25-1.58-.66c-.4-.4-.66-.96-.66-1.58s.26-1.18.66-1.58c.42-.42.99-.66,1.58-.66ZM1163.39,1338.01c-1.11-1.11-2.9-1.11-4.01,0h0c-.53.54-.83,1.26-.82,2.01,0,1.56,1.25,2.83,2.81,2.84.76,0,1.49-.3,2.02-.84,1.11-1.11,1.11-2.9,0-4.01h0Z"/>
    </g>
    <g>
      <path class="st2" d="M1389.49,957.15h73.64v-2.95h-73.64v2.95h0Z"/>
      <path class="st2" d="M1390.49,956.53v-5.21c0-20.61,6.42-37.35,17.97-48.92,11.55-11.59,28.25-18.03,48.8-18.03h5.89v-.99h-5.89c-20.82,0-37.76,6.55-49.5,18.32-11.74,11.76-18.26,28.74-18.26,49.63v5.21h.99ZM1463.14,859.57h-28.18v2.95h28.18v-2.95ZM1454.82,957.74v4.2h8.31v-4.79h-8.31v.59ZM1456.01,960.76v-2.43h5.95v2.43h-5.95Z"/>
      <path class="st2" d="M1454.82,855.37v4.2h8.31v-4.79h-8.31v.59ZM1456.01,858.39v-2.43h5.95v2.43h-5.95ZM1456.76,884.33c-5.78,0-11.33-2.29-15.41-6.39-4.1-4.08-6.4-9.63-6.39-15.42h.83c0,5.56,2.2,10.9,6.14,14.83,3.8,3.8,9.04,6.15,14.83,6.15v.83Z"/>
    </g>
    <g>
      <path class="st2" d="M660.6,858.14h-67.83v2.72h67.83v-2.72h0Z"/>
      <path class="st2" d="M659.68,858.71v4.8c0,18.99-5.91,34.41-16.55,45.08s-26.02,16.59-44.95,16.59h-5.41v.92h5.41c19.18,0,34.79-6.03,45.6-16.87,10.81-10.84,16.82-26.48,16.82-45.72v-4.8h-.92ZM592.76,948.03h25.96v-2.72h-25.96v2.72ZM600.42,857.59v-3.86h-7.65v4.41h7.65v-.55h0ZM599.34,854.81v2.24h-5.48v-2.24h5.48ZM600.42,951.89v-3.86h-7.65v4.41h7.65v-.55h0ZM599.34,949.11v2.24h-5.48v-2.24h5.48Z"/>
      <path class="st2" d="M598.64,925.23c5.33,0,10.44,2.11,14.21,5.88,3.77,3.77,5.88,8.88,5.88,14.21h-.76c0-10.66-8.62-19.31-19.28-19.32h-.03v-.76Z"/>
    </g>
    <g>
      <path class="st2" d="M1624.22,797.34v-73.64h-2.95v73.64h2.95Z"/>
      <path class="st2" d="M1623.59,796.35h-5.2c-20.61,0-37.35-6.42-48.94-17.97-11.58-11.55-18.02-28.25-18.02-48.79v-5.89h-.99v5.89c0,20.82,6.54,37.76,18.32,49.5,11.76,11.73,28.74,18.26,49.63,18.26h5.2v-.99h0ZM1526.64,723.7v28.18h2.96v-28.18h-2.96ZM1624.82,732.02h4.2v-8.31h-4.79v8.31h.59ZM1627.83,730.84h-2.43v-5.95h2.43v5.95ZM1522.44,732.02h4.19v-8.31h-4.78v8.31h.59ZM1525.46,730.84h-2.43v-5.95h2.43v5.95Z"/>
      <path class="st2" d="M1551.4,730.08c0,5.78-2.29,11.33-6.39,15.41-4.09,4.1-9.64,6.39-15.42,6.39v-.83c5.8,0,11.03-2.35,14.83-6.14,3.93-3.93,6.14-9.27,6.14-14.83h.84Z"/>
    </g>
    <path class="st2" d="M1948.3,1559.75v-7.13h-8.36v-3.37l8.74-19.34h1.98v19.34h2.64v3.37h-2.64v7.13h-2.37ZM1948.3,1549.26v-13.45l-6.02,13.45h6.02Z"/>
    <path class="st2" d="M1967.98,1537.21l-2.37.29c-.23-1.53-.56-2.64-1-3.29-.63-.95-1.38-1.42-2.28-1.42-1.37,0-2.48,1.08-3.32,3.26-.71,1.87-1.07,4.64-1.08,8.31.54-1.31,1.22-2.3,2.06-2.97.83-.68,1.7-1.02,2.63-1.02,1.53,0,2.87.88,4.01,2.65,1.14,1.76,1.71,4.11,1.71,7.05,0,2-.29,3.81-.86,5.42-.57,1.62-1.31,2.82-2.21,3.6-.89.77-1.89,1.16-2.97,1.16-1.95,0-3.56-1.11-4.83-3.35-1.26-2.22-1.9-5.93-1.9-11.12,0-5.77.65-9.88,1.94-12.32s2.96-3.67,4.97-3.67c1.46,0,2.7.63,3.69,1.91.98,1.26,1.58,3.1,1.81,5.51h0ZM1958.31,1550.09c0,2.16.4,3.88,1.2,5.19.8,1.31,1.73,1.96,2.8,1.96.93,0,1.76-.61,2.5-1.85.73-1.23,1.1-2.93,1.1-5.08s-.36-3.77-1.09-4.93-1.61-1.74-2.67-1.74-1.93.58-2.69,1.73c-.77,1.16-1.15,2.74-1.15,4.72Z"/>
    <path class="st2" d="M1971.07,1552.83l2.28-.29c.36,3.14,1.43,4.7,3.22,4.7.78,0,1.51-.34,2.16-1.02.65-.69,1.19-1.92,1.64-3.67.45-1.74.68-3.8.68-6.14v-.73c-.5,1.21-1.16,2.17-1.99,2.88s-1.69,1.06-2.56,1.06c-1.57,0-2.93-.87-4.07-2.61-1.14-1.74-1.71-4.14-1.71-7.16s.59-5.57,1.79-7.37c1.17-1.8,2.62-2.7,4.31-2.7,1.19,0,2.32.5,3.36,1.5,1.03,1,1.83,2.48,2.41,4.44.56,1.94.85,4.76.85,8.43,0,4.1-.31,7.28-.92,9.55-.6,2.27-1.43,3.92-2.48,4.96-1.04,1.05-2.21,1.57-3.51,1.57-1.46,0-2.69-.63-3.67-1.91-.99-1.27-1.57-3.11-1.77-5.51h0ZM1980.78,1539.65c0-2.13-.37-3.8-1.12-5.02s-1.61-1.83-2.59-1.83c-1.02,0-1.94.65-2.73,1.95-.8,1.3-1.2,3.04-1.2,5.21,0,1.95.38,3.51,1.14,4.67s1.67,1.74,2.74,1.74,1.94-.58,2.67-1.76c.73-1.16,1.09-2.83,1.09-4.97h0Z"/>
    <path class="st2" d="M1987.07,1559.75v-4.17h2.7v4.17c0,1.62-.18,2.89-.56,3.8-.37.92-.92,1.62-1.65,2.11l-.65-1.57c.47-.32.83-.81,1.07-1.45.25-.65.38-1.61.4-2.89h-1.31Z"/>
    <path class="st2" d="M2000.83,1559.75v-7.13h-8.36v-3.37l8.75-19.34h1.98v19.34h2.63v3.37h-2.63v7.13h-2.38ZM2000.83,1549.26v-13.45l-6.01,13.45h6.01Z"/>
    <path class="st2" d="M2008.23,1545.03c0-4.99.53-8.78,1.59-11.36,1.06-2.58,2.64-3.87,4.71-3.87,1.83,0,3.28,1.04,4.34,3.13,1.28,2.53,1.93,6.57,1.93,12.1,0,4.98-.52,8.76-1.58,11.35-1.06,2.59-2.64,3.88-4.72,3.88-1.83,0-3.34-1.14-4.51-3.42-1.16-2.28-1.76-6.21-1.76-11.81h0ZM2010.67,1545.03c0,4.84.37,8.1,1.09,9.74.73,1.66,1.68,2.48,2.82,2.48,1.07,0,1.97-.83,2.71-2.51.72-1.67,1.08-4.9,1.08-9.71s-.37-8.12-1.09-9.77c-.73-1.65-1.68-2.47-2.85-2.47-1.06,0-1.96.83-2.68,2.51-.72,1.67-1.08,4.91-1.08,9.72Z"/>
    <path class="st2" d="M384.43,1320.59l-2.37.29c-.23-1.53-.56-2.63-.99-3.29-.63-.94-1.39-1.42-2.28-1.42-1.38,0-2.49,1.08-3.33,3.26-.71,1.88-1.07,4.65-1.08,8.31.54-1.31,1.23-2.3,2.05-2.97.83-.67,1.7-1.01,2.63-1.01,1.53,0,2.87.88,4.01,2.64s1.71,4.11,1.71,7.06c0,1.98-.28,3.8-.86,5.42-.57,1.62-1.3,2.82-2.21,3.59-.9.77-1.89,1.16-2.98,1.16-1.95,0-3.56-1.11-4.82-3.34-1.27-2.23-1.9-5.94-1.9-11.13,0-5.76.65-9.88,1.95-12.31,1.29-2.46,2.96-3.68,4.97-3.68,1.46,0,2.7.63,3.69,1.91.99,1.26,1.59,3.11,1.8,5.52h0ZM374.76,1333.46c0,2.16.4,3.89,1.2,5.2.8,1.31,1.73,1.96,2.8,1.96.93,0,1.76-.62,2.5-1.85.74-1.23,1.1-2.93,1.1-5.09s-.36-3.76-1.09-4.93c-.72-1.16-1.61-1.74-2.67-1.74s-1.92.58-2.69,1.74c-.77,1.15-1.15,2.73-1.15,4.71Z"/>
    <path class="st2" d="M388.51,1343.13v-4.16h2.7v4.17c0,1.61-.18,2.88-.56,3.8-.37.91-.92,1.62-1.64,2.1l-.65-1.56c.47-.33.83-.81,1.08-1.46.24-.64.37-1.6.4-2.89h-1.32,0Z"/>
    <path class="st2" d="M394.84,1317.17v-3.5h12.47v2.85c-1.86,3.07-3.5,7.07-4.9,11.98-1.41,4.92-2.23,9.8-2.44,14.63h-2.44c.03-2.5.34-5.41.93-8.74s1.4-6.5,2.44-9.52c1.03-3.01,2.15-5.58,3.34-7.7h-9.4,0Z"/>
    <path class="st2" d="M409.67,1328.41c0-5,.53-8.79,1.59-11.37,1.07-2.58,2.64-3.87,4.71-3.87,1.83,0,3.29,1.04,4.34,3.14,1.28,2.53,1.93,6.56,1.93,12.1,0,4.97-.52,8.76-1.58,11.34-1.06,2.59-2.64,3.88-4.71,3.88-1.85,0-3.35-1.14-4.52-3.42-1.16-2.28-1.75-6.21-1.75-11.8h0ZM412.11,1328.4c0,4.85.37,8.1,1.1,9.74.72,1.66,1.66,2.49,2.81,2.49,1.07,0,1.98-.83,2.71-2.51.72-1.67,1.08-4.91,1.08-9.72s-.36-8.11-1.09-9.77c-.73-1.64-1.67-2.47-2.85-2.47-1.06,0-1.96.84-2.68,2.52-.72,1.66-1.08,4.9-1.08,9.71h0Z"/>
    <path class="st2" d="M1177.9,1476.43v3.5h-12.8c-.03-1.42.31-3.02,1.02-4.78.71-1.75,2.03-3.84,3.92-6.25,2.23-2.8,3.68-4.96,4.36-6.49.69-1.53,1.03-2.96,1.03-4.28,0-1.52-.35-2.76-1.05-3.72-.7-.96-1.57-1.43-2.6-1.43-1.11,0-2.02.51-2.73,1.54-.7,1.03-1.06,2.52-1.06,4.45l-2.44-.37c.17-2.87.81-5.01,1.93-6.47,1.11-1.44,2.57-2.17,4.38-2.17,1.98,0,3.47.84,4.48,2.53,1.02,1.69,1.52,3.6,1.52,5.74,0,1.9-.39,3.71-1.19,5.45-.79,1.74-2.31,4.07-4.53,6.99-1.41,1.83-2.33,3.08-2.75,3.75-.4.63-.74,1.3-1.01,1.99h9.51,0Z"/>
    <path class="st2" d="M1181.74,1479.93v-4.16h2.71v4.17c0,1.61-.19,2.88-.57,3.8-.37.91-.92,1.62-1.63,2.1l-.66-1.56c.48-.33.84-.81,1.08-1.46.24-.64.38-1.6.4-2.89h-1.32Z"/>
    <path class="st2" d="M1202.91,1465.21c0-5,.53-8.79,1.6-11.37,1.06-2.58,2.63-3.87,4.7-3.87,1.83,0,3.29,1.04,4.34,3.14,1.28,2.53,1.93,6.56,1.93,12.1,0,4.97-.52,8.76-1.58,11.34-1.05,2.59-2.63,3.88-4.71,3.88-1.84,0-3.34-1.14-4.52-3.42-1.16-2.28-1.76-6.21-1.76-11.8h0ZM1205.35,1465.2c0,4.85.37,8.1,1.1,9.76.73,1.64,1.66,2.48,2.81,2.48,1.08,0,1.97-.83,2.71-2.51.72-1.67,1.09-4.91,1.09-9.72s-.37-8.11-1.1-9.77c-.73-1.64-1.67-2.46-2.84-2.46-1.07,0-1.96.83-2.69,2.51s-1.08,4.9-1.08,9.71h0Z"/>
    <path class="st2" d="M1187.9,1472.1l2.51-.29c.19,1.89.63,3.31,1.3,4.23.68.92,1.47,1.39,2.37,1.39,1.13,0,2.09-.65,2.91-1.96.81-1.3,1.22-3.1,1.22-5.36,0-2.14-.4-3.78-1.18-4.95-.78-1.17-1.76-1.77-2.96-1.77-.71,0-1.38.26-2.02.77-.62.5-1.12,1.2-1.48,2.11l-2.24-.45,1.88-15.35h9.57v3.5h-7.7l-1.02,8.07c1.14-1.27,2.36-1.9,3.64-1.9,1.62,0,3.03.88,4.22,2.62,1.19,1.74,1.79,4.09,1.79,7.05s-.59,5.42-1.8,7.5c-1.18,2.08-2.8,3.13-4.8,3.13-1.68,0-3.08-.73-4.23-2.21-1.15-1.48-1.81-3.52-1.97-6.13h0Z"/>
    <g>
      <path class="st2" d="M1624.22,1085.89v73.65h-2.95v-73.65h2.95Z"/>
      <path class="st2" d="M1623.59,1086.9h-5.2c-20.61,0-37.35,6.42-48.94,17.97s-18.02,28.24-18.02,48.79v5.89h-.99v-5.89c0-20.82,6.54-37.76,18.32-49.5,11.76-11.74,28.74-18.27,49.63-18.27h5.2v1h0ZM1526.64,1159.55v-28.19h2.96v28.19h-2.96ZM1624.82,1151.23h4.2v8.31h-4.79v-8.31h.59ZM1627.83,1152.41h-2.43v5.94h2.43v-5.94ZM1522.44,1151.23h4.19v8.31h-4.78v-8.31h.59ZM1525.46,1152.41h-2.43v5.94h2.43v-5.94Z"/>
      <path class="st2" d="M1551.4,1153.16c0-6.02-2.45-11.47-6.39-15.42-3.95-3.94-9.4-6.39-15.42-6.39v.83c5.8,0,11.03,2.36,14.83,6.15,3.94,3.93,6.14,9.27,6.14,14.83h.84Z"/>
    </g>
    <path class="st2" d="M98.27,127.15v-8.39h-12.69v-7.03l13.44-26.46h5.01v26.43h3.86v7.06h-3.86v8.39h-5.76ZM98.27,111.7v-14.23l-7.13,14.24h7.13Z"/>
    <path class="st2" d="M115.9,104.61c-1.44-.83-2.54-1.96-3.27-3.4-.73-1.44-1.09-3.18-1.09-5.2,0-3.27.84-5.88,2.53-7.82,1.67-1.93,3.94-2.91,6.79-2.91,3.02,0,5.31,1.04,6.9,3.12,1.57,2.07,2.36,4.58,2.36,7.56,0,2.03-.38,3.77-1.15,5.26-.76,1.48-1.82,2.61-3.15,3.39,1.78.95,3.11,2.29,3.99,3.99.88,1.72,1.31,3.83,1.31,6.35s-.43,4.85-1.29,6.82c-.87,1.97-2.07,3.49-3.6,4.53-1.52,1.04-3.24,1.56-5.14,1.56-2.99,0-5.46-1.14-7.41-3.43s-2.92-5.36-2.92-9.23c0-2.51.44-4.66,1.33-6.46.89-1.8,2.15-3.18,3.82-4.13ZM117.16,96.59c0,1.61.34,2.86,1.03,3.72.7.87,1.58,1.3,2.64,1.3s1.97-.43,2.68-1.3c.7-.86,1.05-2.11,1.05-3.72s-.34-2.78-1.04-3.65c-.69-.86-1.56-1.3-2.61-1.3-1.1,0-2,.44-2.7,1.31-.7.88-1.05,2.1-1.05,3.64ZM116.56,114.43c0,2.25.44,3.97,1.29,5.18s1.88,1.82,3.09,1.82,2.21-.58,3.02-1.74c.82-1.16,1.22-2.9,1.22-5.21,0-2-.41-3.57-1.24-4.72-.83-1.16-1.86-1.75-3.08-1.75s-2.21.58-3.05,1.75c-.83,1.16-1.25,2.72-1.25,4.65Z"/>
    <path class="st2" d="M134.87,93.39v-7.41h20.31v5.82c-1.66,2.22-3.35,5.37-5.06,9.46-1.69,4.09-3.02,8.48-3.96,13.15-.93,4.68-1.39,8.92-1.39,12.74h-5.71c.14-5.93,1.03-11.84,2.68-17.75,1.64-5.92,3.86-11.25,6.66-16.02h-13.51,0Z"/>
    <path class="st2" d="M170.84,116.08l5.76-.93c.16,1.96.64,3.47,1.46,4.51.83,1.04,1.8,1.55,2.92,1.55,1.22,0,2.25-.61,3.09-1.85.84-1.23,1.26-2.94,1.26-5.11,0-2.04-.41-3.63-1.22-4.78-.81-1.16-1.79-1.73-2.94-1.73-.76,0-1.67.2-2.72.6l.64-6.55c1.55.04,2.78-.42,3.69-1.36.88-.93,1.32-2.27,1.32-3.98,0-1.42-.31-2.56-.96-3.36-.64-.81-1.46-1.21-2.47-1.21s-1.88.46-2.61,1.4c-.74.94-1.17,2.35-1.31,4.19l-5.5-1.22c.57-3.84,1.68-6.62,3.35-8.36,1.64-1.74,3.73-2.61,6.26-2.61,2.82,0,5.06,1.11,6.74,3.33,1.66,2.22,2.5,4.66,2.5,7.35,0,1.81-.37,3.46-1.12,4.92-.75,1.45-1.88,2.73-3.36,3.83,1.72.51,3.14,1.63,4.22,3.39,1.08,1.74,1.63,3.93,1.63,6.56,0,3.81-1.03,6.97-3.09,9.47-2.06,2.5-4.5,3.74-7.35,3.74s-5.02-1.04-6.91-3.16c-1.87-2.11-2.98-4.97-3.29-8.62h0Z"/>
    <path class="st2" d="M160.05,119.16h5.94v5.74c0,3.24-.35,5.65-1.03,7.24-.84,1.96-2.25,3.4-4.21,4.35l-1.16-3.3c1.16-.54,2.01-1.25,2.52-2.17.51-.9.78-2.2.81-3.87h-2.86v-7.99h0Z"/>
    <path class="st2" d="M205.24,85.28c3.01,0,5.44,1.57,7.31,4.74,1.85,3.16,2.78,8.67,2.78,16.56s-.92,13.38-2.78,16.54c-1.86,3.16-4.29,4.73-7.28,4.73s-5.44-1.56-7.31-4.69-2.79-8.68-2.79-16.66.92-13.32,2.79-16.48c1.87-3.17,4.28-4.74,7.28-4.74ZM205.25,91.93c-1.16,0-2.1.85-2.79,2.56-.7,1.69-1.04,5.74-1.04,12.09s.34,10.39,1.04,12.09c.69,1.69,1.62,2.54,2.79,2.54s2.12-.85,2.81-2.56c.69-1.71,1.03-5.72,1.03-12.07s-.34-10.4-1.03-12.09c-.69-1.7-1.62-2.56-2.81-2.56Z"/>
    <g>
      <path class="st2" d="M1222.71,469.25h-5.2c-20.61,0-37.35-6.42-48.94-17.97-11.58-11.55-18.02-28.25-18.02-48.79v-5.89h-.99v5.89c0,20.82,6.54,37.76,18.31,49.5s28.75,18.26,49.64,18.26h5.2v-.99h0Z"/>
      <path class="st2" d="M1220.46,396.6v73.64h2.96v-73.64h-2.96Z"/>
      <path class="st2" d="M1223.93,404.91h4.19v-8.31h-4.78v8.31h.59ZM1226.95,403.73h-2.43v-5.95h2.43v5.95ZM1145.36,404.91h4.2v-8.31h-4.79v8.31h.59ZM1148.38,403.73h-2.43v-5.95h2.43v5.95Z"/>
    </g>
    <g>
      <path class="st2" d="M2004.87,896.02h-5.21c-20.6,0-37.34-6.43-48.93-17.97s-18.02-28.24-18.02-48.78v-5.89h-.99v5.89c0,20.81,6.54,37.76,18.31,49.5,11.77,11.73,28.75,18.26,49.63,18.26h5.21v-.99h0Z"/>
      <path class="st2" d="M2002.62,823.37v73.64h2.95v-73.64h-2.95Z"/>
      <path class="st2" d="M2006.09,831.68h4.19v-8.31h-4.78v8.31h.59ZM2009.1,830.5h-2.43v-5.96h2.43v5.96ZM1927.52,831.68h4.2v-8.31h-4.79v8.31h.59ZM1930.54,830.5h-2.43v-5.96h2.43v5.96Z"/>
    </g>
    <g>
      <path class="st2" d="M1953.77,1013.9v-5.21c0-20.61,6.42-37.35,17.97-48.92,11.55-11.59,28.25-18.03,48.8-18.03h5.89v-.99h-5.89c-20.82,0-37.76,6.55-49.5,18.32-11.74,11.76-18.26,28.74-18.26,49.63v5.21h.99Z"/>
      <path class="st2" d="M2026.41,1011.64h-73.64v2.96h73.64v-2.96h0Z"/>
      <path class="st2" d="M2018.1,1015.11v4.2h8.31v-4.79h-8.31v.59ZM2019.28,1018.13v-2.43h5.94v2.43h-5.94ZM2018.1,936.55v4.19h8.31v-4.78h-8.31v.59h0ZM2019.28,939.56v-2.42h5.94v2.42h-5.94Z"/>
    </g>
    <g>
      <path class="st2" d="M1227.93,1407.08h-5.21c-20.6,0-37.35,6.43-48.93,17.97-11.58,11.55-18.02,28.25-18.02,48.8v5.89h-.99v-5.89c0-20.81,6.54-37.76,18.31-49.5,11.77-11.73,28.75-18.26,49.63-18.26h5.21v.99h0Z"/>
      <path class="st2" d="M1225.69,1479.73v-73.64h2.95v73.64h-2.95Z"/>
      <path class="st2" d="M1229.16,1471.42h4.19v8.31h-4.78v-8.31h.59ZM1232.16,1472.6h-2.42v5.94h2.42v-5.94ZM1150.59,1471.42h4.2v8.31h-4.79v-8.31h.59ZM1153.6,1472.6h-2.43v5.94h2.43v-5.94Z"/>
    </g>
    <g>
      <path class="st2" d="M403.29,888.31v5.46c0,21.59,6.73,39.14,18.83,51.28,12.11,12.13,29.61,18.88,51.14,18.88h6.17v1.04h-6.17c-21.82,0-39.57-6.86-51.87-19.19s-19.14-30.13-19.14-52.01v-5.46h1.04Z"/>
      <path class="st2" d="M479.42,890.29h-76.66v-2.61h76.66v2.61Z"/>
      <path class="st2" d="M472.09,887.23v-3.7h7.33v4.22h-7.33v-.52ZM473.14,884.57v2.15h5.24v-2.15h-5.24ZM472.09,968.67v-3.7h7.33v4.22h-7.33v-.52ZM473.14,966.02v2.15h5.24v-2.15h-5.24Z"/>
    </g>
    <g>
      <path class="st2" d="M445.21,1291.63v5.21c0,20.6-6.43,37.34-17.98,48.93s-28.24,18.02-48.79,18.02h-5.89v.99h5.89c20.81,0,37.76-6.54,49.5-18.31,11.73-11.77,18.26-28.75,18.26-49.63v-5.21h-.99,0Z"/>
      <path class="st2" d="M372.57,1293.87h73.64v-2.95h-73.64v2.95Z"/>
      <path class="st2" d="M380.87,1290.4v-4.19h-8.3v4.78h8.3v-.59ZM379.7,1287.4v2.42h-5.95v-2.42h5.95ZM380.87,1368.98v-4.2h-8.3v4.79h8.3v-.59ZM379.7,1365.96v2.43h-5.95v-2.43h5.95Z"/>
    </g>
    <g>
      <path class="st2" d="M429.26,1424.92v-3.92c0-15.48,4.83-28.05,13.5-36.75s21.21-13.54,36.65-13.54h4.42v-.74h-4.42c-15.64,0-28.36,4.91-37.18,13.76-8.81,8.83-13.71,21.59-13.71,37.28v3.92h.74Z"/>
      <path class="st2" d="M483.84,1423.22h-55.32v2.22h55.32v-2.22h0Z"/>
      <path class="st2" d="M477.6,1425.83v3.15h6.25v-3.59h-6.25v.44ZM478.48,1428.1v-1.82h4.47v1.82h-4.47ZM477.6,1366.81v3.16h6.25v-3.6h-6.25v.44ZM478.48,1369.07v-1.81h4.47v1.81h-4.47Z"/>
    </g>
    <path class="st2" d="M1174.69,423.54v3.5h-12.8c-.03-1.42.31-3.03,1.02-4.79.71-1.76,2.03-3.84,3.92-6.24,2.23-2.8,3.67-4.96,4.36-6.5.68-1.53,1.03-2.96,1.03-4.27,0-1.52-.35-2.77-1.05-3.73-.7-.95-1.57-1.43-2.61-1.43-1.1,0-2.02.51-2.72,1.54-.71,1.04-1.06,2.53-1.06,4.45l-2.44-.37c.17-2.86.81-5.01,1.93-6.46,1.1-1.44,2.57-2.17,4.38-2.17,1.97,0,3.47.84,4.48,2.52,1.01,1.68,1.52,3.6,1.52,5.74,0,1.89-.4,3.72-1.19,5.45-.79,1.75-2.31,4.08-4.53,6.99-1.42,1.83-2.34,3.09-2.75,3.75-.4.63-.74,1.31-1.01,2.01h9.51Z"/>
    <path class="st2" d="M1178.54,427.04v-4.17h2.7v4.17c0,1.62-.18,2.89-.56,3.8-.37.92-.92,1.62-1.64,2.11l-.65-1.57c.47-.32.83-.81,1.07-1.45.25-.65.38-1.61.41-2.89h-1.32Z"/>
    <path class="st2" d="M1199.7,412.31c0-4.99.53-8.79,1.59-11.36,1.07-2.58,2.64-3.87,4.71-3.87,1.83,0,3.28,1.04,4.34,3.13,1.28,2.53,1.93,6.57,1.93,12.1,0,4.98-.52,8.76-1.58,11.35-1.06,2.59-2.64,3.87-4.72,3.87-1.83,0-3.34-1.13-4.51-3.41-1.16-2.27-1.75-6.21-1.75-11.81h0ZM1202.14,412.31c0,4.84.37,8.1,1.09,9.74.73,1.65,1.67,2.48,2.82,2.48,1.07,0,1.97-.83,2.71-2.51.72-1.67,1.08-4.9,1.08-9.71s-.36-8.12-1.09-9.77c-.73-1.64-1.68-2.47-2.85-2.47-1.06,0-1.96.83-2.68,2.51-.72,1.67-1.08,4.91-1.08,9.72h0Z"/>
    <path class="st2" d="M1197.2,423.54v3.5h-12.8c-.04-1.42.3-3.03,1.01-4.79.71-1.76,2.03-3.84,3.92-6.24,2.23-2.8,3.68-4.96,4.37-6.5.68-1.53,1.02-2.96,1.02-4.27,0-1.52-.35-2.77-1.05-3.73-.7-.95-1.56-1.43-2.6-1.43-1.11,0-2.02.51-2.72,1.54-.71,1.04-1.07,2.53-1.07,4.45l-2.44-.37c.17-2.86.81-5.01,1.93-6.46s2.58-2.17,4.39-2.17c1.97,0,3.46.84,4.48,2.52,1.01,1.68,1.51,3.6,1.51,5.74,0,1.89-.39,3.72-1.19,5.45-.79,1.75-2.31,4.08-4.52,6.99-1.42,1.83-2.35,3.09-2.76,3.75-.39.64-.73,1.31-1,2.01h9.52,0Z"/>
    <path class="st2" d="M1943.32,923.58l-2.38.29c-.22-1.54-.55-2.64-.99-3.29-.63-.95-1.38-1.42-2.28-1.42-1.37,0-2.49,1.08-3.32,3.26-.71,1.88-1.07,4.64-1.08,8.31.54-1.31,1.22-2.3,2.06-2.98.83-.67,1.7-1.01,2.63-1.01,1.53,0,2.87.88,4.01,2.64,1.14,1.76,1.71,4.12,1.71,7.06,0,1.99-.29,3.81-.86,5.42-.57,1.62-1.31,2.82-2.21,3.6-.89.77-1.89,1.15-2.97,1.15-1.95,0-3.56-1.1-4.83-3.34-1.26-2.22-1.9-5.92-1.9-11.12,0-5.77.65-9.88,1.94-12.32,1.29-2.45,2.96-3.67,4.97-3.67,1.46,0,2.7.63,3.69,1.91.98,1.26,1.58,3.1,1.81,5.51h0ZM1933.63,936.45c0,2.16.4,3.88,1.21,5.19.8,1.31,1.73,1.97,2.8,1.97.93,0,1.77-.61,2.5-1.85.73-1.23,1.1-2.93,1.1-5.08s-.36-3.77-1.09-4.93-1.61-1.76-2.68-1.76-1.93.59-2.69,1.74c-.76,1.16-1.15,2.73-1.15,4.72Z"/>
    <path class="st2" d="M1953.56,938.28l2.5-.29c.19,1.89.63,3.31,1.3,4.24.68.92,1.47,1.38,2.38,1.38,1.12,0,2.09-.65,2.91-1.97.81-1.3,1.21-3.1,1.21-5.35,0-2.14-.39-3.79-1.17-4.96-.79-1.17-1.78-1.76-2.96-1.76-.72,0-1.39.25-2.02.76-.63.51-1.12,1.21-1.48,2.11l-2.24-.45,1.88-15.34h9.58v3.5h-7.71l-1.02,8.07c1.15-1.27,2.36-1.9,3.65-1.9,1.61,0,3.02.87,4.21,2.62s1.79,4.09,1.79,7.05-.6,5.41-1.79,7.5c-1.19,2.09-2.8,3.12-4.81,3.12-1.67,0-3.08-.73-4.23-2.21s-1.81-3.51-1.96-6.13Z"/>
    <path class="st2" d="M1947.4,946.11v-4.17h2.7v4.17c0,1.62-.19,2.89-.56,3.8-.38.92-.92,1.62-1.64,2.11l-.66-1.57c.48-.32.84-.81,1.08-1.45.25-.65.38-1.61.4-2.89h-1.31Z"/>
    <path class="st2" d="M1968.56,931.39c0-4.99.53-8.79,1.59-11.36,1.06-2.58,2.64-3.87,4.7-3.87,1.84,0,3.29,1.04,4.35,3.13,1.28,2.53,1.93,6.57,1.93,12.1,0,4.98-.53,8.76-1.58,11.35-1.06,2.59-2.64,3.87-4.72,3.87-1.83,0-3.34-1.13-4.51-3.41s-1.75-6.22-1.75-11.81h0ZM1971,931.39c0,4.84.36,8.1,1.09,9.74.73,1.65,1.66,2.48,2.81,2.48,1.08,0,1.98-.83,2.72-2.51.72-1.67,1.08-4.9,1.08-9.71s-.37-8.12-1.1-9.77c-.72-1.64-1.67-2.47-2.84-2.47-1.07,0-1.96.83-2.69,2.51-.71,1.67-1.07,4.91-1.07,9.72Z"/>
    <g>
      <path class="st2" d="M484.8,991.76h6.18c24.48,0,44.36,7.63,58.12,21.34,13.76,13.71,21.4,33.56,21.4,57.96v6.99h1.18v-6.99c0-24.73-7.77-44.85-21.76-58.79-13.98-13.95-34.15-21.7-58.95-21.7h-6.19v1.18h0Z"/>
      <path class="st2" d="M487.04,1078.05v-86.88h-2.95v86.88h2.95Z"/>
      <path class="st2" d="M483.58,1069.74h-4.2v8.31h4.79v-8.31h-.59,0ZM480.57,1070.92h2.43v5.94h-2.43v-5.94ZM575.88,1069.74h-4.19v8.31h4.78v-8.31h-.59ZM572.87,1070.92h2.42v5.94h-2.42v-5.94Z"/>
    </g>
    <path class="st2" d="M479.42,1084.72v-115.53h-34.56v115.53h34.56Z"/>
    <g>
      <path class="st2" d="M8.84,2.53h13.67v69.47h-13.67V2.53Z"/>
      <path class="st2" d="M284.48,1845.09H61.34v36.03h223.14v-36.03h0ZM285.9,1843.69v38.84H59.93v-38.84h225.97Z"/>
      <path class="st2" d="M8.84,2.53h1.9v69.47h-1.9V2.53Z"/>
      <path class="st2" d="M61.32,1864.52h223.16v3.79H61.32v-3.79ZM59.91,1863.11v6.62h225.99v-6.62H59.91h0Z"/>
      <path class="st2" d="M8.84,2.53h1.9v1.9h-1.9v-1.9Z"/>
      <path class="st2" d="M61.32,1864.52h3.8v3.79h-3.8v-3.79ZM59.91,1863.11v6.62h6.63v-6.62h-6.63,0Z"/>
      <path class="st2" d="M8.84,2.53h1.9v1.9h-1.9v-1.9Z"/>
      <path class="st2" d="M280.66,1864.52h3.8v3.79h-3.8v-3.79ZM279.26,1863.11v6.62h6.62v-6.62h-6.62Z"/>
      <path class="st2" d="M8.84,2.53h1.9v1.9h-1.9v-1.9Z"/>
      <path class="st2" d="M94.39,1864.52h3.8v3.79h-3.8v-3.79ZM92.97,1863.11v6.62h6.63v-6.62h-6.63Z"/>
      <path class="st2" d="M8.84,2.53h13.67v69.47h-13.67V2.53Z"/>
      <path class="st2" d="M835.15,1845.09h-223.15v36.03h223.15v-36.03h0ZM836.55,1843.69v38.84h-225.97v-38.84h225.97Z"/>
      <path class="st2" d="M8.84,2.53h1.9v69.47h-1.9V2.53Z"/>
      <path class="st2" d="M611.98,1864.52h223.17v3.79h-223.17v-3.79ZM610.58,1863.11v6.62h225.98v-6.62h-225.98Z"/>
      <path class="st2" d="M8.84,2.53h1.9v1.9h-1.9v-1.9Z"/>
      <path class="st2" d="M611.98,1864.52h3.8v3.79h-3.8v-3.79ZM610.58,1863.11v6.62h6.62v-6.62h-6.62Z"/>
      <path class="st2" d="M8.84,2.53h1.9v1.9h-1.9v-1.9Z"/>
      <path class="st2" d="M831.32,1864.52h3.81v3.79h-3.81v-3.79ZM829.92,1863.11v6.62h6.63v-6.62h-6.63Z"/>
      <path class="st2" d="M8.84,2.53h1.9v1.9h-1.9v-1.9Z"/>
      <path class="st2" d="M645.04,1864.52h3.81v3.79h-3.81v-3.79ZM643.64,1863.11v6.62h6.63v-6.62h-6.63Z"/>
      <path class="st2" d="M8.84,2.53h13.67v69.47h-13.67V2.53Z"/>
      <path class="st2" d="M1386.99,1845.09h-223.15v36.03h223.15v-36.03h0ZM1388.39,1843.69v38.84h-225.97v-38.84h225.97Z"/>
      <path class="st2" d="M8.84,2.53h1.9v69.47h-1.9V2.53Z"/>
      <path class="st2" d="M1163.82,1864.52h223.17v3.79h-223.17v-3.79ZM1162.42,1863.11v6.62h225.98v-6.62h-225.98Z"/>
      <path class="st2" d="M8.84,2.53h1.9v1.9h-1.9v-1.9Z"/>
      <path class="st2" d="M1163.82,1864.52h3.8v3.79h-3.8v-3.79h0ZM1162.42,1863.11v6.62h6.62v-6.62h-6.62Z"/>
      <path class="st2" d="M8.84,2.53h1.9v1.9h-1.9v-1.9Z"/>
      <path class="st2" d="M1383.17,1864.52h3.8v3.79h-3.8v-3.79h0ZM1381.76,1863.11v6.62h6.63v-6.62h-6.63Z"/>
      <path class="st2" d="M8.84,2.53h1.9v1.9h-1.9v-1.9Z"/>
      <path class="st2" d="M1196.88,1864.52h3.81v3.79h-3.81v-3.79ZM1195.48,1863.11v6.62h6.63v-6.62h-6.63Z"/>
      <path class="st2" d="M8.84,2.53h13.67v69.47h-13.67V2.53Z"/>
      <path class="st2" d="M1937.65,1845.09h-223.14v36.03h223.14v-36.03h0ZM1939.05,1843.69v38.84h-225.96v-38.84h225.96Z"/>
      <path class="st2" d="M8.84,2.53h1.9v69.47h-1.9V2.53Z"/>
      <path class="st2" d="M1714.48,1864.52h223.16v3.79h-223.16v-3.79ZM1713.07,1863.11v6.62h225.99v-6.62h-225.99Z"/>
      <path class="st2" d="M8.84,2.53h1.9v1.9h-1.9v-1.9Z"/>
      <path class="st2" d="M1714.48,1864.52h3.8v3.79h-3.8v-3.79ZM1713.07,1863.11v6.62h6.63v-6.62h-6.63Z"/>
      <path class="st2" d="M8.84,2.53h1.9v1.9h-1.9v-1.9Z"/>
      <path class="st2" d="M1933.82,1864.52h3.8v3.79h-3.8v-3.79ZM1932.41,1863.11v6.62h6.63v-6.62h-6.63Z"/>
      <path class="st2" d="M8.84,2.53h1.9v1.9h-1.9v-1.9Z"/>
      <path class="st2" d="M1747.55,1864.52h3.8v3.79h-3.8v-3.79ZM1746.14,1863.11v6.62h6.63v-6.62h-6.63Z"/>
      <path class="st2" d="M8.84,2.53h13.67v69.47h-13.67V2.53Z"/>
      <path class="st2" d="M560.83,1845.09h-223.15v36.03h223.15v-36.03h0ZM562.23,1843.69v38.84h-225.97v-38.84h225.97Z"/>
      <path class="st2" d="M8.84,2.53h1.9v69.47h-1.9V2.53Z"/>
      <path class="st2" d="M337.66,1864.52h223.17v3.79h-223.17v-3.79ZM336.26,1863.11v6.62h225.99v-6.62h-225.99Z"/>
      <path class="st2" d="M8.84,2.53h1.9v1.9h-1.9v-1.9Z"/>
      <path class="st2" d="M337.66,1864.52h3.81v3.79h-3.81v-3.79ZM336.26,1863.11v6.62h6.63v-6.62h-6.63Z"/>
      <path class="st2" d="M8.84,2.53h1.9v1.9h-1.9v-1.9Z"/>
      <path class="st2" d="M557.01,1864.52h3.8v3.79h-3.8v-3.79ZM555.6,1863.11v6.62h6.63v-6.62h-6.63Z"/>
      <path class="st2" d="M8.84,2.53h1.9v1.9h-1.9v-1.9Z"/>
      <path class="st2" d="M370.73,1864.52h3.8v3.79h-3.8v-3.79ZM369.32,1863.11v6.62h6.63v-6.62h-6.63Z"/>
      <path class="st2" d="M8.84,2.53h13.67v69.47h-13.67V2.53Z"/>
      <path class="st2" d="M1111.49,1845.09h-223.14v36.03h223.14v-36.03h0ZM1112.9,1843.69v38.84h-225.97v-38.84h225.97,0Z"/>
      <path class="st2" d="M8.84,2.53h1.9v69.47h-1.9V2.53Z"/>
      <path class="st2" d="M888.33,1864.52h223.16v3.79h-223.16v-3.79h0ZM886.91,1863.11v6.62h225.99v-6.62h-225.99Z"/>
      <path class="st2" d="M8.84,2.53h1.9v1.9h-1.9v-1.9Z"/>
      <path class="st2" d="M888.33,1864.52h3.8v3.79h-3.8v-3.79ZM886.91,1863.11v6.62h6.63v-6.62h-6.63Z"/>
      <path class="st2" d="M8.84,2.53h1.9v1.9h-1.9v-1.9Z"/>
      <path class="st2" d="M1107.67,1864.52h3.8v3.79h-3.8v-3.79ZM1106.25,1863.11v6.62h6.63v-6.62h-6.63Z"/>
      <path class="st2" d="M8.84,2.53h1.9v1.9h-1.9v-1.9Z"/>
      <path class="st2" d="M921.39,1864.52h3.8v3.79h-3.8v-3.79ZM919.98,1863.11v6.62h6.63v-6.62h-6.63Z"/>
      <path class="st2" d="M8.84,2.53h13.67v69.47h-13.67V2.53Z"/>
      <path class="st2" d="M1663.32,1845.09h-223.14v36.03h223.14v-36.03h0ZM1664.74,1843.69v38.84h-225.97v-38.84h225.97Z"/>
      <path class="st2" d="M8.84,2.53h1.9v69.47h-1.9V2.53Z"/>
      <path class="st2" d="M1440.17,1864.52h223.16v3.79h-223.16v-3.79ZM1438.75,1863.11v6.62h225.99v-6.62h-225.99,0Z"/>
      <path class="st2" d="M8.84,2.53h1.9v1.9h-1.9v-1.9Z"/>
      <path class="st2" d="M1440.17,1864.52h3.8v3.79h-3.8v-3.79ZM1438.75,1863.11v6.62h6.63v-6.62h-6.63Z"/>
      <path class="st2" d="M8.84,2.53h1.9v1.9h-1.9v-1.9Z"/>
      <path class="st2" d="M1659.51,1864.52h3.8v3.79h-3.8v-3.79ZM1658.09,1863.11v6.62h6.63v-6.62h-6.63Z"/>
      <path class="st2" d="M8.84,2.53h1.9v1.9h-1.9v-1.9Z"/>
      <path class="st2" d="M1473.23,1864.52h3.8v3.79h-3.8v-3.79h0ZM1471.82,1863.11v6.62h6.63v-6.62h-6.63Z"/>
      <path class="st2" d="M8.84,2.53h13.67v69.47h-13.67V2.53Z"/>
      <path class="st2" d="M2213.98,1845.09h-223.14v36.03h223.14v-36.03h0ZM2215.39,1843.69v38.84h-225.97v-38.84h225.97Z"/>
      <path class="st2" d="M8.84,2.53h1.9v69.47h-1.9V2.53Z"/>
      <path class="st2" d="M1990.82,1864.52h223.16v3.79h-223.16v-3.79ZM1989.41,1863.11v6.62h225.99v-6.62h-225.99Z"/>
      <path class="st2" d="M8.84,2.53h1.9v1.9h-1.9v-1.9Z"/>
      <path class="st2" d="M1990.82,1864.52h3.8v3.79h-3.8v-3.79ZM1989.41,1863.11v6.62h6.63v-6.62h-6.63Z"/>
      <path class="st2" d="M8.84,2.53h1.9v1.9h-1.9v-1.9Z"/>
      <path class="st2" d="M2210.16,1864.52h3.8v3.79h-3.8v-3.79ZM2208.76,1863.11v6.62h6.62v-6.62h-6.62Z"/>
      <path class="st2" d="M8.84,2.53h1.9v1.9h-1.9v-1.9Z"/>
      <path class="st2" d="M2023.89,1864.52h3.8v3.79h-3.8v-3.79ZM2022.47,1863.11v6.62h6.63v-6.62h-6.63Z"/>
    </g>
    <g>
      <path class="st2" d="M8.84,2.53h13.67v69.47h-13.67V2.53Z"/>
      <path class="st2" d="M1990.82,40.55h223.14V4.53h-223.14v36.02ZM1989.42,41.97V3.12h225.96v38.85s-225.96,0-225.96,0Z"/>
      <path class="st2" d="M8.84,2.53h1.9v69.47h-1.9V2.53Z"/>
      <path class="st2" d="M2213.98,21.12h-223.16v-3.78h223.16v3.78ZM2215.39,22.54v-6.61h-225.99v6.61h225.99Z"/>
      <path class="st2" d="M8.84,2.53h1.9v1.9h-1.9v-1.9Z"/>
      <path class="st2" d="M2213.98,21.12h-3.8v-3.78h3.8v3.78ZM2215.39,22.54v-6.61h-6.63v6.61h6.63Z"/>
      <path class="st2" d="M8.84,2.53h1.9v1.9h-1.9v-1.9Z"/>
      <path class="st2" d="M1994.64,21.12h-3.8v-3.78h3.8v3.78ZM1996.05,22.54v-6.61h-6.63v6.61h6.63Z"/>
      <path class="st2" d="M8.84,2.53h1.9v1.9h-1.9v-1.9Z"/>
      <path class="st2" d="M2180.92,21.12h-3.8v-3.78h3.8v3.78ZM2182.33,22.54v-6.61h-6.63v6.61h6.63Z"/>
      <path class="st2" d="M8.84,2.53h13.67v69.47h-13.67V2.53Z"/>
      <path class="st2" d="M1440.17,40.55h223.14V4.53h-223.14v36.02ZM1438.75,41.97V3.12h225.97v38.85s-225.97,0-225.97,0Z"/>
      <path class="st2" d="M8.84,2.53h1.9v69.47h-1.9V2.53Z"/>
      <path class="st2" d="M1663.32,21.12h-223.16v-3.78h223.16v3.78ZM1664.74,22.54v-6.61h-225.99v6.61h225.99,0Z"/>
      <path class="st2" d="M8.84,2.53h1.9v1.9h-1.9v-1.9Z"/>
      <path class="st2" d="M1663.32,21.12h-3.8v-3.78h3.8v3.78ZM1664.74,22.54v-6.61h-6.63v6.61h6.63Z"/>
      <path class="st2" d="M8.84,2.53h1.9v1.9h-1.9v-1.9Z"/>
      <path class="st2" d="M1443.98,21.12h-3.8v-3.78h3.8v3.78ZM1445.4,22.54v-6.61h-6.63v6.61h6.63Z"/>
      <path class="st2" d="M8.84,2.53h1.9v1.9h-1.9v-1.9Z"/>
      <path class="st2" d="M1630.26,21.12h-3.8v-3.78h3.8v3.78ZM1631.67,22.54v-6.61h-6.63v6.61h6.63Z"/>
      <path class="st2" d="M8.84,2.53h13.67v69.47h-13.67V2.53Z"/>
      <path class="st2" d="M888.33,40.55h223.14V4.53h-223.14v36.02h0ZM886.91,41.97V3.12h225.97v38.85s-225.97,0-225.97,0Z"/>
      <path class="st2" d="M8.84,2.53h1.9v69.47h-1.9V2.53Z"/>
      <path class="st2" d="M1111.49,21.12h-223.16v-3.78h223.16v3.78ZM1112.9,22.54v-6.61h-225.99v6.61h225.99,0Z"/>
      <path class="st2" d="M8.84,2.53h1.9v1.9h-1.9v-1.9Z"/>
      <path class="st2" d="M1111.49,21.12h-3.8v-3.78h3.8v3.78ZM1112.9,22.54v-6.61h-6.63v6.61h6.63Z"/>
      <path class="st2" d="M8.84,2.53h1.9v1.9h-1.9v-1.9Z"/>
      <path class="st2" d="M892.15,21.12h-3.8v-3.78h3.8v3.78ZM893.56,22.54v-6.61h-6.63v6.61h6.63Z"/>
      <path class="st2" d="M8.84,2.53h1.9v1.9h-1.9v-1.9Z"/>
      <path class="st2" d="M1078.42,21.12h-3.8v-3.78h3.8v3.78ZM1079.83,22.54v-6.61h-6.63v6.61h6.63Z"/>
      <path class="st2" d="M8.84,2.53h13.67v69.47h-13.67V2.53Z"/>
      <path class="st2" d="M337.67,40.55h223.14V4.53h-223.14v36.02ZM336.26,41.97V3.12h225.97v38.85s-225.97,0-225.97,0Z"/>
      <path class="st2" d="M8.84,2.53h1.9v69.47h-1.9V2.53Z"/>
      <path class="st2" d="M560.83,21.12h-223.17v-3.78h223.17v3.78ZM562.24,22.54v-6.61h-225.99v6.61h225.99Z"/>
      <path class="st2" d="M8.84,2.53h1.9v1.9h-1.9v-1.9Z"/>
      <path class="st2" d="M560.83,21.12h-3.8v-3.78h3.8v3.78ZM562.24,22.54v-6.61h-6.63v6.61h6.63Z"/>
      <path class="st2" d="M8.84,2.53h1.9v1.9h-1.9v-1.9Z"/>
      <path class="st2" d="M341.49,21.12h-3.81v-3.78h3.81v3.78ZM342.89,22.54v-6.61h-6.63v6.61h6.63Z"/>
      <path class="st2" d="M8.84,2.53h1.9v1.9h-1.9v-1.9Z"/>
      <path class="st2" d="M527.77,21.12h-3.8v-3.78h3.8v3.78ZM529.17,22.54v-6.61h-6.62v6.61h6.62Z"/>
      <path class="st2" d="M8.84,2.53h13.67v69.47h-13.67V2.53Z"/>
      <path class="st2" d="M1714.48,40.55h223.14V4.53h-223.14v36.02ZM1713.07,41.97V3.12h225.97v38.85s-225.97,0-225.97,0Z"/>
      <path class="st2" d="M8.84,2.53h1.9v69.47h-1.9V2.53Z"/>
      <path class="st2" d="M1937.65,21.12h-223.16v-3.78h223.16v3.78ZM1939.06,22.54v-6.61h-225.99v6.61h225.99,0Z"/>
      <path class="st2" d="M8.84,2.53h1.9v1.9h-1.9v-1.9Z"/>
      <path class="st2" d="M1937.65,21.12h-3.8v-3.78h3.8v3.78ZM1939.06,22.54v-6.61h-6.63v6.61h6.63Z"/>
      <path class="st2" d="M8.84,2.53h1.9v1.9h-1.9v-1.9Z"/>
      <path class="st2" d="M1718.31,21.12h-3.8v-3.78h3.8v3.78ZM1719.71,22.54v-6.61h-6.62v6.61h6.62Z"/>
      <path class="st2" d="M8.84,2.53h1.9v1.9h-1.9v-1.9Z"/>
      <path class="st2" d="M1904.58,21.12h-3.8v-3.78h3.8v3.78ZM1905.99,22.54v-6.61h-6.63v6.61h6.63Z"/>
      <path class="st2" d="M8.84,2.53h13.67v69.47h-13.67V2.53Z"/>
      <path class="st2" d="M1163.82,40.55h223.15V4.53h-223.15v36.02h0ZM1162.42,41.97V3.12h225.97v38.85s-225.97,0-225.97,0Z"/>
      <path class="st2" d="M8.84,2.53h1.9v69.47h-1.9V2.53Z"/>
      <path class="st2" d="M1386.99,21.12h-223.17v-3.78h223.17v3.78ZM1388.39,22.54v-6.61h-225.98v6.61h225.98Z"/>
      <path class="st2" d="M8.84,2.53h1.9v1.9h-1.9v-1.9Z"/>
      <path class="st2" d="M1386.99,21.12h-3.8v-3.78h3.8v3.78ZM1388.39,22.54v-6.61h-6.62v6.61h6.62Z"/>
      <path class="st2" d="M8.84,2.53h1.9v1.9h-1.9v-1.9Z"/>
      <path class="st2" d="M1167.65,21.12h-3.81v-3.78h3.81v3.78ZM1169.05,22.54v-6.61h-6.63v6.61h6.63Z"/>
      <path class="st2" d="M8.84,2.53h1.9v1.9h-1.9v-1.9Z"/>
      <path class="st2" d="M1353.93,21.12h-3.81v-3.78h3.81v3.78ZM1355.33,22.54v-6.61h-6.63v6.61h6.63Z"/>
      <path class="st2" d="M8.84,2.53h13.67v69.47h-13.67V2.53Z"/>
      <path class="st2" d="M611.98,40.55h223.15V4.53h-223.15v36.02ZM610.58,41.97V3.12h225.97v38.85h-225.97Z"/>
      <path class="st2" d="M8.84,2.53h1.9v69.47h-1.9V2.53Z"/>
      <path class="st2" d="M835.15,21.12h-223.17v-3.78h223.17v3.78h0ZM836.55,22.54v-6.61h-225.98v6.61h225.98Z"/>
      <path class="st2" d="M8.84,2.53h1.9v1.9h-1.9v-1.9Z"/>
      <path class="st2" d="M835.15,21.12h-3.8v-3.78h3.8v3.78ZM836.55,22.54v-6.61h-6.62v6.61h6.62Z"/>
      <path class="st2" d="M8.84,2.53h1.9v1.9h-1.9v-1.9Z"/>
      <path class="st2" d="M615.8,21.12h-3.8v-3.78h3.8v3.78ZM617.21,22.54v-6.61h-6.63v6.61h6.63Z"/>
      <path class="st2" d="M8.84,2.53h1.9v1.9h-1.9v-1.9Z"/>
      <path class="st2" d="M802.09,21.12h-3.81v-3.78h3.81v3.78ZM803.49,22.54v-6.61h-6.63v6.61h6.63Z"/>
      <path class="st2" d="M8.84,2.53h13.67v69.47h-13.67V2.53Z"/>
      <path class="st2" d="M61.32,40.55h223.14V4.53H61.32v36.02ZM59.92,41.97V3.12h225.96v38.85H59.92h0Z"/>
      <path class="st2" d="M8.84,2.53h1.9v69.47h-1.9V2.53Z"/>
      <path class="st2" d="M284.48,21.12H61.32v-3.78h223.16v3.78ZM285.9,22.54v-6.61H59.91v6.61h225.99Z"/>
      <path class="st2" d="M8.84,2.53h1.9v1.9h-1.9v-1.9Z"/>
      <path class="st2" d="M284.48,21.12h-3.8v-3.78h3.8v3.78ZM285.9,22.54v-6.61h-6.63v6.61h6.63Z"/>
      <path class="st2" d="M8.84,2.53h1.9v1.9h-1.9v-1.9Z"/>
      <path class="st2" d="M65.14,21.12h-3.8v-3.78h3.8v3.78ZM66.56,22.54v-6.61h-6.63v6.61h6.63Z"/>
      <path class="st2" d="M8.84,2.53h1.9v1.9h-1.9v-1.9Z"/>
      <path class="st2" d="M251.42,21.12h-3.8v-3.78h3.8v3.78ZM252.83,22.54v-6.61h-6.63v6.61h6.63Z"/>
    </g>
    <g>
      <path class="st2" d="M9.54,56.1h37.44v208.93H9.54V56.1Z"/>
      <path class="st2" d="M46.28,265.08V56.1H10.25v208.97h36.02ZM47.69,266.49H8.84V54.69h38.85v211.8h0Z"/>
      <path class="st2" d="M22.35,55.38h5.2v211.11h-5.2V55.38Z"/>
      <path class="st2" d="M26.85,56.08v209h-3.78V56.08h3.78ZM28.26,54.68h-6.61v211.81h6.61V54.68h0Z"/>
      <path class="st2" d="M22.35,55.38h5.2v5.21h-5.2v-5.21Z"/>
      <path class="st2" d="M26.85,56.08v3.81h-3.78v-3.81h3.78ZM28.26,54.68h-6.61v6.63h6.61v-6.63h0Z"/>
      <path class="st2" d="M22.35,260.55h5.2v5.21h-5.2v-5.21Z"/>
      <path class="st2" d="M26.85,261.26v3.8h-3.78v-3.8h3.78ZM28.26,259.85h-6.61v6.63h6.61v-6.63Z"/>
      <path class="st2" d="M22.35,88.44h5.2v5.21h-5.2v-5.21Z"/>
      <path class="st2" d="M26.85,89.16v3.8h-3.78v-3.8h3.78ZM28.26,87.74h-6.61v6.63h6.61v-6.63Z"/>
      <path class="st2" d="M9.54,315.92h37.44v208.93H9.54v-208.93Z"/>
      <path class="st2" d="M46.28,524.89v-208.97H10.25v208.97h36.02ZM47.69,526.29H8.84v-211.79h38.85v211.79h0Z"/>
      <path class="st2" d="M22.35,315.18h5.2v211.11h-5.2v-211.11Z"/>
      <path class="st2" d="M26.85,315.9v208.99h-3.78v-208.99h3.78ZM28.26,314.48h-6.61v211.82h6.61v-211.82h0Z"/>
      <path class="st2" d="M22.35,315.19h5.2v5.21h-5.2v-5.21Z"/>
      <path class="st2" d="M26.85,315.9v3.8h-3.78v-3.8h3.78ZM28.26,314.48h-6.61v6.63h6.61v-6.63Z"/>
      <path class="st2" d="M22.35,520.36h5.2v5.21h-5.2v-5.21Z"/>
      <path class="st2" d="M26.85,521.07v3.8h-3.78v-3.8h3.78ZM28.26,519.66h-6.61v6.63h6.61v-6.63Z"/>
      <path class="st2" d="M22.35,348.26h5.2v5.21h-5.2v-5.21Z"/>
      <path class="st2" d="M26.85,348.96v3.8h-3.78v-3.8h3.78ZM28.26,347.55h-6.61v6.63h6.61v-6.63Z"/>
      <path class="st2" d="M9.54,1098.1h37.44v208.93H9.54v-208.93Z"/>
      <path class="st2" d="M46.28,1307.08v-208.97H10.25v208.97h36.02ZM47.69,1308.49H8.84v-211.8h38.85v211.8h0Z"/>
      <path class="st2" d="M22.35,1097.38h5.2v211.11h-5.2v-211.11Z"/>
      <path class="st2" d="M26.85,1098.08v208.99h-3.78v-208.99h3.78ZM28.26,1096.67h-6.61v211.82h6.61v-211.82h0Z"/>
      <path class="st2" d="M22.35,1097.38h5.2v5.21h-5.2v-5.21Z"/>
      <path class="st2" d="M26.85,1098.08v3.8h-3.78v-3.8h3.78ZM28.26,1096.67h-6.61v6.63h6.61v-6.63Z"/>
      <path class="st2" d="M22.35,1302.56h5.2v5.21h-5.2v-5.21Z"/>
      <path class="st2" d="M26.85,1303.26v3.8h-3.78v-3.8h3.78ZM28.26,1301.84h-6.61v6.63h6.61v-6.63Z"/>
      <path class="st2" d="M22.35,1130.45h5.2v5.21h-5.2v-5.21Z"/>
      <path class="st2" d="M26.85,1131.15v3.8h-3.78v-3.8h3.78ZM28.26,1129.74h-6.61v6.62h6.61v-6.62Z"/>
      <path class="st2" d="M9.54,579.26h37.44v208.93H9.54v-208.93Z"/>
      <path class="st2" d="M46.28,788.23v-208.97H10.25v208.97h36.02ZM47.69,789.65H8.84v-211.8h38.85v211.8h0Z"/>
      <path class="st2" d="M22.35,578.54h5.2v211.11h-5.2v-211.11Z"/>
      <path class="st2" d="M26.85,579.24v209h-3.78v-209h3.78ZM28.26,577.84h-6.61v211.81h6.61v-211.81Z"/>
      <path class="st2" d="M22.35,578.54h5.2v5.21h-5.2v-5.21Z"/>
      <path class="st2" d="M26.85,579.24v3.81h-3.78v-3.81h3.78ZM28.26,577.84h-6.61v6.63h6.61v-6.63Z"/>
      <path class="st2" d="M22.35,783.71h5.2v5.21h-5.2v-5.21Z"/>
      <path class="st2" d="M26.85,784.41v3.8h-3.78v-3.8h3.78ZM28.26,783.01h-6.61v6.63h6.61v-6.63Z"/>
      <path class="st2" d="M22.35,611.6h5.2v5.21h-5.2v-5.21Z"/>
      <path class="st2" d="M26.85,612.31v3.8h-3.78v-3.8h3.78ZM28.26,610.9h-6.61v6.63h6.61v-6.63h0Z"/>
      <path class="st2" d="M9.54,1361.46h37.44v208.93H9.54v-208.93Z"/>
      <path class="st2" d="M46.28,1570.43v-208.97H10.25v208.97h36.02ZM47.69,1571.83H8.84v-211.79h38.85v211.79h0Z"/>
      <path class="st2" d="M22.35,1360.72h5.2v211.11h-5.2v-211.11Z"/>
      <path class="st2" d="M26.85,1361.44v208.99h-3.78v-208.99h3.78ZM28.26,1360.02h-6.61v211.82h6.61v-211.82h0Z"/>
      <path class="st2" d="M22.35,1360.73h5.2v5.21h-5.2v-5.21Z"/>
      <path class="st2" d="M26.85,1361.44v3.8h-3.78v-3.8h3.78ZM28.26,1360.02h-6.61v6.63h6.61v-6.63Z"/>
      <path class="st2" d="M22.35,1565.9h5.2v5.21h-5.2v-5.21Z"/>
      <path class="st2" d="M26.85,1566.61v3.8h-3.78v-3.8h3.78ZM28.26,1565.2h-6.61v6.63h6.61v-6.63Z"/>
      <path class="st2" d="M22.35,1393.8h5.2v5.21h-5.2v-5.21Z"/>
      <path class="st2" d="M26.85,1394.5v3.8h-3.78v-3.8h3.78ZM28.26,1393.09h-6.61v6.63h6.61v-6.63Z"/>
      <path class="st2" d="M9.54,839.07h37.44v208.93H9.54v-208.93Z"/>
      <path class="st2" d="M46.28,1048.05v-208.97H10.25v208.97h36.02ZM47.69,1049.45H8.84v-211.79h38.85v211.79h0Z"/>
      <path class="st2" d="M22.35,838.34h5.2v211.11h-5.2v-211.11Z"/>
      <path class="st2" d="M26.85,839.05v208.99h-3.78v-208.99h3.78ZM28.26,837.64h-6.61v211.82h6.61v-211.82h0Z"/>
      <path class="st2" d="M22.35,838.35h5.2v5.21h-5.2v-5.21Z"/>
      <path class="st2" d="M26.85,839.05v3.8h-3.78v-3.8h3.78ZM28.26,837.64h-6.61v6.63h6.61v-6.63Z"/>
      <path class="st2" d="M22.35,1043.51h5.2v5.21h-5.2v-5.21Z"/>
      <path class="st2" d="M26.85,1044.23v3.8h-3.78v-3.8h3.78ZM28.26,1042.81h-6.61v6.63h6.61v-6.63Z"/>
      <path class="st2" d="M22.35,871.41h5.2v5.21h-5.2v-5.21Z"/>
      <path class="st2" d="M26.85,872.12v3.8h-3.78v-3.8h3.78ZM28.26,870.7h-6.61v6.63h6.61v-6.63Z"/>
      <path class="st2" d="M9.54,1621.26h37.44v208.93H9.54v-208.93Z"/>
      <path class="st2" d="M46.28,1830.23v-208.97H10.25v208.97h36.02ZM47.69,1831.65H8.84v-211.8h38.85v211.8h0Z"/>
      <path class="st2" d="M22.35,1620.54h5.2v211.11h-5.2v-211.11Z"/>
      <path class="st2" d="M26.85,1621.24v208.99h-3.78v-208.99h3.78ZM28.26,1619.83h-6.61v211.82h6.61v-211.82h0Z"/>
      <path class="st2" d="M22.35,1620.54h5.2v5.21h-5.2v-5.21Z"/>
      <path class="st2" d="M26.85,1621.24v3.8h-3.78v-3.8h3.78ZM28.26,1619.83h-6.61v6.63h6.61v-6.63Z"/>
      <path class="st2" d="M22.35,1825.71h5.2v5.21h-5.2v-5.21Z"/>
      <path class="st2" d="M26.85,1826.41v3.8h-3.78v-3.8h3.78ZM28.26,1825h-6.61v6.63h6.61v-6.63h0Z"/>
      <path class="st2" d="M22.35,1653.6h5.2v5.21h-5.2v-5.21Z"/>
      <path class="st2" d="M26.85,1654.3v3.8h-3.78v-3.8h3.78ZM28.26,1652.9h-6.61v6.62h6.61v-6.62Z"/>
    </g>
    <g>
      <path class="st2" d="M2229.59,56.28h37.44v249.95h-37.44V56.28Z"/>
      <path class="st2" d="M2230.29,57.1v249.13h36.03V57.1h-36.03ZM2228.89,55.69h38.84v251.95h-38.84V55.69h0Z"/>
      <path class="st2" d="M2249.01,57.1h5.2v249.85h-5.2V57.1Z"/>
      <path class="st2" d="M2249.72,306.25V57.1h3.79v249.15h-3.79ZM2248.31,307.67h6.62V55.69h-6.62v251.97Z"/>
      <path class="st2" d="M2249.01,301.74h5.2v5.21h-5.2v-5.21Z"/>
      <path class="st2" d="M2249.72,306.25v-3.8h3.79v3.8h-3.79ZM2248.31,307.67h6.62v-6.63h-6.62v6.63Z"/>
      <path class="st2" d="M2249.01,56.41h5.2v5.21h-5.2v-5.21Z"/>
      <path class="st2" d="M2249.72,60.92v-3.8h3.79v3.8h-3.79ZM2248.31,62.34h6.62v-6.63h-6.62v6.63Z"/>
      <path class="st2" d="M2249.01,268.68h5.2v5.21h-5.2v-5.21Z"/>
      <path class="st2" d="M2249.72,273.19v-3.8h3.79v3.8h-3.79ZM2248.31,274.59h6.62v-6.62h-6.62v6.62Z"/>
      <path class="st2" d="M2229.59,664.88h37.44v249.95h-37.44v-249.95Z"/>
      <path class="st2" d="M2230.29,665.7v249.12h36.03v-249.12h-36.03ZM2228.89,664.29h38.84v251.95h-38.84v-251.95h0Z"/>
      <path class="st2" d="M2249.01,665.7h5.2v249.85h-5.2v-249.85Z"/>
      <path class="st2" d="M2249.72,914.84v-249.14h3.79v249.15h-3.79ZM2248.31,916.25h6.62v-251.96h-6.62v251.96h0Z"/>
      <path class="st2" d="M2249.01,910.33h5.2v5.21h-5.2v-5.21Z"/>
      <path class="st2" d="M2249.72,914.84v-3.8h3.79v3.8h-3.79ZM2248.31,916.25h6.62v-6.62h-6.62v6.62Z"/>
      <path class="st2" d="M2249.01,665.01h5.2v5.21h-5.2v-5.21Z"/>
      <path class="st2" d="M2249.72,669.52v-3.8h3.79v3.8h-3.79ZM2248.31,670.93h6.62v-6.63h-6.62v6.63Z"/>
      <path class="st2" d="M2249.01,877.27h5.2v5.21h-5.2v-5.21Z"/>
      <path class="st2" d="M2249.72,881.78v-3.81h3.79v3.81h-3.79ZM2248.31,883.18h6.62v-6.63h-6.62v6.63Z"/>
      <path class="st2" d="M2229.59,1273.47h37.44v249.95h-37.44v-249.95Z"/>
      <path class="st2" d="M2230.29,1274.29v249.13h36.03v-249.13h-36.03ZM2228.89,1272.88h38.84v251.95h-38.84v-251.95h0Z"/>
      <path class="st2" d="M2249.01,1274.29h5.2v249.85h-5.2v-249.85Z"/>
      <path class="st2" d="M2249.72,1523.44v-249.15h3.79v249.15h-3.79ZM2248.31,1524.84h6.62v-251.96h-6.62v251.96h0Z"/>
      <path class="st2" d="M2249.01,1518.93h5.2v5.21h-5.2v-5.21Z"/>
      <path class="st2" d="M2249.72,1523.44v-3.8h3.79v3.8h-3.79ZM2248.31,1524.84h6.62v-6.62h-6.62v6.62Z"/>
      <path class="st2" d="M2249.01,1273.6h5.2v5.21h-5.2v-5.21Z"/>
      <path class="st2" d="M2249.72,1278.11v-3.8h3.79v3.8h-3.79ZM2248.31,1279.53h6.62v-6.63h-6.62v6.63Z"/>
      <path class="st2" d="M2249.01,1485.86h5.2v5.21h-5.2v-5.21Z"/>
      <path class="st2" d="M2249.72,1490.38v-3.81h3.79v3.81h-3.79ZM2248.31,1491.78h6.62v-6.63h-6.62v6.63Z"/>
      <path class="st2" d="M2229.59,360.97h37.44v249.95h-37.44v-249.95Z"/>
      <path class="st2" d="M2230.29,361.78v249.13h36.03v-249.13h-36.03ZM2228.89,360.38h38.84v251.94h-38.84v-251.94h0Z"/>
      <path class="st2" d="M2249.01,361.78h5.2v249.85h-5.2v-249.85Z"/>
      <path class="st2" d="M2249.72,610.93v-249.15h3.79v249.15h-3.79ZM2248.31,612.34h6.62v-251.96h-6.62v251.96Z"/>
      <path class="st2" d="M2249.01,606.43h5.2v5.21h-5.2v-5.21Z"/>
      <path class="st2" d="M2249.72,610.93v-3.8h3.79v3.8h-3.79ZM2248.31,612.34h6.62v-6.63h-6.62v6.63Z"/>
      <path class="st2" d="M2249.01,361.1h5.2v5.21h-5.2v-5.21Z"/>
      <path class="st2" d="M2249.72,365.61v-3.81h3.79v3.81h-3.79ZM2248.31,367.02h6.62v-6.63h-6.62v6.63Z"/>
      <path class="st2" d="M2249.01,573.35h5.2v5.21h-5.2v-5.21Z"/>
      <path class="st2" d="M2249.72,577.86v-3.8h3.79v3.8h-3.79ZM2248.31,579.28h6.62v-6.63h-6.62v6.63Z"/>
      <path class="st2" d="M2229.59,969.57h37.44v249.95h-37.44v-249.95Z"/>
      <path class="st2" d="M2230.29,970.38v249.13h36.03v-249.13h-36.03ZM2228.89,968.97h38.84v251.94h-38.84v-251.94h0Z"/>
      <path class="st2" d="M2249.01,970.38h5.2v249.85h-5.2v-249.85Z"/>
      <path class="st2" d="M2249.72,1219.52v-249.15h3.79v249.15h-3.79ZM2248.31,1220.94h6.62v-251.96h-6.62v251.96h0Z"/>
      <path class="st2" d="M2249.01,1215.02h5.2v5.21h-5.2v-5.21Z"/>
      <path class="st2" d="M2249.72,1219.52v-3.8h3.79v3.8h-3.79ZM2248.31,1220.94h6.62v-6.63h-6.62v6.63Z"/>
      <path class="st2" d="M2249.01,969.7h5.2v5.21h-5.2v-5.21Z"/>
      <path class="st2" d="M2249.72,974.21v-3.81h3.79v3.81h-3.79ZM2248.31,975.61h6.62v-6.63h-6.62v6.63Z"/>
      <path class="st2" d="M2249.01,1181.95h5.2v5.21h-5.2v-5.21Z"/>
      <path class="st2" d="M2249.72,1186.46v-3.8h3.79v3.8h-3.79ZM2248.31,1187.87h6.62v-6.63h-6.62v6.63Z"/>
      <path class="st2" d="M2229.59,1578.16h37.44v249.95h-37.44v-249.95Z"/>
      <path class="st2" d="M2230.29,1578.97v249.13h36.03v-249.13h-36.03ZM2228.89,1577.57h38.84v251.94h-38.84v-251.94h0Z"/>
      <path class="st2" d="M2249.01,1578.97h5.2v249.85h-5.2v-249.85Z"/>
      <path class="st2" d="M2249.72,1828.12v-249.15h3.79v249.15h-3.79ZM2248.31,1829.53h6.62v-251.96h-6.62v251.96Z"/>
      <path class="st2" d="M2249.01,1823.61h5.2v5.21h-5.2v-5.21Z"/>
      <path class="st2" d="M2249.72,1828.12v-3.8h3.79v3.8h-3.79ZM2248.31,1829.53h6.62v-6.63h-6.62v6.63Z"/>
      <path class="st2" d="M2249.01,1578.29h5.2v5.21h-5.2v-5.21Z"/>
      <path class="st2" d="M2249.72,1582.79v-3.8h3.79v3.8h-3.79ZM2248.31,1584.21h6.62v-6.63h-6.62v6.63Z"/>
      <path class="st2" d="M2249.01,1790.54h5.2v5.21h-5.2v-5.21Z"/>
      <path class="st2" d="M2249.72,1795.05v-3.8h3.79v3.8h-3.79ZM2248.31,1796.47h6.62v-6.63h-6.62v6.63Z"/>
    </g>
    <path class="st2" d="M477.6,1358.06h107.61v8.31h-107.61v-8.31h0Z"/>
    <g>
      <path class="st2" d="M546.3,1454.32c.22,0,.64.03.77.04h24.32v27.16h-24.44s-.43.04-.65.04c-7.27,0-13.19-6.11-13.19-13.61s5.92-13.62,13.19-13.62h0ZM546.3,1452.67c-8.2,0-14.85,6.84-14.85,15.28s6.65,15.27,14.85,15.27c.27,0,.77-.03.77-.03h25.98v-30.48h-25.98s-.5-.04-.77-.04Z"/>
      <path class="st2" d="M575.25,1457.71v20.46h-1.7v-20.46h1.7ZM576.91,1456.06h-5.02v23.77h5.02v-23.77Z"/>
    </g>
    <g>
      <path class="st2" d="M429.6,1495.42v-3.89c0-15.39,4.8-27.89,13.42-36.53,8.62-8.65,21.08-13.45,36.42-13.45h4.4v-.74h-4.4c-15.54,0-28.19,4.88-36.95,13.68-8.76,8.78-13.64,21.46-13.64,37.06v3.89h.74Z"/>
      <path class="st2" d="M483.84,1493.73h-54.99v2.2h54.99v-2.2Z"/>
      <path class="st2" d="M477.64,1496.32v3.14h6.21v-3.57h-6.21v.43ZM478.52,1498.58v-1.81h4.44v1.81h-4.44ZM477.64,1437.67v3.13h6.21v-3.57h-6.21v.44h0ZM478.52,1439.92v-1.81h4.44v1.81h-4.44Z"/>
    </g>
    <g>
      <path class="st2" d="M484.87,834.81h6.21c24.58,0,44.54-7.66,58.36-21.43,13.8-13.78,21.48-33.69,21.48-58.19v-7.02h1.18v7.02c0,24.83-7.8,45.03-21.84,59.03s-34.29,21.78-59.19,21.78h-6.21v-1.18h0Z"/>
      <path class="st2" d="M487.12,748.17v87.23h-2.97v-87.23h2.97Z"/>
      <path class="st2" d="M483.64,756.51h-4.22v-8.34h4.81v8.34h-.59ZM480.61,755.33h2.44v-5.97h-2.44v5.97ZM576.32,756.51h-4.22v-8.34h4.81v8.34h-.59,0ZM573.29,755.33h2.43v-5.97h-2.43v5.97Z"/>
    </g>
    <path class="st2" d="M1144.77,404.91h-11.46v-8.31h11.46v8.31h0ZM1864.31,723.71h161.23v8.31h-161.23v-8.31ZM2026.41,823.37h-16.13v8.31h16.13v-8.31ZM1629.02,723.7h67.59v17.72h-67.59v-17.72ZM1471.46,723.7h50.4v17.72h-50.4v-17.72Z"/>
  </g>
</svg>