<svg version="1.1" xmlns="http://www.w3.org/2000/svg" xmlns:xlink="http://www.w3.org/1999/xlink" viewBox="1651.014 0 704.585 606.574"><path d="m2355.598 606.532-458.757.042v-1.561l-171.557 1.102-74.27-28V514.24h74.27V.038L2351.499 0l4.1 606.532Z" fill="none" stroke-width="0"></path><path d="m1732.465 604.776-1.23-583.368 591.577 1.893v571.323l-582.491 10.389-7.856-.237Z" fill="none" stroke-width="0"></path><clipPath id="a"><path d="m2355.598 606.532-458.757.042v-1.561l-171.557 1.102-74.27-28V514.24h74.27V.038L2351.499 0l4.1 606.532Z" fill="none" stroke-width="0"></path></clipPath><g data-name="Layer 1" clip-path="url(#a)"><g data-name="Слой_1"><path d="M30.18 5.29h2321.064v1686.99H10.754V5.29H30.18Zm2282.214 38.839H49.604v1609.31h2262.79V44.13Z" fill="#58595b" stroke-width="0"></path><g data-name="1933187336672" fill="#58595b" stroke-width="0"><path d="M1725.284 392.022v119.443h23.612V392.022h-23.612zm0-348.394V145.61h23.612V43.628h-23.612z"></path><path d="M1742.995 138.958v366.016h-17.711V138.958h17.711z"></path><path d="M1683.188 493.754h48.046v17.711h-48.046v-17.711zm-142.915-84.101h185.01v17.722h-185.01v-17.722zm356.567 197.564h418.77v-17.722h-418.77v17.722z"></path><path d="M1896.84 589.495v60.99h17.713v-60.99h-17.712zm-165.375 7.243v55.62h17.712v-55.62h-17.712z"></path></g><path fill="#58595b" stroke-width="0" d="M1896.84 409.533v183.579h8.316v-183.58h-8.315zm94.82 4.147h98.978v-8.305h-98.977v8.305zm-51.562 252.592v-63.754h8.315v63.754h-8.315zm-194.328-69.574h151.07v8.315h-151.07v-8.315z"></path><path fill="#58595b" stroke-width="0" d="M2004.423 589.495V406.998h-8.304v182.497h8.304zm86.215 0v-85.563h-8.305v85.563h8.305zm0-168.912v-13.014h-8.305v13.014h8.305zm-193.798-6.903h11.461v-8.305h-11.46v8.305zm121.148 277.768v-91.645h8.305v91.645h-8.305zm-470.623-179.983h136.454v-8.315h-136.454v8.315z"></path><g data-name="1930516480656" fill="#010101" stroke-width="0"><path d="M2035.028 576.462c-.22 0-.641-.04-.771-.04h-24.324v-27.169h24.444c.01 0 .43-.04.651-.04 7.283 0 13.204 6.11 13.204 13.624s-5.92 13.625-13.204 13.625Zm0 1.653c8.205 0 14.857-6.843 14.857-15.278s-6.652-15.277-14.857-15.277c-.26 0-.771.04-.771.04h-25.977v30.475h25.977s.51.04.771.04Z"></path><path d="M2006.086 573.066v-20.457h1.703v20.457h-1.703Zm-1.663 1.653h5.03v-23.763h-5.03v23.763Z"></path></g><g data-name="1933035291616"><path d="M2042.01 530.239v-40.763h-36.294v40.763h36.295Zm1.283 1.282h-38.87v-43.327h38.87v43.327Z" fill="#231f20" stroke-width="0"></path><path d="M2037.823 524.619c.952 0 1.733-.771 1.733-1.733v-25.947a1.74 1.74 0 0 0-1.733-1.733h-13.825c-.951 0-1.723.782-1.723 1.733v25.947c0 .962.772 1.733 1.723 1.733h13.825Zm0 1.282h-13.825a3.012 3.012 0 0 1-3.015-3.015v-25.947a3.018 3.018 0 0 1 3.015-3.015h13.825a3.018 3.018 0 0 1 3.016 3.015v25.957a3.018 3.018 0 0 1-3.016 3.015v-.01Zm-18.863-13.073c.57 0 1.041.47 1.041 1.042s-.47 1.042-1.042 1.042a1.041 1.041 0 1 1 0-2.084Zm0-7.904c.57 0 1.041.47 1.041 1.041s-.47 1.032-1.042 1.032c-.58 0-1.041-.46-1.041-1.032s.46-1.041 1.041-1.041Z" fill="#231f20" stroke-width="0"></path><path fill="none" stroke="#231f20" stroke-linecap="round" stroke-miterlimit="22.967" stroke-width=".471" d="M2018.198 509.913h7.053"></path><path d="M2008.801 528.085v-2.575l-3.085.01v2.575l3.085-.01Zm1.283 1.292h-5.65v-5.149h5.65v5.15Zm-1.283-35.062v-2.575h-3.085v2.575h3.085Zm1.283 1.282h-5.65v-5.14h5.65v5.14Z" fill="#010101" stroke-width="0"></path><path fill="none" stroke="#010101" stroke-linecap="round" stroke-linejoin="round" stroke-width=".471" d="M2007.259 524.398v-28.801"></path></g><g data-name="1894802752480" stroke-width="0"><path d="M1974.75 585.518h-42.756c-2.705 0-5.16-1.112-6.943-2.885a9.809 9.809 0 0 1-2.885-6.943v-43.498a9.809 9.809 0 0 1 2.885-6.942c1.783-1.773 4.238-2.885 6.943-2.885h42.756a9.851 9.851 0 0 1 6.943 2.885 9.809 9.809 0 0 1 2.885 6.942v43.498a9.809 9.809 0 0 1-2.885 6.943 9.851 9.851 0 0 1-6.943 2.885Zm-42.756.591h42.756a10.39 10.39 0 0 0 7.363-3.066 10.383 10.383 0 0 0 3.056-7.353v-43.498a10.38 10.38 0 0 0-3.056-7.353 10.39 10.39 0 0 0-7.363-3.065h-42.756a10.39 10.39 0 0 0-7.363 3.065 10.383 10.383 0 0 0-3.056 7.353v43.498a10.38 10.38 0 0 0 3.056 7.353 10.39 10.39 0 0 0 7.363 3.066Z"></path><path d="M1973.268 583.314h-39.792a9.11 9.11 0 0 1-6.451-2.685 9.11 9.11 0 0 1-2.685-6.451v-40.473c0-2.514 1.032-4.798 2.685-6.451s3.937-2.675 6.451-2.675h39.792a9.096 9.096 0 0 1 6.441 2.675 9.11 9.11 0 0 1 2.685 6.451v40.473c0 2.514-1.032 4.798-2.685 6.451s-3.937 2.685-6.441 2.685Zm-39.792.581h39.792a9.693 9.693 0 0 0 6.862-2.845 9.701 9.701 0 0 0 2.855-6.872v-40.473a9.701 9.701 0 0 0-2.855-6.872 9.693 9.693 0 0 0-6.862-2.845h-39.792a9.734 9.734 0 0 0-6.872 2.845 9.743 9.743 0 0 0-2.855 6.872v40.473a9.743 9.743 0 0 0 2.855 6.872 9.734 9.734 0 0 0 6.872 2.845Z"></path><path d="M1987.343 588.323H1919.4V519.57h67.942v68.753Zm-68.533 1.172h69.715v-71.107h-70.306v71.107h.591Z"></path><path d="M1975.06 578.135c-.62 0-1.181-.25-1.582-.652a2.26 2.26 0 0 1-.661-1.582c0-.621.26-1.182.661-1.593.4-.401.972-.651 1.583-.651.621 0 1.182.25 1.593.65.4.411.65.972.65 1.594 0 .61-.25 1.172-.65 1.582a2.275 2.275 0 0 1-1.593.652Zm-2.003-.23c.511.51 1.222.82 2.004.82a2.823 2.823 0 0 0 2.835-2.824 2.81 2.81 0 0 0-.832-2.004c-.51-.52-1.222-.831-2.003-.831s-1.493.31-2.004.831a2.832 2.832 0 0 0-.831 2.004c0 .771.32 1.482.831 2.003Z"></path></g><g data-name="1931367753936" fill="#231f20" stroke-width="0"><path d="M1677.288 42.726H1516.72V6.702h160.568v36.024Zm1.412 1.413V5.289h-163.392v38.85H1678.7Z"></path><path d="M1677.288 23.301H1516.71v-3.786h160.578V23.3Zm1.412 1.413v-6.612h-163.402v6.612H1678.7Z"></path><path d="M1677.288 23.301h-3.797v-3.786h3.797V23.3Zm1.412 1.413v-6.612h-6.621v6.612h6.621Zm280.252 18.012h-160.557V6.702h160.557v36.024Zm1.413 1.413V5.289h-163.383v38.85h163.383Z"></path><path d="M1958.952 23.301h-160.578v-3.786h160.578V23.3Zm1.413 1.413v-6.612h-163.403v6.612h163.403Z"></path><path d="M1958.952 23.301h-3.797v-3.786h3.797V23.3Zm1.413 1.413v-6.612h-6.622v6.612h6.622Zm-158.174-1.413h-3.796v-3.786h3.796V23.3Zm1.413 1.413v-6.612h-6.622v6.612h6.622Zm122.289-1.413h-3.807v-3.786h3.807V23.3Zm1.402 1.413v-6.612h-6.622v6.612h6.622Zm308.603 18.012H2075.33V6.702h160.568v36.024Zm1.412 1.413V5.289h-163.392v38.85h163.392Z"></path><path d="M2235.898 23.301H2075.32v-3.786h160.578V23.3Zm1.412 1.413v-6.612h-163.403v6.612h163.403Z"></path><path d="M2235.898 23.301h-3.797v-3.786h3.797V23.3Zm1.412 1.413v-6.612h-6.622v6.612h6.622Zm-158.173-1.413h-3.797v-3.786h3.797V23.3Zm1.413 1.413v-6.612h-6.622v6.612h6.622Zm122.278-1.413h-3.796v-3.786h3.796V23.3Zm1.413 1.413v-6.612h-6.622v6.612h6.622Z"></path></g><g data-name="1933160118592" stroke-width="0"><path fill="#e3e4e5" d="M2313.096 383.556h37.437V525.49h-37.437z"></path><path d="M2313.807 524.79V384.307h36.025v140.481h-36.025Zm-1.412 1.412h38.85V382.885h-38.85v143.317Z" fill="#231f20"></path><path fill="#e3e4e5" d="M2332.52 383.596h5.2V525.49h-5.2z"></path><path d="M2333.232 524.79V384.287h3.787v140.501h-3.787Zm-1.412 1.412h6.612V382.875h-6.612v143.327Z" fill="#231f20"></path><path fill="#e3e4e5" d="M2332.52 520.281h5.2v5.21h-5.2z"></path><path d="M2333.232 524.79v-3.808h3.787v3.807h-3.787Zm-1.412 1.412h6.612v-6.632h-6.612v6.632Z" fill="#231f20"></path><path fill="#e3e4e5" d="M2332.52 383.596h5.2v5.22h-5.2z"></path><path d="M2333.232 388.104v-3.796h3.787v3.796h-3.787Zm-1.412 1.413h6.612v-6.632h-6.612v6.632Z" fill="#231f20"></path><path fill="#e3e4e5" d="M2332.52 490.758h5.2v5.21h-5.2z"></path><path d="M2333.232 495.266v-3.806h3.787v3.806h-3.787Zm-1.412 1.413h6.612v-6.632h-6.612v6.632Z" fill="#231f20"></path></g><g data-name="1933160124400" stroke-width="0"><path fill="#e3e4e5" d="M2313.096 122.56h37.437v141.933h-37.437z"></path><path d="M2313.807 263.792V123.3h36.025v140.492h-36.025Zm-1.412 1.402h38.85V121.888h-38.85v143.306Z" fill="#231f20"></path><path fill="#e3e4e5" d="M2332.52 122.6h5.2v141.893h-5.2z"></path><path d="M2333.232 263.792V123.28h3.787v140.512h-3.787Zm-1.412 1.402h6.612V121.878h-6.612v143.316Z" fill="#231f20"></path><path fill="#e3e4e5" d="M2332.52 259.284h5.2v5.21h-5.2z"></path><path d="M2333.232 263.792v-3.807h3.787v3.807h-3.787Zm-1.412 1.402h6.612v-6.621h-6.612v6.621Z" fill="#231f20"></path><path fill="#e3e4e5" d="M2332.52 122.6h5.2v5.219h-5.2z"></path><path d="M2333.232 127.107V123.3h3.787v3.807h-3.787Zm-1.412 1.413h6.612v-6.632h-6.612v6.632Z" fill="#231f20"></path><path fill="#e3e4e5" d="M2332.52 229.751h5.2v5.21h-5.2z"></path><path d="M2333.232 234.26v-3.798h3.787v3.797h-3.787Zm-1.412 1.412h6.612v-6.622h-6.612v6.622Z" fill="#231f20"></path></g><path d="m1799.326 128.019 5.92-.872c.161 1.824.662 3.266 1.534 4.318.851 1.052 1.803 1.573 2.835 1.573 1.222 0 2.274-.671 3.155-2.004.872-1.332 1.313-3.376 1.313-6.14 0-2.605-.431-4.539-1.303-5.791s-1.983-1.873-3.326-1.873c-1.713 0-3.245 1.011-4.598 3.035l-4.838-.932 3.065-21.759h15.708v7.464h-11.14l-1.001 7.122c1.332-.901 2.704-1.342 4.077-1.342 2.444 0 4.518 1.062 6.211 3.186 2.154 2.715 3.236 6.291 3.236 10.729 0 3.667-.922 7.033-2.755 10.118-1.823 3.066-4.448 4.608-7.844 4.608-2.765 0-5.06-.991-6.903-2.975-1.853-1.983-2.965-4.809-3.346-8.465Z" stroke-width="0"></path><path data-name="1 38" d="M1833.407 96.873c3.016 0 5.44 1.573 7.303 4.739 1.864 3.155 2.785 8.675 2.785 16.56 0 7.873-.921 13.393-2.785 16.549s-4.287 4.738-7.273 4.738c-3.015 0-5.45-1.572-7.303-4.698-1.863-3.136-2.795-8.686-2.795-16.66 0-7.844.932-13.334 2.795-16.49 1.854-3.165 4.278-4.738 7.273-4.738Zm.01 6.652c-1.162 0-2.093.852-2.795 2.555-.69 1.703-1.032 5.74-1.032 12.091 0 6.372.341 10.399 1.032 12.102.701 1.683 1.633 2.534 2.795 2.534 1.182 0 2.124-.861 2.805-2.554.692-1.703 1.032-5.73 1.032-12.082s-.34-10.388-1.032-12.091c-.68-1.703-1.623-2.555-2.805-2.555Z" fill="#000" stroke-width="0"></path><path data-name="2 39" d="M1848.524 130.764h5.92v5.73c0 3.246-.34 5.65-1.031 7.243-.831 1.954-2.234 3.396-4.197 4.348l-1.173-3.306c1.173-.531 2.004-1.252 2.515-2.154s.781-2.194.821-3.867h-2.855v-7.994Z" fill="#000" stroke-width="0"></path><path data-name="3 40" d="M1874.761 138.758h-5.97v-30.164c-2.214 2.755-4.779 4.779-7.674 6.071v-7.293c1.653-.741 3.366-2.054 5.14-3.947a15.613 15.613 0 0 0 3.706-6.552h4.798v41.885Z" fill="#000" stroke-width="0"></path><path data-name="4 41" d="M1893.715 96.873c3.016 0 5.45 1.573 7.303 4.739 1.864 3.155 2.785 8.675 2.785 16.56 0 7.873-.921 13.393-2.785 16.549-1.853 3.156-4.287 4.738-7.273 4.738-3.015 0-5.45-1.572-7.303-4.698-1.863-3.136-2.795-8.686-2.795-16.66 0-7.844.932-13.334 2.795-16.49 1.853-3.165 4.278-4.738 7.273-4.738Zm.01 6.652c-1.162 0-2.094.852-2.795 2.555-.691 1.703-1.042 5.74-1.042 12.091 0 6.372.35 10.399 1.042 12.102.701 1.683 1.633 2.534 2.795 2.534 1.182 0 2.124-.861 2.805-2.554.691-1.703 1.032-5.73 1.032-12.082s-.34-10.388-1.032-12.091c-.681-1.703-1.623-2.555-2.805-2.555Z" fill="#000" stroke-width="0"></path><g data-name="1933095759040" fill="#58595b" stroke-width="0"><path d="M1662.662 515.843v5.46c0 21.599 6.722 39.14 18.823 51.282 12.112 12.142 29.613 18.884 51.142 18.884h6.171v1.041h-6.171c-21.82 0-39.571-6.852-51.873-19.194-12.302-12.332-19.134-30.134-19.134-52.013v-5.46h1.042Z"></path><path d="M1738.798 517.827h-76.657v-2.605h76.657v2.605z"></path><path d="M1731.465 514.761v-3.696h7.333v4.217h-7.333v-.52Zm1.042-2.655v2.134h5.249v-2.134h-5.25Zm-1.042 84.111v-3.707h7.333v4.228h-7.333v-.521Zm1.042-2.665v2.144h5.249v-2.144h-5.25Z"></path></g><g data-name="1933095692848" fill="#58595b" stroke-width="0"><path d="M1986.24 478.025h-5.208c-20.607 0-37.347-6.421-48.928-17.972-11.58-11.55-18.022-28.25-18.022-48.797v-5.88h-.992v5.88c0 20.827 6.542 37.758 18.313 49.499s28.751 18.262 49.629 18.262h5.209v-.992Z"></path><path d="M1983.997 405.375v73.642h2.955v-73.642h-2.955z"></path><path d="M1987.463 413.68h4.198v-8.305h-4.79v8.305h.592Zm3.015-1.172h-2.424v-5.95h2.424v5.95Zm-81.586 1.172h4.198v-8.305h-4.789v8.305h.591Zm3.016-1.172h-2.425v-5.95h2.425v5.95Z"></path></g><g data-name="1933095691648" fill="#58595b" stroke-width="0"><path d="M2017.988 425.992v5.21c0 20.607 6.421 37.347 17.972 48.927 11.55 11.591 28.25 18.023 48.797 18.023h5.88v.991h-5.88c-20.817 0-37.757-6.541-49.498-18.313-11.741-11.76-18.263-28.741-18.263-49.628v-5.21h.992Z"></path><path d="M2090.638 428.236h-73.642v-2.945h73.642v2.945z"></path><path d="M2082.333 424.77v-4.187h8.305v4.778h-8.305v-.59Zm1.182-3.015v2.424h5.94v-2.424h-5.94Zm-1.182 81.585v-4.197h8.305v4.789h-8.305v-.591Zm1.182-3.015v2.425h5.94v-2.425h-5.94Z"></path></g><path d="M1936.201 433.756v3.507h-12.803c-.03-1.423.31-3.026 1.022-4.79.711-1.752 2.024-3.836 3.917-6.24 2.224-2.795 3.677-4.97 4.368-6.492.681-1.533 1.032-2.955 1.032-4.278 0-1.522-.35-2.764-1.062-3.726-.701-.952-1.563-1.433-2.595-1.433-1.112 0-2.013.511-2.725 1.543-.7 1.042-1.061 2.525-1.061 4.458l-2.435-.38c.17-2.856.812-5.01 1.924-6.452s2.564-2.174 4.387-2.174c1.974 0 3.467.841 4.478 2.524s1.523 3.597 1.523 5.74c0 1.904-.4 3.717-1.192 5.46-.791 1.754-2.314 4.078-4.528 6.983-1.423 1.833-2.344 3.085-2.755 3.757a12.45 12.45 0 0 0-1.012 1.993h9.517Z" stroke-width="0"></path><path data-name="1 72" d="M1946.37 411.306V407.8h12.482v2.855c-1.864 3.065-3.496 7.063-4.909 11.981s-2.224 9.788-2.434 14.627h-2.435c.03-2.505.34-5.42.932-8.746a63.897 63.897 0 0 1 2.434-9.517c1.032-3.006 2.154-5.58 3.346-7.694h-9.417Z" fill="#000" stroke-width="0"></path><path data-name="2 73" d="M1940.058 437.262v-4.167h2.695v4.167c0 1.623-.19 2.886-.561 3.807-.38.912-.932 1.623-1.643 2.104l-.661-1.563c.48-.33.841-.811 1.082-1.462.25-.641.38-1.613.4-2.886h-1.312Z" fill="#000" stroke-width="0"></path><path data-name="3 74" d="M1961.216 422.536c0-4.999.531-8.786 1.593-11.36 1.072-2.585 2.635-3.877 4.708-3.877 1.843 0 3.286 1.042 4.348 3.135 1.282 2.525 1.923 6.562 1.923 12.102 0 4.979-.52 8.766-1.582 11.35-1.062 2.585-2.635 3.877-4.719 3.877-1.833 0-3.336-1.142-4.518-3.416-1.162-2.284-1.753-6.22-1.753-11.81Zm2.434 0c0 4.839.371 8.095 1.102 9.748.732 1.653 1.663 2.474 2.805 2.474 1.082 0 1.984-.831 2.715-2.504.722-1.673 1.082-4.91 1.082-9.718 0-4.869-.37-8.124-1.092-9.767-.731-1.643-1.683-2.465-2.845-2.465-1.072 0-1.963.832-2.685 2.505-.72 1.673-1.082 4.908-1.082 9.727Z" fill="#000" stroke-width="0"></path><path d="M2056.176 467.527v3.496h-12.803c-.04-1.423.3-3.025 1.012-4.789.721-1.753 2.024-3.837 3.927-6.24 2.224-2.796 3.677-4.96 4.358-6.492.69-1.533 1.032-2.956 1.032-4.278 0-1.523-.351-2.765-1.052-3.717-.701-.961-1.573-1.442-2.605-1.442-1.102 0-2.014.51-2.715 1.552-.711 1.032-1.062 2.515-1.062 4.448l-2.444-.37c.17-2.865.811-5.02 1.933-6.462 1.102-1.442 2.565-2.164 4.378-2.164 1.974 0 3.466.842 4.488 2.515 1.012 1.693 1.513 3.596 1.513 5.74 0 1.903-.39 3.717-1.182 5.46-.802 1.753-2.314 4.077-4.538 6.992-1.423 1.834-2.334 3.076-2.745 3.747a11.323 11.323 0 0 0-1.012 2.004h9.517Z" stroke-width="0"></path><path data-name="1 75" d="M2060.023 471.023v-4.168h2.695v4.178c0 1.613-.18 2.875-.561 3.797-.37.911-.922 1.623-1.643 2.104l-.651-1.563c.47-.33.831-.812 1.071-1.463.25-.641.381-1.613.411-2.885h-1.322Z" fill="#000" stroke-width="0"></path><path data-name="2 76" d="M2081.19 456.297c0-5 .532-8.786 1.594-11.36s2.634-3.868 4.708-3.868c1.833 0 3.286 1.042 4.348 3.126 1.282 2.534 1.923 6.562 1.923 12.102 0 4.978-.53 8.765-1.583 11.35-1.061 2.584-2.634 3.877-4.718 3.877-1.843 0-3.346-1.142-4.518-3.416-1.172-2.284-1.753-6.221-1.753-11.811Zm2.435 0c0 4.838.37 8.104 1.092 9.747.731 1.653 1.673 2.474 2.815 2.474 1.082 0 1.984-.831 2.705-2.504.731-1.673 1.092-4.909 1.092-9.717 0-4.87-.37-8.125-1.102-9.768s-1.673-2.464-2.845-2.464c-1.062 0-1.964.831-2.675 2.504-.721 1.673-1.082 4.909-1.082 9.728Z" fill="#000" stroke-width="0"></path><path data-name="3 77" d="M2066.344 445.066v-3.496h12.472v2.845c-1.863 3.066-3.496 7.063-4.898 11.982-1.413 4.919-2.224 9.787-2.445 14.626h-2.434c.04-2.505.35-5.42.932-8.746a63.473 63.473 0 0 1 2.444-9.507c1.032-3.015 2.144-5.59 3.346-7.704h-9.417Z" fill="#000" stroke-width="0"></path><path d="M2014.852 271.285v-7.122h-8.355v-3.376l8.746-19.325h1.983v19.325h2.635v3.376h-2.635v7.122h-2.374Zm0-10.498v-13.445l-6.01 13.445h6.01Z" stroke-width="0"></path><path data-name="1 78" d="M2029.869 271.285v-7.122h-8.365v-3.376l8.756-19.325h1.973v19.325h2.635v3.376h-2.635v7.122h-2.364Zm0-10.498v-13.445l-6.01 13.445h6.01Z" fill="#000" stroke-width="0"></path><path data-name="2 79" d="M2044.946 245.329v-3.496h12.472v2.845c-1.863 3.075-3.496 7.062-4.909 11.981s-2.223 9.798-2.434 14.626h-2.434c.03-2.494.34-5.41.931-8.735.591-3.326 1.403-6.502 2.445-9.517 1.032-3.016 2.144-5.58 3.336-7.704h-9.407Z" fill="#000" stroke-width="0"></path><path data-name="3 80" d="M2038.625 271.285v-4.167h2.694v4.177c0 1.613-.19 2.886-.56 3.797-.381.922-.922 1.623-1.644 2.114l-.66-1.573c.48-.32.84-.811 1.081-1.452.25-.652.38-1.613.4-2.896h-1.312Z" fill="#000" stroke-width="0"></path><path data-name="4 81" d="M2059.782 256.569c0-4.999.541-8.796 1.603-11.37 1.062-2.575 2.635-3.867 4.709-3.867 1.833 0 3.286 1.042 4.338 3.135 1.282 2.525 1.923 6.562 1.923 12.102 0 4.979-.521 8.766-1.583 11.34-1.062 2.585-2.635 3.877-4.718 3.877-1.834 0-3.336-1.132-4.508-3.416-1.173-2.274-1.764-6.211-1.764-11.801Zm2.435-.01c0 4.849.37 8.105 1.102 9.747.731 1.653 1.663 2.485 2.805 2.485 1.082 0 1.984-.832 2.715-2.505.721-1.673 1.082-4.918 1.082-9.727 0-4.869-.36-8.115-1.092-9.757-.731-1.653-1.683-2.475-2.845-2.475-1.072 0-1.964.842-2.685 2.515-.711 1.673-1.082 4.908-1.082 9.717Z" fill="#000" stroke-width="0"></path></g></g></svg>