<?xml version="1.0" encoding="UTF-8"?>
<svg id="_Слой_1" data-name="Слой_1" xmlns="http://www.w3.org/2000/svg" xmlns:xlink="http://www.w3.org/1999/xlink" version="1.1" viewBox="0 0 623.51 609.93">
  <!-- Generator: Adobe Illustrator 29.5.1, SVG Export Plug-In . SVG Version: 2.1.0 Build 141)  -->
  <defs>
    <style>
      .st0, .st1 {
        fill: none;
      }

      .st1 {
        display: none;
      }

      .st2 {
        stroke-miterlimit: 22.97;
      }

      .st2, .st3, .st4 {
        fill: #214270;
      }

      .st2, .st4 {
        stroke: #fff;
        stroke-linecap: round;
        stroke-width: .47px;
      }

      .st4 {
        stroke-linejoin: round;
      }

      .st5 {
        clip-path: url(#clippath);
      }
    </style>
    <clipPath id="clippath">
      <polygon class="st0" points="0 609.93 0 90.03 265.87 90.03 265.87 0 621.97 0 623.51 609.93 0 609.93 0 609.93"/>
    </clipPath>
  </defs>
  <path class="st1" d="M0,609.93V90.03h265.87V0h356.11l1.54,609.93H0Z"/>
  <path class="st1" d="M7.57,584.88l1.95-481.27,272.17.55-6.84-95.3,309.57,3.74v572.28H7.57h0Z"/>
  <g class="st5">
    <g>
      <path class="st3" d="M-1701-1082.7H620.06V604.29H-1720.43v-1686.99h19.42ZM581.21-1043.86H-1681.58V565.45H581.21v-1609.31h0Z"/>
      <g>
        <path class="st3" d="M-5.9,352.92v-122.99h23.61v122.99H-5.9ZM-5.9,566.69v-101.99h23.61v101.99H-5.9ZM269.36,0h311.85v17.71h-311.85V0h0ZM0,95.3h183.37v17.71H0v-17.71Z"/>
        <path class="st3" d="M269.04,113.01V-43.27h17.71V113.01h-17.71ZM0,464.69V96.48h17.71v368.21H0ZM-188.63,177.91H0v17.71h-188.63v-17.71Z"/>
      </g>
      <g>
        <path class="st3" d="M37.92,143.54v-36.69h8.32v36.69h-8.32Z"/>
        <path class="st3" d="M9.53,135.23h36.71v8.31H9.53v-8.31ZM101.07,288.83h82.53v8.31h-82.53v-8.31ZM-176.62,95.3H9.53v8.31h-186.14v-8.31Z"/>
        <path class="st3" d="M109.39,112.33v183.36h-8.31V112.33h8.31ZM183.6,113.01v85.56h-8.31v-85.56h8.31ZM183.6,281.93v13h-8.31v-13h8.31Z"/>
      </g>
      <g>
        <path class="st3" d="M126.41,143.62c0-.22.03-.64.03-.77v-24.32h27.17v24.44s.04.43.04.65c0,7.27-6.11,13.19-13.62,13.19s-13.61-5.92-13.61-13.19h0ZM124.74,143.62c0,8.2,6.84,14.86,15.28,14.86s15.28-6.65,15.28-14.86c0-.27-.04-.77-.04-.77v-25.98h-30.47v25.98s-.04.5-.04.77h0Z"/>
        <path class="st3" d="M129.79,114.67h20.47v1.71h-20.47v-1.71ZM128.14,113.01v5.02h23.77v-5.02h-23.77Z"/>
      </g>
      <g>
        <path class="st3" d="M146.96,207.31v40.76h-36.3v-40.76h36.3ZM148.24,206.03h-38.86v43.34h38.86v-43.34Z"/>
        <path class="st3" d="M142.78,212.93c.96,0,1.73.78,1.73,1.73v25.95c0,.96-.78,1.73-1.73,1.73h-13.82c-.95,0-1.72-.77-1.72-1.73h0v-25.95c0-.95.77-1.73,1.72-1.73h13.82ZM142.78,211.65h-13.82c-1.67,0-3.01,1.35-3.02,3.02v25.95c0,1.66,1.35,3.01,3.01,3.02h13.83c1.66,0,3.01-1.35,3.02-3.02v-25.95c0-1.66-1.34-3.01-3.01-3.02h0ZM123.91,224.72c.57,0,1.04-.46,1.04-1.04s-.47-1.03-1.04-1.03-1.04.46-1.04,1.03.46,1.04,1.04,1.04ZM123.91,232.63c.57,0,1.04-.46,1.04-1.03,0-.57-.46-1.04-1.04-1.04h0c-.58,0-1.04.46-1.04,1.04s.46,1.03,1.04,1.03h0Z"/>
        <path class="st2" d="M123.15,227.64h7.05"/>
        <path class="st3" d="M113.75,209.47v2.57h-3.08v-2.57h3.08ZM115.04,208.18h-5.65v5.14h5.65v-5.15h0ZM113.75,243.24v2.57h-3.08v-2.57h3.08ZM115.04,241.95h-5.65v5.15h5.65v-5.15Z"/>
        <path class="st4" d="M112.21,213.15v28.8"/>
      </g>
      <g>
        <path class="st3" d="M31.49,147.52h42.76c2.61,0,5.11,1.04,6.94,2.89,1.78,1.78,2.9,4.24,2.9,6.94v43.49c0,2.61-1.04,5.11-2.9,6.94-1.84,1.85-4.33,2.89-6.94,2.9H31.49c-2.61,0-5.1-1.05-6.94-2.9-1.85-1.84-2.88-4.34-2.89-6.94v-43.49c0-2.6,1.04-5.1,2.89-6.94,1.84-1.85,4.34-2.88,6.94-2.89h0ZM74.24,146.93H31.49c-2.86,0-5.47,1.17-7.35,3.06-1.96,1.95-3.06,4.6-3.07,7.36v43.49c0,2.88,1.17,5.48,3.07,7.36,1.94,1.96,4.59,3.07,7.35,3.07h42.76c2.76,0,5.42-1.1,7.36-3.07,1.96-1.95,3.06-4.6,3.06-7.36v-43.49c0-2.86-1.18-5.47-3.06-7.36-1.95-1.96-4.6-3.06-7.36-3.06h0Z"/>
        <path class="st3" d="M32.97,149.73h39.8c2.51,0,4.79,1.03,6.44,2.69s2.69,3.94,2.69,6.44v40.48c0,2.51-1.03,4.79-2.69,6.45-1.71,1.71-4.02,2.67-6.44,2.68h-39.8c-2.42,0-4.74-.96-6.44-2.68-1.65-1.66-2.69-3.95-2.69-6.45v-40.48c0-2.51,1.03-4.79,2.69-6.44s3.94-2.69,6.44-2.69ZM72.77,149.14h-39.8c-2.68,0-5.1,1.1-6.86,2.85-1.83,1.82-2.85,4.29-2.85,6.86v40.48c0,2.58,1.03,5.05,2.85,6.86,1.82,1.83,4.29,2.86,6.86,2.86h39.8c2.58,0,5.05-1.03,6.86-2.86,1.82-1.82,2.85-4.29,2.85-6.86v-40.48c0-2.67-1.1-5.1-2.85-6.86-1.76-1.75-4.2-2.85-6.86-2.85h0Z"/>
        <path class="st3" d="M18.89,144.72h67.95v68.75H18.89v-68.75h0ZM87.44,143.54H17.71v71.12h70.32v-71.12h-.59Z"/>
        <path class="st3" d="M31.18,154.9c.62,0,1.18.26,1.58.66.88.87.88,2.29,0,3.17-.42.42-.99.66-1.59.66-1.24,0-2.24-1-2.24-2.24,0-.6.24-1.17.66-1.59.4-.4.96-.66,1.58-.66ZM33.18,155.14c-1.11-1.11-2.9-1.11-4.01,0s-1.11,2.9,0,4.01,2.9,1.11,4.01,0,1.11-2.9,0-4.01Z"/>
      </g>
      <path class="st3" d="M245.37,394.23v-7.12h-8.36v-3.38l8.76-19.33h1.98v19.33h2.62v3.38h-2.62v7.12h-2.37ZM245.37,383.73v-13.45l-6.01,13.45h6.01Z"/>
      <path class="st3" d="M261.7,394.23h-2.37v-23.33c-.55.81-1.27,1.64-2.19,2.49-.92.84-1.77,1.48-2.54,1.92v-3.51c1.3-.95,2.45-2.12,3.47-3.51.99-1.37,1.7-2.72,2.1-4.03h1.54v29.95Z"/>
      <path class="st3" d="M269.13,394.23v-4.17h2.7v4.17c0,1.62-.19,2.89-.57,3.81-.37.91-.92,1.62-1.63,2.1l-.66-1.56c.48-.33.84-.81,1.08-1.46.24-.64.38-1.61.4-2.89h-1.32Z"/>
      <path class="st3" d="M290.3,379.5c0-5,.53-8.79,1.59-11.36,1.07-2.58,2.64-3.87,4.71-3.87,1.84,0,3.29,1.03,4.35,3.13,1.28,2.53,1.92,6.56,1.92,12.1,0,4.98-.52,8.77-1.58,11.35-1.06,2.58-2.64,3.88-4.72,3.88-1.84,0-3.35-1.14-4.52-3.42-1.16-2.29-1.75-6.22-1.75-11.81h0ZM292.73,379.5c0,4.84.37,8.1,1.1,9.75.72,1.65,1.66,2.47,2.81,2.47,1.08,0,1.98-.83,2.71-2.5.72-1.67,1.08-4.91,1.08-9.72s-.37-8.12-1.1-9.77c-.72-1.64-1.67-2.46-2.83-2.46-1.07,0-1.96.83-2.69,2.5s-1.08,4.91-1.08,9.73Z"/>
      <path class="st3" d="M275.29,386.39l2.49-.29c.2,1.89.63,3.31,1.31,4.24.68.92,1.47,1.38,2.36,1.38,1.13,0,2.09-.65,2.92-1.96.81-1.3,1.21-3.09,1.21-5.36,0-2.13-.39-3.79-1.18-4.96-.78-1.17-1.76-1.75-2.95-1.75-.72,0-1.38.25-2.01.76s-1.12,1.2-1.48,2.11l-2.24-.45,1.88-15.35h9.58v3.51h-7.7l-1.02,8.06c1.14-1.27,2.35-1.9,3.64-1.9,1.62,0,3.03.88,4.22,2.62s1.79,4.09,1.79,7.04-.6,5.42-1.79,7.5c-1.19,2.08-2.81,3.13-4.82,3.13-1.66,0-3.07-.74-4.23-2.21s-1.8-3.52-1.96-6.12h0Z"/>
      <path class="st3" d="M171.42,257.4v3.5h-12.8c-.03-1.42.31-3.02,1.02-4.78s2.02-3.85,3.92-6.25c2.22-2.8,3.68-4.96,4.37-6.49.68-1.53,1.03-2.95,1.03-4.28,0-1.51-.35-2.76-1.05-3.72-.71-.96-1.57-1.44-2.6-1.44-1.11,0-2.01.52-2.72,1.55-.7,1.03-1.06,2.53-1.06,4.45l-2.44-.37c.17-2.87.81-5.02,1.92-6.46s2.56-2.16,4.39-2.16c1.97,0,3.47.84,4.48,2.51,1.01,1.69,1.52,3.61,1.52,5.75,0,1.89-.4,3.72-1.19,5.46-.79,1.74-2.31,4.07-4.53,6.98-1.42,1.83-2.34,3.08-2.76,3.75-.41.67-.75,1.33-1.01,2h9.52Z"/>
      <path class="st3" d="M181.43,246.18c0-5,.53-8.8,1.59-11.37,1.07-2.57,2.64-3.87,4.71-3.87,1.84,0,3.29,1.04,4.35,3.14,1.28,2.53,1.92,6.56,1.92,12.1,0,4.98-.52,8.76-1.58,11.34s-2.64,3.88-4.72,3.88c-1.84,0-3.35-1.14-4.52-3.42-1.16-2.27-1.75-6.21-1.75-11.8ZM183.86,246.17c0,4.85.37,8.1,1.1,9.75.73,1.65,1.66,2.48,2.81,2.48,1.08,0,1.98-.84,2.71-2.52.72-1.67,1.08-4.91,1.08-9.72s-.37-8.11-1.1-9.77c-.72-1.64-1.67-2.46-2.83-2.46-1.07,0-1.96.84-2.69,2.52s-1.08,4.91-1.08,9.72Z"/>
      <path class="st3" d="M175.27,260.9v-4.17h2.69v4.18c0,1.61-.19,2.88-.56,3.8-.38.91-.92,1.62-1.64,2.11l-.66-1.57c.48-.33.84-.81,1.08-1.46.25-.64.38-1.6.4-2.89h-1.31Z"/>
      <path class="st3" d="M196.43,246.18c0-5,.53-8.8,1.6-11.37,1.06-2.57,2.62-3.87,4.7-3.87,1.84,0,3.29,1.04,4.35,3.14,1.28,2.53,1.92,6.56,1.92,12.1,0,4.98-.52,8.76-1.58,11.34s-2.64,3.88-4.72,3.88c-1.83,0-3.34-1.14-4.52-3.42-1.16-2.27-1.75-6.21-1.75-11.8ZM198.87,246.17c0,4.85.37,8.1,1.1,9.75.73,1.65,1.66,2.48,2.81,2.48,1.08,0,1.98-.84,2.71-2.52.72-1.67,1.08-4.91,1.08-9.72s-.36-8.11-1.09-9.77c-.73-1.64-1.68-2.46-2.84-2.46-1.07,0-1.96.84-2.69,2.52-.71,1.67-1.08,4.91-1.08,9.72Z"/>
      <path class="st3" d="M46.39,292.68v3.51h-12.8c-.03-1.43.31-3.03,1.02-4.79.71-1.75,2.02-3.84,3.93-6.24,2.21-2.8,3.67-4.97,4.36-6.49.68-1.53,1.03-2.96,1.03-4.28,0-1.52-.35-2.77-1.05-3.73-.7-.95-1.57-1.43-2.6-1.43-1.11,0-2.01.51-2.71,1.54-.71,1.04-1.07,2.53-1.07,4.46l-2.43-.38c.17-2.86.81-5.01,1.92-6.45,1.11-1.45,2.57-2.17,4.39-2.17,1.97,0,3.47.84,4.48,2.52,1.02,1.68,1.52,3.6,1.52,5.74,0,1.89-.39,3.72-1.19,5.46-.79,1.75-2.3,4.08-4.53,6.98-1.42,1.83-2.33,3.08-2.76,3.76-.4.63-.73,1.3-1,1.99h9.51Z"/>
      <path class="st3" d="M50.25,296.19v-4.17h2.69v4.17c0,1.62-.18,2.89-.56,3.8-.37.92-.92,1.63-1.64,2.11l-.66-1.57c.48-.32.84-.81,1.08-1.45.25-.65.38-1.61.4-2.89h-1.31Z"/>
      <path class="st3" d="M71.41,281.46c0-5,.53-8.8,1.6-11.37,1.06-2.57,2.64-3.87,4.71-3.87,1.83,0,3.29,1.04,4.34,3.14,1.28,2.53,1.92,6.56,1.92,12.1,0,4.98-.52,8.77-1.58,11.35-1.05,2.58-2.64,3.87-4.72,3.87-1.83,0-3.34-1.13-4.51-3.42-1.17-2.27-1.76-6.21-1.76-11.8h0ZM73.85,281.45c0,4.85.36,8.1,1.09,9.75.73,1.66,1.66,2.48,2.81,2.48,1.08,0,1.98-.83,2.71-2.51.72-1.67,1.08-4.91,1.08-9.73s-.36-8.11-1.09-9.76-1.68-2.46-2.84-2.46c-1.07,0-1.96.83-2.69,2.51-.71,1.67-1.07,4.91-1.07,9.72h0Z"/>
      <path class="st3" d="M65.33,296.19h-2.38v-23.33c-.55.81-1.28,1.64-2.2,2.48-.92.85-1.76,1.49-2.54,1.92v-3.5c1.33-.98,2.49-2.17,3.46-3.51,1-1.37,1.71-2.72,2.11-4.04h1.54v29.96Z"/>
      <g>
        <path class="st3" d="M227.77,566.86H67.21v36.02h160.56v-36.02h0ZM229.18,565.45v38.85H65.79v-38.85h163.39Z"/>
        <path class="st3" d="M227.77,586.29H67.19v3.79h160.58v-3.79ZM229.18,584.88v6.61H65.78v-6.61h163.4Z"/>
        <path class="st3" d="M227.77,586.29h-3.8v3.79h3.8v-3.79ZM229.18,584.88v6.61h-6.62v-6.61h6.62ZM71.01,586.29h-3.8v3.79h3.8v-3.79ZM72.42,584.88v6.61h-6.62v-6.61h6.62ZM194.7,586.29h-3.8v3.79h3.8v-3.79ZM196.11,584.88v6.61h-6.62v-6.61h6.62ZM504.71,566.86h-160.57v36.02h160.57v-36.02h0ZM506.12,565.45v38.85h-163.38v-38.85h163.38Z"/>
        <path class="st3" d="M504.71,586.29h-160.59v3.79h160.59v-3.79h0ZM506.13,584.88v6.61h-163.4v-6.61h163.4Z"/>
        <path class="st3" d="M504.71,586.29h-3.81v3.79h3.81v-3.79ZM506.13,584.88v6.61h-6.63v-6.61h6.63ZM347.95,586.29h-3.81v3.79h3.81v-3.79ZM349.37,584.88v6.61h-6.63v-6.61h6.63ZM471.64,586.29h-3.8v3.79h3.8v-3.79ZM473.06,584.88v6.61h-6.62v-6.61h6.62Z"/>
      </g>
      <g>
        <path class="st3" d="M581.91,343.11h37.44v141.93h-37.44v-141.93Z"/>
        <path class="st3" d="M582.62,484.35v-140.49h36.02v140.49h-36.02ZM581.21,485.75h38.85v-143.31h-38.85v143.31Z"/>
        <path class="st3" d="M601.34,343.15h5.2v141.89h-5.2v-141.89Z"/>
        <path class="st3" d="M602.05,484.35v-140.51h3.79v140.51h-3.79ZM600.63,485.75h6.61v-143.32h-6.61v143.32Z"/>
        <path class="st3" d="M601.34,479.84h5.2v5.21h-5.2v-5.21Z"/>
        <path class="st3" d="M602.05,484.35v-3.81h3.79v3.81h-3.79ZM600.63,485.75h6.61v-6.62h-6.61v6.62Z"/>
        <path class="st3" d="M601.34,343.15h5.2v5.22h-5.2v-5.22Z"/>
        <path class="st3" d="M602.05,347.66v-3.81h3.79v3.81h-3.79ZM600.63,349.07h6.61v-6.63h-6.61v6.63Z"/>
        <path class="st3" d="M601.34,450.31h5.2v5.21h-5.2v-5.21Z"/>
        <path class="st3" d="M602.05,454.81v-3.8h3.79v3.8h-3.79ZM600.63,456.23h6.61v-6.62h-6.61v6.62Z"/>
      </g>
      <g>
        <path class="st3" d="M581.91,82.11h37.44v141.93h-37.44V82.11Z"/>
        <path class="st3" d="M582.62,223.34V82.86h36.02v140.48h-36.02ZM581.21,224.75h38.85V81.45h-38.85v143.31Z"/>
        <path class="st3" d="M601.34,82.15h5.2v141.89h-5.2V82.15Z"/>
        <path class="st3" d="M602.05,223.34V82.84h3.79v140.5h-3.79ZM600.63,224.75h6.61V81.43h-6.61v143.33h0Z"/>
        <path class="st3" d="M601.34,218.83h5.2v5.21h-5.2v-5.21Z"/>
        <path class="st3" d="M602.05,223.34v-3.8h3.79v3.8h-3.79ZM600.63,224.75h6.61v-6.62h-6.61v6.62Z"/>
        <path class="st3" d="M601.34,82.15h5.2v5.22h-5.2v-5.22Z"/>
        <path class="st3" d="M602.05,86.67v-3.81h3.79v3.81h-3.79ZM600.63,88.07h6.61v-6.62h-6.61v6.62Z"/>
        <path class="st3" d="M601.34,189.31h5.2v5.21h-5.2v-5.21Z"/>
        <path class="st3" d="M602.05,193.82v-3.8h3.79v3.8h-3.79ZM600.63,195.23h6.61v-6.62h-6.61v6.62Z"/>
      </g>
      <path class="st3" d="M68.49,514.48v-8.4h-12.7v-7.03l13.45-26.45h5.02v26.42h3.87v7.06h-3.87v8.4h-5.77ZM68.49,499.02v-14.23l-7.13,14.23h7.13Z"/>
      <path class="st3" d="M81.09,503.75l5.93-.88c.16,1.83.66,3.27,1.53,4.32.85,1.05,1.8,1.57,2.83,1.57,1.23,0,2.27-.67,3.16-2s1.32-3.38,1.32-6.14c0-2.6-.44-4.54-1.31-5.78-.87-1.25-1.98-1.88-3.33-1.88-1.71,0-3.25,1.01-4.6,3.04l-4.85-.93,3.08-21.76h15.72v7.47h-11.15l-1.01,7.11c1.34-.89,2.71-1.34,4.09-1.34,2.44,0,4.52,1.06,6.22,3.19,2.15,2.71,3.23,6.29,3.23,10.74,0,3.66-.91,7.02-2.76,10.11-1.82,3.07-4.44,4.61-7.84,4.61-2.77,0-5.06-.99-6.91-2.97s-2.96-4.81-3.35-8.45h0Z"/>
      <path class="st3" d="M106.18,506.49h5.93v5.73c0,3.25-.35,5.66-1.03,7.24-.84,1.95-2.24,3.4-4.21,4.35l-1.17-3.3c1.17-.54,2-1.26,2.51-2.16s.79-2.19.82-3.87h-2.85v-7.99h0Z"/>
      <path class="st3" d="M151.4,472.61c3.01,0,5.44,1.57,7.3,4.73s2.79,8.69,2.79,16.57-.92,13.38-2.79,16.54c-1.86,3.17-4.29,4.74-7.27,4.74s-5.46-1.56-7.31-4.7c-1.86-3.12-2.8-8.68-2.8-16.66s.93-13.33,2.8-16.49c1.85-3.16,4.29-4.73,7.28-4.73h0ZM151.41,479.25c-1.16,0-2.1.86-2.8,2.56-.7,1.7-1.04,5.74-1.04,12.1s.34,10.39,1.04,12.09c.69,1.69,1.63,2.53,2.8,2.53s2.11-.85,2.81-2.55,1.03-5.73,1.03-12.07-.34-10.4-1.03-12.1c-.69-1.69-1.62-2.56-2.81-2.56h0Z"/>
      <path class="st3" d="M137.36,482.98l-5.77.87c-.27-3.1-1.41-4.67-3.4-4.67-1.29,0-2.37.78-3.23,2.33-.86,1.56-1.39,4.7-1.61,9.43.74-1.18,1.56-2.06,2.47-2.65.9-.59,1.95-.9,3.03-.89,2.44,0,4.56,1.25,6.37,3.74,1.8,2.49,2.71,5.8,2.71,9.94,0,4.39-.95,7.84-2.86,10.34-1.91,2.5-4.28,3.76-7.11,3.76-3.1,0-5.66-1.62-7.7-4.88-2.04-3.24-3.07-8.65-3.07-16.17s1.06-13.14,3.18-16.5c2.12-3.36,4.85-5.03,8.18-5.03,2.29,0,4.23.85,5.81,2.57,1.56,1.7,2.57,4.32,3.01,7.8h0ZM123.86,500.43c0,2.62.45,4.64,1.34,6.02.89,1.39,1.9,2.08,3.04,2.08s2.03-.57,2.78-1.73c.73-1.14,1.1-3.04,1.1-5.66s-.4-4.71-1.19-5.96c-.8-1.24-1.78-1.87-2.96-1.87s-2.1.6-2.91,1.79c-.8,1.18-1.19,2.96-1.19,5.33h0Z"/>
      <g>
        <path class="st3" d="M247.93,276.52v-5.21c0-20.61-6.42-37.35-17.97-48.93-11.55-11.58-28.24-18.02-48.8-18.02h-5.88v-.99h5.88c20.83,0,37.77,6.54,49.51,18.31,11.73,11.77,18.25,28.75,18.25,49.63v5.21h-.99Z"/>
        <path class="st3" d="M175.28,274.27h73.64v2.96h-73.64v-2.96Z"/>
        <path class="st3" d="M183.6,277.74v4.2h-8.31v-4.79h8.31v.59h0ZM182.42,280.75v-2.43h-5.95v2.43h5.95ZM183.6,199.17v4.2h-8.31v-4.79h8.31v.59ZM182.42,202.18v-2.42h-5.95v2.42h5.95Z"/>
      </g>
      <g>
        <path class="st3" d="M23.13,224.49h5.21c20.61,0,37.35,6.42,48.93,17.96,11.58,11.55,18.02,28.25,18.02,48.8v5.89h.99v-5.89c0-20.82-6.54-37.76-18.31-49.5-11.76-11.73-28.75-18.26-49.63-18.26h-5.21v1h0Z"/>
        <path class="st3" d="M25.38,297.14v-73.65h-2.94v73.65h2.94Z"/>
        <path class="st3" d="M21.91,288.83h-4.2v8.31h4.79v-8.31h-.59ZM18.89,290.01h2.42v5.95h-2.42v-5.95h0ZM100.48,288.83h-4.2v8.31h4.79v-8.31h-.59ZM97.46,290.01h2.43v5.95h-2.43v-5.95h0Z"/>
      </g>
      <g>
        <path class="st3" d="M264.26,181.83h-5.46c-21.6,0-39.14-6.73-51.28-18.83-12.14-12.11-18.88-29.6-18.88-51.14v-6.17h-1.04v6.17c0,21.82,6.85,39.57,19.19,51.87,12.33,12.3,30.12,19.15,52.01,19.15h5.46v-1.04h0Z"/>
        <path class="st3" d="M262.28,105.68v76.67h2.6v-76.67h-2.6Z"/>
        <path class="st3" d="M265.34,113.01h3.7v-7.33h-4.22v7.33h.52ZM268,111.97h-2.13v-5.25h2.13v5.25ZM183.89,113.01h3.71v-7.33h-4.23v7.33h.52ZM186.55,111.97h-2.14v-5.25h2.14v5.25Z"/>
      </g>
    </g>
  </g>
</svg>