<?xml version="1.0" encoding="UTF-8"?>
<svg id="_Слой_1" data-name="Слой_1" xmlns="http://www.w3.org/2000/svg" xmlns:xlink="http://www.w3.org/1999/xlink" version="1.1" viewBox="0 0 1748.9 793.23">
  <!-- Generator: Adobe Illustrator 29.5.1, SVG Export Plug-In . SVG Version: 2.1.0 Build 141)  -->
  <defs>
    <style>
      .st0, .st1 {
        fill: none;
      }

      .st1 {
        display: none;
      }

      .st2, .st3, .st4, .st5 {
        fill: #214270;
      }

      .st2, .st4 {
        stroke-linecap: round;
        stroke-width: .47px;
      }

      .st2, .st4, .st5 {
        stroke: #fff;
      }

      .st2, .st5 {
        stroke-miterlimit: 22.97;
      }

      .st4 {
        stroke-linejoin: round;
      }

      .st6 {
        clip-path: url(#clippath);
      }

      .st5 {
        stroke-width: .52px;
      }
    </style>
    <clipPath id="clippath">
      <polygon class="st0" points="10.5 39.44 307.81 39.44 307.81 0 642.18 1.55 640.86 143.93 1269.47 143.93 1269.69 134.52 1520.58 134.52 1521.63 163.53 1566.39 172.81 1599.99 219.21 1599.99 258.21 1520.58 258.21 1520.69 270.48 1560.27 270.6 1560.27 353.83 1748.9 353.21 1748.9 787.01 0 793.23 10.5 39.44"/>
    </clipPath>
  </defs>
  <path class="st1" d="M10.5,39.44h297.31V0l334.38,1.55-1.32,142.38h628.61l.22-9.41h250.88l1.05,29.01,44.76,9.28,33.6,46.4v39h-79.41l.11,12.28,39.58.12v83.23l188.63-.62v433.8L0,793.23,10.5,39.44Z"/>
  <path class="st1" d="M46.86,55.22h278.23V18.06h305.29v130.02l890.15-2.98.05,143.22,31.26-1.18v74.93h186.92v398.11l-1691.9,5.2V55.22h0Z"/>
  <g class="st6">
    <g>
      <path class="st5" d="M882.18-30.74l46.21,98.11M882.55-31.26v98.63M906.31,20.62v46.75M858.8-31.26v98.63M835.05-31.26v98.63M811.3-31.26v98.63M787.55-31.26v98.63M763.79-31.26v98.63M740.05-31.26v98.63M740.05,18.86h142.49M865.95,36.17l16.6-17.31-16.6-17.31"/>
      <g>
        <path class="st3" d="M1305.29,3.6h181.67v114.43h-181.67V3.6Z"/>
        <g>
          <path class="st3" d="M1408.98,18.89h-59.3c-5.58,0-10.13,4.55-10.13,10.14v63.56c0,5.59,4.55,10.13,10.13,10.13h59.3c5.58,0,10.13-4.54,10.13-10.13V29.03c0-5.59-4.55-10.14-10.13-10.14ZM1414.72,92.6c0,3.17-2.57,5.75-5.74,5.75h-59.3c-3.17.01-5.75-2.57-5.75-5.74V29.03c0-3.17,2.58-5.75,5.75-5.75h59.3c3.17,0,5.74,2.58,5.74,5.75v63.56ZM1447.71,80.33l-5.52,5.52v-17.89c0-1.61-1.31-2.91-2.93-2.91s-2.93,1.3-2.93,2.91v17.89l-5.52-5.52c-1.14-1.14-2.99-1.14-4.14,0-1.13,1.14-1.13,2.98,0,4.13l9.35,9.35c.75.75,1.71,1.16,2.69,1.28.17.03.35.05.54.05.18,0,.36-.02.53-.05.98-.12,1.94-.53,2.7-1.28l9.35-9.35c1.13-1.14,1.13-2.98,0-4.13-1.14-1.14-2.99-1.14-4.14,0ZM1430.82,41.34l5.54-5.54v19.02c0,1.62,1.3,2.92,2.92,2.92s2.93-1.3,2.93-2.92v-19l5.51,5.52c.55.55,1.29.85,2.06.85.75,0,1.49-.28,2.06-.85,1.14-1.14,1.14-3,0-4.14h0l-9.35-9.34c-.66-.66-1.51-1.1-2.43-1.26-.26-.07-.52-.12-.79-.12s-.53.05-.78.12c-.93.15-1.8.59-2.46,1.26l-9.35,9.35c-1.14,1.13-1.14,2.99,0,4.13s2.99,1.14,4.13,0h.01,0Z"/>
          <path class="st3" d="M1392.5,39.3c3.44,0,6.23-2.78,6.23-6.22s-2.8-6.23-6.23-6.23-6.22,2.79-6.22,6.23,2.79,6.22,6.22,6.22h0ZM1392.51,67.71c-2.33,0-5.94-.49-7.61-.73l-1.82,24.24c-.14,1.82,1.23,3.41,3.06,3.55h.04c1.82.14,3.4-1.22,3.55-3.03,0,0,0,0,0,0l1.49-17.95c.04-.6.33-1.44,1.34-1.46,1.05-.02,1.34.87,1.38,1.45l1.48,17.95c.14,1.82,1.73,3.18,3.55,3.04h.03c1.81-.14,3.19-1.74,3.05-3.56l-1.84-24.26c-1.75.26-5.5.75-7.68.75h0s0,0,0,0Z"/>
          <path class="st3" d="M1406.09,57.38l-.9-9.05c-.14-1.82-.98-3.83-3.55-5.11-1.96-.99-8.73-.84-8.73-.84,0,0-7.47-.17-9.59.84-2.54,1.21-3.32,3.29-3.47,5.11l-.9,9.04-.9,11.59c-.14,1.82,1.23,3.41,3.05,3.55h.03c.59.05,1.19-.06,1.72-.34l1.27-17.9c.04-.46.43-.8.89-.77.46.03.8.43.77.88l-.77,10.92c1.56.23,5.23.73,7.49.73,2.13,0,6-.52,7.62-.76l-.7-10.9c-.03-.46.31-.85.77-.88s.86.32.89.77l1.16,17.93c.5.23,1.06.35,1.66.3h.03c1.81-.14,3.17-1.72,3.04-3.54l-.9-11.59h.01s0,0,0,0ZM1350.5,77.56h20.36v15.99h-20.36v-15.99ZM1350.5,58.97h20.36v15.99h-20.36v-15.99ZM1350.5,48.11h20.36v7.99h-20.36v-7.99Z"/>
        </g>
      </g>
      <path class="st3" d="M30.18-907.39h2321.06V779.6H10.75V-907.39h19.43ZM2312.39-868.56H49.6V740.76h2262.79V-868.55h0Z"/>
      <g>
        <path class="st3" d="M1716.99,152.23V17.33h23.62v27.37h150.33V-104.11h-150.33v31.57h-23.62v-75.99h23.62v20.8h150.33v-132.27h-150.33v21.24h-23.62v-44.86h197.56V152.23h-23.61v-83.91h-150.33v83.91h-23.62ZM1520.58,107.39v44.87h-251.08V-36.18h227.46v-9.19h23.62V13.27h-23.62V-12.57h-203.85v141.21h203.84v-21.25h23.62ZM618.56,67.38h558.25v23.61h-558.25v-23.61Z"/>
        <path class="st3" d="M1166.21,90.99V-36.18h23.61v127.18h-23.61,0ZM618.56,152.23V-41.79h23.62v194.03h-23.62ZM619,393.59v-122.99h23.62v122.99h-23.62ZM619,741.99v-101.99h23.62v101.99h-23.62ZM1166.2,393.59v-122.99h23.62v122.99h-23.62ZM1166.2,741.99v-101.99h23.62v101.99h-23.62ZM1725.28,528.23v-122.99h23.61v122.99h-23.61ZM1725.28,741.99v-101.99h23.61v101.99h-23.61ZM1671.16,134.52h67.6v17.71h-67.6v-17.71ZM1731.18,270.6h183.37v17.71h-183.37v-17.71h0Z"/>
        <path class="st3" d="M1731.18,640v-368.21h17.71v368.21h-17.71ZM1560.27,270.6h-47.23v17.71h47.23v-17.71h0Z"/>
        <path class="st3" d="M1520.58,288.32v-34.06h-17.71v34.06h17.71ZM1542.56,353.21h188.63v17.71h-188.63v-17.71ZM1033.12,289.82h141.37v17.71h-141.37v-17.71Z"/>
        <path class="st3" d="M1560.27,357.5v-70.37h-17.71v70.37h17.71ZM1050.84,294.1v-20.12h-17.71v20.12h17.71ZM1513.59,134.52h50.4v17.71h-50.4v-17.71ZM318.98,34.57h306.97V0h-306.97v34.57h0Z"/>
        <path class="st3" d="M521.52,34.57V-38.12h-34.57V34.57h34.57ZM342.37,74V0h-34.56v74h34.56ZM68.63,74V-11.8h-34.57v85.8s34.57,0,34.57,0Z"/>
        <path class="st3" d="M46.86,74h295.51v-34.56H46.86v34.56ZM1520.58,168.58v-34.06h-17.71v34.06h17.71Z"/>
      </g>
      <path class="st3" d="M1740.61,143.93h161.64v8.31h-161.64v-8.31Z"/>
      <path class="st3" d="M1740.71,310.54h36.71v8.3h-36.71v-8.31h0Z"/>
      <path class="st3" d="M594.26,318.16v-47.56h-8.32v47.56h8.32ZM656.65,474.78v-36.69h8.31v36.69h-8.31ZM627.31,473.83v-100.19h-8.3v100.19h8.3Z"/>
      <path class="st3" d="M642.63,270.6h-125.46v8.31h125.46v-8.31h0ZM623.23,438.08h41.73v8.31h-41.73v-8.31ZM1041.44,306.59v66.82h-8.31v-66.82h8.31ZM620.34,309.85h-34.39v8.31h34.39v-8.31ZM1221.76,319.11v-48.51h8.31v48.51h-8.31Z"/>
      <path class="st3" d="M1033.12,270.6h357.61v8.31h-357.61v-8.31ZM1189.82,310.81h36.71v8.31h-36.71v-8.31ZM1271.19,464.06h119.55v8.31h-119.55v-8.31ZM1033.97,365.1h139.81v8.31h-139.81v-8.31h0ZM1554.57,270.6h186.14v8.31h-186.14v-8.31ZM517.17,466.48h147.79v8.3h-147.79v-8.3h0ZM525.49,270.6v107.43h-8.32v-107.43h8.32Z"/>
      <path class="st3" d="M1297.44,270.6v200.22h-8.31v-200.22h8.31ZM1174.52,327.07v145.3h-8.31v-145.3h8.31ZM1390.73,270.6v103.28h-8.31v-103.28h8.31ZM1390.73,457.24v13h-8.31v-13h8.31Z"/>
      <path class="st3" d="M1187.83,464.06h-19.21v8.31h19.21v-8.31ZM525.49,461.4v13.38h-8.32v-13.38h8.32Z"/>
      <path class="st3" d="M640.86,143.93h629.94v8.31h-629.94v-8.31Z"/>
      <g>
        <path class="st3" d="M1245.61,318.92c0-.22.03-.64.04-.77v-24.32h27.17v24.44s.04.43.04.65c0,7.27-6.11,13.19-13.62,13.19s-13.62-5.92-13.62-13.19ZM1243.96,318.92c0,8.2,6.84,14.86,15.28,14.86s15.28-6.65,15.28-14.86c0-.27-.04-.77-.04-.77v-25.98h-30.47v25.98s-.04.5-.04.77h0Z"/>
        <path class="st3" d="M1249.01,289.97h20.46v1.71h-20.46v-1.71ZM1247.36,288.32v5.02h23.76v-5.02h-23.76Z"/>
      </g>
      <g>
        <path class="st3" d="M541.55,311.57c0-.22.04-.63.04-.76v-24.32h27.17v24.44s.04.43.04.64c0,7.28-6.11,13.2-13.62,13.2s-13.62-5.92-13.62-13.2h0ZM539.9,311.57c0,8.2,6.84,14.86,15.28,14.86s15.28-6.65,15.28-14.86c0-.26-.04-.76-.04-.76v-25.99h-30.47v25.99s-.04.5-.04.76Z"/>
        <path class="st3" d="M544.95,282.63h20.46v1.71h-20.46v-1.71h0ZM543.3,280.97v5.02h23.77v-5.02h-23.77Z"/>
      </g>
      <g>
        <path class="st3" d="M1251.55,367.28v40.76h36.3v-40.76h-36.3ZM1250.26,365.99h38.87v43.34h-38.87v-43.34Z"/>
        <path class="st3" d="M1255.73,372.89c-.96,0-1.73.78-1.73,1.73v25.96c0,.95.78,1.72,1.73,1.72h13.82c.95,0,1.72-.77,1.72-1.72v-25.96c0-.95-.77-1.73-1.72-1.73h-13.82ZM1255.73,371.61h13.82c1.66,0,3.01,1.35,3.02,3.02v25.96c0,1.66-1.35,3.01-3.02,3.02h-13.82c-1.66,0-3.01-1.36-3.02-3.02h0v-25.95c0-1.66,1.35-3.01,3.01-3.02h0ZM1274.6,384.68c-.57,0-1.04-.46-1.04-1.03s.47-1.04,1.04-1.04,1.04.46,1.04,1.04-.46,1.03-1.04,1.03ZM1274.6,392.59c-.57,0-1.04-.47-1.04-1.04s.47-1.04,1.04-1.04,1.04.47,1.04,1.04-.47,1.04-1.04,1.04Z"/>
        <path class="st2" d="M1275.36,387.59h-7.05"/>
        <path class="st3" d="M1284.76,369.42v2.57h3.09v-2.57h-3.09ZM1283.47,368.14h5.65v5.14h-5.65v-5.14h0ZM1284.76,403.2v2.57h3.09v-2.57h-3.09ZM1283.47,401.91h5.65v5.15h-5.65v-5.15Z"/>
        <path class="st4" d="M1286.3,373.12v28.79"/>
      </g>
      <g>
        <path class="st3" d="M581.42,383.75v-40.76h36.3v40.76h-36.3ZM580.13,385.04h38.87v-43.34h-38.87v43.34Z"/>
        <path class="st3" d="M585.6,378.14c-.95,0-1.72-.78-1.72-1.73v-25.96c0-.95.77-1.72,1.72-1.72h13.83c.95,0,1.73.77,1.73,1.72v25.96c0,.96-.78,1.73-1.73,1.73h-13.83ZM585.6,379.42h13.83c1.67,0,3.01-1.35,3.02-3.02v-25.96c0-1.67-1.35-3.01-3.02-3.02h-13.83c-1.66,0-3,1.35-3.01,3.01h0v25.96c0,1.66,1.33,3.01,2.99,3.02h.01ZM604.47,366.35c-.57,0-1.04.46-1.04,1.03s.47,1.04,1.04,1.04,1.04-.46,1.04-1.04-.46-1.03-1.04-1.03h0ZM604.47,358.43c-.57,0-1.04.47-1.04,1.04,0,.57.47,1.04,1.04,1.04.57,0,1.04-.47,1.04-1.04,0-.57-.47-1.04-1.04-1.04Z"/>
        <path class="st2" d="M605.24,363.43h-7.06"/>
        <path class="st3" d="M614.62,381.6v-2.57h3.09v2.57h-3.09ZM613.34,382.88h5.65v-5.14h-5.65v5.14ZM614.62,347.82v-2.57h3.09v2.57h-3.09ZM613.34,349.11h5.65v-5.15h-5.65v5.15Z"/>
        <path class="st4" d="M616.17,377.91v-28.79"/>
      </g>
      <g>
        <path class="st3" d="M1311.21,292.3h42.76c2.7,0,5.16,1.1,6.94,2.89s2.89,4.24,2.89,6.94v43.49c0,2.61-1.04,5.11-2.89,6.94-1.78,1.78-4.24,2.9-6.94,2.9h-42.76c-2.61,0-5.1-1.05-6.94-2.9-1.85-1.84-2.89-4.34-2.89-6.94v-43.49c0-2.7,1.1-5.16,2.89-6.94s4.25-2.89,6.94-2.89h0ZM1353.97,291.71h-42.76c-2.86,0-5.47,1.17-7.36,3.06-1.95,1.95-3.05,4.6-3.06,7.36v43.49c0,2.87,1.17,5.48,3.06,7.36,1.95,1.95,4.6,3.05,7.36,3.06h42.76c2.86,0,5.47-1.17,7.36-3.06,1.96-1.95,3.06-4.6,3.06-7.36v-43.49c0-2.87-1.17-5.47-3.06-7.36-1.95-1.95-4.6-3.05-7.36-3.06Z"/>
        <path class="st3" d="M1312.69,294.51h39.79c2.42,0,4.74.97,6.45,2.69,1.71,1.71,2.68,4.02,2.69,6.44v40.48c0,2.5-1.03,4.79-2.69,6.44s-3.94,2.69-6.45,2.69h-39.79c-2.51,0-4.79-1.03-6.44-2.69s-2.68-3.94-2.68-6.44v-40.48c0-2.5,1.03-4.79,2.68-6.44s3.94-2.69,6.44-2.69h0ZM1352.49,293.92h-39.79c-2.58,0-5.05,1.03-6.86,2.85-1.83,1.82-2.85,4.29-2.85,6.86v40.48c0,2.58,1.03,5.05,2.85,6.86,1.82,1.83,4.29,2.86,6.86,2.85h39.79c2.58,0,5.05-1.03,6.87-2.85,1.75-1.76,2.85-4.19,2.85-6.86v-40.48c0-2.68-1.1-5.1-2.85-6.86-1.82-1.83-4.29-2.85-6.87-2.85Z"/>
        <path class="st3" d="M1298.62,289.5h67.94v68.75h-67.94v-68.75ZM1367.15,288.32h-69.71v71.12h70.31v-71.12h-.59Z"/>
        <path class="st3" d="M1310.9,299.68c.6,0,1.17.24,1.58.66.4.4.66.96.66,1.58s-.26,1.18-.66,1.58c-.87.88-2.29.88-3.17,0-.42-.42-.66-.99-.66-1.59,0-1.24,1-2.24,2.24-2.24h0ZM1312.91,299.92c-1.1-1.11-2.9-1.11-4.01,0-.53.53-.83,1.26-.83,2.01,0,.78.32,1.49.83,2,1.1,1.11,2.9,1.11,4.01,0,.54-.53.84-1.26.83-2.01,0-.78-.32-1.49-.83-2h0Z"/>
      </g>
      <path class="st3" d="M854.8,552.38h-2.36v-23.33c-.55.81-1.28,1.65-2.2,2.49-.92.85-1.76,1.49-2.53,1.92v-3.5c1.33-.98,2.49-2.17,3.46-3.51,1-1.37,1.71-2.72,2.11-4.04h1.53v29.95Z"/>
      <path class="st3" d="M868.5,552.38v-7.12h-8.35v-3.38l8.75-19.32h1.98v19.32h2.64v3.38h-2.64v7.12h-2.37ZM868.5,541.88v-13.44l-6.01,13.44h6.01Z"/>
      <path class="st3" d="M876.27,545.47l2.26-.29c.37,3.14,1.44,4.71,3.22,4.71.79,0,1.51-.34,2.16-1.03.65-.68,1.19-1.9,1.64-3.67.45-1.74.68-3.8.68-6.13v-.74c-.5,1.21-1.16,2.17-1.99,2.89-.83.7-1.69,1.06-2.55,1.06-1.57,0-2.94-.87-4.08-2.61s-1.7-4.13-1.7-7.15.59-5.57,1.77-7.37c1.18-1.79,2.61-2.69,4.31-2.69,1.2,0,2.31.5,3.37,1.51,1.03.99,1.83,2.47,2.4,4.43.56,1.95.85,4.77.85,8.45,0,4.1-.31,7.27-.92,9.54-.6,2.27-1.43,3.93-2.47,4.97s-2.21,1.56-3.51,1.56c-1.46,0-2.7-.63-3.68-1.9-.99-1.27-1.57-3.1-1.76-5.51h0ZM885.98,532.28c0-2.12-.37-3.8-1.12-5.02s-1.61-1.83-2.59-1.83-1.92.65-2.72,1.95c-.79,1.3-1.19,3.04-1.19,5.21,0,1.95.37,3.52,1.14,4.67.76,1.16,1.67,1.74,2.72,1.74s1.94-.58,2.67-1.74c.73-1.17,1.09-2.82,1.09-4.98h0Z"/>
      <path class="st3" d="M898.42,544.46l2.36-.5c.5,3.95,1.74,5.92,3.75,5.92,1.08,0,2.01-.58,2.8-1.74s1.19-2.67,1.19-4.52c0-1.73-.37-3.14-1.09-4.19-.73-1.06-1.61-1.59-2.67-1.59-.45,0-1,.14-1.67.41l.27-3.21.37.04c1.17,0,2.11-.45,2.84-1.36.73-.91,1.09-2.12,1.09-3.66,0-1.39-.3-2.52-.91-3.37s-1.36-1.27-2.23-1.27-1.68.44-2.3,1.33c-.62.9-1.03,2.26-1.2,4.08l-2.36-.66c.3-2.56.97-4.49,2.02-5.79,1.05-1.31,2.32-1.96,3.81-1.96,1.56,0,2.9.73,3.99,2.19,1.09,1.46,1.63,3.31,1.63,5.54,0,1.35-.23,2.55-.69,3.6-.47,1.04-1.11,1.85-1.95,2.45.77.27,1.41.72,1.91,1.34s.91,1.45,1.22,2.49c.31,1.05.47,2.21.47,3.51,0,2.73-.64,4.98-1.91,6.72-1.28,1.74-2.8,2.6-4.58,2.6-1.65,0-3.05-.76-4.2-2.28-1.14-1.52-1.79-3.56-1.95-6.13h0Z"/>
      <path class="st3" d="M892.27,552.38v-4.17h2.7v4.18c0,1.62-.19,2.89-.56,3.8-.38.92-.93,1.62-1.64,2.11l-.66-1.57c.48-.32.84-.81,1.08-1.45.25-.65.38-1.61.4-2.9h-1.31Z"/>
      <path class="st3" d="M913.43,537.66c0-5,.53-8.8,1.59-11.37,1.07-2.57,2.64-3.87,4.71-3.87,1.84,0,3.29,1.04,4.35,3.14,1.28,2.53,1.92,6.56,1.92,12.1,0,4.98-.52,8.77-1.58,11.34-1.06,2.58-2.64,3.88-4.72,3.88-1.83,0-3.34-1.13-4.51-3.42-1.17-2.27-1.76-6.21-1.76-11.8ZM915.86,537.65c0,4.85.37,8.1,1.1,9.75.73,1.65,1.66,2.48,2.8,2.48,1.08,0,1.98-.83,2.72-2.51.72-1.67,1.08-4.91,1.08-9.73s-.37-8.11-1.09-9.76c-.73-1.65-1.68-2.46-2.84-2.46-1.07,0-1.96.83-2.68,2.51s-1.08,4.91-1.08,9.72h0Z"/>
      <path class="st3" d="M526.96,433.94v3.5h-12.8c-.03-1.42.31-3.03,1.02-4.79.71-1.75,2.02-3.84,3.92-6.24,2.22-2.8,3.68-4.96,4.37-6.49.68-1.53,1.03-2.95,1.03-4.28,0-1.52-.35-2.77-1.05-3.72-.71-.96-1.57-1.44-2.6-1.44-1.11,0-2.01.51-2.72,1.55-.7,1.03-1.06,2.52-1.06,4.45l-2.43-.37c.17-2.87.81-5.02,1.92-6.46s2.56-2.16,4.39-2.16c1.97,0,3.47.84,4.48,2.52,1.01,1.69,1.52,3.6,1.52,5.74,0,1.9-.4,3.72-1.19,5.46-.79,1.75-2.31,4.08-4.53,6.99-1.42,1.83-2.34,3.08-2.76,3.75-.41.66-.75,1.33-1.01,2h9.52,0Z"/>
      <path class="st3" d="M530.82,437.43v-4.17h2.7v4.18c0,1.61-.19,2.88-.56,3.8-.38.91-.92,1.62-1.64,2.1l-.66-1.56c.48-.33.84-.81,1.08-1.46.25-.64.38-1.61.4-2.89h-1.31Z"/>
      <path class="st3" d="M551.97,422.71c0-5,.53-8.79,1.6-11.36,1.06-2.57,2.62-3.87,4.7-3.87,1.84,0,3.28,1.04,4.35,3.13,1.28,2.53,1.92,6.56,1.92,12.1,0,4.98-.52,8.77-1.58,11.35s-2.64,3.88-4.72,3.88c-1.83,0-3.34-1.14-4.52-3.42-1.16-2.28-1.75-6.22-1.75-11.81h0ZM554.41,422.71c0,4.84.37,8.1,1.1,9.75.73,1.65,1.66,2.47,2.8,2.47,1.08,0,1.98-.83,2.71-2.5.72-1.67,1.08-4.91,1.08-9.72s-.36-8.12-1.09-9.77c-.73-1.64-1.68-2.46-2.84-2.46-1.07,0-1.96.83-2.68,2.51-.71,1.67-1.08,4.91-1.08,9.73h0Z"/>
      <path class="st3" d="M540.63,421.25c-.94-.53-1.66-1.31-2.14-2.32-.49-1.01-.73-2.27-.73-3.78,0-2.26.52-4.12,1.57-5.54s2.37-2.13,3.97-2.13,2.92.72,4,2.17c1.05,1.45,1.58,3.33,1.58,5.62,0,1.44-.23,2.66-.7,3.66-.46.98-1.21,1.79-2.14,2.32,1.17.59,2.07,1.52,2.69,2.83.63,1.29.94,2.92.94,4.84,0,2.65-.61,4.82-1.82,6.49-1.21,1.67-2.72,2.51-4.51,2.51s-3.34-.84-4.55-2.51c-1.21-1.67-1.82-3.87-1.82-6.6,0-1.99.32-3.64.97-4.93.65-1.29,1.55-2.17,2.7-2.63h0ZM540.19,415.03c0,1.47.3,2.64.91,3.51.6.87,1.35,1.31,2.23,1.31s1.59-.43,2.19-1.28c.61-.86.91-1.97.91-3.33s-.31-2.54-.93-3.44-1.36-1.33-2.21-1.33-1.57.44-2.19,1.3c-.6.87-.91,1.96-.91,3.26h0ZM539.4,428.83c0,1.83.38,3.31,1.16,4.43.77,1.11,1.69,1.67,2.78,1.67s2-.54,2.77-1.62c.75-1.09,1.13-2.54,1.13-4.35s-.39-3.31-1.17-4.43c-.77-1.12-1.7-1.68-2.79-1.68s-1.99.56-2.74,1.67-1.12,2.54-1.12,4.31h0Z"/>
      <path class="st3" d="M1352.14,433.86v3.5h-12.81c-.03-1.42.31-3.02,1.02-4.78s2.02-3.85,3.93-6.25c2.22-2.8,3.68-4.96,4.36-6.49.69-1.53,1.03-2.95,1.03-4.28,0-1.51-.35-2.75-1.05-3.72-.7-.96-1.57-1.44-2.6-1.44-1.1,0-2.01.52-2.71,1.55-.71,1.03-1.07,2.53-1.07,4.45l-2.43-.37c.17-2.87.81-5.02,1.92-6.46s2.57-2.16,4.39-2.16c1.97,0,3.47.84,4.48,2.52,1.02,1.68,1.52,3.6,1.52,5.74,0,1.89-.4,3.75-1.19,5.46-.79,1.74-2.31,4.08-4.53,6.98-1.42,1.83-2.33,3.08-2.74,3.75-.42.67-.75,1.33-1.01,2h9.52Z"/>
      <path class="st3" d="M1355.98,437.35v-4.17h2.69v4.18c0,1.61-.18,2.89-.56,3.8-.37.92-.92,1.62-1.64,2.11l-.66-1.57c.48-.33.84-.81,1.08-1.45.25-.65.38-1.61.4-2.9h-1.31,0Z"/>
      <path class="st3" d="M1377.14,422.64c0-5,.54-8.8,1.6-11.37,1.06-2.57,2.64-3.87,4.71-3.87,1.83,0,3.29,1.04,4.34,3.14,1.29,2.52,1.93,6.56,1.93,12.1,0,4.98-.53,8.76-1.59,11.34-1.05,2.58-2.62,3.88-4.72,3.88-1.83,0-3.34-1.14-4.51-3.42s-1.76-6.21-1.76-11.8h0ZM1379.58,422.63c0,4.85.36,8.1,1.09,9.75.73,1.65,1.67,2.48,2.81,2.48,1.07,0,1.97-.83,2.7-2.51.72-1.67,1.09-4.91,1.09-9.72s-.37-8.11-1.1-9.77c-.73-1.64-1.67-2.46-2.84-2.46-1.06,0-1.96.84-2.67,2.52-.72,1.67-1.08,4.91-1.08,9.72h0Z"/>
      <path class="st3" d="M1374.42,414.81l-2.38.29c-.22-1.53-.55-2.62-.99-3.29-.63-.94-1.38-1.42-2.28-1.42-1.38,0-2.48,1.08-3.32,3.27-.72,1.87-1.08,4.64-1.09,8.31.54-1.31,1.23-2.29,2.06-2.96.82-.68,1.69-1.02,2.61-1.02,1.54,0,2.88.88,4.02,2.65,1.14,1.75,1.71,4.11,1.71,7.05,0,1.99-.29,3.81-.86,5.42-.57,1.63-1.31,2.82-2.21,3.6-.9.77-1.89,1.16-2.97,1.16-1.95,0-3.57-1.11-4.83-3.33-1.27-2.22-1.9-5.93-1.9-11.13,0-5.76.65-9.87,1.94-12.31,1.29-2.45,2.95-3.68,4.98-3.68,1.46,0,2.69.63,3.69,1.9.98,1.26,1.58,3.11,1.8,5.51h0ZM1364.74,427.68c0,2.16.4,3.89,1.2,5.2.8,1.32,1.73,1.97,2.81,1.97.93,0,1.75-.62,2.49-1.85.73-1.24,1.1-2.94,1.1-5.09s-.36-3.77-1.09-4.94c-.73-1.16-1.62-1.74-2.68-1.74s-1.92.58-2.69,1.74c-.77,1.15-1.15,2.72-1.15,4.71Z"/>
      <path class="st3" d="M1214.12,469.14v3.51h-12.8c-.04-1.42.3-3.03,1.01-4.79.72-1.75,2.03-3.84,3.93-6.24,2.22-2.8,3.68-4.97,4.36-6.49.69-1.53,1.03-2.95,1.03-4.28,0-1.52-.35-2.77-1.05-3.73-.7-.95-1.56-1.43-2.59-1.43-1.11,0-2.01.51-2.72,1.54-.71,1.04-1.06,2.53-1.06,4.46l-2.44-.38c.17-2.86.81-5.01,1.92-6.45,1.11-1.45,2.56-2.17,4.38-2.17,1.98,0,3.47.84,4.49,2.53,1.01,1.68,1.52,3.6,1.52,5.74,0,1.89-.4,3.72-1.19,5.46-.8,1.75-2.31,4.08-4.54,6.98-1.42,1.83-2.33,3.08-2.74,3.76-.4.63-.74,1.3-1.01,1.99h9.52Z"/>
      <path class="st3" d="M1217.97,472.65v-4.17h2.7v4.17c0,1.62-.19,2.89-.57,3.8-.37.92-.92,1.63-1.63,2.11l-.66-1.56c.48-.33.84-.82,1.08-1.46.24-.65.38-1.61.4-2.89h-1.32Z"/>
      <path class="st3" d="M1239.13,457.92c0-5,.53-8.79,1.59-11.37,1.07-2.57,2.64-3.87,4.71-3.87,1.84,0,3.29,1.04,4.35,3.14,1.28,2.52,1.92,6.56,1.92,12.1,0,4.98-.53,8.77-1.58,11.35-1.06,2.58-2.64,3.87-4.72,3.87-1.84,0-3.35-1.13-4.52-3.41-1.17-2.28-1.75-6.22-1.75-11.81h0ZM1241.57,457.91c0,4.85.37,8.1,1.1,9.76.72,1.65,1.66,2.47,2.81,2.47,1.08,0,1.98-.83,2.7-2.5.73-1.67,1.09-4.91,1.09-9.73s-.37-8.11-1.1-9.76c-.72-1.64-1.67-2.46-2.83-2.46-1.07,0-1.96.83-2.69,2.51-.72,1.67-1.08,4.91-1.08,9.72h0Z"/>
      <path class="st3" d="M1227.79,456.47c-.95-.53-1.7-1.35-2.15-2.33-.48-1-.73-2.26-.73-3.78,0-2.26.53-4.11,1.58-5.53,1.05-1.42,2.37-2.14,3.96-2.14s2.94.73,4,2.18c1.06,1.45,1.59,3.33,1.59,5.62,0,1.43-.23,2.66-.71,3.65-.45.98-1.2,1.8-2.14,2.33,1.17.58,2.07,1.52,2.7,2.82.63,1.3.94,2.92.94,4.84,0,2.66-.61,4.83-1.82,6.5s-2.72,2.51-4.52,2.51-3.34-.83-4.55-2.51c-1.21-1.67-1.81-3.88-1.81-6.6,0-1.99.32-3.64.97-4.93s1.55-2.17,2.69-2.63h0ZM1227.35,450.25c0,1.47.3,2.64.9,3.51.61.87,1.35,1.31,2.23,1.31s1.6-.43,2.2-1.29c.61-.85.91-1.96.91-3.32s-.31-2.55-.93-3.44c-.63-.89-1.36-1.33-2.21-1.33s-1.58.44-2.19,1.3c-.61.87-.91,1.96-.91,3.26h0ZM1226.56,464.04c0,1.83.38,3.31,1.15,4.42.77,1.12,1.7,1.68,2.78,1.68s2.01-.54,2.77-1.62c.76-1.09,1.14-2.55,1.14-4.36s-.39-3.31-1.17-4.42c-.78-1.12-1.71-1.68-2.8-1.68s-1.99.55-2.74,1.66-1.12,2.55-1.12,4.32h0Z"/>
      <g>
        <path class="st3" d="M285.48,742.17H124.92v36.03h160.56v-36.03h0ZM286.89,740.76v38.85H123.51v-38.85h163.38,0Z"/>
        <path class="st3" d="M285.49,761.59H124.9v3.79h160.59v-3.79h0ZM286.9,760.18v6.61H123.49v-6.61h163.41,0Z"/>
        <path class="st3" d="M285.49,761.59h-3.81v3.79h3.81v-3.79ZM286.9,760.18v6.61h-6.63v-6.61h6.63ZM128.73,761.59h-3.81v3.79h3.81v-3.79ZM130.14,760.18v6.61h-6.63v-6.61h6.63ZM252.42,761.59h-3.81v3.79h3.81v-3.79ZM253.83,760.18v6.61h-6.63v-6.61h6.63ZM562.42,742.17h-160.56v36.03h160.56v-36.03ZM563.83,740.76v38.85h-163.38v-38.85h163.38Z"/>
        <path class="st3" d="M562.43,761.59h-160.59v3.79h160.59v-3.79ZM563.84,760.18v6.61h-163.4v-6.61h163.4Z"/>
        <path class="st3" d="M562.43,761.59h-3.81v3.79h3.81v-3.79ZM563.84,760.18v6.61h-6.62v-6.61h6.62ZM405.67,761.59h-3.81v3.79h3.81v-3.79ZM407.07,760.18v6.61h-6.62v-6.61h6.62ZM529.36,761.59h-3.81v3.79h3.81v-3.79ZM530.77,760.18v6.61h-6.62v-6.61h6.62ZM844.1,742.17h-160.57v36.03h160.57v-36.03h0ZM845.5,740.76v38.85h-163.38v-38.85h163.38,0Z"/>
        <path class="st3" d="M844.1,761.59h-160.59v3.79h160.59v-3.79h0ZM845.51,760.18v6.61h-163.41v-6.61h163.41,0Z"/>
        <path class="st3" d="M844.1,761.59h-3.81v3.79h3.81v-3.79ZM845.51,760.18v6.61h-6.63v-6.61h6.63ZM687.34,761.59h-3.81v3.79h3.81v-3.79ZM688.75,760.18v6.61h-6.63v-6.61h6.63ZM811.03,761.59h-3.8v3.79h3.8v-3.79ZM812.44,760.18v6.61h-6.63v-6.61h6.63ZM1121.03,742.17h-160.56v36.03h160.56v-36.03h0ZM1122.45,740.76v38.85h-163.38v-38.85h163.38Z"/>
        <path class="st3" d="M1121.04,761.59h-160.59v3.79h160.59v-3.79ZM1122.44,760.18v6.61h-163.4v-6.61h163.4Z"/>
        <path class="st3" d="M1121.04,761.59h-3.81v3.79h3.81v-3.79ZM1122.44,760.18v6.61h-6.62v-6.61h6.62ZM964.28,761.59h-3.81v3.79h3.81v-3.79ZM965.68,760.18v6.61h-6.62v-6.61h6.62ZM1087.97,761.59h-3.81v3.79h3.81v-3.79ZM1089.38,760.18v6.61h-6.63v-6.61h6.63ZM1400.34,742.17h-160.57v36.03h160.57v-36.03ZM1401.75,740.76v38.85h-163.39v-38.85h163.39Z"/>
        <path class="st3" d="M1400.34,761.59h-160.58v3.79h160.58v-3.79ZM1401.76,760.18v6.61h-163.4v-6.61h163.4Z"/>
        <path class="st3" d="M1400.34,761.59h-3.8v3.79h3.8v-3.79ZM1401.76,760.18v6.61h-6.62v-6.61h6.62ZM1243.58,761.59h-3.8v3.79h3.8v-3.79ZM1244.99,760.18v6.61h-6.63v-6.61h6.63ZM1367.27,761.59h-3.8v3.79h3.8v-3.79ZM1368.69,760.18v6.61h-6.62v-6.61h6.62ZM1677.29,742.17h-160.57v36.03h160.57v-36.03h0ZM1678.69,740.76v38.85h-163.38v-38.85h163.38Z"/>
        <path class="st3" d="M1677.29,761.59h-160.59v3.79h160.59v-3.79ZM1678.7,760.18v6.61h-163.41v-6.61h163.41Z"/>
        <path class="st3" d="M1677.29,761.59h-3.81v3.79h3.81v-3.79ZM1678.7,760.18v6.61h-6.63v-6.61h6.63ZM1520.53,761.59h-3.81v3.79h3.81v-3.79ZM1521.94,760.18v6.61h-6.63v-6.61h6.63ZM1644.22,761.59h-3.8v3.79h3.8v-3.79ZM1645.63,760.18v6.61h-6.63v-6.61h6.63,0Z"/>
      </g>
      <g>
        <path class="st3" d="M11.46,557.73h37.44v104.58H11.46v-104.58Z"/>
        <path class="st3" d="M48.19,558.43v103.88H12.17v-103.88h36.02ZM49.6,557.03H10.75v106.7h38.85v-106.7Z"/>
        <path class="st3" d="M24.27,557.73h5.2v105.29h-5.2v-105.29Z"/>
        <path class="st3" d="M28.77,558.43v103.9h-3.79v-103.9h3.79ZM30.18,557.03h-6.61v106.71h6.61v-106.71Z"/>
        <path class="st3" d="M24.27,557.73h5.2v5.21h-5.2v-5.21Z"/>
        <path class="st3" d="M28.77,558.43v3.81h-3.79v-3.81h3.79ZM30.18,557.03h-6.61v6.62h6.61v-6.62Z"/>
        <path class="st3" d="M24.27,657.8h5.2v5.22h-5.2v-5.22Z"/>
        <path class="st3" d="M28.77,658.51v3.8h-3.79v-3.8h3.79ZM30.18,657.1h-6.61v6.62h6.61v-6.62Z"/>
        <path class="st3" d="M24.27,587.25h5.2v5.21h-5.2v-5.21Z"/>
        <path class="st3" d="M28.77,587.96v3.8h-3.79v-3.8h3.79ZM30.18,586.55h-6.61v6.62h6.61v-6.62Z"/>
        <path class="st3" d="M11.46,330.98h37.44v104.58H11.46v-104.58Z"/>
        <path class="st3" d="M48.19,331.68v103.88H12.17v-103.88h36.02ZM49.6,330.27H10.75v106.7h38.85v-106.7Z"/>
        <path class="st3" d="M24.27,330.98h5.2v105.29h-5.2v-105.29Z"/>
        <path class="st3" d="M28.77,331.68v103.9h-3.79v-103.9h3.79ZM30.18,330.27h-6.61v106.72h6.61v-106.72Z"/>
        <path class="st3" d="M24.27,330.98h5.2v5.21h-5.2v-5.21Z"/>
        <path class="st3" d="M28.77,331.68v3.8h-3.79v-3.8h3.79ZM30.18,330.27h-6.61v6.62h6.61v-6.62Z"/>
        <path class="st3" d="M24.27,431.05h5.2v5.22h-5.2v-5.22Z"/>
        <path class="st3" d="M28.77,431.75v3.81h-3.79v-3.81h3.79ZM30.18,430.34h-6.61v6.63h6.61v-6.63Z"/>
        <path class="st3" d="M24.27,360.5h5.2v5.21h-5.2v-5.21Z"/>
        <path class="st3" d="M28.77,361.21v3.8h-3.79v-3.8h3.79ZM30.18,359.79h-6.61v6.63h6.61v-6.63Z"/>
        <path class="st3" d="M11.46,107.77h37.44v104.58H11.46v-104.58Z"/>
        <path class="st3" d="M48.19,108.47v103.88H12.17v-103.88h36.02ZM49.6,107.06H10.75v106.7h38.85v-106.7h0Z"/>
        <path class="st3" d="M24.27,107.77h5.2v105.29h-5.2v-105.29Z"/>
        <path class="st3" d="M28.77,108.47v103.9h-3.79v-103.9h3.79ZM30.18,107.06h-6.61v106.72h6.61v-106.72h0Z"/>
        <path class="st3" d="M24.27,107.77h5.2v5.21h-5.2v-5.21Z"/>
        <path class="st3" d="M28.77,108.47v3.8h-3.79v-3.8h3.79ZM30.18,107.06h-6.61v6.63h6.61v-6.63h0Z"/>
        <path class="st3" d="M24.27,207.84h5.2v5.22h-5.2v-5.22Z"/>
        <path class="st3" d="M28.77,208.54v3.81h-3.79v-3.81h3.79ZM30.18,207.14h-6.61v6.62h6.61v-6.62Z"/>
        <path class="st3" d="M24.27,137.3h5.2v5.21h-5.2v-5.21Z"/>
        <path class="st3" d="M28.77,138v3.81h-3.79v-3.81h3.79ZM30.18,136.58h-6.61v6.63h6.61v-6.63Z"/>
      </g>
      <g>
        <path class="st3" d="M1666.37,78.59v73.64h-2.94v-73.64h2.94Z"/>
        <path class="st3" d="M1665.75,79.58h-5.22c-20.61,0-37.35,6.42-48.93,17.97-11.58,11.55-18.02,28.25-18.02,48.8v5.88h-.99v-5.88c0-20.83,6.54-37.76,18.31-49.5s28.75-18.26,49.63-18.26h5.22v.99h0ZM1568.78,152.24v-28.18h2.94v28.18h-2.94ZM1666.96,143.93h4.2v8.31h-4.79v-8.31h.59ZM1669.97,145.1h-2.43v5.95h2.43v-5.95ZM1564.59,143.93h4.2v8.31h-4.79v-8.31h.59ZM1567.6,145.1h-2.42v5.95h2.42v-5.95Z"/>
        <path class="st3" d="M1593.54,145.86c0-6.02-2.44-11.47-6.39-15.42-4.08-4.09-9.63-6.39-15.41-6.38v.83c5.79,0,11.03,2.34,14.83,6.14,3.79,3.8,6.14,9.04,6.14,14.83h.83,0Z"/>
      </g>
      <path class="st3" d="M127.44,166.61h-5.98v-30.16c-2.21,2.76-4.77,4.78-7.67,6.07v-7.29c1.65-.74,3.37-2.05,5.14-3.95,1.75-1.85,3.02-4.1,3.71-6.55h4.81v41.89Z"/>
      <path class="st3" d="M196.79,155.87l5.93-.87c.15,1.82.66,3.27,1.52,4.32.85,1.04,1.8,1.57,2.84,1.57,1.23,0,2.28-.67,3.17-2,.87-1.33,1.31-3.39,1.31-6.14,0-2.6-.43-4.54-1.3-5.79-.88-1.25-1.99-1.87-3.33-1.87-1.71,0-3.26,1.01-4.61,3.04l-4.85-.93,3.07-21.76h15.72v7.46h-11.15l-1,7.12c1.34-.9,2.7-1.34,4.08-1.34,2.44,0,4.52,1.05,6.22,3.19,2.15,2.71,3.24,6.29,3.24,10.73,0,3.67-.92,7.03-2.76,10.11-1.82,3.07-4.45,4.61-7.85,4.61-2.76,0-5.06-.99-6.91-2.97-1.84-1.97-2.96-4.8-3.34-8.45h0Z"/>
      <path class="st3" d="M136.44,155.87l5.93-.87c.16,1.82.66,3.27,1.52,4.32.86,1.04,1.81,1.57,2.85,1.57,1.22,0,2.27-.67,3.15-2,.87-1.33,1.31-3.39,1.31-6.14,0-2.6-.43-4.54-1.3-5.79-.87-1.25-1.98-1.87-3.32-1.87-1.71,0-3.25,1.01-4.61,3.04l-4.84-.93,3.07-21.76h15.73v7.46h-11.15l-1.01,7.12c1.34-.9,2.71-1.34,4.09-1.34,2.44,0,4.52,1.05,6.22,3.19,2.15,2.71,3.23,6.29,3.23,10.73,0,3.67-.91,7.03-2.76,10.11-1.82,3.07-4.45,4.61-7.84,4.61-2.76,0-5.06-.99-6.91-2.97-1.85-1.97-2.96-4.8-3.35-8.45h0Z"/>
      <path class="st3" d="M160.47,132.83v-7.4h20.33v5.81c-1.66,2.22-3.36,5.38-5.07,9.47-1.7,4.09-3.02,8.49-3.96,13.15-.93,4.68-1.4,8.93-1.4,12.75h-5.72c.14-5.93,1.03-11.85,2.68-17.75,1.64-5.91,3.87-11.25,6.66-16.03h-13.53Z"/>
      <path class="st3" d="M185.67,158.61h5.93v5.72c0,3.25-.34,5.66-1.03,7.24-.84,1.95-2.24,3.41-4.21,4.36l-1.16-3.31c1.16-.53,1.99-1.25,2.51-2.15.51-.9.78-2.2.81-3.87h-2.85v-7.99h0Z"/>
      <path class="st3" d="M230.89,124.72c3.01,0,5.45,1.57,7.3,4.74,1.86,3.16,2.79,8.68,2.79,16.56s-.93,13.38-2.79,16.55c-1.85,3.16-4.29,4.73-7.27,4.73s-5.45-1.56-7.31-4.69c-1.86-3.14-2.79-8.69-2.79-16.67s.92-13.32,2.79-16.48c1.86-3.17,4.29-4.74,7.28-4.74h0ZM230.9,131.37c-1.16,0-2.1.85-2.79,2.55-.7,1.7-1.04,5.74-1.04,12.09s.34,10.4,1.04,12.09c.69,1.69,1.63,2.54,2.79,2.54s2.11-.86,2.81-2.56c.69-1.69,1.03-5.72,1.03-12.07s-.34-10.39-1.03-12.09-1.62-2.55-2.8-2.55h0Z"/>
      <g>
        <path class="st3" d="M1318.08,451.82v-5.21c0-20.61,6.42-37.35,17.97-48.93,11.55-11.58,28.25-18.02,48.8-18.02h5.88v-.99h-5.88c-20.83,0-37.76,6.54-49.5,18.31-11.74,11.77-18.26,28.75-18.26,49.63v5.21h.99Z"/>
        <path class="st3" d="M1390.73,449.57h-73.64v2.96h73.64v-2.96Z"/>
        <path class="st3" d="M1382.43,453.04v4.2h8.31v-4.79h-8.31v.59h0ZM1383.61,456.06v-2.42h5.94v2.42h-5.94ZM1382.43,374.47v4.2h8.31v-4.79h-8.31v.59h0ZM1383.61,377.49v-2.42h5.94v2.42h-5.94Z"/>
      </g>
      <g>
        <path class="st3" d="M1193.24,399.72h5.22c20.61,0,37.35,6.42,48.93,17.97,11.58,11.55,18.02,28.25,18.02,48.8v5.88h.99v-5.88c0-20.82-6.54-37.76-18.31-49.5-11.77-11.74-28.75-18.26-49.63-18.26h-5.22v.99h0Z"/>
        <path class="st3" d="M1195.49,472.37v-73.64h-2.95v73.64h2.95Z"/>
        <path class="st3" d="M1192.03,464.06h-4.2v8.31h4.79v-8.31h-.59ZM1189.01,465.24h2.42v5.94h-2.42v-5.94ZM1270.6,464.06h-4.2v8.31h4.79v-8.31h-.59ZM1267.58,465.24h2.43v5.94h-2.43v-5.94Z"/>
      </g>
      <g>
        <path class="st3" d="M1589.39,249.48v-5.46c0-21.6-6.73-39.14-18.83-51.28-12.11-12.14-29.6-18.88-51.14-18.88h-6.17v-1.04h6.17c21.82,0,39.57,6.85,51.87,19.19,12.3,12.33,19.14,30.13,19.14,52.01v5.46h-1.04Z"/>
        <path class="st3" d="M1513.24,247.49h76.67v2.6h-76.67v-2.6Z"/>
        <path class="st3" d="M1520.58,250.56v3.7h-7.33v-4.22h7.33v.52ZM1519.54,253.21v-2.13h-5.25v2.13h5.25ZM1520.58,169.1v3.71h-7.33v-4.23h7.33v.52ZM1519.54,171.77v-2.14h-5.25v2.14h5.25Z"/>
      </g>
      <g>
        <path class="st3" d="M589.82,455.98v-5.21c0-20.61-6.42-37.35-17.97-48.93-11.55-11.59-28.24-18.02-48.8-18.02h-5.88v-.99h5.88c20.83,0,37.77,6.54,49.5,18.31,11.74,11.76,18.26,28.75,18.26,49.63v5.21h-.99Z"/>
        <path class="st3" d="M517.17,453.73h73.64v2.94h-73.64v-2.94h0Z"/>
        <path class="st3" d="M525.49,457.2v4.2h-8.32v-4.79h8.32v.59ZM524.3,460.21v-2.42h-5.95v2.42h5.95ZM525.49,378.63v4.2h-8.32v-4.79h8.32v.59ZM524.3,381.64v-2.43h-5.95v2.43h5.95Z"/>
      </g>
    </g>
  </g>
</svg>