<svg version="1.1" xmlns="http://www.w3.org/2000/svg" xmlns:xlink="http://www.w3.org/1999/xlink" viewBox="0 897.546 2269.022 914.943"><path d="m2.227 1010.536 260.608.444v-39.442l218.704-.014-.32-24.617 44.153-.445 44.812 52.086 3.132 34.626 26.765.792v3.84l521.165 1.107-.371-103.56h126.74l.54 164.83v5.07l267.145.804 4.913-31.792 108.898-35.773v67.565h69.888l146.98.441V897.546h421.803l1.24 914.943L0 1809.426l2.227-798.89Z" fill="none" stroke-width="0"></path><path fill="none" stroke-width="0" d="M43.65 1039.089h249.47v-49.934h173.255v46.875l127.252-1.217v17.24l538.695.933V945.483H1237.5V1118.3l445.865 2.361 176.89 2.285-2.66-219.973 366.525 4.997v861.466H43.649V1039.09z"></path><clipPath id="a"><path d="m2.227 1010.536 260.608.444v-39.442l218.704-.014-.32-24.617 44.153-.445 44.812 52.086 3.132 34.626 26.765.792v3.84l521.165 1.107-.371-103.56h126.74l.54 164.83v5.07l267.145.804 4.913-31.792 108.898-35.773v67.565h69.888l146.98.441V897.546h421.803l1.24 914.943L0 1809.426l2.227-798.89Z" fill="none" stroke-width="0"></path></clipPath><g data-name="Layer 1" clip-path="url(#a)"><g data-name="Слой_1"><path fill="none" stroke="#231f20" stroke-miterlimit="22.983" stroke-width=".511" d="m839.049 941.002 46.215 98.114M839.42 940.49v98.626m449.49-103.557V834.006M739.722 919.73V818.175M863.169 992.36v46.756M815.67 940.49v98.626m449.5-103.557V834.006m-501.7 85.724V818.175m430.453 117.384V834.006M834.708 919.73V818.175M791.921 940.49v98.626m449.499-103.557V834.006M787.21 919.73V818.175m382.963 117.384V834.006M858.457 919.73V818.175M768.172 940.49v98.626m449.5-103.557V834.006M810.959 919.73V818.175m335.465 117.384V834.006M882.206 919.73V818.175M744.423 940.49v98.626m378.252-103.557V834.006m-216.72 85.724V818.175M720.674 940.49v98.626m-23.749-98.626v98.626m0-48.51H839.42m-16.612 17.313 16.612-17.313-16.612-17.303m449.5-105.173 16.601 17.314-16.601 17.313"></path><g data-name="1933109968560"><path fill="#dcdddf" stroke-width="0" d="M1708.133 880.401h126.736v127.688h-126.736z"></path><g data-name="ифт2-2"><g fill="#1d1d1b" stroke-width="0" data-name="lift 2-2"><path d="M1771.16 902.336h-32.902c-5.584 0-10.125 4.541-10.125 10.125v63.568c0 5.584 4.541 10.126 10.125 10.126h32.902c5.584 0 10.125-4.542 10.125-10.126v-63.568c0-5.584-4.541-10.125-10.125-10.125Zm5.754 73.693c0 3.168-2.586 5.745-5.754 5.745h-32.902a5.75 5.75 0 0 1-5.744-5.745v-63.568a5.75 5.75 0 0 1 5.744-5.744h32.902a5.75 5.75 0 0 1 5.744 5.744v63.568h.01Zm32.973-12.27-5.524 5.524v-17.885c0-1.614-1.304-2.927-2.918-2.927s-2.917 1.313-2.917 2.927v17.885l-5.524-5.524a2.928 2.928 0 0 0-4.14 0 2.935 2.935 0 0 0 0 4.13l9.353 9.343a4.482 4.482 0 0 0 2.687 1.284c.17.03.35.06.541.06.181 0 .361-.03.532-.06a4.504 4.504 0 0 0 2.706-1.284l9.344-9.343a2.935 2.935 0 0 0 0-4.13 2.928 2.928 0 0 0-4.14 0Zm-16.883-38.977 5.534-5.544v19.027c0 1.614 1.303 2.928 2.917 2.928s2.928-1.314 2.928-2.928v-18.997l5.504 5.514a2.957 2.957 0 0 0 2.065.852c.742 0 1.493-.29 2.065-.852a2.928 2.928 0 0 0 0-4.14l-9.343-9.344a4.608 4.608 0 0 0-2.436-1.253 2.92 2.92 0 0 0-.792-.12c-.271 0-.522.05-.772.12a4.47 4.47 0 0 0-2.466 1.263l-9.344 9.343a2.916 2.916 0 0 0 0 4.13 2.916 2.916 0 0 0 4.13 0h.01Z"></path><path d="M1754.689 922.737c3.429 0 6.215-2.787 6.215-6.226s-2.787-6.225-6.215-6.225a6.225 6.225 0 1 0 0 12.45Zm.01 28.4c-2.336 0-5.945-.48-7.619-.731l-1.814 24.25a3.301 3.301 0 0 0 3.047 3.539l.05.01a3.306 3.306 0 0 0 3.54-3.038l1.493-17.944c.04-.612.33-1.454 1.343-1.474 1.053-.02 1.343.872 1.384 1.454l1.483 17.954a3.294 3.294 0 0 0 3.54 3.038h.03a3.313 3.313 0 0 0 3.047-3.559l-1.845-24.25c-1.744.25-5.493.751-7.679.751Z"></path><path d="m1768.283 940.822-.902-9.053c-.15-1.814-.993-3.82-3.55-5.113-1.964-.982-8.73-.832-8.73-.832s-7.47-.17-9.585.832c-2.546 1.213-3.328 3.299-3.468 5.113l-.903 9.053-.892 11.589a3.285 3.285 0 0 0 3.028 3.538l.04.01c.621.04 1.213-.08 1.724-.34l1.273-17.915a.828.828 0 0 1 .882-.762c.461.03.802.421.772.882l-.772 10.917c1.564.231 5.233.732 7.499.732 2.135 0 5.995-.521 7.619-.762l-.702-10.897a.83.83 0 0 1 .772-.882c.461-.03.862.31.892.772l1.163 17.925c.502.24 1.063.35 1.655.31h.04a3.303 3.303 0 0 0 3.037-3.549l-.902-11.578.01.01Z"></path></g></g></g><g data-name="1933109972544"><path fill="#dcdddf" stroke-width="0" d="M1262.112 975.348h181.643v114.415h-181.643z"></path><g data-name="ифт"><g data-name="lift 3" fill="#1d1d1b" stroke-width="0"><path d="M1365.78 990.646h-59.277c-5.584 0-10.125 4.541-10.125 10.125v63.558c0 5.594 4.541 10.135 10.125 10.135h59.278c5.593 0 10.135-4.54 10.135-10.135v-63.558c0-5.584-4.542-10.125-10.135-10.125Zm5.755 73.683a5.754 5.754 0 0 1-5.754 5.755h-59.278a5.75 5.75 0 0 1-5.744-5.745v-63.568a5.75 5.75 0 0 1 5.744-5.744h59.278a5.752 5.752 0 0 1 5.754 5.744v63.558Zm32.982-12.26-5.524 5.524v-17.895c0-1.614-1.313-2.917-2.927-2.917s-2.917 1.303-2.917 2.917v17.895l-5.524-5.524a2.916 2.916 0 0 0-4.13 0 2.916 2.916 0 0 0 0 4.13l9.343 9.343c.752.752 1.704 1.163 2.687 1.283.18.03.36.05.541.05a3 3 0 0 0 .531-.05 4.534 4.534 0 0 0 2.707-1.283l9.343-9.343c1.143-1.143 1.143-2.987 0-4.13s-2.987-1.143-4.13 0Zm-16.892-38.987 5.534-5.534v19.027c0 1.614 1.313 2.917 2.927 2.917s2.917-1.303 2.917-2.917v-19.007l5.514 5.514a2.908 2.908 0 0 0 2.065.862c.742 0 1.494-.291 2.065-.862a2.935 2.935 0 0 0 0-4.13l-9.353-9.344a4.476 4.476 0 0 0-2.426-1.253 2.91 2.91 0 0 0-.792-.13c-.27 0-.531.05-.772.12a4.632 4.632 0 0 0-2.476 1.263l-9.343 9.343a2.947 2.947 0 0 0 0 4.14 2.935 2.935 0 0 0 4.13 0l.01-.01Z"></path><path d="M1349.31 1011.047a6.225 6.225 0 1 0 0-12.451 6.225 6.225 0 1 0 0 12.45Zm.02 28.4c-2.346 0-5.955-.49-7.62-.731l-1.824 24.25c-.14 1.814 1.233 3.398 3.058 3.539h.04a3.287 3.287 0 0 0 3.539-3.038l1.494-17.945c.05-.601.34-1.443 1.343-1.463 1.052-.02 1.353.872 1.383 1.453l1.484 17.945a3.307 3.307 0 0 0 3.539 3.048l.04-.01c1.814-.13 3.178-1.735 3.038-3.55l-1.835-24.25c-1.754.251-5.504.752-7.69.752h.01Z"></path><path d="m1362.903 1029.122-.902-9.043c-.14-1.825-.982-3.83-3.549-5.113-1.955-.992-8.731-.842-8.731-.842s-7.469-.17-9.584.842c-2.547 1.213-3.329 3.289-3.469 5.113l-.902 9.043-.892 11.588a3.302 3.302 0 0 0 3.037 3.55h.03c.622.05 1.213-.08 1.724-.341l1.274-17.905a.833.833 0 0 1 .892-.772c.451.03.792.431.772.892l-.782 10.907c1.574.231 5.243.742 7.509.742 2.125 0 5.994-.531 7.619-.772l-.712-10.897a.837.837 0 0 1 .782-.882c.45-.03.862.32.882.782l1.163 17.925c.501.23 1.073.35 1.664.3h.03a3.3 3.3 0 0 0 3.038-3.538l-.903-11.59.01.01Zm-55.578 20.18h20.36v15.98h-20.36zm0-18.596h20.36v15.98h-20.36zm0-10.868h20.36v7.99h-20.36z"></path></g></g></g><path d="M27.287 6.585h2239.337v1799H7.869v-1799h19.419Zm2200.49 38.837H46.706v1721.316h2181.071V45.422Z" fill="#58595b" stroke-width="0"></path><path fill="#58595b" stroke-width="0" d="M1673.768 1123.968V989.072h23.618v27.368h150.315V867.65h-150.315v31.558h-23.618v-75.97h23.618v20.793h150.315V711.78h-150.315v21.233h-23.618v-44.851h197.542v435.805h-23.61v-83.91h-150.314v83.91h-23.618zm-550.722-188.409h116.4v23.618h-116.4V935.56z"></path><path fill="#58595b" stroke-width="0" d="M1477.378 1079.126v44.862h-251.055v-188.43h227.437v-9.182h23.618v58.646h-23.618v-25.845h-203.818v141.192h203.818v-21.243h23.618zM1003.8 813.324h352.076v23.619h-328.458v103.548H575.462v-23.609H1003.8V813.324zm-428.338 225.792h558.18v23.62h-558.18v-23.62z"></path><path fill="#58595b" stroke-width="0" d="M1123.046 1062.735V935.56h23.619v127.176h-23.619zm-547.584 61.233V929.955h23.62v194.013h-23.62zm.432 241.331v-122.976h23.618v122.976h-23.618zm0 440.286v-193.913h23.618v193.913h-23.618zm547.152-440.286v-122.976h23.619v122.976h-23.619zm0 440.286v-193.913h23.619v193.913h-23.619zm559.012-439.113v-122.977h23.619v122.977h-23.619zm0 439.113v-193.913h23.619v193.913h-23.619zm-54.115-699.331h67.599v17.714h-67.599v-17.714z"></path><path fill="#58595b" stroke-width="0" d="M1499.353 1324.918h188.61v17.714h-188.61v-17.714zm-509.378-63.388h141.352v17.714H989.975v-17.714z"></path><path fill="#58595b" stroke-width="0" d="M1517.057 1329.199v-82.195h-17.704v82.195h17.704zm-509.368-63.388v-23.488h-17.714v23.488h17.714zm462.702-159.557h50.396v17.714h-50.396v-17.714zm-1194.495-99.949h202.525v-34.556H275.896v34.556z"></path><path fill="#58595b" stroke-width="0" d="M478.42 1006.305v-72.671h-34.565v72.67h34.566zm-179.125 39.438v-73.994h-34.566v73.994h34.566z"></path><path fill="#58595b" stroke-width="0" d="M7.869 1045.743h291.426v-34.566H7.869v34.566zm1689.517 69.914h161.623v8.31h-161.623v-8.31zm58.014 174.896v-48.23h8.311v48.23h-8.31z"></path><path fill="#58595b" stroke-width="0" d="M1701.627 1282.242h62.084v8.31h-62.084v-8.31zm-1179.989 7.628v-43.116h-8.31v43.117h8.31zm91.899 156.611v-36.702h8.311v36.702h-8.31z"></path><path fill="#58595b" stroke-width="0" d="M579.643 1409.78h42.205v8.31h-42.205v-8.31zm418.642-131.478v66.816h-8.31v-66.816h8.31zm-421.048 3.258H518.09v8.31h59.147v-8.31zm2.125 156.61h42.486v8.311h-42.486v-8.31zm599.232-147.347v-44.721h8.301v44.721h-8.3z"></path><path fill="#58595b" stroke-width="0" d="M1005.543 1242.323h181.352v8.31h-181.352v-8.31zm141.122 40.19h36.691v8.31h-36.691v-8.31zm-155.838 54.295h139.788v8.31H990.827v-8.31zm508.526-94.485h263.005v8.31h-263.005v-8.31zm-1074.656 0h174.815v8.31H424.697v-8.31zm0 228.629h159.507v8.31H424.697v-8.31z"></path><path fill="#58595b" stroke-width="0" d="M584.204 1361.98v110.175h-8.31V1361.98h8.31z"></path><g data-name="1895025501424" fill="#58595b" stroke-width="0"><path d="M1388.437 921.594h73.633v-2.948h-73.633v2.948z"></path><path d="M1389.43 920.962v-5.203c0-20.611 6.415-37.353 17.964-48.932s28.25-18.014 48.792-18.014h5.884v-.993h-5.884c-20.822 0-37.754 6.536-49.493 18.306-11.73 11.769-18.256 28.751-18.256 49.633v5.203h.993Zm64.33 1.223v4.19h8.31v-4.781h-8.31v.591Zm1.183 3.018v-2.426h5.945v2.426h-5.945Z"></path></g><path d="M591.743 912.471h25.965v-2.727h-25.965v2.727zm7.669 3.859v-3.859h-7.659v4.401h7.66v-.541Zm-1.093-2.776v2.235h-5.473v-2.235h5.473Zm-.691-23.89a20.025 20.025 0 0 1 14.195 5.885 19.984 19.984 0 0 1 5.885 14.195h-.762c0-5.333-2.166-10.155-5.664-13.654a19.218 19.218 0 0 0-13.654-5.654v-.772Z" fill="#58595b" stroke-width="0" data-name="1895025436528"></path><path d="M818.959 1454.32v3.5h-12.802c-.03-1.424.31-3.028 1.023-4.783.711-1.764 2.025-3.85 3.92-6.245 2.225-2.797 3.678-4.963 4.36-6.496.692-1.534 1.033-2.958 1.033-4.271 0-1.524-.351-2.767-1.053-3.73-.702-.952-1.574-1.433-2.596-1.433-1.113 0-2.015.511-2.727 1.554-.702 1.033-1.063 2.516-1.063 4.441l-2.436-.37c.17-2.858.812-5.013 1.925-6.457s2.566-2.165 4.38-2.165c1.976 0 3.47.842 4.492 2.516 1.012 1.694 1.514 3.599 1.514 5.744 0 1.895-.391 3.72-1.193 5.454-.792 1.754-2.306 4.08-4.532 6.987-1.413 1.835-2.335 3.088-2.746 3.75a12.55 12.55 0 0 0-1.013 2.004h9.514Z" stroke-width="0"></path><path data-name="1" d="m821.465 1449.9 2.366-.502c.491 3.95 1.744 5.915 3.74 5.915 1.082 0 2.014-.581 2.816-1.734.782-1.163 1.183-2.667 1.183-4.522 0-1.734-.36-3.137-1.093-4.19-.721-1.063-1.614-1.594-2.676-1.594-.451 0-1.003.14-1.664.411l.26-3.198.371.04c1.173 0 2.126-.45 2.847-1.363.732-.912 1.093-2.125 1.093-3.66 0-1.393-.3-2.516-.912-3.358-.612-.862-1.353-1.283-2.236-1.283-.912 0-1.674.441-2.305 1.343-.622.893-1.023 2.256-1.193 4.07l-2.366-.661c.3-2.556.972-4.491 2.025-5.795 1.042-1.303 2.316-1.954 3.8-1.954 1.563 0 2.896.731 3.99 2.195 1.092 1.464 1.633 3.298 1.633 5.534 0 1.353-.23 2.556-.691 3.599-.472 1.032-1.113 1.854-1.945 2.456.762.27 1.403.722 1.904 1.333.502.632.913 1.464 1.223 2.506s.472 2.216.472 3.5c0 2.736-.642 4.971-1.915 6.716-1.273 1.744-2.807 2.616-4.582 2.616-1.644 0-3.037-.772-4.19-2.285-1.143-1.524-1.794-3.57-1.955-6.136Z" fill="#000" stroke-width="0"></path><path data-name="2" d="M845.395 1457.82h-2.376v-23.329c-.542.812-1.273 1.644-2.196 2.486-.922.852-1.764 1.484-2.546 1.925v-3.499a15.788 15.788 0 0 0 3.469-3.508c.992-1.374 1.704-2.717 2.105-4.03h1.544v29.954Z" fill="#000" stroke-width="0"></path><path data-name="3" d="M852.833 1457.82v-4.171h2.697v4.17c0 1.624-.19 2.887-.572 3.8-.37.922-.922 1.624-1.634 2.115l-.661-1.574c.481-.32.842-.812 1.082-1.454.251-.651.381-1.614.402-2.887h-1.314Z" fill="#000" stroke-width="0"></path><path data-name="4" d="m859.35 1450.902 2.265-.29c.36 3.137 1.434 4.7 3.218 4.7.792 0 1.514-.34 2.155-1.022.652-.691 1.203-1.915 1.645-3.669.45-1.744.681-3.8.681-6.135v-.732c-.49 1.213-1.163 2.165-1.995 2.877s-1.684 1.063-2.556 1.063c-1.574 0-2.927-.872-4.07-2.607-1.143-1.744-1.714-4.14-1.714-7.157 0-3.118.601-5.574 1.784-7.369 1.173-1.804 2.617-2.696 4.31-2.696 1.194 0 2.317.5 3.36 1.503 1.032 1.003 1.834 2.476 2.405 4.441.562 1.945.852 4.762.852 8.431 0 4.1-.31 7.279-.922 9.544-.602 2.266-1.434 3.92-2.476 4.963-1.043 1.052-2.216 1.573-3.509 1.573-1.464 0-2.687-.631-3.67-1.904-.992-1.274-1.573-3.108-1.763-5.514Zm9.704-13.183c0-2.125-.371-3.8-1.123-5.022s-1.614-1.835-2.587-1.835c-1.022 0-1.924.652-2.726 1.955s-1.203 3.037-1.203 5.213c0 1.955.38 3.508 1.142 4.671s1.675 1.745 2.737 1.745c1.053 0 1.935-.582 2.667-1.755.732-1.163 1.093-2.827 1.093-4.972Z" fill="#000" stroke-width="0"></path><path data-name="5" d="M873.996 1443.093c0-4.993.531-8.782 1.594-11.359s2.626-3.87 4.702-3.87c1.844 0 3.288 1.043 4.35 3.128 1.284 2.527 1.925 6.567 1.925 12.1 0 4.983-.531 8.762-1.594 11.349-1.052 2.586-2.626 3.88-4.712 3.88-1.834 0-3.338-1.143-4.51-3.42s-1.755-6.215-1.755-11.809Zm2.436 0c0 4.842.36 8.1 1.093 9.744.731 1.654 1.664 2.476 2.807 2.476 1.082 0 1.985-.832 2.706-2.506.732-1.675 1.093-4.903 1.093-9.714 0-4.873-.37-8.12-1.103-9.765s-1.674-2.466-2.837-2.466c-1.072 0-1.965.832-2.686 2.506-.712 1.675-1.073 4.913-1.073 9.725Z" fill="#000" stroke-width="0"></path><path d="m436.055 1411.895-2.366.29c-.23-1.533-.561-2.626-.992-3.288-.632-.942-1.394-1.423-2.276-1.423-1.383 0-2.486 1.082-3.328 3.258-.712 1.875-1.073 4.652-1.083 8.31.542-1.313 1.233-2.295 2.055-2.967.832-.671 1.705-1.012 2.627-1.012 1.534 0 2.867.882 4.01 2.636s1.714 4.11 1.714 7.058c0 1.985-.28 3.8-.862 5.423-.571 1.625-1.303 2.818-2.205 3.59-.903.771-1.895 1.162-2.978 1.162-1.955 0-3.559-1.112-4.822-3.338-1.273-2.225-1.905-5.935-1.905-11.128 0-5.764.652-9.874 1.945-12.31 1.294-2.456 2.958-3.68 4.973-3.68 1.463 0 2.696.632 3.689 1.905.992 1.263 1.594 3.108 1.804 5.514Zm-9.674 12.872c0 2.155.401 3.89 1.203 5.203.802 1.313 1.735 1.965 2.797 1.965.933 0 1.765-.622 2.496-1.855.742-1.233 1.103-2.927 1.103-5.093 0-2.115-.36-3.759-1.093-4.932-.721-1.163-1.614-1.744-2.666-1.744-1.023 0-1.925.581-2.687 1.744-.772 1.153-1.153 2.727-1.153 4.712Z" stroke-width="0"></path><path data-name="1 5" d="M440.135 1434.431v-4.17h2.697v4.18c0 1.614-.18 2.877-.561 3.8-.371.912-.923 1.624-1.644 2.105l-.652-1.564c.471-.331.832-.812 1.083-1.464.24-.641.37-1.604.4-2.887h-1.323Z" fill="#000" stroke-width="0"></path><path data-name="2 6" d="M446.461 1408.476v-3.498h12.471v2.847c-1.864 3.067-3.498 7.057-4.902 11.98-1.413 4.922-2.225 9.794-2.436 14.626h-2.436c.03-2.496.34-5.414.932-8.742s1.404-6.496 2.436-9.514c1.033-3.007 2.146-5.583 3.339-7.699h-9.404Z" fill="#000" stroke-width="0"></path><path data-name="3 7" d="M461.298 1419.714c0-5.002.531-8.792 1.594-11.368 1.073-2.576 2.637-3.87 4.712-3.87 1.834 0 3.288 1.043 4.34 3.138 1.284 2.526 1.925 6.557 1.925 12.1 0 4.973-.52 8.762-1.583 11.339-1.063 2.586-2.637 3.88-4.712 3.88-1.845 0-3.349-1.144-4.521-3.42-1.163-2.275-1.755-6.215-1.755-11.799Zm2.436-.01c0 4.842.371 8.1 1.103 9.744.722 1.655 1.664 2.487 2.807 2.487 1.073 0 1.975-.832 2.707-2.507.721-1.674 1.082-4.912 1.082-9.724 0-4.862-.36-8.12-1.092-9.764s-1.675-2.466-2.847-2.466c-1.063 0-1.965.842-2.677 2.516-.722 1.664-1.083 4.902-1.083 9.714Z" fill="#000" stroke-width="0"></path><g data-name="1895025450304" fill="#58595b" stroke-width="0"><path d="M1623.151 1050.324v73.644h-2.947v-73.644h2.947z"></path><path d="M1622.53 1051.317h-5.213c-20.611 0-37.343 6.426-48.922 17.975-11.589 11.548-18.025 28.24-18.025 48.791v5.885h-.992v-5.885c0-20.822 6.546-37.764 18.315-49.493 11.76-11.74 28.742-18.265 49.624-18.265h5.213v.992Zm-96.951 72.661v-28.19h2.947v28.19h-2.947zm98.164-8.321h4.2v8.31h-4.792v-8.31h.592Zm3.017 1.173h-2.426v5.955h2.426v-5.955Zm-105.382-1.173h4.2v8.31h-4.792v-8.31h.592Zm3.018 1.173h-2.427v5.955h2.427v-5.955Z"></path><path d="M1550.33 1117.592a21.744 21.744 0 0 0-6.386-15.419c-3.95-3.94-9.393-6.385-15.418-6.385v.832a20.87 20.87 0 0 1 14.827 6.145 20.87 20.87 0 0 1 6.145 14.827h.832Z"></path></g><path d="M2055.769 1708.594v7.408h-20.842c.22-2.807.902-5.473 2.045-8 1.143-2.536 3.368-5.854 6.667-9.975 2.606-3.278 4.21-5.493 4.812-6.646.892-1.694 1.333-3.379 1.333-5.093 0-1.814-.36-3.188-1.093-4.12-.742-.922-1.714-1.393-2.917-1.393-2.616 0-4.03 2.175-4.24 6.536l-5.925-.872c.37-4.24 1.433-7.359 3.218-9.334 1.774-1.985 4.15-2.977 7.107-2.977 3.258 0 5.704 1.163 7.359 3.499 1.644 2.335 2.476 5.002 2.476 8.03 0 1.714-.21 3.358-.642 4.962-.41 1.604-1.063 3.218-1.935 4.842-.882 1.624-2.336 3.7-4.38 6.215-1.905 2.366-3.118 3.94-3.62 4.702a13.768 13.768 0 0 0-1.233 2.216h11.81Z" stroke-width="0"></path><path data-name="1 13" d="M2071.428 1716.002v-8.4h-12.702v-7.028l13.444-26.446h5.022v26.416h3.86v7.057h-3.86v8.401h-5.764Zm0-15.458v-14.226l-7.128 14.226h7.128Z" fill="#000" stroke-width="0"></path><path data-name="2 14" d="M2104.009 1708.594v7.408h-20.842c.22-2.807.902-5.473 2.045-8 1.143-2.536 3.369-5.854 6.667-9.975 2.606-3.278 4.21-5.493 4.812-6.646.892-1.694 1.343-3.379 1.343-5.093 0-1.814-.371-3.188-1.103-4.12-.742-.922-1.714-1.393-2.917-1.393-2.617 0-4.03 2.175-4.24 6.536l-5.925-.872c.37-4.24 1.433-7.359 3.208-9.334 1.784-1.985 4.16-2.977 7.118-2.977 3.258 0 5.704 1.163 7.358 3.499 1.644 2.335 2.476 5.002 2.476 8.03 0 1.714-.21 3.358-.631 4.962s-1.073 3.218-1.945 4.842c-.882 1.624-2.336 3.7-4.381 6.215-1.905 2.366-3.118 3.94-3.63 4.702a14.5 14.5 0 0 0-1.222 2.216h11.81-.001Z" fill="#000" stroke-width="0"></path><path data-name="3 15" d="M2120.089 1682.238v-7.408h20.31v5.814c-1.664 2.216-3.348 5.373-5.062 9.464-1.704 4.08-3.018 8.47-3.96 13.152-.932 4.672-1.403 8.923-1.403 12.742h-5.704a71.773 71.773 0 0 1 2.676-17.744c1.644-5.915 3.86-11.248 6.657-16.02h-13.514Z" fill="#000" stroke-width="0"></path><path data-name="4 16" d="M2109.082 1708.012h5.924v5.724c0 3.248-.34 5.654-1.032 7.248-.833 1.945-2.236 3.399-4.2 4.351l-1.164-3.308c1.163-.531 1.995-1.253 2.507-2.155s.792-2.196.822-3.87h-2.857v-7.99Z" fill="#000" stroke-width="0"></path><path data-name="5 17" d="M2154.274 1674.128c3.008 0 5.444 1.574 7.298 4.732 1.865 3.157 2.787 8.681 2.787 16.56s-.922 13.394-2.787 16.552c-1.854 3.158-4.28 4.732-7.268 4.732-3.017 0-5.453-1.564-7.308-4.692-1.865-3.138-2.787-8.682-2.787-16.661 0-7.84.922-13.334 2.787-16.491 1.855-3.158 4.28-4.732 7.278-4.732Zm.01 6.646c-1.163 0-2.095.853-2.797 2.557-.691 1.704-1.042 5.734-1.042 12.09 0 6.376.35 10.396 1.042 12.1.702 1.684 1.634 2.536 2.797 2.536 1.183 0 2.116-.862 2.807-2.556.682-1.704 1.033-5.724 1.033-12.08s-.351-10.386-1.033-12.09c-.691-1.704-1.624-2.557-2.807-2.557Z" fill="#000" stroke-width="0"></path><path d="M402.291 852.752v5.454c0 21.604 6.727 39.147 18.827 51.278 12.11 12.14 29.604 18.887 51.137 18.887h6.166v1.042h-6.166c-21.824 0-39.568-6.857-51.869-19.187s-19.137-30.136-19.137-52.02v-5.454h1.042Zm68.802 80.36v-3.699h7.328v4.22h-7.328v-.52Zm1.042-2.656v2.135h5.243v-2.135h-5.243Z" data-name="1895025458608" fill="#58595b" stroke-width="0"></path><g data-name="1933157527008" fill="#58595b" stroke-width="0"><path d="M483.794 956.2h6.186c24.48 0 44.36 7.629 58.114 21.343s21.404 33.544 21.404 57.954v6.988h1.183v-6.988c0-24.731-7.77-44.851-21.755-58.796-13.974-13.935-34.145-21.684-58.946-21.684h-6.186v1.183Z"></path><path d="M486.04 1042.485v-86.876h-2.948v86.876h2.948z"></path><path d="M482.571 1034.174h-4.19v8.31h4.782v-8.31h-.592Zm-3.007 1.183h2.416v5.945h-2.416v-5.945Zm95.307-1.183h-4.19v8.31h4.782v-8.31h-.592Zm-3.018 1.183h2.427v5.945h-2.427v-5.945Z"></path></g><path fill="#58595b" stroke-width="0" d="M478.42 1049.151V933.634h-34.565v115.517h34.566z"></path><g data-name="1933169035680" fill="#231f20" stroke-width="0"><path d="M270.503 1768.152H68.63v36.02h201.873v-36.02Zm1.414-1.414v38.847h-204.7v-38.847h204.7Z"></path><path d="M68.61 1787.57h201.903v3.79H68.61v-3.79Zm-1.413-1.413v6.616h204.72v-6.616H67.197Z"></path><path d="M68.61 1787.57h3.8v3.79h-3.8v-3.79Zm-1.413-1.413v6.616h6.626v-6.616h-6.626Zm199.487 1.413h3.799v3.79h-3.8v-3.79Zm-1.414-1.413v6.616h6.627v-6.616h-6.627Zm-163.597 1.413h3.8v3.79h-3.8v-3.79Zm-1.404-1.413v6.616h6.617v-6.616h-6.617Z"></path></g><g data-name="1933169048160" fill="#231f20" stroke-width="0"><path d="M549.598 1768.152H347.725v36.02h201.873v-36.02Zm1.414-1.414v38.847h-204.7v-38.847h204.7Z"></path><path d="M347.705 1787.57h201.893v3.79H347.705v-3.79Zm-1.413-1.413v6.616h204.72v-6.616h-204.72Z"></path><path d="M347.705 1787.57h3.8v3.79h-3.8v-3.79Zm-1.413-1.413v6.616h6.626v-6.616h-6.626Zm199.487 1.413h3.799v3.79h-3.8v-3.79Zm-1.414-1.413v6.616h6.627v-6.616h-6.627Zm-163.597 1.413h3.8v3.79h-3.8v-3.79Zm-1.414-1.413v6.616h6.627v-6.616h-6.627Z"></path></g><g data-name="1933128258848" fill="#231f20" stroke-width="0"><path d="M825.154 1768.152H623.272v36.02h201.882v-36.02Zm1.404-1.414v38.847h-204.7v-38.847h204.7Z"></path><path d="M623.251 1787.57h201.903v3.79H623.251v-3.79Zm-1.403-1.413v6.616h204.72v-6.616h-204.72Z"></path><path d="M623.251 1787.57h3.81v3.79h-3.81v-3.79Zm-1.403-1.413v6.616h6.626v-6.616h-6.626Zm199.477 1.413h3.81v3.79h-3.81v-3.79Zm-1.404-1.413v6.616h6.627v-6.616h-6.627Zm-163.597 1.413h3.8v3.79h-3.8v-3.79Zm-1.414-1.413v6.616h6.627v-6.616h-6.627Z"></path></g><g data-name="1933128218960" fill="#231f20" stroke-width="0"><path d="M1099.518 1768.152H897.645v36.02h201.873v-36.02Zm1.413-1.414v38.847h-204.7v-38.847h204.7Z"></path><path d="M897.625 1787.57h201.902v3.79H897.625v-3.79Zm-1.414-1.413v6.616h204.72v-6.616h-204.72Z"></path><path d="M897.625 1787.57h3.8v3.79h-3.8v-3.79Zm-1.414-1.413v6.616h6.627v-6.616h-6.627Zm199.487 1.413h3.8v3.79h-3.8v-3.79Zm-1.404-1.413v6.616h6.617v-6.616h-6.617Zm-163.607 1.413h3.8v3.79h-3.8v-3.79Zm-1.403-1.413v6.616h6.616v-6.616h-6.616Z"></path></g><g data-name="1933128220880" fill="#231f20" stroke-width="0"><path d="M1376.257 1768.152h-201.883v36.02h201.883v-36.02Zm1.403-1.414v38.847h-204.7v-38.847h204.7Z"></path><path d="M1174.354 1787.57h201.903v3.79h-201.903v-3.79Zm-1.404-1.413v6.616h204.71v-6.616h-204.71Z"></path><path d="M1174.354 1787.57h3.81v3.79h-3.81v-3.79Zm-1.404-1.413v6.616h6.627v-6.616h-6.627Zm199.477 1.413h3.81v3.79h-3.81v-3.79Zm-1.403-1.413v6.616h6.626v-6.616h-6.626Zm-163.598 1.413h3.8v3.79h-3.8v-3.79Zm-1.413-1.413v6.616h6.626v-6.616h-6.626Z"></path></g><g data-name="1933128228128" fill="#231f20" stroke-width="0"><path d="M1651.803 1768.152H1449.93v36.02h201.873v-36.02Zm1.413-1.414v38.847h-204.7v-38.847h204.7Z"></path><path d="M1449.91 1787.57h201.893v3.79H1449.91v-3.79Zm-1.414-1.413v6.616h204.72v-6.616h-204.72Z"></path><path d="M1449.91 1787.57h3.8v3.79h-3.8v-3.79Zm-1.414-1.413v6.616h6.627v-6.616h-6.627Zm199.487 1.413h3.8v3.79h-3.8v-3.79Zm-1.413-1.413v6.616h6.626v-6.616h-6.626Zm-163.598 1.413h3.8v3.79h-3.8v-3.79Zm-1.413-1.413v6.616h6.626v-6.616h-6.626Z"></path></g><g data-name="1933128232448" fill="#231f20" stroke-width="0"><path d="M1927.359 1768.152h-201.883v36.02h201.883v-36.02Zm1.404-1.414v38.847h-204.7v-38.847h204.7Z"></path><path d="M1725.456 1787.57h201.903v3.79h-201.903v-3.79Zm-1.403-1.413v6.616h204.71v-6.616h-204.71Z"></path><path d="M1725.456 1787.57h3.8v3.79h-3.8v-3.79Zm-1.403-1.413v6.616h6.616v-6.616h-6.616Zm199.477 1.413h3.81v3.79h-3.81v-3.79Zm-1.404-1.413v6.616h6.626v-6.616h-6.626Zm-163.607 1.413h3.81v3.79h-3.81v-3.79Zm-1.404-1.413v6.616h6.627v-6.616h-6.627Z"></path></g><g data-name="1933128235568" fill="#231f20" stroke-width="0"><path d="M2201.722 1768.152H1999.85v36.02h201.873v-36.02Zm1.414-1.414v38.847h-204.7v-38.847h204.7Z"></path><path d="M1999.83 1787.57h201.892v3.79H1999.83v-3.79Zm-1.414-1.413v6.616h204.72v-6.616h-204.72Z"></path><path d="M1999.83 1787.57h3.799v3.79h-3.8v-3.79Zm-1.414-1.413v6.616h6.626v-6.616h-6.626Zm199.487 1.413h3.8v3.79h-3.8v-3.79Zm-1.414-1.413v6.616h6.627v-6.616h-6.627Zm-163.597 1.413h3.8v3.79h-3.8v-3.79Zm-1.404-1.413v6.616h6.617v-6.616h-6.617Z"></path></g><g data-name="1933128242048" stroke-width="0"><path fill="#e3e4e5" d="M8.57 1309.34h37.434v173.411H8.571z"></path><path d="M45.302 1481.689v-172.35H9.282v172.35h36.02Zm1.414 1.413H7.869v-175.176h38.847v175.176Z" fill="#231f20"></path><path fill="#e3e4e5" d="M21.383 1308.608h5.203v173.06h-5.203z"></path><path d="M25.874 1309.32v172.369h-3.78v-172.37h3.78Zm1.413-1.414h-6.606v175.196h6.606v-175.196Z" fill="#231f20"></path><path fill="#e3e4e5" d="M21.383 1308.618h5.203v5.213h-5.203z"></path><path d="M25.874 1309.32v3.799h-3.78v-3.8h3.78Zm1.413-1.414h-6.606v6.626h6.606v-6.626Z" fill="#231f20"></path><path fill="#e3e4e5" d="M21.383 1477.167h5.203v5.213h-5.203z"></path><path d="M25.874 1477.87v3.799h-3.78v-3.8h3.78Zm1.413-1.414h-6.606v6.626h6.606v-6.626Z" fill="#231f20"></path><path fill="#e3e4e5" d="M21.383 1341.68h5.203v5.213h-5.203z"></path><path d="M25.874 1342.382v3.8h-3.78v-3.8h3.78Zm1.413-1.414h-6.606v6.627h6.606v-6.627Z" fill="#231f20"></path></g><g data-name="1933128246512" stroke-width="0"><path fill="#e3e4e5" d="M8.57 819.63h37.434v173.412H8.571z"></path><path d="M45.302 991.99V819.63H9.282v172.36h36.02Zm1.414 1.413H7.869V818.216h38.847v175.187Z" fill="#231f20"></path><path fill="#e3e4e5" d="M21.383 818.908h5.203V991.97h-5.203z"></path><path d="M25.874 819.61v172.38h-3.78V819.61h3.78Zm1.413-1.404h-6.606v175.197h6.606V818.206Z" fill="#231f20"></path><path fill="#e3e4e5" d="M21.383 987.458h5.203v5.213h-5.203z"></path><path d="M25.874 988.17v3.8h-3.78v-3.8h3.78Zm1.413-1.414h-6.606v6.627h6.606v-6.627Z" fill="#231f20"></path></g><g data-name="1933128248384" stroke-width="0"><path fill="#e3e4e5" d="M8.57 1560.094h37.434v173.412H8.571z"></path><path d="M45.302 1732.443v-172.35H9.282v172.35h36.02Zm1.414 1.414H7.869V1558.68h38.847v175.177Z" fill="#231f20"></path><path fill="#e3e4e5" d="M21.383 1559.362h5.203v173.061h-5.203z"></path><path d="M25.874 1560.074v172.379h-3.78v-172.38h3.78Zm1.413-1.414h-6.606v175.197h6.606V1558.66Z" fill="#231f20"></path><path fill="#e3e4e5" d="M21.383 1559.372h5.203v5.213h-5.203z"></path><path d="M25.874 1560.074v3.8h-3.78v-3.8h3.78Zm1.413-1.414h-6.606v6.627h6.606v-6.627Z" fill="#231f20"></path><path fill="#e3e4e5" d="M21.383 1727.922h5.203v5.213h-5.203z"></path><path d="M25.874 1728.624v3.799h-3.78v-3.8h3.78Zm1.413-1.414h-6.606v6.626h6.606v-6.626Z" fill="#231f20"></path><path fill="#e3e4e5" d="M21.383 1592.434h5.203v5.213h-5.203z"></path><path d="M25.874 1593.136v3.8h-3.78v-3.8h3.78Zm1.413-1.413h-6.606v6.626h6.606v-6.626Z" fill="#231f20"></path></g><g data-name="1933128255008" stroke-width="0"><path fill="#e3e4e5" d="M8.57 1068.029h37.434v173.411H8.571z"></path><path d="M45.302 1240.388v-172.36H9.282v172.36h36.02Zm1.414 1.403H7.869v-175.176h38.847v175.176Z" fill="#231f20"></path><path fill="#e3e4e5" d="M21.383 1067.307h5.203v173.06h-5.203z"></path><path d="M25.874 1068.008v172.38h-3.78v-172.38h3.78Zm1.413-1.413h-6.606V1241.8h6.606v-175.206Z" fill="#231f20"></path><path fill="#e3e4e5" d="M21.383 1067.307h5.203v5.213h-5.203z"></path><path d="M25.874 1068.008v3.8h-3.78v-3.8h3.78Zm1.413-1.413h-6.606v6.626h6.606v-6.626Z" fill="#231f20"></path><path fill="#e3e4e5" d="M21.383 1235.856h5.203v5.213h-5.203z"></path><path d="M25.874 1236.558v3.8h-3.78v-3.8h3.78Zm1.413-1.403h-6.606v6.626h6.606v-6.626Z" fill="#231f20"></path><path fill="#e3e4e5" d="M21.383 1100.37h5.203v5.212h-5.203z"></path><path d="M25.874 1101.07v3.8h-3.78v-3.8h3.78Zm1.413-1.403h-6.606v6.617h6.606v-6.617Z" fill="#231f20"></path></g><g data-name="1933117898000" stroke-width="0"><path fill="#e3e4e5" d="M2228.489 942.215h37.433v215.497h-37.433z"></path><path d="M2229.2 942.847v214.865h36.02V942.847h-36.02Zm-1.413-1.414h38.847v217.692h-38.847V941.433Z" fill="#231f20"></path><path fill="#e3e4e5" d="M2247.917 941.453h5.203v216.98h-5.203z"></path><path d="M2248.629 1157.732V942.847h3.79v214.885h-3.79Zm-1.413 1.413h6.616V941.433h-6.616v217.712Z" fill="#231f20"></path><path fill="#e3e4e5" d="M2247.917 1153.23h5.203v5.214h-5.203z"></path><path d="M2248.629 1157.732v-3.8h3.79v3.8h-3.79Zm-1.413 1.413h6.616v-6.626h-6.616v6.626Z" fill="#231f20"></path><path fill="#e3e4e5" d="M2247.917 942.165h5.203v5.213h-5.203z"></path><path d="M2248.629 946.676v-3.81h3.79v3.81h-3.79Zm-1.413 1.404h6.616v-6.627h-6.616v6.627Z" fill="#231f20"></path><path fill="#e3e4e5" d="M2247.917 1120.158h5.203v5.213h-5.203z"></path><path d="M2248.629 1124.67v-3.8h3.79v3.8h-3.79Zm-1.413 1.413h6.616v-6.626h-6.616v6.626Z" fill="#231f20"></path><path fill="#e3e4e5" d="M2228.5 1229.62h37.432v215.497H2228.5z"></path><path d="M2229.21 1230.252v214.865h36.02v-214.865h-36.02Zm-1.413-1.413h38.847v217.692h-38.847v-217.692Z" fill="#231f20"></path><path fill="#e3e4e5" d="M2247.917 1228.859h5.203v216.98h-5.203z"></path><path d="M2248.629 1445.138v-214.886h3.79v214.886h-3.79Zm-1.413 1.413h6.616V1228.84h-6.616v217.712Z" fill="#231f20"></path><path fill="#e3e4e5" d="M2247.917 1440.626h5.203v5.213h-5.203z"></path><path d="M2248.629 1445.138v-3.8h3.79v3.8h-3.79Zm-1.413 1.413h6.616v-6.626h-6.616v6.626Z" fill="#231f20"></path><path fill="#e3e4e5" d="M2247.917 1229.56h5.203v5.214h-5.203z"></path><path d="M2248.629 1234.072v-3.8h3.79v3.8h-3.79Zm-1.413 1.414h6.616v-6.627h-6.616v6.627Z" fill="#231f20"></path><path fill="#e3e4e5" d="M2247.917 1407.564h5.203v5.213h-5.203z"></path><path d="M2248.629 1412.075v-3.8h3.79v3.8h-3.79Zm-1.413 1.414h6.616v-6.627h-6.616v6.627Z" fill="#231f20"></path><path fill="#e3e4e5" d="M2228.5 1517.027h37.432v215.496H2228.5z"></path><path d="M2229.21 1517.658v214.865h36.02v-214.865h-36.02Zm-1.413-1.413h38.847v217.692h-38.847v-217.692Z" fill="#231f20"></path><path fill="#e3e4e5" d="M2247.927 1516.265h5.203v216.98h-5.203z"></path><path d="M2248.64 1732.543v-214.885h3.778v214.885h-3.779Zm-1.414 1.414h6.606v-217.712h-6.606v217.712Z" fill="#231f20"></path><path fill="#e3e4e5" d="M2247.927 1728.032h5.203v5.213h-5.203z"></path><path d="M2248.64 1732.543v-3.8h3.778v3.8h-3.779Zm-1.414 1.414h6.606v-6.627h-6.606v6.627Z" fill="#231f20"></path><path fill="#e3e4e5" d="M2247.927 1516.966h5.203v5.213h-5.203z"></path><path d="M2248.64 1521.478v-3.8h3.778v3.8h-3.779Zm-1.414 1.413h6.606v-6.626h-6.606v6.626Z" fill="#231f20"></path><path fill="#e3e4e5" d="M2247.927 1694.97h5.203v5.213h-5.203z"></path><path d="M2248.64 1699.481v-3.81h3.778v3.81h-3.779Zm-1.414 1.404h6.606v-6.627h-6.606v6.627Z" fill="#231f20"></path></g><path fill="#58595b" stroke-width="0" d="M1789.025 1435.824h82.515v8.311h-82.515v-8.31z"></path><path fill="#58595b" stroke-width="0" d="M1797.335 1259.355v183.337h-8.31v-183.337h8.31zm74.205.682v85.553h-8.31v-85.553h8.31zm0 168.9v13.003h-8.31v-13.003h8.31z"></path><g data-name="1933181314816" fill="#010101" stroke-width="0"><path d="M1814.348 1290.633c0-.22.04-.642.04-.772v-24.32h27.167v24.44c0 .01.03.431.03.652 0 7.278-6.105 13.193-13.613 13.193s-13.624-5.915-13.624-13.193Zm-1.655 0c0 8.2 6.837 14.847 15.278 14.847 8.432 0 15.279-6.647 15.279-14.847 0-.27-.04-.772-.04-.772v-25.975h-30.477v25.975s-.04.501-.04.772Z"></path><path d="M1817.736 1261.69h20.461v1.705h-20.461v-1.704Zm-1.644-1.653v5.012h23.759v-5.012h-23.76Z"></path></g><g data-name="1930516476720"><path d="M1834.909 1354.321v40.762h-36.29v-40.762h36.29Zm1.283-1.283h-38.857v43.328h38.857v-43.328Z" fill="#231f20" stroke-width="0"></path><path d="M1830.718 1359.935c.953 0 1.735.782 1.735 1.735v25.954c0 .953-.782 1.725-1.735 1.725h-13.814a1.733 1.733 0 0 1-1.734-1.725v-25.954c0-.953.782-1.735 1.734-1.735h13.814Zm0-1.283h-13.814a3.02 3.02 0 0 0-3.018 3.018v25.954a3.012 3.012 0 0 0 3.018 3.008h13.814a3.02 3.02 0 0 0 3.018-3.018v-25.944a3.02 3.02 0 0 0-3.018-3.018Zm-18.857 13.073a1.04 1.04 0 0 0 1.043-1.033 1.042 1.042 0 1 0-2.085 0c0 .572.46 1.033 1.042 1.033Zm0 7.909a1.04 1.04 0 0 0 1.043-1.042 1.04 1.04 0 0 0-1.043-1.033c-.581 0-1.042.461-1.042 1.033 0 .581.46 1.042 1.042 1.042Z" fill="#231f20" stroke-width="0"></path><path fill="none" stroke="#231f20" stroke-linecap="round" stroke-miterlimit="22.983" stroke-width=".471" d="M1811.1 1374.642h7.047"></path><path d="M1801.706 1356.477v2.566h-3.088v-2.576l3.088.01Zm1.283-1.293h-5.654v5.152l5.654-.01v-5.142Zm-1.283 35.056v2.577h-3.088v-2.576h3.088Zm1.283-1.282h-5.654v5.142h5.654v-5.142Z" fill="#010101" stroke-width="0"></path><path fill="none" stroke="#010101" stroke-linecap="round" stroke-linejoin="round" stroke-width=".471" d="M1800.162 1360.166v28.792"></path></g><g data-name="1933075674608" stroke-width="0"><path d="M1719.451 1294.533h42.747a9.804 9.804 0 0 1 6.947 2.897 9.799 9.799 0 0 1 2.887 6.937v43.488a9.817 9.817 0 0 1-2.887 6.938 9.798 9.798 0 0 1-6.947 2.887h-42.747a9.798 9.798 0 0 1-6.947-2.887 9.816 9.816 0 0 1-2.887-6.938v-43.488a9.799 9.799 0 0 1 2.887-6.937c1.784-1.785 4.24-2.897 6.947-2.897Zm42.747-.592h-42.747c-2.867 0-5.473 1.183-7.358 3.068a10.357 10.357 0 0 0-3.068 7.358v43.488c0 2.868 1.173 5.474 3.068 7.359a10.39 10.39 0 0 0 7.358 3.057h42.747a10.39 10.39 0 0 0 7.358-3.057 10.357 10.357 0 0 0 3.068-7.359v-43.488c0-2.867-1.173-5.474-3.068-7.358-1.885-1.885-4.491-3.068-7.358-3.068Z"></path><path d="M1720.925 1296.748h39.789a9.108 9.108 0 0 1 6.456 2.677 9.144 9.144 0 0 1 2.677 6.446v40.47a9.109 9.109 0 0 1-2.677 6.447 9.117 9.117 0 0 1-6.456 2.686h-39.789a9.111 9.111 0 0 1-6.446-2.686 9.109 9.109 0 0 1-2.677-6.446v-40.471a9.144 9.144 0 0 1 2.677-6.446 9.102 9.102 0 0 1 6.446-2.677Zm39.789-.591h-39.789a9.694 9.694 0 0 0-6.857 2.847 9.702 9.702 0 0 0-2.857 6.867v40.47a9.667 9.667 0 0 0 2.857 6.868 9.661 9.661 0 0 0 6.857 2.857h39.789a9.667 9.667 0 0 0 6.867-2.857 9.667 9.667 0 0 0 2.857-6.868v-40.47a9.702 9.702 0 0 0-2.857-6.867 9.7 9.7 0 0 0-6.867-2.847Z"></path><path d="M1706.85 1291.736h67.94v68.75h-67.94v-68.75Zm68.53-1.183h-69.703v71.107h70.295v-71.107h-.591Z"></path><path d="M1719.13 1301.91c.622 0 1.183.262 1.584.663.411.4.662.962.662 1.583s-.25 1.183-.662 1.584a2.202 2.202 0 0 1-1.583.662c-.612 0-1.184-.25-1.584-.662-.401-.4-.652-.962-.652-1.584s.25-1.183.652-1.583a2.243 2.243 0 0 1 1.583-.662Zm2.005.241c-.51-.51-1.223-.832-2.005-.832s-1.483.321-1.994.832a2.791 2.791 0 0 0-.832 2.005 2.826 2.826 0 0 0 4.831 2.005 2.834 2.834 0 0 0 0-4.01Z"></path></g><path d="M1859.36 1404.406v3.499h-12.802c-.03-1.424.31-3.028 1.022-4.792.712-1.755 2.025-3.84 3.92-6.236 2.226-2.797 3.68-4.962 4.361-6.496.682-1.534 1.033-2.957 1.033-4.27 0-1.524-.351-2.767-1.053-3.73-.702-.952-1.574-1.433-2.607-1.433-1.102 0-2.005.51-2.716 1.544-.712 1.042-1.063 2.526-1.063 4.45l-2.436-.37c.17-2.857.812-5.013 1.925-6.456s2.566-2.166 4.38-2.166c1.976 0 3.47.842 4.482 2.516 1.012 1.685 1.524 3.6 1.524 5.745 0 1.895-.401 3.719-1.193 5.453-.792 1.755-2.306 4.08-4.532 6.988-1.423 1.834-2.335 3.087-2.746 3.749a11.764 11.764 0 0 0-1.013 2.005h9.514Z" stroke-width="0"></path><path data-name="1 21" d="M1863.21 1407.905v-4.17h2.696v4.17c0 1.624-.18 2.887-.562 3.8-.37.922-.922 1.623-1.634 2.115l-.661-1.574c.48-.321.842-.812 1.082-1.454.241-.652.371-1.614.401-2.887h-1.323Z" fill="#000" stroke-width="0"></path><path data-name="2 22" d="M1884.372 1393.178c0-4.992.531-8.792 1.594-11.358 1.073-2.576 2.636-3.87 4.712-3.87 1.834 0 3.288 1.043 4.34 3.128 1.284 2.526 1.925 6.567 1.925 12.1 0 4.983-.521 8.762-1.584 11.348-1.052 2.587-2.626 3.87-4.711 3.87-1.845 0-3.349-1.133-4.522-3.408-1.163-2.276-1.754-6.216-1.754-11.81Zm2.436 0c0 4.842.371 8.1 1.103 9.744.722 1.655 1.664 2.477 2.807 2.477 1.072 0 1.975-.832 2.707-2.507.721-1.674 1.082-4.902 1.082-9.714 0-4.872-.36-8.12-1.093-9.764s-1.674-2.466-2.847-2.466c-1.062 0-1.954.832-2.676 2.506-.722 1.674-1.083 4.912-1.083 9.724Z" fill="#000" stroke-width="0"></path><path data-name="3 23" d="m1869.725 1400.988 2.276-.291c.361 3.138 1.434 4.702 3.208 4.702.792 0 1.514-.341 2.166-1.023.651-.692 1.192-1.915 1.644-3.67.45-1.743.671-3.799.671-6.134v-.742c-.49 1.223-1.153 2.175-1.985 2.887s-1.694 1.063-2.556 1.063c-1.574 0-2.927-.873-4.07-2.617-1.143-1.734-1.714-4.13-1.714-7.148 0-3.117.591-5.574 1.774-7.378 1.183-1.795 2.617-2.687 4.32-2.687 1.194 0 2.307.501 3.35 1.504 1.042 1.002 1.844 2.476 2.415 4.441.562 1.945.842 4.762.842 8.431 0 4.1-.3 7.278-.912 9.544s-1.434 3.92-2.476 4.962c-1.043 1.043-2.216 1.564-3.509 1.564-1.464 0-2.697-.631-3.68-1.895-.982-1.273-1.573-3.117-1.763-5.513Zm9.715-13.183c0-2.125-.381-3.8-1.123-5.023-.752-1.223-1.614-1.834-2.597-1.834-1.012 0-1.924.651-2.726 1.955-.792 1.303-1.193 3.037-1.193 5.213 0 1.954.38 3.508 1.143 4.671s1.674 1.745 2.726 1.745c1.053 0 1.945-.582 2.677-1.755.732-1.163 1.093-2.827 1.093-4.972Z" fill="#000" stroke-width="0"></path><path d="M1734.348 1439.684v3.499h-12.801c-.03-1.424.31-3.018 1.022-4.782.712-1.755 2.025-3.84 3.92-6.246 2.225-2.797 3.68-4.962 4.36-6.486.692-1.534 1.033-2.957 1.033-4.28 0-1.524-.35-2.757-1.052-3.72-.702-.962-1.574-1.433-2.597-1.433-1.112 0-2.015.51-2.726 1.544-.702 1.032-1.063 2.516-1.063 4.45l-2.436-.37c.17-2.868.812-5.013 1.925-6.466 1.112-1.444 2.566-2.166 4.38-2.166 1.975 0 3.469.842 4.492 2.526 1.012 1.685 1.513 3.59 1.513 5.745 0 1.894-.39 3.709-1.193 5.453-.792 1.745-2.305 4.07-4.53 6.988-1.414 1.834-2.337 3.077-2.748 3.749a12.458 12.458 0 0 0-1.012 1.995h9.513Z" stroke-width="0"></path><path data-name="1 24" d="M1738.208 1443.183v-4.16h2.697v4.17c0 1.614-.19 2.877-.572 3.8-.37.912-.922 1.623-1.634 2.104l-.661-1.563c.48-.331.842-.813 1.082-1.464.24-.642.381-1.604.401-2.887h-1.313Z" fill="#000" stroke-width="0"></path><path data-name="2 25" d="M1759.36 1428.466c0-5.002.532-8.792 1.605-11.368 1.062-2.577 2.626-3.87 4.701-3.87 1.835 0 3.289 1.043 4.351 3.138 1.273 2.526 1.925 6.556 1.925 12.1 0 4.972-.531 8.762-1.594 11.338-1.053 2.587-2.627 3.88-4.712 3.88-1.834 0-3.338-1.143-4.51-3.419s-1.765-6.215-1.765-11.799Zm2.437-.01c0 4.852.37 8.1 1.103 9.754.731 1.644 1.664 2.476 2.807 2.476 1.082 0 1.984-.832 2.706-2.506s1.093-4.912 1.093-9.724c0-4.862-.371-8.11-1.103-9.764-.732-1.644-1.674-2.456-2.837-2.456-1.072 0-1.965.832-2.687 2.506-.711 1.674-1.082 4.902-1.082 9.714Z" fill="#000" stroke-width="0"></path><path data-name="3 26" d="m1744.353 1435.353 2.507-.29c.19 1.894.631 3.308 1.303 4.23.682.922 1.474 1.393 2.376 1.393 1.123 0 2.085-.651 2.907-1.964.802-1.304 1.213-3.098 1.213-5.364 0-2.135-.391-3.78-1.183-4.952-.782-1.173-1.764-1.764-2.957-1.764-.712 0-1.384.26-2.015.771-.622.502-1.123 1.203-1.484 2.116l-2.236-.451 1.875-15.349h9.584v3.5h-7.71l-1.022 8.07c1.143-1.274 2.356-1.906 3.64-1.906 1.623 0 3.027.883 4.22 2.617 1.193 1.744 1.784 4.09 1.784 7.048 0 2.917-.591 5.423-1.784 7.498-1.193 2.085-2.807 3.128-4.812 3.128-1.674 0-3.078-.732-4.23-2.205-1.154-1.484-1.815-3.52-1.976-6.126Z" fill="#000" stroke-width="0"></path><path d="M2019.599 893.564v4.19h8.31v-4.781h-8.31v.591Zm1.183 3.018v-2.426h5.954v2.426h-5.954Z" fill="#58595b" stroke-width="0" data-name="1933075680896"></path><g data-name="1933075681472" fill="#58595b" stroke-width="0"><path d="M1935.87 1423.524v-5.213c0-20.612-6.426-37.343-17.965-48.922-11.548-11.589-28.25-18.025-48.791-18.025h-5.885v-.992h5.885c20.812 0 37.754 6.546 49.493 18.315 11.73 11.76 18.256 28.742 18.256 49.624v5.213h-.993Z"></path><path d="M1863.23 1421.268h73.633v2.957h-73.634v-2.957z"></path><path d="M1871.54 1424.737v4.2h-8.31v-4.792h8.31v.592Zm-1.183 3.017v-2.426h-5.945v2.426h5.945Zm1.183-81.573v4.19h-8.31v-4.781h8.31v.591Zm-1.183 3.008v-2.416h-5.945v2.416h5.945Z"></path></g><g data-name="1933075691552" fill="#58595b" stroke-width="0"><path d="M1711.09 1371.494h5.203c20.612 0 37.353 6.426 48.932 17.965 11.58 11.549 18.015 28.25 18.015 48.792v5.884h.993v-5.884c0-20.812-6.537-37.755-18.306-49.494-11.77-11.729-28.752-18.255-49.634-18.255h-5.203v.992Z"></path><path d="M1713.336 1444.135v-73.633h-2.947v73.633h2.947z"></path><path d="M1709.867 1435.824h-4.19v8.311h4.782v-8.31h-.592Zm-3.017 1.183h2.426v5.945h-2.426v-5.945Zm81.583-1.183h-4.2v8.311h4.792v-8.31h-.592Zm-3.017 1.183h2.426v5.945h-2.426v-5.945Z"></path></g><path fill="#58595b" stroke-width="0" d="M1853.595 915.469h413.029v-17.715h-413.029v17.715zm-165.632 326.854h183.347v17.714h-183.347v-17.714zM433.008 1375.624v-133.301h-8.311v133.301h8.31zm143.998-13.824h-60.65v8.31h60.65v-8.31z"></path><g data-name="1933075698752" fill="#010101" stroke-width="0"><path d="M545.297 1310.472c.22 0 .642.03.772.03h24.32v27.168h-24.44c-.01 0-.431.04-.652.04-7.278 0-13.192-6.115-13.192-13.624s5.914-13.614 13.192-13.614Zm0-1.654c-8.2 0-14.857 6.837-14.857 15.268 0 8.441 6.657 15.278 14.857 15.278.261 0 .772-.04.772-.04h25.975v-30.476h-25.975s-.511-.03-.772-.03Z"></path><path d="M574.24 1313.86v20.462h-1.705v-20.461h1.704Zm1.654-1.653h-5.023v23.769h5.023v-23.77Z"></path></g><g data-name="1933075696496"><path d="M538.32 1394.832v40.762h36.29v-40.762h-36.29Zm-1.283-1.283h38.857v43.328h-38.857v-43.328Z" fill="#231f20" stroke-width="0"></path><path d="M542.51 1400.456c-.952 0-1.734.772-1.734 1.725v25.954c0 .953.782 1.725 1.734 1.725h13.815c.952 0 1.734-.772 1.734-1.725v-25.954c0-.953-.782-1.725-1.734-1.725H542.51Zm0-1.283h13.815a3.012 3.012 0 0 1 3.017 3.008v25.954a3.012 3.012 0 0 1-3.017 3.008H542.51a3.014 3.014 0 0 1-3.017-3.018v-25.944a3.014 3.014 0 0 1 3.017-3.018v.01Zm18.857 13.073a1.048 1.048 0 0 1-1.042-1.043c0-.571.47-1.043 1.042-1.043s1.043.472 1.043 1.043-.471 1.043-1.043 1.043Zm0 7.899a1.04 1.04 0 0 1-1.042-1.032 1.042 1.042 0 1 1 2.085 0 1.04 1.04 0 0 1-1.043 1.032Z" fill="#231f20" stroke-width="0"></path><path fill="none" stroke="#231f20" stroke-linecap="round" stroke-miterlimit="22.983" stroke-width=".471" d="M562.13 1415.153h-7.058"></path><path d="M571.523 1396.988v2.576l3.087-.01v-2.576l-3.087.01Zm-1.284-1.284h5.655v5.143l-5.655-.01v-5.143.01Zm1.284 35.048v2.576h3.087v-2.576h-3.087Zm-1.284-1.283h5.655v5.142h-5.655v-5.142Z" fill="#010101" stroke-width="0"></path><path fill="none" stroke="#010101" stroke-linecap="round" stroke-linejoin="round" stroke-width=".471" d="M573.066 1400.677v28.792"></path></g><g data-name="1933075703840" fill="#58595b" stroke-width="0"><path d="M497.338 1453.559v-5.213c0-20.602-6.426-37.343-17.965-48.922-11.549-11.58-28.25-18.015-48.791-18.015h-5.885v-1.003h5.885c20.821 0 37.754 6.547 49.493 18.316 11.73 11.77 18.255 28.742 18.255 49.624v5.213h-.992Z"></path><path d="M424.697 1451.313h73.633v2.947h-73.633v-2.947z"></path><path d="M433.008 1454.772v4.2h-8.311v-4.782h8.31v.582Zm-1.183 3.017v-2.426h-5.945v2.426h5.945Zm1.183-81.573v4.19h-8.311v-4.782h8.31v.592Zm-1.183 3.017v-2.426h-5.945v2.426h5.945Z"></path></g><g data-name="1933075710608" fill="#58595b" stroke-width="0"><path d="M438.421 1297.47h5.213c20.601 0 37.343 6.416 48.922 17.965s18.015 28.24 18.015 48.791v5.885h.992v-5.885c0-20.822-6.536-37.754-18.305-49.493-11.77-11.74-28.752-18.265-49.624-18.265h-5.213v1.002Z"></path><path d="M440.667 1370.11v-73.643h-2.948v73.644h2.948z"></path><path d="M437.198 1361.8h-4.19v8.31h4.782v-8.31h-.592Zm-3.007 1.183h2.416v5.945h-2.416v-5.945Zm81.573-1.183h-4.2v8.31h4.791v-8.31h-.591Zm-3.018 1.183h2.426v5.945h-2.426v-5.945Z"></path></g><path fill="#58595b" stroke-width="0" d="M433.008 1458.972v12.812h-8.311v-12.812h8.31zm1272.669-198.174v183.337h-8.31v-183.337h8.31z"></path></g></g></svg>