<?xml version="1.0" encoding="UTF-8"?>
<svg id="_Слой_1" data-name="Слой_1" xmlns="http://www.w3.org/2000/svg" xmlns:xlink="http://www.w3.org/1999/xlink" version="1.1" viewBox="0 0 603.32 519.58">
  <!-- Generator: Adobe Illustrator 29.5.1, SVG Export Plug-In . SVG Version: 2.1.0 Build 141)  -->
  <defs>
    <style>
      .st0, .st1 {
        fill: none;
      }

      .st1 {
        display: none;
      }

      .st2 {
        stroke-miterlimit: 22.97;
      }

      .st2, .st3, .st4 {
        fill: #214270;
      }

      .st2, .st4 {
        stroke: #fff;
        stroke-linecap: round;
        stroke-width: .47px;
      }

      .st4 {
        stroke-linejoin: round;
      }

      .st5 {
        clip-path: url(#clippath);
      }
    </style>
    <clipPath id="clippath">
      <polygon class="st0" points="20.63 519.58 20.63 392.82 0 392.82 0 189.83 26.54 189.83 28.2 5.71 414.69 0 414.69 88.32 603.32 88.32 603.32 519.58 20.63 519.58 20.63 519.58"/>
    </clipPath>
  </defs>
  <path class="st1" d="M20.63,519.58v-126.75H0v-202.99h26.54L28.2,5.71,414.69,0v88.32h188.63v431.26H20.63h0Z"/>
  <path class="st1" d="M28.92,495.29v-112.27H8.86v-181.45l23.58-2.88V9.09l376.55,4.93-3.16,83.16h183.34l-3.57,389.72-556.69,8.39h0Z"/>
  <g class="st5">
    <g>
      <path class="st3" d="M-1115.4-1172.29H1205.67V514.7H-1134.82v-1686.99h19.42ZM1166.82-1133.45H-1095.97V475.86H1166.82v-1609.31h0Z"/>
      <g>
        <path class="st3" d="M20.63,128.7V5.71h23.62v122.99h-23.62ZM20.63,477.09v-101.99h23.62v101.99h-23.62ZM579.71,263.33v-122.99h23.61v122.99h-23.61ZM579.71,477.09v-101.99h23.61v101.99h-23.61ZM585.61,5.71h183.37v17.71h-183.37V5.71Z"/>
        <path class="st3" d="M585.61,375.1V6.89h17.71v368.21h-17.71ZM26.54,206.47v-80.13h17.71v80.13h-17.71ZM414.69,5.71h-47.23v17.71h47.23V5.71ZM41.59,5.71h240.21v17.71H41.59V5.71ZM396.98,88.32h188.63v17.71h-188.63v-17.71ZM-112.45,24.93H28.92v17.71H-112.45v-17.71h0Z"/>
        <path class="st3" d="M414.69,92.6V22.24h-17.71v70.36h17.71ZM0,388.72v-198.9h17.72v198.9H0Z"/>
        <path class="st3" d="M0,189.83h44.25v17.72H0v-17.72ZM0,375.1h44.25v17.72H0v-17.72Z"/>
      </g>
      <g>
        <path class="st3" d="M595.14,45.64h36.71v8.31h-36.71v-8.31ZM76.19,54.22V19.38h8.31v34.83h-8.31ZM-96.87,5.71H25.55v8.31h-122.42V5.71Z"/>
        <path class="st3" d="M44.25,45.91h36.7v8.31h-36.7v-8.31ZM134.03,199.24h111.13v8.31h-111.13v-8.31ZM-111.61,100.21H28.2v8.31H-111.61v-8.31h0ZM408.99,5.71h186.14v8.31h-186.14V5.71Z"/>
        <path class="st3" d="M151.86,23.42v182.51h-8.31V23.42h8.31ZM245.16,23.42v85.56h-8.31V23.42h8.31ZM245.16,192.34v13h-8.31v-13h8.31ZM42.26,199.17h8.43v8.31h-8.43v-8.31Z"/>
      </g>
      <g>
        <path class="st3" d="M100.04,54.03c0-.22.03-.64.04-.77v-24.32h27.17v24.44s.04.43.04.65c0,7.27-6.11,13.19-13.62,13.19s-13.62-5.92-13.62-13.19ZM98.39,54.03c0,8.2,6.84,14.86,15.28,14.86s15.28-6.65,15.28-14.86c0-.27-.04-.77-.04-.77v-25.98h-30.47v25.98s-.04.5-.04.77h0Z"/>
        <path class="st3" d="M103.44,25.08h20.46v1.71h-20.46v-1.71ZM101.78,23.42v5.02h23.76v-5.02h-23.76Z"/>
      </g>
      <g>
        <path class="st3" d="M105.97,102.38v40.76h36.3v-40.76h-36.3ZM104.69,101.09h38.87v43.34h-38.87v-43.34Z"/>
        <path class="st3" d="M110.16,107.99c-.96,0-1.73.78-1.73,1.73v25.96c0,.95.78,1.72,1.73,1.72h13.82c.95,0,1.72-.77,1.72-1.72v-25.96c0-.95-.77-1.73-1.72-1.73h-13.82ZM110.16,106.71h13.82c1.66,0,3.01,1.35,3.02,3.02v25.96c0,1.66-1.35,3.01-3.02,3.02h-13.82c-1.66,0-3.01-1.35-3.02-3.02h0v-25.95c0-1.66,1.35-3.01,3.01-3.02h0ZM129.02,119.79c-.57,0-1.04-.46-1.04-1.03,0-.58.47-1.04,1.04-1.04s1.04.46,1.04,1.04-.46,1.03-1.04,1.03h0ZM129.02,127.7c-.57,0-1.04-.47-1.04-1.04,0-.57.47-1.04,1.04-1.04.57,0,1.04.47,1.04,1.04,0,.57-.47,1.04-1.04,1.04Z"/>
        <path class="st2" d="M129.78,122.7h-7.05"/>
        <path class="st3" d="M139.18,104.53v2.57h3.08v-2.57h-3.08ZM137.9,103.24h5.65v5.14h-5.65v-5.14ZM139.18,138.31v2.57h3.08v-2.57h-3.08ZM137.9,137.02h5.65v5.15h-5.65v-5.15Z"/>
        <path class="st4" d="M140.72,108.22v28.79"/>
      </g>
      <path class="st3" d="M604.5,55.13h67.95v68.75h-67.95V55.13h0ZM673.05,53.95h-69.72v71.12h70.32V53.95h-.59Z"/>
      <g>
        <path class="st3" d="M165.64,27.41h42.76c2.7,0,5.16,1.1,6.94,2.89s2.89,4.24,2.89,6.94v43.49c0,2.61-1.04,5.11-2.89,6.94-1.78,1.78-4.24,2.9-6.94,2.9h-42.76c-2.61,0-5.1-1.05-6.94-2.9-1.85-1.84-2.89-4.34-2.89-6.94v-43.49c0-2.7,1.1-5.16,2.89-6.94s4.25-2.89,6.94-2.89ZM208.39,26.82h-42.76c-2.86,0-5.47,1.17-7.36,3.06-1.95,1.95-3.05,4.6-3.06,7.36v43.49c0,2.86,1.17,5.48,3.06,7.36,1.95,1.95,4.6,3.05,7.36,3.06h42.76c2.86,0,5.47-1.17,7.36-3.06,1.96-1.95,3.05-4.6,3.06-7.36v-43.49c0-2.86-1.17-5.47-3.06-7.36-1.95-1.95-4.6-3.05-7.36-3.06h0Z"/>
        <path class="st3" d="M167.12,29.61h39.79c2.52,0,4.8,1.03,6.45,2.68s2.69,3.94,2.69,6.44v40.48c0,2.5-1.03,4.79-2.69,6.44s-3.94,2.69-6.45,2.69h-39.79c-2.51,0-4.79-1.03-6.44-2.69s-2.69-3.94-2.69-6.44v-40.48c0-2.5,1.03-4.79,2.69-6.44s3.94-2.68,6.44-2.68ZM206.91,29.02h-39.79c-2.58,0-5.05,1.03-6.86,2.85-1.83,1.82-2.85,4.29-2.85,6.86v40.48c0,2.58,1.03,5.05,2.85,6.86,1.82,1.83,4.29,2.86,6.86,2.85h39.79c2.58,0,5.05-1.03,6.87-2.85,1.75-1.76,2.85-4.19,2.85-6.86v-40.48c0-2.68-1.1-5.1-2.85-6.86-1.82-1.83-4.29-2.85-6.87-2.85h0Z"/>
        <path class="st3" d="M153.05,24.6h67.94v68.75h-67.94V24.6ZM221.58,23.42h-69.71v71.12h70.31V23.42h-.59Z"/>
        <path class="st3" d="M165.33,34.78c.6,0,1.17.24,1.58.66.4.4.66.96.66,1.58s-.26,1.18-.66,1.58c-.87.88-2.29.88-3.17,0-.42-.42-.66-.99-.66-1.59,0-1.24,1-2.24,2.24-2.24h0,0ZM167.33,35.02c-1.11-1.11-2.9-1.11-4.01,0-1.11,1.11-1.11,2.9,0,4.01h0c1.11,1.11,2.9,1.11,4.01,0,1.11-1.11,1.11-2.9,0-4.01Z"/>
      </g>
      <path class="st3" d="M272.9,297.87l2.37-.5c.49,3.94,1.74,5.91,3.74,5.91,1.08,0,2.01-.58,2.81-1.74.79-1.15,1.18-2.67,1.18-4.51,0-1.74-.36-3.15-1.09-4.2-.72-1.06-1.61-1.59-2.68-1.59-.45,0-1,.14-1.66.41l.26-3.2.37.04c1.17,0,2.12-.46,2.86-1.37.72-.9,1.09-2.12,1.09-3.65,0-1.4-.31-2.53-.92-3.37-.61-.86-1.35-1.28-2.23-1.28s-1.67.44-2.3,1.34c-.62.89-1.02,2.25-1.19,4.08l-2.38-.67c.31-2.56.98-4.49,2.03-5.79,1.04-1.3,2.31-1.95,3.8-1.95,1.57,0,2.9.72,3.99,2.19,1.09,1.46,1.64,3.31,1.64,5.53,0,1.35-.23,2.55-.7,3.6-.46,1.04-1.11,1.86-1.94,2.45.77.28,1.41.73,1.9,1.34.51.63.91,1.46,1.23,2.5.31,1.05.46,2.21.46,3.5,0,2.73-.63,4.98-1.91,6.72-1.27,1.74-2.8,2.61-4.58,2.61-1.64,0-3.05-.76-4.19-2.28-1.15-1.52-1.8-3.57-1.96-6.13Z"/>
      <path class="st3" d="M296.83,305.79h-2.38v-23.33c-.54.81-1.27,1.64-2.19,2.49-.92.84-1.76,1.48-2.55,1.92v-3.51c1.31-.95,2.46-2.12,3.47-3.51,1-1.37,1.7-2.71,2.11-4.03h1.53v29.95h0Z"/>
      <path class="st3" d="M310.43,297.87l2.38-.5c.49,3.94,1.73,5.91,3.74,5.91,1.08,0,2.01-.58,2.81-1.74.78-1.15,1.18-2.67,1.18-4.51,0-1.74-.36-3.15-1.09-4.2-.73-1.06-1.61-1.59-2.67-1.59-.45,0-1,.14-1.66.41l.26-3.2.37.04c1.17,0,2.12-.46,2.85-1.37.73-.9,1.09-2.12,1.09-3.65,0-1.4-.3-2.53-.91-3.37-.61-.86-1.35-1.28-2.23-1.28s-1.68.44-2.3,1.34c-.62.89-1.02,2.25-1.19,4.08l-2.37-.67c.3-2.56.98-4.49,2.02-5.79,1.05-1.3,2.32-1.95,3.81-1.95,1.56,0,2.9.72,3.99,2.19,1.09,1.46,1.63,3.31,1.63,5.53,0,1.35-.22,2.55-.69,3.6s-1.11,1.86-1.94,2.45c.74.27,1.4.73,1.9,1.34.51.63.91,1.46,1.22,2.5.31,1.05.47,2.21.47,3.5,0,2.73-.64,4.98-1.91,6.72s-2.81,2.61-4.58,2.61c-1.64,0-3.05-.76-4.19-2.28-1.15-1.52-1.8-3.57-1.96-6.13Z"/>
      <path class="st3" d="M304.28,305.79v-4.17h2.69v4.18c0,1.61-.19,2.88-.56,3.8-.38.91-.92,1.62-1.64,2.1l-.66-1.56c.48-.33.84-.81,1.08-1.46.25-.64.38-1.61.4-2.89h-1.31,0Z"/>
      <path class="st3" d="M325.43,291.06c0-5,.54-8.79,1.6-11.36,1.06-2.57,2.64-3.87,4.71-3.87,1.83,0,3.29,1.04,4.34,3.13,1.28,2.53,1.92,6.56,1.92,12.1,0,4.98-.52,8.77-1.58,11.35-1.06,2.58-2.64,3.88-4.72,3.88-1.83,0-3.34-1.14-4.51-3.42-1.17-2.29-1.76-6.22-1.76-11.81h0ZM327.87,291.06c0,4.84.37,8.1,1.1,9.75.73,1.65,1.66,2.47,2.81,2.47,1.08,0,1.98-.83,2.71-2.5.72-1.67,1.08-4.91,1.08-9.72s-.36-8.12-1.09-9.77-1.68-2.46-2.84-2.46c-1.07,0-1.96.83-2.69,2.5-.71,1.67-1.08,4.91-1.08,9.73Z"/>
      <path class="st3" d="M206.56,168.96v3.5h-12.81c-.03-1.42.31-3.02,1.02-4.78s2.02-3.85,3.93-6.25c2.22-2.8,3.68-4.96,4.36-6.49.69-1.53,1.03-2.95,1.03-4.28,0-1.51-.35-2.76-1.05-3.72-.7-.96-1.57-1.44-2.6-1.44-1.1,0-2.01.52-2.71,1.55-.71,1.03-1.07,2.53-1.07,4.45l-2.44-.37c.17-2.87.81-5.02,1.92-6.46s2.57-2.16,4.39-2.16c1.97,0,3.47.84,4.48,2.52,1.02,1.68,1.52,3.6,1.52,5.74,0,1.89-.39,3.72-1.19,5.46-.79,1.74-2.3,4.08-4.53,6.98-1.42,1.83-2.33,3.08-2.74,3.75-.42.67-.75,1.33-1.01,2h9.52Z"/>
      <path class="st3" d="M210.41,172.46v-4.17h2.69v4.18c0,1.61-.18,2.89-.56,3.8-.37.92-.92,1.62-1.64,2.11l-.66-1.57c.48-.33.84-.81,1.08-1.45.25-.65.38-1.61.4-2.9h-1.31Z"/>
      <path class="st3" d="M231.57,157.74c0-5,.54-8.8,1.6-11.37,1.06-2.57,2.63-3.87,4.71-3.87,1.83,0,3.29,1.04,4.34,3.14,1.29,2.53,1.93,6.56,1.93,12.1,0,4.98-.53,8.76-1.59,11.34-1.05,2.58-2.62,3.88-4.72,3.88-1.83,0-3.34-1.14-4.51-3.42s-1.76-6.21-1.76-11.8ZM234.01,157.73c0,4.85.36,8.1,1.09,9.75.73,1.65,1.67,2.48,2.81,2.48,1.07,0,1.97-.83,2.7-2.52.72-1.67,1.09-4.91,1.09-9.72s-.37-8.11-1.1-9.77c-.73-1.64-1.67-2.46-2.84-2.46-1.06,0-1.96.84-2.68,2.52-.72,1.67-1.08,4.91-1.08,9.72h0Z"/>
      <path class="st3" d="M228.84,149.92l-2.37.29c-.22-1.53-.55-2.62-.99-3.29-.63-.94-1.38-1.42-2.27-1.42-1.38,0-2.48,1.08-3.32,3.27-.72,1.87-1.08,4.64-1.09,8.31.54-1.31,1.23-2.29,2.06-2.96.82-.68,1.69-1.02,2.61-1.02,1.54,0,2.88.88,4.02,2.65,1.14,1.75,1.71,4.11,1.71,7.05,0,1.99-.29,3.81-.86,5.42-.57,1.63-1.31,2.82-2.21,3.6-.9.77-1.89,1.16-2.96,1.16-1.95,0-3.57-1.11-4.83-3.34-1.27-2.22-1.9-5.93-1.9-11.13,0-5.76.65-9.87,1.94-12.31,1.29-2.45,2.95-3.68,4.98-3.68,1.46,0,2.69.63,3.69,1.9.98,1.26,1.58,3.11,1.8,5.51h0ZM219.16,162.79c0,2.16.4,3.89,1.2,5.2.8,1.32,1.73,1.97,2.81,1.97.93,0,1.75-.62,2.49-1.85.73-1.24,1.1-2.94,1.1-5.09s-.36-3.77-1.09-4.94c-.73-1.16-1.62-1.74-2.67-1.74s-1.92.58-2.69,1.74c-.77,1.15-1.15,2.72-1.15,4.71h0Z"/>
      <path class="st3" d="M81.54,204.24v3.51h-12.81c-.03-1.42.31-3.03,1.02-4.79.72-1.75,2.02-3.84,3.93-6.24,2.22-2.8,3.68-4.97,4.36-6.49.69-1.53,1.03-2.95,1.03-4.28,0-1.52-.35-2.77-1.05-3.73-.7-.95-1.57-1.43-2.6-1.43-1.1,0-2.01.51-2.71,1.54-.71,1.04-1.06,2.53-1.06,4.46l-2.44-.38c.17-2.86.81-5.01,1.93-6.45,1.1-1.45,2.56-2.17,4.38-2.17,1.97,0,3.47.84,4.49,2.52,1.01,1.68,1.51,3.6,1.51,5.74,0,1.89-.39,3.72-1.18,5.46-.8,1.75-2.31,4.08-4.54,6.98-1.42,1.83-2.33,3.08-2.74,3.76-.4.63-.74,1.3-1.01,1.99h9.52,0Z"/>
      <path class="st3" d="M85.38,207.75v-4.17h2.69v4.17c0,1.62-.18,2.89-.56,3.8-.37.92-.92,1.63-1.64,2.11l-.65-1.56c.47-.33.83-.82,1.07-1.46.25-.65.38-1.61.41-2.89h-1.32Z"/>
      <path class="st3" d="M106.55,193.03c0-5,.53-8.79,1.59-11.37,1.06-2.57,2.64-3.87,4.71-3.87,1.83,0,3.29,1.04,4.35,3.14,1.28,2.52,1.92,6.56,1.92,12.1,0,4.98-.53,8.77-1.58,11.35-1.06,2.58-2.64,3.87-4.72,3.87-1.84,0-3.34-1.13-4.52-3.41-1.17-2.28-1.75-6.22-1.75-11.81h0ZM108.99,193.02c0,4.85.36,8.1,1.09,9.76s1.67,2.47,2.82,2.47c1.08,0,1.97-.83,2.7-2.5.72-1.67,1.09-4.91,1.09-9.73s-.37-8.11-1.1-9.76-1.67-2.46-2.84-2.46c-1.06,0-1.96.83-2.68,2.51-.72,1.67-1.08,4.91-1.08,9.72h0Z"/>
      <path class="st3" d="M91.53,199.83l2.38-.5c.49,3.95,1.74,5.92,3.74,5.92,1.08,0,2.01-.58,2.81-1.74.79-1.16,1.18-2.67,1.18-4.51,0-1.74-.36-3.15-1.09-4.2-.72-1.06-1.61-1.59-2.68-1.59-.44,0-1,.14-1.66.41l.26-3.2.38.05c1.16,0,2.11-.46,2.84-1.37.72-.91,1.09-2.12,1.09-3.65,0-1.4-.31-2.53-.92-3.38s-1.35-1.27-2.23-1.27-1.67.44-2.3,1.34c-.62.89-1.02,2.25-1.19,4.07l-2.37-.66c.31-2.56.98-4.49,2.02-5.79,1.05-1.3,2.32-1.96,3.82-1.96s2.89.73,3.98,2.19c1.09,1.47,1.64,3.31,1.64,5.54,0,1.35-.23,2.56-.7,3.6-.46,1.04-1.11,1.86-1.94,2.45.77.27,1.41.72,1.9,1.34.51.62.91,1.46,1.23,2.51.31,1.04.46,2.21.46,3.5,0,2.73-.63,4.98-1.9,6.72-1.28,1.74-2.81,2.6-4.59,2.6-1.64,0-3.05-.76-4.19-2.29-1.15-1.51-1.8-3.56-1.96-6.13h0Z"/>
      <g>
        <path class="st3" d="M254.77,477.27H94.2v36.02h160.57v-36.02h0ZM256.18,475.86v38.85H92.79v-38.85h163.39Z"/>
        <path class="st3" d="M254.77,496.7H94.19v3.79h160.58v-3.79ZM256.18,495.29v6.61H92.78v-6.61h163.4Z"/>
        <path class="st3" d="M254.77,496.7h-3.8v3.79h3.8v-3.79ZM256.18,495.29v6.61h-6.62v-6.61h6.62ZM98.01,496.7h-3.8v3.79h3.8v-3.79ZM99.42,495.29v6.61h-6.63v-6.61h6.63ZM221.7,496.7h-3.8v3.79h3.8v-3.79ZM223.11,495.29v6.61h-6.62v-6.61h6.62ZM531.71,477.27h-160.57v36.02h160.57v-36.02h0ZM533.11,475.86v38.85h-163.38v-38.85h163.38,0Z"/>
        <path class="st3" d="M531.71,496.7h-160.59v3.79h160.59v-3.79h0ZM533.12,495.29v6.61h-163.41v-6.61h163.41Z"/>
        <path class="st3" d="M531.71,496.7h-3.81v3.79h3.81v-3.79ZM533.12,495.29v6.61h-6.63v-6.61h6.63ZM374.95,496.7h-3.81v3.79h3.81v-3.79ZM376.36,495.29v6.61h-6.63v-6.61h6.63ZM498.64,496.7h-3.8v3.79h3.8v-3.79ZM500.06,495.29v6.61h-6.63v-6.61h6.63Z"/>
      </g>
      <path class="st3" d="M85.99,413.81l5.77-.93c.16,1.96.64,3.47,1.46,4.51.83,1.04,1.8,1.55,2.93,1.55,1.21,0,2.23-.61,3.08-1.84.84-1.24,1.26-2.94,1.26-5.12,0-2.03-.41-3.63-1.22-4.78-.81-1.16-1.78-1.73-2.94-1.73-.76,0-1.66.2-2.71.6l.64-6.55c1.55.04,2.79-.42,3.69-1.36.89-.93,1.33-2.26,1.33-3.98,0-1.42-.31-2.56-.96-3.36-.64-.81-1.46-1.22-2.46-1.22s-1.88.47-2.61,1.41c-.74.94-1.17,2.34-1.31,4.19l-5.51-1.22c.58-3.84,1.68-6.62,3.35-8.35,1.65-1.74,3.74-2.6,6.26-2.6,2.82,0,5.08,1.1,6.74,3.32,1.67,2.22,2.49,4.67,2.49,7.35,0,1.81-.37,3.46-1.12,4.92-.74,1.46-1.86,2.73-3.36,3.83,1.73.52,3.14,1.64,4.23,3.4,1.08,1.74,1.63,3.93,1.63,6.55,0,3.81-1.03,6.97-3.09,9.47-2.06,2.51-4.52,3.75-7.35,3.75s-5.03-1.05-6.92-3.17c-1.87-2.1-2.98-4.97-3.29-8.61h0Z"/>
      <path class="st3" d="M135.54,416.9h5.92v5.73c0,3.25-.34,5.66-1.03,7.24-.83,1.95-2.23,3.4-4.21,4.35l-1.16-3.3c1.16-.54,2-1.26,2.52-2.16s.78-2.19.82-3.87h-2.85v-7.99h0Z"/>
      <path class="st3" d="M180.76,383.02c3.01,0,5.44,1.57,7.3,4.73s2.79,8.69,2.79,16.57-.92,13.38-2.79,16.54c-1.86,3.17-4.29,4.74-7.28,4.74s-5.45-1.56-7.31-4.7c-1.85-3.12-2.79-8.68-2.79-16.66s.93-13.33,2.79-16.49c1.86-3.16,4.29-4.73,7.29-4.73h0ZM180.77,389.66c-1.17,0-2.1.86-2.81,2.56-.69,1.7-1.03,5.74-1.03,12.1s.34,10.39,1.03,12.09c.7,1.69,1.63,2.53,2.81,2.53s2.11-.85,2.81-2.55c.68-1.7,1.03-5.73,1.03-12.07s-.35-10.4-1.03-12.1c-.69-1.69-1.62-2.56-2.81-2.56h0Z"/>
      <path class="st3" d="M130.51,393.39l-5.77.87c-.28-3.1-1.41-4.67-3.4-4.67-1.3,0-2.37.78-3.23,2.33-.85,1.56-1.39,4.7-1.61,9.43.74-1.18,1.57-2.06,2.48-2.65.9-.59,1.95-.9,3.03-.89,2.43,0,4.56,1.25,6.37,3.74,1.8,2.49,2.71,5.8,2.71,9.94,0,4.39-.95,7.84-2.86,10.34-1.91,2.5-4.28,3.76-7.11,3.76-3.09,0-5.67-1.62-7.71-4.88-2.03-3.24-3.06-8.65-3.06-16.17s1.05-13.14,3.18-16.5,4.85-5.03,8.17-5.03c2.29,0,4.23.85,5.8,2.57,1.57,1.7,2.58,4.32,3.02,7.8h0ZM117.01,410.84c0,2.62.45,4.64,1.34,6.02.89,1.39,1.9,2.08,3.05,2.08s2.03-.57,2.78-1.73c.73-1.14,1.1-3.04,1.1-5.66s-.4-4.71-1.19-5.96c-.8-1.24-1.78-1.87-2.97-1.87s-2.11.6-2.92,1.79c-.79,1.18-1.19,2.96-1.19,5.33h0Z"/>
      <path class="st3" d="M166.66,417.49v7.4h-20.85c.22-2.81.9-5.47,2.04-8s3.37-5.85,6.67-9.97c2.6-3.28,4.22-5.5,4.82-6.65.89-1.69,1.33-3.39,1.33-5.1,0-1.81-.37-3.19-1.1-4.12-.74-.92-1.7-1.39-2.91-1.39-2.62,0-4.05,2.18-4.25,6.53l-5.93-.87c.36-4.24,1.43-7.35,3.21-9.34,1.78-1.98,4.16-2.96,7.12-2.96,3.26,0,5.7,1.16,7.35,3.5s2.47,5.01,2.47,8.02c0,1.71-.21,3.37-.63,4.97-.41,1.6-1.06,3.21-1.94,4.85-.88,1.62-2.33,3.69-4.38,6.21-1.91,2.36-3.11,3.94-3.63,4.7-.5.76-.92,1.5-1.23,2.22h11.81Z"/>
      <g>
        <path class="st3" d="M172.51,186.93v-5.21c0-20.61,6.42-37.35,17.97-48.93,11.55-11.58,28.25-18.02,48.8-18.02h5.88v-.99h-5.88c-20.83,0-37.76,6.54-49.5,18.31-11.74,11.77-18.26,28.75-18.26,49.63v5.21h.99Z"/>
        <path class="st3" d="M245.16,184.68h-73.64v2.96h73.64v-2.96Z"/>
        <path class="st3" d="M236.85,188.15v4.2h8.31v-4.79h-8.31v.59h0ZM238.04,191.16v-2.43h5.94v2.43h-5.94ZM236.85,109.57v4.2h8.31v-4.79h-8.31v.59ZM238.04,112.59v-2.42h5.94v2.42h-5.94Z"/>
      </g>
      <path class="st3" d="M607.52,199.24h-4.2v8.31h4.79v-8.31h-.59ZM604.5,200.42h2.42v5.95h-2.42v-5.95h0Z"/>
      <g>
        <path class="st3" d="M56.09,134.9h5.21c20.62,0,37.36,6.42,48.94,17.96,11.58,11.55,18.01,28.25,18.01,48.8v5.89h1v-5.89c0-20.82-6.54-37.76-18.31-49.5-11.77-11.73-28.75-18.26-49.64-18.26h-5.21v1h0Z"/>
        <path class="st3" d="M58.35,207.55v-73.65h-2.96v73.65h2.96Z"/>
        <path class="st3" d="M54.88,199.24h-4.2v8.31h4.79v-8.31h-.59,0ZM51.86,200.42h2.43v5.95h-2.43v-5.95h0ZM133.45,199.24h-4.2v8.31h4.78v-8.31h-.58ZM130.43,200.42h2.42v5.95h-2.42v-5.95h0Z"/>
      </g>
      <g>
        <path class="st3" d="M362.68,92.23h-5.46c-21.6,0-39.14-6.73-51.28-18.83-12.13-12.11-18.88-29.6-18.88-51.14v-6.17h-1.04v6.17c0,21.82,6.85,39.57,19.19,51.87,12.33,12.3,30.13,19.15,52.01,19.15h5.46v-1.04h0Z"/>
        <path class="st3" d="M360.7,16.09v76.67h2.6V16.09h-2.6Z"/>
        <path class="st3" d="M363.76,23.42h3.7v-7.33h-4.22v7.33h.52ZM366.42,22.38h-2.13v-5.25h2.13v5.25ZM282.32,23.42h3.7v-7.33h-4.22v7.33h.52ZM284.97,22.38h-2.13v-5.25h2.13v5.25Z"/>
      </g>
    </g>
  </g>
</svg>